<svg id="Group_15411" data-name="Group 15411" xmlns="http://www.w3.org/2000/svg" xmlns:xlink="http://www.w3.org/1999/xlink" width="100" height="34.676" viewBox="0 0 100 34.676">
  <defs>
    <clipPath id="clip-path">
      <rect id="Rectangle_8379" data-name="Rectangle 8379" width="100" height="34.676" fill="none"/>
    </clipPath>
  </defs>
  <g id="Group_15410" data-name="Group 15410" clip-path="url(#clip-path)">
    <path id="Path_46061" data-name="Path 46061" d="M121,23.775a2.058,2.058,0,0,1-.819.82,2.226,2.226,0,0,1-2.2,0,2.064,2.064,0,0,1-.82-.82,2.217,2.217,0,0,1,0-2.212,2.042,2.042,0,0,1,.829-.819,2.214,2.214,0,0,1,2.178,0,2.037,2.037,0,0,1,.828.819,2.225,2.225,0,0,1,0,2.212m-.323-2.027a1.7,1.7,0,0,0-.691-.684,1.84,1.84,0,0,0-1.815,0,1.713,1.713,0,0,0-.691.684,1.84,1.84,0,0,0,0,1.843,1.742,1.742,0,0,0,.685.684,1.846,1.846,0,0,0,1.837,0,1.729,1.729,0,0,0,.684-.684,1.85,1.85,0,0,0,0-1.843m-.88,1.5a4.483,4.483,0,0,0,.188.68h-.331a3,3,0,0,1-.162-.592c-.074-.342-.209-.471-.5-.481h-.3v1.073h-.32v-2.44a3.334,3.334,0,0,1,.614-.055,1.022,1.022,0,0,1,.72.206.617.617,0,0,1,.195.47.653.653,0,0,1-.467.628v.011a.631.631,0,0,1,.364.5m-.22-1.106c0-.32-.232-.459-.57-.459a1.3,1.3,0,0,0-.316.03v.9h.327c.342,0,.558-.188.558-.471" transform="translate(-93.417 -16.353)" fill="#001378" fill-rule="evenodd"/>
    <path id="Path_46062" data-name="Path 46062" d="M413.465,18.838c-.168,0-.872.006-.975.006-.156,0-.2.173-.2.181s-.484,2.251-.637,2.992a2.58,2.58,0,0,1-.153.477.74.74,0,0,1-.576.453c-.1.019-.861.028-1.121.029.181-.94.518-2.912.49-3.155a1.945,1.945,0,0,0-1.5-1.671,3,3,0,0,0-1.712.092,2.566,2.566,0,0,0-1.816,2.008,14.276,14.276,0,0,0-.268,2.306,1.844,1.844,0,0,0,.784,1.215,2.443,2.443,0,0,0,1.37.4h0a3.709,3.709,0,0,0,.855-.118c.066-.016.125-.038.188-.057l0,.016a1.148,1.148,0,0,1-1.1.9,2.589,2.589,0,0,1-.429,0,.705.705,0,0,1-.473-.229c-.054-.061-.178-.243-.178-.243l-1.164.6-.037.019.019.036a1.788,1.788,0,0,0,.586.668,2.445,2.445,0,0,0,1.373.4,4.2,4.2,0,0,0,.813-.116,2.46,2.46,0,0,0,1.97-1.88c.307,0,.866,0,.927,0a2.732,2.732,0,0,0,.746-.095,2.442,2.442,0,0,0,1.492-1.158,35.276,35.276,0,0,0,.89-3.827c.017-.091.021-.157-.017-.2a.179.179,0,0,0-.139-.049m-6.011,4.085a2.561,2.561,0,0,1-.429,0,.69.69,0,0,1-.646-.618c-.007-.05.224-1.657.3-2.012a1.3,1.3,0,0,1,1.571-.992.769.769,0,0,1,.644.753c.009.14-.237,1.557-.332,1.969a1.148,1.148,0,0,1-1.1.9" transform="translate(-323.582 -14.442)" fill="#001378"/>
    <path id="Path_46063" data-name="Path 46063" d="M381.923,21.9a.327.327,0,0,1,.323.383c-.276,1.573-.829,4.743-.868,4.911a2.459,2.459,0,0,1-1.979,1.912,4.156,4.156,0,0,1-.808.116,2.443,2.443,0,0,1-1.378-.4,1.789,1.789,0,0,1-.6-.7l-.017-.037,1.184-.61a3.564,3.564,0,0,0,.259.319.721.721,0,0,0,.425.177,2.547,2.547,0,0,0,.429,0,1.148,1.148,0,0,0,1.1-.9c.022-.1.606-3.353.883-4.9a.327.327,0,0,1,.323-.27Z" transform="translate(-301.031 -17.507)" fill="#001378"/>
    <path id="Path_46064" data-name="Path 46064" d="M484.089,10.191a.713.713,0,1,0-.731-.713.726.726,0,0,0,.731.713" transform="translate(-386.375 -7.006)" fill="#001378"/>
    <path id="Path_46065" data-name="Path 46065" d="M436.04,10.191a.713.713,0,1,0-.731-.713.726.726,0,0,0,.731.713" transform="translate(-347.966 -7.006)" fill="#001378"/>
    <path id="Path_46066" data-name="Path 46066" d="M444.3,8.765a.713.713,0,1,0,.731.713.726.726,0,0,0-.731-.713" transform="translate(-354.564 -7.006)" fill="#001378"/>
    <path id="Path_46067" data-name="Path 46067" d="M368.92,22.152c.081-.346.269-1.347.3-1.5a2.609,2.609,0,0,0,.051-.821,1.946,1.946,0,0,0-1.5-1.671,3.106,3.106,0,0,0-1.712.092,2.566,2.566,0,0,0-1.816,2.008c-.092.468-.179.948-.253,1.361a2.436,2.436,0,0,0-.015.946,1.844,1.844,0,0,0,.784,1.215,2.444,2.444,0,0,0,1.37.4h0a4.248,4.248,0,0,0,.813-.116,2.461,2.461,0,0,0,1.98-1.913m-2.919.78a.691.691,0,0,1-.646-.618c-.006-.049.228-1.671.3-2.012a1.3,1.3,0,0,1,1.571-.992.769.769,0,0,1,.644.753c.009.141-.238,1.559-.332,1.969a1.148,1.148,0,0,1-1.1.9,2.605,2.605,0,0,1-.429,0" transform="translate(-290.91 -14.454)" fill="#001378"/>
    <path id="Path_46068" data-name="Path 46068" d="M459.706,15.144a1.949,1.949,0,0,0-1.5-1.671,3.105,3.105,0,0,0-1.712.09,2.568,2.568,0,0,0-1.815,2.009c-.093.468-.179.949-.252,1.36a2.429,2.429,0,0,0-.017.946,2.023,2.023,0,0,0,.127.412c-.438,0-2.646-.011-2.71-.021a.435.435,0,0,1-.39-.44,2.3,2.3,0,0,1,.028-.477c.129-.742.89-4.935.89-4.937a.192.192,0,0,0-.039-.151.135.135,0,0,0-.106-.043c-.1,0-.8-.011-.972-.006s-.2.084-.233.237c-.052.274-.8,4.122-.9,4.646a2.87,2.87,0,0,0-.056,1.125A1.467,1.467,0,0,0,451.11,19.4a2.392,2.392,0,0,0,.716.095l4.691,0h.078a4.029,4.029,0,0,0,.78-.112,2.464,2.464,0,0,0,1.979-1.915c.082-.345.269-1.347.3-1.5a3.317,3.317,0,0,0,.062-.5v0a2.189,2.189,0,0,0-.011-.317m-3.271,3.1a.69.69,0,0,1-.645-.619,9.05,9.05,0,0,1,.3-2.011,1.352,1.352,0,0,1,.282-.583,1.392,1.392,0,0,1,1.29-.409.767.767,0,0,1,.642.752.845.845,0,0,1-.013.149c-.05.405-.239,1.473-.317,1.82a.983.983,0,0,1-.3.563,1.385,1.385,0,0,1-.8.341,1.67,1.67,0,0,1-.429,0" transform="translate(-359.719 -9.765)" fill="#001378"/>
    <path id="Path_46069" data-name="Path 46069" d="M381.677,70.967c.1-.515.2-1.053.3-1.643a.649.649,0,0,0-.066-.518.73.73,0,0,0-.509-.226c-.326-.044-1.2-.132-1.2-.132a12.716,12.716,0,0,0-6.1.907.865.865,0,0,0-.576.717c-.135.772-1.877,10.583-2.125,12.015a.643.643,0,0,0,.071.519.57.57,0,0,0,.442.158c.352.006,2.422,0,2.422,0a.521.521,0,0,0,.553-.45l1.865-10.555a8.186,8.186,0,0,1,4.122-.239.653.653,0,0,0,.484-.031.674.674,0,0,0,.318-.526" transform="translate(-296.863 -54.663)" fill="#001378"/>
    <path id="Path_46070" data-name="Path 46070" d="M315.1,73.994l-.322,1.743c-.8,4.232-2.964,6.473-7.371,6.473-3.386,0-5.229-2.141-5.229-5.08a6.767,6.767,0,0,1,.126-1.394l.322-1.743c.847-4.506,3.238-6.473,7.372-6.473,3.361,0,5.253,1.992,5.253,5.03a10.181,10.181,0,0,1-.15,1.444m-5.7-3.208c-1.443,0-2.8.975-3.2,3.166l-.324,1.743a7.449,7.449,0,0,0-.124,1.2,2.1,2.1,0,0,0,2.277,2.079c1.62,0,2.808-1.19,3.182-3.206l.324-1.744a6.889,6.889,0,0,0,.124-1.144,2.108,2.108,0,0,0-2.259-2.09" transform="translate(-241.546 -53.973)" fill="#001378"/>
    <path id="Path_46071" data-name="Path 46071" d="M198.464,67.568a11.436,11.436,0,0,0-3.431.123,9.579,9.579,0,0,0-3.017,1.036c-.29.161-.45.345-.29.723.213.506.465,1.054.769,1.677.172.351.438.311.677.225.106-.039.209-.086.312-.134l.121-.055a7.325,7.325,0,0,1,2.148-.635,6.549,6.549,0,0,1,2.205.047,1.279,1.279,0,0,1,1.095,1.069,4.07,4.07,0,0,1-.149,1.844l-.284-.036c-.281-.036-.552-.071-.824-.1a12.242,12.242,0,0,0-4.524.228c-2.642.686-4.059,2.55-3.791,4.987a3.373,3.373,0,0,0,1,2.054,5.636,5.636,0,0,0,3.861,1.546c.268.015.536.022.807.022a19.125,19.125,0,0,0,5.374-.855.978.978,0,0,0,.478-.275,1.087,1.087,0,0,0,.19-.516l1.322-7.349a5.574,5.574,0,0,0-.268-3.015,3.419,3.419,0,0,0-.327-.651,4.877,4.877,0,0,0-3.456-1.956m-.039,8.61-.517,2.849c-.175.024-.289.041-.462.066-.465.067-.905.131-1.355.167a5.33,5.33,0,0,1-1.884-.076,3.37,3.37,0,0,1-.69-.283.963.963,0,0,1-.528-.828,1.7,1.7,0,0,1,1.448-1.893,6.773,6.773,0,0,1,1.7-.2c.344,0,.668.019.957.041.315.024.632.065.967.108l.361.046" transform="translate(-151.437 -53.949)" fill="#001378"/>
    <path id="Path_46072" data-name="Path 46072" d="M430.176,67.537a11.436,11.436,0,0,0-3.431.123,9.58,9.58,0,0,0-3.017,1.036c-.29.161-.45.345-.29.723.213.506.465,1.054.769,1.677.172.351.438.311.677.225.106-.039.209-.086.312-.134l.121-.055a7.325,7.325,0,0,1,2.148-.635,6.549,6.549,0,0,1,2.205.047,1.279,1.279,0,0,1,1.095,1.069,4.07,4.07,0,0,1-.149,1.844l-.284-.036c-.281-.036-.552-.071-.824-.1a12.242,12.242,0,0,0-4.523.228c-2.642.686-4.059,2.55-3.791,4.987a3.373,3.373,0,0,0,1,2.054,5.636,5.636,0,0,0,3.861,1.546c.268.015.536.022.807.022a19.125,19.125,0,0,0,5.374-.855.978.978,0,0,0,.478-.275,1.087,1.087,0,0,0,.19-.516l1.322-7.349a5.574,5.574,0,0,0-.268-3.015,3.422,3.422,0,0,0-.327-.651,4.877,4.877,0,0,0-3.456-1.956m-.039,8.61L429.619,79c-.175.024-.289.041-.462.066-.465.067-.905.131-1.355.167a5.331,5.331,0,0,1-1.884-.076,3.371,3.371,0,0,1-.69-.283.963.963,0,0,1-.528-.828,1.7,1.7,0,0,1,1.448-1.893,6.773,6.773,0,0,1,1.7-.2c.344,0,.668.019.957.041.315.024.632.065.966.108l.361.046" transform="translate(-336.657 -53.924)" fill="#001378"/>
    <path id="Path_46073" data-name="Path 46073" d="M269.842,51.643h-2.01l.443-2.464a.611.611,0,0,0-.6-.72H265.36a.611.611,0,0,0-.6.5l-2.443,13.574a3.667,3.667,0,0,0,3.609,4.316h1.4a.611.611,0,0,0,.6-.5l.483-2.684h-1.272a1.222,1.222,0,0,1-1.2-1.438l1.325-7.4h2.23a.611.611,0,0,0,.6-.5l.353-1.961a.611.611,0,0,0-.6-.719" transform="translate(-209.635 -38.737)" fill="#001378"/>
    <path id="Path_46074" data-name="Path 46074" d="M135.272,48.442H123.963a.764.764,0,0,0-.752.629l-3.067,17.038a.611.611,0,0,0,.6.72l2.451.005a.611.611,0,0,0,.6-.5l1.39-7.725h7.3a.611.611,0,0,0,.6-.5l.353-1.96a.611.611,0,0,0-.6-.719h-7.08c.159-.868.527-2.933.684-3.8h8.473a.611.611,0,0,0,.6-.5l.353-1.96a.611.611,0,0,0-.6-.719" transform="translate(-96.03 -38.722)" fill="#001378"/>
    <path id="Path_46075" data-name="Path 46075" d="M2.031,16.4l8.061-3.16L1.117,9.721a.644.644,0,0,1,.47-1.2l10.271,4.025L16.8,10.608a2.532,2.532,0,0,0,0-4.715L2.031.105A1.488,1.488,0,0,0,0,1.489V15.01A1.489,1.489,0,0,0,2.031,16.4M1.353,2.813a.649.649,0,0,1,.234.044L15.145,8.168a.644.644,0,0,1-.234,1.244.654.654,0,0,1-.236-.046L1.117,4.056a.644.644,0,0,1,.236-1.244" transform="translate(0 -0.001)" fill="#0091d9"/>
    <path id="Path_46076" data-name="Path 46076" d="M16.832,51.92,1.89,57.775A2.976,2.976,0,0,0,0,60.545V72.632a1.984,1.984,0,0,0,2.708,1.847L16.4,69.116a3.174,3.174,0,0,0,2.016-2.955V49.967a2.529,2.529,0,0,1-.3.84,2.669,2.669,0,0,1-1.285,1.114" transform="translate(0 -39.941)" fill="#00b3cd"/>
  </g>
</svg>
