<svg id="Group_15446" data-name="Group 15446" xmlns="http://www.w3.org/2000/svg" xmlns:xlink="http://www.w3.org/1999/xlink" width="200" height="126.647" viewBox="0 0 200 126.647">
  <defs>
    <clipPath id="clip-path">
      <rect id="Rectangle_8411" data-name="Rectangle 8411" width="200" height="126.647" fill="none"/>
    </clipPath>
  </defs>
  <g id="Group_15446-2" data-name="Group 15446" clip-path="url(#clip-path)">
    <path id="Path_46253" data-name="Path 46253" d="M165.763,70.372a4.742,4.742,0,0,0-4.72,4.251q-.109,1.05-.268,2.085a40.993,40.993,0,0,1-8.226,19,41.328,41.328,0,0,1-5.7,5.962A1.583,1.583,0,0,1,144.8,99.26a38.353,38.353,0,0,0,7.689-9,4.744,4.744,0,0,0-4.053-7.214h-.01a4.8,4.8,0,0,0-4.068,2.3,22.034,22.034,0,0,1-2.927,3.552,37.177,37.177,0,0,1-20.4,10.614,51.039,51.039,0,0,1-8.442.7,50.437,50.437,0,0,1-20.718-4.42l-.179-.081a50.313,50.313,0,0,1-6.506-3.549A50.943,50.943,0,0,1,69.853,76.755a50.648,50.648,0,0,0,100.511-.047q.069-.558.127-1.12A4.746,4.746,0,0,0,165.763,70.372Z" transform="translate(-20.241 -20.392)" fill="#0e497d"/>
    <path id="Path_46254" data-name="Path 46254" d="M126.351,18.131a12.672,12.672,0,0,1-5.859,10.682q-.4.261-.833.489a12.657,12.657,0,0,1-18.633-11.171c0-.093,0-.185,0-.278a12.662,12.662,0,0,1,25.321.278" transform="translate(-29.274 -1.582)" fill="#047835"/>
    <path id="Path_46255" data-name="Path 46255" d="M129.906,76.431c-11.709,0-19.12-9.574-19.477-20.34a20.547,20.547,0,0,1,.447-5.02,20.338,20.338,0,0,1,1.749-4.95,20.745,20.745,0,0,1,7.27-8.06,22.1,22.1,0,0,1-24.176-2.156,22.126,22.126,0,0,1-8.431-17.393c0-.163,0-.324.006-.487q-.714.661-1.4,1.348c-.089.089-.179.179-.268.271a37.543,37.543,0,0,0-2.879,3.283c-15.61,20.046-6.2,50.573,19.219,57.356a47.471,47.471,0,0,0,34.262-3.84s-4.593.049-6.324-.011" transform="translate(-21.774 -5.223)" fill="#047835"/>
    <path id="Path_46256" data-name="Path 46256" d="M186.909,33.514a5.881,5.881,0,0,0-.605.326l-.015.009a5.647,5.647,0,0,0-2.276,2.713,5.719,5.719,0,0,0-.344,1.245q-.6-2.211-1.427-4.351a5.7,5.7,0,0,0,1.473-7.384,5.97,5.97,0,0,0-.549.414l-.013.011a5.657,5.657,0,0,0-1.839,3.027,5.763,5.763,0,0,0-.152,1.35,46.689,46.689,0,0,0-2.229-4.3,5.7,5.7,0,0,0,.268-7.558,5.9,5.9,0,0,0-.472.5l-.012.013a5.648,5.648,0,0,0-1.315,3.289,5.717,5.717,0,0,0,.089,1.452,46.419,46.419,0,0,0-3.308-4.381,5.711,5.711,0,0,0-1.134-7.5,5.749,5.749,0,0,0-.372.578l-.009.016a5.651,5.651,0,0,0-.681,3.476,5.719,5.719,0,0,0,.349,1.389q-.792-.825-1.624-1.613-1.407-1.327-2.916-2.527a5.707,5.707,0,0,0-2.561-7.085,5.893,5.893,0,0,0-.255.638l-.006.017a5.657,5.657,0,0,0-.008,3.543,5.75,5.75,0,0,0,.54,1.177,46.414,46.414,0,0,0-4.95-3.026,5.707,5.707,0,0,0-3.93-6.433,5.886,5.886,0,0,0-.121.677l0,.018a5.65,5.65,0,0,0,.7,3.472,5.713,5.713,0,0,0,.692.967,46.482,46.482,0,0,0-5.478-2.06A5.706,5.706,0,0,0,147.4,0a5.7,5.7,0,0,0,0,.688V.706A5.654,5.654,0,0,0,148.717,4a5.755,5.755,0,0,0,.9.859q-1.472-.352-2.969-.605a8.84,8.84,0,0,0-12.052-.2,8.991,8.991,0,0,0,.8.7c.008,0,.014.011.022.017a8.75,8.75,0,0,0,5.18,1.816,8.823,8.823,0,0,0,3.388-.592h0a8.764,8.764,0,0,0,1.079-.506l.013-.007c.111-.063.221-.126.33-.194l.04-.026c.1-.062.2-.125.295-.191l.065-.046q1.982.3,3.908.778a5.731,5.731,0,0,0-1.5.469A5.646,5.646,0,0,0,145.639,8.7l-.008.015a5.721,5.721,0,0,0-.29.623,5.651,5.651,0,0,0,4.2-.266h0a5.647,5.647,0,0,0,2.66-2.589,45.128,45.128,0,0,1,5.688,2.182,5.709,5.709,0,0,0-4.549,2.121l-.011.013a5.866,5.866,0,0,0-.4.561A5.7,5.7,0,0,0,160.168,9.8a45.763,45.763,0,0,1,4.935,3.048,5.728,5.728,0,0,0-1.45-.1,5.646,5.646,0,0,0-3.3,1.293.088.088,0,0,1-.013.01,5.9,5.9,0,0,0-.5.47,5.7,5.7,0,0,0,7.4-.065A46.157,46.157,0,0,1,171.6,18.42a5.8,5.8,0,0,0-1.265-.32,5.642,5.642,0,0,0-3.483.642l-.014.008a5.822,5.822,0,0,0-.582.366,5.7,5.7,0,0,0,7.226,1.372,45.871,45.871,0,0,1,3.2,4.2,5.745,5.745,0,0,0-1.2-.569,5.644,5.644,0,0,0-3.541-.018l-.016,0a5.891,5.891,0,0,0-.641.251,5.7,5.7,0,0,0,6.884,2.681,45.3,45.3,0,0,1,2.233,4.3,5.731,5.731,0,0,0-1.194-.849,5.648,5.648,0,0,0-3.49-.6l-.016,0a5.869,5.869,0,0,0-.673.141,5.706,5.706,0,0,0,6.4,3.771,44.94,44.94,0,0,1,1.448,4.462,5.726,5.726,0,0,0-1.093-1.071,5.646,5.646,0,0,0-3.358-1.124H178.4a5.884,5.884,0,0,0-.687.038,5.706,5.706,0,0,0,5.757,4.7q.3,1.435.5,2.9a.447.447,0,0,0,.442.386.452.452,0,0,0,.062,0,.447.447,0,0,0,.381-.5q-.209-1.507-.518-3a5.7,5.7,0,0,0,2.574-7.074" transform="translate(-39.001)" fill="#ef8903"/>
    <path id="Path_46257" data-name="Path 46257" d="M10.53,171.054a2.16,2.16,0,0,1-1.263-.366,1.986,1.986,0,0,1-1.224.366H2.374a2.191,2.191,0,0,1-1.73-.745A2.95,2.95,0,0,1,0,168.327a3.516,3.516,0,0,1,.493-1.793H1.616a2.831,2.831,0,0,0-.594,1.54c0,1.225.5,1.844,1.5,1.844h5.2c.619,0,.934-.329.934-1V164.88l-.24-1.616,1.477-.342v6.111c0,.594.316.884.935.884H11.5v1.136Zm-7.4-4.065v-.758h.719q0-1.742,1.591-1.742a2.038,2.038,0,0,1,1.2.416,5.3,5.3,0,0,1-.24.619,1.025,1.025,0,0,0-.707-.277q-.833.018-.832.984h.972l.732-.088.669.846Z" transform="translate(0 -47.21)" fill="#0e497d"/>
    <path id="Path_46258" data-name="Path 46258" d="M19.669,171.055a1.878,1.878,0,0,1-1.25-.391,1.784,1.784,0,0,1-1.2.391h-1.54v-1.136h1.212c.606,0,.909-.341.909-1.036v-3.926l-.24-1.692,1.5-.341v5.959c0,.695.3,1.036.909,1.036h.543v1.136Z" transform="translate(-4.543 -47.21)" fill="#0e497d"/>
    <path id="Path_46259" data-name="Path 46259" d="M30.207,170.881v1.136H22.026v-1.136h1.83a1.514,1.514,0,0,1-.2-.783,2.115,2.115,0,0,1,.707-1.578,2.409,2.409,0,0,1,1.654-.669,1.627,1.627,0,0,1,1.136.379,1.489,1.489,0,0,1,.48,1.175l-.038,1.477h.719v-2.273a1.239,1.239,0,0,0-.593-1.111,2.9,2.9,0,0,0-1.578-.4,5.571,5.571,0,0,0-2.222.492l.2-.934a6.767,6.767,0,0,1,2.361-.4,4.041,4.041,0,0,1,2.108.48,1.827,1.827,0,0,1,.972,1.667v2.487Zm-3.737-1.667c0-.492-.177-.732-.518-.732a.979.979,0,0,0-.77.467,1.834,1.834,0,0,0-.429,1.224c0,.467.29.707.884.707h.82v-1.667Z" transform="translate(-6.382 -48.173)" fill="#0e497d"/>
    <path id="Path_46260" data-name="Path 46260" d="M37.034,171.055a1.928,1.928,0,0,1-1.237-.379,1.983,1.983,0,0,1-1.212.379h-1.5v-1.136h1.162c.619,0,.935-.329.935-1V167.7l-.266-1.641,1.5-.342v3.207c0,.668.3,1,.909,1h.656v1.136Zm-3.118-6.6a.768.768,0,0,1-.543-1.3.734.734,0,0,1,.543-.227.753.753,0,0,1,.543.214.763.763,0,0,1,.227.556.725.725,0,0,1-.214.53.76.76,0,0,1-.555.227m2.02,0a.768.768,0,0,1-.543-1.3.734.734,0,0,1,.543-.227.753.753,0,0,1,.77.771.723.723,0,0,1-.214.53.76.76,0,0,1-.555.227" transform="translate(-9.586 -47.21)" fill="#0e497d"/>
    <rect id="Rectangle_8410" data-name="Rectangle 8410" width="2.916" height="1.225" transform="translate(28.093 122.619)" fill="#0e497d"/>
    <path id="Path_46261" data-name="Path 46261" d="M53.7,172.193a2.083,2.083,0,0,1-1.263-.379,1.845,1.845,0,0,1-1.2.379,2.282,2.282,0,0,1-1.692-.72,1.746,1.746,0,0,1-1.528.72,2.345,2.345,0,0,1-1.7-.745l-.24.265a2.007,2.007,0,0,1-1.351.48H43.251v-1.136h1.162c.606,0,.908-.329.908-1l.026-2.438,1.237-.277v3.295a1.563,1.563,0,0,0,1.1.43c.593,0,.9-.328.9-1v-2.45l1.249-.277V170.6a1.476,1.476,0,0,0,1.086.467c.606,0,.909-.328.909-1v-1.238l-.252-1.641,1.5-.342v3.22q0,.983.909.984h.391v1.136Z" transform="translate(-12.533 -48.348)" fill="#0e497d"/>
    <path id="Path_46262" data-name="Path 46262" d="M65.737,172.384a1.784,1.784,0,0,1-1.2-.391,2.833,2.833,0,0,1-2.235,1.1,1.778,1.778,0,0,1-1.616-.935,1.939,1.939,0,0,1-.947.228H58.414v-1.136h.973a.764.764,0,0,0,.871-.834,2.942,2.942,0,0,1,.884-2.134,3.161,3.161,0,0,1,2.273-.77,6.711,6.711,0,0,1,1.844.29l-.165,1.313v1.137c0,.668.3,1,.922,1h.631v1.136Zm-1.881-3.207-.1-.707a1.616,1.616,0,0,0-.606-.088c-1.06,0-1.591.656-1.591,1.982a2.159,2.159,0,0,0,.3,1.237.892.892,0,0,0,.758.455,1.623,1.623,0,0,0,1.224-.568Z" transform="translate(-16.926 -48.539)" fill="#0e497d"/>
    <path id="Path_46263" data-name="Path 46263" d="M73.708,169.142a1.744,1.744,0,0,1-1.881,1.881H69.453v-1.136h2.058c.619,0,.934-.342.934-1.036v-4.015l-.227-1.666,1.477-.354v6.325Z" transform="translate(-20.125 -47.179)" fill="#0e497d"/>
    <path id="Path_46264" data-name="Path 46264" d="M78.638,164.568v6.477h-1.25V164.58l-.2-1.566,1.578-.126Z" transform="translate(-22.366 -47.2)" fill="#0e497d"/>
    <path id="Path_46265" data-name="Path 46265" d="M90.655,170.921a2.093,2.093,0,0,1-1.6-.643,3.624,3.624,0,0,1-1.629.366,1.981,1.981,0,0,1-1.6-.656,2.644,2.644,0,0,1-.581-1.818,2.526,2.526,0,0,1,.808-1.969,3.074,3.074,0,0,1,2.146-.758h.417l-.089-.568q.833-.208,1.515-.341v4.229c0,.682.3,1.023.922,1.023h.808v1.136Zm-2.79-7.663a.811.811,0,0,1-.214.518.7.7,0,0,1-.543.239.776.776,0,0,1-.783-.782.727.727,0,0,1,.227-.531.7.7,0,0,1,.543-.24.839.839,0,0,1,.543.215.8.8,0,0,1,.215.58Zm.265,3.03a1.563,1.563,0,0,0-1.124.479,1.542,1.542,0,0,0-.467,1.175c0,1.1.391,1.654,1.161,1.654a3.958,3.958,0,0,0,1.1-.152v-3.182Zm1.755-3.03a.811.811,0,0,1-.214.518.7.7,0,0,1-.543.239.76.76,0,0,1-.555-.227.744.744,0,0,1-.24-.555.8.8,0,0,1,.783-.771.809.809,0,0,1,.53.215.779.779,0,0,1,.227.58Z" transform="translate(-24.7 -47.076)" fill="#0e497d"/>
    <path id="Path_46266" data-name="Path 46266" d="M95.426,174.231a.766.766,0,0,1-.227.518.747.747,0,0,1-.556.239.844.844,0,0,1-.543-.215.676.676,0,0,1-.24-.555.66.66,0,0,1,.24-.531.727.727,0,0,1,.531-.227.853.853,0,0,1,.555.215.762.762,0,0,1,.227.555Zm2.362-3.863a1.8,1.8,0,0,1-.5,1.337,1.844,1.844,0,0,1-1.364.493H93.975v-1.136H95.6c.619,0,.935-.329.935-1v-1.25l-.227-1.616,1.465-.328v3.5Zm-.354,3.863a.72.72,0,0,1-.227.518.7.7,0,0,1-.543.239.851.851,0,0,1-.556-.215.676.676,0,0,1-.24-.555.66.66,0,0,1,.24-.531.737.737,0,0,1,.543-.227.843.843,0,0,1,.543.215.762.762,0,0,1,.227.555Z" transform="translate(-27.198 -48.354)" fill="#0e497d"/>
    <path id="Path_46267" data-name="Path 46267" d="M103.516,171.055a1.726,1.726,0,0,1-1.869-1.881v-4.293l-.214-1.616,1.477-.341v5.959c0,.695.3,1.036.909,1.036h.682v1.136Z" transform="translate(-29.392 -47.21)" fill="#0e497d"/>
    <path id="Path_46268" data-name="Path 46268" d="M112.631,172.384a1.784,1.784,0,0,1-1.2-.391,2.833,2.833,0,0,1-2.235,1.1,1.778,1.778,0,0,1-1.616-.935,1.939,1.939,0,0,1-.947.228h-1.326v-1.136h.973a.764.764,0,0,0,.871-.834,2.942,2.942,0,0,1,.884-2.134,3.161,3.161,0,0,1,2.273-.77,6.711,6.711,0,0,1,1.844.29l-.165,1.313v1.137c0,.668.3,1,.922,1h.631v1.136Zm-1.881-3.207-.1-.707a1.616,1.616,0,0,0-.606-.088c-1.06,0-1.591.656-1.591,1.982a2.159,2.159,0,0,0,.3,1.237.892.892,0,0,0,.758.455,1.623,1.623,0,0,0,1.224-.568Z" transform="translate(-30.515 -48.539)" fill="#0e497d"/>
    <path id="Path_46269" data-name="Path 46269" d="M116.348,172.075v-1.136h5.467a10.514,10.514,0,0,0-.543-1.06c-.2-.329-.442-.682-.72-1.073-.694-.947-1.3-1.414-1.83-1.414-.391,0-.581.24-.581.707a2.663,2.663,0,0,0,.19.847L117,169.1a4.479,4.479,0,0,1,.24-1.112,3.252,3.252,0,0,1,.455-.833,1.7,1.7,0,0,1,.644-.517,1.65,1.65,0,0,1,.77-.19c.972,0,1.957.707,2.942,2.134a7.36,7.36,0,0,1,1.5,3.5Z" transform="translate(-33.714 -48.23)" fill="#0e497d"/>
    <path id="Path_46270" data-name="Path 46270" d="M132.881,171.676a3.192,3.192,0,0,1-2.714,3.32l-.265-.53a2.256,2.256,0,0,0,1.729-2.21,4.924,4.924,0,0,1-1.35.214,1.949,1.949,0,0,1-1.566-.783,2.721,2.721,0,0,1-.58-1.755,3.238,3.238,0,0,1,.719-2.171,2.589,2.589,0,0,1,2.07-.909h1.957Zm-1.237-4.066h-.669a1.371,1.371,0,0,0-1.174.568,2.444,2.444,0,0,0-.43,1.553c0,1.251.392,1.882,1.175,1.882a3.322,3.322,0,0,0,1.1-.215Z" transform="translate(-37.129 -48.349)" fill="#0e497d"/>
    <path id="Path_46271" data-name="Path 46271" d="M145.922,170.921a2.093,2.093,0,0,1-1.6-.643,3.624,3.624,0,0,1-1.629.366,1.981,1.981,0,0,1-1.6-.656,2.644,2.644,0,0,1-.581-1.818,2.526,2.526,0,0,1,.808-1.969,3.074,3.074,0,0,1,2.146-.758h.417l-.089-.568q.833-.208,1.515-.341v4.229c0,.682.3,1.023.922,1.023h.808v1.136Zm-2.79-7.663a.811.811,0,0,1-.214.518.7.7,0,0,1-.543.239.776.776,0,0,1-.783-.782.727.727,0,0,1,.227-.531.7.7,0,0,1,.543-.24.839.839,0,0,1,.543.215.8.8,0,0,1,.215.58Zm.265,3.03a1.563,1.563,0,0,0-1.124.479,1.542,1.542,0,0,0-.467,1.175c0,1.1.391,1.654,1.161,1.654a3.958,3.958,0,0,0,1.1-.152v-3.182Zm1.755-3.03a.811.811,0,0,1-.214.518.7.7,0,0,1-.543.239.76.76,0,0,1-.555-.227.744.744,0,0,1-.24-.555.8.8,0,0,1,.783-.771.809.809,0,0,1,.53.215.779.779,0,0,1,.227.58Z" transform="translate(-40.714 -47.076)" fill="#0e497d"/>
    <path id="Path_46272" data-name="Path 46272" d="M150.746,174.205a.766.766,0,0,1-.227.518.747.747,0,0,1-.556.239.844.844,0,0,1-.543-.214.676.676,0,0,1-.24-.555.66.66,0,0,1,.24-.531.728.728,0,0,1,.531-.227.853.853,0,0,1,.555.215.762.762,0,0,1,.227.555Zm2.462-2.033a1.926,1.926,0,0,1-1.237-.379,1.927,1.927,0,0,1-1.212.379h-1.515v-1.136h1.174c.619,0,.935-.329.935-1v-1.3l-.266-1.629,1.5-.328v3.257c0,.668.3,1,.921,1h.644v1.136Zm-.455,2.033a.718.718,0,0,1-.227.518.7.7,0,0,1-.543.239.844.844,0,0,1-.543-.214.724.724,0,0,1-.227-.555.689.689,0,0,1,.227-.531.728.728,0,0,1,.531-.227.843.843,0,0,1,.543.215.762.762,0,0,1,.227.555Z" transform="translate(-43.228 -48.328)" fill="#0e497d"/>
    <path id="Path_46273" data-name="Path 46273" d="M159.623,171.055a1.878,1.878,0,0,1-1.25-.391,1.784,1.784,0,0,1-1.2.391h-1.54v-1.136h1.212c.606,0,.909-.341.909-1.036v-3.926l-.24-1.692,1.5-.341v5.959c0,.695.3,1.036.909,1.036h.543v1.136Z" transform="translate(-45.097 -47.21)" fill="#0e497d"/>
    <path id="Path_46274" data-name="Path 46274" d="M161.963,171.054v-1.136h5.467a10.363,10.363,0,0,0-.543-1.06c-.2-.329-.442-.682-.72-1.074-.694-.947-1.3-1.413-1.83-1.413-.391,0-.581.239-.581.707a2.665,2.665,0,0,0,.19.846l-1.326.151a4.5,4.5,0,0,1,.24-1.111,3.24,3.24,0,0,1,.455-.833,1.69,1.69,0,0,1,.644-.518,1.652,1.652,0,0,1,.77-.189c.972,0,1.957.707,2.942,2.133a7.64,7.64,0,0,1,1.515,3.5Zm3.952-7.36a.687.687,0,0,1-.227.53.76.76,0,0,1-.555.227.815.815,0,0,1-.531-.214.67.67,0,0,1-.24-.543.7.7,0,0,1,.227-.543.73.73,0,0,1,.531-.227.85.85,0,0,1,.555.215.762.762,0,0,1,.227.555Z" transform="translate(-46.932 -47.21)" fill="#0e497d"/>
    <path id="Path_46275" data-name="Path 46275" d="M175.254,164.568v6.477H174V164.58l-.2-1.566,1.578-.126Z" transform="translate(-50.362 -47.2)" fill="#0e497d"/>
    <path id="Path_46276" data-name="Path 46276" d="M178.051,172.193l.328-1.136h3.194l.038-.266v-1.325a2.611,2.611,0,0,0-.366-1.464,1.026,1.026,0,0,0-.884-.48.779.779,0,0,0-.391.088l-.063-.707h.05a.159.159,0,0,0,.076-.013c.063-.012.151-.025.265-.038a2.322,2.322,0,0,1,1.856.808,2.933,2.933,0,0,1,.72,2.021v1.376h.82v1.136Z" transform="translate(-51.593 -48.348)" fill="#0e497d"/>
    <path id="Path_46277" data-name="Path 46277" d="M189.736,169.142a1.744,1.744,0,0,1-1.881,1.881h-2.374v-1.136h2.058c.619,0,.934-.342.934-1.036v-4.015l-.227-1.666,1.477-.354v6.325Z" transform="translate(-53.746 -47.179)" fill="#0e497d"/>
    <path id="Path_46278" data-name="Path 46278" d="M194.666,164.568v6.477h-1.25V164.58l-.2-1.566,1.578-.126Z" transform="translate(-55.987 -47.2)" fill="#0e497d"/>
    <path id="Path_46279" data-name="Path 46279" d="M203.809,171.055a2.484,2.484,0,0,1-1.908-.758,2.941,2.941,0,0,1-.707-2.045,3.1,3.1,0,0,1,.719-2.134,2.58,2.58,0,0,1,2.033-.821,2.463,2.463,0,0,1,1.907.745,3.057,3.057,0,0,1,.681,2.121,3.017,3.017,0,0,1-.745,2.1,2.564,2.564,0,0,1-1.981.8m-.9-6.6a.811.811,0,0,1-.53-.214.674.674,0,0,1-.24-.555.687.687,0,0,1,.227-.531.8.8,0,0,1,.543-.227.849.849,0,0,1,.543.214.73.73,0,0,1,.239.556.689.689,0,0,1-.227.53.76.76,0,0,1-.555.227m-.379,3.712c0,1.351.442,2.033,1.313,2.033.9,0,1.339-.682,1.339-2.033s-.43-2.008-1.288-2.008q-1.364,0-1.363,2.008m2.4-3.712a.846.846,0,0,1-.544-.214.678.678,0,0,1-.239-.555.688.688,0,0,1,.227-.531.778.778,0,0,1,1.086-.013.763.763,0,0,1,.026,1.086.762.762,0,0,1-.555.227" transform="translate(-58.3 -47.21)" fill="#0e497d"/>
    <path id="Path_46280" data-name="Path 46280" d="M212.814,171.663a3.245,3.245,0,0,1-2.715,3.321l-.265-.493a2.323,2.323,0,0,0,1.742-2.436l-.013-3.169-.252-1.692,1.5-.341Z" transform="translate(-60.803 -48.349)" fill="#0e497d"/>
    <path id="Path_46281" data-name="Path 46281" d="M217.571,171.055a1.726,1.726,0,0,1-1.869-1.881v-4.293l-.214-1.616,1.477-.341v5.959c0,.695.3,1.036.909,1.036h.682v1.136Z" transform="translate(-62.441 -47.21)" fill="#0e497d"/>
    <path id="Path_46282" data-name="Path 46282" d="M219.363,172.074v-1.136h5.467a10.44,10.44,0,0,0-.543-1.06c-.2-.329-.442-.682-.719-1.074-.695-.947-1.3-1.413-1.831-1.413-.391,0-.581.239-.581.707a2.664,2.664,0,0,0,.19.846l-1.326.151a4.5,4.5,0,0,1,.24-1.111,3.24,3.24,0,0,1,.455-.833,1.691,1.691,0,0,1,.644-.518,1.652,1.652,0,0,1,.77-.189,3.491,3.491,0,0,1,2.6,1.665,10.888,10.888,0,0,1,.9,1.364,11.467,11.467,0,0,1,.669,1.465h.96v1.136Zm3.864,2.79a.846.846,0,0,1-.555-.215.672.672,0,0,1-.24-.555.685.685,0,0,1,.227-.531.763.763,0,0,1,.555-.227.816.816,0,0,1,.531.215.747.747,0,0,1,.239.556.805.805,0,0,1-.214.517.7.7,0,0,1-.543.24" transform="translate(-63.564 -48.23)" fill="#0e497d"/>
    <path id="Path_46283" data-name="Path 46283" d="M233.927,171.055a1.928,1.928,0,0,1-1.237-.379,1.983,1.983,0,0,1-1.212.379h-1.5v-1.136h1.162c.619,0,.935-.329.935-1V167.7l-.266-1.641,1.5-.342v3.207c0,.668.3,1,.909,1h.656v1.136Zm-3.118-6.6a.768.768,0,0,1-.543-1.3.734.734,0,0,1,.543-.227.753.753,0,0,1,.543.214.763.763,0,0,1,.227.556.725.725,0,0,1-.215.53.76.76,0,0,1-.555.227m2.02,0a.768.768,0,0,1-.543-1.3.734.734,0,0,1,.543-.227.753.753,0,0,1,.77.771.723.723,0,0,1-.215.53.76.76,0,0,1-.555.227" transform="translate(-66.639 -47.21)" fill="#0e497d"/>
    <path id="Path_46284" data-name="Path 46284" d="M240.577,169.142a1.745,1.745,0,0,1-1.882,1.881h-2.374v-1.136h2.058c.619,0,.934-.342.934-1.036v-4.015l-.227-1.666,1.477-.354v6.325Z" transform="translate(-68.478 -47.179)" fill="#0e497d"/>
    <path id="Path_46285" data-name="Path 46285" d="M245.506,164.568v6.477h-1.25V164.58l-.2-1.566,1.578-.126Z" transform="translate(-70.719 -47.2)" fill="#0e497d"/>
    <path id="Path_46286" data-name="Path 46286" d="M254.65,171.055a2.484,2.484,0,0,1-1.907-.758,2.941,2.941,0,0,1-.707-2.045,3.1,3.1,0,0,1,.719-2.134,2.58,2.58,0,0,1,2.033-.821,2.462,2.462,0,0,1,1.906.745,3.057,3.057,0,0,1,.682,2.121,3.017,3.017,0,0,1-.745,2.1,2.565,2.565,0,0,1-1.982.8m-.9-6.6a.812.812,0,0,1-.531-.214.676.676,0,0,1-.24-.555.688.688,0,0,1,.227-.531.8.8,0,0,1,.543-.227.848.848,0,0,1,.543.214.728.728,0,0,1,.24.556.689.689,0,0,1-.227.53.76.76,0,0,1-.555.227m-.379,3.712c0,1.351.442,2.033,1.313,2.033.9,0,1.338-.682,1.338-2.033s-.429-2.008-1.288-2.008q-1.364,0-1.363,2.008m2.4-3.712a.846.846,0,0,1-.543-.214.676.676,0,0,1-.239-.555.685.685,0,0,1,.227-.531.805.805,0,0,1,.555-.227.816.816,0,0,1,.531.214.764.764,0,0,1,.025,1.086.76.76,0,0,1-.555.227" transform="translate(-73.032 -47.21)" fill="#0e497d"/>
    <path id="Path_46287" data-name="Path 46287" d="M263.655,171.663a3.245,3.245,0,0,1-2.715,3.321l-.265-.493a2.323,2.323,0,0,0,1.742-2.436l-.013-3.169-.252-1.692,1.5-.341Z" transform="translate(-75.535 -48.349)" fill="#0e497d"/>
    <path id="Path_46288" data-name="Path 46288" d="M267.567,164.568v6.477h-1.25V164.58l-.2-1.566,1.578-.126Z" transform="translate(-77.112 -47.2)" fill="#0e497d"/>
    <path id="Path_46289" data-name="Path 46289" d="M272.579,170.524a3.245,3.245,0,0,1-2.715,3.321l-.266-.493a2.323,2.323,0,0,0,1.742-2.436l-.012-3.169-.253-1.692,1.5-.342Zm-.871-6.072a.753.753,0,0,1-.757-.757.753.753,0,0,1,.214-.543.737.737,0,0,1,.543-.227.816.816,0,0,1,.531.214.764.764,0,0,1,.025,1.086.76.76,0,0,1-.555.227" transform="translate(-78.121 -47.21)" fill="#0e497d"/>
    <path id="Path_46290" data-name="Path 46290" d="M279.661,171.676a3.192,3.192,0,0,1-2.715,3.32l-.265-.53a2.256,2.256,0,0,0,1.729-2.21,4.924,4.924,0,0,1-1.35.214,1.949,1.949,0,0,1-1.566-.783,2.721,2.721,0,0,1-.58-1.755,3.238,3.238,0,0,1,.719-2.171,2.589,2.589,0,0,1,2.07-.909h1.957Zm-1.237-4.066h-.669a1.371,1.371,0,0,0-1.174.568,2.444,2.444,0,0,0-.43,1.553c0,1.251.392,1.882,1.175,1.882a3.322,3.322,0,0,0,1.1-.215Z" transform="translate(-79.661 -48.349)" fill="#0e497d"/>
  </g>
</svg>
