<svg id="Group_15437" data-name="Group 15437" xmlns="http://www.w3.org/2000/svg" xmlns:xlink="http://www.w3.org/1999/xlink" width="120" height="47.36" viewBox="0 0 120 47.36">
  <defs>
    <clipPath id="clip-path">
      <rect id="Rectangle_8398" data-name="Rectangle 8398" width="120" height="47.36" fill="none"/>
    </clipPath>
  </defs>
  <g id="Group_15437-2" data-name="Group 15437" clip-path="url(#clip-path)">
    <path id="Path_46077" data-name="Path 46077" d="M115.268,19.957l-.166-1.163a20.4,20.4,0,0,0-1.77-5.872A20.632,20.632,0,0,0,94.783,1.194a20.343,20.343,0,0,0-8.8,1.978A20.566,20.566,0,0,0,80.5,6.989L74.367,0,59.027,14.1V7.044h-13.5V17.607H31.255l-.008.068A6.918,6.918,0,0,0,22.369,15.6a6.918,6.918,0,0,0-8.878,2.077l-.008-.068H0l.353,4.435A22.081,22.081,0,0,0,33.058,39.6v4.632h4.109c4.018,0,7.123-.767,9.442-2.334h35.03V37.466a20.761,20.761,0,0,0,5.495,3.287,5.669,5.669,0,0,0,7.649,6.221,5.669,5.669,0,0,0,7.652-6.2q.579-.234,1.147-.5a20.626,20.626,0,0,0,8.44-7.4H120V19.957Z" fill="#1d2b4c"/>
    <path id="Path_46078" data-name="Path 46078" d="M274.509,30.413H251.222l4.691-4.691H267.64a11.729,11.729,0,0,0-20.874,4.691h-4.759a16.284,16.284,0,0,1,1.413-4.691,16.424,16.424,0,0,1,29.675,0,16.285,16.285,0,0,1,1.414,4.691" transform="translate(-163.475 -11.038)" fill="#e74e18"/>
    <path id="Path_46079" data-name="Path 46079" d="M242.007,74.161a16.427,16.427,0,0,0,23.287,12.492,16.483,16.483,0,0,0,7.8-7.8h6.271V74.161h-9.616a11.665,11.665,0,0,1-2.11,4.691,11.728,11.728,0,0,1-18.764,0,11.666,11.666,0,0,1-2.11-4.691Z" transform="translate(-163.475 -50.096)" fill="#e74e18"/>
    <path id="Path_46080" data-name="Path 46080" d="M293.6,125.209a1.563,1.563,0,1,0,1.563-1.563,1.563,1.563,0,0,0-1.563,1.563" transform="translate(-198.324 -83.522)" fill="#e74e18"/>
    <path id="Path_46081" data-name="Path 46081" d="M280.937,125.209a1.564,1.564,0,1,0,1.563-1.563,1.563,1.563,0,0,0-1.563,1.563" transform="translate(-189.772 -83.522)" fill="#e74e18"/>
    <path id="Path_46082" data-name="Path 46082" d="M31.629,83.459A18,18,0,0,1,13.709,66.92h5.366a12.636,12.636,0,0,0,25.107,0h5.366a18,18,0,0,1-17.92,16.539" transform="translate(-9.26 -45.204)" fill="#52b8d7"/>
    <path id="Path_46083" data-name="Path 46083" d="M152.961,50.013V23.376h5.281V44.651h17.475l-.435-1.779a11.161,11.161,0,0,0-1.041-2.673,8.946,8.946,0,0,0-3.607-3.663,10.093,10.093,0,0,0-3.378-1.175l-.725-.11-2.948,2.99-3.624-4.131,17.418-16.014,3.512,4-9.515,8.752,1.839,1.013a14.053,14.053,0,0,1,5.607,5.68c.161.3.314.6.468.922a16.341,16.341,0,0,1,1.322,4.122,16,16,0,0,1,.246,2.674v4.751Z" transform="translate(-103.325 -12.223)" fill="#52b8d7"/>
    <path id="Path_46084" data-name="Path 46084" d="M55.858,61.044a2.822,2.822,0,1,1-2.822-2.822,2.822,2.822,0,0,1,2.822,2.822" transform="translate(-33.919 -39.329)" fill="#52b8d7"/>
    <path id="Path_46085" data-name="Path 46085" d="M75.9,61.044a2.822,2.822,0,1,1-2.822-2.822A2.822,2.822,0,0,1,75.9,61.044" transform="translate(-47.459 -39.329)" fill="#52b8d7"/>
    <path id="Path_46086" data-name="Path 46086" d="M125.013,75.676c0,3.455-.864,5.934-2.629,7.473-1.615,1.465-4.244,2.178-7.849,2.178V81.084q5.182,0,5.182-4.957V66.92h5.3Z" transform="translate(-77.368 -45.204)" fill="#52b8d7"/>
  </g>
</svg>
