<svg xmlns="http://www.w3.org/2000/svg" xmlns:xlink="http://www.w3.org/1999/xlink" width="147.316" height="65" viewBox="0 0 147.316 65">
  <defs>
    <clipPath id="clip-path">
      <rect id="Rectangle_8412" data-name="Rectangle 8412" width="147.316" height="65" fill="none"/>
    </clipPath>
  </defs>
  <g id="Group_15448" data-name="Group 15448" transform="translate(-47 -233)">
    <g id="Group_15449" data-name="Group 15449" transform="translate(47 233)">
      <g id="Group_15448-2" data-name="Group 15448" clip-path="url(#clip-path)">
        <path id="Path_46291" data-name="Path 46291" d="M241.421,70.372a3.062,3.062,0,0,0-3.048,2.745q-.07.678-.173,1.346a26.469,26.469,0,0,1-5.312,12.271,26.686,26.686,0,0,1-3.683,3.85,1.022,1.022,0,0,1-1.322-1.559,24.765,24.765,0,0,0,4.965-5.814,3.063,3.063,0,0,0-2.617-4.658h-.006a3.1,3.1,0,0,0-2.627,1.488,14.229,14.229,0,0,1-1.89,2.294,24.006,24.006,0,0,1-13.175,6.854,32.957,32.957,0,0,1-5.451.452A32.568,32.568,0,0,1,193.7,86.787l-.116-.052a32.488,32.488,0,0,1-4.2-2.292,32.895,32.895,0,0,1-9.9-9.949,32.7,32.7,0,0,0,64.9-.03q.045-.36.082-.723a3.064,3.064,0,0,0-3.053-3.368" transform="translate(-97.174 -38.099)" fill="#0e497d"/>
        <path id="Path_46292" data-name="Path 46292" d="M227.016,13.642a8.183,8.183,0,0,1-3.783,6.9q-.261.169-.538.316a8.173,8.173,0,0,1-12.032-7.214c0-.06,0-.12,0-.18a8.176,8.176,0,0,1,16.35.18" transform="translate(-114.05 -2.956)" fill="#047835"/>
        <path id="Path_46293" data-name="Path 46293" d="M220.142,55.738c-7.561,0-12.346-6.182-12.577-13.134a13.267,13.267,0,0,1,.288-3.241,13.133,13.133,0,0,1,1.129-3.2,13.4,13.4,0,0,1,4.694-5.2,14.27,14.27,0,0,1-15.611-1.392,14.287,14.287,0,0,1-5.444-11.231c0-.105,0-.209,0-.315q-.461.427-.9.871c-.058.058-.116.115-.173.174a24.24,24.24,0,0,0-1.859,2.12c-10.08,12.944-4,32.656,12.41,37.036a30.653,30.653,0,0,0,22.124-2.479s-2.966.032-4.083-.007" transform="translate(-100.039 -9.758)" fill="#047835"/>
        <path id="Path_46294" data-name="Path 46294" d="M278.011,21.64a3.8,3.8,0,0,0-.391.211l-.01.006a3.646,3.646,0,0,0-1.47,1.752,3.7,3.7,0,0,0-.222.8q-.39-1.427-.921-2.809a3.681,3.681,0,0,0,.951-4.768,3.857,3.857,0,0,0-.355.267l-.009.007a3.653,3.653,0,0,0-1.187,1.955,3.722,3.722,0,0,0-.1.872,30.144,30.144,0,0,0-1.44-2.777,3.681,3.681,0,0,0,.173-4.881,3.8,3.8,0,0,0-.3.322l-.008.009a3.648,3.648,0,0,0-.849,2.124,3.69,3.69,0,0,0,.058.938,29.973,29.973,0,0,0-2.136-2.829A3.688,3.688,0,0,0,269.061,8a3.712,3.712,0,0,0-.24.373l-.006.01a3.649,3.649,0,0,0-.44,2.244,3.692,3.692,0,0,0,.226.9q-.511-.532-1.049-1.042-.909-.857-1.883-1.632a3.685,3.685,0,0,0-1.654-4.575,3.8,3.8,0,0,0-.165.412l0,.011a3.653,3.653,0,0,0-.005,2.288,3.713,3.713,0,0,0,.349.76,29.97,29.97,0,0,0-3.2-1.954,3.685,3.685,0,0,0-2.538-4.154,3.8,3.8,0,0,0-.078.437V2.09a3.649,3.649,0,0,0,.454,2.242,3.688,3.688,0,0,0,.447.625,30.012,30.012,0,0,0-3.537-1.33A3.684,3.684,0,0,0,252.5,0a3.68,3.68,0,0,0,0,.444V.455a3.651,3.651,0,0,0,.849,2.124,3.717,3.717,0,0,0,.579.555q-.951-.227-1.917-.391a5.708,5.708,0,0,0-7.782-.129,5.807,5.807,0,0,0,.52.452l.014.011a5.65,5.65,0,0,0,3.345,1.173,5.7,5.7,0,0,0,2.188-.382h0a5.658,5.658,0,0,0,.7-.327l.008,0c.072-.04.143-.082.213-.125l.026-.017c.064-.04.127-.081.19-.123l.042-.03q1.28.2,2.523.5a3.7,3.7,0,0,0-.971.3,3.645,3.645,0,0,0-1.663,1.57l-.005.01a3.691,3.691,0,0,0-.188.4,3.649,3.649,0,0,0,2.709-.172h0A3.646,3.646,0,0,0,255.6,4.185a29.141,29.141,0,0,1,3.673,1.409,3.686,3.686,0,0,0-2.937,1.369l-.007.008a3.792,3.792,0,0,0-.257.362,3.683,3.683,0,0,0,4.676-1.007,29.555,29.555,0,0,1,3.187,1.968A3.7,3.7,0,0,0,263,8.23a3.646,3.646,0,0,0-2.129.835l-.008.006a3.813,3.813,0,0,0-.324.3,3.682,3.682,0,0,0,4.778-.042,29.807,29.807,0,0,1,2.813,2.56,3.743,3.743,0,0,0-.817-.207,3.643,3.643,0,0,0-2.249.415l-.009.005a3.761,3.761,0,0,0-.376.236,3.682,3.682,0,0,0,4.666.886A29.614,29.614,0,0,1,271.4,15.94a3.709,3.709,0,0,0-.778-.367,3.644,3.644,0,0,0-2.287-.011l-.01,0a3.8,3.8,0,0,0-.414.162,3.684,3.684,0,0,0,4.445,1.731,29.245,29.245,0,0,1,1.442,2.778,3.7,3.7,0,0,0-.771-.548,3.647,3.647,0,0,0-2.254-.388l-.011,0a3.792,3.792,0,0,0-.434.091,3.685,3.685,0,0,0,4.133,2.435,29.017,29.017,0,0,1,.935,2.881,3.7,3.7,0,0,0-.706-.692,3.645,3.645,0,0,0-2.168-.726h-.011a3.8,3.8,0,0,0-.443.025,3.685,3.685,0,0,0,3.717,3.033q.191.927.322,1.873a.289.289,0,0,0,.285.249l.04,0a.289.289,0,0,0,.246-.326q-.135-.973-.335-1.934a3.68,3.68,0,0,0,1.662-4.568" transform="translate(-132.223 0.001)" fill="#ef8903"/>
        <path id="Path_46295" data-name="Path 46295" d="M3.993,93.4a.549.549,0,0,0,.424-.187.634.634,0,0,0,.168-.4h-.01a.623.623,0,0,0-.169-.454.659.659,0,0,0-.424-.168.55.55,0,0,0-.424.188.568.568,0,0,0-.177.414.6.6,0,0,0,.611.612" transform="translate(-1.831 -49.906)" fill="#0e497d"/>
        <path id="Path_46296" data-name="Path 46296" d="M7.424,93.4a.552.552,0,0,0,.424-.187.633.633,0,0,0,.167-.4h-.01a.612.612,0,0,0-.177-.454.638.638,0,0,0-.415-.168.625.625,0,0,0-.612.6.584.584,0,0,0,.188.435.6.6,0,0,0,.434.177" transform="translate(-3.683 -49.906)" fill="#0e497d"/>
        <path id="Path_46297" data-name="Path 46297" d="M3.237,98.88a2.83,2.83,0,0,0,1.273-.287,1.635,1.635,0,0,0,1.253.5H7.583a1.5,1.5,0,0,0,.947-.3,1.508,1.508,0,0,0,.968.3h1.64a1.4,1.4,0,0,0,.938-.306,1.464,1.464,0,0,0,.977.306h6.041a5.974,5.974,0,0,0-1.185-2.733c-.77-1.115-1.54-1.668-2.3-1.668a1.289,1.289,0,0,0-.6.149,1.324,1.324,0,0,0-.5.4,2.528,2.528,0,0,0-.355.652,3.428,3.428,0,0,0-.187.868L15,96.649a2.077,2.077,0,0,1-.148-.661c0-.365.148-.553.454-.553.415,0,.888.366,1.43,1.106.217.306.4.582.562.839a8.059,8.059,0,0,1,.424.829H13.288c-.474,0-.71-.266-.71-.809V92.742l-1.175.266.188,1.323V97.4c0,.543-.237.809-.71.809H9.734c-.483,0-.72-.256-.72-.78V94.883l-1.175.256.207,1.273v1.016c0,.523-.246.78-.73.78H6c-.483,0-.72-.266-.72-.8V94.1q-.532.1-1.184.267l.069.444H3.84a2.4,2.4,0,0,0-1.678.593,1.972,1.972,0,0,0-.632,1.539,2.07,2.07,0,0,0,.454,1.422,1.551,1.551,0,0,0,1.253.513m-.326-3.03a1.221,1.221,0,0,1,.879-.374l.522-.02v2.487a3.131,3.131,0,0,1-.859.118c-.6,0-.908-.434-.908-1.293a1.209,1.209,0,0,1,.365-.918" transform="translate(-0.828 -50.209)" fill="#0e497d"/>
        <path id="Path_46298" data-name="Path 46298" d="M16.095,108.751a.572.572,0,0,0-.415.177.538.538,0,0,0-.177.415.565.565,0,0,0,.177.434.663.663,0,0,0,.424.168.549.549,0,0,0,.425-.188.566.566,0,0,0,.177-.4H16.7a.594.594,0,0,0-.178-.434.662.662,0,0,0-.424-.168" transform="translate(-8.393 -58.876)" fill="#0e497d"/>
        <path id="Path_46299" data-name="Path 46299" d="M12.65,109.945a.587.587,0,0,0,.433-.187.6.6,0,0,0,.177-.4h-.01a.594.594,0,0,0-.177-.434.668.668,0,0,0-.434-.168.567.567,0,0,0-.414.178.513.513,0,0,0-.188.415.526.526,0,0,0,.188.434.661.661,0,0,0,.424.168" transform="translate(-6.517 -58.876)" fill="#0e497d"/>
        <path id="Path_46300" data-name="Path 46300" d="M32.209,93.936a.6.6,0,0,0,.434-.177.539.539,0,0,0,.177-.415h-.01a.6.6,0,0,0-.177-.435.666.666,0,0,0-.435-.167.561.561,0,0,0-.414.178.542.542,0,0,0-.178.424.521.521,0,0,0,.188.424.638.638,0,0,0,.415.168" transform="translate(-17.111 -50.209)" fill="#0e497d"/>
        <path id="Path_46301" data-name="Path 46301" d="M42.014,99.073h.977V94.01l.1-1.313-1.234.1.158,1.224Z" transform="translate(-22.66 -50.185)" fill="#0e497d"/>
        <path id="Path_46302" data-name="Path 46302" d="M51.412,99.027h1.572a1.364,1.364,0,0,0,1.471-1.47h-.01V92.612l-1.154.277.177,1.3v3.138c0,.543-.246.809-.73.809H50.771V97.063a2.29,2.29,0,0,0-.563-1.579,1.814,1.814,0,0,0-1.45-.632c-.089.01-.159.019-.207.029a.128.128,0,0,1-.059.01h-.04l.05.553a.6.6,0,0,1,.3-.069.8.8,0,0,1,.691.375,2.044,2.044,0,0,1,.286,1.145v1.036l-.029.206h-2.5L47,99.027h4.411Z" transform="translate(-25.446 -50.139)" fill="#0e497d"/>
        <path id="Path_46303" data-name="Path 46303" d="M65.525,99.073H66.5V94.01l.1-1.313-1.234.1.158,1.224Z" transform="translate(-35.389 -50.185)" fill="#0e497d"/>
        <path id="Path_46304" data-name="Path 46304" d="M80.682,93.936a.6.6,0,0,0,.434-.177.6.6,0,0,0-.02-.849.608.608,0,0,0-.848.011.537.537,0,0,0-.177.414.53.53,0,0,0,.186.435.664.664,0,0,0,.425.168" transform="translate(-43.349 -50.209)" fill="#0e497d"/>
        <path id="Path_46305" data-name="Path 46305" d="M77.25,93.936a.6.6,0,0,0,.434-.177.538.538,0,0,0,.177-.415.569.569,0,0,0-.187-.435.66.66,0,0,0-.424-.167.622.622,0,0,0-.424.178.535.535,0,0,0-.178.414.528.528,0,0,0,.188.435.639.639,0,0,0,.415.168" transform="translate(-41.496 -50.209)" fill="#0e497d"/>
        <path id="Path_46306" data-name="Path 46306" d="M77.077,101.287a2.007,2.007,0,0,0,1.549-.622,2.358,2.358,0,0,0,.582-1.639,2.389,2.389,0,0,0-.532-1.657,1.926,1.926,0,0,0-1.49-.583,2.016,2.016,0,0,0-1.589.642,2.419,2.419,0,0,0-.563,1.668,2.3,2.3,0,0,0,.552,1.6,1.942,1.942,0,0,0,1.49.592m.069-3.829q1.006,0,1.006,1.568c0,1.056-.346,1.59-1.047,1.59-.681,0-1.025-.533-1.025-1.59s.355-1.568,1.065-1.568" transform="translate(-40.623 -52.399)" fill="#0e497d"/>
        <path id="Path_46307" data-name="Path 46307" d="M87.827,101.258V97.5l-1.175.266.2,1.323.01,2.477a1.816,1.816,0,0,1-1.361,1.9l.207.385a2.535,2.535,0,0,0,2.122-2.6" transform="translate(-46.288 -52.784)" fill="#0e497d"/>
        <path id="Path_46308" data-name="Path 46308" d="M92.512,97.556a1.456,1.456,0,0,0,.394,1.086,1.441,1.441,0,0,0,1.066.385h7.594a1.543,1.543,0,0,0,.947-.3,1.51,1.51,0,0,0,.968.3h2.292a1.365,1.365,0,0,0,1.471-1.47h-.011V92.612l-1.155.277.178,1.3v3.138c0,.543-.248.809-.731.809h-1.817c-.473,0-.71-.256-.71-.78V94.852l-1.174.266.207,1.283v.957c0,.523-.247.78-.73.78H99.914a9.007,9.007,0,0,0-.522-1.145,8.663,8.663,0,0,0-.7-1.066,2.732,2.732,0,0,0-2.033-1.3,1.3,1.3,0,0,0-.6.149,1.328,1.328,0,0,0-.5.4,2.529,2.529,0,0,0-.355.652,3.489,3.489,0,0,0-.188.868l1.036-.118a2.09,2.09,0,0,1-.148-.661c0-.365.148-.553.454-.553.415,0,.888.366,1.431,1.106.217.306.4.582.563.839a8.552,8.552,0,0,1,.424.829H94.209c-.474,0-.71-.266-.71-.809V92.672l-1.155.266.168,1.263Z" transform="translate(-49.994 -50.139)" fill="#0e497d"/>
        <path id="Path_46309" data-name="Path 46309" d="M103.313,109.759a.631.631,0,0,0,.168-.4.581.581,0,0,0-.187-.434.637.637,0,0,0-.415-.168.594.594,0,0,0-.434.177.535.535,0,0,0-.178.415.526.526,0,0,0,.188.434.665.665,0,0,0,.434.168.548.548,0,0,0,.424-.187" transform="translate(-55.366 -58.877)" fill="#0e497d"/>
        <path id="Path_46310" data-name="Path 46310" d="M114.057,93.936a.6.6,0,0,0,.434-.177.567.567,0,0,0,.168-.415.6.6,0,0,0-.177-.435.589.589,0,0,0-.424-.167.57.57,0,0,0-.424.178.6.6,0,0,0,.424,1.016" transform="translate(-61.429 -50.209)" fill="#0e497d"/>
        <path id="Path_46311" data-name="Path 46311" d="M110.613,93.936a.6.6,0,0,0,.435-.177.568.568,0,0,0,.168-.415.6.6,0,0,0-.178-.435.584.584,0,0,0-.424-.167.573.573,0,0,0-.424.178.6.6,0,0,0,.424,1.016" transform="translate(-59.564 -50.209)" fill="#0e497d"/>
        <path id="Path_46312" data-name="Path 46312" d="M127.1,99.073h.977V94.01l.1-1.313-1.232.1.157,1.224Z" transform="translate(-68.726 -50.185)" fill="#0e497d"/>
        <path id="Path_46313" data-name="Path 46313" d="M142.257,93.936a.6.6,0,0,0,.434-.177.6.6,0,0,0-.019-.849.636.636,0,0,0-.415-.167.623.623,0,0,0-.434.178.535.535,0,0,0-.178.414.528.528,0,0,0,.188.435.663.663,0,0,0,.424.168" transform="translate(-76.685 -50.209)" fill="#0e497d"/>
        <path id="Path_46314" data-name="Path 46314" d="M138.827,93.936a.6.6,0,0,0,.434-.177.539.539,0,0,0,.177-.415.57.57,0,0,0-.187-.435.66.66,0,0,0-.424-.167.622.622,0,0,0-.425.178.538.538,0,0,0-.177.414.529.529,0,0,0,.187.435.636.636,0,0,0,.415.168" transform="translate(-74.833 -50.209)" fill="#0e497d"/>
        <path id="Path_46315" data-name="Path 46315" d="M138.652,101.287a2.007,2.007,0,0,0,1.55-.622,2.358,2.358,0,0,0,.583-1.639,2.389,2.389,0,0,0-.534-1.657,1.923,1.923,0,0,0-1.49-.583,2.018,2.018,0,0,0-1.59.642,2.422,2.422,0,0,0-.563,1.668,2.3,2.3,0,0,0,.553,1.6,1.94,1.94,0,0,0,1.49.592m.069-3.829q1.008,0,1.008,1.568c0,1.056-.345,1.59-1.046,1.59-.682,0-1.027-.533-1.027-1.59s.355-1.568,1.065-1.568" transform="translate(-73.958 -52.399)" fill="#0e497d"/>
        <path id="Path_46316" data-name="Path 46316" d="M149.4,101.258V97.5l-1.174.266.2,1.323.011,2.477a1.817,1.817,0,0,1-1.363,1.9l.208.385a2.535,2.535,0,0,0,2.122-2.6" transform="translate(-79.623 -52.784)" fill="#0e497d"/>
        <path id="Path_46317" data-name="Path 46317" d="M153.819,99.073h.977V94.01l.1-1.313-1.234.1.158,1.224Z" transform="translate(-83.19 -50.185)" fill="#0e497d"/>
        <path id="Path_46318" data-name="Path 46318" d="M160.21,101.258V97.5l-1.174.266.2,1.323.011,2.477a1.817,1.817,0,0,1-1.363,1.9l.208.385a2.535,2.535,0,0,0,2.122-2.6" transform="translate(-85.474 -52.784)" fill="#0e497d"/>
        <path id="Path_46319" data-name="Path 46319" d="M160.777,93.936a.6.6,0,0,0,.434-.177.6.6,0,0,0-.019-.849.636.636,0,0,0-.415-.167.57.57,0,0,0-.424.178.584.584,0,0,0-.168.424.557.557,0,0,0,.177.424.566.566,0,0,0,.415.168" transform="translate(-86.722 -50.209)" fill="#0e497d"/>
        <path id="Path_46320" data-name="Path 46320" d="M166,101.889a3.848,3.848,0,0,0,1.056-.168,1.761,1.761,0,0,1-1.352,1.727l.207.415a2.494,2.494,0,0,0,2.121-2.6V97.5H166.5a2.028,2.028,0,0,0-1.618.71,2.537,2.537,0,0,0-.563,1.7,2.119,2.119,0,0,0,.455,1.372,1.52,1.52,0,0,0,1.223.612m-.375-3.356a1.071,1.071,0,0,1,.918-.443h.522v2.96a2.593,2.593,0,0,1-.858.168c-.612,0-.918-.493-.918-1.47a1.909,1.909,0,0,1,.336-1.214" transform="translate(-88.96 -52.784)" fill="#0e497d"/>
        <path id="Path_46321" data-name="Path 46321" d="M8.709,122.352h1.2a1.392,1.392,0,0,0,.938-.306,1.467,1.467,0,0,0,.977.306h7.723a1.543,1.543,0,0,0,.947-.3,1.51,1.51,0,0,0,.968.3h7.9a1.57,1.57,0,0,0,1.056-.375l.187-.207a1.838,1.838,0,0,0,1.332.582,1.365,1.365,0,0,0,1.194-.562,1.788,1.788,0,0,0,1.323.562,1.441,1.441,0,0,0,.938-.3,1.622,1.622,0,0,0,.986.3h1.288a1.517,1.517,0,0,0,.739-.177,1.391,1.391,0,0,0,1.263.73,2.215,2.215,0,0,0,1.747-.858,1.394,1.394,0,0,0,.937.306H44.62a1.365,1.365,0,0,0,1.471-1.47H46.08v-4.944l-1.155.276.178,1.3v3.138c0,.543-.248.809-.731.809h-1.8c-.484,0-.72-.256-.72-.779V119.8l.127-1.026a5.225,5.225,0,0,0-1.44-.227,2.469,2.469,0,0,0-1.777.6,2.3,2.3,0,0,0-.691,1.668.6.6,0,0,1-.681.651H36.6q-.71,0-.71-.77v-2.516l-1.174.266.2,1.283v.967c0,.523-.237.78-.71.78a1.155,1.155,0,0,1-.849-.366v-2.546l-.976.217v1.914c0,.523-.237.78-.7.78a1.226,1.226,0,0,1-.859-.336v-2.576l-.967.217-.02,1.9c0,.523-.236.779-.71.779h-.682v-.069H21.969v.069h-.278c-.473,0-.71-.256-.71-.779v-2.506l-1.174.266.207,1.283v.957c0,.523-.247.779-.73.779H18.125v-1.944a1.427,1.427,0,0,0-.759-1.3,3.157,3.157,0,0,0-1.648-.376,5.28,5.28,0,0,0-1.845.316l-.159.731a4.367,4.367,0,0,1,1.737-.385,2.269,2.269,0,0,1,1.234.316.97.97,0,0,1,.463.869v1.776h-.562l.03-1.154a1.163,1.163,0,0,0-.375-.919,1.274,1.274,0,0,0-.888-.3,1.885,1.885,0,0,0-1.294.523,1.652,1.652,0,0,0-.552,1.234,1.172,1.172,0,0,0,.158.611h-1.6c-.474,0-.71-.266-.71-.809V116l-1.175.266.188,1.323v3.069c0,.543-.238.809-.711.809H8.467c-.484,0-.731-.227-.731-.69V116l-1.155.266.187,1.263v3.158c0,.523-.246.779-.73.779H1.974c-.78,0-1.175-.483-1.175-1.441a2.208,2.208,0,0,1,.465-1.2H.384A2.754,2.754,0,0,0,0,120.22a2.3,2.3,0,0,0,.5,1.549,1.711,1.711,0,0,0,1.352.582H6.286a1.553,1.553,0,0,0,.958-.286,1.689,1.689,0,0,0,.987.286Zm31.625-3.128a1.249,1.249,0,0,1,.473.069l.08.552-.011,1.806a1.27,1.27,0,0,1-.957.444.7.7,0,0,1-.592-.355,1.683,1.683,0,0,1-.237-.967c0-1.036.415-1.549,1.244-1.549m-25.633.73a.763.763,0,0,1,.6-.365c.267,0,.4.187.4.572H15.7v1.3h-.642c-.464,0-.69-.187-.69-.552a1.434,1.434,0,0,1,.335-.958" transform="translate(0 -62.767)" fill="#0e497d"/>
        <path id="Path_46322" data-name="Path 46322" d="M7.339,119.326a.8.8,0,0,1,.553.218,4.418,4.418,0,0,0,.188-.484,1.592,1.592,0,0,0-.937-.326q-1.244,0-1.243,1.362H5.337v.592H8.543l-.522-.661-.572.069h-.76q0-.755.651-.77" transform="translate(-2.889 -64.281)" fill="#0e497d"/>
        <path id="Path_46323" data-name="Path 46323" d="M43.641,116.658a.59.59,0,0,0,.592.6.6.6,0,0,0,.434-.177.568.568,0,0,0,.168-.415.6.6,0,0,0-.178-.435.589.589,0,0,0-.424-.167.571.571,0,0,0-.424.178.562.562,0,0,0-.168.414" transform="translate(-23.627 -62.837)" fill="#0e497d"/>
        <path id="Path_46324" data-name="Path 46324" d="M40.79,117.26a.6.6,0,0,0,.435-.177.568.568,0,0,0,.168-.415.6.6,0,0,0-.178-.435.584.584,0,0,0-.424-.167.573.573,0,0,0-.424.178.6.6,0,0,0,.424,1.016" transform="translate(-21.763 -62.837)" fill="#0e497d"/>
        <path id="Path_46325" data-name="Path 46325" d="M103.748,122.4v-5.063l.1-1.313-1.233.1.157,1.224V122.4Z" transform="translate(-55.554 -62.813)" fill="#0e497d"/>
        <path id="Path_46326" data-name="Path 46326" d="M115.253,116.533a.637.637,0,0,0,.167-.4h-.01a.627.627,0,0,0-.168-.454.659.659,0,0,0-.424-.168.546.546,0,0,0-.424.188.567.567,0,0,0-.177.414.606.606,0,0,0,.611.612.551.551,0,0,0,.425-.187" transform="translate(-61.836 -62.534)" fill="#0e497d"/>
        <path id="Path_46327" data-name="Path 46327" d="M118.259,116.719a.549.549,0,0,0,.424-.187.632.632,0,0,0,.168-.4h-.01a.609.609,0,0,0-.177-.454.638.638,0,0,0-.415-.168.626.626,0,0,0-.612.6.584.584,0,0,0,.188.435.6.6,0,0,0,.434.177" transform="translate(-63.687 -62.533)" fill="#0e497d"/>
        <path id="Path_46328" data-name="Path 46328" d="M123.41,132.076a.572.572,0,0,0-.415.177.515.515,0,0,0-.187.415.528.528,0,0,0,.187.434.664.664,0,0,0,.425.168.583.583,0,0,0,.434-.188.6.6,0,0,0,.177-.4h-.01a.6.6,0,0,0-.177-.434.669.669,0,0,0-.435-.168" transform="translate(-66.487 -71.504)" fill="#0e497d"/>
        <path id="Path_46329" data-name="Path 46329" d="M127.453,132.679h-.011a.6.6,0,0,0-.177-.434.662.662,0,0,0-.424-.168.574.574,0,0,0-.425.177.514.514,0,0,0-.188.415.527.527,0,0,0,.188.434.665.665,0,0,0,.434.168.551.551,0,0,0,.424-.187.563.563,0,0,0,.177-.4" transform="translate(-68.339 -71.505)" fill="#0e497d"/>
        <path id="Path_46330" data-name="Path 46330" d="M117.244,123.14h-.407c-.484,0-.721-.266-.721-.8v-3.307q-.533.1-1.184.267l.068.444h-.325a2.4,2.4,0,0,0-1.678.592,1.973,1.973,0,0,0-.632,1.539,2.07,2.07,0,0,0,.453,1.421,1.552,1.552,0,0,0,1.254.514,2.828,2.828,0,0,0,1.273-.287,1.638,1.638,0,0,0,1.254.5h2.164a1.443,1.443,0,0,0,1.066-.385,1.411,1.411,0,0,0,.395-1.047h-.011v-2.734l-1.144.256.177,1.263v.977c0,.523-.247.78-.731.78h-1.273Zm-2.095-.266a3.115,3.115,0,0,1-.859.118c-.6,0-.908-.434-.908-1.293a1.207,1.207,0,0,1,.366-.918,1.22,1.22,0,0,1,.878-.374l.523-.02Z" transform="translate(-60.834 -64.444)" fill="#0e497d"/>
        <path id="Path_46331" data-name="Path 46331" d="M132.146,120.951a1.453,1.453,0,0,0,.4,1.086,1.438,1.438,0,0,0,1.065.385h1.561a1.527,1.527,0,0,0,.741-.177,1.39,1.39,0,0,0,1.263.73,2.215,2.215,0,0,0,1.747-.858,1.39,1.39,0,0,0,.937.306H145.9a5.761,5.761,0,0,0-1.174-2.734c-.77-1.115-1.54-1.668-2.3-1.668a1.293,1.293,0,0,0-.6.149,1.324,1.324,0,0,0-.5.4,2.53,2.53,0,0,0-.355.652,3.472,3.472,0,0,0-.188.868l1.036-.118a2.082,2.082,0,0,1-.148-.661c0-.365.148-.553.453-.553.415,0,.889.366,1.432,1.106.217.306.4.582.563.839a8.655,8.655,0,0,1,.424.828h-4.465c-.484,0-.72-.256-.72-.779v-.888l.128-1.026a5.232,5.232,0,0,0-1.441-.227,2.468,2.468,0,0,0-1.776.6,2.3,2.3,0,0,0-.691,1.668.6.6,0,0,1-.682.651h-1.048c-.473,0-.71-.266-.71-.809v-4.658l-1.154.266.167,1.263Zm5.686-1.658a1.256,1.256,0,0,1,.474.069l.078.552-.01,1.806a1.269,1.269,0,0,1-.958.443.7.7,0,0,1-.592-.355,1.69,1.69,0,0,1-.237-.967c0-1.036.415-1.549,1.243-1.549" transform="translate(-71.452 -62.837)" fill="#0e497d"/>
        <path id="Path_46332" data-name="Path 46332" d="M166,125.214a3.859,3.859,0,0,0,1.056-.168,1.762,1.762,0,0,1-1.352,1.727l.208.415a2.5,2.5,0,0,0,2.121-2.6v-3.77H166.5a2.028,2.028,0,0,0-1.618.71,2.539,2.539,0,0,0-.562,1.7,2.123,2.123,0,0,0,.454,1.372,1.521,1.521,0,0,0,1.224.612m-.375-3.356a1.074,1.074,0,0,1,.919-.443h.522v2.96a2.593,2.593,0,0,1-.859.168c-.612,0-.918-.493-.918-1.47a1.909,1.909,0,0,1,.335-1.214" transform="translate(-88.96 -65.412)" fill="#0e497d"/>
      </g>
    </g>
  </g>
</svg>
