<svg xmlns="http://www.w3.org/2000/svg" width="700.277" height="827.526" viewBox="0 0 700.277 827.526">
  <g id="Group_3651" data-name="Group 3651" transform="translate(-163 -253.974)">
    <path id="Rectangle_1709" data-name="Rectangle 1709" d="M15.632,0H556.389a15.632,15.632,0,0,1,15.632,15.632v0a15.632,15.632,0,0,1-15.632,15.632H15.632A15.632,15.632,0,0,1,0,15.632v0A15.632,15.632,0,0,1,15.632,0Z" transform="translate(163 1038.891)" fill="#c4ddff"/>
    <path id="Rectangle_1710" data-name="Rectangle 1710" d="M15.632,0H556.389a15.632,15.632,0,0,1,15.632,15.632v0a15.632,15.632,0,0,1-15.632,15.632H15.632A15.632,15.632,0,0,1,0,15.632v0A15.632,15.632,0,0,1,15.632,0Z" transform="translate(172.979 1048.735)" fill="none" stroke="#09091d" stroke-linecap="round" stroke-width="3"/>
    <g id="Group_3618" data-name="Group 3618" transform="translate(167.913 788.54)">
      <g id="Group_3609" data-name="Group 3609" transform="translate(71.363 105.753)">
        <path id="Path_4857" data-name="Path 4857" d="M859.282,905.469a66.175,66.175,0,0,1-62.426-44.444l-10.24-29.461a20.227,20.227,0,1,1,38.212-13.283l10.24,29.462a25.419,25.419,0,0,0,17.6,16.385,24.439,24.439,0,0,0,22.579-4.962c9.482-8.077,16.583-21.962,21.109-41.269a20.228,20.228,0,0,1,39.387,9.233c-6.539,27.894-18.066,49.034-34.262,62.831A65.032,65.032,0,0,1,859.282,905.469Z" transform="translate(-785.489 -802.281)" fill="#035aa7"/>
      </g>
      <path id="Path_4858" data-name="Path 4858" d="M752.336,615.267a14.23,14.23,0,0,1-1.119-12.1c2.861-8.149,12.26-12.113,20.286-9.408,4.881,1.645,8.129,6.108,12.556,8.545,3.187,1.754,7.236,1.1,10.712,1.207,8.336.261,17.879,1.819,23.792,8.266,4.964,5.412,8.512,16.21,1.195,21.272-3.974,2.748-9.612,1.18-13.162-1.547-3.773-2.9-4.909-8.2-9.2-10.571a12.778,12.778,0,0,0-6.362-1.392,20.045,20.045,0,0,0-17.748,11.907c-2.03,4.771-2.516,10.815-6.9,13.584-4.72,2.982-11.357-.133-12.52-5.466-1.006-4.613,1.346-9.493,2.292-13.93a24.855,24.855,0,0,0,.49-3.211c.221-2.779-2.056-4.17-3.565-6.087A12.125,12.125,0,0,1,752.336,615.267Z" transform="translate(-696.746 -592.911)"/>
      <path id="Path_4859" data-name="Path 4859" d="M818.178,910.689q-60.442,17.617-121.125,0c-2.3-.665-.59-29.661-.359-33.176a158.06,158.06,0,0,1,5.346-31.276c7.368-26.925,22.144-53.15,53.721-53.15,25.622,0,41.34,18.236,49.637,40.738a224.943,224.943,0,0,1,9.627,34.959C815.865,873.141,821.537,909.71,818.178,910.689Z" transform="translate(-669.771 -691.979)" fill="#035aa7"/>
      <path id="Path_4860" data-name="Path 4860" d="M766.56,774h47.177l4.822,24.945H761.738Z" transform="translate(-702.371 -682.532)" fill="#035aa7"/>
      <g id="Group_3610" data-name="Group 3610" transform="translate(139.647 193.34)">
        <path id="Path_4861" data-name="Path 4861" d="M931.674,1023.791a1.516,1.516,0,0,1-.153-3.023c7.155-.734,26.161-2.685,30.513-8.821a4.293,4.293,0,0,0,.7-3.671,5.155,5.155,0,0,0-6.2-3.81l-11.449,2.737a1.515,1.515,0,0,1-1.854-1.675c.034-.248.065-.5.088-.746a1.516,1.516,0,0,1,1.157-1.334l16.942-4.05a5.148,5.148,0,1,0-2.394-10.014l-17.042,4.074a1.515,1.515,0,0,1-1.621-.645l-.068-.105c-.062-.1-.125-.192-.189-.287a1.515,1.515,0,0,1,.9-2.331l6.214-1.486.008,0a5.147,5.147,0,0,0,3.114-2.414,5.3,5.3,0,0,0,.692-4c-.759-2.962-3.382-3.937-8.775-3.256-2.023.255-4.458.5-7.035.758-3.865.389-8.246.829-12.815,1.45a1.515,1.515,0,0,1-.409-3c4.621-.629,9.03-1.072,12.921-1.462,2.669-.268,4.974-.5,6.959-.75,2.558-.322,10.343-1.3,12.09,5.51a8.339,8.339,0,0,1-1.012,6.284l5.368-1.283a8.179,8.179,0,0,1,3.8,15.91l-.273.065a8.155,8.155,0,0,1,3.837,5.161,7.262,7.262,0,0,1-1.175,6.128c-4.536,6.4-19.063,8.686-32.675,10.083A1.5,1.5,0,0,1,931.674,1023.791Z" transform="translate(-920.677 -975.685)"/>
      </g>
      <g id="Group_3611" data-name="Group 3611" transform="translate(191.862 50.901)">
        <path id="Path_4862" data-name="Path 4862" d="M1040.728,728a1.518,1.518,0,0,1-1.5-1.75l2.715-17.39s.755-6.119.776-6.294v-.008a5.147,5.147,0,0,0-1.172-3.762,5.3,5.3,0,0,0-3.5-2.048c-3.04-.327-4.871,1.793-6.121,7.082-.47,1.986-1.094,4.355-1.754,6.863-.988,3.754-2.108,8.01-3.125,12.5a1.515,1.515,0,1,1-2.955-.669c1.027-4.546,2.154-8.829,3.149-12.607.684-2.6,1.274-4.84,1.735-6.789.593-2.509,2.415-10.144,9.392-9.4a8.342,8.342,0,0,1,5.556,3.177,8.191,8.191,0,0,1,1.807,6.017h0c-.027.228-.154,1.253-.783,6.35l-2.722,17.438A1.515,1.515,0,0,1,1040.728,728Z" transform="translate(-1024.052 -693.686)"/>
      </g>
      <g id="Group_3612" data-name="Group 3612" transform="translate(204.548 72.12)">
        <path id="Path_4863" data-name="Path 4863" d="M1074.071,782.958a1.517,1.517,0,0,1-1.435-2c2.315-6.81,8.465-24.9,4.7-31.413a4.294,4.294,0,0,0-3.045-2.165,5.149,5.149,0,0,0-6.05,4.051c-.007.033-.014.066-.023.1l-2.862,10.69a1.515,1.515,0,0,1-2.328,1.36l-.041-.025h0l-.025-.016a1.525,1.525,0,0,1-.574-2.051l3.285-16.607a5.148,5.148,0,1,0-10.1-2l-3.4,17.189a1.516,1.516,0,0,1-2.974-.588l3.4-17.189a8.179,8.179,0,1,1,16.047,3.175l-.054.27.152-.1a8.12,8.12,0,0,1,6.138-1.228,7.265,7.265,0,0,1,5.081,3.622c3.922,6.789-.052,20.949-4.456,33.9A1.517,1.517,0,0,1,1074.071,782.958Z" transform="translate(-1049.167 -735.695)"/>
      </g>
      <g id="Group_3613" data-name="Group 3613" transform="translate(0 115.75)">
        <path id="Path_4864" data-name="Path 4864" d="M712.368,962.675c-20.06,0-37.027-6.133-49.249-17.843-15.572-14.92-22.217-37.811-17.343-59.742,4.742-21.335,18.836-40.611,43.089-58.929a20.227,20.227,0,1,1,24.382,32.282c-16.032,12.109-25.447,24.028-27.979,35.425-1.8,8.093.492,16.631,5.839,21.753,4.938,4.731,12.816,6.939,23.413,6.561,10.047-.358,22.169-3.225,33.258-7.865a20.227,20.227,0,0,1,15.616,37.319c-9.057,3.79-27.264,10.256-47.434,10.975C714.753,962.654,713.553,962.675,712.368,962.675Z" transform="translate(-644.204 -822.074)" fill="#035aa7"/>
      </g>
      <g id="Group_3615" data-name="Group 3615" transform="translate(38.946 164.334)">
        <g id="Group_3614" data-name="Group 3614">
          <path id="Path_4865" data-name="Path 4865" d="M801.553,1000.755a1.516,1.516,0,0,1-.586-2.913,18.712,18.712,0,1,0-14.445-34.524c-11.251,4.707-23.566,7.616-33.79,7.981-11.015.391-19.269-1.955-24.514-6.981-5.72-5.48-8.182-14.577-6.27-23.177,1.621-7.293,5.969-14.826,12.924-22.391A1.516,1.516,0,0,1,737.1,920.8c-6.59,7.167-10.693,14.232-12.2,21-1.686,7.588.437,15.568,5.408,20.331,4.632,4.437,12.143,6.5,22.31,6.141,9.872-.352,21.8-3.177,32.727-7.748a21.743,21.743,0,1,1,16.786,40.115A1.514,1.514,0,0,1,801.553,1000.755Z" transform="translate(-721.308 -918.261)" fill="#090928"/>
        </g>
      </g>
      <g id="Group_3617" data-name="Group 3617" transform="translate(62.224 23.078)">
        <g id="Group_3616" data-name="Group 3616">
          <path id="Path_4866" data-name="Path 4866" d="M824.411,647.4a13.964,13.964,0,0,0-1.867-.382,32.26,32.26,0,0,1-9.857-3.093,22.648,22.648,0,0,0-16.756-1.284c-5.339,1.665-9.179,5.436-12.409,9.493-2.776,3.487-5.033,6.658-8.32,9.243a13.938,13.938,0,0,0-2.14,2.1,11.692,11.692,0,0,0,1.056,16.111,11.4,11.4,0,0,0,13.344,1.626,22.734,22.734,0,0,0,37.3-11.387,11.36,11.36,0,0,0,8.078-8.688A11.7,11.7,0,0,0,824.411,647.4Z" transform="translate(-768.852 -640.087)" fill="#fff"/>
          <path id="Path_4867" data-name="Path 4867" d="M801.294,687.091a24.412,24.412,0,0,1-15.515-5.56,12.827,12.827,0,0,1-14.146-2.319,13.282,13.282,0,0,1-1.2-18.187,15.427,15.427,0,0,1,2.372-2.326,41.1,41.1,0,0,0,6.811-7.4c.412-.524.83-1.058,1.261-1.6,2.907-3.653,7.03-8.09,13.143-10a24.142,24.142,0,0,1,17.874,1.369,30.737,30.737,0,0,0,9.391,2.952,15.576,15.576,0,0,1,2.07.423h0a13.142,13.142,0,0,1,9.507,15.51,12.786,12.786,0,0,1-8.311,9.567,24.2,24.2,0,0,1-23.259,17.562ZM786,678.21a1.515,1.515,0,0,1,1.015.39,21.329,21.329,0,0,0,20.535,4.511,21.084,21.084,0,0,0,14.278-15.139,1.516,1.516,0,0,1,1.056-1.091,9.813,9.813,0,0,0,7.009-7.544,10.142,10.142,0,0,0-7.349-11.962h0a12.425,12.425,0,0,0-1.666-.341,33.768,33.768,0,0,1-10.321-3.234,21.127,21.127,0,0,0-15.639-1.2c-5.325,1.661-9.036,5.677-11.674,8.99-.426.535-.839,1.062-1.246,1.581a44,44,0,0,1-7.322,7.909,12.436,12.436,0,0,0-1.906,1.87,10.128,10.128,0,0,0,.914,14.035,9.859,9.859,0,0,0,11.588,1.411A1.516,1.516,0,0,1,786,678.21Z" transform="translate(-767.394 -638.602)"/>
        </g>
      </g>
      <path id="Path_4868" data-name="Path 4868" d="M835.3,691.053l-.262.217a10.64,10.64,0,0,1-11.05,1.491,9.9,9.9,0,0,0-12.485,4.067,10.379,10.379,0,0,1-9.94,4.968l-.167-.016a4.129,4.129,0,0,0-3.6,6.7,24.837,24.837,0,0,0,26.853,8.277h0a24.837,24.837,0,0,0,17.409-22.387A4.118,4.118,0,0,0,835.3,691.053Z" transform="translate(-719.766 -641.003)"/>
      <path id="Path_4869" data-name="Path 4869" d="M828.429,809.332l-11.112,2.113a5.961,5.961,0,0,1-6.969-4.743h0a5.961,5.961,0,0,1,4.742-6.969L826.2,797.62a5.961,5.961,0,0,1,6.969,4.742h0A5.96,5.96,0,0,1,828.429,809.332Z" transform="translate(-726.375 -694.169)" fill="#ea676c"/>
      <path id="Path_4870" data-name="Path 4870" d="M823.269,814.049c3.58.1,14.975,47.164,9.912,83.623l10.2-16.723,17.271,4.489c-.766-11.69-25.309-81.259-31.183-74.055Z" transform="translate(-732.823 -700.774)" fill="#ea676c"/>
    </g>
    <g id="Group_3640" data-name="Group 3640" transform="translate(504.277 793.213)">
      <g id="Group_3621" data-name="Group 3621" transform="translate(11.088 70.732)">
        <g id="Group_3619" data-name="Group 3619">
          <path id="Path_4871" data-name="Path 4871" d="M1457.282,765.341a1.537,1.537,0,0,1-1.319-.744c-7.01-11.621-13.857-24.5-11.49-31.918a7.237,7.237,0,0,1,4.174-4.605,8.091,8.091,0,0,1,6.231-.11l.086.035-.073-.169a8.143,8.143,0,0,1,14.934-6.5l2.148,4.938a8.293,8.293,0,0,1,4.36-4.487c6.472-2.69,10.342,4.083,11.615,6.308.984,1.719,2.174,3.682,3.55,5.954,2.009,3.315,4.287,7.073,6.544,11.109a1.538,1.538,0,0,1-2.685,1.5c-2.231-3.99-4.494-7.723-6.49-11.016-1.33-2.195-2.586-4.267-3.59-6.021-2.664-4.656-4.984-6.147-7.763-4.995a5.217,5.217,0,0,0-2.735,2.912,5.069,5.069,0,0,0-.057,3.877c.044.1,2.53,5.814,2.53,5.814a1.539,1.539,0,0,1-1.348,2.151c-.111,0-.221.012-.332.02l-.127.009a1.543,1.543,0,0,1-1.512-.921L1467,722.56a5.067,5.067,0,0,0-9.292,4.043l6.887,15.832a1.538,1.538,0,0,1-.375,1.751c-.184.168-.362.34-.539.515a1.538,1.538,0,0,1-2.489-.482l-4.655-10.7a5.067,5.067,0,0,0-6.667-2.625,4.223,4.223,0,0,0-2.471,2.719c-2.261,7.087,7.514,23.293,11.194,29.394a1.538,1.538,0,0,1-1.316,2.333Z" transform="translate(-1443.996 -716.439)"/>
        </g>
        <g id="Group_3620" data-name="Group 3620" transform="translate(29.237 49.264)">
          <path id="Path_4872" data-name="Path 4872" d="M1579.982,900.085c-16.273,0-32.525-6.809-47.267-19.862-14.978-13.26-24.832-29.68-29.372-38.287a20.048,20.048,0,1,1,35.464-18.709c9.753,18.487,27.226,37.87,42.532,36.71,7.318-.549,14.452-5.637,18.177-12.961a36.422,36.422,0,0,0,3.1-9.023,20.049,20.049,0,0,1,39.242,8.238,76.432,76.432,0,0,1-6.6,18.957c-10.091,19.849-29.6,33.174-50.916,34.774Q1582.164,900.086,1579.982,900.085Z" transform="translate(-1501.023 -812.529)" fill="#035aa7"/>
        </g>
      </g>
      <path id="Path_4873" data-name="Path 4873" d="M1669.073,791.753q.6-.254,1.2-.492l1.08-12.37,25.946-.591,1.447,10.851c.11.77,3.061,1.4,3.726,1.7,9.583,4.339,16.439,14.857,17.189,25.267.534,7.422-1.5,14.841-4.567,21.542a68.962,68.962,0,0,1-6.9,11.717c-.406.608,6.368,10.579,7.018,11.77a123.742,123.742,0,0,1,6.7,14.155c3.571,9.135,6.135,19.167,4.2,28.984-.375,1.9-2.056,12.66-4.584,13.2-50.426,10.688-86.8,11.677-96.978-7.572,0,0,23.659-52.326,27.875-70.569.191-.826-.307-2.557-1.125-4.624A33.427,33.427,0,0,1,1669.073,791.753Z" transform="translate(-1520.895 -675.852)" fill="#090928"/>
      <g id="Group_3622" data-name="Group 3622" transform="translate(97.038 102.446)">
        <path id="Path_4874" data-name="Path 4874" d="M1662.776,791.745q.619-.268,1.249-.509.517-6.173,1.034-12.347l25.95-.591q.557,4.348,1.115,8.7a4.975,4.975,0,0,0,.668,2.26,5.593,5.593,0,0,0,2.854,1.676c10.711,3.94,17.315,15.588,17.637,27s-4.7,22.41-11.51,31.564c5.188,3.443,10.426,6.955,14.57,11.6,6.574,7.374,9.757,16.907,11.369,26.5,1.126,6.7,3.012,13.636,2.177,20.479-1.063,8.7-8.664,11-16.272,12.852A190.96,190.96,0,0,1,1658.574,926c-16.188-.856-32.977-3.95-45.23-15.406-.868-.811-1.768-1.809-1.7-2.995a4.3,4.3,0,0,1,.823-1.972,457.15,457.15,0,0,0,31.8-59.857,16.384,16.384,0,0,0,1.777-6.2c.039-2.435-.98-4.741-1.731-7.057a33.225,33.225,0,0,1,18.466-40.771Z" transform="translate(-1611.64 -778.298)" fill="#035aa7"/>
      </g>
      <g id="Group_3625" data-name="Group 3625" transform="translate(125.108 35.174)">
        <g id="Group_3623" data-name="Group 3623" transform="translate(7.794 7.795)">
          <path id="Path_4875" data-name="Path 4875" d="M1705.654,710.425a24.069,24.069,0,0,1-.571-48.13h0a24.069,24.069,0,0,1,1.159,48.124C1706.045,710.423,1705.849,710.425,1705.654,710.425Zm-.5-45.055a20.991,20.991,0,1,0,14.988,5.789,21.016,21.016,0,0,0-14.988-5.789Zm-.037-1.538h0Z" transform="translate(-1681.593 -662.288)" fill="#090928"/>
        </g>
        <g id="Group_3624" data-name="Group 3624" transform="translate(0 0)">
          <circle id="Ellipse_139" data-name="Ellipse 139" cx="22.531" cy="22.531" r="22.531" transform="translate(0 31.863) rotate(-45)" fill="#fff"/>
          <path id="Path_4876" data-name="Path 4876" d="M1705.654,710.425a24.069,24.069,0,0,1-.571-48.13h0a24.069,24.069,0,0,1,1.159,48.124C1706.045,710.423,1705.849,710.425,1705.654,710.425Zm-.5-45.055a20.991,20.991,0,1,0,14.988,5.789,21.016,21.016,0,0,0-14.988-5.789Zm-.037-1.538h0Z" transform="translate(-1673.799 -654.493)"/>
        </g>
      </g>
      <path id="Path_4877" data-name="Path 4877" d="M1718.189,641.032c7.254,8.807,1.18,22.576-5.77,29.657-8.514,8.676-27.328,15.348-37.4,5.641-4.463-4.3-6.852-11.807-3-17.21,3.154-4.419,8.92-6.669,14.072-7.648,8.24-1.567,17.168-.767,24.886-4.522a21.007,21.007,0,0,0,5.281-3.642C1716.4,643.177,1718.368,641.249,1718.189,641.032Z" transform="translate(-1543.083 -608.961)"/>
      <path id="Path_4878" data-name="Path 4878" d="M1759.247,595.237a32.13,32.13,0,0,1,9.706.225c.615.077,8.74,1.312,8.507,2.013,0,0,1.42-4.229,2.012-5.531,1.367-3.009,4.829-4.618,8.131-4.739s8.1,1.594,11.222,2.673c-1.247-.431.445-6.659.91-7.523,2.211-4.1,10.264-4.366,14.187-3.427,3.518.841,6.787,3.725,6.957,7.338.121,2.564-1.305,4.758-3.011,6.539a21.026,21.026,0,0,1-6.434,4.54c-1.069.476-4.836,2.154-5.6.5,1.944,4.208-.678,11.6-4.87,13.581-3.7,1.748-9.034,1.19-12.817.049.5.151-2.25,8.506-2.575,9.3-4.015,9.84-14.45,16.031-24.944,12.512-11.387-3.818-18.141-19.221-12.313-29.977a16.3,16.3,0,0,1,8.062-7.246A14.389,14.389,0,0,1,1759.247,595.237Z" transform="translate(-1580.164 -578.478)"/>
      <g id="Group_3628" data-name="Group 3628" transform="translate(164.358 50.102)">
        <g id="Group_3626" data-name="Group 3626">
          <path id="Path_4879" data-name="Path 4879" d="M1756.759,702.323a1.538,1.538,0,0,1-.036-3.076,9.89,9.89,0,0,0,9.883-10.1,10.115,10.115,0,0,0-10.35-9.863c-5.959.143-10.357,4.232-10.23,9.51a1.538,1.538,0,0,1-1.5,1.575,1.554,1.554,0,0,1-1.574-1.5c-.166-6.916,5.645-12.477,13.231-12.66a13.189,13.189,0,0,1,13.5,12.864,12.933,12.933,0,0,1-12.884,13.254Z" transform="translate(-1742.947 -676.201)" fill="#090928"/>
        </g>
        <g id="Group_3627" data-name="Group 3627">
          <path id="Path_4880" data-name="Path 4880" d="M1758.221,702.248A11.451,11.451,0,0,0,1769.6,690.57a11.648,11.648,0,0,0-11.924-11.364c-6.431.155-11.885,4.655-11.73,11.085" transform="translate(-1744.409 -677.663)" fill="#fff"/>
          <path id="Path_4881" data-name="Path 4881" d="M1756.759,702.323a1.538,1.538,0,0,1-.036-3.076,9.89,9.89,0,0,0,9.883-10.1,10.115,10.115,0,0,0-10.35-9.863c-5.959.143-10.357,4.232-10.23,9.51a1.538,1.538,0,0,1-1.5,1.575,1.554,1.554,0,0,1-1.574-1.5c-.166-6.916,5.645-12.477,13.231-12.66a13.189,13.189,0,0,1,13.5,12.864,12.933,12.933,0,0,1-12.884,13.254Z" transform="translate(-1742.947 -676.201)" fill="#090928"/>
        </g>
      </g>
      <g id="Group_3630" data-name="Group 3630" transform="translate(101.963 113.869)">
        <g id="Group_3629" data-name="Group 3629">
          <path id="Path_4882" data-name="Path 4882" d="M1622.782,909.168a1.539,1.539,0,0,1-1.362-2.25c.24-.461,24.066-46.2,26.349-51.965,2.006-5.068,1.831-5.467,1.248-6.79l-.1-.231c-.121-.278-.235-.609-.356-.959-.093-.27-.193-.559-.3-.83a35.092,35.092,0,0,1,18.6-44.948q.616-.262,1.239-.509a1.538,1.538,0,0,1,1.13,2.861q-.584.23-1.161.477a32,32,0,0,0-16.943,40.986c.124.313.239.646.347.958.1.292.2.568.27.736l.1.22c1.033,2.349,1.046,3.476-1.2,9.161-2.341,5.911-25.5,50.365-26.482,52.255A1.538,1.538,0,0,1,1622.782,909.168Z" transform="translate(-1621.245 -800.579)"/>
        </g>
      </g>
      <path id="Path_4883" data-name="Path 4883" d="M1735.386,636.2h0s-16.258,3.952-9.5,14.131,25,8.454,25,8.454l1.013-1.154C1743.853,652.847,1736.741,645.463,1735.386,636.2Z" transform="translate(-1569.473 -606.607)" fill="#ea676c"/>
      <g id="Group_3639" data-name="Group 3639" transform="translate(0 118.772)">
        <g id="Group_3631" data-name="Group 3631" transform="translate(50.107)">
          <path id="Path_4884" data-name="Path 4884" d="M1540.144,933.47a20.051,20.051,0,0,1-5.326-39.378c39.012-10.774,67.5-34.659,87.095-73.018a20.049,20.049,0,1,1,35.709,18.24c-24.647,48.253-62.373,79.687-112.129,93.428A20.074,20.074,0,0,1,1540.144,933.47Z" transform="translate(-1520.102 -810.141)" fill="#090928"/>
        </g>
        <g id="Group_3632" data-name="Group 3632" transform="translate(50.107)">
          <path id="Path_4885" data-name="Path 4885" d="M1540.144,933.47a20.051,20.051,0,0,1-5.326-39.378c39.012-10.774,67.5-34.659,87.095-73.018a20.049,20.049,0,1,1,35.709,18.24c-24.647,48.253-62.373,79.687-112.129,93.428A20.074,20.074,0,0,1,1540.144,933.47Z" transform="translate(-1520.102 -810.141)" fill="#035aa7"/>
        </g>
        <g id="Group_3637" data-name="Group 3637" transform="translate(63.286 17.192)">
          <g id="Group_3633" data-name="Group 3633" transform="translate(43.236 37.306)">
            <path id="Path_4886" data-name="Path 4886" d="M1631.677,973.726a1.539,1.539,0,0,1-.684-2.917c24.826-12.3,45.92-30.38,62.7-53.729a1.538,1.538,0,1,1,2.5,1.795c-17.073,23.762-38.548,42.163-63.829,54.691A1.53,1.53,0,0,1,1631.677,973.726Z" transform="translate(-1630.138 -916.439)"/>
          </g>
          <g id="Group_3634" data-name="Group 3634" transform="translate(24.496 91.516)">
            <path id="Path_4887" data-name="Path 4887" d="M1595.125,1033.223a1.539,1.539,0,0,1-.521-2.986,177.03,177.03,0,0,0,18.577-7.9,1.538,1.538,0,0,1,1.366,2.757,180.071,180.071,0,0,1-18.9,8.039A1.527,1.527,0,0,1,1595.125,1033.223Z" transform="translate(-1593.586 -1022.175)"/>
          </g>
          <g id="Group_3635" data-name="Group 3635" transform="translate(0 58.206)">
            <path id="Path_4888" data-name="Path 4888" d="M1547.344,967.3a1.538,1.538,0,0,1-.408-3.021,145.616,145.616,0,0,0,19.648-6.939,1.538,1.538,0,1,1,1.235,2.817,148.58,148.58,0,0,1-20.065,7.087A1.516,1.516,0,0,1,1547.344,967.3Z" transform="translate(-1545.807 -957.205)"/>
          </g>
          <g id="Group_3636" data-name="Group 3636" transform="translate(19.856)">
            <path id="Path_4889" data-name="Path 4889" d="M1586.076,904.958a1.538,1.538,0,0,1-.619-2.947c26.34-11.553,46.719-30.382,62.3-57.563a1.538,1.538,0,1,1,2.669,1.53c-15.922,27.773-36.769,47.023-63.734,58.849A1.534,1.534,0,0,1,1586.076,904.958Z" transform="translate(-1584.536 -843.675)"/>
          </g>
        </g>
        <g id="Group_3638" data-name="Group 3638" transform="translate(0 87.677)">
          <path id="Path_4890" data-name="Path 4890" d="M1442.41,1031.765c-3.485,0-6.46-.56-8.615-1.93a7.233,7.233,0,0,1-3.391-5.208,8.119,8.119,0,0,1,1.539-6.13l-.187.029a8.143,8.143,0,1,1-2.484-16.095l5.322-.821a8.29,8.29,0,0,1-3.23-5.359c-.955-6.938,6.578-8.962,9.054-9.628,1.914-.514,4.115-1.165,6.663-1.919,3.717-1.1,7.93-2.346,12.407-3.5a1.538,1.538,0,1,1,.769,2.979c-4.425,1.142-8.611,2.38-12.3,3.473-2.46.728-4.786,1.416-6.737,1.941-5.18,1.392-7.215,3.258-6.8,6.237a5.218,5.218,0,0,0,2.12,3.386,5.067,5.067,0,0,0,3.734,1.041l6.267-.968a1.538,1.538,0,0,1,1.737,1.85c-.023.107-.043.214-.064.322l-.024.13a1.539,1.539,0,0,1-1.276,1.228l-17.164,2.65a5.067,5.067,0,0,0,1.546,10.014l17.063-2.635a1.543,1.543,0,0,1,1.6.81c.114.22.236.436.359.65a1.538,1.538,0,0,1-1.1,2.286l-11.531,1.78a5.073,5.073,0,0,0-4.234,5.781,4.222,4.222,0,0,0,2,3.081c6.28,3.989,24.438-1.341,31.275-3.348a1.538,1.538,0,0,1,.866,2.952C1458.834,1029.412,1449.551,1031.765,1442.41,1031.765Z" transform="translate(-1422.369 -981.154)"/>
        </g>
      </g>
    </g>
    <path id="Path_4891" data-name="Path 4891" d="M1128.864,651.866A181.832,181.832,0,0,1,1262.391,432.1l211.423-51.608A181.834,181.834,0,0,1,1693.58,514.021h0a181.834,181.834,0,0,1-133.528,219.766L1348.63,785.4,1257.067,892.21a15.42,15.42,0,0,1-25.788-3.747l-90.456-202.57h0a182.6,182.6,0,0,1-11.96-34.025Z" transform="matrix(0.985, 0.174, -0.174, 0.985, -744.56, -292.78)" fill="#62cce6"/>
    <g id="Group_3650" data-name="Group 3650" transform="translate(-556.576 -88.582)">
      <g id="Group_3648" data-name="Group 3648" transform="translate(950.565 1039.934)">
        <path id="Path_4895" data-name="Path 4895" d="M998.589,1095.267H966.56a.768.768,0,0,1-.422-.127,109.107,109.107,0,0,1-9.987-7.209c-1.718-1.431-5.7-5.165-5.583-8.938a5.515,5.515,0,0,1,2.526-4.348,8.13,8.13,0,0,1,5.3-1.48,11.161,11.161,0,0,1,3.837,1.017c-1.67-4.147-2.851-12.545.513-16.108,1.171-1.24,3.409-2.38,7.427-.77,4.981,2,8.712,6.8,11.088,14.28a50.712,50.712,0,0,1,1.6,6.657,142.012,142.012,0,0,1,3.364-15.053,81.816,81.816,0,0,1,5.394-14.662c1.331-2.67,4.067-7.308,7.437-8.365a3.381,3.381,0,0,1,3.406.506c2.022,1.734,2.408,6.506,1.179,14.587-.734,4.843-1.865,9.593-2.408,11.875-.105.441-.189.792-.243,1.034-.623,2.77-1.3,5.446-2.03,7.976a23.073,23.073,0,0,1,5.2-1.549,12.875,12.875,0,0,1,3.94-.1,8.169,8.169,0,0,1,1.89.493,3.771,3.771,0,0,1,2.5,2.622c.5,2.1-.834,4.948-3.954,8.476a75.707,75.707,0,0,1-9.465,9.018A.768.768,0,0,1,998.589,1095.267Zm-31.8-1.534h31.53a74.282,74.282,0,0,0,9.063-8.667c2.653-3,3.969-5.591,3.61-7.106a2.305,2.305,0,0,0-1.577-1.552,6.615,6.615,0,0,0-1.536-.4,11.337,11.337,0,0,0-3.465.092,22.158,22.158,0,0,0-6.327,2.135.767.767,0,0,1-1.082-.906c.9-2.968,1.733-6.166,2.484-9.507.056-.247.141-.6.248-1.052.539-2.262,1.66-6.97,2.384-11.75,1.477-9.718.22-12.437-.661-13.193a1.934,1.934,0,0,0-1.948-.206c-2.934.921-5.54,5.612-6.524,7.586a80.386,80.386,0,0,0-5.29,14.394A140.714,140.714,0,0,0,983.562,1084a.767.767,0,0,1-1.525-.034,54.494,54.494,0,0,0-2.244-11.913c-2.231-7.022-5.662-11.5-10.2-13.321-2.582-1.035-4.513-.9-5.74.4-2.909,3.082-1.627,11.5.041,15.05.242.513.486,1.007.723,1.465a.767.767,0,0,1-1.1,1,11.2,11.2,0,0,0-5.242-1.945,6.662,6.662,0,0,0-4.283,1.188,4.01,4.01,0,0,0-1.9,3.157c-.1,3.185,3.826,6.708,5.032,7.712A106.281,106.281,0,0,0,966.79,1093.733Z" transform="translate(-950.565 -1039.934)" fill="#fdb958"/>
      </g>
      <g id="Group_3649" data-name="Group 3649" transform="translate(965.832 1093.733)">
        <path id="Path_4896" data-name="Path 4896" d="M1038.849,1284.118h-22.362a.767.767,0,0,1-.756-.639l-5.436-32.207a.767.767,0,0,1,.756-.895h15.66a.774.774,0,0,0,.319,0h17.255a.767.767,0,0,1,.756.895l-5.436,32.207A.766.766,0,0,1,1038.849,1284.118Zm-21.713-1.534H1038.2l5.177-30.673H1027.03a.763.763,0,0,0-.319,0h-14.753Z" transform="translate(-1010.284 -1250.377)" fill="#090928"/>
      </g>
    </g>
    <path id="Path_4897" data-name="Path 4897" d="M1128.864,651.866A181.832,181.832,0,0,1,1262.391,432.1l211.423-51.608A181.834,181.834,0,0,1,1693.58,514.021h0a181.834,181.834,0,0,1-133.528,219.766L1348.63,785.4,1257.067,892.21a15.42,15.42,0,0,1-25.788-3.747l-90.456-202.57h0a182.6,182.6,0,0,1-11.96-34.025Z" transform="matrix(0.985, 0.174, -0.174, 0.985, -756.56, -307.78)" fill="none" stroke="#09091d" stroke-width="5"/>
    <path id="Path_5716" data-name="Path 5716" d="M-6846.577-9643.384s-16.345-8.63-14.384-16.476,12.191-2.182,12.191-2.182-5.774-17.4,2.192-18c7.784-.59,16.22,12.743,16.708,24.993,0-.006.01.556.01.556s6.539-44.812,18.407-42.3-3.319,36.935-3.319,36.935,14.912-6.834,14.006,1.615-12.573,14.86-12.573,14.86Z" transform="translate(7256 10649)" fill="#fdb958"/>
  </g>
</svg>
