<svg id="Group_5188" data-name="Group 5188" xmlns="http://www.w3.org/2000/svg" width="281.7" height="154.926" viewBox="0 0 281.7 254.926">
  <path id="Path_5802" data-name="Path 5802" d="M1016.061,496.114c0,5.391-8.855,10.149-9.534,15.355-.695,5.328,6.626,12.2,5.266,17.292-1.383,5.175-11.169,7.476-13.192,12.356-2.047,4.936,3.232,13.482.58,18.065-2.67,4.615-12.717,4.3-15.949,8.506s-.352,13.844-4.109,17.6-13.381.866-17.6,4.109-3.89,13.279-8.506,15.95c-4.583,2.652-13.129-2.627-18.065-.581-4.879,2.023-7.181,11.809-12.356,13.192-5.089,1.36-11.963-5.961-17.292-5.266-5.206.679-9.964,9.534-15.355,9.534s-10.149-8.855-15.355-9.534c-5.328-.695-12.2,6.626-17.292,5.266-5.176-1.383-7.477-11.169-12.356-13.192-4.936-2.047-13.482,3.232-18.065.58-4.615-2.67-4.3-12.717-8.506-15.949s-13.844-.351-17.6-4.109-.866-13.381-4.109-17.6-13.279-3.89-15.949-8.506c-2.652-4.583,2.627-13.129.58-18.065-2.023-4.88-11.809-7.181-13.192-12.356-1.36-5.089,5.961-11.964,5.266-17.292-.679-5.206-9.534-9.964-9.534-15.355s8.855-10.149,9.533-15.355c.695-5.328-6.626-12.2-5.266-17.292,1.383-5.176,11.169-7.477,13.192-12.356,2.047-4.936-3.232-13.482-.58-18.065,2.67-4.615,12.717-4.3,15.95-8.506s.351-13.844,4.109-17.6,13.381-.866,17.6-4.109,3.89-13.279,8.506-15.95c4.583-2.652,13.13,2.627,18.065.581,4.88-2.023,7.181-11.809,12.356-13.192,5.089-1.36,11.963,5.961,17.291,5.266,5.206-.679,9.964-9.534,15.355-9.534s10.149,8.855,15.355,9.534c5.328.695,12.2-6.626,17.292-5.266,5.175,1.383,7.477,11.169,12.356,13.192,4.936,2.047,13.482-3.232,18.065-.58,4.615,2.67,4.3,12.717,8.506,15.95s13.844.351,17.6,4.109.866,13.381,4.109,17.6,13.279,3.89,15.95,8.506c2.652,4.583-2.627,13.129-.58,18.065,2.023,4.88,11.808,7.181,13.192,12.356,1.36,5.089-5.961,11.963-5.266,17.291C1007.206,485.965,1016.061,490.722,1016.061,496.114Z" transform="translate(-746.894 -368.013)" fill="#035aa7"/>
  <g id="Group_5175" data-name="Group 5175" transform="translate(40.283 35.059)">
    <path id="Path_5803" data-name="Path 5803" d="M938.875,672.255a93.041,93.041,0,1,1,55.136-167.994,1.423,1.423,0,0,1-1.689,2.292,90.2,90.2,0,1,0,8.335,138.373,1.423,1.423,0,0,1,1.95,2.074A92.684,92.684,0,0,1,938.875,672.255Z" transform="translate(-845.834 -486.172)" fill="#fff"/>
  </g>
  <g id="Group_5176" data-name="Group 5176" transform="translate(217.678 94.416)">
    <path id="Path_5804" data-name="Path 5804" d="M1473.585,751.751a1.424,1.424,0,0,1-1.384-1.764,90.723,90.723,0,0,0-3.141-53.386,1.423,1.423,0,1,1,2.664-1,93.574,93.574,0,0,1,3.241,55.068A1.424,1.424,0,0,1,1473.585,751.751Z" transform="translate(-1468.969 -694.677)" fill="#fff"/>
  </g>
  <g id="Group_5177" data-name="Group 5177" transform="translate(0 1.275)">
    <path id="Path_5805" data-name="Path 5805" d="M831.155,621.151c-3.1,0-5.887-2.554-8.583-5.024-2.265-2.075-4.607-4.221-6.865-4.516-2.348-.3-5.213,1.191-7.986,2.637-3.192,1.665-6.493,3.387-9.4,2.611-2.971-.794-4.994-3.972-6.951-7.046-1.657-2.6-3.371-5.3-5.494-6.176-2.165-.9-5.31-.2-8.351.469-3.529.78-7.178,1.586-9.8.07-2.644-1.53-3.769-5.113-4.857-8.577-.929-2.956-1.889-6.012-3.725-7.424s-5.057-1.56-8.16-1.7c-3.619-.159-7.361-.323-9.511-2.474s-2.315-5.892-2.474-9.511c-.136-3.1-.278-6.313-1.7-8.16s-4.468-2.8-7.424-3.725c-3.465-1.088-7.047-2.213-8.577-4.858-1.516-2.62-.71-6.269.07-9.8.672-3.042,1.367-6.186.469-8.351-.881-2.124-3.573-3.837-6.176-5.494-3.074-1.957-6.253-3.98-7.046-6.951-.776-2.9.946-6.2,2.611-9.4,1.447-2.773,2.943-5.641,2.637-7.986-.294-2.258-2.44-4.6-4.516-6.865-2.47-2.7-5.024-5.483-5.024-8.582s2.554-5.887,5.024-8.583c2.075-2.265,4.221-4.607,4.516-6.865.306-2.346-1.19-5.213-2.637-7.987-1.665-3.192-3.387-6.493-2.611-9.4.794-2.971,3.972-4.994,7.046-6.951,2.6-1.657,5.3-3.371,6.176-5.494.9-2.165.2-5.31-.469-8.351-.78-3.528-1.586-7.177-.07-9.8,1.53-2.644,5.113-3.769,8.577-4.857,2.956-.929,6.013-1.889,7.424-3.725s1.561-5.057,1.7-8.161c.159-3.619.323-7.36,2.474-9.511s5.892-2.314,9.511-2.474c3.1-.136,6.314-.277,8.161-1.7s2.8-4.468,3.725-7.424c1.088-3.465,2.213-7.047,4.857-8.577,2.621-1.516,6.27-.71,9.8.07,3.041.672,6.186,1.367,8.351.469,2.124-.88,3.837-3.572,5.494-6.176,1.957-3.074,3.979-6.252,6.951-7.046,2.9-.776,6.2.946,9.4,2.611,2.773,1.447,5.64,2.944,7.986,2.637,2.258-.294,4.6-2.44,6.865-4.516,2.7-2.47,5.484-5.024,8.583-5.024s5.887,2.554,8.583,5.024c2.265,2.075,4.607,4.221,6.864,4.516,2.346.307,5.213-1.19,7.987-2.637,3.192-1.665,6.492-3.387,9.4-2.611,2.971.794,4.995,3.973,6.951,7.047,1.657,2.6,3.371,5.3,5.494,6.176,2.165.9,5.31.2,8.351-.469,3.529-.78,7.178-1.586,9.8-.07,2.644,1.53,3.77,5.113,4.858,8.577.928,2.956,1.888,6.013,3.725,7.424s5.056,1.56,8.16,1.7c3.619.159,7.361.323,9.511,2.474a.712.712,0,0,1-1.006,1.006c-1.759-1.759-5.22-1.911-8.567-2.058-3.325-.146-6.762-.3-8.965-1.99s-3.221-4.96-4.216-8.127c-1.007-3.2-2.047-6.519-4.212-7.771-2.14-1.239-5.515-.493-8.778.227s-6.624,1.464-9.2.394c-2.538-1.053-4.374-3.937-6.149-6.726-1.811-2.844-3.682-5.785-6.118-6.436-2.369-.633-5.42.959-8.37,2.5-2.969,1.549-6.038,3.151-8.83,2.786-2.7-.352-5.214-2.653-7.642-4.877-2.5-2.286-5.075-4.65-7.621-4.65s-5.126,2.364-7.621,4.65c-2.428,2.225-4.938,4.525-7.642,4.877-2.789.363-5.86-1.238-8.829-2.786-2.951-1.539-6-3.13-8.371-2.5-2.435.651-4.307,3.592-6.117,6.436-1.776,2.789-3.612,5.674-6.15,6.726-2.579,1.07-5.947.326-9.2-.394s-6.637-1.466-8.778-.228c-2.165,1.253-3.206,4.567-4.213,7.771-.994,3.167-2.023,6.441-4.215,8.126s-5.641,1.844-8.966,1.99c-3.347.147-6.808.3-8.567,2.058s-1.911,5.22-2.058,8.566c-.146,3.325-.3,6.763-1.99,8.966s-4.96,3.221-8.126,4.216c-3.2,1.007-6.519,2.047-7.771,4.212-1.239,2.141-.493,5.515.228,8.778s1.464,6.624.394,9.2c-1.052,2.538-3.937,4.374-6.726,6.15-2.844,1.81-5.785,3.682-6.436,6.118-.633,2.369.958,5.42,2.5,8.371,1.549,2.969,3.15,6.039,2.786,8.829-.352,2.7-2.653,5.214-4.877,7.642-2.286,2.495-4.65,5.075-4.65,7.621s2.364,5.126,4.65,7.621c2.224,2.428,4.525,4.938,4.877,7.642.364,2.79-1.238,5.86-2.786,8.829-1.539,2.951-3.131,6-2.5,8.371.651,2.435,3.592,4.307,6.435,6.118,2.79,1.776,5.674,3.612,6.726,6.15,1.07,2.579.326,5.947-.394,9.2s-1.466,6.637-.228,8.778c1.253,2.165,4.567,3.206,7.771,4.212,3.167.995,6.441,2.023,8.126,4.216s1.844,5.641,1.99,8.965c.147,3.347.3,6.808,2.058,8.567s5.22,1.911,8.567,2.058c3.325.146,6.762.3,8.966,1.99s3.221,4.96,4.216,8.127c1.006,3.2,2.047,6.519,4.213,7.771,2.141,1.239,5.515.493,8.778-.228s6.624-1.464,9.2-.394c2.538,1.053,4.374,3.937,6.15,6.726,1.81,2.844,3.682,5.785,6.117,6.436,2.368.633,5.42-.959,8.371-2.5,2.969-1.549,6.04-3.149,8.829-2.786,2.7.353,5.214,2.653,7.642,4.877,2.495,2.286,5.075,4.65,7.621,4.65s5.126-2.364,7.621-4.65c2.428-2.224,4.938-4.525,7.642-4.877,2.792-.362,5.86,1.238,8.829,2.787,2.951,1.539,6,3.131,8.37,2.5,2.436-.651,4.307-3.592,6.118-6.436,1.776-2.789,3.611-5.673,6.149-6.726,2.58-1.069,5.948-.325,9.2.394s6.637,1.467,8.778.228c2.165-1.253,3.206-4.567,4.212-7.771.994-3.167,2.023-6.441,4.216-8.126s5.641-1.844,8.966-1.99c3.347-.147,6.807-.3,8.567-2.058.946-.947,1.517-2.456,1.8-4.752a.712.712,0,1,1,1.413.172c-.2,1.653-.648,4.032-2.2,5.587-2.15,2.15-5.892,2.315-9.51,2.473-3.1.136-6.314.277-8.161,1.7s-2.8,4.468-3.725,7.424c-1.088,3.465-2.213,7.047-4.858,8.577-2.62,1.516-6.269.71-9.8-.07-3.041-.672-6.187-1.368-8.351-.469-2.123.881-3.837,3.572-5.494,6.176-1.957,3.074-3.98,6.253-6.951,7.047-2.9.776-6.2-.946-9.4-2.611-2.774-1.447-5.643-2.94-7.987-2.637-2.258.294-4.6,2.441-6.864,4.516C837.042,618.6,834.255,621.151,831.155,621.151Z" transform="translate(-704.33 -367.5)"/>
  </g>
  <g id="Group_5178" data-name="Group 5178" transform="translate(232.39 68.092)">
    <path id="Path_5806" data-name="Path 5806" d="M1534.686,679.294a.712.712,0,0,1-.707-.641c-.2-2.019-1.428-4.368-2.613-6.64-1.549-2.969-3.15-6.039-2.787-8.83.353-2.7,2.653-5.214,4.878-7.642,2.286-2.5,4.65-5.076,4.65-7.621s-2.364-5.126-4.65-7.621c-2.224-2.428-4.525-4.938-4.878-7.642-.364-2.79,1.238-5.86,2.787-8.829,1.539-2.951,3.131-6,2.5-8.371-.651-2.435-3.592-4.307-6.436-6.117-2.789-1.776-5.674-3.612-6.726-6.15a.712.712,0,0,1,1.315-.545c.881,2.124,3.572,3.837,6.176,5.494,3.074,1.957,6.252,3.98,7.046,6.951.776,2.9-.946,6.2-2.611,9.4-1.447,2.773-2.943,5.642-2.637,7.987.294,2.258,2.44,4.6,4.515,6.865,2.47,2.7,5.024,5.484,5.024,8.583s-2.554,5.887-5.024,8.583c-2.075,2.265-4.221,4.607-4.515,6.865-.306,2.345,1.19,5.213,2.637,7.987,1.248,2.392,2.538,4.864,2.767,7.156a.711.711,0,0,1-.637.779A.687.687,0,0,1,1534.686,679.294Z" transform="translate(-1520.647 -602.207)" fill="#240448"/>
  </g>
  <g id="Group_5179" data-name="Group 5179" transform="translate(71.605 11.133)">
    <path id="Path_5807" data-name="Path 5807" d="M1015.453,554.84a9.936,9.936,0,0,1-6.795-2.676l-49.633-46.279a9.964,9.964,0,0,1,13.59-14.575l42.792,39.9,133.736-126.363a9.964,9.964,0,1,1,13.686,14.485L1022.3,552.119A9.938,9.938,0,0,1,1015.453,554.84Z" transform="translate(-955.857 -402.127)" fill="#fdb958"/>
  </g>
  <g id="Group_5181" data-name="Group 5181" transform="translate(65.77 0)">
    <g id="Group_5180" data-name="Group 5180" transform="translate(0 0)">
      <path id="Path_5808" data-name="Path 5808" d="M998.034,524.4a10.64,10.64,0,0,1-6.852-2.494L939.174,478.31a10.676,10.676,0,1,1,13.715-16.363L997.218,499.1l126.413-132.768a10.676,10.676,0,1,1,15.463,14.723L1005.772,521.082a10.635,10.635,0,0,1-7.168,3.3h0C998.414,524.392,998.224,524.4,998.034,524.4Zm.532-.726h0ZM946.039,460.88a9.249,9.249,0,0,0-5.951,16.339L992.1,520.812a9.228,9.228,0,0,0,6.432,2.149h0a9.22,9.22,0,0,0,6.212-2.859l133.322-140.026a9.252,9.252,0,0,0-13.4-12.76L997.789,500.568a.712.712,0,0,1-.973.055l-44.841-37.585A9.211,9.211,0,0,0,946.039,460.88Z" transform="translate(-935.361 -363.02)"/>
    </g>
  </g>
  <g id="Group_5182" data-name="Group 5182" transform="translate(75.299 172.376)">
    <path id="Path_5809" data-name="Path 5809" d="M978.243,968.526l2.908,5.892,6.5.945-4.7,4.586,1.111,6.476-5.815-3.057-5.815,3.057,1.111-6.476-4.7-4.586,6.5-.945Z" transform="translate(-968.834 -968.526)" fill="#fff"/>
    <path id="Path_5810" data-name="Path 5810" d="M1063.631,968.526l2.908,5.892,6.5.945-4.7,4.586,1.111,6.476-5.815-3.057-5.816,3.057,1.111-6.476-4.7-4.586,6.5-.945Z" transform="translate(-1029.913 -968.526)" fill="#fff"/>
    <path id="Path_5811" data-name="Path 5811" d="M1149.018,968.526l2.908,5.892,6.5.945-4.7,4.586,1.111,6.476-5.815-3.057-5.816,3.057,1.111-6.476-4.7-4.586,6.5-.945Z" transform="translate(-1090.992 -968.526)" fill="#fff"/>
    <path id="Path_5812" data-name="Path 5812" d="M1234.405,968.526l2.908,5.892,6.5.945-4.7,4.586,1.111,6.476-5.815-3.057-5.815,3.057,1.111-6.476-4.7-4.586,6.5-.945Z" transform="translate(-1152.071 -968.526)" fill="#fff"/>
    <path id="Path_5813" data-name="Path 5813" d="M1319.792,968.526l2.907,5.892,6.5.945-4.7,4.586,1.111,6.476-5.815-3.057-5.816,3.057,1.111-6.476-4.7-4.586,6.5-.945Z" transform="translate(-1213.151 -968.526)" fill="#fff"/>
  </g>
  <g id="Group_5187" data-name="Group 5187" transform="translate(117.617 66.001)">
    <path id="Path_5822" data-name="Path 5822" d="M1122.862,594.86l1.9,3.591,3.477,1.964-3.477,1.964-1.9,3.591-1.9-3.591-3.476-1.964,3.476-1.964Z" transform="translate(-1117.484 -594.86)" fill="#fff"/>
    <path id="Path_5823" data-name="Path 5823" d="M1156.843,621.725l2.889,5.456,5.282,2.984-5.282,2.984-2.889,5.456-2.889-5.456-5.282-2.984,5.282-2.984Z" transform="translate(-1139.793 -614.077)" fill="#fff"/>
  </g>
</svg>
