<svg id="Layer_1" data-name="Layer 1" xmlns="http://www.w3.org/2000/svg" viewBox="0 0 1000 1000"><defs><style>.cls-1{fill:#999892;}.cls-2{fill:#59b5d1;}.cls-3{fill:#4b556f;}.cls-4{fill:#1d2a4c;}.cls-5{fill:#e96424;}.cls-6{fill:#111c35;}.cls-7,.cls-9{fill:#101a30;}.cls-8{fill:#e96524;}.cls-9{font-size:29.92px;font-family:Poppins-Bold, Poppins;font-weight:700;}.cls-10{fill:#a7d8e7;}.cls-11{fill:#2a3f5e;}.cls-12{fill:#5fc3e1;}</style></defs><path class="cls-1" d="M818.39,767.06c15.47,57.69-665.46,57.69-649.94,0C153,709.37,833.91,709.37,818.39,767.06Z"/><rect class="cls-2" x="263.17" y="394.32" width="147.63" height="301.92"/><path class="cls-3" d="M405.49,389H268.38a14.15,14.15,0,0,0-13.91,14.38s0,288.07,0,288.08a14.16,14.16,0,0,0,13.87,14.41H405.49a14.17,14.17,0,0,0,13.89-14.41v-288A14.17,14.17,0,0,0,405.49,389Zm5.21,293.55c0,7.58-5.57,13.71-12.43,13.71H275.61c-6.88,0-12.44-6.13-12.44-13.71V414.32c0-15.45,5.56-16.2,12.44-16.2h24.61c1.76-.05,2.83,2.49,2.59,4.57,0,4.81,2.55,4.83,5.75,4.83H365.4c3.2,0,5.76,0,5.76-4.83-.24-2,.85-4.63,2.61-4.53h24.6c6.86,0,12.43,2,12.43,16.19Z"/><path class="cls-4" d="M380.25,466l-.35-2.58A47.12,47.12,0,0,0,376,450.21a45.84,45.84,0,0,0-41.16-26.32h-1.18a1.54,1.54,0,0,0-.52.06,31.62,31.62,0,0,0-3.36.24,7.8,7.8,0,0,0-1.11.12,19.77,19.77,0,0,0-3.18.6,3.13,3.13,0,0,0-.65.12,9.18,9.18,0,0,0-1.23.3,19.17,19.17,0,0,0-2.47.72l-1.18.36c-1.11.42-2.29.83-3.41,1.37a.86.86,0,0,0-.35.12c-.29.12-.59.3-.88.42a11.74,11.74,0,0,0-1.71.9c-.05,0-.11,0-.11.06l-1.59.89a9.75,9.75,0,0,0-1.65,1.08c-1.11.78-2.23,1.56-3.29,2.39a17.12,17.12,0,0,0-3,2.58,14,14,0,0,0-1.41,1.31,45.43,45.43,0,0,0-12.7,32.78,46.67,46.67,0,0,0,22.93,39.9c.82.48,1.59.9,2.41,1.32a22.16,22.16,0,0,0,2.71,1.25,11.22,11.22,0,0,0-.18,2,12.69,12.69,0,0,0,12.58,12.74,11.52,11.52,0,0,0,4.53-.9,11.6,11.6,0,0,0,4.59.9A12.7,12.7,0,0,0,352,514.82a11.22,11.22,0,0,0-.18-2c.83-.36,1.71-.77,2.53-1.13A46.1,46.1,0,0,0,373,495h17.7V466Z"/><path class="cls-5" d="M329.75,454.49h26a25.85,25.85,0,0,0-36.45-5.27,27.17,27.17,0,0,0-5.17,5.27A26.64,26.64,0,0,0,309.46,465H298.94a37.48,37.48,0,0,1,3.11-10.53A37,37,0,0,1,319.34,437a36.31,36.31,0,0,1,48.57,17.53A37.48,37.48,0,0,1,371,465H319.34Z"/><path class="cls-5" d="M381.78,475.54v10.53H367.91a37.13,37.13,0,0,1-17.35,17.53A35.73,35.73,0,0,1,335,507.13a36.48,36.48,0,0,1-32.93-21.06,37.48,37.48,0,0,1-3.11-10.53h10.52a26.64,26.64,0,0,0,4.71,10.53,25.9,25.9,0,0,0,41.62,0,26.54,26.54,0,0,0,4.65-10.53Z"/><path class="cls-5" d="M343,515.14a3.45,3.45,0,0,1-3.47,3.47,3.5,3.5,0,1,1,3.47-3.47Z"/><path class="cls-5" d="M333.86,515.14a3.45,3.45,0,0,1-3.47,3.47,3.5,3.5,0,0,1-3.47-3.29v-.18a3.51,3.51,0,0,1,3.47-3.53A3.47,3.47,0,0,1,333.86,515.14Z"/><rect class="cls-4" x="220.74" y="273.4" width="22.15" height="334.65"/><rect class="cls-4" x="743.01" y="273.4" width="22.15" height="334.65"/><rect class="cls-4" x="220.74" y="565.1" width="544.43" height="200.04"/><path class="cls-6" d="M765.16,726.6c-118.93-22.17-384.92-79-499.89-161.5H220.74v200H765.16Z"/><path class="cls-4" d="M770.27,586.73H215.63a19.37,19.37,0,0,1-19.17-19.56h0a19.37,19.37,0,0,1,19.17-19.56H770.27a19.38,19.38,0,0,1,19.18,19.56h0A19.38,19.38,0,0,1,770.27,586.73Z"/><path class="cls-4" d="M770.27,784.7H215.63a19.36,19.36,0,0,1-19.17-19.56h0a19.37,19.37,0,0,1,19.17-19.56H770.27a19.38,19.38,0,0,1,19.18,19.56h0A19.37,19.37,0,0,1,770.27,784.7Z"/><path class="cls-5" d="M663.07,563c.49-17.93,28.08-16.75,27.08,1.16C689.67,582,662.08,580.86,663.07,563Z"/><path class="cls-7" d="M736.34,684.37c-9.47-36-22.86-135.89-74.47-120.76-33.2,10.48-71.65,19.14-108.25,35.19l-.07-3c21.79-9.84,78.4-28.81,102-35.44,33.2-14.83,51.82,11.7,63.55,42.37,3,5.61,33.63,97.56,17.25,81.64Z"/><path class="cls-2" d="M736.34,684.37c-9.47-36-22.86-135.89-74.47-120.76-33.2,10.48-71.65,19.14-108.25,35.19l-.07-3c21.79-9.84,78.4-28.81,102-35.44,33.2-14.83,51.82,11.7,63.55,42.37,3,5.61,33.63,97.56,17.25,81.64Z"/><path class="cls-7" d="M694.51,780.17a21.64,21.64,0,0,1-8.07-1.62c-49-20.43-98.45-43.95-147.06-69.93-12.66-6.76-15.44-21-7.25-37.13,2.92-5.73,5.39-11.63,8-17.88,2.42-5.78,4.93-11.75,7.81-17.58,5.31-10.73,15.12-30.57,31.72-30.57a20.87,20.87,0,0,1,8.16,1.7c43.07,18.16,89.73,40.4,142.67,68,10.2,5.32,15,18,11.17,29.55l-.21.64-.31.59c-1.74,3.34-4,10.12-6.4,17.31-8.47,25.37-19,56.94-40.24,56.94Z"/><path class="cls-8" d="M517,694.86q86.06,46,172.47,82c28.67,11.57,42.68-62.33,52.44-81.09,3-9.09-.59-18.83-8.42-22.91C675.46,642.62,619.33,615.53,566,593c-16.74-7.06-28.78,17.4-34.72,29.39-6.78,13.71-11.78,28.26-18.7,41.9C507.35,674.66,504.57,688.2,517,694.86Z"/><polygon class="cls-7" points="672.56 684.41 653.38 668.33 676.61 659.42 672.56 684.41"/><path class="cls-7" d="M662.7,666l6.13-1.56c-32.15-68.65-136.68-6.42-75.59,58.9,22.83,19.68,54.36,9.16,65.09-3.41L654,715.37c-24,26.32-73.23,8.22-72.78-29.88C578.78,644.36,639.18,619.47,662.7,666Z"/><text class="cls-9" transform="matrix(0.89, 0.43, -0.42, 0.91, 589.73, 680.95)">24/7</text><path class="cls-4" d="M670.14,563.87c-.47,8.53,12.67,9.09,12.9.55C683.51,555.89,670.37,555.33,670.14,563.87Z"/><path class="cls-10" d="M563.56,353.9c-34.07,2.15-38.52-34.79-35.76-60.48h69.47C599.65,318.31,596.51,354.4,563.56,353.9Z"/><path class="cls-6" d="M494.09,353.9c-34.07,2.15-38.53-34.79-35.76-60.48H527.8C530.18,318.31,527,354.4,494.09,353.9Z"/><path class="cls-10" d="M424.61,353.9c-34.06,2.15-38.52-34.79-35.76-60.48h69.48C460.7,318.31,457.56,354.4,424.61,353.9Z"/><path class="cls-6" d="M355.14,353.9c-34.06,2.15-38.52-34.79-35.76-60.48h69.47C391.23,318.31,388.09,354.4,355.14,353.9Z"/><path class="cls-10" d="M285.67,353.9c-34.07,2.15-38.53-34.79-35.76-60.48h69.47C321.76,318.31,318.62,354.4,285.67,353.9Z"/><path class="cls-6" d="M771.82,353.9c-34.07,2.15-38.52-34.79-35.76-60.48h69.47C807.91,318.31,804.77,354.4,771.82,353.9Z"/><path class="cls-10" d="M702.35,353.9c-34.07,2.15-38.53-34.79-35.76-60.48h69.47C738.43,318.31,735.29,354.4,702.35,353.9Z"/><path class="cls-6" d="M633,353.9c-34.06,2.15-38.52-34.79-35.76-60.48h69.48C669.12,318.31,666,354.4,633,353.9Z"/><path class="cls-6" d="M216.19,353.9c-34.06,2.15-38.52-34.79-35.76-60.48h69.48C252.28,318.31,249.14,354.4,216.19,353.9Z"/><polygon class="cls-11" points="517.76 249.49 468.37 249.49 458.33 293.42 527.8 293.42 517.76 249.49"/><polygon class="cls-12" points="468.37 249.49 418.97 249.49 388.85 293.42 458.33 293.42 468.37 249.49"/><polygon class="cls-11" points="418.97 249.49 369.58 249.49 319.38 293.42 388.85 293.42 418.97 249.49"/><polygon class="cls-12" points="369.58 249.49 320.18 249.49 249.91 293.42 319.38 293.42 369.58 249.49"/><polygon class="cls-11" points="320.18 249.49 270.79 249.49 180.43 293.42 249.91 293.42 320.18 249.49"/><polygon class="cls-11" points="715.01 249.49 665.62 249.49 736.06 293.42 805.53 293.42 715.01 249.49"/><polygon class="cls-12" points="665.86 249.49 616.47 249.49 666.59 293.42 736.06 293.42 665.86 249.49"/><polygon class="cls-11" points="616.47 249.49 567.07 249.49 597.27 293.42 666.75 293.42 616.47 249.49"/><polygon class="cls-12" points="567.07 249.49 517.68 249.49 527.8 293.42 597.27 293.42 567.07 249.49"/></svg>