<svg id="Layer_1" data-name="Layer 1" xmlns="http://www.w3.org/2000/svg" viewBox="0 0 1000 1000"><defs><style>.cls-1{fill:#999892;}.cls-2{fill:#0d172b;}.cls-3{fill:#1d2a4c;}.cls-4{fill:#59b5d1;}.cls-5{fill:#4b556f;}.cls-6{fill:#111c35;}.cls-7{fill:#cc5627;}.cls-8{fill:#e96424;}</style></defs><ellipse class="cls-1" cx="552.51" cy="767.67" rx="334.51" ry="45.16"/><rect class="cls-2" x="288" y="212.91" width="529.02" height="606.46" rx="20" transform="translate(1068.65 -36.37) rotate(90)"/><rect class="cls-3" x="265.41" y="251.63" width="591.47" height="514.03" rx="12"/><path class="cls-4" d="M786.44,495.89H583c-27.86.24-28-18.73-26.55-30.69,0-8.67,11.94-15.77,26.55-15.77H786.44c14.61,0,26.55,7.1,26.55,15.77C814.24,477.15,814.46,496.14,786.44,495.89Z"/><path class="cls-4" d="M729.63,536.48c.44,30.14-46.91,30.14-46.46,0C682.73,506.34,730.07,506.34,729.63,536.48Z"/><path class="cls-4" d="M790.71,536.48c.44,30.14-46.91,30.14-46.46,0C743.8,506.34,791.15,506.34,790.71,536.48Z"/><path class="cls-5" d="M786.44,495.89H583c-27.86.24-28-18.73-26.55-30.69,0-8.67,11.94-15.77,26.55-15.77H786.44c14.61,0,26.55,7.1,26.55,15.77C814.24,477.15,814.46,496.14,786.44,495.89Z"/><path class="cls-5" d="M729.63,536.48c.44,30.14-46.91,30.14-46.46,0C682.73,506.34,730.07,506.34,729.63,536.48Z"/><path class="cls-5" d="M790.71,536.48c.44,30.14-46.91,30.14-46.46,0C743.8,506.34,791.15,506.34,790.71,536.48Z"/><path class="cls-4" d="M786.44,342.16H583c-27.86.24-28-18.73-26.55-30.68,0-8.68,11.94-15.78,26.55-15.78H786.44c14.61,0,26.55,7.1,26.55,15.78C814.24,323.43,814.46,342.41,786.44,342.16Z"/><path class="cls-4" d="M729.63,377.59c.44,30.14-46.91,30.14-46.46,0C682.73,347.45,730.07,347.45,729.63,377.59Z"/><path class="cls-4" d="M790.71,377.59c.44,30.14-46.91,30.14-46.46,0C743.8,347.45,791.15,347.45,790.71,377.59Z"/><path class="cls-4" d="M729.63,377.59c.44,30.14-46.91,30.14-46.46,0C682.73,347.45,730.07,347.45,729.63,377.59Z"/><path class="cls-4" d="M790.71,377.59c.44,30.14-46.91,30.14-46.46,0C743.8,347.45,791.15,347.45,790.71,377.59Z"/><path class="cls-6" d="M398.89,669.24c4.08,15.68-127.34,18.12-123.24,2.44C271.57,656,403,653.56,398.89,669.24Z"/><path class="cls-6" d="M573.26,753.38c2.81,16.37-138.71,16.37-135.9,0C434.56,737,576.08,737,573.26,753.38Z"/><path class="cls-7" d="M391.11,634.85c-2.9,12.91,19.23,7.6,18.71,19.36,1.59,12.37-.93,15.84-12.57,20.07-9.73,3.51-2.37,25.77,7.38,23,5.45-.93,14.19-4,17.46,2.28,7.78,9.74,7.56,13.69-.63,23.07-6.72,8,11.59,22.92,18.56,16l7-5.59c6.63-4.65,22.07,2.2,22,10.59-2.53,13.84.33,16.87,14.29,18.44,8,1.83,10.72-7.51,12.82-13.18,3.63-7.23,20.65-8.65,25-1.54,2.48,5.3,5.83,14.53,13.69,11.58,5.54-1.86,16-3.69,14.36-11.74l-1.4-8.38c-.53-8.14,13.93-17.15,21.18-13.22,4.92,3.29,12.78,9.63,18.19,3.35,21.59-18.27-6.08-17.36.32-32.5,5-11.29,9-13.56,21.24-11.63,9.86,1.64,15.7-21.37,5.76-23.78-12.44-3-14.31-6-13.89-18.43-1.13-7,8.08-9.6,12.87-12,9.72-3.51,2.37-25.77-7.38-23-5.45.93-14.19,4-17.46-2.28-7.78-9.74-7.57-13.7.63-23.07,5.12-6.58-3.19-12.27-7.66-16-10-8.53-17.26,12.42-27.51,6.35-11.44-4.52-14-7.55-11.52-19.91,1.69-10-22.16-14-24.75-4.75-2.09,5.27-4,13.59-11.25,13.3-12.08,1.61-16.33.57-20.64-11.37-3.57-9.15-26.74-1.57-24.32,7.78,3.46,12.48.6,15.35-10.11,21.22-15.11,7.5-17.13-18.76-34,3.46-6,5.89,1.33,12.52,5.25,16.87,4.8,6.73-3.55,21.36-11.79,21.34l-8.9-.52M531.8,635.75c21.85,32.87-32.2,65.42-53,33.41C457,636.28,511,603.73,531.8,635.75Zm-56.18,79.19c-7,9.81-18-1.11-24.53-6.16-25.85-22.54-32.14-59.44-15.3-89.73,5.3-10.26,19.23,1.09,25.88,3.53,13.87,8.55-19.48,34.3,12.25,62.48C492.42,695.28,484.1,701,475.62,714.94Zm108.59-67.33c2.19,42.35-36.42,79.68-78.63,80.07-11.87.71-7.63-16.68-8.39-23.49,1.18-16.57,51.57-.39,53.81-54.56-.65-11.42,17.82-8.25,24.64-9.43A7.88,7.88,0,0,1,584.21,647.61Zm-13.05-38.48c6.69,9.43-11.34,15.71-16.53,20-15.13,8-25.13-37.91-72.21-13.61A8.4,8.4,0,0,1,471.05,613c-2.89-6.17-15.95-18.58-5.46-24.35C500.59,567.79,548.36,576,571.16,609.13Z"/><path class="cls-8" d="M458.55,609.06c18.95-18.39-22.24-34.1-8.37-53.19,12.48-23,16.3-25.71,42.31-20.33,16.05,2.84,19.63-16.71,22.65-28a15.82,15.82,0,0,0-8.94-18.95c-25.11-8.91-26.66-13.45-25-39.12-1.48-14.12,16.45-18.09,26.28-22.19,15.38-5.5,8.59-24.15,5.51-35.41a16,16,0,0,0-17.35-11.94l-17.29,1.89c-14.66,2.52-33.5-30.55-23.35-41.91,7.13-8.82,21.74-23.35,9.73-34.5-8.27-8.31-20.15-24.3-33.17-14.06-20.41,17.18-25.4,15.95-46.86,1.95-26.69-19,20.9-45.88-34.37-55.66-25.47-7-18.89,36.43-42.46,34.12-26.12.85-30.41-.79-38.69-26.1-5.51-15.26-24.52-8.3-35.76-5.25a16.07,16.07,0,0,0-12.16,17.23l1.81,17.09C225.43,289.36,192,307.94,180.6,298c-9-7.14-23.56-21.33-34.82-9.43l-12.53,12c-12.15,10.91,1.2,25.39,8.28,34.65,9.45,11.49-10.19,44.25-25.08,41.26l-17.14-2.38c-16-2.85-19.62,16.71-22.65,28-5.07,15.51,14.06,21.38,24.8,25.86,14,5.14,13.53,43.15-.94,47.94-10.6,4.13-30.63,9.54-25.89,25.19,2.94,11.29,5.11,31.08,21.53,28.63,10.92-1.13,28-5.79,33.59,7.26,13.79,22.26,14,26.65-3.72,46.29-10.61,12.41,4.82,25.16,13.11,33.3,11,12,25.7-1.35,35.07-8.39,11.44-9.35,44.6,9.62,41.55,24.59l-2.5,17c-3,16,17,19.34,28.21,22.25a16.27,16.27,0,0,0,19.21-8.94c9.11-25.08,14.07-26.44,39.67-25,14.2-1.55,18.15,16,22.28,25.88,5.5,15.26,24.52,8.3,35.75,5.26a16.08,16.08,0,0,0,12.17-17.23c-1.12-11-5.65-27.74,7.52-33.28,22.29-13.58,26.94-14.21,46.76,3.42m-189.7-167.9c1.49-78.33,121.79-78,121.54,1.05C355.18,533.68,234.88,533.31,235.13,454.31Zm177.46-73.05c22.37-8.94,27.46,21.79,32.3,37.15,16.22,66.37-14.68,135.77-75.14,168.78-20,11.6-29.49-23-37.36-34.18-14.71-28.46,68.2-33.89,49.76-119.26C364.38,394.13,382.2,397.26,412.59,381.26Zm-247.91-4.15c42-72.3,144.47-96.45,214.24-50.1,19.81,11.89-6.6,36.87-12.67,49-14.82,22.76-46.32-21.59-91.18-6.38-46.78,7.58-53.55,59.38-77.33,45.78C187.12,407.12,152.06,396.62,164.68,377.11Zm-21.87,79.44c-.39-23,35-14.42,48.53-15.88,19.75.48,14.6,21.85,18.31,35.25,22.94,83.27,97.53,50.9,97.18,83.06-2.26,13.42,4.89,48.84-18.3,47.23C209.1,603.87,141.91,535.82,142.81,456.55Z"/><path class="cls-3" d="M360.75,440.11c-3.18-48.47-60.52-79.6-102.86-55.78-.09,0-.18,0-.18.09-51.54,24.51-45.85,107.28,6.8,126.62-2.77,14.24,12.75,26.78,26.13,21,13.37,5.74,29-6.74,26.21-21a71,71,0,0,0,32.74-26.94H376.9v-44Z"/><path class="cls-8" d="M282.84,422.64H323c-18.8-27.17-66-17.08-71.47,16H235.31c8.4-63.08,103.11-62.41,111.2,0H266.79Z"/><path class="cls-8" d="M363.11,454.57v16h-21.4c-21.53,49.4-100.8,37.2-106.4-16h16.24c7.11,41.48,71.49,41.73,78.64,0Z"/><path class="cls-8" d="M303.25,514.62c.12,6.81-10.77,6.83-10.7,0S303.38,507.67,303.25,514.62Z"/><path class="cls-8" d="M289.19,514.62c.12,6.81-10.77,6.84-10.7,0S289.33,507.67,289.19,514.62Z"/></svg>