<svg id="Layer_1" data-name="Layer 1" xmlns="http://www.w3.org/2000/svg" viewBox="0 0 1000 1000"><defs><style>.cls-1{fill:#999892;}.cls-2{fill:#0f1930;opacity:0.5;}.cls-3{fill:#1d2a4c;}.cls-4{fill:#306875;opacity:0.8;}.cls-5{fill:#e96524;}.cls-6{fill:#59b5d1;}.cls-7{fill:#4b556f;}.cls-8{fill:#eb7539;}.cls-9{fill:#a7d8e7;}</style></defs><path class="cls-1" d="M718.61,786.61c10.1,34.13-442.6,34.13-432.47,0C276,752.49,728.75,752.49,718.61,786.61Z"/><path class="cls-2" d="M468.48,362.11c2.5-38.58,24.58-82.22,3.38-118.2-15.34-19.09-32.17-49.38,8.27-43.83,14.74,1.64,32-3.14,45.47,3.32,15.86,28.77-38.71,35.42-16.61,112.29.62,3.95,4.81,46.7,5.53,46.67,4-.16,9.56-.31,13.51-.46.38-37.3-19.53-75.9-5.19-112,11-16.5,33.65-48.54-.19-61.14h-60c-40.79,13.47-5.24,49,2.88,73,3.22,33.09-8.11,67.4-11,100.45C459,362.62,468.48,362.11,468.48,362.11Z"/><path class="cls-3" d="M661.59,793.13l-318-1.58c-28-.14-61.54-27-62.34-56.88L283.16,413c-.84-31.1,22.54-56.82,51.74-56.92L661.68,355c28.73-.09,52.07,24.71,52.07,55.33V737.8C713.75,768.46,690.36,793.27,661.59,793.13Z"/><path class="cls-4" d="M422.21,387.84c-5.2,25.91-14,53.4,20.57,71.19,7.53,3.47,99.9,1.23,99.9,1.23,14.34.59,24.36-18.66,29-31-7.7,17.8-13.88,18.22-26,20.53-32.17.3-64.14-.77-96.33-.3C416.37,450.42,422.09,412.49,422.21,387.84Z"/><path class="cls-5" d="M539.54,453.66H454.63a33.29,33.29,0,0,1-33.29-33.3c-1.16-26.31-2.94-64.2,33.3-64.78h84.9c36.18.59,34.49,38.49,33.29,64.79A33.29,33.29,0,0,1,539.54,453.66Z"/><path class="cls-6" d="M477.38,388.85c.23,15.91-24.75,15.91-24.52,0C452.63,373,477.62,373,477.38,388.85Z"/><path class="cls-6" d="M550.94,388.85c.24,15.91-24.75,15.91-24.52,0C526.19,373,551.18,373,550.94,388.85Z"/><path class="cls-6" d="M477.38,388.85c.23,15.91-24.75,15.91-24.52,0C452.63,373,477.62,373,477.38,388.85Z"/><path class="cls-6" d="M550.94,388.85c.24,15.91-24.75,15.91-24.52,0C526.19,373,551.18,373,550.94,388.85Z"/><path class="cls-3" d="M473.09,355.57c2.5-38.58,24.58-82.22,3.38-118.2-15.34-19.1-32.17-49.38,8.27-43.83,14.74,1.64,32-3.14,45.47,3.32,15.86,28.77-38.71,35.42-16.61,112.28.62,3.95,4.81,46.7,5.53,46.68,3.94-.16,9.56-.31,13.5-.47.39-37.29-19.53-75.89-5.18-112,12.77-19.54,32.13-49.14-.2-61.14h-60c-40.79,13.47-5.24,49,2.88,72.95,3.22,33.08-8.12,67.39-10.95,100.44C463.6,356.08,473.09,355.57,473.09,355.57Z"/><path class="cls-4" d="M544.66,378.15s-24.91-2-12.27,21.22C522.78,396,524.58,370.31,544.66,378.15Z"/><path class="cls-4" d="M471.09,378.15s-24.91-2-12.28,21.22C449.21,396,451,370.31,471.09,378.15Z"/><path class="cls-7" d="M447.86,551.67H349.52c-13.46.19-13.52-15.24-12.83-25a12.86,12.86,0,0,1,12.83-12.83h98.34a12.86,12.86,0,0,1,12.83,12.83C461.3,536.42,461.4,551.87,447.86,551.67Z"/><path class="cls-8" d="M447.86,647.31H349.52c-13.46.2-13.52-15.24-12.83-25a12.87,12.87,0,0,1,12.83-12.84h98.34a12.87,12.87,0,0,1,12.83,12.84C461.3,632.07,461.4,647.51,447.86,647.31Z"/><path class="cls-6" d="M447.47,732.21H349.13c-13.47.19-13.52-15.24-12.83-25a12.87,12.87,0,0,1,12.83-12.83h98.34a12.87,12.87,0,0,1,12.83,12.83C460.9,717,461,732.41,447.47,732.21Z"/><path class="cls-7" d="M544.37,532.77c.36,24.52-38.16,24.52-37.8,0C506.21,508.25,544.73,508.25,544.37,532.77Z"/><path class="cls-7" d="M594.06,532.77c.36,24.52-38.16,24.52-37.8,0C555.9,508.25,594.42,508.25,594.06,532.77Z"/><path class="cls-7" d="M641.57,532.77c.36,24.52-38.16,24.52-37.8,0C603.41,508.25,641.93,508.25,641.57,532.77Z"/><path class="cls-6" d="M543.79,713.31c.36,24.52-38.16,24.52-37.8,0C505.63,688.79,544.15,688.79,543.79,713.31Z"/><path class="cls-6" d="M593.48,713.31c.36,24.52-38.16,24.52-37.8,0C555.32,688.79,593.84,688.79,593.48,713.31Z"/><path class="cls-6" d="M641,713.31c.36,24.52-38.16,24.52-37.8,0C602.83,688.79,641.35,688.79,641,713.31Z"/><path class="cls-6" d="M543.79,713.31c.36,24.52-38.16,24.52-37.8,0C505.63,688.79,544.15,688.79,543.79,713.31Z"/><path class="cls-6" d="M593.48,713.31c.36,24.52-38.16,24.52-37.8,0C555.32,688.79,593.84,688.79,593.48,713.31Z"/><path class="cls-6" d="M641,713.31c.36,24.52-38.16,24.52-37.8,0C602.83,688.79,641.35,688.79,641,713.31Z"/><path class="cls-9" d="M544,625.72c.36,24.52-38.16,24.52-37.8,0C505.82,601.2,544.34,601.2,544,625.72Z"/><path class="cls-9" d="M593.67,625.72c.36,24.52-38.16,24.52-37.8,0C555.51,601.2,594,601.2,593.67,625.72Z"/><path class="cls-9" d="M641.18,625.72c.36,24.52-38.16,24.52-37.8,0C603,601.2,641.54,601.2,641.18,625.72Z"/><path class="cls-8" d="M544,625.72c.36,24.52-38.16,24.52-37.8,0C505.82,601.2,544.34,601.2,544,625.72Z"/><path class="cls-8" d="M593.67,625.72c.36,24.52-38.16,24.52-37.8,0C555.51,601.2,594,601.2,593.67,625.72Z"/><path class="cls-8" d="M641.18,625.72c.36,24.52-38.16,24.52-37.8,0C603,601.2,641.54,601.2,641.18,625.72Z"/></svg>