<svg id="Layer_1" data-name="Layer 1" xmlns="http://www.w3.org/2000/svg" viewBox="0 0 1000 1000"><defs><style>.cls-1{fill:#999892;}.cls-2{fill:#5fc3e1;}.cls-3{fill:#1d2a4c;}.cls-4{fill:#a7d8e7;}.cls-5{fill:#e96524;}.cls-6{fill:#141f38;}.cls-7{fill:#4cb4cc;}</style></defs><ellipse class="cls-1" cx="516.9" cy="738.84" rx="293.43" ry="35.9"/><path class="cls-2" d="M635.86,748.54l-313.79.26c-13.89,0-29.09-.28-39.62-6.23-12.76-7.2-13.73-19.73-13.73-30.78l-.06-466.89c0-8.59,0-17.47,4.44-25.67,1.6-3,4.81-5.17,8.1-7.4a37.58,37.58,0,0,1,12.61-5c9.08-2.08,19-2.4,28.49-2.4l380.59,0c18.26,0,39.5,1,49.87,10.85,7.64,7.28,5,25.74,5,25.74l-8.12,430.2-2.89,48.49s11.45,16.69,3.74,23.88c-4.08,3.8-27.64,4.88-33.39,4.89Z"/><rect class="cls-3" x="280.03" y="204.46" width="473.75" height="544.27" rx="6.59"/><rect class="cls-4" x="334.64" y="429.8" width="50.35" height="22.99" rx="2.74"/><rect class="cls-4" x="334.64" y="535.57" width="50.35" height="22.99" rx="2.74"/><rect class="cls-4" x="334.64" y="641.33" width="50.35" height="22.99" rx="2.74"/><rect class="cls-4" x="491.73" y="429.8" width="50.35" height="22.99" rx="2.74"/><rect class="cls-4" x="491.73" y="535.57" width="50.35" height="22.99" rx="2.74"/><rect class="cls-4" x="491.73" y="641.33" width="50.35" height="22.99" rx="2.74"/><circle class="cls-5" cx="673.99" cy="309.42" r="20.55" transform="translate(217.99 894.29) rotate(-76.72)"/><circle class="cls-5" cx="359.82" cy="304" r="20.55" transform="translate(-18.72 584.35) rotate(-76.72)"/><path class="cls-5" d="M359.82,331.59h0a38.13,38.13,0,0,0-38.13,38.13h0a10,10,0,0,0,10,10H388a10,10,0,0,0,10-10h0A38.13,38.13,0,0,0,359.82,331.59Z"/><circle class="cls-5" cx="516.9" cy="304" r="20.55" transform="translate(102.27 737.24) rotate(-76.72)"/><path class="cls-5" d="M516.9,331.59h0a38.13,38.13,0,0,0-38.12,38.13h0a10,10,0,0,0,10,10H545a10,10,0,0,0,10-10h0A38.13,38.13,0,0,0,516.9,331.59Z"/><path class="cls-5" d="M674,337h0a38.13,38.13,0,0,0-38.13,38.13h0a10,10,0,0,0,10,10h56.25a10,10,0,0,0,10-10h0A38.13,38.13,0,0,0,674,337Z"/><rect class="cls-4" x="648.81" y="435.22" width="50.35" height="22.99" rx="2.74"/><rect class="cls-4" x="648.81" y="540.99" width="50.35" height="22.99" rx="2.74"/><rect class="cls-4" x="648.81" y="646.75" width="50.35" height="22.99" rx="2.74"/><path class="cls-6" d="M363.82,205.92c-.14,0,0,37.11.84,40.22,3.48,12.8,17.93,32.32,32,32.36l71,.21s18.31-12.62,20.06-24.82-44.37,4.24-44.37,4.24l-37.1-15.82-12.85-36.1Z"/><rect class="cls-2" x="381.56" y="155.97" width="107.9" height="107.9" rx="17.6"/><path class="cls-7" d="M461.66,181l-38.78,56.46,31.35,26.46h17.63a17.6,17.6,0,0,0,17.6-17.6V204Z"/><path class="cls-5" d="M429.05,240.72a7.83,7.83,0,0,1-5.54-2.29l-15-15a7.83,7.83,0,0,1,11.07-11.08l7.93,7.93,22.74-37.43A7.82,7.82,0,1,1,463.64,191l-27.9,46a7.86,7.86,0,0,1-5.75,3.71A7.6,7.6,0,0,1,429.05,240.72Z"/></svg>