<svg id="Layer_1" data-name="Layer 1" xmlns="http://www.w3.org/2000/svg" viewBox="0 0 1000 1000"><defs><style>.cls-1{fill:#4b556f;}.cls-2{fill:#e96524;}.cls-3{fill:#172844;}.cls-12,.cls-4{opacity:0.2;}.cls-5{fill:#fff;}.cls-6{fill:#1c164b;}.cls-7{fill:#292561;}.cls-8{fill:#999892;}.cls-12,.cls-13,.cls-9{fill:#172744;}.cls-9{opacity:0.3;}.cls-10{fill:#a2d7e6;stroke:#296684;stroke-width:3px;}.cls-10,.cls-11{stroke-miterlimit:10;}.cls-11{fill:#5fc3e1;stroke:#7bc9db;stroke-width:4px;}.cls-14{fill:#1d2a4c;}.cls-15{fill:#59b5d1;}</style></defs><path class="cls-1" d="M669.73,232.86l-136-44.76c-22.42-7.38-47,6.06-54.88,30L373,539.75c-7.07,21.5,1.69,44.15,19.75,53.92a40,40,0,0,0,6.59,2.83l136,44.76c1.07.35,2.15.66,3.22.91,21.51,5.16,44.15-8.11,51.66-30.93L696.06,289.61c7.51-22.82-2.83-47-23.2-55.57C671.85,233.61,670.8,233.21,669.73,232.86Z"/><rect class="cls-2" x="442.87" y="413.63" width="321.43" height="32.32" rx="1.57" transform="translate(6.67 868.79) rotate(-71.79)"/><path class="cls-3" d="M533.57,529.8a9.83,9.83,0,0,0-3.06-.59,5.6,5.6,0,0,0-2.39.45,4.65,4.65,0,0,0-1.76,1.38,6.93,6.93,0,0,0-1.14,2.16,7,7,0,0,0-.4,2.41,4.66,4.66,0,0,0,.55,2.17,5.76,5.76,0,0,0,1.62,1.83,9.88,9.88,0,0,0,2.78,1.41l2.63.89a9.78,9.78,0,0,0,3.05.59,5.46,5.46,0,0,0,2.39-.47,4.59,4.59,0,0,0,1.75-1.37,6.93,6.93,0,0,0,1.14-2.16,7,7,0,0,0,.41-2.41,4.74,4.74,0,0,0-.55-2.16,5.79,5.79,0,0,0-1.62-1.84,9.81,9.81,0,0,0-2.77-1.4ZM532.06,533l3.44,1.17a7.74,7.74,0,0,1,1.64.73,3,3,0,0,1,1,.83,1.83,1.83,0,0,1,.36.94,2.48,2.48,0,0,1-.15,1,2.6,2.6,0,0,1-.51.91,1.92,1.92,0,0,1-.86.52,3.31,3.31,0,0,1-1.25.07,8.87,8.87,0,0,1-1.75-.42l-3.44-1.17a8.73,8.73,0,0,1-1.66-.75,3.56,3.56,0,0,1-1-.83,1.85,1.85,0,0,1-.37-.94,2.48,2.48,0,0,1,.15-1.05,2.66,2.66,0,0,1,.52-.92,1.82,1.82,0,0,1,.86-.51,3.49,3.49,0,0,1,1.28-.06A7.8,7.8,0,0,1,532.06,533Z"/><path class="cls-3" d="M538.1,516.39a10.08,10.08,0,0,0-3.06-.59,5.79,5.79,0,0,0-2.39.46,4.6,4.6,0,0,0-1.75,1.38,7.16,7.16,0,0,0-1.15,2.16,7.25,7.25,0,0,0-.4,2.41,4.7,4.7,0,0,0,.56,2.17,5.6,5.6,0,0,0,1.61,1.83,9.88,9.88,0,0,0,2.78,1.41l2.63.89a9.78,9.78,0,0,0,3.06.59,5.63,5.63,0,0,0,2.39-.47,4.56,4.56,0,0,0,1.74-1.37,7.56,7.56,0,0,0,1.55-4.57,4.66,4.66,0,0,0-.55-2.17,5.6,5.6,0,0,0-1.61-1.83,9.62,9.62,0,0,0-2.78-1.4Zm-1.51,3.16,3.45,1.18a8.55,8.55,0,0,1,1.64.73,3.29,3.29,0,0,1,1,.83,1.92,1.92,0,0,1,.36.94,2.76,2.76,0,0,1-.15,1,2.64,2.64,0,0,1-.52.92,1.79,1.79,0,0,1-.85.51,3.15,3.15,0,0,1-1.26.08,8,8,0,0,1-1.74-.42L535,524.19a8.48,8.48,0,0,1-1.66-.74,3.45,3.45,0,0,1-1-.85,1.73,1.73,0,0,1-.37-.93,2.61,2.61,0,0,1,.14-1,2.66,2.66,0,0,1,.52-.92,1.82,1.82,0,0,1,.86-.51,3.49,3.49,0,0,1,1.28-.07A8.89,8.89,0,0,1,536.59,519.55Z"/><path class="cls-3" d="M542.64,503l-.45-.13a9.21,9.21,0,0,0-2.61-.46,5.87,5.87,0,0,0-2.4.46,4.75,4.75,0,0,0-1.75,1.37,7.16,7.16,0,0,0-1.14,2.16,7.36,7.36,0,0,0-.41,2.42,5,5,0,0,0,.43,1.91l.13.26a5.76,5.76,0,0,0,1.62,1.83,9.62,9.62,0,0,0,2.78,1.4l2.62.9a10.19,10.19,0,0,0,3.06.59,5.49,5.49,0,0,0,2.39-.47,4.77,4.77,0,0,0,1.75-1.37,6.93,6.93,0,0,0,1.14-2.16,7.31,7.31,0,0,0,.41-2.41,4.83,4.83,0,0,0-.56-2.17,5.6,5.6,0,0,0-1.61-1.83,9.62,9.62,0,0,0-2.78-1.4Zm-3.19,2.75a8.3,8.3,0,0,1,1.67.42l3.45,1.17a8.28,8.28,0,0,1,1.64.73,3.16,3.16,0,0,1,.95.83,1.92,1.92,0,0,1,.36.94,2.63,2.63,0,0,1-.14,1.05,2.78,2.78,0,0,1-.52.91,2,2,0,0,1-.85.52,3.38,3.38,0,0,1-1.26.07A8,8,0,0,1,543,512l-3.45-1.17a7.9,7.9,0,0,1-1.66-.75,3.28,3.28,0,0,1-1-.84,1.58,1.58,0,0,1-.31-.64,1.07,1.07,0,0,1-.06-.3,2.77,2.77,0,0,1,.14-1,2.68,2.68,0,0,1,.53-.92,1.67,1.67,0,0,1,.86-.51,3.25,3.25,0,0,1,1.27-.06Z"/><path class="cls-3" d="M547.17,489.59a10.08,10.08,0,0,0-3.06-.59,5.79,5.79,0,0,0-2.39.46,4.7,4.7,0,0,0-1.76,1.37,7.32,7.32,0,0,0-1.14,2.17,7,7,0,0,0-.4,2.41,4.69,4.69,0,0,0,.55,2.17,5.76,5.76,0,0,0,1.62,1.83,9.82,9.82,0,0,0,2.79,1.41l.51.17,2.11.72a10.08,10.08,0,0,0,3.06.59,5.56,5.56,0,0,0,2.38-.47,4.7,4.7,0,0,0,1.76-1.37,7.37,7.37,0,0,0,1.13-2.16,7,7,0,0,0,.41-2.41,4.82,4.82,0,0,0-.55-2.17,5.72,5.72,0,0,0-1.61-1.83,6.67,6.67,0,0,0-.68-.45,10.22,10.22,0,0,0-2.1-.95Zm-1.51,3.16,3.44,1.18a6.25,6.25,0,0,1,.62.23h0a7.52,7.52,0,0,1,1,.49,3.39,3.39,0,0,1,.94.83,1.86,1.86,0,0,1,.36.95,2.78,2.78,0,0,1-.66,2,1.79,1.79,0,0,1-.85.51,3.36,3.36,0,0,1-1.26.08,8,8,0,0,1-1.74-.42l-1.16-.4-2.29-.78a8.17,8.17,0,0,1-1.66-.74,3.36,3.36,0,0,1-1-.84,1.86,1.86,0,0,1-.38-.94,2.58,2.58,0,0,1,.15-1,2.73,2.73,0,0,1,.52-.92,1.83,1.83,0,0,1,.86-.52,3.52,3.52,0,0,1,1.28-.05A8,8,0,0,1,545.66,492.75Z"/><path class="cls-3" d="M555.71,463.59a9.5,9.5,0,0,0-3.05-.59,5.68,5.68,0,0,0-2.4.45,4.6,4.6,0,0,0-1.75,1.38,6.93,6.93,0,0,0-1.14,2.16,7.06,7.06,0,0,0-.41,2.41,4.83,4.83,0,0,0,.56,2.17,5.64,5.64,0,0,0,1.62,1.83,9.49,9.49,0,0,0,2.78,1.4l2.62.9a10.19,10.19,0,0,0,3.06.59,5.49,5.49,0,0,0,2.39-.47,4.67,4.67,0,0,0,1.75-1.37,7.37,7.37,0,0,0,1.14-2.16,7,7,0,0,0,.4-2.41,4.73,4.73,0,0,0-.54-2.16,5.68,5.68,0,0,0-1.62-1.84,9.62,9.62,0,0,0-2.78-1.4Zm-1.5,3.16,3.44,1.17a7.74,7.74,0,0,1,1.64.73,3.16,3.16,0,0,1,1,.83,1.81,1.81,0,0,1,.35.94,2.63,2.63,0,0,1-.14,1.05,2.47,2.47,0,0,1-.52.91,1.88,1.88,0,0,1-.85.52,3.31,3.31,0,0,1-1.25.07,8.55,8.55,0,0,1-1.75-.42l-3.44-1.17a7.9,7.9,0,0,1-1.66-.75,3.28,3.28,0,0,1-1-.84,1.7,1.7,0,0,1-.37-.93,2.61,2.61,0,0,1,.14-1.05,2.83,2.83,0,0,1,.52-.92,1.79,1.79,0,0,1,.86-.51,3.3,3.3,0,0,1,1.28-.06A8.31,8.31,0,0,1,554.21,466.75Z"/><path class="cls-3" d="M560.25,450.18a10.08,10.08,0,0,0-3.06-.59,5.79,5.79,0,0,0-2.39.46,4.52,4.52,0,0,0-1.75,1.38A7.56,7.56,0,0,0,551.5,456a4.82,4.82,0,0,0,.55,2.17,5.76,5.76,0,0,0,1.62,1.83,9.88,9.88,0,0,0,2.78,1.41l2.63.89a9.78,9.78,0,0,0,3,.59,5.65,5.65,0,0,0,2.4-.47,4.64,4.64,0,0,0,1.74-1.37,7.56,7.56,0,0,0,1.55-4.57,4.82,4.82,0,0,0-.55-2.17,5.64,5.64,0,0,0-1.62-1.83,9.37,9.37,0,0,0-2.78-1.4Zm-1.51,3.16,3.45,1.18a8.82,8.82,0,0,1,1.63.72,3.06,3.06,0,0,1,.95.84,1.8,1.8,0,0,1,.36.94,2.56,2.56,0,0,1-.14,1,2.64,2.64,0,0,1-.52.92,1.79,1.79,0,0,1-.85.51,3.36,3.36,0,0,1-1.26.08,8,8,0,0,1-1.74-.42L557.17,458a8.4,8.4,0,0,1-1.65-.73,3.51,3.51,0,0,1-1-.85,1.81,1.81,0,0,1-.37-.93,2.62,2.62,0,0,1,.15-1,2.57,2.57,0,0,1,.52-.92,1.77,1.77,0,0,1,.86-.51,3.47,3.47,0,0,1,1.28-.07A9.06,9.06,0,0,1,558.74,453.34Z"/><path class="cls-3" d="M564.78,436.78a10.07,10.07,0,0,0-3-.59,5.65,5.65,0,0,0-2.4.46,4.67,4.67,0,0,0-1.75,1.37A7.74,7.74,0,0,0,556,442.6a4.63,4.63,0,0,0,.56,2.16,5.68,5.68,0,0,0,1.62,1.84A9.43,9.43,0,0,0,561,448l2.63.9a10.13,10.13,0,0,0,3.06.59,5.63,5.63,0,0,0,2.39-.47,4.77,4.77,0,0,0,1.75-1.37,6.93,6.93,0,0,0,1.14-2.16,7,7,0,0,0,.4-2.41,4.66,4.66,0,0,0-.55-2.17,5.6,5.6,0,0,0-1.61-1.83,9.62,9.62,0,0,0-2.78-1.4Zm-1.51,3.16,3.45,1.17a9.18,9.18,0,0,1,1.64.74,3.16,3.16,0,0,1,.95.83,1.92,1.92,0,0,1,.36.94,2.58,2.58,0,0,1-.15,1,2.71,2.71,0,0,1-.51.92,1.87,1.87,0,0,1-.86.51,3.13,3.13,0,0,1-1.25.08,7.49,7.49,0,0,1-1.75-.43l-3.44-1.16a7.9,7.9,0,0,1-1.66-.75,3.28,3.28,0,0,1-1-.84,1.78,1.78,0,0,1-.37-.94,2.78,2.78,0,0,1,.66-2,1.66,1.66,0,0,1,.87-.51,3.24,3.24,0,0,1,1.27-.06A8.15,8.15,0,0,1,563.27,439.94Z"/><path class="cls-3" d="M569.32,423.38a9.83,9.83,0,0,0-3.06-.59,5.87,5.87,0,0,0-2.4.46,4.67,4.67,0,0,0-1.75,1.37,7.16,7.16,0,0,0-1.14,2.16,7.62,7.62,0,0,0-.36,1.56,8.24,8.24,0,0,0-.05.85,4.83,4.83,0,0,0,.56,2.18,5.76,5.76,0,0,0,1.62,1.83,9.62,9.62,0,0,0,2.78,1.4l2.62.9a10.19,10.19,0,0,0,3.06.59,5.6,5.6,0,0,0,2.39-.47,4.87,4.87,0,0,0,1-.61,5.47,5.47,0,0,0,.75-.77,7,7,0,0,0,1.14-2.15,7.31,7.31,0,0,0,.41-2.41,4.78,4.78,0,0,0-.55-2.17,5.84,5.84,0,0,0-1.61-1.83,10,10,0,0,0-2.79-1.41Zm-1.51,3.16,3.44,1.18a8.31,8.31,0,0,1,1.64.72,3.18,3.18,0,0,1,1,.84,1.89,1.89,0,0,1,.36.94,2.82,2.82,0,0,1-.14,1,2.63,2.63,0,0,1-.52.9,1.87,1.87,0,0,1-.85.53,3,3,0,0,1-1,.09l-.27,0a8.71,8.71,0,0,1-1.75-.42l-3.44-1.18a8.48,8.48,0,0,1-1.66-.74,3.56,3.56,0,0,1-1-.83,1.8,1.8,0,0,1-.33-.74,1.55,1.55,0,0,1,0-.21,2.65,2.65,0,0,1,.15-1,2.47,2.47,0,0,1,.52-.91,1.67,1.67,0,0,1,.86-.51,3.24,3.24,0,0,1,1.27-.06A8.22,8.22,0,0,1,567.81,426.54Z"/><path class="cls-3" d="M577.28,399.17a9.74,9.74,0,0,0-3.06-.58,5.63,5.63,0,0,0-2.39.45,4.8,4.8,0,0,0-1.75,1.38,7.56,7.56,0,0,0-1.55,4.57,4.67,4.67,0,0,0,.56,2.17,5.52,5.52,0,0,0,1.62,1.83,9.62,9.62,0,0,0,2.78,1.41l2.62.89a9.78,9.78,0,0,0,3.06.59,5.49,5.49,0,0,0,2.39-.47,4.67,4.67,0,0,0,1.75-1.37,7.14,7.14,0,0,0,1.14-2.16,7,7,0,0,0,.4-2.41,4.62,4.62,0,0,0-.55-2.16,5.63,5.63,0,0,0-1.61-1.84,9.62,9.62,0,0,0-2.78-1.4Zm-1.51,3.17,3.45,1.17a8.55,8.55,0,0,1,1.64.73,3.29,3.29,0,0,1,.95.83,1.92,1.92,0,0,1,.36.95,2.82,2.82,0,0,1-.15,1,2.53,2.53,0,0,1-.52.91,1.8,1.8,0,0,1-.85.52,3.18,3.18,0,0,1-1.26.07,8,8,0,0,1-1.74-.42L574.21,407a9.12,9.12,0,0,1-1.66-.74,3.45,3.45,0,0,1-1-.84,1.79,1.79,0,0,1-.37-.94,2.61,2.61,0,0,1,.14-1.05,2.73,2.73,0,0,1,.52-.92,1.82,1.82,0,0,1,.86-.51,3.3,3.3,0,0,1,1.28-.06A7.8,7.8,0,0,1,575.77,402.34Z"/><path class="cls-3" d="M581.82,385.77a10.19,10.19,0,0,0-3.06-.59,5.79,5.79,0,0,0-2.39.46,4.63,4.63,0,0,0-1.76,1.38,6.93,6.93,0,0,0-1.14,2.16,7.31,7.31,0,0,0-.41,2.41,4.7,4.7,0,0,0,.56,2.17,5.76,5.76,0,0,0,1.62,1.83A9.63,9.63,0,0,0,578,397l2.62.89a9.83,9.83,0,0,0,3.06.59,5.6,5.6,0,0,0,2.39-.46,4.8,4.8,0,0,0,1.75-1.38,6.93,6.93,0,0,0,1.14-2.16,7.27,7.27,0,0,0,.41-2.41,4.79,4.79,0,0,0-.56-2.17,5.6,5.6,0,0,0-1.61-1.83,9.49,9.49,0,0,0-2.78-1.4Zm-1.51,3.17,3.44,1.17a8.28,8.28,0,0,1,1.64.73,3.31,3.31,0,0,1,1,.83,1.92,1.92,0,0,1,.36.94,2.39,2.39,0,0,1-.15,1,2.56,2.56,0,0,1-.51.92,1.94,1.94,0,0,1-.85.52,3.38,3.38,0,0,1-1.26.07,8,8,0,0,1-1.74-.42l-3.45-1.17a7.57,7.57,0,0,1-1.65-.75,3.34,3.34,0,0,1-1-.84,1.78,1.78,0,0,1-.37-.94,2.62,2.62,0,0,1,.15-1,2.39,2.39,0,0,1,.52-.91,1.61,1.61,0,0,1,.86-.52,3.25,3.25,0,0,1,1.27-.06A8.31,8.31,0,0,1,580.31,388.94Z"/><path class="cls-3" d="M586.35,372.38a9.5,9.5,0,0,0-3.06-.59,5.63,5.63,0,0,0-2.39.45,4.7,4.7,0,0,0-1.76,1.37,7.7,7.7,0,0,0-1.54,4.58,4.69,4.69,0,0,0,.55,2.17,5.76,5.76,0,0,0,1.62,1.83,9.82,9.82,0,0,0,2.79,1.41l2.62.89a10.13,10.13,0,0,0,3.05.59,5.43,5.43,0,0,0,2.39-.47,4.62,4.62,0,0,0,1.76-1.37,7.82,7.82,0,0,0,1.54-4.57,4.74,4.74,0,0,0-.55-2.16,5.77,5.77,0,0,0-1.61-1.84,10.15,10.15,0,0,0-2.78-1.41Zm-1.51,3.16,3.44,1.17a7.3,7.3,0,0,1,1.64.73,2.82,2.82,0,0,1,1,.83,1.75,1.75,0,0,1,.36.94,2.74,2.74,0,0,1-.66,2,1.88,1.88,0,0,1-.85.52,3.38,3.38,0,0,1-1.26.07,8,8,0,0,1-1.74-.42l-3.45-1.17a8.33,8.33,0,0,1-1.65-.75,3.42,3.42,0,0,1-1-.83,1.69,1.69,0,0,1-.37-.95,2.78,2.78,0,0,1,.66-2,1.74,1.74,0,0,1,.86-.51,3.29,3.29,0,0,1,1.28-.06A7.56,7.56,0,0,1,584.84,375.54Z"/><path class="cls-3" d="M590.88,359a10.07,10.07,0,0,0-3-.59,5.76,5.76,0,0,0-2.39.46,4.55,4.55,0,0,0-1.76,1.38,7.16,7.16,0,0,0-1.15,2.16,7.25,7.25,0,0,0-.4,2.41,4.7,4.7,0,0,0,.56,2.17,5.52,5.52,0,0,0,1.62,1.83,9.75,9.75,0,0,0,2.78,1.41l2.62.89a9.85,9.85,0,0,0,3.06.58,5.49,5.49,0,0,0,2.39-.46,4.67,4.67,0,0,0,1.75-1.37,7.64,7.64,0,0,0,1.54-4.57,4.77,4.77,0,0,0-.54-2.17,5.76,5.76,0,0,0-1.62-1.83,9.62,9.62,0,0,0-2.78-1.4Zm-1.5,3.16,3.44,1.18a8.28,8.28,0,0,1,1.64.73,3,3,0,0,1,.95.83,1.89,1.89,0,0,1,.36.94,2.76,2.76,0,0,1-.15,1,2.36,2.36,0,0,1-.52.92,1.74,1.74,0,0,1-.85.51,3.1,3.1,0,0,1-1.25.08,8.71,8.71,0,0,1-1.75-.42l-3.44-1.18a8.51,8.51,0,0,1-1.66-.73,3.45,3.45,0,0,1-1-.85,1.78,1.78,0,0,1-.37-.93,2.46,2.46,0,0,1,.15-1.05,2.56,2.56,0,0,1,.51-.92,1.87,1.87,0,0,1,.86-.51,3.49,3.49,0,0,1,1.28-.07A9,9,0,0,1,589.38,362.13Z"/><path class="cls-3" d="M599.6,333.19a9.6,9.6,0,0,0-3.06-.59,5.49,5.49,0,0,0-2.39.46,4.51,4.51,0,0,0-1.76,1.37,7.14,7.14,0,0,0-1.14,2.16,7,7,0,0,0-.4,2.41,4.78,4.78,0,0,0,.55,2.17A5.76,5.76,0,0,0,593,343a9.88,9.88,0,0,0,2.78,1.41l2.63.89a10.37,10.37,0,0,0,2.61.57l.45,0a5.67,5.67,0,0,0,2.39-.46,4.76,4.76,0,0,0,1.74-1.38,7.22,7.22,0,0,0,1.15-2.15,7.38,7.38,0,0,0,.4-2.42,4.82,4.82,0,0,0-.55-2.17,5.64,5.64,0,0,0-1.62-1.83l-.23-.16h0a10.45,10.45,0,0,0-2.55-1.23Zm-1.51,3.16,3.45,1.17a8.16,8.16,0,0,1,1.63.73,3.16,3.16,0,0,1,1,.83,1.83,1.83,0,0,1,.36.94,2.19,2.19,0,0,1,0,.51h0a2.73,2.73,0,0,1-.13.53,2.68,2.68,0,0,1-.35.72c-.05.06-.1.13-.16.19a1.88,1.88,0,0,1-.85.52,3.38,3.38,0,0,1-1.26.07,8,8,0,0,1-1.74-.42L596.52,341a7.57,7.57,0,0,1-1.65-.75,3.47,3.47,0,0,1-1-.83,1.84,1.84,0,0,1-.37-.95,2.41,2.41,0,0,1,.15-1,2.39,2.39,0,0,1,.52-.91,1.62,1.62,0,0,1,.86-.52,3.29,3.29,0,0,1,1.28-.06A8.38,8.38,0,0,1,598.09,336.35Z"/><path class="cls-3" d="M604.13,319.78a9.74,9.74,0,0,0-3-.58,5.65,5.65,0,0,0-2.4.45,4.62,4.62,0,0,0-1.75,1.38,6.93,6.93,0,0,0-1.14,2.16,7,7,0,0,0-.41,2.41,4.67,4.67,0,0,0,.56,2.17,5.84,5.84,0,0,0,1.61,1.83,9.88,9.88,0,0,0,2.78,1.41l2.63.89a11.35,11.35,0,0,0,1.5.41,7.4,7.4,0,0,0,1.56.18,5.79,5.79,0,0,0,1.4-.14,4.61,4.61,0,0,0,1-.33,4.67,4.67,0,0,0,1.75-1.37,7.26,7.26,0,0,0,1.14-2.16,7,7,0,0,0,.4-2.41,4.62,4.62,0,0,0-.55-2.16,5.53,5.53,0,0,0-1.61-1.84,9.62,9.62,0,0,0-2.78-1.4Zm-1.51,3.16,3.45,1.18a8.59,8.59,0,0,1,1.64.72,3.18,3.18,0,0,1,.95.84,1.92,1.92,0,0,1,.36.94,2.65,2.65,0,0,1-.15,1.05,2.84,2.84,0,0,1-.51.91,2,2,0,0,1-.86.52,3.38,3.38,0,0,1-1.26.07,8,8,0,0,1-1.74-.42l-3.44-1.18a7.93,7.93,0,0,1-1.66-.74,3.42,3.42,0,0,1-1-.83,1.88,1.88,0,0,1-.37-.94,2.61,2.61,0,0,1,.14-1.05,2.57,2.57,0,0,1,.52-.92,1.82,1.82,0,0,1,.86-.51,3.3,3.3,0,0,1,1.28-.06A8.15,8.15,0,0,1,602.62,322.94Z"/><path class="cls-3" d="M608.67,306.38a10.13,10.13,0,0,0-3.06-.59,5.71,5.71,0,0,0-2.4.46,4.6,4.6,0,0,0-1.75,1.38,6.93,6.93,0,0,0-1.14,2.16,7.27,7.27,0,0,0-.41,2.41,4.75,4.75,0,0,0,.56,2.16,5.68,5.68,0,0,0,1.62,1.84,9.75,9.75,0,0,0,2.78,1.41l2.62.89a9.89,9.89,0,0,0,3.06.59,5.63,5.63,0,0,0,2.39-.47,4.77,4.77,0,0,0,1.75-1.37,6.93,6.93,0,0,0,1.14-2.16,7.27,7.27,0,0,0,.41-2.41,4.78,4.78,0,0,0-.55-2.17,5.76,5.76,0,0,0-1.62-1.83,9.62,9.62,0,0,0-2.78-1.4Zm-1.51,3.17,3.44,1.16a8.86,8.86,0,0,1,1.64.74,3.16,3.16,0,0,1,1,.83,1.92,1.92,0,0,1,.36.94,2.78,2.78,0,0,1-.66,2,1.83,1.83,0,0,1-.85.51,3.17,3.17,0,0,1-1.26.08,8,8,0,0,1-1.74-.43l-3.45-1.16a7.9,7.9,0,0,1-1.66-.75,3.28,3.28,0,0,1-1-.84,1.78,1.78,0,0,1-.37-.94,2.75,2.75,0,0,1,.14-1,2.83,2.83,0,0,1,.52-.92,1.82,1.82,0,0,1,.87-.51,3.43,3.43,0,0,1,1.27-.07A8.4,8.4,0,0,1,607.16,309.55Z"/><path class="cls-3" d="M613.2,293a9.78,9.78,0,0,0-3.06-.59,5.79,5.79,0,0,0-2.39.46,4.67,4.67,0,0,0-1.75,1.37,7.18,7.18,0,0,0-1.15,2.16,7.05,7.05,0,0,0-.4,2.42A4.82,4.82,0,0,0,605,301a5.76,5.76,0,0,0,1.62,1.83,9.56,9.56,0,0,0,2.79,1.4l2.62.9a10.08,10.08,0,0,0,3.06.59,5.49,5.49,0,0,0,2.39-.47,4.78,4.78,0,0,0,1.75-1.38,7.19,7.19,0,0,0,1.14-2.15,7.29,7.29,0,0,0,.4-2.41,4.78,4.78,0,0,0-.55-2.17,5.72,5.72,0,0,0-1.61-1.83,9.88,9.88,0,0,0-2.78-1.41Zm-1.51,3.17,3.45,1.17a7.63,7.63,0,0,1,1.63.73,2.92,2.92,0,0,1,1,.83,1.72,1.72,0,0,1,.36.94,2.56,2.56,0,0,1-.14,1,2.44,2.44,0,0,1-.52.91,1.82,1.82,0,0,1-.85.53,3.36,3.36,0,0,1-1.26.07,8.63,8.63,0,0,1-1.74-.42l-3.45-1.17a9,9,0,0,1-1.65-.75,3.47,3.47,0,0,1-1-.84,1.81,1.81,0,0,1-.37-.94,2.76,2.76,0,0,1,.15-1,2.73,2.73,0,0,1,.52-.92,1.67,1.67,0,0,1,.86-.51,3.3,3.3,0,0,1,1.28-.06A7.68,7.68,0,0,1,611.69,296.15Z"/><path class="cls-3" d="M533.57,529.8a9.83,9.83,0,0,0-3.06-.59,5.6,5.6,0,0,0-2.39.45,4.65,4.65,0,0,0-1.76,1.38,6.93,6.93,0,0,0-1.14,2.16,7,7,0,0,0-.4,2.41,4.66,4.66,0,0,0,.55,2.17,5.76,5.76,0,0,0,1.62,1.83,9.88,9.88,0,0,0,2.78,1.41l2.63.89a9.78,9.78,0,0,0,3.05.59,5.46,5.46,0,0,0,2.39-.47,4.59,4.59,0,0,0,1.75-1.37,6.93,6.93,0,0,0,1.14-2.16,7,7,0,0,0,.41-2.41,4.74,4.74,0,0,0-.55-2.16,5.79,5.79,0,0,0-1.62-1.84,9.81,9.81,0,0,0-2.77-1.4ZM532.06,533l3.44,1.17a7.74,7.74,0,0,1,1.64.73,3,3,0,0,1,1,.83,1.83,1.83,0,0,1,.36.94,2.48,2.48,0,0,1-.15,1,2.6,2.6,0,0,1-.51.91,1.92,1.92,0,0,1-.86.52,3.31,3.31,0,0,1-1.25.07,8.87,8.87,0,0,1-1.75-.42l-3.44-1.17a8.73,8.73,0,0,1-1.66-.75,3.56,3.56,0,0,1-1-.83,1.85,1.85,0,0,1-.37-.94,2.48,2.48,0,0,1,.15-1.05,2.66,2.66,0,0,1,.52-.92,1.82,1.82,0,0,1,.86-.51,3.49,3.49,0,0,1,1.28-.06A7.8,7.8,0,0,1,532.06,533Z"/><path class="cls-3" d="M538.1,516.39a10.08,10.08,0,0,0-3.06-.59,5.79,5.79,0,0,0-2.39.46,4.6,4.6,0,0,0-1.75,1.38,7.16,7.16,0,0,0-1.15,2.16,7.25,7.25,0,0,0-.4,2.41,4.7,4.7,0,0,0,.56,2.17,5.6,5.6,0,0,0,1.61,1.83,9.88,9.88,0,0,0,2.78,1.41l2.63.89a9.78,9.78,0,0,0,3.06.59,5.63,5.63,0,0,0,2.39-.47,4.56,4.56,0,0,0,1.74-1.37,7.56,7.56,0,0,0,1.55-4.57,4.66,4.66,0,0,0-.55-2.17,5.6,5.6,0,0,0-1.61-1.83,9.62,9.62,0,0,0-2.78-1.4Zm-1.51,3.16,3.45,1.18a8.55,8.55,0,0,1,1.64.73,3.29,3.29,0,0,1,1,.83,1.92,1.92,0,0,1,.36.94,2.76,2.76,0,0,1-.15,1,2.64,2.64,0,0,1-.52.92,1.79,1.79,0,0,1-.85.51,3.15,3.15,0,0,1-1.26.08,8,8,0,0,1-1.74-.42L535,524.19a8.48,8.48,0,0,1-1.66-.74,3.45,3.45,0,0,1-1-.85,1.73,1.73,0,0,1-.37-.93,2.61,2.61,0,0,1,.14-1,2.66,2.66,0,0,1,.52-.92,1.82,1.82,0,0,1,.86-.51,3.49,3.49,0,0,1,1.28-.07A8.89,8.89,0,0,1,536.59,519.55Z"/><path class="cls-3" d="M542.64,503l-.45-.13a9.21,9.21,0,0,0-2.61-.46,5.87,5.87,0,0,0-2.4.46,4.75,4.75,0,0,0-1.75,1.37,7.16,7.16,0,0,0-1.14,2.16,7.36,7.36,0,0,0-.41,2.42,5,5,0,0,0,.43,1.91l.13.26a5.76,5.76,0,0,0,1.62,1.83,9.62,9.62,0,0,0,2.78,1.4l2.62.9a10.19,10.19,0,0,0,3.06.59,5.49,5.49,0,0,0,2.39-.47,4.77,4.77,0,0,0,1.75-1.37,6.93,6.93,0,0,0,1.14-2.16,7.31,7.31,0,0,0,.41-2.41,4.83,4.83,0,0,0-.56-2.17,5.6,5.6,0,0,0-1.61-1.83,9.62,9.62,0,0,0-2.78-1.4Zm-3.19,2.75a8.3,8.3,0,0,1,1.67.42l3.45,1.17a8.28,8.28,0,0,1,1.64.73,3.16,3.16,0,0,1,.95.83,1.92,1.92,0,0,1,.36.94,2.63,2.63,0,0,1-.14,1.05,2.78,2.78,0,0,1-.52.91,2,2,0,0,1-.85.52,3.38,3.38,0,0,1-1.26.07A8,8,0,0,1,543,512l-3.45-1.17a7.9,7.9,0,0,1-1.66-.75,3.28,3.28,0,0,1-1-.84,1.58,1.58,0,0,1-.31-.64,1.07,1.07,0,0,1-.06-.3,2.77,2.77,0,0,1,.14-1,2.68,2.68,0,0,1,.53-.92,1.67,1.67,0,0,1,.86-.51,3.25,3.25,0,0,1,1.27-.06Z"/><path class="cls-3" d="M547.17,489.59a10.08,10.08,0,0,0-3.06-.59,5.79,5.79,0,0,0-2.39.46,4.7,4.7,0,0,0-1.76,1.37,7.32,7.32,0,0,0-1.14,2.17,7,7,0,0,0-.4,2.41,4.69,4.69,0,0,0,.55,2.17,5.76,5.76,0,0,0,1.62,1.83,9.82,9.82,0,0,0,2.79,1.41l.51.17,2.11.72a10.08,10.08,0,0,0,3.06.59,5.56,5.56,0,0,0,2.38-.47,4.7,4.7,0,0,0,1.76-1.37,7.37,7.37,0,0,0,1.13-2.16,7,7,0,0,0,.41-2.41,4.82,4.82,0,0,0-.55-2.17,5.72,5.72,0,0,0-1.61-1.83,6.67,6.67,0,0,0-.68-.45,10.22,10.22,0,0,0-2.1-.95Zm-1.51,3.16,3.44,1.18a6.25,6.25,0,0,1,.62.23h0a7.52,7.52,0,0,1,1,.49,3.39,3.39,0,0,1,.94.83,1.86,1.86,0,0,1,.36.95,2.78,2.78,0,0,1-.66,2,1.79,1.79,0,0,1-.85.51,3.36,3.36,0,0,1-1.26.08,8,8,0,0,1-1.74-.42l-1.16-.4-2.29-.78a8.17,8.17,0,0,1-1.66-.74,3.36,3.36,0,0,1-1-.84,1.86,1.86,0,0,1-.38-.94,2.58,2.58,0,0,1,.15-1,2.73,2.73,0,0,1,.52-.92,1.83,1.83,0,0,1,.86-.52,3.52,3.52,0,0,1,1.28-.05A8,8,0,0,1,545.66,492.75Z"/><path class="cls-4" d="M555.71,463.59a9.5,9.5,0,0,0-3.05-.59,5.68,5.68,0,0,0-2.4.45,4.6,4.6,0,0,0-1.75,1.38,6.93,6.93,0,0,0-1.14,2.16,7.06,7.06,0,0,0-.41,2.41,4.83,4.83,0,0,0,.56,2.17,5.64,5.64,0,0,0,1.62,1.83,9.49,9.49,0,0,0,2.78,1.4l2.62.9a10.19,10.19,0,0,0,3.06.59,5.49,5.49,0,0,0,2.39-.47,4.67,4.67,0,0,0,1.75-1.37,7.37,7.37,0,0,0,1.14-2.16,7,7,0,0,0,.4-2.41,4.73,4.73,0,0,0-.54-2.16,5.68,5.68,0,0,0-1.62-1.84,9.62,9.62,0,0,0-2.78-1.4Zm-1.5,3.16,3.44,1.17a7.74,7.74,0,0,1,1.64.73,3.16,3.16,0,0,1,1,.83,1.81,1.81,0,0,1,.35.94,2.63,2.63,0,0,1-.14,1.05,2.47,2.47,0,0,1-.52.91,1.88,1.88,0,0,1-.85.52,3.31,3.31,0,0,1-1.25.07,8.55,8.55,0,0,1-1.75-.42l-3.44-1.17a7.9,7.9,0,0,1-1.66-.75,3.28,3.28,0,0,1-1-.84,1.7,1.7,0,0,1-.37-.93,2.61,2.61,0,0,1,.14-1.05,2.83,2.83,0,0,1,.52-.92,1.79,1.79,0,0,1,.86-.51,3.3,3.3,0,0,1,1.28-.06A8.31,8.31,0,0,1,554.21,466.75Z"/><path class="cls-3" d="M560.25,450.18a10.08,10.08,0,0,0-3.06-.59,5.79,5.79,0,0,0-2.39.46,4.52,4.52,0,0,0-1.75,1.38A7.56,7.56,0,0,0,551.5,456a4.82,4.82,0,0,0,.55,2.17,5.76,5.76,0,0,0,1.62,1.83,9.88,9.88,0,0,0,2.78,1.41l2.63.89a9.78,9.78,0,0,0,3,.59,5.65,5.65,0,0,0,2.4-.47,4.64,4.64,0,0,0,1.74-1.37,7.56,7.56,0,0,0,1.55-4.57,4.82,4.82,0,0,0-.55-2.17,5.64,5.64,0,0,0-1.62-1.83,9.37,9.37,0,0,0-2.78-1.4Zm-1.51,3.16,3.45,1.18a8.82,8.82,0,0,1,1.63.72,3.06,3.06,0,0,1,.95.84,1.8,1.8,0,0,1,.36.94,2.56,2.56,0,0,1-.14,1,2.64,2.64,0,0,1-.52.92,1.79,1.79,0,0,1-.85.51,3.36,3.36,0,0,1-1.26.08,8,8,0,0,1-1.74-.42L557.17,458a8.4,8.4,0,0,1-1.65-.73,3.51,3.51,0,0,1-1-.85,1.81,1.81,0,0,1-.37-.93,2.62,2.62,0,0,1,.15-1,2.57,2.57,0,0,1,.52-.92,1.77,1.77,0,0,1,.86-.51,3.47,3.47,0,0,1,1.28-.07A9.06,9.06,0,0,1,558.74,453.34Z"/><path class="cls-3" d="M564.78,436.78a10.07,10.07,0,0,0-3-.59,5.65,5.65,0,0,0-2.4.46,4.67,4.67,0,0,0-1.75,1.37A7.74,7.74,0,0,0,556,442.6a4.63,4.63,0,0,0,.56,2.16,5.68,5.68,0,0,0,1.62,1.84A9.43,9.43,0,0,0,561,448l2.63.9a10.13,10.13,0,0,0,3.06.59,5.63,5.63,0,0,0,2.39-.47,4.77,4.77,0,0,0,1.75-1.37,6.93,6.93,0,0,0,1.14-2.16,7,7,0,0,0,.4-2.41,4.66,4.66,0,0,0-.55-2.17,5.6,5.6,0,0,0-1.61-1.83,9.62,9.62,0,0,0-2.78-1.4Zm-1.51,3.16,3.45,1.17a9.18,9.18,0,0,1,1.64.74,3.16,3.16,0,0,1,.95.83,1.92,1.92,0,0,1,.36.94,2.58,2.58,0,0,1-.15,1,2.71,2.71,0,0,1-.51.92,1.87,1.87,0,0,1-.86.51,3.13,3.13,0,0,1-1.25.08,7.49,7.49,0,0,1-1.75-.43l-3.44-1.16a7.9,7.9,0,0,1-1.66-.75,3.28,3.28,0,0,1-1-.84,1.78,1.78,0,0,1-.37-.94,2.78,2.78,0,0,1,.66-2,1.66,1.66,0,0,1,.87-.51,3.24,3.24,0,0,1,1.27-.06A8.15,8.15,0,0,1,563.27,439.94Z"/><path class="cls-3" d="M569.32,423.38a9.83,9.83,0,0,0-3.06-.59,5.87,5.87,0,0,0-2.4.46,4.67,4.67,0,0,0-1.75,1.37,7.16,7.16,0,0,0-1.14,2.16,7.62,7.62,0,0,0-.36,1.56,8.24,8.24,0,0,0-.05.85,4.83,4.83,0,0,0,.56,2.18,5.76,5.76,0,0,0,1.62,1.83,9.62,9.62,0,0,0,2.78,1.4l2.62.9a10.19,10.19,0,0,0,3.06.59,5.6,5.6,0,0,0,2.39-.47,4.87,4.87,0,0,0,1-.61,5.47,5.47,0,0,0,.75-.77,7,7,0,0,0,1.14-2.15,7.31,7.31,0,0,0,.41-2.41,4.78,4.78,0,0,0-.55-2.17,5.84,5.84,0,0,0-1.61-1.83,10,10,0,0,0-2.79-1.41Zm-1.51,3.16,3.44,1.18a8.31,8.31,0,0,1,1.64.72,3.18,3.18,0,0,1,1,.84,1.89,1.89,0,0,1,.36.94,2.82,2.82,0,0,1-.14,1,2.63,2.63,0,0,1-.52.9,1.87,1.87,0,0,1-.85.53,3,3,0,0,1-1,.09l-.27,0a8.71,8.71,0,0,1-1.75-.42l-3.44-1.18a8.48,8.48,0,0,1-1.66-.74,3.56,3.56,0,0,1-1-.83,1.8,1.8,0,0,1-.33-.74,1.55,1.55,0,0,1,0-.21,2.65,2.65,0,0,1,.15-1,2.47,2.47,0,0,1,.52-.91,1.67,1.67,0,0,1,.86-.51,3.24,3.24,0,0,1,1.27-.06A8.22,8.22,0,0,1,567.81,426.54Z"/><path class="cls-3" d="M577.28,399.17a9.74,9.74,0,0,0-3.06-.58,5.63,5.63,0,0,0-2.39.45,4.8,4.8,0,0,0-1.75,1.38,7.56,7.56,0,0,0-1.55,4.57,4.67,4.67,0,0,0,.56,2.17,5.52,5.52,0,0,0,1.62,1.83,9.62,9.62,0,0,0,2.78,1.41l2.62.89a9.78,9.78,0,0,0,3.06.59,5.49,5.49,0,0,0,2.39-.47,4.67,4.67,0,0,0,1.75-1.37,7.14,7.14,0,0,0,1.14-2.16,7,7,0,0,0,.4-2.41,4.62,4.62,0,0,0-.55-2.16,5.63,5.63,0,0,0-1.61-1.84,9.62,9.62,0,0,0-2.78-1.4Zm-1.51,3.17,3.45,1.17a8.55,8.55,0,0,1,1.64.73,3.29,3.29,0,0,1,.95.83,1.92,1.92,0,0,1,.36.95,2.82,2.82,0,0,1-.15,1,2.53,2.53,0,0,1-.52.91,1.8,1.8,0,0,1-.85.52,3.18,3.18,0,0,1-1.26.07,8,8,0,0,1-1.74-.42L574.21,407a9.12,9.12,0,0,1-1.66-.74,3.45,3.45,0,0,1-1-.84,1.79,1.79,0,0,1-.37-.94,2.61,2.61,0,0,1,.14-1.05,2.73,2.73,0,0,1,.52-.92,1.82,1.82,0,0,1,.86-.51,3.3,3.3,0,0,1,1.28-.06A7.8,7.8,0,0,1,575.77,402.34Z"/><path class="cls-3" d="M581.82,385.77a10.19,10.19,0,0,0-3.06-.59,5.79,5.79,0,0,0-2.39.46,4.63,4.63,0,0,0-1.76,1.38,6.93,6.93,0,0,0-1.14,2.16,7.31,7.31,0,0,0-.41,2.41,4.7,4.7,0,0,0,.56,2.17,5.76,5.76,0,0,0,1.62,1.83A9.63,9.63,0,0,0,578,397l2.62.89a9.83,9.83,0,0,0,3.06.59,5.6,5.6,0,0,0,2.39-.46,4.8,4.8,0,0,0,1.75-1.38,6.93,6.93,0,0,0,1.14-2.16,7.27,7.27,0,0,0,.41-2.41,4.79,4.79,0,0,0-.56-2.17,5.6,5.6,0,0,0-1.61-1.83,9.49,9.49,0,0,0-2.78-1.4Zm-1.51,3.17,3.44,1.17a8.28,8.28,0,0,1,1.64.73,3.31,3.31,0,0,1,1,.83,1.92,1.92,0,0,1,.36.94,2.39,2.39,0,0,1-.15,1,2.56,2.56,0,0,1-.51.92,1.94,1.94,0,0,1-.85.52,3.38,3.38,0,0,1-1.26.07,8,8,0,0,1-1.74-.42l-3.45-1.17a7.57,7.57,0,0,1-1.65-.75,3.34,3.34,0,0,1-1-.84,1.78,1.78,0,0,1-.37-.94,2.62,2.62,0,0,1,.15-1,2.39,2.39,0,0,1,.52-.91,1.61,1.61,0,0,1,.86-.52,3.25,3.25,0,0,1,1.27-.06A8.31,8.31,0,0,1,580.31,388.94Z"/><path class="cls-3" d="M586.35,372.38a9.5,9.5,0,0,0-3.06-.59,5.63,5.63,0,0,0-2.39.45,4.7,4.7,0,0,0-1.76,1.37,7.7,7.7,0,0,0-1.54,4.58,4.69,4.69,0,0,0,.55,2.17,5.76,5.76,0,0,0,1.62,1.83,9.82,9.82,0,0,0,2.79,1.41l2.62.89a10.13,10.13,0,0,0,3.05.59,5.43,5.43,0,0,0,2.39-.47,4.62,4.62,0,0,0,1.76-1.37,7.82,7.82,0,0,0,1.54-4.57,4.74,4.74,0,0,0-.55-2.16,5.77,5.77,0,0,0-1.61-1.84,10.15,10.15,0,0,0-2.78-1.41Zm-1.51,3.16,3.44,1.17a7.3,7.3,0,0,1,1.64.73,2.82,2.82,0,0,1,1,.83,1.75,1.75,0,0,1,.36.94,2.74,2.74,0,0,1-.66,2,1.88,1.88,0,0,1-.85.52,3.38,3.38,0,0,1-1.26.07,8,8,0,0,1-1.74-.42l-3.45-1.17a8.33,8.33,0,0,1-1.65-.75,3.42,3.42,0,0,1-1-.83,1.69,1.69,0,0,1-.37-.95,2.78,2.78,0,0,1,.66-2,1.74,1.74,0,0,1,.86-.51,3.29,3.29,0,0,1,1.28-.06A7.56,7.56,0,0,1,584.84,375.54Z"/><path class="cls-3" d="M590.88,359a10.07,10.07,0,0,0-3-.59,5.76,5.76,0,0,0-2.39.46,4.55,4.55,0,0,0-1.76,1.38,7.16,7.16,0,0,0-1.15,2.16,7.25,7.25,0,0,0-.4,2.41,4.7,4.7,0,0,0,.56,2.17,5.52,5.52,0,0,0,1.62,1.83,9.75,9.75,0,0,0,2.78,1.41l2.62.89a9.85,9.85,0,0,0,3.06.58,5.49,5.49,0,0,0,2.39-.46,4.67,4.67,0,0,0,1.75-1.37,7.64,7.64,0,0,0,1.54-4.57,4.77,4.77,0,0,0-.54-2.17,5.76,5.76,0,0,0-1.62-1.83,9.62,9.62,0,0,0-2.78-1.4Zm-1.5,3.16,3.44,1.18a8.28,8.28,0,0,1,1.64.73,3,3,0,0,1,.95.83,1.89,1.89,0,0,1,.36.94,2.76,2.76,0,0,1-.15,1,2.36,2.36,0,0,1-.52.92,1.74,1.74,0,0,1-.85.51,3.1,3.1,0,0,1-1.25.08,8.71,8.71,0,0,1-1.75-.42l-3.44-1.18a8.51,8.51,0,0,1-1.66-.73,3.45,3.45,0,0,1-1-.85,1.78,1.78,0,0,1-.37-.93,2.46,2.46,0,0,1,.15-1.05,2.56,2.56,0,0,1,.51-.92,1.87,1.87,0,0,1,.86-.51,3.49,3.49,0,0,1,1.28-.07A9,9,0,0,1,589.38,362.13Z"/><path class="cls-3" d="M599.6,333.19a9.6,9.6,0,0,0-3.06-.59,5.49,5.49,0,0,0-2.39.46,4.51,4.51,0,0,0-1.76,1.37,7.14,7.14,0,0,0-1.14,2.16,7,7,0,0,0-.4,2.41,4.78,4.78,0,0,0,.55,2.17A5.76,5.76,0,0,0,593,343a9.88,9.88,0,0,0,2.78,1.41l2.63.89a10.37,10.37,0,0,0,2.61.57l.45,0a5.67,5.67,0,0,0,2.39-.46,4.76,4.76,0,0,0,1.74-1.38,7.22,7.22,0,0,0,1.15-2.15,7.38,7.38,0,0,0,.4-2.42,4.82,4.82,0,0,0-.55-2.17,5.64,5.64,0,0,0-1.62-1.83l-.23-.16h0a10.45,10.45,0,0,0-2.55-1.23Zm-1.51,3.16,3.45,1.17a8.16,8.16,0,0,1,1.63.73,3.16,3.16,0,0,1,1,.83,1.83,1.83,0,0,1,.36.94,2.19,2.19,0,0,1,0,.51h0a2.73,2.73,0,0,1-.13.53,2.68,2.68,0,0,1-.35.72c-.05.06-.1.13-.16.19a1.88,1.88,0,0,1-.85.52,3.38,3.38,0,0,1-1.26.07,8,8,0,0,1-1.74-.42L596.52,341a7.57,7.57,0,0,1-1.65-.75,3.47,3.47,0,0,1-1-.83,1.84,1.84,0,0,1-.37-.95,2.41,2.41,0,0,1,.15-1,2.39,2.39,0,0,1,.52-.91,1.62,1.62,0,0,1,.86-.52,3.29,3.29,0,0,1,1.28-.06A8.38,8.38,0,0,1,598.09,336.35Z"/><path class="cls-3" d="M604.13,319.78a9.74,9.74,0,0,0-3-.58,5.65,5.65,0,0,0-2.4.45,4.62,4.62,0,0,0-1.75,1.38,6.93,6.93,0,0,0-1.14,2.16,7,7,0,0,0-.41,2.41,4.67,4.67,0,0,0,.56,2.17,5.84,5.84,0,0,0,1.61,1.83,9.88,9.88,0,0,0,2.78,1.41l2.63.89a11.35,11.35,0,0,0,1.5.41,7.4,7.4,0,0,0,1.56.18,5.79,5.79,0,0,0,1.4-.14,4.61,4.61,0,0,0,1-.33,4.67,4.67,0,0,0,1.75-1.37,7.26,7.26,0,0,0,1.14-2.16,7,7,0,0,0,.4-2.41,4.62,4.62,0,0,0-.55-2.16,5.53,5.53,0,0,0-1.61-1.84,9.62,9.62,0,0,0-2.78-1.4Zm-1.51,3.16,3.45,1.18a8.59,8.59,0,0,1,1.64.72,3.18,3.18,0,0,1,.95.84,1.92,1.92,0,0,1,.36.94,2.65,2.65,0,0,1-.15,1.05,2.84,2.84,0,0,1-.51.91,2,2,0,0,1-.86.52,3.38,3.38,0,0,1-1.26.07,8,8,0,0,1-1.74-.42l-3.44-1.18a7.93,7.93,0,0,1-1.66-.74,3.42,3.42,0,0,1-1-.83,1.88,1.88,0,0,1-.37-.94,2.61,2.61,0,0,1,.14-1.05,2.57,2.57,0,0,1,.52-.92,1.82,1.82,0,0,1,.86-.51,3.3,3.3,0,0,1,1.28-.06A8.15,8.15,0,0,1,602.62,322.94Z"/><path class="cls-3" d="M608.67,306.38a10.13,10.13,0,0,0-3.06-.59,5.71,5.71,0,0,0-2.4.46,4.6,4.6,0,0,0-1.75,1.38,6.93,6.93,0,0,0-1.14,2.16,7.27,7.27,0,0,0-.41,2.41,4.75,4.75,0,0,0,.56,2.16,5.68,5.68,0,0,0,1.62,1.84,9.75,9.75,0,0,0,2.78,1.41l2.62.89a9.89,9.89,0,0,0,3.06.59,5.63,5.63,0,0,0,2.39-.47,4.77,4.77,0,0,0,1.75-1.37,6.93,6.93,0,0,0,1.14-2.16,7.27,7.27,0,0,0,.41-2.41,4.78,4.78,0,0,0-.55-2.17,5.76,5.76,0,0,0-1.62-1.83,9.62,9.62,0,0,0-2.78-1.4Zm-1.51,3.17,3.44,1.16a8.86,8.86,0,0,1,1.64.74,3.16,3.16,0,0,1,1,.83,1.92,1.92,0,0,1,.36.94,2.78,2.78,0,0,1-.66,2,1.83,1.83,0,0,1-.85.51,3.17,3.17,0,0,1-1.26.08,8,8,0,0,1-1.74-.43l-3.45-1.16a7.9,7.9,0,0,1-1.66-.75,3.28,3.28,0,0,1-1-.84,1.78,1.78,0,0,1-.37-.94,2.75,2.75,0,0,1,.14-1,2.83,2.83,0,0,1,.52-.92,1.82,1.82,0,0,1,.87-.51,3.43,3.43,0,0,1,1.27-.07A8.4,8.4,0,0,1,607.16,309.55Z"/><path class="cls-3" d="M613.2,293a9.78,9.78,0,0,0-3.06-.59,5.79,5.79,0,0,0-2.39.46,4.67,4.67,0,0,0-1.75,1.37,7.18,7.18,0,0,0-1.15,2.16,7.05,7.05,0,0,0-.4,2.42A4.82,4.82,0,0,0,605,301a5.76,5.76,0,0,0,1.62,1.83,9.56,9.56,0,0,0,2.79,1.4l2.62.9a10.08,10.08,0,0,0,3.06.59,5.49,5.49,0,0,0,2.39-.47,4.78,4.78,0,0,0,1.75-1.38,7.19,7.19,0,0,0,1.14-2.15,7.29,7.29,0,0,0,.4-2.41,4.78,4.78,0,0,0-.55-2.17,5.72,5.72,0,0,0-1.61-1.83,9.88,9.88,0,0,0-2.78-1.41Zm-1.51,3.17,3.45,1.17a7.63,7.63,0,0,1,1.63.73,2.92,2.92,0,0,1,1,.83,1.72,1.72,0,0,1,.36.94,2.56,2.56,0,0,1-.14,1,2.44,2.44,0,0,1-.52.91,1.82,1.82,0,0,1-.85.53,3.36,3.36,0,0,1-1.26.07,8.63,8.63,0,0,1-1.74-.42l-3.45-1.17a9,9,0,0,1-1.65-.75,3.47,3.47,0,0,1-1-.84,1.81,1.81,0,0,1-.37-.94,2.76,2.76,0,0,1,.15-1,2.73,2.73,0,0,1,.52-.92,1.67,1.67,0,0,1,.86-.51,3.3,3.3,0,0,1,1.28-.06A7.68,7.68,0,0,1,611.69,296.15Z"/><path class="cls-5" d="M560.77,250.78l-45.84-14a8.33,8.33,0,0,0-10.33,5.58l-11.14,36.48-.82,2.65-2.23,7.31a8.31,8.31,0,0,0,5.44,10.39l23.57,7.18,2.63.8,11.79,3.59,2.63.8,5.22,1.59A8.33,8.33,0,0,0,552,307.61l1.61-5.29.82-2.65,4.88-16,.81-2.66,4-13,.82-2.66h0l1.28-4.2A8.3,8.3,0,0,0,560.77,250.78Z"/><path class="cls-6" d="M515,236.5l45.84,14a8.48,8.48,0,0,1,5,4.2,8.68,8.68,0,0,1,.61,6.61L552.34,307.7l0,.08a8.64,8.64,0,0,1-10.72,5.73l-45.84-14a8.48,8.48,0,0,1-5.05-4.2,8.73,8.73,0,0,1-.61-6.61l14.19-46.43,0-.08A8.65,8.65,0,0,1,515,236.5Zm36.67,71,14.2-46.44a8,8,0,0,0-.57-6.1,7.76,7.76,0,0,0-4.65-3.87l-45.84-14a8,8,0,0,0-9.9,5.3l0,.07-14.19,46.44a8,8,0,0,0,.56,6.1,7.76,7.76,0,0,0,4.65,3.87l45.84,14a8,8,0,0,0,9.9-5.3Z"/><path class="cls-7" d="M526.52,283.21l-.15.46-7,22.74,2.63.8,7-22.74a9.6,9.6,0,0,1,4.63-5.68,9.36,9.36,0,0,1,7.23-.73l18.47,5.62.81-2.66-18.47-5.63a12.08,12.08,0,0,0-9.32.95A12.42,12.42,0,0,0,526.52,283.21Z"/><path class="cls-7" d="M564.93,265.38l-28.32-8.63a14.47,14.47,0,0,0-11.17,1.14,14.79,14.79,0,0,0-7.16,8.77l-3,10a8.52,8.52,0,0,1-4.1,5,8.2,8.2,0,0,1-6.39.65l-11.28-3.43-.82,2.65L503.93,285a11,11,0,0,0,8.48-.86,11.31,11.31,0,0,0,5.45-6.67l3-10a12.11,12.11,0,0,1,5.82-7.13,11.81,11.81,0,0,1,9.07-.92L564.11,268Z"/><path class="cls-7" d="M554.45,299.67l-7.27-2.22a8.93,8.93,0,0,0-11,5.67c0,.11-.08.22-.11.33l-2.25,7.35,2.63.8,2.24-7.35a6.19,6.19,0,0,1,7.66-4.14l7.26,2.21Z"/><ellipse class="cls-8" cx="320.68" cy="805.53" rx="38.41" ry="8.39"/><ellipse class="cls-8" cx="549.24" cy="804.66" rx="38.41" ry="8.39"/><path class="cls-9" d="M431,418.65s21.27,30.44,10.06,44.24c0,0,36.78-2.07,48.44,42.44,0,0-11.55,83.68-53.31,92.64L474,616.6l-41.08,6-7.06-93.49-4.17-110.45Z"/><path class="cls-10" d="M358.94,613c41.58-3.28,89.84-36.46,107.79-74.11,9-18.86,8.67-35.26.89-46.52h0l-8.18-11.75-.06,3.6c-8.47-5.87-20.49-8.73-35.43-7.55-41.58,3.28-89.84,36.46-107.79,74.11-6.17,12.94-8,24.72-6,34.48l-3.32,0,8.31,11.94.1.15.34.48v0C323.49,608.63,338.5,614.57,358.94,613Z"/><ellipse class="cls-11" cx="383.17" cy="532.89" rx="92.5" ry="53.4" transform="translate(-234.49 310.88) rotate(-34.51)"/><path class="cls-10" d="M296.66,617.1c41.58-3.28,89.84-36.46,107.79-74.11,9-18.86,8.67-35.27.89-46.53h0l-8.19-11.76,0,3.61c-8.47-5.88-20.49-8.74-35.43-7.56-41.58,3.28-89.84,36.46-107.79,74.11-6.17,12.94-8,24.72-6,34.48h-3.33l8.31,11.93.11.15.33.48v0C261.2,612.78,276.21,618.71,296.66,617.1Z"/><ellipse class="cls-11" cx="320.89" cy="537.03" rx="92.5" ry="53.4" transform="translate(-247.8 276.32) rotate(-34.51)"/><path class="cls-10" d="M294.88,589.6c41.58-3.28,89.84-36.46,107.79-74.11,9-18.86,8.67-35.26.88-46.53h0l-8.18-11.76-.06,3.61c-8.46-5.87-20.49-8.73-35.43-7.55-41.58,3.28-89.84,36.46-107.79,74.11-6.17,12.94-8,24.72-6,34.48l-3.33,0,8.31,11.94.1.15.34.48v0C259.42,585.28,274.43,591.21,294.88,589.6Z"/><ellipse class="cls-11" cx="319.1" cy="509.54" rx="92.5" ry="53.4" transform="translate(-232.53 270.47) rotate(-34.51)"/><path class="cls-10" d="M321.24,547.44C362.82,544.16,411.08,511,429,473.33c9-18.86,8.67-35.26.88-46.53h0L421.73,415l-.06,3.61c-8.46-5.87-20.49-8.73-35.43-7.55-41.58,3.28-89.84,36.46-107.79,74.11-6.17,12.93-7.95,24.72-5.95,34.48l-3.33,0,8.31,11.94.1.14.34.49v0C285.78,543.12,300.79,549.05,321.24,547.44Z"/><ellipse class="cls-11" cx="345.46" cy="467.38" rx="92.5" ry="53.4" transform="translate(-204.01 277.98) rotate(-34.51)"/><path class="cls-10" d="M286.15,518.65c41.58-3.28,89.84-36.46,107.79-74.11,9-18.87,8.67-35.27.89-46.53h0l-8.19-11.76-.05,3.61c-8.47-5.88-20.49-8.74-35.43-7.56-41.58,3.28-89.84,36.46-107.79,74.11-6.17,12.94-8,24.72-6,34.48h-3.33l8.31,11.93.11.15.33.48v0C250.69,514.33,265.7,520.26,286.15,518.65Z"/><ellipse class="cls-11" cx="310.38" cy="438.58" rx="92.5" ry="53.4" transform="translate(-193.87 253.04) rotate(-34.51)"/><path class="cls-10" d="M316.49,471.76c41.58-3.28,89.84-36.46,107.79-74.11,9-18.87,8.67-35.27.89-46.53h0L417,339.36l-.06,3.61c-8.47-5.88-20.49-8.74-35.43-7.56-41.58,3.28-89.84,36.46-107.79,74.11-6.17,12.94-8,24.72-6,34.48h-3.32l8.31,11.93.1.15.34.48v0C281,467.44,296.05,473.37,316.49,471.76Z"/><ellipse class="cls-11" cx="340.72" cy="391.69" rx="92.5" ry="53.4" transform="translate(-161.96 261.98) rotate(-34.51)"/><path class="cls-10" d="M321.44,436.91c41.58-3.28,89.84-36.46,107.79-74.11,9-18.86,8.67-35.26.88-46.53h0l-8.18-11.76-.05,3.61c-8.47-5.87-20.5-8.73-35.44-7.55-41.58,3.28-89.84,36.46-107.79,74.11-6.17,12.93-7.95,24.72-5.95,34.47h-3.33l8.31,11.94.1.14.34.49v0C286,432.59,301,438.52,321.44,436.91Z"/><ellipse class="cls-11" cx="345.66" cy="356.85" rx="92.5" ry="53.4" transform="translate(-141.35 258.65) rotate(-34.51)"/><path class="cls-12" d="M416.58,543.11s-36.27-13.35-40.47-12.82-2.42,2.6-2.42,2.6-1.77-.85-16.09,11.89-29.71,11.77-29.71,11.77-12.46-19.83-12.46-20.74,12.46-19.94,12.46-19.94,51.21-1.49,53,0,35.73,1.5,35.73,1.5l9.3,22Z"/><path class="cls-12" d="M258.7,522.38s-11.93,31.92,1.51,46.85l13.43,14.93,43.74,29.06-52.95,16.09-18-33.58L228.35,545.1l-10.68-30.65,22.76-3.05Z"/><polygon class="cls-9" points="651.32 408.59 497.53 410.58 549.24 605.47 550.21 633.79 618.09 594.24 662.46 442.84 651.32 408.59"/><path class="cls-13" d="M624.28,502.28c2.58-2.24,3.77-5.64,4.85-8.88l20.76-62c3.07-9.16,1.84-20.83-10.34-20.83-14.65,0-65.44-8-74,5.08-2.11,3.2-2.82,7.1-3.49,10.87l-10.74,60.66c-5.12,28.92,43.45,18.17,59.84,18.24,1.67,0,3.4,0,5.09-.17A14,14,0,0,0,624.28,502.28Zm-90.86-91.7H445.61a12.5,12.5,0,0,0-12.5,12.5v69.75a12.5,12.5,0,0,0,12.5,12.5h75.44A12.51,12.51,0,0,0,533.36,495l12.36-69.75A12.5,12.5,0,0,0,533.42,410.58Zm-129.34,0H316.76a12.51,12.51,0,0,0-12.32,14.65L316.62,495a12.49,12.49,0,0,0,12.31,10.35h75.15a12.5,12.5,0,0,0,12.5-12.5V423.08A12.5,12.5,0,0,0,404.08,410.58Zm-129.47,0h-64.3A12.48,12.48,0,0,0,198.47,427c3.58,10.8,7.12,21.6,10.77,32.4l12.62,37.42a12.51,12.51,0,0,0,11.85,8.51H287a12.51,12.51,0,0,0,12.31-14.69L286.92,420.9A12.5,12.5,0,0,0,274.61,410.58ZM233.13,530c6.3,19.42,12.86,38.84,19.42,58.26l6.6,19.8A12.5,12.5,0,0,0,271,616.6h35.4a12.49,12.49,0,0,0,12.3-14.67l-11-62.49-1.17-7.11a12.49,12.49,0,0,0-12.33-10.47H230.24Zm171,86.6a12.5,12.5,0,0,0,12.5-12.5V534.36a12.5,12.5,0,0,0-12.5-12.5H336.24a12.51,12.51,0,0,0-12.31,14.7h0l12.35,69.72a12.5,12.5,0,0,0,12.31,10.32Zm97.28,0a12.49,12.49,0,0,0,12.31-10.32L526,536.56l0-.22a12.5,12.5,0,0,0-12.34-14.48h-68.1a12.5,12.5,0,0,0-12.5,12.5V604.1a12.5,12.5,0,0,0,12.5,12.5Zm77.34,0a12.48,12.48,0,0,0,11.84-8.51c2.22-6.61,4.48-13.22,6.86-19.83,6.3-19.42,12.86-38.84,19.42-58.26l2.63-8.14H555.64a12.51,12.51,0,0,0-12.31,10.3l-1.3,7.28-11,62.49a12.49,12.49,0,0,0,12.3,14.67ZM696.65,387c-15.85,51.27-35,101.44-51.74,152.41-8,24.21-16,47.63-22.35,72.27-3.36,13-9.86,26.56-22.13,32-21.13,9.46-53.79,3.1-76.38,3.07l-85.8-.11-167.85-.21c-8,0-16.18-.07-23.53-3.15-15.76-6.62-15.11-25.47-20.09-39.33q-9.81-27.3-19.64-54.61c-7.49-20.81-12.61-37.46-21.72-65.48-8.48-24.64-17.73-49.15-25.47-74-6.38-20.5-.95-29.12,22.22-29.12l259.84.1,129.93,0,66.82,0c18.15,0,35.76-2.31,53.94,0,1.53.2,3.25.54,4,1.86S697.08,385.65,696.65,387Z"/><path class="cls-13" d="M526.28,646.26v77.16a22.85,22.85,0,0,0,22.83,22.83h.27a22.85,22.85,0,0,0,22.83-22.83V646.26Z"/><path class="cls-14" d="M549.38,707.93a47.51,47.51,0,1,0,47.5,47.51,47.55,47.55,0,0,0-47.5-47.51Z"/><path class="cls-15" d="M549.38,741.79a13.78,13.78,0,0,0-13.91,13.65,13.78,13.78,0,1,0,27.55,0,13.72,13.72,0,0,0-13.64-13.65Z"/><path class="cls-13" d="M295.33,646.26v77.16a23.06,23.06,0,0,0,23.09,22.83h0a22.85,22.85,0,0,0,22.84-22.83V646.26Z"/><path class="cls-14" d="M318.42,707.93a47.51,47.51,0,1,0,47.51,47.51,47.55,47.55,0,0,0-47.51-47.51Z"/><path class="cls-15" d="M318.42,741.79a13.78,13.78,0,0,0-13.91,13.65,14,14,0,0,0,13.91,13.91,13.78,13.78,0,0,0,13.65-13.91,13.56,13.56,0,0,0-13.65-13.65Z"/><rect class="cls-13" x="341.26" y="675.92" width="185.02" height="18.11"/><path class="cls-13" d="M662.71,473c2.38-5.67,6.34-9.14,8.18-15.08,9.35-30.25,21.77-58.84,31.12-89.09,3.63-11.75,7.35-23.69,14.25-33.86s17.58-18.52,29.82-19.58c13.39-1.17,52.23,16.44,54.17-7.84,1.85-23.2-40.8-20.15-54.17-21-13.66-.88-28.5-1-39.61,7-10.24,7.36-15,20-19.26,31.84C671.89,368.3,659.62,415.07,644.3,458c-3.58,10-9.2,19.56-.37,25.48,6.21,4.16,12.61-1.24,17.78-6.63C662.59,475.89,661.87,475,662.71,473Z"/><path class="cls-14" d="M805,267.81a37.4,37.4,0,1,0,37.53,37.27A37.25,37.25,0,0,0,805,267.81Z"/></svg>