<svg id="Layer_1" data-name="Layer 1" xmlns="http://www.w3.org/2000/svg" viewBox="0 0 1000 1000"><defs><style>.cls-1{fill:#999892;}.cls-2{fill:#1d2a4c;}.cls-3{fill:#a7d8e7;}.cls-4{fill:#081528;}.cls-5{opacity:0.5;}.cls-6{fill:#eb7539;}.cls-7{fill:#4b556f;}.cls-8{fill:#59b5d1;}.cls-9{fill:#172844;}</style></defs><ellipse class="cls-1" cx="214.94" cy="786.41" rx="35.72" ry="11.31"/><ellipse class="cls-1" cx="564.35" cy="785.07" rx="240.77" ry="16.38"/><path class="cls-2" d="M737.81,689.57q-1.42-247.85,4.53-495.66a8.06,8.06,0,0,0-8-8.27c-153.92-1.8-309.63-2.16-465.74-1.5a8.09,8.09,0,0,0-8.05,8.18q1.91,172.56-.52,345.14c-1,70-.82,145.61,40.53,202.09,5.38,7.35,11.44,14.3,18.72,19.77,21.73,16.32,51.44,17.5,80.55,11.47,60.44-10.75,122.79-4.63,183.52-13.64,27.56-4.08,54.57-11.25,81.42-18.7,26.46-7.33,54.38-15.91,71.88-44.68A8,8,0,0,0,737.81,689.57Z"/><path class="cls-3" d="M316.88,762.56c-6.79-5.1-13-11.65-19.56-20.61C254,682.72,255.1,602.15,256,537.41c1.65-117.15,1.79-236,.42-353.19a4,4,0,0,1,4-4.1c172.87-.77,330.58-.26,482.12,1.56a4.09,4.09,0,0,1,2.87,1.24,4,4,0,0,1,1.13,2.91c-4.12,167.87-5.7,338.1-4.71,506a4,4,0,0,1-.54,2c-18.82,32.82-50.23,41.53-75.46,48.52-26.13,7.25-54,14.66-81.9,18.8-28.94,4.29-58.6,5.19-87.29,6.06-31.73.95-64.54,1.94-96,7.54a153.58,153.58,0,0,1-31.13,3.41C348.55,778.17,330.66,772.91,316.88,762.56Zm401.79-573c-140.93-1.56-287.55-2-447-1.33a7,7,0,0,0-7,7.06c1.24,113.68,1,228.77-.54,342.28-.9,63.53-2,142.6,39.74,199.64,6.07,8.3,11.76,14.31,17.89,18.92,23.07,17.33,54.76,15.41,77.4,10.72,32.17-5.72,65.28-6.72,97.3-7.69,28.45-.86,57.87-1.75,86.34-6,27.49-4.07,54-11.12,80.93-18.59,23.08-6.4,51.64-14.32,69-42.1a6.88,6.88,0,0,0,1-3.7c-.91-159,.5-320.13,4.17-479.32A19.47,19.47,0,0,0,718.67,189.51Z"/><path class="cls-2" d="M322.67,761.89c9.27,5.23,21.38,3.31,30.23-2.61s14.9-15.2,19.48-24.82c7.64-16,11.81-33.71,13.65-51.79a14.61,14.61,0,0,1,14.06-13c133.05-4.56,269.5-6,401.5-6.15a14.69,14.69,0,0,1,14.64,15.67c-5.08,77.53-47.67,93.5-62,93.51-72.3.07-230.94,2.1-345.24,3.13C379.83,776.06,349.54,776.09,322.67,761.89Z"/><path class="cls-3" d="M322.31,766.26c-.5-.24-1-.49-1.48-.76a4.17,4.17,0,0,1-2-4.92,4.07,4.07,0,0,1,5.74-2.28c.42.23.85.45,1.27.66,7.17,3.37,16.94,2.21,24.81-3.05,6.93-4.63,12.84-12.22,18.06-23.19,8.31-17.44,13.09-38.57,14.2-62.8a4,4,0,0,1,3.9-3.86c124.05-4.46,264.68-6.63,429.93-6.63a4.05,4.05,0,0,1,4,4.06c0,92.83-48,113.21-66.51,113.23-47.74,0-134.58,1-218.56,1.85-43.92.47-87.84.93-126.66,1.28-3.68,0-7.43.06-11.22.06C373.14,779.91,346.43,778.5,322.31,766.26ZM390.8,674c-1.46,23.76-6.42,44.67-14.76,62.18-5.88,12.32-12.71,21-20.89,26.44a38.22,38.22,0,0,1-8.2,4.18c20.52,5.28,42.23,5.09,62,4.91,38.81-.34,82.73-.81,126.64-1.27,84-.89,170.86-1.81,218.64-1.85,14.91,0,57-18.75,58.38-101.08C650.9,667.57,512.82,669.7,390.8,674Z"/><path class="cls-3" d="M331.89,594.3,278.77,700.91c-9.35,18.77-18.72,37.58-30,54.94-6.07,9.37-13.2,18.7-23.3,22.18s-23.78-1.35-27.63-12.79c-3-8.93.68-18.21,4.35-26.27q40.72-89.41,89.49-173.54C304.46,574.94,317.21,584.44,331.89,594.3Z"/><path class="cls-3" d="M206.42,780.35A24,24,0,0,1,194,766.53c-3.46-10.27.51-20.48,4.5-29.24,27.1-59.49,57.27-118,89.67-173.89a4.05,4.05,0,0,1,5.93-1.22c12.48,9.3,25.39,18.92,40,28.75a4.07,4.07,0,0,1,1.36,5.18L282.4,702.72c-9.25,18.56-18.81,37.76-30.2,55.34-6.52,10.07-14.11,19.92-25.38,23.8h0A27.19,27.19,0,0,1,206.42,780.35Zm86.52-209c-31.41,54.48-60.68,111.4-87,169.25-3.5,7.69-6.71,15.83-4.2,23.29a16,16,0,0,0,8.29,9.14,18.89,18.89,0,0,0,14.17,1.12h0c9-3.08,15.49-11.7,21.23-20.55,11.14-17.19,20.6-36.18,29.75-54.55l51.52-103.43C314.5,587.38,303.52,579.28,292.94,571.4Z"/><path class="cls-3" d="M224.88,486.05a176.51,176.51,0,0,0,231.55,113c86.43-32.86,133.11-128.52,105.83-216.87a176.51,176.51,0,0,0-231.55-113C244.29,302,197.6,397.7,224.88,486.05Zm44.37-1.78a134.06,134.06,0,0,1,87.36-179c65.53-18.9,135.86,15.43,161.29,78.71a134.08,134.08,0,0,1-87.37,179C365,581.87,294.67,547.55,269.25,484.27Zm0,0a134.06,134.06,0,0,1,87.36-179c65.53-18.9,135.86,15.43,161.29,78.71a134.08,134.08,0,0,1-87.37,179C365,581.87,294.67,547.55,269.25,484.27Z"/><path class="cls-3" d="M222.84,492.86c-32.39-94.15,17.85-197.09,112-229.48s197.08,17.85,229.47,112-17.84,197.09-112,229.48S255.23,587,222.84,492.86Zm7.66-2.64c30.94,89.92,129.26,137.9,219.18,107s137.9-129.26,107-219.17-129.26-137.9-219.18-107S199.57,400.3,230.5,490.22ZM263,479.05c-24.78-72,13.65-150.75,85.66-175.53s150.75,13.65,175.53,85.66-13.65,150.75-85.66,175.53S287.75,551.06,263,479.05Zm88.3-167.87c-67.79,23.33-104,97.45-80.64,165.23s97.44,104,165.23,80.63,104-97.44,80.63-165.22A130.14,130.14,0,0,0,351.28,311.18Z"/><circle class="cls-4" cx="393.57" cy="434.11" r="129.13"/><path class="cls-5" d="M348.42,766.26s24.94,7.31,83.88,4.69l323.43-2.9s16.27-2,24.56-10.19c0,0-331.64-17.06-408.51-11.84l-3.46,4.92a45.9,45.9,0,0,1-13.68,12.39Z"/><path class="cls-5" d="M572.75,456.17s3.71,146.82-162.88,168c0,0-50.45,3.77-77.28-9.48l-39.88,105-9.21-19.16L331.57,604s58.49,23.71,120.75.83S566.43,525.52,572.75,456.17Z"/><path class="cls-5" d="M382.91,669.92s-12.77,58.71-32.66,77c0,0-11,11.49-23.58,7l-12.59-4.55S328.68,767,345,758.87c0,0,18.68-7.52,26.2-31.72S382.91,669.92,382.91,669.92Z"/><polygon class="cls-5" points="263.74 559.57 281.28 575.44 264.75 605.01 263.74 559.57"/><path class="cls-3" d="M524.17,388.26a463.5,463.5,0,0,1,47.78-5.1q23.89-1.43,47.78-1.4t47.78,1.39a458.53,458.53,0,0,1,47.79,5.11,455.87,455.87,0,0,1-47.79,5.12q-23.88,1.42-47.78,1.38T572,393.36A463.5,463.5,0,0,1,524.17,388.26Z"/><path class="cls-3" d="M523.58,449.7a466.66,466.66,0,0,1,47.93-5.1q24-1.43,47.93-1.4t47.93,1.39a461.46,461.46,0,0,1,47.93,5.11,458.78,458.78,0,0,1-47.93,5.12q-24,1.43-47.93,1.38t-47.93-1.4A466.66,466.66,0,0,1,523.58,449.7Z"/><path class="cls-3" d="M308.43,494.37q-2.69-3.83-5.05-7.92A107.62,107.62,0,0,1,396.58,325V432.64Z"/><path class="cls-6" d="M485.89,507.58a116.58,116.58,0,0,1-184.81-8.07l95.5-66.87Z"/><path class="cls-7" d="M482,383.32a98.68,98.68,0,0,1-9.86,112.73l-75.57-63.41Z"/><path class="cls-8" d="M419.54,346.94c20.41,5.47,45,21.43,55.84,40.21l-78.8,45.49Z"/><path class="cls-9" d="M396.58,316.05a116.72,116.72,0,0,1,30.18,4L396.58,432.64Z"/><path class="cls-3" d="M552,316.06a311.88,311.88,0,0,1,39.13-5.1c13.05-1,26.1-1.4,39.14-1.41s26.09.44,39.14,1.39a308.28,308.28,0,0,1,39.13,5.12,310.07,310.07,0,0,1-39.13,5.11q-19.57,1.43-39.14,1.39c-13,0-26.09-.45-39.14-1.41A315.6,315.6,0,0,1,552,316.06Z"/></svg>