<svg xmlns="http://www.w3.org/2000/svg" width="241.673" height="94.341" viewBox="0 0 241.673 94.341">
  <g id="خلفية_شبيهة_بلون_بيمو" data-name="خلفية شبيهة بلون بيمو" transform="translate(0 0.05)">
    <path id="Path_1" data-name="Path 1" d="M120.73,31.12a26.15,26.15,0,0,0-6,0,24.76,24.76,0,0,0-9,2.63c-1.07.57-1.21,1-.74,2.06s1,2.2,1.52,3.32.91,1.24,2.16.74l.64-.26a21.339,21.339,0,0,1,2.88-1,15.11,15.11,0,0,1,7.44-.32,3,3,0,0,1,2.6,2.71,11.44,11.44,0,0,1-.38,4.1l-.73-.09-2-.24a28.77,28.77,0,0,0-10.68.55C102.31,47,99,51.32,99.57,57A8.08,8.08,0,0,0,102,62a13.324,13.324,0,0,0,9,3.61h2a44.63,44.63,0,0,0,12.72-2,2,2,0,0,0,1.6-1.78c.44-2.56.9-5.12,1.35-7.68s.91-5.13,1.36-7.69l.08-.45a23.719,23.719,0,0,0,.5-5C130.37,35.61,126.59,31.83,120.73,31.12Zm0,20.33-1.1,6.64-.4.08L118,58.4a26.55,26.55,0,0,1-6,.36,6.24,6.24,0,0,1-2.9-.85,2.45,2.45,0,0,1-1.27-2c-.19-2.3,1-3.85,3.4-4.48a16,16,0,0,1,4-.47,17.594,17.594,0,0,1,2.24.09c.68.09,1.48.15,2.27.25Z" fill="#001689"/>
    <path id="Path_2" data-name="Path 2" d="M231.55,31.12a27.06,27.06,0,0,0-8.1.29,22.64,22.64,0,0,0-7.12,2.45c-.68.38-1.06.81-.68,1.7.5,1.2,1.09,2.49,1.81,4,.41.83,1,.74,1.6.53.25-.09.49-.2.74-.31l.28-.13a17.21,17.21,0,0,1,5.07-1.5,15.52,15.52,0,0,1,5.21.11,3,3,0,0,1,2.58,2.52,9.55,9.55,0,0,1-.35,4.36l-.67-.09L230,44.77a29.09,29.09,0,0,0-10.68.54c-6.24,1.62-9.59,6-9,11.77a8,8,0,0,0,2.36,4.85c2.24,2.24,5.22,3.43,9.11,3.65h1.91a45,45,0,0,0,12.69-2,2.11,2.11,0,0,0,1.66-1.86c.47-2.77,1-5.53,1.45-8.29.41-2.32.83-4.65,1.23-7l.09-.49a23,23,0,0,0,.51-5.08C241.1,35.61,237.35,31.86,231.55,31.12Zm-.09,20.33-1.08,6.7-1.23.18c-1.1.16-2.14.31-3.2.39a12.35,12.35,0,0,1-4.45-.18,8.559,8.559,0,0,1-1.63-.66,2.25,2.25,0,0,1-1.24-2c-.18-2.29,1-3.84,3.41-4.47a16.35,16.35,0,0,1,4-.46,18,18,0,0,1,2.26.09c.69.09,1.49.16,2.28.26Z" fill="#001689"/>
    <path id="Path_3" data-name="Path 3" d="M175.35,31.27a18.52,18.52,0,0,0-10.16.52c-6,2-9.56,5.86-10.63,11.48-.5,2.65-1,5.28-1.38,7.74a13.44,13.44,0,0,0,0,5.41,10.77,10.77,0,0,0,4.77,6.95,15.15,15.15,0,0,0,8.17,2.26h0c.5-.07,1-.12,1.5-.17A28.378,28.378,0,0,0,171,65c6.38-1.48,10.28-5.16,11.61-10.93.46-2,.82-4,1.18-6,.15-.85.3-1.69.46-2.54a14.23,14.23,0,0,0,.23-4.69,11.52,11.52,0,0,0-9.13-9.57Zm-14,22.84v-.43l-.05-.18.16-1c.13-.89.27-1.77.43-2.65.36-2.09.73-4.25,1.14-6.36.77-4,4.54-6.28,9.18-5.6a4.47,4.47,0,0,1,3.85,4.23,9.09,9.09,0,0,1-.16,2.22l-.31,1.85c-.39,2.34-.8,4.76-1.33,7.11-.67,3-3.07,4.89-6.42,5.1a16.46,16.46,0,0,1-2.54,0,4.06,4.06,0,0,1-3.85-3.48,7.561,7.561,0,0,1-.08-.81Z" fill="#001689"/>
    <path id="Path_4" data-name="Path 4" d="M153,30.84c-.3-.34-.84-.37-1.64-.37h-5.11l1-7a1.41,1.41,0,0,0-.18-1.09.87.87,0,0,0-.7-.31h-5.64c-1,0-1.24.51-1.4,1.4l-.88,4.86c-.33,1.87-1,5.55-1.29,7.42l-1.27,7c-.56,3.09-1.13,6.19-1.68,9.28a15.66,15.66,0,0,0-.24,6.43,8.7,8.7,0,0,0,6.43,6.7,14.79,14.79,0,0,0,4.23.54c.69,0,1.4,0,2.15-.07,1-.06,1.34-.36,1.54-1.38.26-1.31.83-5.07.83-5.11l.05-.35h-2.9a12.65,12.65,0,0,1-1.75-.15,2.51,2.51,0,0,1-2.33-2.45,12.45,12.45,0,0,1,.13-2.69c.58-3.46,1.2-7,1.8-10.37l.68-4.09c.07-.42.17-.85.27-1.28l.09-.41h5.32c1.51,0,1.73-.18,2-1.53.18-1,.42-2.19.62-3.43C153.2,31.69,153.26,31.17,153,30.84Z" fill="#001689"/>
    <path id="Path_5" data-name="Path 5" d="M212.16,37.76c.24-1.21.48-2.48.71-3.88a1.53,1.53,0,0,0-.16-1.22,1.72,1.72,0,0,0-1.2-.53c-.77-.11-1.54-.19-2.32-.26l-.52-.06A29.94,29.94,0,0,0,194.27,34a2,2,0,0,0-1.36,1.69l-1,5.47-.76,4.25c-.51,2.83-1,5.67-1.51,8.5-.6,3.38-1.2,6.76-1.78,10.14a1.51,1.51,0,0,0,.16,1.23,1.36,1.36,0,0,0,1.05.37h5.71a1.23,1.23,0,0,0,1.31-1.06l.05-.26.09-.42.44-2.55,1-6c.64-3.63,1.28-7.26,1.93-10.93l.84-4.76h.12l.51-.19a14,14,0,0,1,4.54-.61c1.45,0,2.87.14,4.56.29C211.52,39.19,211.89,39,212.16,37.76Z" fill="#001689"/>
    <path id="Path_6" data-name="Path 6" d="M102.55,22.24H75.59c-1.37,0-1.74.31-2,1.64s-.34,1.9-.48,2.58-.23,1.18-.42,2.28c-.46,2.6-.89,4.84-1.32,7.09s-.84,4.4-1.29,6.93L68.9,49.61c-.05.28-.34,2.13-.39,2.51s-.13.76-.2,1.14q-.94,5.34-1.87,10.67a1.58,1.58,0,0,0,.17,1.29,1.4,1.4,0,0,0,1.1.39h6.01A1.29,1.29,0,0,0,75.1,64.5h0a.84.84,0,0,0,.05-.17,3.414,3.414,0,0,1,.1-.54l.46-2.67c.37-2.1.73-4.2,1.1-6.3.23-1.3.69-4.12.92-5.42.12-.64.24-1.29.37-2l.22-1.21H94.86c1.62,0,1.91-.23,2.19-1.77.08-.43.17-.86.25-1.29.14-.74.29-1.49.41-2.24s.22-1.41-.09-1.77-.85-.43-1.81-.42H79.62c.38-2.05.64-3.29.9-4.5s.53-2.45.9-4.5h19.35c1.45,0,1.82-.3,2-1.67.09-.54.19-1.08.29-1.63s.19-1,.28-1.56.15-1.05.18-1.52a1,1,0,0,0-.97-1.08Z" fill="#001689"/>
    <path id="Path_7" data-name="Path 7" d="M75.26,16.06A4.84,4.84,0,0,1,73.33,18a5.26,5.26,0,0,1-5.21,0,4.84,4.84,0,0,1-1.93-1.93,5.18,5.18,0,0,1,0-5.22,4.82,4.82,0,0,1,2-1.94,5.33,5.33,0,0,1,2.57-.67,5.39,5.39,0,0,1,2.57.67,4.85,4.85,0,0,1,2,1.94,5.25,5.25,0,0,1,0,5.22Zm-.76-4.79a4,4,0,0,0-1.63-1.61,4.32,4.32,0,0,0-4.29,0A4,4,0,0,0,67,11.27a4.44,4.44,0,0,0-.59,2.19,4.32,4.32,0,0,0,.58,2.16,4.2,4.2,0,0,0,1.62,1.62,4.33,4.33,0,0,0,4.33,0,4.07,4.07,0,0,0,1.62-1.62,4.4,4.4,0,0,0,0-4.35Zm-2.08,3.54a11,11,0,0,0,.44,1.61h-.78A8.14,8.14,0,0,1,71.7,15c-.17-.81-.49-1.11-1.18-1.14h-.71V16.4h-.75V10.65a8.54,8.54,0,0,1,1.44-.13,2.4,2.4,0,0,1,1.7.49,1.44,1.44,0,0,1,.46,1.11,1.53,1.53,0,0,1-1.1,1.48h0a1.48,1.48,0,0,1,.86,1.21ZM71.9,12.2c0-.76-.54-1.09-1.34-1.09a3.44,3.44,0,0,0-.75.07v2.13h.77C71.39,13.31,71.9,12.87,71.9,12.2Z" fill="#001689" fill-rule="evenodd"/>
    <path id="Path_8" data-name="Path 8" d="M241.63,7.81a4.78,4.78,0,0,0-3.49-4.16A6.5,6.5,0,0,0,233.8,4a6.38,6.38,0,0,0-4.05,4.84c-.21,1.1-.34,2-.51,3a3.82,3.82,0,0,0-.07,1.79,5.709,5.709,0,0,0,.41.9h-6.27a4.36,4.36,0,0,1-.52,0,1,1,0,0,1-.93-1,5.809,5.809,0,0,1,.07-1.12C222.23,10.55,224,.65,224,.65a.44.44,0,0,0-.09-.36.31.31,0,0,0-.25-.1h-2.3c-.41,0-.48.2-.54.56-.12.65-1.86,9.73-2.09,11a6.72,6.72,0,0,0-.12,2.66,3.47,3.47,0,0,0,2.52,2.76,5.73,5.73,0,0,0,1.69.22h11.63a9.48,9.48,0,0,0,1.86-.27A5.77,5.77,0,0,0,241,12.56c.19-.82.48-2.46.55-2.82a6,6,0,0,0,.08-1.93Zm-3.39,1.47c0,.26-.33,2-.55,3a2.53,2.53,0,0,1-2.43,2.15,7.74,7.74,0,0,1-1.19,0,1.65,1.65,0,0,1-1.53-1.46v-.52h0c0-.1.42-2.69.58-3.5a2.81,2.81,0,0,1,3.7-2.34,1.91,1.91,0,0,1,1.53,1.78,3.838,3.838,0,0,1-.11.89Z" fill="#001689"/>
    <path id="Path_9" data-name="Path 9" d="M216.65,4.76h-2.3c-.37,0-.47.41-.47.43s-1.13,5.31-1.48,7.06a7,7,0,0,1-.36,1.13,1.75,1.75,0,0,1-1.36,1.07,4.49,4.49,0,0,1-.73.06H208.6c.42-2.22.93-5,.93-5s.05-.37.09-.55a6,6,0,0,0,.11-1.94,4.59,4.59,0,0,0-3.55-3.94,7.18,7.18,0,0,0-4.05.21,6,6,0,0,0-4.27,4.75c-.21,1.08-.41,2.18-.59,3.21a6,6,0,0,0,0,2.23,4.4,4.4,0,0,0,1.86,2.87,5.74,5.74,0,0,0,3.24.93h0a8.2,8.2,0,0,0,2-.28,3.33,3.33,0,0,0,.45-.13h0a2.69,2.69,0,0,1-2.6,2.13,5.78,5.78,0,0,1-1,0,1.73,1.73,0,0,1-1.11-.54c-.13-.15-.42-.58-.42-.58L196.9,19.4l-.09.05.05.08a4.17,4.17,0,0,0,1.39,1.58,5.8,5.8,0,0,0,3.24.94,9.78,9.78,0,0,0,1.92-.28,5.79,5.79,0,0,0,4.64-4.44h1.62a6.29,6.29,0,0,0,1.76-.22A5.76,5.76,0,0,0,215,14.39a7.93,7.93,0,0,0,.86-2.65c.23-1.23.58-3.11.89-4.81.26-1.43.19-.92.32-1.58V4.88a.41.41,0,0,0-.42-.12Zm-13.6,9.64a5.67,5.67,0,0,1-1,0,1.64,1.64,0,0,1-1.53-1.46q0-.18,0-.36a1.314,1.314,0,0,1,0-.17c0-.1.55-3.39.71-4.22a3.07,3.07,0,0,1,3.71-2.35,1.82,1.82,0,0,1,1.52,1.78,3.42,3.42,0,0,1-.07.93c0,.26-.48,2.75-.7,3.72a2.68,2.68,0,0,1-2.64,2.13Z" fill="#001689"/>
    <path id="Path_10" data-name="Path 10" d="M195.1,3.05h-2.41c-.24,0-.46.4-.47.42S189.67,16.68,189.61,17A2.69,2.69,0,0,1,187,19.1a5.78,5.78,0,0,1-1,0,1.7,1.7,0,0,1-1-.43,7.671,7.671,0,0,1-.62-.75l-2.79,1.45v.08a4.19,4.19,0,0,0,1.43,1.66,5.73,5.73,0,0,0,3.25.93,9.24,9.24,0,0,0,1.91-.27,5.77,5.77,0,0,0,4.66-4.51c.12-.52,2.45-12.83,2.59-13.61,0-.22.05-.37,0-.48A.47.47,0,0,0,195.1,3.05Z" fill="#001689"/>
    <path id="Path_11" data-name="Path 11" d="M237.44,3.37a1.72,1.72,0,0,0,1.73-1.69,1.73,1.73,0,1,0-3.46,0,1.71,1.71,0,0,0,1.73,1.69Z" fill="#001689"/>
    <path id="Path_12" data-name="Path 12" d="M212.12,3.58a1.7,1.7,0,0,0,1.73-1.68,1.73,1.73,0,1,0-3.46,0A1.71,1.71,0,0,0,212.12,3.58Z" fill="#001689"/>
    <path id="Path_13" data-name="Path 13" d="M216,.17a1.71,1.71,0,0,0-1.73,1.68,1.73,1.73,0,1,0,3.46,0A1.71,1.71,0,0,0,216,.17Z" fill="#001689"/>
    <path id="Path_14" data-name="Path 14" d="M187.35,12.56c.19-.82.62-3.18.69-3.54a6.36,6.36,0,0,0,.12-1.94,4.62,4.62,0,0,0-3.56-3.94,7.44,7.44,0,0,0-4,.21,6,6,0,0,0-4.27,4.75c-.21,1.1-.41,2.23-.59,3.21a6,6,0,0,0,0,2.23,4.4,4.4,0,0,0,1.86,2.87,5.74,5.74,0,0,0,3.24.93h0a9.06,9.06,0,0,0,1.92-.27,5.79,5.79,0,0,0,4.59-4.51Zm-6.89,1.84a1.64,1.64,0,0,1-1.53-1.46v-.35a1,1,0,0,1,0-.17h0c0-.1.56-3.42.72-4.22a3.05,3.05,0,0,1,3.7-2.35,1.82,1.82,0,0,1,1.52,1.78,3.42,3.42,0,0,1-.07.93c-.05.27-.48,2.75-.7,3.72a2.68,2.68,0,0,1-2.6,2.13A5.67,5.67,0,0,1,180.46,14.4Z" fill="#001689"/>
    <path id="Path_15" data-name="Path 15" d="M43,19.62a6.3,6.3,0,0,0-4-5.57C38.7,13.94,9.1,2.23,6.54,1.31l-.26-.09C4,.4,3,0,2.19.14h0C1.83.19,0,.62,0,4V34a8.5,8.5,0,0,0,3.22,6.46l20.92-8.15L2.65,23.27a1.46,1.46,0,0,1-.81-.81,1.515,1.515,0,0,1,.81-1.97,1.53,1.53,0,0,1,1.15,0L28.22,30.63c1.66-.67,8.34-3.36,11.83-5.28A6.21,6.21,0,0,0,43,19.62Zm-5.47,2.94a1.49,1.49,0,0,1-1.39.93,1.39,1.39,0,0,1-.57-.12L2.65,9.73a1.5,1.5,0,0,1-.81-2A1.46,1.46,0,0,1,2.65,7,1.44,1.44,0,0,1,3.8,7L36.67,20.59a1.53,1.53,0,0,1,.82.82,1.48,1.48,0,0,1-.01,1.15Z" fill="#00a0df"/>
    <path id="Path_16" data-name="Path 16" d="M0,51.46V80.25c0,1.52.39,2.55,1.16,3.07,1,.63,2.55.51,4.63-.36.27-.1,27-10.07,30.54-11.74l.64-.3c3.46-1.6,7-3.27,7-9.6V25.73a14.45,14.45,0,0,1-5,3.9c-.28.13-28.83,11.07-33.16,12.84S0,46.66,0,51.46Z" fill="#00bed6"/>
    <path id="Path_17" data-name="Path 17" d="M74.68,85.67H68.5v.05a1.76,1.76,0,0,0,2,2.22c1.39,0,2.71-.09,3.52-.15h0c.19,0,.33.09.31.26l-.17,1.14c0,.28-.11.4-.46.45a19.06,19.06,0,0,1-3.72.27c-1.89,0-4.45-1-4-4.37l.19-1.29a4.81,4.81,0,0,1,5.17-4.36c2.92,0,4.25,1.85,3.89,4.42l-.14,1A.362.362,0,0,1,74.68,85.67ZM72.78,84c.19-1.35-.51-2.13-1.69-2.14a2.28,2.28,0,0,0-2.33,2.12V84h4Z" fill="#00a0df"/>
    <path id="Path_18" data-name="Path 18" d="M81.81,85c-.49,0-1.24-.06-1.67-.08l-.65,4.52a.4.4,0,0,1-.41.34H77.19a.31.31,0,0,1-.33-.35l1.69-11.91c0-.34.3-.46.68-.51a29.351,29.351,0,0,1,3.75-.2c2.92,0,5.33,1,4.89,4v.16C87.41,84.06,84.73,85,81.81,85Zm3.45-4.18c.2-1.46-.67-2-2.56-2a15.631,15.631,0,0,0-1.7.06L80.42,83c.3,0,1.35.06,1.67.06,2,0,3-.67,3.14-2.06Z" fill="#00a0df"/>
    <path id="Path_19" data-name="Path 19" d="M96.49,89.59a18.21,18.21,0,0,1-3.87.43c-3.05,0-4.3-1.67-3.91-4.37l.19-1.34C89.28,81.61,91,80,94.05,80a16.51,16.51,0,0,1,3.74.48c.42.1.48.21.45.47l-1.17,8.18C97,89.39,96.94,89.49,96.49,89.59ZM95.58,82a11.411,11.411,0,0,0-1.8-.13c-1.63,0-2.18,1-2.38,2.46l-.19,1.33c-.2,1.42.05,2.48,1.68,2.49A11.225,11.225,0,0,0,94.721,88Z" fill="#00a0df"/>
    <path id="Path_20" data-name="Path 20" d="M103.52,93.42A12.66,12.66,0,0,1,100,93c-.26-.07-.36-.18-.32-.42l.13-.92a.37.37,0,0,1,.4-.29h0c.84.08,2.62.23,3.49.23,1.54,0,1.82-.33,2-1.52v-.14a15.691,15.691,0,0,1-1.85.17c-3,0-4.3-1.67-3.91-4.37l.74-5.21a.43.43,0,0,1,.43-.34h1.74a.31.31,0,0,1,.33.35l-.74,5.21c-.2,1.42,0,2.48,1.67,2.49A17.66,17.66,0,0,0,106,88.1l1.08-7.54a.43.43,0,0,1,.43-.35h1.74a.31.31,0,0,1,.33.35L108.29,90C107.94,92.41,106.42,93.44,103.52,93.42Z" fill="#00a0df"/>
    <path id="Path_21" data-name="Path 21" d="M124,90.09h-1.8a.31.31,0,0,1-.31-.37l.88-6.21c.17-1.18-.25-1.4-1.13-1.41h-.45c-1.1,0-1.33.54-1.45,1.39l-.89,6.21a.42.42,0,0,1-.41.36h-1.8a.31.31,0,0,1-.31-.36l.89-6.22c.12-.85,0-1.4-1-1.41h-.46c-.87,0-1.36.22-1.53,1.39l-.88,6.22a.43.43,0,0,1-.41.36h-1.78a.3.3,0,0,1-.31-.36l.88-6.21c.31-2.18,1.89-3.3,4.3-3.28h.46a3.58,3.58,0,0,1,2.4.71,4.53,4.53,0,0,1,2.62-.68h.46c2.4,0,3.66,1.15,3.35,3.33l-.88,6.21a.43.43,0,0,1-.44.33Z" fill="#00a0df"/>
    <path id="Path_22" data-name="Path 22" d="M135.75,86.08h-6.18a1.75,1.75,0,0,0,2,2.21c1.38,0,2.71-.08,3.51-.15h.06c.19,0,.33.09.3.27l-.16,1.14c0,.28-.11.4-.46.45a19.06,19.06,0,0,1-3.72.27c-1.9,0-4.45-1-4-4.38l.18-1.28a4.83,4.83,0,0,1,5.18-4.36c2.92,0,4.25,1.84,3.88,4.42l-.13,1A.455.455,0,0,1,135.75,86.08Zm-1.9-1.71a1.66,1.66,0,0,0-1.69-2.14,2.27,2.27,0,0,0-2.33,2.11v.07h4Z" fill="#00a0df"/>
    <path id="Path_23" data-name="Path 23" d="M146,90.24h-1.78a.3.3,0,0,1-.31-.36l.85-6c.12-.85,0-1.63-1.06-1.63h-1.17c-1.1,0-1.4.77-1.52,1.62l-.85,6a.43.43,0,0,1-.42.36H138a.31.31,0,0,1-.31-.36l.86-6a4,4,0,0,1,4.29-3.5H144c2.46,0,3.58,1.46,3.28,3.56l-.85,6a.43.43,0,0,1-.43.31Z" fill="#00a0df"/>
    <path id="Path_24" data-name="Path 24" d="M153.84,90.29a19,19,0,0,1-2.24.12c-1.87,0-2.91-.61-2.62-2.61l1.24-8.72c0-.19.21-.31.43-.35l1.8-.26h.06a.3.3,0,0,1,.27.35l-.24,1.69h2.67a.31.31,0,0,1,.33.35l-.15,1a.42.42,0,0,1-.42.34h-2.68l-.79,5.59c-.1.7.22.82,1,.82H154c.25,0,.39.09.37.27L154.24,90C154.22,90.15,154.09,90.26,153.84,90.29Z" fill="#00a0df"/>
    <path id="Path_25" data-name="Path 25" d="M168.84,90.25a16,16,0,0,1-3,.26c-2.27,0-5.22-1.06-4.61-5.33l.36-2.55c.62-4.34,3.85-5.27,6.12-5.26a15.126,15.126,0,0,1,3,.3c.227.069.387.159.357.4l-.17,1.16a.38.38,0,0,1-.43.36h0c-.65-.06-1.93-.15-2.93-.16-1.6,0-2.86.76-3.21,3.22l-.36,2.54c-.35,2.41.69,3.25,2.28,3.26,1,0,2.31-.07,3-.12h0c.28,0,.35.16.32.37l-.16,1.15A.788.788,0,0,1,168.84,90.25Z" fill="#00a0df"/>
    <path id="Path_26" data-name="Path 26" d="M175.51,90.57c-3,0-4.27-1.86-3.92-4.34l.2-1.4a4.82,4.82,0,0,1,5.15-4.28c3,0,4.26,1.87,3.91,4.34l-.2,1.4a4.81,4.81,0,0,1-5.14,4.28Zm2.84-5.7c.2-1.41-.37-2.34-1.7-2.34a2.36,2.36,0,0,0-2.36,2.32l-.2,1.4c-.2,1.42.37,2.34,1.7,2.35a2.35,2.35,0,0,0,2.36-2.32Z" fill="#00a0df"/>
    <path id="Path_27" data-name="Path 27" d="M195.43,90.57h-1.78a.31.31,0,0,1-.31-.36l.89-6.21c.16-1.18-.26-1.41-1.13-1.41h-.45c-1.1,0-1.33.55-1.46,1.4l-.88,6.21a.43.43,0,0,1-.41.36h-1.8a.31.31,0,0,1-.31-.37l.88-6.21c.12-.85.05-1.4-1-1.41h-.45c-.87,0-1.36.21-1.53,1.39l-.88,6.21a.44.44,0,0,1-.42.36h-1.78a.32.32,0,0,1-.31-.37l.89-6.21c.31-2.18,1.89-3.29,4.3-3.28h.45a3.56,3.56,0,0,1,2.41.7,4.44,4.44,0,0,1,2.62-.67h.45c2.41,0,3.67,1.15,3.36,3.33l-.88,6.21a.45.45,0,0,1-.47.33Z" fill="#00a0df"/>
    <path id="Path_28" data-name="Path 28" d="M202.56,90.75a14.839,14.839,0,0,1-1.8-.13l-.44,3.06a.41.41,0,0,1-.42.34h-1.75a.31.31,0,0,1-.33-.35l1.72-12c0-.26.12-.36.58-.46a18.21,18.21,0,0,1,3.87-.43c3,0,4.3,1.68,3.91,4.38l-.19,1.33C207.33,89.14,205.62,90.77,202.56,90.75Zm2.84-5.66c.2-1.42-.05-2.48-1.68-2.49a12.48,12.48,0,0,0-1.83.11l-.86,6a16.579,16.579,0,0,0,1.8.13c1.63,0,2.18-1,2.38-2.46Z" fill="#00a0df"/>
    <path id="Path_29" data-name="Path 29" d="M217.21,90.4a18.29,18.29,0,0,1-3.88.42c-3.05,0-4.29-1.67-3.91-4.37l.19-1.33c.38-2.7,2.1-4.34,5.15-4.32a16.51,16.51,0,0,1,3.74.48c.43.11.49.21.45.47l-1.17,8.18C217.75,90.19,217.66,90.3,217.21,90.4Zm-.92-7.59a11.2,11.2,0,0,0-1.8-.14c-1.63,0-2.18,1-2.38,2.46l-.19,1.34c-.2,1.42.05,2.47,1.68,2.48a12.87,12.87,0,0,0,1.84-.1Z" fill="#00a0df"/>
    <path id="Path_30" data-name="Path 30" d="M228.44,90.79h-1.78a.31.31,0,0,1-.31-.36l.85-6c.13-.85.05-1.63-1-1.63H225c-1.1,0-1.4.77-1.52,1.62l-.85,6a.42.42,0,0,1-.41.36h-1.78a.3.3,0,0,1-.31-.36l.85-6a4,4,0,0,1,4.29-3.51h1.18c2.46,0,3.58,1.46,3.29,3.56l-.86,6a.43.43,0,0,1-.44.32Z" fill="#00a0df"/>
    <path id="Path_31" data-name="Path 31" d="M235.27,94.29a12.84,12.84,0,0,1-3.49-.43c-.25-.08-.35-.18-.32-.42l.13-.92a.39.39,0,0,1,.41-.29h0c.85.07,2.63.22,3.5.23,1.54,0,1.81-.33,2-1.53v-.14a13.653,13.653,0,0,1-1.85.18c-3.05,0-4.29-1.67-3.91-4.37l.74-5.21a.43.43,0,0,1,.43-.34h1.75a.31.31,0,0,1,.33.35l-.75,5.21c-.2,1.41,0,2.47,1.68,2.48a17.521,17.521,0,0,0,1.84-.12l1.07-7.55a.43.43,0,0,1,.43-.34H241a.32.32,0,0,1,.33.35L240,90.83C239.68,93.28,238.17,94.31,235.27,94.29Z" fill="#00a0df"/>
  </g>
</svg>
