<svg id="Group_2823" data-name="Group 2823" xmlns="http://www.w3.org/2000/svg" width="267.793" height="93.979" viewBox="0 0 267.793 93.979">
  <path id="Path_551" data-name="Path 551" d="M87.349,119.575l-.824.358c-.294.13-.624.266-.988.414a10.768,10.768,0,0,1-3.964.714q-2.808,0-2.8-1.375,0-2.692,8.414-2.7h.166Zm6.91,9.934a3.327,3.327,0,0,0,2.255-.809c.037-.031.08-.062.123-.1.186-.149.417-.338.677-.55.084-.071.173-.145.266-.219,0,0,0,0,0,0l.682-.568.429-.358c.065-.053.129-.1.192-.161.027-.022.052-.04.076-.062.09-.078.18-.152.269-.226q.213-.176.417-.352l.3-.254h0l.179-.151c.22-.182.421-.352.6-.5.383-.328.652-.554.717-.609a.077.077,0,0,1,.015-.013,1.416,1.416,0,0,0,.414-.713,1.591,1.591,0,0,0-.056-.933,1.615,1.615,0,0,0-.577-.744,1.589,1.589,0,0,0-.636-.268,1.907,1.907,0,0,1-.753-.3l-.014-.01a1.106,1.106,0,0,1-.383-.836V110a18.173,18.173,0,0,0-.936-6.191,9.492,9.492,0,0,0-2.863-4.151,12.119,12.119,0,0,0-4.9-2.338,29.175,29.175,0,0,0-7.039-.745,24.947,24.947,0,0,0-4.787.442,28.214,28.214,0,0,0-4.346,1.21q-1.377.547-2.422,1.045c-.516.247-.976.482-1.375.708a.084.084,0,0,0-.022.012c-.052.025-.188.1-.367.2-.053.035-.108.068-.167.108a5.041,5.041,0,0,0-.476.346c-.04.034-.083.068-.127.1a2.892,2.892,0,0,0-.648.791,1.571,1.571,0,0,0-.17.5,1.386,1.386,0,0,0,.013.464v0a1.73,1.73,0,0,0,.092.282c.7,1.594,2.091,4.785,2.091,4.785a.935.935,0,0,0,.115.2c.256.365,1.031,1.022,3.011.2l.022-.009q1.436-.649,3.4-1.384a13.269,13.269,0,0,1,2.7-.772A16.962,16.962,0,0,1,83,105.6a4.935,4.935,0,0,1,3.027.827,3.087,3.087,0,0,1,1.152,2.53l-4.618-.223a20.7,20.7,0,0,0-4.155.2c-.578.09-1.14.2-1.69.327-.4.093-.787.2-1.17.309l-.006,0a.093.093,0,0,0-.022.006,24.852,24.852,0,0,0-3.116,1.344.061.061,0,0,0-.019.013,1.21,1.21,0,0,0-.114.062l-.328.2a.975.975,0,0,1-.09.053c-.043.028-.086.056-.129.08-.185.109-.368.217-.55.328q-4.568,3.137-4.565,8.034a9.282,9.282,0,0,0,3,7.262q3,2.691,8.72,2.7a20.166,20.166,0,0,0,5.721-.824,30.631,30.631,0,0,0,5.282-2.091,6.33,6.33,0,0,0,.578.6c.2.185.432.389.689.6a6.953,6.953,0,0,0,3.592,1.563Z" transform="translate(-28.634 -41.515)" fill="#0d1c45"/>
  <path id="Path_552" data-name="Path 552" d="M154.684,100.532a2.314,2.314,0,0,0-1.04-1.96l-.014-.009a5.9,5.9,0,0,0-.8-.407l-.043-.018c-.312-.108-.64-.222-.989-.334a.111.111,0,0,1-.015,0h-.009v0c-.788-.244-1.671-.485-2.656-.713a20.4,20.4,0,0,0-4.7-.554,19.939,19.939,0,0,0-5.174.637,12.387,12.387,0,0,0-4.124,1.9,8.715,8.715,0,0,0-2.972,3.41,10.718,10.718,0,0,0-.936,4.622q0,.258.009.51a9.031,9.031,0,0,0,4.034,7.1l.007,0a9.183,9.183,0,0,0,1.164.67q3.9,1.876,7.932,3.472l.027.011c1.013.408,1.514.847,1.514,1.322q0,.44-.6.63a5.481,5.481,0,0,1-1.653.195,17.175,17.175,0,0,1-6.326-1.208c-1.1-.4-2-.748-2.7-1.019l-.929-.375c-.312-.111-2.373-.787-2.762.6a1.246,1.246,0,0,0-.031.2,3.53,3.53,0,0,0,0,.677l.432,4.858.044.518a3.4,3.4,0,0,0,2.262,2.939l.053.019s0,0,.006,0c.2.065.417.127.655.18.006,0,.009,0,.015,0a38.1,38.1,0,0,0,4.327.862,40.525,40.525,0,0,0,5.724.383q6.157,0,9.624-2.641a8.956,8.956,0,0,0,3.466-7.589,8.363,8.363,0,0,0-2.2-5.971,16.094,16.094,0,0,0-6.159-3.824q-3.359-1.264-4.843-2.008t-1.486-1.51a.841.841,0,0,1,.494-.689,2.519,2.519,0,0,1,1.319-.3,10.365,10.365,0,0,1,4.624,1.208q1.264.607,2.007,1.019c.495.274.816.45.964.522,1.282.683,1.916.071,2.218-.528a2.539,2.539,0,0,0,.257-1.159Z" transform="translate(-56.263 -41.496)" fill="#0d1c45"/>
  <path id="Path_553" data-name="Path 553" d="M35.186,109.381H15.263v-4.6H31a1.7,1.7,0,0,0,1.7-1.7V95.125a1.7,1.7,0,0,0-1.7-1.7H15.263v-4.4H33.533a1.7,1.7,0,0,0,1.7-1.7V79.3a1.7,1.7,0,0,0-1.7-1.7H1.7A1.7,1.7,0,0,0,0,79.3v39.8a1.7,1.7,0,0,0,1.7,1.7H35.186a1.7,1.7,0,0,0,1.7-1.7V111.08A1.7,1.7,0,0,0,35.186,109.381Z" transform="translate(0 -33.357)" fill="#0d1c45"/>
  <path id="Path_554" data-name="Path 554" d="M442.313,99.35h-7.681a1.365,1.365,0,0,0-1.239.8l-5.761,12.528L422,100.345a1.7,1.7,0,0,0-1.545-.995h-9.591a1.7,1.7,0,0,0-1.544,2.4l12.243,24.124-3.863,8.4a1.7,1.7,0,0,0,1.545,2.406h6.934a1.7,1.7,0,0,0,1.545-.989l2.678-5.826,2.551-5.547,10.6-23.047A1.361,1.361,0,0,0,442.313,99.35Z" transform="translate(-175.885 -42.707)" fill="#0d1c45"/>
  <path id="Path_555" data-name="Path 555" d="M300.806,98.536a5.726,5.726,0,0,1,2.947-.8,5.089,5.089,0,0,1,4.392,2.035,9.816,9.816,0,0,1,1.5,5.891,8.947,8.947,0,0,1-1.261,4.982,3.839,3.839,0,0,1-3.345,1.93,6.688,6.688,0,0,1-3.589-1.072l-.173-.113c-.429-.287-.578-.434-.9-.666s-.59-.435-.806-.611V99.175m-3.052,18.107a14.656,14.656,0,0,0,10.768,4.232,13.05,13.05,0,0,0,10.447-4.657q3.748-4.449,3.75-11.84T317.841,93.18a11.909,11.909,0,0,0-4.392-3.512,13.919,13.919,0,0,0-5.838-1.152,15.283,15.283,0,0,0-6.32,1.4l-1.717.748v-11.2a1.7,1.7,0,0,0-1.7-1.7h-9.081a1.66,1.66,0,0,0-.732.167,1.067,1.067,0,0,0-.1.05v0a1.69,1.69,0,0,0-.868,1.479v39.717a1.7,1.7,0,0,0,1.7,1.7h4.834a1.05,1.05,0,0,0,.152-.011,1.207,1.207,0,0,0,.825-.571Z" transform="translate(-123.412 -33.426)" fill="#0d1c45"/>
  <path id="Path_556" data-name="Path 556" d="M372.077,129.469a1.356,1.356,0,0,0,1.128.683h6.934a1.7,1.7,0,0,0,1.7-1.7v-27.4a1.7,1.7,0,0,0-1.7-1.7h-9.081a.258.258,0,0,0-.047,0,.116.116,0,0,0-.046,0,1.7,1.7,0,0,0-1.606,1.693v18.36l-1.747.771a10.851,10.851,0,0,1-1.467.54c-.2.056-.387.1-.566.137a5.827,5.827,0,0,1-1.1.136,1.772,1.772,0,0,1-1.755-1.4,3.692,3.692,0,0,1-.175-1.18V101.049a1.694,1.694,0,0,0-1.291-1.647c-.038-.009-.074-.018-.112-.025a1.573,1.573,0,0,0-.3-.028H351.77c-.04,0-.08,0-.12,0,0,0-.01,0-.012,0-.037.007-.071.01-.105.013a1.7,1.7,0,0,0-1.257.875.273.273,0,0,0-.031.068,1.664,1.664,0,0,0-.173.741v18.966c0,.133,0,.266.009.4s.013.287.022.433a10.779,10.779,0,0,0,10.533,9.946c.128,0,.258,0,.389-.006a16.52,16.52,0,0,0,4.982-.85,20.956,20.956,0,0,0,3.352-1.489c.519-.278,1.038-.587,1.551-.917Z" transform="translate(-150.483 -42.707)" fill="#0d1c45"/>
  <path id="Path_557" data-name="Path 557" d="M233.894,58.078l0,0,0,0Z" transform="translate(-100.542 -24.965)" fill="#0d1c45"/>
  <path id="Path_558" data-name="Path 558" d="M240.52,27.77c.326-.371,4.543-4.148,4.543-4.148l-1.014-2.7s-5.128,2.676-9.348.827l-1.222,2.682-1.749-1.4,3.294-1.885-2.2.893s1.2-2.091,1.789-3.125c2.07-.091,6.166.235,6.166.235l4.16-1.734,3.716.893C248.782,18.738,245.856,26.611,240.52,27.77Zm-30.177,4.274a.9.9,0,0,1,0-1.81.9.9,0,1,1,0,1.81Zm.609,1.246a.338.338,0,0,1-.187.446.347.347,0,0,1-.446-.187.343.343,0,0,1,.187-.446.367.367,0,0,1,.283.006v.009A.3.3,0,0,1,210.952,33.29ZM233.22,34.7a.239.239,0,0,1-.238.238.238.238,0,0,1,0-.476A.241.241,0,0,1,233.22,34.7Zm-.037-1.086a.615.615,0,1,1,.61-.612A.617.617,0,0,1,233.183,33.61Zm2.486-2.6a4.587,4.587,0,0,0-3.716.263s-.078-.32.791-1.436c-2.917.8-3.294,4.811-3.15,4.763,0,0,.932-1.159,1.258-1.514a2.208,2.208,0,0,0,.027.332,2.469,2.469,0,0,0,1.454,1.885,1.749,1.749,0,0,0,2.322-.818,2.444,2.444,0,0,0,.07-2.217l1.14.739s-.464,2.7-2.006,2.986a13.368,13.368,0,0,1-2.993-.254s1.713.832,2.389,1.147c-.631.7-1.958,2.151-1.958,2.151a6.077,6.077,0,0,0,.44,3.218c-3.01-2.839-3.761-6.494-3.873-10.419A15.392,15.392,0,0,0,232.1,44.318c-1.587,3.113-.193,5.237,2.5,5.907.507,1.384,1.493,4.567,1.493,4.567a3.817,3.817,0,0,1-1.433,2.023c.627-.47,1.27-.953,1.719-1.287l.736.657L234.5,57.922a11.785,11.785,0,0,1-5,.75,4.234,4.234,0,0,1-.995-.178,17.418,17.418,0,0,1-6.817-3.647l-3.324-4.13.866-.561-.537-.79-1.035.676-.477,2.44.827-1.372.552.8s.763,1.011,1.2,1.593a25.582,25.582,0,0,0,4.657,4.7,21.657,21.657,0,0,0,9.146,1.668s-.375.826-.516,1.134a16.883,16.883,0,0,1-8.331-1.3,10.963,10.963,0,0,0,6.76,1.7c-1.436,1.222-8.135,2.92-11.752-4.781a5.743,5.743,0,0,1-5.258-1.927,3.675,3.675,0,0,0,1.708,1.936l-2.377.968,1.252.046-.305,3.686-1.987-1.177-5.921,5.964-.872,10.359,5.9,3,.446,3.964-3.7-2.168a4.134,4.134,0,0,0-4.014-.092c-2.025,1.065-4.884,2.575-5.264,2.808l-11.36-7.176c.244-.434,1.65-2.826,1.873-3.213,1.071.775,2.048,1.476,3.143,2.256,2.962-2.449,5.948-4.7,9.532-5.815a49.4,49.4,0,0,0,2.347-8.6c.072-.461-4.507-6.009-4.507-6.009l1.623-3.484.344,3.261L203.849,42.1l2.814-4.914,1.289.543,2.28-.878c-.341.109-1.9.564-2.636-.166.757-.214,4.431-.745,4.431-.745l2.546-2.2L211.9,35.35l-4.009-.027s-1.78-1.029-2.115-2.072a1.737,1.737,0,0,1,.805-2.079,3.339,3.339,0,0,0,2.844,3.623,2.61,2.61,0,0,0,1.759-.386,2.86,2.86,0,0,0,1.357-2.269,4.849,4.849,0,0,0-.374-1.635c1.065.85,2.775,2.193,2.775,2.193l-1.3-4.208.066,1.3-1.752-1.33.628.913s-3.18-.811-4.6-.518a10.455,10.455,0,0,0-1.325.452c0-.066,1.973-1.786,1.973-1.786l-.857.425a7.221,7.221,0,0,0-3.107,2.993c-.193.353-.389.684-.564.938-.865-.989-1.007-1.982-.582-3.822,1.526-1.415,3.092-2.85,4.619-4.265V21.372c.44-.954,1.541-2.763,1.541-2.763l.468,2.631,2.726-.178,1.334-2.033-.06-2.534-.417-.706.782-1.206c1.7-1.18,11.806,2.3,14.581,4.111l-4.422-3.843a3.579,3.579,0,0,0,2.875-1.743,6.661,6.661,0,0,0-.808-2.9,2.765,2.765,0,0,0-1.867.184c-.3-2.124-.58-4.187-.842-6.042,1.044-1.122,1.982-2.129,2.981-3.21l2.681,1.409s.857,3.792-.365,5.415c-.6.036-1.044.061-1.4.082-.233.6-.4,1.029-.633,1.647a1.765,1.765,0,0,0,1.505,1c.193-.223.519-.612.781-.908V8.392l.278-.226.271,3.14-1.674.558-.923,2.875.9,1.019L230.4,15l.082.425s-1.737.461-2.073,1.84c.6.513,2.236,1.907,2.236,1.907s.142,2.21.245,3.752c1.632,1.662,5.275,4.977,5.275,4.977l.087,2.749s-.739-.284-1.227-.477C235.32,30.563,235.669,31.009,235.669,31.009ZM234.74,48.3c-.054.29-.1.543-.166.893a3.607,3.607,0,0,1-1.526-2.489C233.582,47.211,234.125,47.718,234.74,48.3Zm-32.4-20.1-1.1-.351,1.861-3.022-.917-4.655-12.548-6.265V12.757l2.385-.19,12.189,4.844,1.168,4.676,2.256.461Zm6.678-25.715L210.938.371c1.2.105,5.4,1.294,5.4,1.294.079,1.611-.4,3.825-2.367,7.68l1-.694c-.98,2.241-1.074,3.937-.362,5.134L212.328,17l-1.33.413-.655-1.915,1.152-.073c.35-.633,1.134-2.1,1.134-2.1s-1.707-2.494-2.25-3.059a9.723,9.723,0,0,1,.528-1.05Zm36.032,14.434-3.526,1.213-7.7-.386-1.925,4.217-.609.094L230.116,7.931l.787-1.192c-.208-1.191-.673-4.443-.673-4.443s-2.365-1.209-3.354-1.722c-1.18,1.152-2.347,2.292-3.472,3.4.075.594.217,1.656.332,2.531a11.528,11.528,0,0,1-.326,4.75,7.025,7.025,0,0,1-2.06,3.466L217.462,13.4s.214-.841.329-1.3c-.805-1.288-1.617-2.6-2.468-3.961,1.557-2.314,1.62-4.667,1.448-7.176L210.759,0a22.185,22.185,0,0,1-2.184,1.521l-.087,1.746L210.2,8.705l-.637,2.2-.829,1.5.929,5.071-2.19,4.29-1.161-.5-.38-3.888-13.686-5.517-3.228.63v1.445L197,27.917s3.722,1.038,5.526,1.536c.335,1.109.654,2.174.989,3.3-1.043.42-3.107-.193-3.4-.28.281.108,2.377.913,3.55,1.249-.507.229-1.506.69-1.506.69l2.972-.715-.148.878.416.5-1.5,1.34,1.454-.872-1.047,1.728,1.388-1.339-2.693,5.71-.574,3.641-1.147,6.4L183.222,82.609s-2.721,2.73-3.086,3.064l.661,1.771,50.494,0a14.882,14.882,0,0,0,4.043-.83c.306-.091,2.089-.647.961-.647H213.569c-.282-2.127-.867-6.611-1.106-8.955a12.587,12.587,0,0,1,.045-4.811c1.339-4.781,4.075-15.161,4.075-15.161l2.866.477s5.016,9.689,12.886,4c0,0,.727-.109,1.107-.185.663-1.976,4.177-5.318,4.177-5.318l-1.083-.694s-1.843-5.569-.965-7.252c-.914-.76-2.486-2.072-2.486-2.072V43.223c-1.5-1.258-1.164-4.38-1.164-4.38l2.832-2.19.872.92-.283-1.216,1.385.938-1.141-1.3,1.029-1.952,1.294.892-.781-1.086a6.472,6.472,0,0,0,2.652-.588,3.2,3.2,0,0,1-2.236-.2s1.722-.8,2.57-1.206c-2.435.775-3.21.151-3.21.151l.172-1.146,2.221-.151,2.929-2.588a25.753,25.753,0,0,0,7.019-10.154Z" transform="translate(-77.434)" fill="#0d1c45"/>
  <path id="Path_559" data-name="Path 559" d="M214.984,129.112l-.51-1.68-2.06-.353c-1.267,1.5-3.743,4.449-3.743,4.449l-.16.491s.661,2.8,1.062,4.47c2.616-1.18,7.472-3.17,7.472-3.17s-.522-2.745-.79-4.154Z" transform="translate(-89.631 -54.627)" fill="#0d1c45"/>
  <path id="Path_560" data-name="Path 560" d="M230.189,84.257c-.645-.47-1.315-.908-1.93-1.411a10.641,10.641,0,0,1-3.63-4.782,13.032,13.032,0,0,1-.449-5.321c.084-.941.278-1.871.428-2.806-.153.3-1.894,7.086-1.894,7.086l-.7.664-.634,8.244,4.175,3.758,1.8-3.306-1.7-3.7.652-.482S228.974,83.512,230.189,84.257Z" transform="translate(-95.162 -30.064)" fill="#0d1c45"/>
  <path id="Path_561" data-name="Path 561" d="M216.563,145.567l.019-.018a.049.049,0,0,0-.019.006Z" transform="translate(-93.093 -62.566)" fill="#0d1c45"/>
  <path id="Path_562" data-name="Path 562" d="M232.907,76.549c.266-1.218.8-3.674.8-3.674l-1.542-1.3-3.1,1.36-.806,3.448,1.617,2.115S231.905,77.2,232.907,76.549Z" transform="translate(-98.121 -30.769)" fill="#0d1c45"/>
  <path id="Path_563" data-name="Path 563" d="M235.679,84.526l-3.121,2.8c.437.57,1.194,1.566,1.194,1.566l4.341-2.112-.437-2.268Z" transform="translate(-99.968 -36.33)" fill="#0d1c45"/>
  <path id="Path_564" data-name="Path 564" d="M257.495,71.642a4.648,4.648,0,0,1-.709-.432,3.055,3.055,0,0,1-.863-1.466,12.284,12.284,0,0,1-.319-1.728,18.9,18.9,0,0,0-2.73-8.051,21.1,21.1,0,0,1,2.208,8.3,13.177,13.177,0,0,0,.654,3.309c.353,1.029.733,2.386,1.617,2.727a1,1,0,0,1,.706.69.949.949,0,0,1-.977,1.119,4.584,4.584,0,0,1-3.062-1.8,4.39,4.39,0,0,0,2.374,2.066,1.865,1.865,0,0,0,2.335-.944,3.458,3.458,0,0,0-.009-2.461A2.6,2.6,0,0,0,257.495,71.642Z" transform="translate(-108.701 -25.777)" fill="#0d1c45"/>
  <path id="Path_565" data-name="Path 565" d="M248.38,61.849a1.467,1.467,0,0,1-.115.76l-.935,2.123a5.323,5.323,0,0,0,3.1-1.806l-1.306-3.7-.993.594Z" transform="translate(-106.318 -25.461)" fill="#0d1c45"/>
  <path id="Path_566" data-name="Path 566" d="M247.169,30.6l-1.249-1.777-2.353,2.22.646,1.427A3.881,3.881,0,0,0,247.169,30.6Z" transform="translate(-104.701 -12.388)" fill="#0d1c45"/>
  <path id="Path_567" data-name="Path 567" d="M246.891,70.946l.347,1.593,2.407.184.851-1.59-1.366-1.189Z" transform="translate(-106.129 -30.066)" fill="#0d1c45"/>
  <path id="Path_568" data-name="Path 568" d="M262.07,9.619c-.712-.42-1.327-.778-2.127-1.249a2.4,2.4,0,0,0-1.058,2.045l1.7,1.379A3.078,3.078,0,0,0,262.07,9.619Z" transform="translate(-111.285 -3.598)" fill="#0d1c45"/>
  <path id="Path_569" data-name="Path 569" d="M245.659,61.823c-.4.051-.721.091-1.1.135-.389.867-.76,1.693-1.168,2.6l.908.293,1.762-1.517C245.93,62.833,245.8,62.363,245.659,61.823Z" transform="translate(-104.626 -26.575)" fill="#0d1c45"/>
  <path id="Path_570" data-name="Path 570" d="M252.89,67.113l-.911,1.137c.507.3.917.546,1.379.823C253.991,68.175,253.852,67.662,252.89,67.113Z" transform="translate(-108.317 -28.849)" fill="#0d1c45"/>
  <path id="Path_571" data-name="Path 571" d="M236.987,10.224a2.61,2.61,0,0,0,.6-1.847l-2.464-.953a3.858,3.858,0,0,0-.507,2.8Z" transform="translate(-100.822 -3.192)" fill="#0d1c45"/>
  <path id="Path_572" data-name="Path 572" d="M90.17,65.489c-.083-.874-.125-1.79-.125-2.705a32.747,32.747,0,0,1,2.123-11.4A49.315,49.315,0,0,0,90.17,65.489Zm-2.456-9.24a43.083,43.083,0,0,0-.749,6.951c-.874-.666-2.081-1.415-2.955-2,1.249-1.915,2.705-3.746,3.829-5.744Zm-4.37,4.578-.166-.125a63.13,63.13,0,0,0,4.287-6.077C86.258,56.707,84.26,59.579,83.345,60.828Zm-.666-.416-.166-.125c.791-1,3.912-5.577,3.954-5.577-.708.708-2.913,4.62-3.538,5.411ZM71.025,58.289a2.748,2.748,0,0,1,2.456-1.124,9.761,9.761,0,0,1,3.2.708,13.251,13.251,0,0,0-2.872-.416A4.365,4.365,0,0,0,71.025,58.289ZM91.96,44.263c-.541.749-.624.458-1.124.624l-.125.125a113.582,113.582,0,0,1-9.822,14.359,4.2,4.2,0,0,1-.624-.291l-.25-.125c-1.956-1-4.162-2.123-6.659-2.123a3,3,0,0,0-2.622,1.332l-.125.291a4.754,4.754,0,0,0-.541,1.582c0,.166.166.083.166.25,0,.083-.125.208-.166.25.208.25.291.624.624.624a6.288,6.288,0,0,1,1.623-.291,18.348,18.348,0,0,1,6.077,1.165c-1.29,1.207-3.912,2.83-3.912,3.413,0,.832,1.249.708,2,1.457l.416.125a3.571,3.571,0,0,0,.957.083c1.873-.125,3.33-1.873,4.62-3.5a24.384,24.384,0,0,1,4.661,2.622c.333,2.664,1.415,5.327,3.871,5.327,1.207,0,3.121-1.124,3.121-2.331,0-.416-.375-.458-.791-.458-1.873,0-2.539-2.247-2.539-5.411,0-5.577,2.206-13.818,4.453-16.648a.9.9,0,0,0,.208-.583,2.916,2.916,0,0,0-2.5-2.414A1.23,1.23,0,0,0,91.96,44.263Z" transform="translate(-30.12 -18.794)" fill="#e9202d"/>
  <path id="Path_573" data-name="Path 573" d="M115.156,76.671a8.3,8.3,0,0,1-3,4.2,19.318,19.318,0,0,0,2.539-3.5c.166-.375.416-1.124.458-1.124Zm-4,1.915a1.46,1.46,0,0,1-.125-.666c0-1.165.708-3.33,1.79-7.284a2.446,2.446,0,0,0,1.5.541c.125,0,.208-.042.333-.042,0,4.079-2.331,7.616-3.246,7.616A.228.228,0,0,1,111.16,78.586Zm3.454-20.81a44.853,44.853,0,0,0-3,8.907C111.743,64.227,112.784,61.23,114.615,57.776Zm-.083,11.945a1.3,1.3,0,0,1-1.207-.832l.416-1.54A7.588,7.588,0,0,1,114.532,69.721Zm4.578-4.245c-1.332,1.415-1.79,2.789-3,3.663a9.347,9.347,0,0,0-1.915-3.163,53.274,53.274,0,0,1,2.789-6.618,1.152,1.152,0,0,0,.125-.541,3.593,3.593,0,0,0-2.5-2.83.33.33,0,0,0-.333.208c-1.79,4.037-6.035,15.774-6.035,22.142,0,2.289.624,4.162,2.164,4.162,2.372,0,6.243-4.87,6.243-10.114a9.5,9.5,0,0,0-.166-1.873c1.665-1,2.747-2.622,3.829-4.911a2.268,2.268,0,0,0,.291-.874.19.19,0,0,0-.166-.208C120.15,64.518,119.651,64.976,119.11,65.475Z" transform="translate(-46.531 -24.066)" fill="#e9202d"/>
  <path id="Path_574" data-name="Path 574" d="M132.83,66.238a14.352,14.352,0,0,0,.167,2.83,3.115,3.115,0,0,1-.416-1.5A3.948,3.948,0,0,1,132.83,66.238Zm-6.243,2.081a9.473,9.473,0,0,1,1.956-5.411A18.889,18.889,0,0,0,126.587,68.319Zm9.531-5.7a1.641,1.641,0,0,0-1.124-.458c-2.747,0-6.077,6.826-6.576,8.657a35.157,35.157,0,0,1,2.5-7.159.709.709,0,0,0,.042-.291c0-.874-1.373-1.54-2.331-1.54a.955.955,0,0,0-.749.25c-.5.666-2.913,6.909-2.913,10.946,0,2,.583,3.413,2.289,3.413a.668.668,0,0,0,.666-.541c.624-2.955,2.414-6.285,4.329-9.489a7.054,7.054,0,0,0-.042.916c0,2.5.624,3.912,1.831,3.912a.526.526,0,0,0,.583-.583,9.5,9.5,0,0,1-.083-1.041c0-3.288,2-4.911,2-6.16A1.146,1.146,0,0,0,136.118,62.617Z" transform="translate(-53.717 -26.577)" fill="#e9202d"/>
  <path id="Path_575" data-name="Path 575" d="M148.28,54.592a8.662,8.662,0,0,1,1.29-2.372,6.85,6.85,0,0,1-.957,2c0-.042-.125.583-.375.583A1.8,1.8,0,0,1,148.28,54.592Zm1.415,2.039a28.771,28.771,0,0,1,2.414-3.413.153.153,0,0,0,.042-.125c0-.583-1.831-1.706-2.58-1.706-.791,0-1.956,3.288-1.956,4,0,.666,1.165,1.373,1.748,1.373A.41.41,0,0,0,149.7,56.631Zm-4.453,11.737c-.042.291-.083.541-.125.541s-.042-.125-.042-.416c.042-1.5,1.665-6.285,2.289-6.285A35.17,35.17,0,0,0,145.242,68.368Zm5.369-4.828c-1.457,1.415-2.955,5.161-5.078,6.451,0-2.456,1.415-6.2,3.371-9.739a1.5,1.5,0,0,0,.208-.791c0-1.165-1.457-1.956-2.414-1.956a.737.737,0,0,0-.708.333c-1.748,3.912-3.288,7.908-3.288,10.7,0,1.748.749,3.413,2.622,3.413,2.539,0,6.826-8.366,6.826-9.073a.2.2,0,0,0-.208-.208C151.651,62.666,151.152,63.082,150.611,63.54Z" transform="translate(-61.343 -22.089)" fill="#e9202d"/>
  <path id="Path_576" data-name="Path 576" d="M157.64,67.789c0-.916,1.706-2.289,1.706-2.289A24.7,24.7,0,0,0,157.64,67.789Zm-.957.5a1.034,1.034,0,0,1-.208.458c0-.957,1-2.872,2.622-4.328a2.224,2.224,0,0,1,.375-.291,16.638,16.638,0,0,0-2.5,3.5A5.981,5.981,0,0,0,156.683,68.288Zm9.24-.125c-1.04.916-3.038,6.077-6.035,6.077-1.249,0-1.79-.916-1.79-2.164a6.444,6.444,0,0,1,.375-2.039c.583-1.748,2.664-5.286,3.621-5.286.208,0,.333.166.333.5a7.03,7.03,0,0,1-1.041,2.705.671.671,0,0,0-.125.375.449.449,0,0,0,.5.458c1.582,0,3.08-3.621,3.08-4.412a2.742,2.742,0,0,0-2.705-2.331c-3.787,0-7.533,6.576-7.533,10.405a4.447,4.447,0,0,0,4.7,4.12c3.33,0,5.369-3.746,7.075-6.951l.5-.916a3.913,3.913,0,0,0,.5-1.249c0-.083-.042-.166-.125-.166C167.046,67.289,166.63,67.58,165.923,68.163Z" transform="translate(-66.458 -26.671)" fill="#e9202d"/>
  <path id="Path_577" data-name="Path 577" d="M182.2,69.859c-.25,1.165-.791,2.747-.957,3.454-.042-.166,1.29-5.535,1.29-5.535.083-.416.291-.541.333-.541a.322.322,0,0,1-.042.125A14.8,14.8,0,0,1,182.2,69.859Zm-2.414-1.165a.591.591,0,0,0-.083.25.9.9,0,0,0,.458.666c0,.708-3.912,4.828-4.412,4.828-.083,0-.125-.125-.125-.291,0-1.623,3.246-9.656,4.537-9.656.208,0,.25.125.25.583A12.438,12.438,0,0,1,179.791,68.693Zm-4.37-2.164c-.125.208-.416.957-.458,1,.125-1.665,1.623-3.246,2.539-4.079A18.28,18.28,0,0,0,175.421,66.529Zm2.539-2.331c-1.04,1.415-2.206,2.539-2.039,2.539-.125,0,.791-1.29.791-1.373a7.2,7.2,0,0,1,1.415-1.332Zm9.115,3.829c-1.373,1.332-2.622,4.87-4.453,6.409a16.861,16.861,0,0,1,1.956-6.867,1.478,1.478,0,0,0,.083-.416c0-.874-1.124-1.706-1.873-2a3.623,3.623,0,0,0-3.5-3.33c-3.33,0-6.659,6.16-6.659,10.946,0,1.249.749,3.829,2.872,3.829,1.5-.166,2.955-1.54,3.954-2.705a2.922,2.922,0,0,0,1.915,2.58l.166.083a2.357,2.357,0,0,0,.749.125,1.814,1.814,0,0,0,1.124-.375c1.79-1.457,5.2-8.657,5.2-8.948a.2.2,0,0,0-.208-.208A3.142,3.142,0,0,0,187.074,68.027Z" transform="translate(-74.208 -26.577)" fill="#e9202d"/>
</svg>
