<svg xmlns="http://www.w3.org/2000/svg" width="212.065" height="116.429" viewBox="0 0 212.065 116.429">
  <g id="Group_4910" data-name="Group 4910" transform="translate(-104.777 -146.989)">
    <g id="Group_437" data-name="Group 437" transform="translate(104.777 180.611)">
      <path id="Path_482" data-name="Path 482" d="M263.95,214.511v5.737h-8.587v-5.737Z" transform="translate(-131.514 -192.6)" fill="#035aa7"/>
      <path id="Path_483" data-name="Path 483" d="M263.144,212.317h2.885a1.168,1.168,0,0,0,1.141-1.309v-8.856h5.736v11.036a4.8,4.8,0,0,1-4.864,4.865h-4.9Zm2.583,12.176a3.287,3.287,0,1,1,3.287,3.287A3.331,3.331,0,0,1,265.727,224.493Z" transform="translate(-132.896 -190.406)" fill="#035aa7"/>
      <path id="Path_484" data-name="Path 484" d="M135.007,209.777v5.737H104.778v-5.737h3.49l-.009-21.908H114L114,202.8c2.517-2.717,5.5-4.831,9.16-4.831,6.575,0,9.628,4.026,9.628,11.306v.5Zm-7.784-.5c0-3.657-2.08-5.67-4.8-5.67-2.985,0-5.536,1.174-8.421,4.7v1.476h13.219Z" transform="translate(-104.777 -187.87)" fill="#035aa7"/>
      <path id="Path_485" data-name="Path 485" d="M158.872,212.312v5.737h-4.73a6.456,6.456,0,0,1-4.4-1.946,7.2,7.2,0,0,1-5.334,1.946h-4.06l-2.483-.906v-3.892l2.483-.94h4.126c2.181,0,2.349-1.275,2.349-2.684v-3.523l-.034-3.959h5.77v5.1c0,.4,0,.838-.034,1.308v1.074c0,1.409.269,2.684,2.416,2.684Zm-11.038,12.179a3.288,3.288,0,1,1-3.287-3.254A3.315,3.315,0,0,1,147.834,224.491Zm8.321,0a3.288,3.288,0,1,1-3.288-3.254A3.315,3.315,0,0,1,156.155,224.491Z" transform="translate(-110.653 -190.405)" fill="#035aa7"/>
      <path id="Path_486" data-name="Path 486" d="M193.791,212.062V217.8h-1.553a4.773,4.773,0,0,1-3.713-1.577,6.7,6.7,0,0,1-4.658,1.577h-1.384a4.811,4.811,0,0,1-3.746-1.677c-1.012,1.207-2.6,1.677-4.59,1.677h-1.283a4.826,4.826,0,0,1-3.814-1.644c-.979,1.174-2.464,1.644-5.468,1.644h-1.114l-2.5-.906v-3.926l2.5-.906h.743a1.807,1.807,0,0,0,1.991-1.98v-5.7h5.671v5.7a1.778,1.778,0,0,0,1.991,1.98h.034a1.807,1.807,0,0,0,1.991-1.98v-5.7h5.6v5.7a1.807,1.807,0,0,0,1.991,1.98h.1a1.818,1.818,0,0,0,2.026-1.98v-9.36h5.6v9.36a1.8,1.8,0,0,0,2.026,1.98Z" transform="translate(-114.577 -190.152)" fill="#035aa7"/>
      <path id="Path_487" data-name="Path 487" d="M206.621,214.511v5.737h-6.543v-5.737Z" transform="translate(-121.698 -192.6)" fill="#035aa7"/>
      <path id="Path_488" data-name="Path 488" d="M215.807,214.511v5.737h-8.588v-5.737Z" transform="translate(-122.966 -192.6)" fill="#035aa7"/>
      <path id="Path_489" data-name="Path 489" d="M225.436,214.511v5.737h-8.587v-5.737Z" transform="translate(-124.676 -192.6)" fill="#035aa7"/>
      <path id="Path_490" data-name="Path 490" d="M235.064,214.511v5.737h-8.588v-5.737Z" transform="translate(-126.385 -192.6)" fill="#035aa7"/>
      <path id="Path_491" data-name="Path 491" d="M244.693,214.511v5.737h-8.587v-5.737Z" transform="translate(-128.095 -192.6)" fill="#035aa7"/>
      <path id="Path_492" data-name="Path 492" d="M254.321,214.511v5.737h-8.588v-5.737Z" transform="translate(-129.804 -192.6)" fill="#035aa7"/>
      <g id="Group_436" data-name="Group 436" transform="translate(0 44.273)">
        <path id="Path_493" data-name="Path 493" d="M104.777,242.037v21.652h4.191V242.037Z" transform="translate(-104.777 -241.761)" fill="#035aa7"/>
        <path id="Path_494" data-name="Path 494" d="M146.8,252.486c2.376-.733,3.968-2.416,3.968-4.8,0-3.618-2.989-5.651-8.367-5.651H106.516v4.033H141.94c2.089,0,3.224.7,3.224,2.252,0,1.617-1.109,2.251-3.224,2.251H106.516v4.033H142.2c2.232,0,3.72.7,3.72,2.546s-1.37,2.5-3.459,2.5H106.516v4.033h36.639c5.417,0,8.6-2.252,8.6-6.033C151.756,254.77,149.524,253.152,146.8,252.486Z" transform="translate(-105.086 -241.761)" fill="#035aa7"/>
        <path id="Path_495" data-name="Path 495" d="M169.291,258.745,167.8,263.7h-4.824l8.03-21.8h4l7.774,21.8H177.8l-1.555-4.952Zm.857-3.618h5.269l-2.6-8.155h-.064Z" transform="translate(-115.11 -241.735)" fill="#035aa7"/>
        <path id="Path_496" data-name="Path 496" d="M189.851,262.932V259a42.278,42.278,0,0,0,8.092,1.079c2.253,0,3.617-1.047,3.617-2.444,0-1.682-2.156-2.253-4.6-3.015-3.111-.952-6.792-2.316-6.792-6.822,0-4.316,3.491-6.094,8-6.094a25.575,25.575,0,0,1,7.775,1.174v4.062a27.326,27.326,0,0,0-7.68-1.3c-2.031,0-3.205.666-3.205,2.158,0,1.651,2.158,2.157,4.6,2.856,3.111.92,6.793,2.189,6.793,6.632,0,4.6-3.586,6.7-8.284,6.7A30.089,30.089,0,0,1,189.851,262.932Z" transform="translate(-119.882 -241.701)" fill="#035aa7"/>
        <path id="Path_497" data-name="Path 497" d="M218.278,246.117v4.412h8.537v4.03h-8.537V259.7h10.156v4.032H213.391V242.087h14.885v4.03Z" transform="translate(-124.062 -241.77)" fill="#035aa7"/>
        <path id="Path_498" data-name="Path 498" d="M239.849,246.117v4.412h8.537v4.03h-8.537V259.7H250v4.032H234.961V242.087h14.885v4.03Z" transform="translate(-127.892 -241.77)" fill="#035aa7"/>
        <path id="Path_499" data-name="Path 499" d="M266.937,246.117v17.614H262.05V246.117h-5.809v-4.03h16.5v4.03Z" transform="translate(-131.67 -241.77)" fill="#035aa7"/>
      </g>
    </g>
    <g id="Group_438" data-name="Group 438" transform="translate(250.285 146.989)">
      <ellipse id="Ellipse_28" data-name="Ellipse 28" cx="5.546" cy="5.528" rx="5.546" ry="5.528" transform="translate(44.371 105.374)" fill="#035aa7"/>
      <path id="Path_500" data-name="Path 500" d="M337.941,147.015c-.247-.013-.507-.026-.754-.026H303.823c-.241,0-.488.013-.729.026a11.059,11.059,0,0,0-10.3,11v66.64a5.477,5.477,0,0,0,5.476,5.482h.1a5.511,5.511,0,0,0,5.509-5.509v-61.04a5.53,5.53,0,0,1,5.151-5.515h22.977a5.53,5.53,0,0,1,5.151,5.515v22.236a5.532,5.532,0,0,1-5.528,5.528h-5.561v-.007h-5.607a5.472,5.472,0,0,0-5.32,4.168,4.918,4.918,0,0,0-.11.54,1.741,1.741,0,0,0-.026.182c-.013.1-.02.215-.026.319s-.007.182-.007.28v.11c0,.1,0,.188.007.286l.02.273c.013.13.033.254.052.378.013.052.02.1.033.15.039.182.085.358.137.526.026.085.052.169.085.248a4.8,4.8,0,0,0,.208.5,5.442,5.442,0,0,0,3.883,3.031c.182.032.364.065.553.084s.377.026.566.026h11.121a5.537,5.537,0,0,1,5.521,5.241v22.5c0,.1,0,.188-.007.286a5.538,5.538,0,0,1-5.521,5.248H287.265a5.547,5.547,0,1,0-.039,11.095h49.96a11.068,11.068,0,0,0,11.068-11.068v-77.7A11.062,11.062,0,0,0,337.941,147.015Z" transform="translate(-281.698 -146.989)" fill="#035aa7"/>
    </g>
  </g>
</svg>
