<svg id="Layer_1" data-name="Layer 1" xmlns="http://www.w3.org/2000/svg" xmlns:xlink="http://www.w3.org/1999/xlink" viewBox="0 0 1000 1000"><defs><style>.cls-1{fill:none;}.cls-2{fill:url(#linear-gradient);}.cls-3{fill:url(#linear-gradient-2);}.cls-4{fill:#ed6123;}.cls-14,.cls-5{fill:#1d2a4c;}.cls-5{isolation:isolate;opacity:0.6;}.cls-6{fill:#ee6923;}.cls-7{fill:#a7d8e7;}.cls-8{clip-path:url(#clip-path);}.cls-9{fill:#eb5424;}.cls-10{fill:#ed6523;}.cls-11{fill:#fac5a7;}.cls-12{fill:#999892;}.cls-13{fill:#172744;}.cls-15{fill:#59b5d1;}</style><linearGradient id="linear-gradient" x1="523.46" y1="437.31" x2="523.46" y2="326.29" gradientTransform="matrix(0.98, 0.19, 0.2, -1.02, -151.09, 969.77)" gradientUnits="userSpaceOnUse"><stop offset="0.04" stop-color="#82b300"/><stop offset="0.1" stop-color="#87b907"/><stop offset="0.19" stop-color="#96ca1b"/><stop offset="0.3" stop-color="#ade53c"/><stop offset="0.38" stop-color="#c4ff5c"/><stop offset="0.45" stop-color="#c4fa5c"/><stop offset="0.54" stop-color="#c4ea5c"/><stop offset="0.64" stop-color="#c4d15c"/><stop offset="0.66" stop-color="#c4ca5c"/><stop offset="0.92" stop-color="#308c00"/></linearGradient><linearGradient id="linear-gradient-2" x1="524.28" y1="452.23" x2="523.16" y2="385.83" xlink:href="#linear-gradient"/><clipPath id="clip-path"><path class="cls-1" d="M400.18,271.62h0ZM671.4,85.05l-.2,1h0Zm.34-1.85a6.22,6.22,0,0,1-.22,1.24A8.46,8.46,0,0,1,671.74,83.2Zm.28-1.7a7,7,0,0,1-.21,1.32C671.9,82.37,672,81.93,672,81.5ZM641.53,39.55c-1.7-.27-2.94-.42-3.83-.49.87.07,2.2.22,3.82.49,10.85,1.87,35.16,9.61,30.63,41.68,4.6-32.07-19.69-39.81-30.63-41.68ZM597.91,31h0C614.64,34.35,636.44,39,636.44,39h0S614.64,34.35,597.91,31Z"/></clipPath></defs><path class="cls-2" d="M513.81,669.42c-3,13.68-37.28,19.3-76.59,12.6s-68.7-23.23-65.69-36.89,37.28-19.32,76.6-12.6S516.81,655.76,513.81,669.42Z"/><path class="cls-3" d="M496.48,666.46c-2.26,10.34-28.2,14.6-57.87,9.53s-52-17.57-49.73-27.9,28.2-14.63,57.87-9.55S498.75,656.07,496.48,666.46Z"/><path class="cls-4" d="M455.58,679.28c3.66,1,7.3,2,10.83,3.19l8.93-9.35Z"/><path class="cls-5" d="M698.86,90.08C688.82,136,569.06,533,569,572.65a136.48,136.48,0,0,0,.77,16.54,10.25,10.25,0,0,1-.49,4.78c2.55,5.08,9.83,10.63,17.14,11.09,6.21.39,14.46.17,25.53,1.07,16.06,1.31,30,4.36,39.43,12l-19.94,6.34a37.34,37.34,0,0,0-17-6.64c-10.07-1.7-21.58-1.6-33.58-2.59-4.44-.37-8.32-.83-11.67-1.4-2.11-.37-4.18-.83-6.23-1.39-6.15-1.72-9.36-4-11.68-7.64a19.62,19.62,0,0,1-1-1.72V603c-3-6.16-3.86-17.15-3.81-34.24,0-3.79,1.55-13.31,4.43-26.33C572.67,442.67,667.22,128.1,676.2,87c4.28-19.09-.64-32.26-8.83-40.22a41.61,41.61,0,0,0-14.57-9C665.86,40.23,707.35,51.3,698.86,90.08Z"/><path class="cls-5" d="M550.85,542.39c-2.88,13-4.45,22.55-4.43,26.32,0,17.1.78,28.09,3.81,34.25v.12a18.1,18.1,0,0,0,1,1.71l-5,1.51-4.9,1.5-5.11,1.61h-.1l-38,39.67L491.55,656l-13.93,14.54a14.49,14.49,0,0,1-5.46,3.43l-.32.1L461,677.45l-1.41.44h-.24a15.43,15.43,0,0,1-8,.1l-3.85-.93q-11.07-2.62-22.41-4.18h-.52a224.71,224.71,0,0,0-26.33-2h-6.6c-25.8.32-50.53-.8-72-4.39h0a169.6,169.6,0,0,1-31-7.91c-23.45-8.73-39.15-22.91-41.8-45.1a73.53,73.53,0,0,1,2.57-28c4.24-15.86,11.33-26.9,19.78-34.57h0l.1-.08a59.57,59.57,0,0,1,27.33-13.45c20.21-4.51,40.07.28,46.37,2.06a14.41,14.41,0,0,1,3.4,1.5c4.22,2.5,18.06,10,34.23,11.08a51.25,51.25,0,0,0,7,0,48.21,48.21,0,0,0,7.59-1,46.2,46.2,0,0,0,22.59-11.91,61.51,61.51,0,0,0,8.36-9.81c24.95-36.08,98.33-213.48,122.05-302.7,1.72-6.09-2.3-12.29-9.12-14.06a14.58,14.58,0,0,0-11,1.27h0a14.91,14.91,0,0,0-2.82,2.15c-1.28,1.24-2.57,2.49-3.9,3.75h0l-.31.29-3.86,3.65-2.67,2.53C486,252.5,450,280.24,428.94,279.67c-17.19-.51-29.32-2.39-37.92-5.36h-.17c-8.78-3-13.82-7.3-16.69-12.43a26.07,26.07,0,0,1-2.85-8,78.12,78.12,0,0,1-1-14.8c0-8.6.15-18-2.53-27.77-5.45-19.8,6.19-34.14,20.64-42.27,9.64-5.43,20.53-8.12,28.44-7.82h.26a14.42,14.42,0,0,0,6.81-1.5c20.25-9.87,117.44-59.1,144.67-108.24a10.7,10.7,0,0,1,1.35-1.94,94.93,94.93,0,0,1,8.71-9A43.67,43.67,0,0,1,587.9,34,25.54,25.54,0,0,1,598,31.12h0a54.19,54.19,0,0,1,13.15,1.19c13.35,2.28,37.88,4.9,37.88,4.9s1.43.16,3.83.63a41.62,41.62,0,0,1,14.56,9c8.19,8,13.11,21.14,8.84,40.23C667.22,128.1,572.67,442.67,550.85,542.39Z"/><path class="cls-4" d="M651.32,618.26l-139.21,43.4L489.76,691c36.51,15,64,34,80.76,40.71,42.23,16.75,80.6-12.42,90.82-59.13,6.25-28.56,1.49-44.89-10-54.27Z"/><path class="cls-5" d="M631.41,624.5l-5.89,1.84-7,2.18L512.28,661.66h-.17l.1-.15,33.34-43.59,3.75-1.18,6.28-2,7.37-2.3q3.07.84,6.23,1.4c3.4.57,7.23,1,11.67,1.4,11.92,1,23.51.88,33.59,2.58A37.37,37.37,0,0,1,631.41,624.5Z"/><path class="cls-6" d="M475.36,673.12l-8.94,9.35c8.16,2.57,15.94,5.43,23.36,8.48l22.34-29.29Z"/><polygon class="cls-5" points="475.34 673.12 475.36 673.12 475.34 673.13 475.34 673.12"/><path class="cls-5" d="M563,612.47l-7.37,2.31-6.28,2-3.75,1.17-33.34,43.6-.1.15-15.64,4.94h0l-21.11,6.53,2.33-2.45,13.92-14.54,6.64-6.93h0l38-39.73h0l4.77-2.24,4.56-2.15,4.58-2.15v.12a16.08,16.08,0,0,0,1,1.71C553.66,608.46,556.8,610.72,563,612.47Z"/><path class="cls-7" d="M392.42,157.58S511.1,102.21,541.06,47.06a6.21,6.21,0,0,1,.75-1.09C560.22,24.33,570.2,26,583.44,28.29c12.36,2.11,47.32,9.48,52.41,10.53A10.4,10.4,0,0,0,637,39c4.94.31,43.61,4.15,34.2,47.14C661.12,132,541.3,529,541.3,568.68s3.3,48.11,39,51.12,64.68-3.22,53.36,48.76-51.47,69-79.45,54.7S450.8,665.93,364,667s-137.51-4.42-118.45-75.75c17.4-65.13,65.87-48.24,74.21-44.79a7.37,7.37,0,0,1,2.05,1.25c6,5.26,44.66,36.44,72.64-4.07,27.13-39.24,114.58-260,130.89-341.52.71-3.58-2-7-6.05-7.62a8.06,8.06,0,0,0-6.94,2.18c-28.69,29.75-86.1,80.64-113.66,74.69-34.71-7.52-49.07-29-58.69-64s34-52.91,52.41-49.78Z"/><g class="cls-8"><polygon class="cls-9" points="399.67 271.52 457.55 7.04 680.1 45.03 622.22 309.52 399.67 271.52"/></g><path class="cls-10" d="M583.44,28.29c-13.34-2.28-23.37-4-42.07,18.19-22.52,42.41-98,85.05-132,102.67a91.49,91.49,0,0,1-28,8.63c-16.25,2.55-37.75,14-41.95,33.07a33.71,33.71,0,0,0,.64,16.54c9.62,35,24,56.49,58.69,64l.82.15h.66c5.21.71,11.44-.44,18.23-2.92-1.21-.15-2.45-.33-3.66-.54-16.3-2.58-30.8-10.71-40.39-22.64C360.57,224,344.13,199,359,183.56c5.69-6.72,17.65-13.05,28.26-14.46A99.32,99.32,0,0,0,414.8,162c23.83-10.69,59.32-31.12,75-43.45,21.58-16.91,49.36-38.64,62.67-59.64,5.45-8.64,13.74-20.41,29.43-18.28.7.09,1.41.21,2.14.33q10.76,2.1,21.21,5.13,11.07,3.22,22.49,5.37c2.66.46,5.35.81,8,1,1.19.11,2.41.26,3.71.48,13.49,2.3,31,11.25,30.55,27.61A12.17,12.17,0,0,0,671.2,86l.2-1,.12-.6a8.84,8.84,0,0,1,.22-1.25,1.15,1.15,0,0,0,0-.37c.09-.46.14-.89.21-1.33v-.27c4.59-32.06-19.71-39.81-30.64-41.67-1.7-.27-2.94-.42-3.81-.5h-1.24s-21.81-4.61-38.54-7.93c-5.82-1.16-11-2.15-14.48-2.74Z"/><path class="cls-11" d="M289.1,663.45l.92.17h0Zm16.7,2.17c-2.79-.26-5.5-.54-8.14-.87C300.3,665.08,303,665.36,305.8,665.62Zm13.86.93h0c-4-.2-7.83-.42-11.54-.74C311.83,666.13,315.67,666.35,319.66,666.55Zm-72.38-81.06c-.58,1.85-1.14,3.76-1.7,5.76s-1.12,4.39-1.58,6.48c.46-2.09,1-4.26,1.58-6.48S246.69,587.34,247.28,585.49Zm22-34.5c-7,5.28-13.47,13.38-18.57,25.31,5.1-12,11.62-20,18.55-25.3Zm121-1.79c-.84,1-1.71,1.89-2.54,2.75h0C388.57,551.09,389.42,550.18,390.26,549.2Zm2.65-3.32c-.34.48-.7.94-1.05,1.4C392.21,546.82,392.57,546.36,392.91,545.88ZM521.4,219.65l-4.17,3.94c-23.93,93.57-97,282.18-122.33,319.51,25.76-38,103.25-232,126.5-323.45Z"/><path class="cls-9" d="M346.53,667.11c-9.5,0-18.48-.17-26.87-.56h0C328.05,666.94,337,667.09,346.53,667.11Zm13,0ZM413.81,671a283,283,0,0,0-49.8-4A281.12,281.12,0,0,1,413.81,671Zm1,.19h0l1.5.25Zm-63.36-108c.54.12,1.1.22,1.7.31h0C352.61,563.48,352.05,563.38,351.47,563.26ZM300.05,542a45.67,45.67,0,0,0-30.78,9h0a45.65,45.65,0,0,1,30.79-9Zm6.81.77ZM387.65,552h0c-11,11.19-23.09,13.35-33.87,11.65C364.56,565.3,376.61,563.14,387.65,552ZM527.92,179.12c-.78,1.07-1.84,2.41-3.15,4-.48,9.25-3.22,23.27-7.61,40.5l4.17-3.94c4.67-18.32,7.13-32.53,6.59-40.59Z"/><path class="cls-9" d="M549.43,720.84l1.43.73Zm70.11-18.51h0c-14,20.13-34.41,28.26-52.59,25.15a44.08,44.08,0,0,1-12.72-4.22A44,44,0,0,0,567,727.5c18.18,3.11,38.54-5,52.58-25.2Z"/><path class="cls-10" d="M533.23,174.22c-3.05-.52-5.91.42-8.51,4.63v4.26c1.31-1.51,2.37-2.9,3.15-4,.54,8-1.92,22.2-6.59,40.59C498,311.16,420.54,505.18,394.78,543.17l-.35.53h0c-.55.76-1.08,1.5-1.71,2.24-.34.48-.69.94-1.05,1.4s-1.06,1.3-1.6,1.92c-.83,1-1.7,1.89-2.54,2.75-11,11.19-23.09,13.35-33.87,11.65a1.51,1.51,0,0,1-.63-.09h0c-.56-.09-1.12-.19-1.7-.31-15.16-3.18-27.39-13.53-30-15.76l-.49-.45-.78-.35a61.94,61.94,0,0,0-13-3.78h-.39a57.45,57.45,0,0,0-6.81-.77,45.65,45.65,0,0,0-30.79,9c-6.92,5.26-13.41,13.3-18.55,25.3-1.21,2.84-2.35,5.89-3.4,9.19-.58,1.84-1.14,3.75-1.7,5.75s-1.13,4.39-1.59,6.48c-9.26,42.23,8.51,59.26,45.12,65.73l.92.16c2.45.42,5,.79,7.65,1.13s5.34.62,8.13.87l2.32.2c3.71.31,7.55.54,11.54.74,8.39.39,17.37.54,26.87.55H364.1a282.15,282.15,0,0,1,49.8,4l1,.18h0l1.5.25c59.57,10.52,108.78,36.79,133.1,49.42l1.43.73,3.4,1.72h0a44.08,44.08,0,0,0,12.72,4.22c18.18,3.11,38.55-5,52.59-25.15-17.12,12.9-31,15.94-44.81,13.53-22.35-3.82-44.38-21.84-79.34-35a393.52,393.52,0,0,0-73.14-20.61c-42.38-7.24-77-4.69-121-5.37-2-.24-3.92-.51-5.75-.82-69.07-11.8-33.25-76.18-26.37-88.13,12.87-11.18,24.14-13.53,34.6-11.72,15.63,2.67,29.47,14.47,44.1,19.74a75.09,75.09,0,0,0,12.53,3.44c15.52,2.64,27.23-2.71,43.45-19.27,34.2-34.91,95.22-218.91,113.46-270.61s32.77-107.6,18.39-113a12.47,12.47,0,0,0-2.56-.72Z"/><path class="cls-10" d="M676.2,87c4.28-19.09-.64-32.26-8.83-40.22a41.61,41.61,0,0,0-14.57-9A54.59,54.59,0,0,0,642.59,35a45.68,45.68,0,0,0-5-.6l-.56-.08c-5.36-1.12-40-8.4-52.56-10.52-6.58-1.11-13.61-2.44-21.65.1s-15.81,8.45-25.53,19.88l-.54.83C489.42,111.11,420.67,138,409.13,144.08l-6.41,3.29A59.26,59.26,0,0,1,382.58,153a67.84,67.84,0,0,0-23,7.25c-11.56,6.09-22.26,16-25.31,29.81a38.34,38.34,0,0,0,.7,18.55c4.92,17.78,11.08,32.52,20.87,44a69.51,69.51,0,0,0,34.9,21.6H391c2.1.61,4.28,1.15,6.52,1.63l1.11.21c11.23,1.76,23.56-2.92,36.76-10.15,27-15,57.6-42.57,77.52-62.79a4.11,4.11,0,0,1,5.3-.34,3.11,3.11,0,0,1,1.23,3.15.29.29,0,0,1,0,.13c-1.31,6-3,12.72-4.92,20-11.67,43.32-33.88,106.45-56.81,165.18C431,459.71,402.9,522.88,390.22,541.13a54.91,54.91,0,0,1-9.56,10.64,31,31,0,0,1-26.42,7.08,57.4,57.4,0,0,1-20.78-8.64,69.56,69.56,0,0,1-6.42-4.65,29.26,29.26,0,0,1-2.23-1.92l-1-.69a3.29,3.29,0,0,0-.52-.29,64.49,64.49,0,0,0-26.61-5.35,51.48,51.48,0,0,0-24.9,6.4c-12.92,7.23-24.44,21.47-31.09,46.52-.63,2.3-1.18,4.51-1.71,6.72-4.8,21.88-2.74,38.27,6.42,50.1S269.85,665,289,668.25c20.43,3.47,45.72,3.83,74.89,3.49a270.15,270.15,0,0,1,45,3.29c1.62.24,3.23.51,4.83.78a335.14,335.14,0,0,1,34.37,7.76C495.65,697,533.4,718.14,551.7,727.43a49.83,49.83,0,0,0,14.24,4.73h0a50.42,50.42,0,0,0,7.77.69c12.4.19,25.15-4.15,36-12.87,13.25-10.52,23.83-27.41,28.94-50.47,3.78-17.51,3.4-29.24-1.09-37.79a22.45,22.45,0,0,0-6.19-7.26h0a37.24,37.24,0,0,0-17-6.65c-10.07-1.7-21.58-1.59-33.58-2.58-4.44-.38-8.32-.83-11.67-1.4-2.11-.37-4.18-.84-6.23-1.4-6.15-1.71-9.36-4-11.68-7.64a18.1,18.1,0,0,1-1-1.71V603c-3-6.16-3.86-17.15-3.81-34.25,0-3.79,1.55-13.3,4.43-26.32C572.67,442.67,667.22,128.1,676.2,87ZM541.42,608a23.59,23.59,0,0,0,7.88,8.8,43.93,43.93,0,0,0,17.87,6.33c3.79.64,8,1.13,12.63,1.5,12.58,1,24.05,1,32.63,2.47a45.45,45.45,0,0,1,6.14,1.5,16,16,0,0,1,9.91,7.52c3,5.29,3.9,15.17.2,31.81-4.51,20.19-13.15,34.41-23.42,43.43C593.65,721.53,580,725.07,568,723.05a39.45,39.45,0,0,1-11.18-3.72c-12.73-6.48-35.59-19.12-65.09-30.83-3.4-1.38-7-2.75-10.62-4.08-4-1.5-8.12-2.93-12.32-4.31-1.94-.66-3.88-1.29-5.87-1.91l-1.79-.56a352.2,352.2,0,0,0-45.17-11q-6.41-1.08-13-1.92c-6.5-.83-13.11-1.5-19.81-1.85q-9.45-.55-19.1-.45c-29,.36-53.91,0-72.95-3.32l-2.44-.44c-16.71-3.14-28.28-8.55-34.85-17.06-5.11-6.53-7.71-15.48-6.95-28A98.13,98.13,0,0,1,249,598.64c.46-2,1-4.14,1.55-6.31C256.9,568.77,267,557.24,277,551.64A43.29,43.29,0,0,1,306,547.41a57.25,57.25,0,0,1,9.37,2.41c.95.33,1.7.61,2.22.84a3.28,3.28,0,0,1,1,.63c3.81,3.29,16.78,13.83,33.68,16.82,13.53,2.54,30-1.19,43-17.17,1.22-1.5,2.41-3.09,3.57-4.81,13.93-20.23,41.48-82.85,68.43-151.83,25.7-65.87,50.43-136.81,60.83-180.63.46-2,.92-4,1.32-5.86,2.71-12.42,4.11-22.15,3.68-29.05a4.66,4.66,0,0,0-3.76-4.18h-.17a5.43,5.43,0,0,0-5.41,2C518.18,184.3,494.83,209,469,230.45c-12.91,10.73-26.51,20.74-38.8,27.55-8.22,4.63-15.87,7.63-21.93,8.71a20.77,20.77,0,0,1-7.62.22l-.72-.13c-12.08-2.66-21.24-6.93-28.62-13a55.58,55.58,0,0,1-7.22-7.08c-8.51-9.87-14.32-23.37-19.05-40.59a29.89,29.89,0,0,1-.59-14.43c2.21-10.25,10.45-18.25,20.3-23.45s21.09-7.19,26.79-6.1a5.62,5.62,0,0,0,3.27-.44,686.49,686.49,0,0,0,64-35.1c22.69-14.16,44.88-29.57,63.49-47.9C533.64,67.56,540.74,53.25,553,42.79c14.6-12.48,36.59-12,55.11-8.36C624.17,37.55,647.52,43,659,54c5.81,5.53,8.77,13,9.72,20.51,1.91,14.79-2.14,29.81-6.57,44-6.23,20-15.62,39.19-21.38,59.32q-16.39,57.54-32.93,115c-21.31,74.62-43.1,149.23-61.5,224.47-1.9,7.79-3.78,15.61-5.48,23.44-2.89,13.31-4.56,22.67-4.61,28.14,0,17.41.46,29.14,4.73,38.13l.16.3A4.65,4.65,0,0,0,541.42,608Z"/><ellipse class="cls-12" cx="262.77" cy="954.87" rx="50.76" ry="15.38"/><ellipse class="cls-12" cx="564.85" cy="953.28" rx="50.76" ry="15.38"/><path class="cls-13" d="M664.25,556.73c3.41-2.94,5-7.46,6.42-11.75l27.45-81.93c4-12.11,2.42-27.52-13.68-27.53-19.36,0-86.48-10.61-97.88,6.71-2.78,4.25-3.72,9.39-4.6,14.37q-7.1,40.08-14.21,80.18c-6.76,38.2,57.44,24,79.1,24.11a63.07,63.07,0,0,0,6.72-.24A18.35,18.35,0,0,0,664.25,556.73ZM544.16,435.53H428.1a16.53,16.53,0,0,0-16.52,16.53v92.18a16.52,16.52,0,0,0,16.52,16.51h99.71a16.5,16.5,0,0,0,16.26-13.63l16.35-92.18A16.53,16.53,0,0,0,547,435.79,16.3,16.3,0,0,0,544.16,435.53Zm-170.94,0H257.81a16.53,16.53,0,0,0-16.52,16.53,16.92,16.92,0,0,0,.24,2.84l16.08,92.18a16.49,16.49,0,0,0,16.27,13.67h99.34a16.51,16.51,0,0,0,16.6-16.45V452.06a16.53,16.53,0,0,0-16.53-16.53Zm-171.11,0h-85a16.52,16.52,0,0,0-16.5,16.53,16.68,16.68,0,0,0,.84,5.19c4.75,14.26,9.42,28.54,14.25,42.8l16.67,49.47A16.52,16.52,0,0,0,148,560.75h70.42a16.53,16.53,0,0,0,16.26-19.39l-16.34-92.18A16.55,16.55,0,0,0,202.11,435.53ZM147.28,593.37c8.33,25.66,17,51.34,25.66,77l8.73,26.16a16.54,16.54,0,0,0,15.71,11.3h46.78a16.54,16.54,0,0,0,16.27-19.4l-14.58-82.59-1.47-9.4a16.52,16.52,0,0,0-16.3-13.84H143.46ZM373.22,707.84a16.53,16.53,0,0,0,16.6-16.46V599.14a16.53,16.53,0,0,0-16.53-16.53H283.68A16.5,16.5,0,0,0,267.42,602h0l16.31,92.16A16.52,16.52,0,0,0,300,707.84Zm128.59,0a16.52,16.52,0,0,0,16.26-13.65L534.39,602v-.28a16.52,16.52,0,0,0-13.72-18.9,17.28,17.28,0,0,0-2.59-.2h-90a16.53,16.53,0,0,0-16.53,16.53v92.16a16.53,16.53,0,0,0,16.53,16.53Zm102.21,0a16.49,16.49,0,0,0,15.63-11.26c2.94-8.81,5.88-17.46,9.08-26.2,8.33-25.67,17-51.42,25.68-77l3.47-10.76H573.53a16.52,16.52,0,0,0-16.24,13.61l-1.73,9.63L541,688.44a16.51,16.51,0,0,0,13.38,19.14,16.32,16.32,0,0,0,2.88.26ZM759.9,404.42C739,472.17,713.69,538.48,691.52,605.85c-10.53,32-21.11,62.95-29.53,95.49-4.41,17.19-13,35.1-29.25,42.36-27.91,12.5-71.1,4.09-101,4.06l-113.38-.14-221.82-.3c-10.54,0-21.39-.08-31.1-4.15-20.86-8.69-20-33.66-26.58-51.95l-26-72.19c-9.9-27.48-16.65-49.51-28.72-86.54C73,499.94,60.78,467.54,50.56,434.67c-8.43-27.11-1.25-38.49,29.38-38.49l343.43.13h260c24,0,47.26-3.06,71.29,0,2,.26,4.29.72,5.34,2.45S760.48,402.6,759.9,404.42Z"/><path class="cls-13" d="M534.73,747v102a30.19,30.19,0,0,0,30.19,30.17h.33a30.2,30.2,0,0,0,30.24-30.17h0V747Z"/><path class="cls-14" d="M565.25,828.5A62.79,62.79,0,1,0,628,891.29h0A62.83,62.83,0,0,0,565.25,828.5Z"/><path class="cls-15" d="M565.25,873.29a18.39,18.39,0,1,0,18,19.08c0-.34,0-.69,0-1a18.15,18.15,0,0,0-18-18Z"/><path class="cls-13" d="M229.49,747v102A30.49,30.49,0,0,0,260,879.24h0a30.2,30.2,0,0,0,30.17-30.17V747Z"/><path class="cls-14" d="M260,828.5a62.79,62.79,0,1,0,62.78,62.79h0A62.85,62.85,0,0,0,260,828.5Z"/><path class="cls-15" d="M260,873.29a18.23,18.23,0,0,0-18.4,18h0A18.51,18.51,0,0,0,260,909.71a18.22,18.22,0,0,0,18-18.38,17.94,17.94,0,0,0-17.81-18Z"/><rect class="cls-13" x="290.19" y="786.22" width="244.54" height="23.93"/><path class="cls-13" d="M715.05,518.08c3.15-7.49,8.38-12.08,10.82-19.94,12.35-40,28.76-77.75,41.13-117.74,4.8-15.53,9.72-31.31,18.85-44.76s23.22-24.46,39.41-25.87c17.63-1.54,69,21.72,71.59-10.36,2.44-30.66-53.93-26.63-71.6-27.76-18.06-1.16-37.66-1.33-52.35,9.24-13.53,9.72-19.84,26.44-25.45,42.08C727.2,379.65,711,441.47,690.74,498.14c-4.73,13.23-12.16,25.86-.5,33.67,8.21,5.51,16.66-1.63,23.51-8.81C714.89,521.85,713.94,520.72,715.05,518.08Z"/><path class="cls-14" d="M903.11,246.85a49.41,49.41,0,1,0,.41,0Z"/></svg>