<svg id="Layer_1" data-name="Layer 1" xmlns="http://www.w3.org/2000/svg" viewBox="0 0 1000 1000"><defs><style>.cls-1{fill:#999892;}.cls-2{fill:#e96524;}.cls-3{fill:#eb7539;}.cls-4{fill:#59b5d1;}.cls-5{fill:#172744;}.cls-6{fill:#1d2a4c;}</style></defs><ellipse class="cls-1" cx="250.86" cy="955.67" rx="54.05" ry="15.38"/><ellipse class="cls-1" cx="567.49" cy="954.08" rx="54.05" ry="15.38"/><path class="cls-2" d="M693.9,584.35c.66-1.92,1.39-3.81,2-5.76.15-.51.36-1,.53-1.54.78-2.62,1.36-5.3,2-7.95s1.44-5.19,2-7.8c.69-3.31,1.22-6.63,1.77-9.94.45-2.55,1-5.1,1.29-7.67a7,7,0,0,1,.18-1c.62-5,1-9.94,1.26-14.91.09-1.29.09-2.6.14-3.91.14-4.34.14-8.68,0-13a41.38,41.38,0,0,0-.15-4.32c-.27-5.27-.67-10.52-1.35-15.8v-.48c-.84-6.4-1.92-12.81-3.31-19.22q-1.39-6.1-3.31-12.29c-.33-1.11-.8-2.2-1.16-3.31-1-3-2-6-3.18-9a.54.54,0,0,1,0-.18l-.38-1c-.4-1-.9-1.91-1.31-2.87-1.44-3.46-3-6.91-4.65-10.32-.8-1.65-1.66-3.31-2.51-4.88s-1.54-3.17-2.4-4.74c-.48-.85-1.07-1.66-1.55-2.49-2.85-5-5.85-9.82-9.08-14.57-.68-1-1.28-2-2-3q-5.19-7.44-10.9-14.31h0l-2.57-3-15.47-17.84c5.58-5.2,10.82-10.45,15.62-15.77l.2-.21c4.42-4.89,8.38-9.86,12.14-14.91.42-.55.95-1.08,1.34-1.66l1.28-1.74c.63-.86,1.11-1.74,1.65-2.6.87-1.26,1.84-2.46,2.67-3.72,1.56-2.36,3-4.72,4.37-7.11.35-.58.77-1.16,1.13-1.74l.81-1.44.15-.26.46-.8c.22-.38.35-.79.57-1.18,1.52-2.81,3.06-5.61,4.39-8.44.81-1.66,1.47-3.42,2.2-5.12.38-.93.81-1.86,1.18-2.78,1.65-4.08,3.16-8.15,4.42-12.28.2-.69.33-1.42.53-2.12.31-1.11.56-2.2.84-3.31q1.66-6.51,2.72-13.07c.15-.86.31-1.66.43-2.57a11.48,11.48,0,0,1,.22-1.26c.36-2.83.36-5.69.53-8.54.15-2.24.48-4.44.49-6.63l-.1-.1h0l.1.1v-2.5h0c0-1.16-.23-2.35-.28-3.53-.13-4.2-.26-8.43-.81-12.68a14.44,14.44,0,0,0-.33-2,4.74,4.74,0,0,0-.08-1.05c-.19-1.29-.39-2.56-.62-3.84-.16-.94-.43-1.92-.59-2.86-.28-1.48-.62-3-1-4.48-.48-2.31-1.11-4.67-1.74-7-.4-1.46-.78-2.91-1.21-4.37-.78-2.55-1.66-5.12-2.57-7.67-.43-1.26-.81-2.5-1.29-3.76-1.46-3.81-3-7.64-4.72-11.48-1-2.23-2.11-4.47-3.22-6.62l-.39-.77c-.23-.46-.55-.87-.8-1.32-.49-1-.94-2-1.46-2.92-1.83-3.31-4-6.54-6.11-9.79-1.19-1.85-2.23-3.77-3.49-5.59a191.49,191.49,0,0,0-13-16.87l-34-39.23h0a192.5,192.5,0,0,1,12.89,16.68c1.29,1.87,2.37,3.84,3.58,5.76,2.61,4.09,5.2,8.2,7.43,12.46.82,1.52,1.66,3.09,2.34,4.65l-3-3.5c-3.05-3.49-6.07-7-9.11-10.5L635,121.3l-17.16-19.79c-4.16-4.79-8.61-9.32-13.25-13.73-1.48-1.39-3-2.7-4.51-4.06-3.31-3-6.62-5.88-10.2-8.66-.85-.68-1.66-1.44-2.47-2.1l.52.59h0l-.52-.59c-.86-.67-1.8-1.21-2.65-1.86-4.6-3.44-9.31-6.62-14.18-9.84-1.12-.73-2.23-1.52-3.31-2.23-6-3.7-12.11-7.11-18.39-10.29-1.54-.78-3.14-1.49-4.73-2.25-5-2.42-9.94-4.64-15.11-6.71-1.84-.75-3.68-1.51-5.56-2.22-6.63-2.49-13.25-4.8-19.88-6.74h0A226,226,0,0,0,423,22.19c-3.32.3-6.71.66-10,1.06-3.8.46-7.57,1-11.27,1.65l4.67,5.37c-1,.17-2,.38-3,.55q-5.52.88-10.9,2l-5,1q-5.82,1.29-11.46,2.82c-1.09.31-2.22.56-3.31.88q-7.14,2-13.88,4.39c-1.18.41-2.34.87-3.5,1.3-3.31,1.23-6.62,2.52-9.82,3.86-1.46.62-2.87,1.25-4.27,1.89-3,1.33-5.9,2.73-8.73,4.18-1.18.61-2.41,1.19-3.56,1.82-3.86,2.05-7.59,4.19-11.09,6.42-.43.27-.81.57-1.21.85-3.08,2-6,4.06-8.77,6.18-.4.3-.83.56-1.21.86-.9.69-1.66,1.44-2.55,2.15-1.28,1.06-2.57,2.11-3.76,3.18s-2.34,2.19-3.45,3.31-2.32,2.24-3.41,3.42c-.37.38-.78.74-1.13,1.12s-.69,1-1.07,1.39A86.55,86.55,0,0,0,285.64,91c-.31.48-.76.93-1.07,1.41-.18.23-.27.5-.43.75a67,67,0,0,0-3.5,6.17c-.26.52-.63,1-.89,1.56l-.1.27a57.21,57.21,0,0,0-3,7.8v.18a5.44,5.44,0,0,0-.15.7A48.17,48.17,0,0,0,275,116.5a6.33,6.33,0,0,1-.16.78c0,.25,0,.66,0,1a45.22,45.22,0,0,0,0,10.4v.1a.76.76,0,0,0,.1.43,47.38,47.38,0,0,0,1.82,7.9c.22.75.48,1.48.75,2.22a55.51,55.51,0,0,0,3.31,7.59c.11.2.16.41.28.61a.57.57,0,0,0,.12.18c.76,1.39,1.65,2.75,2.56,4.13.5.74.91,1.49,1.43,2.22a75,75,0,0,0,5,6.29L320,194.76c-1-.21-2-.23-3-.53A55.84,55.84,0,0,1,297.65,184a127.23,127.23,0,0,1-17.29-16.25h0l34,39.27a125.09,125.09,0,0,0,17.27,16.23A55.74,55.74,0,0,0,351,233.47a47.82,47.82,0,0,0,9.36,1.66c.59,0,1.2.11,1.78.13a47.41,47.41,0,0,0,8.75-.36,12.46,12.46,0,0,0,1.66-.27,56.21,56.21,0,0,0,8.28-1.94l.66-.18a75.37,75.37,0,0,0,8.46-3.39l1.74-.82c2.42-1.19,4.82-2.45,7.19-3.84.17-.1.33-.23.52-.33,4.24-2.53,8.38-5.33,12.43-8.28,1.06-.78,2.12-1.52,3.17-2.32,3.77-2.78,7.5-5.6,11.11-8.38q4.73-3.57,9-6.89c26.12-19.4,61.4-25.58,91.35-17a87.16,87.16,0,0,1,17.64,7.17,91.88,91.88,0,0,1,23,18.22,67.12,67.12,0,0,1,1.18,6.63c.11.91.13,1.84.21,2.75.18,2.53.27,5,.2,7.58,0,1.13-.11,2.26-.2,3.4a60.6,60.6,0,0,1-.88,6.29c-.29,1.66-.62,3.4-1.07,5.09a63.41,63.41,0,0,1-2.88,8.81,80.16,80.16,0,0,1-5.85,10.93c-.23.37-.42.76-.65,1.13a75.14,75.14,0,0,1-7.5,9.56,79.31,79.31,0,0,1-9.82,9,87.41,87.41,0,0,1-9.64,6.44c-1.08.65-2.21,1.2-3.32,1.79-2.36,1.26-4.77,2.47-7.25,3.58l-3.94,1.66c-2.45,1-5,1.87-7.49,2.7-1.29.43-2.57.87-3.86,1.24-3,.89-6.09,1.69-9.19,2.38-.8.18-1.66.43-2.4.6-3.91.83-7.85,1.51-11.8,2.09l-3.39.41c-2.87.36-5.73.68-8.56.93-1.45.13-2.87.21-4.31.31-2.57.18-5.14.32-7.67.42l-4.17.13H441.67c-3.62,0-7.19-.2-10.6-.38l-2.23-.15c-2.67-.17-5.3-.35-7.81-.56l-3.31-.32c-2-.2-4-.4-5.88-.61-1-.1-2.07-.23-3.06-.35l-5.27-.7-2.37-.33c-2.25-.31-4.37-.64-6.16-.94l-6.13-1.09c-3.18-.55-6.46-1.11-9.8-1.66l-2.51-.36c-2.53-.39-5.06-.77-7.65-1.1-1.19-.15-2.38-.25-3.59-.38-2.22-.23-4.46-.48-6.63-.63-1.34-.1-2.66-.11-4-.16-2.07-.1-4.12-.19-6.16-.15-1.41,0-2.78.13-4.17.21-1.91.1-3.81.22-5.65.45-1.42.17-2.77.46-4.12.73a49.86,49.86,0,0,0-5.15,1.17c-1.36.39-2.64.88-3.93,1.36a44.62,44.62,0,0,0-4.57,2.06,35.47,35.47,0,0,0-3.55,2.13c-.74.5-1.57.85-2.28,1.39a39.11,39.11,0,0,0-3.41,3l-1.08,1.15a27.84,27.84,0,0,0-2.68,3.44c-.09.13-.15.28-.24.43l-.43.75c-.38.66-.81,1.34-1.12,2a21.85,21.85,0,0,0-1.18,3,2.29,2.29,0,0,1-.1.23v.1a24.55,24.55,0,0,0-.86,4.07v1a25.26,25.26,0,0,0,0,3.89,15.71,15.71,0,0,0,0,2.17l.27,1.66a34.94,34.94,0,0,0,1.65,5.75c.22.59.53,1.17.78,1.77a39.66,39.66,0,0,0,1.82,3.91,3.41,3.41,0,0,0,.22.48c.11.23.33.43.44.66a55.72,55.72,0,0,0,6,8.53h0l26.5,30.58q-7.62-2.88-14.57-6.31a68.38,68.38,0,0,1-21.4-16.57l34,39.26a69,69,0,0,0,21.39,16.56,183.67,183.67,0,0,0,30.79,11.6c2.38.68,4.75,1.37,7.49,2,17.17,3.31,34.78,4.67,51.82,6.06,22.33,1.65,45.52,3.59,66.9,9.72a137.44,137.44,0,0,1,33.3,14.29A81.48,81.48,0,0,1,564.94,468h0c.31,2.36.45,4.8.54,7.23,0,1.13.24,2.24.22,3.32a84.1,84.1,0,0,1-.66,11,94.41,94.41,0,0,1-2.95,13.72,96.71,96.71,0,0,1-3.31,10.09c-1.89,4.6-4.21,8.79-6.45,13.05-1.65,3-3.31,6.08-5,8.94a98.39,98.39,0,0,1-5.73,8.37c-2,2.71-3.94,5.35-6.06,7.85A126.43,126.43,0,0,1,525,562.85c-.36.34-.74.62-1.12.95a125.07,125.07,0,0,1-13.37,10.48c-.48.32-.94.68-1.44,1a119.84,119.84,0,0,1-14.91,8.28c-.89.43-1.75.86-2.65,1.26a124.35,124.35,0,0,1-15.77,5.75c-1,.28-2,.56-3,.81a128.62,128.62,0,0,1-17.07,3.31c-.8.12-1.66.17-2.41.25a145.13,145.13,0,0,1-19,.88,159.88,159.88,0,0,1-40.5-6c-25.26-7.26-46.5-20.34-64.83-37.09-.63-.86-1.23-1.66-1.84-2.6-3.06-4.37-6.08-8.83-9-13.37-1.36-2.13-2.75-4.29-4.08-6.46q-4.62-7.52-9-15.25c-.88-1.54-1.79-3.05-2.65-4.61q-5.85-10.51-11.33-21.2l-.8-1.47c-.16-.3-.4-.5-.54-.8a58.21,58.21,0,0,0-6.15-8.87l-34-39.24a44.45,44.45,0,0,0-22-13.73,51.7,51.7,0,0,0-7-1.41c-.75-.12-1.49-.17-2.24-.23-1.65-.17-3.41-.25-5.15-.27h-2.38c-2.1.07-4.2.24-6.28.51a3.72,3.72,0,0,0-1.14.12,67.78,67.78,0,0,0-7.37,1.51c-.75.16-1.48.41-2.22.61-1.79.51-3.6,1.08-5.37,1.66l-2.37.87c-1.95.78-3.87,1.66-5.8,2.56l-1.44.66q-3.53,1.78-6.9,3.89l-1.66,1.11c-1.66,1.11-3.31,2.25-5,3.46-.33.27-.71.5-1.06.76l-.55.5a79.71,79.71,0,0,0-9.32,8.68c-.2.2-.43.36-.63.58s-.28.38-.43.56a71.61,71.61,0,0,0-5.73,7.37c-.13.2-.32.38-.45.58s-.41.77-.65,1.13a60.66,60.66,0,0,0-3.11,5.5c-.2.41-.48.79-.68,1.21l-.73,1.65a74.53,74.53,0,0,0-2.88,7.81c0,.11-.1.24-.13.38s-.1.66-.2,1a68.72,68.72,0,0,0-2,9.49c0,.45-.24.88-.27,1.33s0,.68,0,1a72,72,0,0,0-.48,8.81h0a76.14,76.14,0,0,0,.65,8.93v.89c.08.57.24,1.13.34,1.66.34,2.22.77,4.44,1.28,6.63.2.86.4,1.65.61,2.58.76,2.83,1.66,5.65,2.59,8.43a.6.6,0,0,0,.1.35c1.07,3,2.3,5.9,3.61,8.81.34.78.71,1.54,1.09,2.3,1,2.19,2.12,4.38,3.31,6.63.25.46.47.94.7,1.41l.36.54a186.06,186.06,0,0,0,11.08,17.44c.27.38.57.78.85,1.16,4.16,5.73,8.58,11.3,13.25,16.57l29.43,33.95c1,1.11,1.92,2.22,2.9,3.31l1.66,2a363.76,363.76,0,0,0,43,41.4q-10.15-6-19.49-12.62c-14.36-10.32-42.41-32-66.54-59.86l34,39.24c24.15,27.84,52.16,49.54,66.54,59.88,24.94,18,54.37,31.87,87.42,41.41,75.38,21.65,156.75,16.66,217.66-13.25,7.4-3.65,14.43-7.67,21.3-11.86,2-1.24,3.92-2.54,5.9-3.81,5-3.22,9.72-6.63,14.37-10.06,1.15-.86,2.42-1.65,3.55-2.48.81-.63,1.52-1.34,2.32-2,3.31-2.62,6.42-5.35,9.54-8.11,2-1.74,4-3.47,5.93-5.27,3.31-3.12,6.37-6.33,9.42-9.58,1.29-1.37,2.72-2.63,4-4,.27-.28.5-.61.78-.91,1.51-1.66,2.91-3.5,4.36-5.24,2.4-2.86,4.8-5.71,7.07-8.66,1.49-2,2.86-4,4.32-6s3-4.1,4.44-6.22c.53-.79,1-1.65,1.52-2.46,1.2-1.87,2.32-3.78,3.45-5.67q2.77-4.59,5.33-9.29c1.08-2,2.09-4,3.1-6,.66-1.34,1.42-2.65,2.05-4,.86-1.83,1.66-3.73,2.41-5.59s1.82-4.1,2.65-6.17C691.5,591.24,692.71,587.83,693.9,584.35ZM537.72,172.47a85.2,85.2,0,0,1,21.35,11.15c1.13,2.27,2.24,4.55,3.22,6.89.38.92.74,1.87,1.11,2.83,1,2.58,1.82,5.22,2.55,7.87.18.69.41,1.39.59,2.1.25,1,.35,2,.55,3Zm2,265.74a141.4,141.4,0,0,1,18,9.13c.48.3.88.68,1.36,1,.58,1.33,1.22,2.61,1.65,3.95.34.94.78,1.89,1.1,2.85a79.18,79.18,0,0,1,2.58,11.59Z"/><path class="cls-3" d="M653.93,434.07c-8.28-36.55-32.71-76.09-62.57-100.57L585.87,329l5.21-4.6c61.13-54,77.41-114,48.28-178.36C616.58,95.7,565.17,54.93,501.78,36.71a221,221,0,0,0-77.68-8.49c1.36.26,2.7.69,4.06,1-1.53-.29-3-.66-4.56-.92-72.88,6.18-134.66,40.11-147,80.73-6.95,22.72,3.05,45.45,28.74,65.71a45.42,45.42,0,0,0,15,7.91c21.8,6.26,44.15-10.91,63.89-26.13,3-2.41,6.2-4.77,9.19-7.06,29.07-21.67,68.69-28.54,102.45-18.85a99.17,99.17,0,0,1,20.12,8.2c36.87,20.06,64.8,68.49,47.66,108.47-29.44,68.51-136.59,56.39-168.9,51l-6.13-1.09c-26.32-4.49-59.08-10.07-77.25,8.08A25.77,25.77,0,0,0,304,329.14c2.5,13.49,14.14,27.78,28.29,34.65a173.69,173.69,0,0,0,28.44,10.79c2.28.63,4.58,1.26,6.95,1.85,16.1,3.05,33.35,4.49,50,5.78,23,1.86,46.79,3.73,69.45,10.24a148.4,148.4,0,0,1,36.44,15.64c37.9,23,51.6,64.34,34.87,105.37-21.8,53.12-68.34,84-124.56,82.55a159.49,159.49,0,0,1-40.5-6c-66.63-19.14-105.13-78.6-136.7-139.82-6.74-13-16.56-21.53-29.2-25.07-30.47-8.75-72,12.52-85.6,43.59-31.27,71.64,67.58,150.12,98.64,172.46C264,658.05,292.8,671.64,324,680.69c2.91.83,5.8,1.61,8.7,2.35,69.86,18,144,12.67,199.72-14.91C626.16,621.94,675,527.92,653.93,434.07Z"/><path class="cls-2" d="M501.78,36.68C565.17,54.9,616.58,95.7,639.36,146c29.13,64.33,12.85,124.34-48.28,178.36l-5.21,4.6,5.49,4.51c29.81,24.48,54.38,64,62.57,100.57,21,93.85-27.77,187.86-121.49,234C476.69,695.59,402.58,700.93,332.72,683a387.17,387.17,0,0,0,75.84-3.71c81.16-12.51,149-60.41,184.92-131.6,39.14-77.7,14.29-179.3-67-220.13,41.94-30.38,71.42-72.15,72.88-125,1.87-61.89-49.69-115-100.34-145.76A218.16,218.16,0,0,0,445.2,33.2q-10.44-3-21.1-5A221,221,0,0,1,501.78,36.68Z"/><path class="cls-4" d="M666.19,431.74C657.91,394.8,634,355.2,604.64,328.85c61.2-56.7,76.76-119.74,46.16-187.55C626.51,87.71,572,44.32,505.13,25.1c-28-8-56.53-11.14-82.82-8.87-77.6,6.52-143.87,44-157.62,89.19-5.94,19.28-5,48.66,33,78.54A55.81,55.81,0,0,0,317,194.25c28.16,8.07,53-11.3,75.1-28.34l9-6.89c26.14-19.38,61.38-25.57,91.35-17A87.74,87.74,0,0,1,510,149.21c32.18,17.46,56.76,59.17,42.12,93.24-20.65,48-93.8,54.13-155.41,43.89l-6-1C363,280.5,325.08,274,302.41,296.89a36.92,36.92,0,0,0-10.67,34.19c3.31,17.31,17.28,34.78,35.1,43.48a183.79,183.79,0,0,0,30.77,11.6c2.37.69,4.74,1.35,7.49,2,17.19,3.32,34.78,4.69,51.83,6.08,22.32,1.66,45.51,3.6,66.9,9.72a137.79,137.79,0,0,1,33.29,14.3c32.53,19.73,44.17,55.24,29.68,90.57C527,557.14,484.9,585.23,434,583.94a148.16,148.16,0,0,1-37.43-5.66c-61.88-17.76-98.51-74.54-128.75-133.34-8.28-15.9-21-26.78-37-31.37-36.44-10.49-84.36,13.6-100.41,50.28-34.78,79.87,69.82,163.29,102.69,186.94,25,18,54.37,31.87,87.43,41.41C396,713.83,477.32,708.86,538.22,679,637,630.24,688.34,531,666.19,431.74ZM142,468.67c13.61-31.07,55.12-52.34,85.6-43.59,12.6,3.61,22.46,12.07,29.2,25.08,31.57,61.28,70.06,120.68,136.7,139.81A159.36,159.36,0,0,0,434,596c56.22,1.44,102.7-29.43,124.56-82.55,16.73-41,3-82.42-34.86-105.38a148.57,148.57,0,0,0-36.44-15.64c-22.66-6.51-46.46-8.38-69.45-10.23-16.7-1.3-33.94-2.74-50-5.78-2.37-.6-4.67-1.23-7-1.86a174.92,174.92,0,0,1-28.44-10.78c-14.14-6.88-25.79-21.17-28.29-34.65a25.78,25.78,0,0,1,7.42-23.94c18.22-18.22,50.93-12.57,77.25-8.08l6.13,1.09c32.25,5.42,139.4,17.54,168.83-51,17.15-40-10.78-88.41-47.65-108.47a99.64,99.64,0,0,0-20.12-8.2c-33.76-9.69-73.38-2.82-102.45,18.85-3,2.29-6.15,4.65-9.19,7.06-19.75,15.22-42.09,32.39-63.89,26.13a45.18,45.18,0,0,1-15-7.85c-25.7-20.26-35.7-43-28.74-65.71C288.92,68.35,350.76,34.43,424,28.18a221.25,221.25,0,0,1,77.69,8.5C565.1,54.9,616.52,95.7,639.29,146c29.14,64.33,12.86,124.34-48.28,178.36l-5.2,4.6,5.48,4.51c29.82,24.48,54.38,64,62.58,100.57,21,93.85-27.78,187.86-121.5,234C476.62,695.59,402.52,700.93,332.65,683q-4.33-1.12-8.69-2.36c-31.23-9-60.15-22.55-83.43-39.4C209.54,618.86,110.68,540.38,142,468.67Z"/><path class="cls-5" d="M670.35,548c3.55-3.08,5.18-7.74,6.66-12.2l28.48-85c4.19-12.56,2.51-28.55-14.19-28.55-20.08,0-89.73-11-101.55,7-2.87,4.38-3.85,9.77-4.77,14.9q-7.38,41.6-14.74,83.18c-7,39.65,59.59,24.92,82.06,25,2.29,0,4.66,0,7-.23A19.2,19.2,0,0,0,670.35,548ZM545.76,422.24H425.41a17.13,17.13,0,0,0-17.14,17.13V535a17.13,17.13,0,0,0,17.11,17.16H528.85A17.15,17.15,0,0,0,545.74,538l17-95.63a17.15,17.15,0,0,0-13.83-19.92,17.38,17.38,0,0,0-3.05-.27Zm-177.34,0H248.72a17.14,17.14,0,0,0-17.09,17.2,16,16,0,0,0,.25,2.85l16.75,95.63a17.14,17.14,0,0,0,16.76,14.25h103A17.13,17.13,0,0,0,385.57,535h0V439.34a17.14,17.14,0,0,0-17.11-17.14Zm-177.53,0H102.76a17.13,17.13,0,0,0-16.24,22.52c4.9,14.8,9.78,29.61,14.78,44.42l17.3,51.31a17.14,17.14,0,0,0,16.24,11.68h73A17.14,17.14,0,0,0,225,535a17.46,17.46,0,0,0-.26-3l-17-95.64a17.15,17.15,0,0,0-16.89-14.2ZM134,585.94c8.65,26.63,17.64,53.26,26.63,79.89L169.72,693A17.18,17.18,0,0,0,186,704.71h48.54a17.17,17.17,0,0,0,17.16-17.17,17.35,17.35,0,0,0-.26-3L236.26,598.9l-1.59-9.78a17.14,17.14,0,0,0-16.91-14.36H130.09ZM368.46,704.71a17.13,17.13,0,0,0,17.13-17.08v-95.7a17.13,17.13,0,0,0-17.12-17.15h-93a17.15,17.15,0,0,0-17.14,17.13,16.88,16.88,0,0,0,.27,3h0l16.93,95.62a17.16,17.16,0,0,0,16.88,14.16Zm133.4,0a17.16,17.16,0,0,0,16.88-14.16l16.93-95.62v-.29A17.14,17.14,0,0,0,521.48,575a18,18,0,0,0-2.74-.22H425.41a17.14,17.14,0,0,0-17.14,17.14h0v95.7a17.14,17.14,0,0,0,17.12,17.15h0Zm106,0A17.1,17.1,0,0,0,624.13,693c3-9.06,6.15-18.15,9.43-27.2,8.63-26.63,17.62-53.26,26.63-79.89l3.59-11.17h-87.5a17.14,17.14,0,0,0-16.87,14.12l-1.79,10-15.15,85.67a17.15,17.15,0,0,0,13.9,19.87,17.35,17.35,0,0,0,3,.26Zm161.73-314.8c-21.73,70.3-47.95,139.1-70.95,209-10.92,33.19-21.9,65.31-30.64,99.15-4.61,17.84-13.52,36.41-30.34,43.94-29,13-73.78,4.26-104.74,4.19L415.34,746l-230.16-.3c-10.93,0-22.2-.09-32.27-4.33-21.62-9.06-20.71-34.91-27.55-53.91Q111.91,650,98.43,612.6c-10.27-28.53-17.3-51.36-29.8-89.79C57,489,44.32,455.43,33.72,421.32c-8.75-28.11-1.3-39.94,30.46-39.93l356.31.13,178.16.07h91.62c24.9,0,49-3.17,74,0,2.08.26,4.44.72,5.58,2.54S770.23,388,769.64,389.91Z"/><path class="cls-5" d="M536,745.37V851.16a31.34,31.34,0,0,0,31.31,31.31h.35A31.33,31.33,0,0,0,599,851.16V745.37Z"/><path class="cls-6" d="M567.69,829.94a65.14,65.14,0,1,0,65.14,65.14h0A65.2,65.2,0,0,0,567.69,829.94Z"/><path class="cls-4" d="M567.69,876.36a18.81,18.81,0,1,0,18.72,18.72h0A18.81,18.81,0,0,0,567.69,876.36Z"/><path class="cls-5" d="M219.31,745.37V851.16A31.63,31.63,0,0,0,251,882.47h0a31.34,31.34,0,0,0,31.31-31.31V745.37Z"/><path class="cls-6" d="M251,829.94a65.14,65.14,0,1,0,65.13,65.16v0A65.19,65.19,0,0,0,251,829.94Z"/><path class="cls-4" d="M251,876.36A18.88,18.88,0,0,0,231.88,895v.06A19.19,19.19,0,0,0,251,914.14a18.89,18.89,0,0,0,18.71-19.07h0a18.57,18.57,0,0,0-18.46-18.71H251Z"/><rect class="cls-5" x="282.31" y="786.03" width="253.72" height="24.83"/><path class="cls-5" d="M723.1,507.82c3.26-7.76,8.7-12.56,11.17-20.66,12.83-41.49,29.85-80.69,42.67-122.18,5-16.1,10.09-32.48,19.55-46.43s24.11-25.38,40.89-26.85c18.36-1.59,71.62,22.55,74.28-10.74,2.54-31.81-56-27.62-74.28-28.79-18.74-1.2-39.1-1.4-54.32,9.58-14,10.09-20.58,27.38-26.41,43.66-20.94,58.81-37.83,122.89-58.83,181.75-4.91,13.72-12.57,26.81-.5,34.91,8.5,5.71,17.27-1.69,24.38-9.08C722.93,511.76,722,510.58,723.1,507.82Z"/><path class="cls-6" d="M918.21,226.43a51.29,51.29,0,1,0,51.47,51.11h0a51.08,51.08,0,0,0-51-51.1Z"/></svg>