<svg id="Layer_1" data-name="Layer 1" xmlns="http://www.w3.org/2000/svg" viewBox="0 0 1000 1000"><defs><style>.cls-1{fill:#999892;}.cls-2{fill:#4b556f;}.cls-3{fill:#a7d8e7;}.cls-4{fill:#4cb4cc;}.cls-5{fill:#eb7539;}.cls-6{fill:#172744;}.cls-7{fill:#1d2a4c;}.cls-8{fill:#59b5d1;}</style></defs><ellipse class="cls-1" cx="251.99" cy="948.59" rx="52.28" ry="15.38"/><ellipse class="cls-1" cx="563.14" cy="947" rx="52.28" ry="15.38"/><path class="cls-2" d="M268.11,522.86c.15.33.23.65.38,1,1.15,2.32,2.41,4.65,3.79,6.95a88.86,88.86,0,0,0,5.64,8.2c.61.76,1.27,1.45,1.87,2.19.33.41.58.87.91,1.26.55.67,1.19,1.25,1.78,1.9s1.22,1.41,1.86,2.09,1,.93,1.44,1.41c1.05,1.06,2.14,2,3.28,3,.81.74,1.64,1.5,2.42,2.19.47.41,1,.78,1.44,1.18,1.08.88,2.2,1.64,3.28,2.52s1.95,1.46,2.95,2.15l1.37,1c1.11.74,2.28,1.4,3.42,2.1s2.27,1.4,3.43,2c.43.23.82.5,1.25.71l.33.21c.56.3,1.15.51,1.64.79l.59.28c1.64.82,3.17,1.64,4.79,2.35,1,.44,2,.85,3,1.28l2.59,1c1.13.44,2.3.87,3.45,1.28,1.41.49,2.82.95,4.25,1.39,1,.31,2,.67,3,.95l49.22,14.14a147.53,147.53,0,0,0,82-.9,105.43,105.43,0,0,0,28-13.12,79.6,79.6,0,0,0,9.35-7.53c.33-.33.69-.61,1-.94a79.89,79.89,0,0,0,7.76-8.68,17.8,17.8,0,0,0,1.2-1.64,83.86,83.86,0,0,0,6.31-9.84c.33-.61.64-1.2,1-1.82a85.69,85.69,0,0,0,4.82-11.23c0-.19.16-.37.23-.55s.13-.66.25-1a90.13,90.13,0,0,0,3.28-13.36.47.47,0,0,1,.08-.31,3.83,3.83,0,0,0,0-1,89.7,89.7,0,0,0,.8-10.61c0-.51.12-1,.13-1.54s0-.59,0-.87a91.1,91.1,0,0,0-.8-11.32v-.81c0-.28-.26-1-.33-1.47a96.67,96.67,0,0,0-2.41-11.05c-.13-.5-.18-1-.31-1.49s-.22-.57-.3-.85c-.36-1.13-.78-2.27-1.16-3.4-.61-1.77-1.23-3.54-1.94-5.33-.52-1.26-1.11-2.54-1.64-3.82a30.19,30.19,0,0,0-1.64-3.55l-1.38-2.75a112.79,112.79,0,0,0-6.46-10.77c-.76-1.11-1.64-2.18-2.45-3.28-1.72-2.36-3.43-4.72-5.33-7-.15-.19-.26-.39-.42-.57-1.33-1.64-2.86-3.05-4.29-4.58s-2.46-2.77-3.8-4.08c-1.87-1.86-3.89-3.6-5.88-5.34-1.23-1.08-2.38-2.19-3.64-3.28-2.25-1.82-4.63-3.51-7-5.2-1.16-.83-2.26-1.64-3.44-2.52-2.46-1.65-5.07-3.14-7.65-4.63-1.2-.69-2.35-1.48-3.56-2.13a1.35,1.35,0,0,0-.26-.15c-2.43-1.3-4.92-2.38-7.47-3.51-1.38-.64-2.7-1.36-4.11-2a123.74,123.74,0,0,0-12.28-4.26l-.72-.21.74.19c-6.78-1.92-14.6-4.16-22.49-6.43l-26.8-7.69-1.64-.45c-.77-.19-1.56-.34-2.33-.54l-3.44-.79c-1.64-.36-3.4-.67-5.1-1-.66-.11-1.3-.24-2-.32l-2.23-.3c-2.26-.28-4.54-.44-6.82-.57-.84,0-1.64-.14-2.51-.15h-2.69c-2.1,0-4.2,0-6.32.13h-.3c-1.47.1-2.92.36-4.38.52-1.18.15-2.31.28-3.49.46-.79.13-1.64.18-2.4.32A90.14,90.14,0,0,0,309,391.49,87,87,0,0,0,301.6,397c-.81.66-1.56,1.39-2.35,2.07-1.64,1.36-3.15,2.69-4.66,4.15-.88.85-1.64,1.77-2.56,2.66-1.34,1.37-2.69,2.74-4,4.2-.86,1-1.64,2-2.5,3.06-1.18,1.45-2.38,2.87-3.49,4.37-.82,1.11-1.64,2.26-2.35,3.41-1,1.49-2.08,3-3,4.53-.76,1.21-1.45,2.48-2.17,3.71-.88,1.54-1.79,3.1-2.61,4.67-.65,1.31-1.26,2.64-1.88,4s-1.5,3.17-2.19,4.81c-.57,1.38-1.08,2.77-1.64,4.18-.42,1.1-.88,2.17-1.26,3.28-.18.53-.3,1-.46,1.65-.48,1.47-.89,3-1.31,4.47s-.89,3.29-1.25,4.93-.62,3-.9,4.51c-.2,1-.46,2.1-.62,3.16-.09.46,0,.91-.1,1.35a97.73,97.73,0,0,0-1,13.13v.47c0,.59.11,1.17.11,1.74a94.78,94.78,0,0,0,.66,9.68c.08.64,0,1.28.13,1.9h0c.1.66.31,1.32.42,2,.48,2.85,1.1,5.72,1.86,8.56.21.79.29,1.64.52,2.4.09.26.23.52.3.79A89.29,89.29,0,0,0,268.11,522.86ZM410.85,562a135.47,135.47,0,0,1-48.74,5.41L360,566.19c-1.26-.79-2.53-1.64-3.74-2.4s-2-1.43-3.05-2.16-2.35-1.78-3.48-2.71-1.87-1.64-2.79-2.45-2.18-2-3.28-3-1.77-1.86-2.63-2.81-1.56-1.78-2.31-2.7a77.13,77.13,0,0,1-6.64-9.24c-1.38-2.3-2.56-4.63-3.68-7a74.93,74.93,0,0,1-4.13-10.63c-.28-.85-.46-1.74-.68-2.61a77,77,0,0,1-1.64-7.79c-.16-1.07-.33-2.14-.46-3.2a80.45,80.45,0,0,1-.55-8.21c0-.83-.09-1.64-.1-2.51a94.13,94.13,0,0,1,.87-11.38c.13-.81.28-1.64.41-2.43a101.52,101.52,0,0,1,3.49-14.36c.46-1.39,1-2.79,1.49-4.18.43-1.12.82-2.23,1.3-3.28.62-1.53,1.35-3,2.05-4.53.53-1.08,1-2.21,1.64-3.28.77-1.44,1.64-2.86,2.41-4.27.61-1.06,1.2-2.15,1.86-3.2.85-1.37,1.79-2.69,2.7-4,.71-1,1.38-2.06,2.12-3.05,1-1.29,2-2.51,3-3.75.77-1,1.53-1.94,2.33-2.86,1.08-1.23,2.23-2.38,3.36-3.56.82-.84,1.64-1.72,2.45-2.53,1.26-1.21,2.59-2.34,3.9-3.47.79-.68,1.54-1.4,2.33-2q3.19-2.61,6.56-4.92a78.88,78.88,0,0,1,44.45-13.24c19.8,11.4,36.42,28.43,46.1,46.87,24.74,47.58,1.56,86.61-20.11,101.25a95.61,95.61,0,0,1-24.69,11.55Zm-25.53,17.06c-1.51.13-3,.2-4.51.3,1.51-.1,3-.15,4.53-.3Zm-10.19.58h-4.62c1.55,0,3.1,0,4.64,0Zm-10.28-.12c-1.64,0-3.12-.21-4.68-.33,1.57.12,3.12.27,4.69.33Zm95.81-145.72c-.52-.81-1.1-1.64-1.64-2.4.34.53.79,1,1.13,1.51s.35.61.53.89Zm-7.51-10.14c-.45-.54-.87-1.1-1.35-1.64a5.64,5.64,0,0,1,.53.56c.31.36.55.73.83,1.08Zm-18.46-18.46-2.05-1.64c.47.38,1,.71,1.44,1.08ZM425.22,398c-.92-.62-1.82-1.26-2.75-1.85.41.28.85.49,1.26.77S424.71,397.72,425.22,398Zm-10.94-6.79c-.36-.18-.71-.39-1-.59h0c.39.25.7.48,1,.66ZM391.1,578.48c1.42-.19,2.83-.32,4.23-.56C393.93,578.08,392.52,578.21,391.1,578.48Zm10.38-1.74c1.18-.23,2.4-.43,3.56-.69-1.16.18-2.38.37-3.56.6Z"/><path class="cls-2" d="M644,466.34c-.63-2.56-1.27-5.12-2-7.68-.31-1.13-.54-2.25-.87-3.38s-.74-2-1.07-3.1c-1.18-3.78-2.48-7.52-3.85-11.24-.71-1.9-1.37-3.79-2.14-5.68-1.64-4.18-3.52-8.3-5.44-12.42-.5-1-.89-2.11-1.4-3.13-.13-.28-.28-.53-.41-.79-.95-1.92-2-3.79-3-5.69-1.41-2.66-2.79-5.33-4.3-7.93-1.13-2-2.39-4-3.61-5.94-1.49-2.41-3-4.92-4.56-7.21-1.33-2-2.74-4-4.12-5.93-1.64-2.26-3.28-4.53-4.92-6.74-1.48-2-3-3.86-4.58-5.76-1.13-1.39-2.18-2.84-3.28-4.2-.46-.54-1-1-1.48-1.64q-5.65-6.56-11.74-12.67c-.45-.44-.84-.9-1.28-1.32-4.48-4.43-9.19-8.62-14-12.65-1.43-1.22-2.92-2.32-4.38-3.48-2.08-1.64-4.12-3.4-6.27-4.92h0l-.92-.68-.64-.19h0l.64.19c-1.29-1-2.67-1.77-4-2.67-1.76-1.23-3.53-2.41-5.32-3.58-3.84-2.49-7.76-4.84-11.76-7.09-1.13-.63-2.2-1.39-3.28-2-.53-.27-1.07-.48-1.64-.76-3.5-1.84-7.09-3.49-10.7-5.13-1.64-.77-3.36-1.64-5.1-2.35-5.37-2.25-10.82-4.28-16.41-6-1.46-.46-2.94-.9-4.41-1.33L487,299.83c-5.89-1.64-12-3.47-18.25-5.22l-26.25-7.53c1.49.42,3,.87,4.45,1.33,5.56,1.74,11,3.79,16.4,6,1.73.74,3.4,1.64,5.12,2.36,3.61,1.64,7.19,3.28,10.68,5.12,1.64.89,3.28,1.85,4.93,2.77.68.38,1.32.82,2,1.22l-45.53-13.13c-39.37-11.25-82.29-9.38-122.16,3a232.77,232.77,0,0,0-83.68,46.45c-.31-1.2-.64-2.39-.91-3.61q-.57-2.46-1.05-4.92c-.33-1.64-.69-3.59-1-5.43s-.48-3.28-.68-4.92-.41-3.53-.55-5.3-.27-3.55-.35-5.33-.16-3.6-.18-5.4,0-3.37,0-5.06.08-3.72.2-5.59.25-3.53.43-5.3.34-3.51.59-5.27.5-3.49.8-5.25c.36-2,.74-4,1.18-6,.36-1.64.74-3.28,1.17-4.92.52-2.05,1.13-4.07,1.74-6.09.45-1.48.91-2.95,1.44-4.41,1.3-3.73,2.76-7.39,4.41-11,.17-.38.3-.77.48-1.15A116.45,116.45,0,0,1,248.74,236c.69-1.09,1.44-2.14,2.15-3.28q2.7-4,5.77-7.81c.82-1,1.64-2.06,2.51-3a103.54,103.54,0,0,1,9.39-9.58c13.33-11.91,30.1-21.07,49.54-27.1,31.27-9.7,68.91-11.09,106.29-4.56l36.3,10.4a30.08,30.08,0,0,0,17.23-.12c6.33-2,15.27-7.12,22-20.24l1.64-3.45.57-1.39h0c.1-.28.15-.58.25-.86s.31-.65.43-1c.21-.64.29-1.37.47-2,.39-1.31.87-2.56,1.17-3.92.23-1,.31-2,.49-3,.08-.52.28-1,.36-1.54s0-.93.1-1.38a79.89,79.89,0,0,0,.75-10.6h0v-2.92a108.32,108.32,0,0,0-.93-10.94v-.67c-.09-.54-.27-1.07-.35-1.64a119,119,0,0,0-3-14c-.17-.55-.22-1.14-.38-1.64s-.25-.7-.36-1.08c-.38-1.18-.81-2.33-1.22-3.51-.65-2-1.34-4-2.13-6-.49-1.23-1-2.39-1.64-3.59s-1.15-2.84-1.8-4.19c-.18-.37-.41-.7-.61-1.08-1-2-2.05-3.79-3.13-5.61-.64-1.08-1.22-2.21-1.87-3.28a73.38,73.38,0,0,0-5.55-7.56l-.1-.13a52.43,52.43,0,0,0-5.76-5.88,81.67,81.67,0,0,0-7.41-5.68h0l-1-.68c-.36-.23-.8-.41-1.18-.64-2-1.32-4.07-2.61-6.29-3.78-1.31-.7-2.77-1.26-4.15-1.92s-2.49-1.19-3.8-1.77a120,120,0,0,0-14-5L390.23,34.11h0a118,118,0,0,1,14.14,5.11c1.2.53,2.35,1.09,3.5,1.64a99.93,99.93,0,0,1,10.76,5.86c.57.4,1.25.71,1.82,1.12l.23.15h0a83.12,83.12,0,0,1,7.42,5.67,57.13,57.13,0,0,1,5.35,5.43l-47-13.45q-21.93-6.27-51.93-6-10,.1-20.85,1a262.05,262.05,0,0,0-57.26,11c-51.58,15.87-97.24,47.79-128.54,89.6-4.83,6.45-9.26,13.12-13.44,19.78-1.35,2.19-2.5,4.45-3.77,6.66-2.7,4.6-5.34,9.23-7.72,13.95-1.39,2.72-2.6,5.51-3.88,8.2-2,4.34-4,8.68-5.8,13.13-1.19,2.95-2.28,5.95-3.38,8.94-1,2.63-2.06,5.19-3,7.84-.47,1.41-.77,2.87-1.23,4.28q-2.46,8-4.59,16c-.82,3.15-1.64,6.27-2.45,9.43-1.46,6.37-2.64,12.77-3.71,19.2-.31,1.87-.8,3.71-1.08,5.59a3.29,3.29,0,0,1-.11,1Q71.88,288,70.91,300.91c-.1,1.44-.09,2.9-.18,4.35-.45,7.15-.74,14.3-.79,21.44v1.64c0,2.08.19,4.15.23,6.24.1,6.38.28,12.74.67,19.11.21,3.28.51,6.56.79,9.74.49,5.7,1.08,11.34,1.8,17,.23,1.79.33,3.61.58,5.38.21,1.44.55,2.85.77,4.3q1.64,11.22,4,22.23c.38,1.92.69,3.87,1.13,5.77q3,13.6,6.84,26.73c.18.67.32,1.36.51,2,.48,1.64,1.1,3.12,1.64,4.72q3.28,10.63,7,20.84c.93,2.54,1.85,5.1,2.85,7.61,3.28,8.57,6.84,17,10.63,25,1.07,2.25,2.13,4.5,3.28,6.7,1.41,2.92,2.91,5.56,4.37,8.41,2.26,4.47,4.54,8.93,6.86,13.21,2,3.63,4,7.11,6,10.6,2.44,4.27,4.92,8.5,7.43,12.55,2,3.28,4.05,6.38,6.09,9.5,2.62,4,5.23,7.89,7.92,11.67,2,2.9,4.14,5.72,6.24,8.51,2.74,3.66,5.53,7.22,8.33,10.65,1.1,1.33,2.14,2.82,3.28,4.12s2.65,2.87,3.94,4.34c2,2.27,4,4.5,6,6.67q4.17,4.4,8.39,8.54c2,1.94,3.92,3.91,5.9,5.78,3.15,2.9,6.37,5.64,9.58,8.33,1.76,1.46,3.47,3,5.24,4.43,5,4,10.14,7.76,15.36,11.24,3.8,2.56,8,5.19,12.4,7.83,1.64,1,3.46,1.93,5.15,2.9,2.81,1.64,5.51,3.18,8.5,4.78l.54.29q-10.1-2-20-4.53c5.31,3.28,10.89,6.42,16.68,9.5l.77.38c1.15.62,2.38,1.18,3.56,1.79,4.63,2.38,9.34,4.69,14.16,6.89,2,.9,3.91,1.74,5.91,2.61,4.4,1.92,8.83,3.72,13.32,5.46,1.91.74,3.78,1.48,5.7,2.18,6.31,2.3,12.66,4.45,19,6.29h0L338.56,705l19.69,5.63H351.8a212.24,212.24,0,0,1-44.21-8.09l49.22,14.13A210.16,210.16,0,0,0,401,724.72a224,224,0,0,0,80.21-10.12c4.5-1.39,8.93-2.94,13.34-4.58,1.33-.51,2.64-1.06,4-1.64,3.05-1.19,6.08-2.41,9.09-3.71,1.55-.68,3.06-1.42,4.61-2.13,2.72-1.24,5.43-2.51,8.08-3.85,1.65-.82,3.2-1.64,4.8-2.51,2.54-1.35,5.06-2.73,7.54-4.14,1.64-.92,3.2-1.87,4.79-2.82,2.41-1.44,4.79-2.93,7.16-4.45,1.64-1,3.13-2,4.67-3.08,2.32-1.56,4.58-3.17,6.84-4.77,1.5-1.1,3-2.19,4.48-3.29,2.25-1.64,4.45-3.46,6.57-5.21,1.39-1.14,2.78-2.23,4.15-3.38,2.24-1.89,4.43-3.84,6.56-5.81,1.21-1.08,2.44-2.15,3.62-3.28,2.5-2.33,4.93-4.73,7.29-7.16.79-.78,1.64-1.64,2.39-2.36q4.67-4.92,9-9.84c.82-1,1.64-1.94,2.38-2.89,2-2.44,4.05-4.92,6-7.4,1.09-1.39,2.09-2.84,3.14-4.28,1.64-2.1,3.1-4.22,4.56-6.35,1.08-1.64,2.08-3.2,3.11-4.79,1.33-2,2.65-4.1,3.89-6.2,1-1.64,1.94-3.28,2.91-5,1.16-2.07,2.28-4.13,3.28-6.23.9-1.73,1.75-3.48,2.59-5.22.49-1,1-2,1.49-3l.53-1.13h0c.29-.66.52-1.37.8-2,1.51-3.4,2.87-6.84,4.15-10.29.5-1.31,1-2.61,1.48-3.94.15-.44.36-.88.51-1.32,1.46-4.39,2.77-8.8,3.89-13.23,1.24-5,2.23-10.06,3-15.13a.14.14,0,0,0,0-.09c.69-4.6,1.17-9.22,1.48-13.87.1-1.41.1-2.82.16-4.21.12-2.56.28-5.12.3-7.67V509.9c0-1.84-.13-3.66-.21-5.5-.14-3-.3-6-.56-9-.17-1.9-.38-3.79-.61-5.68-.16-1.47-.25-2.93-.46-4.39s-.52-2.74-.75-4.12c-.4-2.43-.84-4.92-1.32-7.32S644.69,468.85,644,466.34ZM314.41,694.27c-4.41-2-8.73-4.16-13-6.33,3,1,5.93,2,8.93,2.85l48,13.79c-2.13,0-4.26,0-6.38-.09a172.48,172.48,0,0,1-18.69-2.31c-4.48-1.74-8.92-3.53-13.3-5.45ZM427.8,168.92l2.38.69A25,25,0,0,1,426.9,171a22.74,22.74,0,0,1-3.29.51c-6.66-1.64-13.12-3-18.83-4.64-2.28-.66-4.68-1.16-7-1.76A278.57,278.57,0,0,1,427.8,168.92Zm36.5,132.74c1.15.51,2.27,1.09,3.38,1.64,3.51,1.64,7,3.29,10.44,5.21,1.47.8,2.88,1.75,4.33,2.6l-39.8-11.48A198.65,198.65,0,0,1,464.3,301.66Zm-67-130.4a275.46,275.46,0,0,1,28.21,3.37l4.92,1.44c-.62.25-1.28.49-1.85.66a29.47,29.47,0,0,1-7.52,1.16l-19.16-5.49C400.43,172,398.87,171.59,397.31,171.26ZM305.59,65.64a262.56,262.56,0,0,1,57.25-11,256.83,256.83,0,0,1,45.65.25c.62.36,1.26.7,1.85,1.08.87.54,1.82,1,2.66,1.64a66.49,66.49,0,0,1,6.74,5.09,41.24,41.24,0,0,1,4.79,4.92,61.49,61.49,0,0,1,4.79,6.56c.3.46.54,1,.84,1.46,1.18,2,2.35,4,3.45,6.19.73,1.54,1.42,3.18,2.11,4.79.49,1.11,1,2.18,1.46,3.28.64,1.64,1.22,3.44,1.79,5.18.38,1.15.8,2.27,1.17,3.45.09.34.16.72.27,1.06a110.49,110.49,0,0,1,3,13.82c0,.29.11.57.14.87-1.41-.45-2.78-1-4.2-1.41l-20.83-6-28.43-8.2a194.37,194.37,0,0,0-43.84-7.15A216.33,216.33,0,0,0,275,100.29c-1.05.31-2.14.52-3.28.87h0a218.39,218.39,0,0,0-31.49,12.6,205.52,205.52,0,0,0-45.4,30.3,188.32,188.32,0,0,0-24.61,26.12c-3.65,4.74-7,9.71-10.22,14.77-1,1.64-1.88,3.28-2.85,4.92-2.09,3.58-4.14,7.17-6,10.88-1,2.05-2,4.16-2.93,6.26-1.64,3.45-3.17,6.93-4.6,10.49-.92,2.28-1.77,4.58-2.61,6.91-.67,1.82-1.44,3.57-2.06,5.43-.45,1.36-.76,2.78-1.2,4.16q-1.81,5.81-3.28,11.77c-.72,2.79-1.46,5.56-2.09,8.36-.93,4.12-1.64,8.21-2.42,12.42-.33,2-.84,3.92-1.15,5.93-.13.87-.18,1.75-.3,2.64-.49,3.46-.82,6.92-1.16,10.42-.33,3.2-.69,6.39-.9,9.63-.23,3.54-.32,7.1-.41,10.66,0,2.45-.28,4.92-.28,7.3v2.33c0,3.28.19,6.56.34,9.85s.25,6.72.51,10.09.64,6.43,1,9.64c.3,2.55.46,5.11.82,7.63.12.87.33,1.72.46,2.59.48,3.17,1.08,6.27,1.64,9.4s1.23,6.67,2,9.95,1.54,6.13,2.33,9.19c.64,2.32,1.11,4.7,1.8,7,.27.93.64,1.8.92,2.74,1,3.28,2.17,6.48,3.28,9.69s2.1,6,3.29,8.91,2.64,6.19,4,9.26c1,2.13,1.81,4.38,2.84,6.48.33.69.74,1.29,1.09,2,2.05,4.09,4.31,8,6.56,11.93,1.13,1.92,2.15,3.92,3.28,5.79A192.12,192.12,0,0,0,173.36,464h0l49.22,14.12C256.78,415.64,309.1,362,375.17,341.55a199.28,199.28,0,0,1,84.9-7.14c1.87.87,3.79,1.64,5.59,2.61s4,2.21,5.94,3.28,4.32,2.48,6.39,3.84,3.9,2.66,5.8,4,3.89,2.77,5.78,4.23,3.66,3.05,5.46,4.6,3.53,3.06,5.22,4.66,3.28,3.28,4.92,5,3.28,3.43,4.92,5.2c1.15,1.31,2.2,2.67,3.28,4q4.38,5.34,8.21,11c.82,1.19,1.64,2.36,2.44,3.57a155.84,155.84,0,0,1,8.55,15c1.18,2.35,2.2,4.79,3.28,7.2.76,1.73,1.64,3.42,2.27,5.17,1,2.41,1.77,4.92,2.59,7.4.65,1.9,1.36,3.76,1.93,5.68q1.86,6.17,3.2,12.53c.27,1.22.43,2.45.66,3.66.59,3.15,1.15,6.3,1.56,9.5.18,1.49.33,3,.47,4.53.28,2.9.51,5.81.66,8.73,0,1.64.13,3.28.15,4.92,0,2.85,0,5.74-.1,8.63,0,1.64-.1,3.39-.2,5.08-.23,3.48-.62,7-1.06,10.44-.15,1.1-.22,2.18-.38,3.28a160.69,160.69,0,0,1-3.28,16.28c-1.25,4.92-2.68,9.84-4.25,14.48-.25.79-.56,1.55-.82,2.32a191.67,191.67,0,0,1-8.93,21.72.35.35,0,0,1-.08.16,193.86,193.86,0,0,1-11.4,20c-.33.5-.63,1-1,1.51a188.68,188.68,0,0,1-13.13,17.43c-.61.7-1.18,1.44-1.79,2.15a201.53,201.53,0,0,1-14.76,15.19l-2.35,2.17a209.74,209.74,0,0,1-16.29,13.22l-2.63,1.87q-8.62,6.11-17.9,11.48c-.83.48-1.64.92-2.52,1.38-6.37,3.51-12.93,6.79-19.69,9.7-.57.24-1.18.47-1.77.7-7.09,3-14.36,5.71-21.79,8a255.71,255.71,0,0,1-72.63,11.56A394.33,394.33,0,0,1,283.16,671c-3.73-2.27-7.35-4.51-10.62-6.7-5.25-3.49-10.37-7.28-15.4-11.28-1.64-1.32-3.28-2.76-4.93-4.12-3.38-2.82-6.74-5.69-10-8.73-1.82-1.64-3.63-3.51-5.43-5.28-3-3-6-6-9-9.17-1.83-2-3.61-4-5.42-6-2.61-3-5.18-6.06-7.74-9.19s-5.22-6.57-7.78-9.94c-2.26-3-4.49-6-6.73-9.16-2.54-3.59-5-7.32-7.51-11.09q-3.23-4.92-6.38-9.84c-2.48-4-4.92-8.21-7.3-12.38-2-3.49-4-7-6-10.59-2.42-4.48-4.8-9.14-7.16-13.82s-4.92-9.51-7.3-14.55c-3.84-8.07-7.35-16.56-10.73-25.17-.9-2.34-1.79-4.72-2.66-7.12-2.61-7.05-5-14.27-7.28-21.64-.64-2-1.31-4-1.89-6.05-2.59-8.83-4.92-17.85-6.92-27-.4-1.75-.67-3.56-1-5.31q-2.36-11.3-4.09-22.84c-.46-3-.88-6.09-1.28-9.19q-1.1-8.62-1.85-17.41c-.28-3.15-.56-6.3-.77-9.48-.41-6.56-.59-13.13-.69-19.69,0-2.44-.16-4.92-.15-7.32,0-7.66.35-15.32.84-23a24.78,24.78,0,0,1,.11-2.86q1-12.9,2.87-25.69c.35-2.36.87-4.68,1.28-7,1.07-6.32,2.22-12.62,3.65-18.87.72-3.14,1.64-6.24,2.42-9.34,1.42-5.43,2.92-10.81,4.63-16.16,1.28-4,2.68-8,4.15-12,1.1-3,2.2-6.05,3.41-9,1.79-4.38,3.76-8.7,5.76-13,1.3-2.77,2.51-5.58,3.91-8.34,2.38-4.67,4.92-9.27,7.64-13.84,1.3-2.23,2.48-4.55,3.86-6.75,4.17-6.74,8.6-13.35,13.42-19.68,31.42-41.89,77.08-73.75,128.55-89.73Z"/><path class="cls-3" d="M443,299.86c-37.66-11.88-81.33-11.27-122.95,1.64-46.07,14.31-85.74,41.95-111.57,77.9l-4.41,6-5.09-5.3A81.64,81.64,0,0,1,184.23,360c-29-56.59-17.18-131.6,26.84-170.73a145.71,145.71,0,0,1,54.14-29.78c41.33-12.81,92.76-12.22,141.32,1.64l1.91.87a18,18,0,0,0,16.4,3.06c5.75-1.78,11.1-6.45,14.89-13.79,3.59-7.08,5-16.07,4.79-25.69-.58-23.79-11.37-51.33-24.89-62.95-21.51-18.46-57.26-26-106.19-22.15a262,262,0,0,0-57.25,11c-51.34,16-97,47.92-128.3,89.73C47.07,249,60.27,401.66,109.3,505c32.17,68,69.5,115.47,114,145.25A305.51,305.51,0,0,0,249.93,666c29.78,15.76,67.86,30.3,102.63,32.43A208.52,208.52,0,0,0,428.21,689c76-23.58,138.5-84.91,155.38-152.58C606.47,444.75,538.16,329.82,443,299.86Zm-.61,260.57a104.53,104.53,0,0,1-28,13.12c-47.43,14.77-113.42,4.79-142.08-42.65-29.4-48.8-4.73-111.34,36.87-139.12a92.46,92.46,0,0,1,23.62-11.28c53.45-16.59,111.16,19.93,133.81,63.26C492.11,492.44,473.65,539.26,442.4,560.43Z"/><path class="cls-4" d="M271.79,101.26C330.52,83,396.48,89.46,444.63,125.6c.21,9.62-1.2,18.61-4.79,25.7-3.79,7.33-9.14,12-14.88,13.78A18.08,18.08,0,0,1,408.55,162l-1.9-.87c-48.56-13.9-100-14.49-141.33-1.64a145.57,145.57,0,0,0-54.14,29.78c-44,39.12-55.86,114.14-26.84,170.72a81.24,81.24,0,0,0,14.77,20.1l5.08,5.3,4.42-6c25.77-35.95,65.44-63.59,111.56-77.9,41.62-12.91,85.31-13.52,123-1.64,95.16,30,163.46,144.89,140.51,236.52-16.89,67.68-79.43,129-155.39,152.58a208.72,208.72,0,0,1-75.65,9.52c-34.77-2.14-72.85-16.67-102.62-32.44a400.73,400.73,0,0,0,80.67,7.56,255.48,255.48,0,0,0,73-11.3c67.84-21,122.94-70.73,141-143.39,22.79-91.37-33.32-183.15-127.79-197.67a200.15,200.15,0,0,0-90.71,6.43c-66,20.49-118.34,74.09-152.58,136.59-61.54-78.15-64.84-213.93-3.28-294C195.79,137.14,232.17,113.56,271.79,101.26Z"/><path class="cls-5" d="M446.91,288.39c-40.08-12.58-86.3-12-130.37,1.64-46.06,14.31-86,41.23-113.36,76.32a66.75,66.75,0,0,1-7.85-12c-23.46-45.58-20.9-116.59,24-156.31,13.36-11.92,30.11-21.06,49.55-27.1,38.79-12,87.19-11.49,133.14,1.38a31,31,0,0,0,26.68,4.33c6.31-2,15.29-7.11,22-20.23,15.28-29.78,0-83.2-22.75-102.94-24.06-20.7-62.73-29.08-115-25A269.47,269.47,0,0,0,254,39.85C199.83,56.63,151.15,89.94,118,134.15,34.14,246,47.61,403.6,98.09,510.21c33.09,69.84,71.73,118.93,118.13,149.94,31.83,21.21,86.33,47.23,135.17,50.33a223.78,223.78,0,0,0,80.21-10.14c80-24.77,145.83-89.61,163.87-161.24C620.18,440,549.44,320.56,446.91,288.39ZM109.21,505C60.19,401.6,47,249,127.8,141.17c31.39-41.85,77.11-73.73,128.5-89.69a262.05,262.05,0,0,1,57.26-11c48.92-3.81,84.67,3.69,106.18,22.15,13.52,11.62,24.32,39.16,24.89,63,.21,9.62-1.2,18.61-4.79,25.69-3.79,7.34-9.14,12-14.88,13.79A18.06,18.06,0,0,1,408.55,162l-1.9-.87c-48.56-13.89-100-14.48-141.33-1.64a145.71,145.71,0,0,0-54.14,29.78c-44,39.13-55.86,114.14-26.84,170.73a81.42,81.42,0,0,0,14.77,20.1l5.08,5.3,4.42-6c25.77-35.95,65.44-63.59,111.56-77.9,41.62-12.91,85.31-13.52,123-1.64,95.16,30,163.46,144.89,140.51,236.52-16.88,67.67-79.43,129-155.39,152.58a208.49,208.49,0,0,1-75.65,9.51C317.82,696.34,279.74,681.8,250,666a304.2,304.2,0,0,1-26.6-15.8C178.75,620.46,141.39,573,109.21,505ZM458.15,684c64.26-29.06,116-85,131.25-146.3C574.14,599,522.43,654.93,458.15,684Z"/><path class="cls-5" d="M332.77,380.38c53.47-16.6,111.17,19.94,133.83,63.27,25.48,48.79,7.07,95.6-24.18,116.68a104.81,104.81,0,0,1-28,13.12c-47.43,14.77-113.44,4.8-142.1-42.65-29.4-48.78-4.73-111.34,36.88-139.13A91.94,91.94,0,0,1,332.77,380.38Zm102.82,170.2c21.67-14.63,44.86-53.71,20.1-101.26-20.51-39-72-72.19-119.41-57.42a80.38,80.38,0,0,0-20.41,9.71c-36.88,24.61-59.06,80-33,123,25.43,42.25,85,50.86,128,37.47a95.59,95.59,0,0,0,24.72-11.48Z"/><path class="cls-6" d="M673.48,528.13c3.61-3.11,5.26-7.87,6.83-12.4l28.88-86.51c4.29-12.8,2.55-29.08-14.44-29.08-20.51,0-91.34-11.21-103.36,7.1-2.94,4.47-3.93,9.89-4.86,15.16q-7.51,42.38-15,84.67c-7.15,40.35,60.64,25.36,83.52,25.45a67.56,67.56,0,0,0,7.11-.23A19.43,19.43,0,0,0,673.48,528.13Zm-126.82-128H424.09a17.44,17.44,0,0,0-17.44,17.44h0v97.36a17.44,17.44,0,0,0,17.44,17.44H529.36A17.43,17.43,0,0,0,546.55,518l17.25-97.36a17.44,17.44,0,0,0-14.12-20.22A17,17,0,0,0,546.66,400.14Zm-180.47,0H244.24a17.44,17.44,0,0,0-17.45,17.43,17.72,17.72,0,0,0,.27,3.08L244,518a17.47,17.47,0,0,0,17.2,14.45H366.13A17.44,17.44,0,0,0,383.57,515h0V417.58a17.44,17.44,0,0,0-17.44-17.44Zm-180.71,0H95.68a17.43,17.43,0,0,0-16.55,22.93c5,15,9.94,30.07,15,45.21l17.57,52.22a17.44,17.44,0,0,0,16.53,11.88h74.36A17.42,17.42,0,0,0,220.07,515a17.75,17.75,0,0,0-.27-3.09l-17.25-97.36a17.45,17.45,0,0,0-17.13-14.38Zm-58,166.68c8.79,27.1,18,54.21,27.11,81.32q4.59,13.83,9.2,27.63a17.46,17.46,0,0,0,16.55,11.94h49.41a17.47,17.47,0,0,0,17.46-17.47,17.18,17.18,0,0,0-.27-3L231.54,580l-1.62-9.92a17.45,17.45,0,0,0-17.22-14.62H123.48ZM366.13,687.71a17.44,17.44,0,0,0,17.44-17.45h0V572.91a17.44,17.44,0,0,0-17.44-17.45H271.44A17.43,17.43,0,0,0,254,572.88a16.83,16.83,0,0,0,.28,3.09h0l17.22,97.33a17.45,17.45,0,0,0,17.19,14.41Zm135.78,0a17.44,17.44,0,0,0,17.24-14.41L536.38,576v-.29a17.47,17.47,0,0,0-14.48-20,18.1,18.1,0,0,0-2.75-.22H424.09a17.44,17.44,0,0,0-17.44,17.45h0v97.35a17.44,17.44,0,0,0,17.44,17.45h77.82Zm108,0a17.43,17.43,0,0,0,16.51-11.88c3.11-9.23,6.26-18.46,9.57-27.69,8.79-27.11,18-54.22,27.11-81.32l3.67-11.36H577.67a17.46,17.46,0,0,0-17.18,14.37L558.68,580l-15.44,87.21a17.47,17.47,0,0,0,17.19,20.51ZM774.5,367.27C752.38,438.83,725.69,508.86,702.27,580c-11.12,33.8-22.29,66.49-31.19,100.87C666.38,699,657.32,718,640.2,725.6c-29.5,13.21-75.1,4.34-106.64,4.3l-119.68-.15-234.34-.32c-11.12,0-22.59-.09-32.81-4.4-22-9.23-21.09-35.55-28-54.89q-13.77-38.08-27.45-76.22c-10.46-29-17.61-52.28-30.32-91.39-11.84-34.39-24.75-68.59-35.55-103.32-8.91-28.61-1.36-40.65,31-40.63l362.69.12,181.36.07h93.25c25.33,0,49.91-3.23,75.3,0,2.12.27,4.53.75,5.64,2.58S775.08,365.35,774.5,367.27Z"/><path class="cls-6" d="M536.69,729.1V836.8a31.9,31.9,0,0,0,31.87,31.86h.37A31.9,31.9,0,0,0,600.8,836.8V729.1Z"/><path class="cls-7" d="M568.93,815.18a66.31,66.31,0,1,0,66.31,66.31A66.31,66.31,0,0,0,568.93,815.18Z"/><path class="cls-8" d="M568.93,862.44a19.22,19.22,0,0,0-19.41,19v0a19.23,19.23,0,1,0,38.45,1q0-.51,0-1A19.14,19.14,0,0,0,568.93,862.44Z"/><path class="cls-6" d="M214.28,729.1V836.8a32.2,32.2,0,0,0,32.23,31.86h0a31.88,31.88,0,0,0,31.87-31.86V729.1Z"/><path class="cls-7" d="M246.57,815.18a66.31,66.31,0,1,0,66.31,66.31A66.31,66.31,0,0,0,246.57,815.18Z"/><path class="cls-8" d="M246.57,862.44a19.22,19.22,0,0,0-19.41,19v0a19.53,19.53,0,0,0,19.41,19.41,19.22,19.22,0,0,0,19-19.4h0a18.91,18.91,0,0,0-18.77-19Z"/><rect class="cls-6" x="278.44" y="770.49" width="258.26" height="25.28"/><path class="cls-6" d="M727.12,487.3c3.33-7.91,8.85-12.75,11.42-21,13-42.23,30.38-82.14,43.43-124.41,5.08-16.41,10.27-33.07,19.9-47.28s24.52-25.84,41.63-27.34c18.68-1.63,72.89,22.95,75.6-10.94,2.58-32.39-57-28.13-75.62-29.32-19.06-1.22-39.77-1.37-55.29,9.76-14.28,10.26-21,27.87-26.87,44.44-21.39,60-38.46,125.22-59.9,185.09-5,14-12.84,27.34-.5,35.55,8.66,5.81,17.59-1.73,24.81-9.25C727,491.3,726,490.1,727.12,487.3Z"/><path class="cls-7" d="M925.73,200.86a52.14,52.14,0,1,0,.49,0Z"/></svg>