<svg id="Layer_1" data-name="Layer 1" xmlns="http://www.w3.org/2000/svg" viewBox="0 0 500 500"><defs><style>.cls-1{fill:#1c2b4c;}.cls-2{fill:none;stroke:#e96426;stroke-miterlimit:10;stroke-width:12px;}.cls-3{fill:#606b81;}.cls-4{fill:#61c3e1;}.cls-5{fill:#63bddd;}.cls-6{fill:#e96426;}</style></defs><path class="cls-1" d="M468.93,250C464,537.78,36,537.73,31.07,250,36-37.78,464.05-37.73,468.93,250Z"/><rect class="cls-2" x="126.2" y="122.04" width="251.12" height="198.42" rx="5"/><path class="cls-3" d="M183.4,197.38c-9.52.45-22.25.83-22.63-12-.45-9.53-.83-22.26,12-22.64,9.52-.45,22.25-.83,22.63,12C195.85,184.26,196.23,197,183.4,197.38Z"/><path class="cls-3" d="M259.08,197.38c-9.52.45-22.25.83-22.63-12-.45-9.53-.83-22.26,12-22.64,9.52-.45,22.25-.83,22.63,12C271.53,184.26,271.91,197,259.08,197.38Z"/><path class="cls-3" d="M332.09,197.38c-9.53.45-22.26.83-22.64-12-.45-9.53-.83-22.26,12-22.64,9.52-.45,22.26-.83,22.64,12C344.54,184.26,344.92,197,332.09,197.38Z"/><path class="cls-3" d="M183.4,197.38c-9.52.45-22.25.83-22.63-12-.45-9.53-.83-22.26,12-22.64,9.52-.45,22.25-.83,22.63,12C195.85,184.26,196.23,197,183.4,197.38Z"/><path class="cls-3" d="M259.08,197.38c-9.52.45-22.25.83-22.63-12-.45-9.53-.83-22.26,12-22.64,9.52-.45,22.25-.83,22.63,12C271.53,184.26,271.91,197,259.08,197.38Z"/><path class="cls-3" d="M332.09,197.38c-9.53.45-22.26.83-22.64-12-.45-9.53-.83-22.26,12-22.64,9.52-.45,22.26-.83,22.64,12C344.54,184.26,344.92,197,332.09,197.38Z"/><path class="cls-3" d="M183.4,246.14c-9.52.45-22.25.83-22.63-12-.45-9.52-.83-22.26,12-22.64,9.52-.45,22.25-.83,22.63,12C195.85,233,196.23,245.76,183.4,246.14Z"/><path class="cls-3" d="M259.08,246.14c-9.52.45-22.25.83-22.63-12-.45-9.52-.83-22.26,12-22.64,9.52-.45,22.25-.83,22.63,12C271.53,233,271.91,245.76,259.08,246.14Z"/><path class="cls-4" d="M332.09,246.14c-9.53.45-22.26.83-22.64-12-.45-9.52-.83-22.26,12-22.64,9.52-.45,22.26-.83,22.64,12C344.54,233,344.92,245.76,332.09,246.14Z"/><path class="cls-3" d="M183.4,294.87c-9.52.45-22.25.83-22.63-12-.45-9.52-.83-22.25,12-22.63,9.52-.45,22.25-.83,22.63,12C195.85,281.76,196.23,294.49,183.4,294.87Z"/><path class="cls-5" d="M259.08,294.87c-9.52.45-22.25.83-22.63-12-.45-9.52-.83-22.25,12-22.63,9.52-.45,22.25-.83,22.63,12C271.53,281.76,271.91,294.49,259.08,294.87Z"/><path class="cls-3" d="M259.08,294.87c-9.52.45-22.25.83-22.63-12-.45-9.52-.83-22.25,12-22.63,9.52-.45,22.25-.83,22.63,12C271.53,281.76,271.91,294.49,259.08,294.87Z"/><path class="cls-3" d="M332.09,294.87c-9.53.45-22.26.83-22.64-12-.45-9.52-.83-22.25,12-22.63,9.52-.45,22.26-.83,22.64,12C344.54,281.76,344.92,294.49,332.09,294.87Z"/><path class="cls-6" d="M173.39,399a3.12,3.12,0,0,1-2.25.88,3.06,3.06,0,0,1-2.22-.88,3,3,0,0,1,0-4.32,3,3,0,0,1,2.22-.9,3.08,3.08,0,0,1,2.25.9,3,3,0,0,1,0,4.32Zm0-7.09H169l-.84-20.8h6Z"/><path class="cls-6" d="M208.29,396.54q0,12-11.27,12-10.56,0-10.56-11.37a26.74,26.74,0,0,1,.95-7.15l5.45-1a28.28,28.28,0,0,0-1.13,7.68q0,7.71,5.68,7.71t5.61-7.59V380.57h5.27Zm-13.22-11.75a2.77,2.77,0,1,1,4.71-2,2.78,2.78,0,0,1-4.71,2Z"/><path class="cls-6" d="M208.12,366.17l4.19-3.12a5.41,5.41,0,0,0,3.77,1.56,6.46,6.46,0,0,0,4.16-1.64v3.85a6.81,6.81,0,0,1-4.41,1.52,5,5,0,0,1-3.55-1.29L210,368.69Zm13.16,26h-5.37l-5.72-20.59,5.25-.72Zm-9.45,7.17v-4.16h12.36V371.17h5.29v28.21Z"/><path class="cls-6" d="M236.22,371.17h5.27v28.21h-5.27Z"/><path class="cls-6" d="M252.78,409.14l.39-4.2a12,12,0,0,0,3.25.47,4,4,0,0,0,3.18-1.17c.77-.89,1.15-2.36,1.15-4.41V380.57H266v14.65H270v4.16H266v.15q0,10-9.89,10A14.18,14.18,0,0,1,252.78,409.14Zm8.62-32.71a2.77,2.77,0,0,1,2-4.73,2.76,2.76,0,1,1,0,5.51A2.68,2.68,0,0,1,261.4,376.43Z"/><path class="cls-6" d="M269.33,395.22h15.48a25.42,25.42,0,0,0,.2-3.05c0-2.6-.59-4.52-1.76-5.74s-3.28-1.94-6.09-1.94a31.63,31.63,0,0,0-4.59.34V380.7a40.68,40.68,0,0,1,5.12-.37q6.62,0,9.64,2.95c1.94,1.88,2.91,4.77,2.91,8.69,0,1.14-.05,2.22-.15,3.25h3.12v4.16H269.33Zm7.54,12.12a2.64,2.64,0,0,1-.83-2,2.67,2.67,0,0,1,.83-1.95,2.59,2.59,0,0,1,1.93-.8,2.77,2.77,0,1,1-1.93,4.72Z"/><path class="cls-6" d="M292.59,395.22h15.49a25.33,25.33,0,0,0,.19-3.05c0-2.6-.58-4.52-1.76-5.74s-3.28-1.94-6.09-1.94a31.84,31.84,0,0,0-4.59.34V380.7a40.81,40.81,0,0,1,5.12-.37q6.62,0,9.65,2.95c1.94,1.88,2.91,4.77,2.91,8.69a44.79,44.79,0,0,1-.69,7.41H292.59Z"/><path class="cls-6" d="M319.09,371.17h5.28v28.21h-5.28Z"/><rect class="cls-6" x="114.42" y="111.85" width="272.68" height="31.66" rx="12"/><rect class="cls-3" x="159.42" y="88.65" width="37.33" height="49.7" rx="12"/><rect class="cls-3" x="308.11" y="88.65" width="37.33" height="49.7" rx="12"/></svg>
