<svg id="Group_15609" data-name="Group 15609" xmlns="http://www.w3.org/2000/svg" width="120" height="38.34" viewBox="0 0 120 38.34">
  <path id="Path_35" data-name="Path 35" d="M384.663,71.716c.135-.664.262-1.358.389-2.12a.838.838,0,0,0-.085-.669.942.942,0,0,0-.656-.292c-.421-.057-1.554-.171-1.554-.171a16.4,16.4,0,0,0-7.865,1.17,1.116,1.116,0,0,0-.743.925c-.175,1-2.421,13.651-2.742,15.5a.829.829,0,0,0,.091.67.735.735,0,0,0,.571.2c.454.008,3.124.005,3.124.005a.672.672,0,0,0,.713-.58l2.406-13.616a10.56,10.56,0,0,1,5.317-.309.842.842,0,0,0,.624-.04.869.869,0,0,0,.41-.679" transform="translate(-281.239 -55.914)" fill="#001378"/>
  <path id="Path_36" data-name="Path 36" d="M318.845,75.871l-.416,2.249c-1.028,5.459-3.824,8.35-9.509,8.35-4.368,0-6.745-2.762-6.745-6.552a8.718,8.718,0,0,1,.162-1.8l.416-2.249c1.093-5.812,4.176-8.35,9.509-8.35,4.336,0,6.776,2.569,6.776,6.488a13.139,13.139,0,0,1-.194,1.862m-7.354-4.138c-1.862,0-3.614,1.258-4.127,4.084l-.418,2.249a9.613,9.613,0,0,0-.159,1.542,2.711,2.711,0,0,0,2.937,2.682c2.09,0,3.623-1.535,4.1-4.136l.418-2.249a8.9,8.9,0,0,0,.16-1.476,2.719,2.719,0,0,0-2.914-2.7" transform="translate(-229.948 -55.275)" fill="#001378"/>
  <path id="Path_37" data-name="Path 37" d="M201.078,67.591a14.751,14.751,0,0,0-4.426.159,12.357,12.357,0,0,0-3.892,1.336c-.373.207-.58.445-.373.933.275.652.6,1.36.992,2.164.222.453.564.4.873.29.137-.05.27-.111.4-.172l.157-.071a9.448,9.448,0,0,1,2.77-.819,8.447,8.447,0,0,1,2.845.061,1.65,1.65,0,0,1,1.412,1.379,5.25,5.25,0,0,1-.192,2.378l-.366-.046c-.362-.046-.713-.091-1.064-.13a15.791,15.791,0,0,0-5.835.294c-3.408.885-5.236,3.289-4.89,6.433a4.352,4.352,0,0,0,1.292,2.649,7.271,7.271,0,0,0,4.98,1.994c.345.019.692.029,1.042.029a24.671,24.671,0,0,0,6.932-1.1,1.261,1.261,0,0,0,.616-.355,1.4,1.4,0,0,0,.245-.666l1.706-9.48a7.191,7.191,0,0,0-.345-3.889,4.414,4.414,0,0,0-.421-.84,6.291,6.291,0,0,0-4.458-2.524M201.027,78.7l-.668,3.675c-.225.031-.373.053-.6.085-.6.087-1.168.169-1.748.215a6.876,6.876,0,0,1-2.43-.1,4.343,4.343,0,0,1-.89-.365,1.242,1.242,0,0,1-.681-1.068,2.193,2.193,0,0,1,1.868-2.442,8.738,8.738,0,0,1,2.2-.254c.444,0,.862.024,1.235.053.406.032.815.084,1.247.139l.465.059" transform="translate(-146.397 -55.252)" fill="#001378"/>
  <path id="Path_38" data-name="Path 38" d="M432.79,67.56a14.751,14.751,0,0,0-4.426.159,12.357,12.357,0,0,0-3.892,1.336c-.373.207-.58.445-.373.933.275.652.6,1.36.992,2.164.222.453.565.4.873.29.137-.05.27-.111.4-.172l.157-.071a9.45,9.45,0,0,1,2.77-.819,8.447,8.447,0,0,1,2.845.061,1.65,1.65,0,0,1,1.412,1.379,5.252,5.252,0,0,1-.192,2.378l-.366-.046c-.362-.046-.713-.091-1.064-.13a15.79,15.79,0,0,0-5.835.294c-3.408.885-5.236,3.289-4.891,6.433a4.351,4.351,0,0,0,1.292,2.649,7.27,7.27,0,0,0,4.98,1.995c.345.019.692.029,1.041.029a24.671,24.671,0,0,0,6.932-1.1,1.26,1.26,0,0,0,.616-.355,1.4,1.4,0,0,0,.245-.666l1.706-9.48a7.191,7.191,0,0,0-.345-3.889,4.409,4.409,0,0,0-.421-.84,6.291,6.291,0,0,0-4.458-2.524m-.051,11.107-.668,3.675c-.225.031-.373.053-.6.085-.6.087-1.168.169-1.748.215a6.875,6.875,0,0,1-2.43-.1,4.351,4.351,0,0,1-.891-.365,1.242,1.242,0,0,1-.681-1.068,2.194,2.194,0,0,1,1.868-2.442,8.737,8.737,0,0,1,2.2-.254c.444,0,.862.024,1.235.053.406.032.815.084,1.247.14l.465.059" transform="translate(-318.136 -55.229)" fill="#001378"/>
  <path id="Path_39" data-name="Path 39" d="M272.042,52.566h-2.593l.572-3.178a.789.789,0,0,0-.776-.928H266.26a.788.788,0,0,0-.776.649l-3.152,17.51a4.73,4.73,0,0,0,4.655,5.568h1.807a.788.788,0,0,0,.776-.649l.623-3.463h-1.64A1.576,1.576,0,0,1,267,66.221l1.709-9.549h2.877a.789.789,0,0,0,.776-.649l.455-2.529a.788.788,0,0,0-.776-.928" transform="translate(-200.36 -41.147)" fill="#001378"/>
  <path id="Path_40" data-name="Path 40" d="M139.662,48.442H125.074a.986.986,0,0,0-.97.811l-3.956,21.978a.788.788,0,0,0,.774.928l3.162.007a.789.789,0,0,0,.778-.649l1.794-9.965h9.416a.788.788,0,0,0,.776-.649l.455-2.528a.788.788,0,0,0-.776-.928h-9.133c.2-1.12.679-3.783.883-4.9h10.93a.788.788,0,0,0,.776-.649l.455-2.528a.788.788,0,0,0-.776-.928" transform="translate(-95.023 -41.134)" fill="#001378"/>
  <g id="Group_123" data-name="Group 123" transform="translate(0 0)">
    <path id="Path_41" data-name="Path 41" d="M2.246,18.129l8.913-3.494L1.235,10.749a.713.713,0,0,1,.52-1.327l11.356,4.45,5.47-2.143a2.8,2.8,0,0,0,0-5.213L2.246.116A1.645,1.645,0,0,0,0,1.647V16.6a1.646,1.646,0,0,0,2.246,1.533M1.5,3.11a.717.717,0,0,1,.259.048L16.745,9.031a.712.712,0,0,1-.259,1.375.723.723,0,0,1-.261-.051L1.235,4.485A.712.712,0,0,1,1.5,3.11" transform="translate(0 -0.001)" fill="#0091d9"/>
    <path id="Path_42" data-name="Path 42" d="M18.61,52.127,2.09,58.6A3.29,3.29,0,0,0,0,61.663V75.027a2.194,2.194,0,0,0,2.994,2.042l15.136-5.93a3.509,3.509,0,0,0,2.229-3.267v-17.9a2.8,2.8,0,0,1-.329.928,2.951,2.951,0,0,1-1.421,1.231" transform="translate(0 -38.882)" fill="#00b3cd"/>
  </g>
</svg>
