<svg id="Layer_1" data-name="Layer 1" xmlns="http://www.w3.org/2000/svg" viewBox="0 0 500 500"><defs><style>.cls-1{fill:#1c2b4c;}.cls-2{fill:#e96426;}.cls-3{fill:#61c3e1;}</style></defs><path class="cls-1" d="M469.18,249.62c-4.91,287.78-433,287.73-437.85,0C36.24-38.16,464.31-38.12,469.18,249.62Z"/><path class="cls-2" d="M167.28,398.76a3.08,3.08,0,0,1-2.25.88,3,3,0,0,1-2.22-.88,2.9,2.9,0,0,1-.9-2.17,2.87,2.87,0,0,1,.9-2.14,3,3,0,0,1,2.22-.9,3.08,3.08,0,0,1,2.25.9,2.85,2.85,0,0,1,.92,2.14A2.89,2.89,0,0,1,167.28,398.76Zm0-7.09h-4.4l-.84-20.8h6Z"/><path class="cls-2" d="M194.37,396.36q0,12-11.27,12-10.56,0-10.57-11.37a26.67,26.67,0,0,1,1-7.14l5.45-1a27.85,27.85,0,0,0-1.13,7.68q0,7.71,5.68,7.71t5.61-7.6V380.38h5.27ZM181.15,384.6a2.76,2.76,0,0,1,1.95-4.72,2.75,2.75,0,1,1-1.95,4.72Z"/><path class="cls-2" d="M194.19,366l4.2-3.13a5.38,5.38,0,0,0,3.77,1.57,6.48,6.48,0,0,0,4.16-1.64v3.84a6.76,6.76,0,0,1-4.41,1.53,5,5,0,0,1-3.56-1.29L196,368.51Zm13.17,26H202l-5.73-20.58,5.26-.72Zm-9.46,7.17V395h12.37V371h5.29v28.2Z"/><path class="cls-2" d="M222.3,371h5.27v28.2H222.3Z"/><path class="cls-2" d="M271.19,408.74q-7.79.45-12.93.45-9.36,0-13.54-3T240.66,397a26.38,26.38,0,0,1,1-7.07l5.44-1a27.9,27.9,0,0,0-1.13,7.56c0,3.14.94,5.34,2.81,6.62s5.38,2,10.28,2q2.87,0,6.6-.23v-5.65H262.9q-10.68,0-10.68-9.28a9.87,9.87,0,0,1,2.52-7q2.83-3,8.05-3a23.71,23.71,0,0,1,8.4,1.38ZM257.1,376.56a2.69,2.69,0,0,1-.76-1.92,2.73,2.73,0,0,1,.76-1.93,2.51,2.51,0,0,1,1.88-.8,2.55,2.55,0,0,1,1.91.8,2.64,2.64,0,0,1,.76,1.93,2.7,2.7,0,0,1-.76,1.92,2.58,2.58,0,0,1-1.91.8A2.52,2.52,0,0,1,257.1,376.56Zm8.91,8.2a8.65,8.65,0,0,0-3.75-.72,4.46,4.46,0,0,0-3.54,1.52,5.78,5.78,0,0,0-1.26,3.87c0,3.73,2,5.6,6,5.6H266Zm-2.27-8.2a2.69,2.69,0,0,1-.76-1.92,2.73,2.73,0,0,1,.76-1.93,2.51,2.51,0,0,1,1.88-.8,2.44,2.44,0,0,1,1.87.8,2.65,2.65,0,0,1,.77,1.93,2.71,2.71,0,0,1-.77,1.92,2.6,2.6,0,0,1-3.75,0Z"/><path class="cls-2" d="M278.33,372.45c-1.49,0-2.38-.91-2.65-2.75l-.31-2.25,2.4-.39.31,2.25c.12.64.41,1,.88,1q1.1,0,1-1.29l-.36-2.25,2.41-.39.35,2.29c.14.71.48,1.07,1,1.07.77,0,1.09-.51,1-1.52l-.37-2.41,2.4-.31.37,2.25a3.57,3.57,0,0,1-.66,2.93,3.51,3.51,0,0,1-2.87,1.19,2.4,2.4,0,0,1-2-.94A3,3,0,0,1,278.33,372.45Z"/><path class="cls-2" d="M275.85,408.74l.34-4.31a29.42,29.42,0,0,0,6.23.68q6.93,0,6.93-5.31v-.61h-3.13q-10.71,0-10.72-9.28a9.9,9.9,0,0,1,2.54-7q2.85-3,8.07-3a23.56,23.56,0,0,1,8.36,1.38V395h3.9v4.16h-3.9v.08a9,9,0,0,1-2.91,7.07q-3.24,2.93-9.61,2.93A36.35,36.35,0,0,1,275.85,408.74Zm13.5-24a8.93,8.93,0,0,0-3.81-.72,4.34,4.34,0,0,0-3.5,1.52,5.78,5.78,0,0,0-1.26,3.87q0,5.6,6,5.6h2.56Z"/><path class="cls-2" d="M323.82,399.19a16.05,16.05,0,0,1-4.84-.54,4.57,4.57,0,0,1-2.56-2.21q-1.43,3.06-6,3.06-4.28,0-5.31-3.1-1.23,2.79-5.33,2.79h-1.95V395h2a3.31,3.31,0,0,0,2.77-1c.56-.72.84-2,.84-3.95v-7.28h5.28v7.4a10.63,10.63,0,0,0,.48,3.92,2.25,2.25,0,0,0,2.27,1.23c2.14,0,3.2-1.7,3.2-5.11v-9.05h5.08v10c0,1.57.33,2.59,1,3.09s1.87.72,3.75.72h1a36.36,36.36,0,0,0,.3-4.8,48.14,48.14,0,0,0-1.18-10.73l5.16-.7A47.25,47.25,0,0,1,331,389.88c0,1.48-.07,3.2-.2,5.15h3.91v4.16Z"/><path class="cls-2" d="M334.13,395h5.61V380.38H345v18.81H334.13Zm2.29-18.47a2.65,2.65,0,0,1-.76-1.92,2.69,2.69,0,0,1,.76-1.93,2.51,2.51,0,0,1,1.87-.8,2.55,2.55,0,0,1,1.92.8,2.64,2.64,0,0,1,.76,1.93,2.7,2.7,0,0,1-.76,1.92,2.59,2.59,0,0,1-1.92.8A2.5,2.5,0,0,1,336.42,376.56Zm6.64,0a2.65,2.65,0,0,1-.76-1.92,2.69,2.69,0,0,1,.76-1.93,2.51,2.51,0,0,1,1.88-.8,2.46,2.46,0,0,1,1.87.8,2.64,2.64,0,0,1,.76,1.93,2.7,2.7,0,0,1-.76,1.92,2.53,2.53,0,0,1-1.87.8A2.5,2.5,0,0,1,343.06,376.56Z"/><path class="cls-3" d="M305.12,290.78c23.53.4,23.6,35.38,0,35.79C281.51,326.15,281.59,291.18,305.12,290.78Z"/><path class="cls-3" d="M201.71,290.78c23.43.07,23.5,35.71,0,35.79C178.1,326.15,178.18,291.18,201.71,290.78Z"/><path class="cls-2" d="M210.68,287.79c-1,7.81,4.3,28.78-9,28.62-13.26.19-8-20.85-9-28.62Z"/><path class="cls-3" d="M201.71,305.2c4.53-.07,4.59,7.05,0,6.95C197.21,312.26,197.26,305.12,201.71,305.2Z"/><path class="cls-2" d="M314.08,287.79c-1,7.81,4.31,28.78-9,28.62-13.27.19-8-20.85-9-28.62Z"/><path class="cls-3" d="M305.12,305.2c4.44-.08,4.5,7.06,0,6.95C300.53,312.25,300.59,305.13,305.12,305.2Z"/><path class="cls-2" d="M166.94,154.92l179.69,7.29a3.68,3.68,0,0,1,3.44,3.66h0l-14.39,56.38a3.7,3.7,0,0,1-3.29,3.66L186.08,247.06A3.62,3.62,0,0,1,182,244l-5.82-26.31c0-.55-6.2-27.88-6.28-28.47Zm161.49,14.5-24.51-1,.45,13.83,24.06-.45ZM296.67,168l-21.52-.9.6,15.7,21.37-.45Zm-28.84-1.27-25.11-1.12,1.72,17.78,24.06-.52Zm-32.43-1.42L207.9,164l3.66,20,25.63-.52Zm-34.9-1.57-29.15-1.34,4.94,22.26,27.87-.52Zm-33.56-8.82Zm161.49,64.19V208.5l-23.09,1.8.45,12.1Zm0-17.93V189l-23.76.52.45,13.53Zm-140,38.19,25.18-3.67-3.28-17.86-26.23,2.1Zm32.36-4.64,21.07-3.06-1.57-16.22-22.64,1.8ZM249,230.62l21.37-3.14-.6-14.34-22.27,1.79Zm28.62-4.18,20.92-3-.45-12.56L277,212.54ZM169.86,189.07l-6.58-29.66a3.68,3.68,0,0,1,3.66-4.49Zm8.07,2.84,4.56,20.78L209,210.6l-3.52-19.21Zm34.9-.67,3.44,18.83,23.24-1.87-1.65-17.48Zm32.28-.6,1.64,17,22.72-1.79-.67-15.7Zm30.94-.59.67,15.24,21.15-1.65-.45-14Z"/><path class="cls-2" d="M175.33,181.79c1.11,4.45-6,6-7,1.5l-9.86-44.77-32.58-4.31c-4.57-.62-3.49-7.78,1-7l35,4.62v.07C166.43,130,173.91,180.16,175.33,181.79Z"/><path class="cls-2" d="M248,240.19c4.5-.09,4.61,7.17,0,7.1h-54a17.52,17.52,0,0,0-17.48,17.48h0a17.41,17.41,0,0,0,17.48,17.49H332.77c4.58,0,4.68,7.2,0,7.17H193.92a24.74,24.74,0,0,1-24.66-24.66h0a24.71,24.71,0,0,1,24.66-24.58Z"/><rect class="cls-3" x="117.86" y="123.38" width="27.19" height="14.04" rx="3.73" transform="translate(27.48 -22.81) rotate(11.07)"/></svg>