<svg xmlns="http://www.w3.org/2000/svg" xmlns:xlink="http://www.w3.org/1999/xlink" width="809.228" height="782.4" viewBox="0 0 809.228 782.4">
  <defs>
    <clipPath id="clip-path">
      <path id="Path_3491" data-name="Path 3491" d="M614.2,566.531a4.029,4.029,0,0,0,4.941,2.831l146.216-41.306a4.028,4.028,0,0,0,2.728-5L680.946,214.584a4.028,4.028,0,0,0-4.941-2.831L529.791,253.059a4.028,4.028,0,0,0-2.73,5Z" transform="translate(-526.904 -211.604)" fill="#fff" stroke="#20154c" stroke-miterlimit="10" stroke-width="1"/>
    </clipPath>
  </defs>
  <g id="Group_4881" data-name="Group 4881" transform="matrix(0.996, -0.087, 0.087, 0.996, 17486.732, 3278.944)">
    <g id="Group_2674" data-name="Group 2674" transform="translate(-18024.111 -5457.889) rotate(5)">
      <g id="Group_2616" data-name="Group 2616" transform="translate(274.733)">
        <path id="Path_3478" data-name="Path 3478" d="M262.748,366.306c73.687,15.818,92.879,84.153,132.458,91.3,79.73,14.4,103.65-30.348,93.619-53.5-9.555-22.055-40.765-36.246-90.533-26.75-39.1,7.46-72.126,42.209-79.99,81.533-35.749,178.75,192.643,180.809,192.643,180.809" transform="translate(775.734 579.411)" fill="none" stroke="#ea676c" stroke-miterlimit="10" stroke-width="1" stroke-dasharray="7"/>
      </g>
    </g>
    <path id="Path_5434" data-name="Path 5434" d="M491.287,144.056H628.21a12.082,12.082,0,0,1,12.081,12.081V194.4a12.083,12.083,0,0,1-12.081,12.081H572.257L572,245.4l-18.952-38.928H491.287A12.082,12.082,0,0,1,479.206,194.4V156.137A12.081,12.081,0,0,1,491.287,144.056Z" transform="translate(-17271.912 -4409.665) rotate(5)" fill="#f6f6f6"/>
    <path id="Path_5433" data-name="Path 5433" d="M423,126.222h52.353A12.082,12.082,0,0,1,487.431,138.3v51.012A12.082,12.082,0,0,1,475.349,201.4H446.271l-14.214,22.653.437-22.653H423a12.083,12.083,0,0,1-12.082-12.081V138.3A12.083,12.083,0,0,1,423,126.222Z" transform="translate(-16745.676 -4929.029) rotate(25)" fill="#f6f6f6"/>
    <path id="Path_3521" data-name="Path 3521" d="M720.675,326.637c0-24.054,26.589-49.507,13.52-91.494-17.684-56.819-58.239-18.043-77.963-21.307-56.782-9.4-48.671-105.28-48.671-105.28" transform="translate(-17656.631 -4088.045) rotate(-31)" fill="none" stroke="#fdb958" stroke-miterlimit="10" stroke-width="1" stroke-dasharray="7"/>
    <path id="Path_3519" data-name="Path 3519" d="M66.915,695.3S190.8,684.461,210.707,557.954c10.321-65.588.093-169.732,122-211.4" transform="translate(-17170.865 -5141.13) rotate(5)" fill="none" stroke="#ea676c" stroke-miterlimit="10" stroke-width="1" stroke-dasharray="7"/>
    <g id="Group_4863" data-name="Group 4863" transform="translate(-16985.027 -4650.247)">
      <path id="Path_5399" data-name="Path 5399" d="M1035.533,2110.663a.97.97,0,0,1-.9-.6c-.426-1.035-.838-2.086-1.223-3.126a.968.968,0,1,1,1.816-.673c.378,1.018.781,2.048,1.2,3.062a.968.968,0,0,1-.526,1.264A.954.954,0,0,1,1035.533,2110.663Zm-3.294-9.4a.968.968,0,0,1-.929-.7c-.311-1.073-.606-2.164-.876-3.242a.969.969,0,1,1,1.88-.469c.264,1.055.552,2.122.856,3.172a.968.968,0,0,1-.931,1.239Zm514.35-3h0q-1.667-.005-3.333-.032a.968.968,0,0,1-.953-.984.98.98,0,0,1,.984-.953q1.653.027,3.307.032a.969.969,0,0,1,0,1.937Zm6.639-.071a.969.969,0,0,1-.023-1.937q1.652-.039,3.305-.1h.037a.969.969,0,0,1,.036,1.937q-1.666.063-3.331.1Zm-16.595-.161h-.043q-1.665-.074-3.328-.168a.969.969,0,1,1,.111-1.934q1.65.1,3.3.168a.968.968,0,0,1-.042,1.936Zm26.544-.278a.969.969,0,0,1-.061-1.936q1.65-.1,3.3-.232a.968.968,0,1,1,.15,1.931q-1.663.129-3.325.236Zm-36.481-.366c-.028,0-.056,0-.084,0q-1.661-.142-3.319-.308a.969.969,0,0,1,.193-1.927q1.645.165,3.292.305a.968.968,0,0,1-.081,1.933Zm46.406-.468a.968.968,0,0,1-.1-1.932q1.644-.171,3.286-.364a.969.969,0,1,1,.226,1.924q-1.654.194-3.312.366A1.006,1.006,0,0,1,1573.1,2096.924Zm-56.308-.592a.965.965,0,0,1-.124-.008q-1.654-.212-3.3-.449a.968.968,0,0,1,.274-1.917q1.636.234,3.276.445a.969.969,0,0,1-.122,1.929Zm66.192-.631a.969.969,0,0,1-.137-1.927q1.636-.235,3.271-.491a.969.969,0,0,1,.3,1.914q-1.646.258-3.3.5A1.024,1.024,0,0,1,1582.986,2095.7Zm-76.04-.853a1.014,1.014,0,0,1-.166-.014q-1.643-.285-3.281-.592a.969.969,0,1,1,.358-1.9q1.624.306,3.253.587a.968.968,0,0,1-.164,1.923Zm85.869-.755a.968.968,0,0,1-.174-1.921q1.627-.3,3.25-.618a.969.969,0,1,1,.374,1.9q-1.634.322-3.274.622A.906.906,0,0,1,1592.815,2094.094Zm-95.643-1.157a.976.976,0,0,1-.208-.022q-1.628-.356-3.252-.736a.969.969,0,0,1,.442-1.886q1.609.377,3.224.73a.969.969,0,0,1-.206,1.915Zm105.4-.828a.969.969,0,0,1-.21-1.914q1.614-.361,3.223-.743a.969.969,0,0,1,.448,1.885q-1.622.384-3.248.748A.974.974,0,0,1,1602.576,2092.11Zm-572.57-.55a.968.968,0,0,1-.954-.8c-.188-1.1-.358-2.215-.5-3.319a.969.969,0,0,1,1.921-.255c.143,1.081.309,2.173.494,3.248a.967.967,0,0,1-.956,1.132Zm457.488-.966a.949.949,0,0,1-.25-.033q-1.612-.429-3.216-.882a.969.969,0,1,1,.526-1.865q1.59.449,3.188.875a.969.969,0,0,1-.249,1.905Zm124.76-.844a.969.969,0,0,1-.247-1.905q1.6-.423,3.194-.866a.969.969,0,0,1,.518,1.867q-1.606.445-3.217.872A.969.969,0,0,1,1612.253,2089.75Zm-134.325-1.937a.958.958,0,0,1-.292-.046c-1.058-.334-2.125-.68-3.173-1.029a.969.969,0,1,1,.612-1.838c1.039.346,2.1.689,3.144,1.02a.969.969,0,0,1-.291,1.893Zm143.9-.793a.969.969,0,0,1-.283-1.9q1.581-.484,3.157-.988a.969.969,0,0,1,.591,1.845q-1.588.508-3.181,1A.967.967,0,0,1,1621.832,2087.02ZM1468.5,2084.59a.979.979,0,0,1-.334-.06c-1.025-.377-2.075-.773-3.122-1.177a.968.968,0,1,1,.7-1.807c1.037.4,2.078.793,3.094,1.166a.969.969,0,0,1-.335,1.878Zm162.8-.668a.969.969,0,0,1-.319-1.884q1.563-.545,3.118-1.109a.968.968,0,1,1,.661,1.821q-1.567.568-3.14,1.117A.966.966,0,0,1,1631.3,2083.923Zm-602.418-2.255a.968.968,0,0,1-.966-.914c-.063-1.11-.105-2.239-.127-3.354a.968.968,0,0,1,.95-.987.956.956,0,0,1,.987.949c.021,1.092.063,2.2.124,3.282a.969.969,0,0,1-.912,1.022Zm430.356-.74a.964.964,0,0,1-.377-.077c-1.026-.434-2.056-.881-3.063-1.325a.968.968,0,1,1,.783-1.771c1,.44,2.018.883,3.035,1.313a.969.969,0,0,1-.378,1.861Zm181.4-.465a.969.969,0,0,1-.354-1.871q1.54-.6,3.072-1.229a.969.969,0,1,1,.731,1.794q-1.542.629-3.095,1.238A.959.959,0,0,1,1640.641,2080.463Zm-190.482-3.639a.967.967,0,0,1-.419-.1c-.994-.478-2-.974-3-1.472a.969.969,0,1,1,.869-1.731c.984.494,1.983.985,2.967,1.459a.969.969,0,0,1-.421,1.842Zm199.682-.181a.969.969,0,0,1-.389-1.856q1.516-.664,3.022-1.348a.969.969,0,0,1,.8,1.764q-1.518.688-3.044,1.358A.969.969,0,0,1,1649.841,2076.644Zm9.044-4.177a.969.969,0,0,1-.424-1.84q1.409-.685,2.81-1.388a.969.969,0,0,1,.869,1.732q-1.412.708-2.832,1.4A.96.96,0,0,1,1658.885,2072.467Zm-217.595-.184a.964.964,0,0,1-.461-.118c-.976-.53-1.959-1.075-2.921-1.618a.969.969,0,1,1,.953-1.687c.954.539,1.927,1.078,2.893,1.6a.969.969,0,0,1-.463,1.82Zm-412.412-.573h-.054a.969.969,0,0,1-.914-1.02c.06-1.108.142-2.233.243-3.344a.969.969,0,1,1,1.929.176c-.1,1.088-.179,2.189-.238,3.274A.969.969,0,0,1,1028.878,2071.71Zm403.776-4.4a.966.966,0,0,1-.5-.142c-.947-.578-1.9-1.171-2.838-1.762a.969.969,0,0,1,1.036-1.637c.926.586,1.872,1.173,2.811,1.745a.969.969,0,0,1-.506,1.8Zm-8.379-5.4a.966.966,0,0,1-.544-.168c-.919-.626-1.844-1.266-2.747-1.9a.968.968,0,1,1,1.116-1.583c.895.63,1.81,1.265,2.721,1.884a.969.969,0,0,1-.546,1.77Zm-394.324-.088a1,1,0,0,1-.156-.013.969.969,0,0,1-.8-1.111c.177-1.094.375-2.2.59-3.291a.968.968,0,1,1,1.9.373c-.21,1.07-.405,2.156-.579,3.227A.969.969,0,0,1,1029.951,2061.823Zm386.234-5.73a.961.961,0,0,1-.585-.2c-.878-.668-1.766-1.356-2.638-2.046a.969.969,0,1,1,1.2-1.52c.862.682,1.74,1.363,2.609,2.024a.969.969,0,0,1-.587,1.739Zm-384.157-3.984a.969.969,0,0,1-.937-1.218c.283-1.066.589-2.15.91-3.223a.969.969,0,1,1,1.856.555c-.315,1.054-.616,2.119-.894,3.165A.969.969,0,0,1,1032.027,2052.109Zm376.4-2.266a.967.967,0,0,1-.628-.231c-.847-.723-1.7-1.46-2.52-2.19a.969.969,0,1,1,1.285-1.45c.815.722,1.654,1.451,2.492,2.166a.969.969,0,0,1-.629,1.706Zm-7.391-6.675a.966.966,0,0,1-.669-.269c-.8-.762-1.6-1.545-2.392-2.33a.969.969,0,1,1,1.365-1.374c.781.776,1.576,1.551,2.365,2.3a.969.969,0,0,1-.669,1.669Zm-366.014-.551a.969.969,0,0,1-.909-1.3c.381-1.039.784-2.09,1.2-3.126a.969.969,0,0,1,1.8.719c-.407,1.019-.8,2.053-1.177,3.074A.97.97,0,0,1,1035.025,2042.617Zm359.015-6.536a.965.965,0,0,1-.708-.308c-.755-.81-1.513-1.639-2.253-2.465a.968.968,0,1,1,1.442-1.293c.732.816,1.482,1.636,2.228,2.437a.969.969,0,0,1-.708,1.629Zm-355.193-2.658a.97.97,0,0,1-.878-1.378c.466-1,.955-2.016,1.452-3.015a.969.969,0,0,1,1.734.864c-.49.984-.971,1.982-1.43,2.968A.969.969,0,0,1,1038.847,2033.423Zm348.617-4.822a.967.967,0,0,1-.746-.35q-.754-.91-1.5-1.832l-.608-.755a.969.969,0,1,1,1.509-1.215l.608.754q.735.911,1.48,1.811a.969.969,0,0,1-.745,1.587Zm-344.065-4.035a.969.969,0,0,1-.843-1.444c.544-.965,1.107-1.939,1.676-2.894a.969.969,0,0,1,1.664.992c-.561.941-1.117,1.9-1.653,2.853A.969.969,0,0,1,1043.4,2024.566Zm337.8-3.71a.967.967,0,0,1-.755-.36l-2.079-2.576a.969.969,0,1,1,1.507-1.218l2.08,2.578a.968.968,0,0,1-.754,1.576Zm-332.608-4.787a.968.968,0,0,1-.807-1.5c.611-.924,1.241-1.855,1.874-2.767a.969.969,0,0,1,1.592,1.1c-.625.9-1.247,1.819-1.85,2.732A.968.968,0,0,1,1048.595,2016.068Zm326.352-2.94a.968.968,0,0,1-.752-.356q-1.047-1.284-2.093-2.562a.968.968,0,1,1,1.5-1.228q1.048,1.279,2.1,2.565a.968.968,0,0,1-.75,1.581Zm-320.586-5.182a.969.969,0,0,1-.77-1.555c.665-.875,1.354-1.763,2.049-2.638a.969.969,0,0,1,1.517,1.2c-.686.865-1.367,1.742-2.025,2.607A.967.967,0,0,1,1054.361,2007.946Zm314.268-2.493a.966.966,0,0,1-.745-.349q-1.059-1.272-2.122-2.534a.969.969,0,1,1,1.482-1.248q1.065,1.266,2.128,2.542a.969.969,0,0,1-.744,1.589Zm-308.006-5.236a.969.969,0,0,1-.733-1.6c.714-.829,1.454-1.67,2.2-2.5a.969.969,0,0,1,1.443,1.293c-.736.822-1.468,1.654-2.174,2.473A.968.968,0,0,1,1060.623,2000.217Zm301.576-2.357a.968.968,0,0,1-.734-.336q-1.084-1.257-2.173-2.5a.968.968,0,1,1,1.458-1.275q1.094,1.25,2.182,2.512a.969.969,0,0,1-.733,1.6Zm-294.868-4.981a.969.969,0,0,1-.7-1.642c.764-.788,1.551-1.587,2.341-2.373a.969.969,0,0,1,1.366,1.374c-.781.777-1.56,1.567-2.315,2.347A.965.965,0,0,1,1067.331,1992.878Zm288.278-2.488a.968.968,0,0,1-.719-.318q-1.113-1.23-2.233-2.445a.968.968,0,1,1,1.424-1.313q1.127,1.221,2.245,2.458a.969.969,0,0,1-.717,1.619Zm-281.159-4.466a.969.969,0,0,1-.658-1.68c.811-.75,1.642-1.5,2.47-2.243a.968.968,0,1,1,1.289,1.446c-.819.731-1.642,1.478-2.444,2.22A.965.965,0,0,1,1074.45,1985.925Zm274.368-2.821a.966.966,0,0,1-.7-.3q-1.15-1.194-2.308-2.371a.968.968,0,1,1,1.379-1.36q1.167,1.185,2.324,2.387a.968.968,0,0,1-.7,1.64Zm-266.875-3.741a.969.969,0,0,1-.619-1.714c.851-.706,1.722-1.416,2.589-2.11a.968.968,0,1,1,1.211,1.512c-.858.687-1.72,1.39-2.562,2.089A.964.964,0,0,1,1081.943,1979.363Zm259.846-3.3a.963.963,0,0,1-.671-.271q-1.19-1.145-2.391-2.27a.968.968,0,1,1,1.323-1.414q1.212,1.133,2.41,2.288a.969.969,0,0,1-.672,1.666ZM1089.78,1973.2a.968.968,0,0,1-.579-1.745c.894-.665,1.8-1.329,2.7-1.974a.968.968,0,0,1,1.13,1.573c-.889.638-1.788,1.3-2.672,1.954A.967.967,0,0,1,1089.78,1973.2Zm244.7-3.872a.966.966,0,0,1-.639-.241c-.826-.726-1.665-1.451-2.494-2.154a.969.969,0,0,1,1.254-1.477c.837.711,1.684,1.442,2.519,2.176a.969.969,0,0,1-.64,1.7Zm-236.54-1.876a.969.969,0,0,1-.538-1.775c.931-.62,1.874-1.237,2.8-1.833a.968.968,0,1,1,1.045,1.631c-.92.59-1.853,1.2-2.774,1.814A.964.964,0,0,1,1097.937,1967.454Zm228.9-4.49a.965.965,0,0,1-.6-.208c-.869-.685-1.747-1.363-2.609-2.015a.968.968,0,1,1,1.169-1.544c.872.66,1.759,1.345,2.638,2.037a.969.969,0,0,1-.6,1.73Zm-220.458-.821a.969.969,0,0,1-.495-1.8c.956-.567,1.928-1.131,2.887-1.676a.968.968,0,1,1,.957,1.684c-.949.54-1.91,1.1-2.857,1.659A.962.962,0,0,1,1106.38,1962.144Zm8.7-4.848a.969.969,0,0,1-.449-1.828c.982-.512,1.982-1.022,2.974-1.517a.969.969,0,1,1,.865,1.733c-.981.49-1.971.995-2.942,1.5A.962.962,0,0,1,1115.084,1957.3Zm203.76-.253a.964.964,0,0,1-.551-.172c-.916-.635-1.834-1.257-2.731-1.85a.968.968,0,1,1,1.069-1.615c.908.6,1.839,1.23,2.766,1.873a.969.969,0,0,1-.552,1.765Zm-194.8-4.108a.969.969,0,0,1-.4-1.851c1.01-.457,2.039-.91,3.056-1.347a.969.969,0,0,1,.764,1.78c-1.006.432-2.023.879-3.022,1.331A.963.963,0,0,1,1124.042,1952.935Zm186.435-1.29a.961.961,0,0,1-.5-.138c-.941-.562-1.9-1.121-2.854-1.659a.969.969,0,1,1,.954-1.686c.966.546,1.94,1.112,2.894,1.683a.969.969,0,0,1-.5,1.8Zm-177.242-2.547a.969.969,0,0,1-.346-1.873c1.037-.4,2.091-.787,3.133-1.161a.969.969,0,1,1,.654,1.823c-1.029.369-2.071.755-3.1,1.147A.97.97,0,0,1,1133.235,1949.1Zm168.5-2.254a.963.963,0,0,1-.434-.1c-.982-.493-1.979-.978-2.962-1.441a.968.968,0,1,1,.825-1.752c1,.469,2.01.962,3.007,1.462a.969.969,0,0,1-.435,1.835Zm-159.094-1.007a.968.968,0,0,1-.287-1.893q1.584-.492,3.181-.969a.969.969,0,0,1,.554,1.856q-1.586.474-3.16.963A.96.96,0,0,1,1142.645,1945.838Zm9.552-2.792a.969.969,0,0,1-.255-1.9q1.6-.439,3.213-.862a.969.969,0,0,1,.492,1.874q-1.6.42-3.192.856A.972.972,0,0,1,1152.2,1943.046Zm140.485-.325a.968.968,0,0,1-.366-.072c-1.017-.417-2.048-.823-3.064-1.209a.969.969,0,0,1,.688-1.811c1.031.391,2.077.8,3.11,1.227a.969.969,0,0,1-.367,1.865Zm-130.843-2.148a.969.969,0,0,1-.224-1.911q1.614-.387,3.24-.756a.969.969,0,0,1,.43,1.889q-1.615.368-3.22.752A.956.956,0,0,1,1161.839,1940.573Zm121.5-1.263a.966.966,0,0,1-.3-.047c-1.038-.334-2.1-.659-3.148-.967a.969.969,0,1,1,.545-1.859c1.067.313,2.142.643,3.2.982a.969.969,0,0,1-.3,1.891Zm-111.777-.9a.969.969,0,0,1-.194-1.917q1.628-.335,3.263-.652a.969.969,0,1,1,.37,1.9q-1.626.316-3.244.648A1,1,0,0,1,1171.558,1938.415Zm102.193-1.782a.958.958,0,0,1-.225-.027c-1.055-.252-2.136-.5-3.213-.724a.969.969,0,0,1,.4-1.9c1.094.233,2.191.479,3.261.735a.969.969,0,0,1-.224,1.911Zm-92.408-.063a.969.969,0,0,1-.163-1.924q1.639-.282,3.284-.547a.968.968,0,0,1,.308,1.912q-1.634.263-3.264.544A.958.958,0,0,1,1181.343,1936.569Zm9.842-1.529a.969.969,0,0,1-.132-1.928q1.649-.229,3.3-.44a.969.969,0,0,1,.245,1.922q-1.64.209-3.28.437A1,1,0,0,1,1191.184,1935.04Zm72.808-.354a.958.958,0,0,1-.155-.013c-1.079-.174-2.176-.338-3.26-.487a.968.968,0,1,1,.263-1.919c1.1.151,2.211.317,3.305.494a.969.969,0,0,1-.154,1.925Zm-62.921-.853a.969.969,0,0,1-.1-1.932q1.657-.174,3.316-.33a.968.968,0,1,1,.181,1.928q-1.648.155-3.294.328A1.011,1.011,0,0,1,1201.072,1933.833Zm53.044-.409a.913.913,0,0,1-.1-.005q-1.642-.164-3.292-.3a.969.969,0,1,1,.165-1.93q1.664.142,3.32.308a.968.968,0,0,1-.1,1.932Zm-43.12-.465a.969.969,0,0,1-.068-1.935q1.664-.118,3.327-.216a.969.969,0,1,1,.114,1.934q-1.652.1-3.3.215Zm33.188-.309h-.055q-1.647-.093-3.3-.162a.969.969,0,0,1-.927-1.009.959.959,0,0,1,1.008-.927q1.668.07,3.33.163a.969.969,0,0,1-.054,1.936Zm-23.238-.219a.969.969,0,0,1-.033-1.936q1.668-.058,3.333-.1a.969.969,0,0,1,.044,1.937q-1.652.038-3.309.1Zm13.284-.135h-.015q-1.651-.025-3.308-.029a.969.969,0,0,1,0-1.937h0q1.669,0,3.333.03a.968.968,0,0,1-.014,1.937Z" transform="translate(-1027.79 -1930.33)" fill="#fdb958"/>
    </g>
    <path id="Path_5402" data-name="Path 5402" d="M1673.156,2048.184l-.9,5.319-60.828,78.975-215.334,8.444L1266.95,1985.306l.9-5.319a28.336,28.336,0,0,1,16.421-21.187l186.105-82.8a41.708,41.708,0,0,1,45.441,7.646l148.76,139.146A28.358,28.358,0,0,1,1673.156,2048.184Z" transform="translate(-18159.32 -6545.088)" fill="#192b4b"/>
    <path id="Path_5403" data-name="Path 5403" d="M1538.61,1872.4l43.137,232.935c1.886,10.184.389,19.947-3.522,27.277-.2.384-.413.76-.634,1.12-3.5,5.97-8.693,10.129-14.98,11.294l-244.906,45.354c-6.294,1.166-12.625-.861-18.03-5.172q-.5-.4-.995-.827c-6.276-5.444-11.17-14.023-13.056-24.208l-43.136-232.934Z" transform="translate(-15214.9 -2558.701) rotate(177)" fill="#63bedd"/>
    <path id="Union_15" data-name="Union 15" d="M375.022,279.352l-25.752-.12-9.469-.046H57.143l-8.175-1.375-19.317-3.251a35.456,35.456,0,0,1-21.2-12.053c-.326-.383-.643-.771-.95-1.17h0a35.462,35.462,0,0,1-7-27.725L39.805,0,201.446,151.207h0l.742-.422a32.25,32.25,0,0,1,40.149,6.757l.562.639,12.982-5.777,108.081-48.1,47.526-21.15L445.116,68.2,414.695,248.983a36.161,36.161,0,0,1-35.659,30.16,35.306,35.306,0,0,1-3.818.21Z" transform="translate(-16932.176 -4559.782)" fill="#192b4b" stroke="rgba(0,0,0,0)" stroke-miterlimit="10" stroke-width="1"/>
    <g id="Group_4873" data-name="Group 4873" transform="translate(-16906.631 -4684.295)">
      <g id="Group_4866" data-name="Group 4866" transform="translate(67.766 263.052)">
        <path id="Path_5407" data-name="Path 5407" d="M1318.822,2593.96a1.55,1.55,0,0,1-.973-2.756l142.624-111.946.667-.536a33.925,33.925,0,0,1,42.667.2l.658.539,148.788,111.316c.661.543.213,2.182.213,2.182s-1.52.756-2.182.213l-149.444-111.855a30.816,30.816,0,0,0-38.757-.184l-.668.536-142.623,111.944A1.542,1.542,0,0,1,1318.822,2593.96Z" transform="translate(-1343.401 -2471.276)" fill="#09091d" stroke="#09091d" stroke-width="1"/>
      </g>
      <g id="Group_4867" data-name="Group 4867" transform="translate(226.299 149.471)">
        <path id="Path_5408" data-name="Path 5408" d="M1754.141,2302.63a1.55,1.55,0,0,1-.852-2.846l185.056-121.418a1.55,1.55,0,1,1,1.7,2.592l-185.056,121.418A1.544,1.544,0,0,1,1754.141,2302.63Z" transform="translate(-1752.589 -2178.112)" fill="#09091d" stroke="#09091d" stroke-width="1"/>
      </g>
      <g id="Group_4868" data-name="Group 4868" transform="translate(0.351 147.53)">
        <path id="Path_5409" data-name="Path 5409" d="M1354.852,2299.362a1.543,1.543,0,0,1-.861-.262l-183.91-123.16a1.55,1.55,0,0,1,1.725-2.576l183.909,123.161a1.55,1.55,0,0,1-.864,2.837Z" transform="translate(-1169.394 -2173.102)" fill="#09091d" stroke="#09091d" stroke-width="1"/>
      </g>
      <g id="Group_4869" data-name="Group 4869" transform="translate(0 111.291)">
        <path id="Path_5410" data-name="Path 5410" d="M1186.474,2355.328c-1.618.019-1.6-.759-1.6-1.615l-16.012-241.759a29.827,29.827,0,0,1,13.488-24.848l74.812-49.031a1.55,1.55,0,0,1,2.146.446c.469.715-.446,2.146-.446,2.146l-74.812,49.031a26.733,26.733,0,0,0-12.09,22.271l-.027,5.393,16.038,236.365A1.455,1.455,0,0,1,1186.474,2355.328Z" transform="translate(-1168.489 -2079.566)" fill="#09091d" stroke="#09091d" stroke-width="1"/>
      </g>
      <g id="Group_4870" data-name="Group 4870" transform="translate(354.366 90.636)">
        <path id="Path_5411" data-name="Path 5411" d="M2141.194,2321.192l-.812-.8c-.855,0-1.307-9.611-1.3-10.467l.695-147.216.36-76.076.024-5.393a26.735,26.735,0,0,0-11.878-22.386l-151.4-101.428a1.55,1.55,0,1,1,1.725-2.575L2130,2056.278a29.827,29.827,0,0,1,13.252,24.975l-.024,5.393-.36,76.076-.695,147.216C2142.174,2310.791,2142.046,2321.192,2141.194,2321.192Z" transform="translate(-2083.144 -2026.253)" fill="#09091d" stroke="#09091d" stroke-width="1"/>
      </g>
      <g id="Group_4871" data-name="Group 4871" transform="translate(160.783)">
        <path id="Path_5412" data-name="Path 5412" d="M1558.275,1834.7a1.55,1.55,0,0,1-.852-2.846l49.461-32.444a43.2,43.2,0,0,1,47.793.225l19.037,12.749a1.55,1.55,0,0,1-1.724,2.575l-19.037-12.748a40.1,40.1,0,0,0-44.369-.209l-49.461,32.445A1.546,1.546,0,0,1,1558.275,1834.7Z" transform="translate(-1583.488 -1792.312)" fill="#09091d" stroke="#09091d" stroke-width="1"/>
      </g>
      <g id="Group_4872" data-name="Group 4872" transform="translate(87.244 38.891)">
        <path id="Path_5413" data-name="Path 5413" d="M1395.226,1926.883a1.55,1.55,0,0,1-.852-2.846l47.39-31.089a1.55,1.55,0,1,1,1.7,2.591l-47.389,31.089A1.543,1.543,0,0,1,1395.226,1926.883Z" transform="translate(-1393.674 -1892.694)" fill="#09091d" stroke="#09091d" stroke-width="1"/>
      </g>
    </g>
    <g id="Group_4875" data-name="Group 4875" transform="translate(-16794.334 -4610.563)">
      <path id="Path_5416" data-name="Path 5416" d="M1665.608,2106.685a64.3,64.3,0,0,1-7.241,22.491q-5.484,9.894-13.662,14.816a26.571,26.571,0,0,1-17.89,3.568,21.427,21.427,0,0,1-11.027-4.705,17.976,17.976,0,0,1-6.032-9.181l-1.4-.2a30.3,30.3,0,0,1-25.634,7.927q-15.485-2.161-23.108-12.724t-5.364-26.747q2.576-18.458,15.874-28.109t32.195-7.011a107.009,107.009,0,0,1,16.377,3.757,92.148,92.148,0,0,1,14.434,5.538l-7.983,42.5q-1.7,12.161,4.952,13.088,5.6.782,10.065-6.934t6.309-20.926q1.965-14.084-2.388-25.708a40.175,40.175,0,0,0-14.189-18.792,51.158,51.158,0,0,0-23.483-9.074q-17.673-2.467-31.72,2.975a49.019,49.019,0,0,0-22.915,18.163q-8.866,12.723-11.369,30.655-3.37,24.146,7.733,38.851t35.6,18.124a113.753,113.753,0,0,0,20.671.789,136.4,136.4,0,0,0,22.708-2.94l-2.344,16.8q-19.833,5.347-42.667,2.162-33.245-4.64-49.392-24.731t-11.8-51.236a82.2,82.2,0,0,1,14.968-37.912,69.539,69.539,0,0,1,30.891-23.873q18.938-7.568,41.772-4.382,19.246,2.686,33.283,12.672a56.389,56.389,0,0,1,20.233,25.656Q1668.256,2087.7,1665.608,2106.685Zm-91.11-1.567q-2.576,18.46,12.471,20.56,7.874,1.1,12.761-3.883t7.508-17.37l3.836-19.176a48.438,48.438,0,0,0-9.927-2.366q-10.937-1.526-17.968,4.449T1574.5,2105.118Z" transform="translate(-1519.992 -2032.758)" fill="#fff"/>
    </g>
    <g id="Group_4876" data-name="Group 4876" transform="translate(-16784.863 -4606.795)">
      <path id="Path_5417" data-name="Path 5417" d="M1608.621,2171.5a98.693,98.693,0,0,1-12.391-.722c-15.018-1.906-26.554-7.746-35.266-17.852a69.848,69.848,0,0,1-16.339-39.539,60.619,60.619,0,0,1,6.31-31.8,71.464,71.464,0,0,1,20.6-24.78c18.189-13.908,40.734-17.991,60.307-10.926,17.2,6.208,31.643,21.511,37.7,39.937,3.919,11.931,3.486,30.546-4.924,43.04a25.519,25.519,0,0,1-19.936,11.777c-5.734.4-10.78-2.615-13.513-8.045-2.841-5.641-1.82-12.293-.805-16.805,1.318-5.861,3.732-20.477-2.306-29.6a16.475,16.475,0,0,0-11.283-7.145c-6.307-1.15-13.577.783-20.474,5.44-9.379,6.334-15.888,16.139-17.411,26.229-1.255,8.32.917,19.688,8.6,26.33a21.374,21.374,0,0,0,15.821,4.777,18.367,18.367,0,0,0,12.923-6.744.969.969,0,0,1,1.526,1.194,20.283,20.283,0,0,1-14.261,7.478,23.342,23.342,0,0,1-17.275-5.239c-8.24-7.126-10.581-19.24-9.247-28.085,1.6-10.615,8.421-20.913,18.241-27.545,7.318-4.943,15.1-6.981,21.905-5.741a18.341,18.341,0,0,1,12.552,7.982c6.449,9.745,3.953,24.991,2.581,31.094-1.509,6.71-1.3,11.638.645,15.51,2.406,4.781,6.656,7.326,11.651,6.983,7.726-.529,13.938-4.206,18.461-10.926,7.977-11.85,8.37-30.15,4.69-41.353-5.871-17.873-19.862-32.709-36.513-38.719-18.951-6.841-40.81-2.863-58.473,10.642-18.053,13.8-27.832,34.321-26.158,54.886a67.889,67.889,0,0,0,15.877,38.432c18.841,21.856,47.652,18.732,73.072,15.974l.776-.084a.969.969,0,1,1,.209,1.926l-.776.084A252.722,252.722,0,0,1,1608.621,2171.5Z" transform="translate(-1544.437 -2042.482)" fill="#240448"/>
    </g>
    <path id="Path_3516" data-name="Path 3516" d="M325.091,218.1l156.725-54.054a12.083,12.083,0,0,1,15.359,7.482l24.511,71.065a12.083,12.083,0,0,1-7.482,15.362l-55.438,19.121-2.06,44.729-13.568-39.341-85.66,29.545a12.081,12.081,0,0,1-15.359-7.482l-24.511-71.065A12.083,12.083,0,0,1,325.091,218.1Z" transform="translate(-17414.32 -4946.437) rotate(5)" fill="#f6f6f6"/>
    <path id="Path_5397" data-name="Path 5397" d="M325.091,218.1l156.725-54.054a12.083,12.083,0,0,1,15.359,7.482l24.511,71.065a12.083,12.083,0,0,1-7.482,15.362l-55.438,19.121-2.06,44.729-13.568-39.341-85.66,29.545a12.081,12.081,0,0,1-15.359-7.482l-24.511-71.065A12.083,12.083,0,0,1,325.091,218.1Z" transform="translate(-17407.744 -4955.898) rotate(5)" fill="none" stroke="#20154c" stroke-linecap="round" stroke-linejoin="round" stroke-width="3"/>
    <path id="Path_3515" data-name="Path 3515" d="M491.287,144.056H628.21a12.082,12.082,0,0,1,12.081,12.081V194.4a12.083,12.083,0,0,1-12.081,12.081H572.257L572,245.4l-18.952-38.928H491.287A12.082,12.082,0,0,1,479.206,194.4V156.137A12.081,12.081,0,0,1,491.287,144.056Z" transform="translate(-17277.693 -4420.365) rotate(5)" fill="none" stroke="#20154c" stroke-linecap="round" stroke-linejoin="round" stroke-width="3"/>
    <path id="Path_5398" data-name="Path 5398" d="M423,126.222h52.353A12.082,12.082,0,0,1,487.431,138.3v51.012A12.082,12.082,0,0,1,475.349,201.4H446.271l-14.214,22.653.437-22.653H423a12.083,12.083,0,0,1-12.082-12.081V138.3A12.083,12.083,0,0,1,423,126.222Z" transform="translate(-16733.277 -4929.411) rotate(25)" fill="none" stroke="#20154c" stroke-linecap="round" stroke-linejoin="round" stroke-width="3"/>
    <g id="Group_4883" data-name="Group 4883" transform="translate(-1222.625 -1577.553) rotate(-9)">
      <g id="Group_4857" data-name="Group 4857" transform="translate(376 222.768)">
        <g id="Group_2621" data-name="Group 2621" transform="translate(-15650.021 -5540.522)">
          <path id="Path_3486" data-name="Path 3486" d="M613.285,598.069c3.49,12.351,16.63,19.451,29.35,15.857l135.449-38.264c12.722-3.592,20.2-16.519,16.715-28.871l-94.318-333.87c-3.489-12.353-16.628-19.453-29.35-15.859L535.682,235.327c-12.72,3.594-20.2,16.519-16.715,28.871Z" transform="translate(-518.11 -196.129)" fill="#63bedd"/>
        </g>
        <g id="Group_4852" data-name="Group 4852" transform="translate(-15639.021 -5540.522)">
          <path id="Path_3486-2" data-name="Path 3486" d="M613.285,598.069c3.49,12.351,16.63,19.451,29.35,15.857l135.449-38.264c12.722-3.592,20.2-16.519,16.715-28.871l-94.318-333.87c-3.489-12.353-16.628-19.453-29.35-15.859L535.682,235.327c-12.72,3.594-20.2,16.519-16.715,28.871Z" transform="translate(-518.11 -196.129)" fill="none" stroke="#09091d" stroke-linecap="round" stroke-linejoin="round" stroke-width="5"/>
        </g>
        <g id="Group_2623" data-name="Group 2623" transform="translate(-15626.525 -5522.362)">
          <path id="Path_3490" data-name="Path 3490" d="M614.2,566.531a4.029,4.029,0,0,0,4.941,2.831l146.216-41.306a4.028,4.028,0,0,0,2.728-5L680.946,214.584a4.028,4.028,0,0,0-4.941-2.831L529.791,253.059a4.028,4.028,0,0,0-2.73,5Z" transform="translate(-526.904 -211.604)" fill="#fff"/>
          <path id="Path_3492" data-name="Path 3492" d="M614.2,566.531a4.029,4.029,0,0,0,4.941,2.831l146.216-41.306a4.028,4.028,0,0,0,2.728-5L680.946,214.584a4.028,4.028,0,0,0-4.941-2.831L529.791,253.059a4.028,4.028,0,0,0-2.73,5Z" transform="translate(-526.904 -211.604)" fill="none" stroke="#20154c" stroke-miterlimit="10" stroke-width="2"/>
        </g>
        <g id="Group_4855" data-name="Group 4855" transform="translate(1 -1.186)">
          <path id="Path_3496" data-name="Path 3496" d="M572.527,273.82l104.331-29.557a2.756,2.756,0,0,1,3.4,1.9l7.013,24.757a2.757,2.757,0,0,1-1.9,3.4l-9.726,2.754-3.095.878-4.688,7.058-1.5-5.3-85.321,24.171a2.757,2.757,0,0,1-3.405-1.9l-7.013-24.757A2.756,2.756,0,0,1,572.527,273.82Z" transform="translate(-16167.39 -5715.972)" fill="#f6f6f6"/>
          <rect id="Rectangle_1554" data-name="Rectangle 1554" width="5.054" height="91.437" transform="translate(-15581.579 -5427.291) rotate(-105.818)" fill="#fff"/>
          <path id="Path_5391" data-name="Path 5391" d="M572.527,273.82l104.331-29.557a2.756,2.756,0,0,1,3.4,1.9l7.013,24.757a2.757,2.757,0,0,1-1.9,3.4l-9.726,2.754-3.095.878-4.688,7.058-1.5-5.3-85.321,24.171a2.757,2.757,0,0,1-3.405-1.9l-7.013-24.757A2.756,2.756,0,0,1,572.527,273.82Z" transform="translate(-16165.39 -5719.972)" fill="none" stroke="#20154c" stroke-miterlimit="10" stroke-width="2"/>
        </g>
        <g id="Group_4854" data-name="Group 4854" transform="translate(0 1.855)">
          <path id="Path_3497" data-name="Path 3497" d="M577.707,293.436a2.7,2.7,0,0,1,.989-.52l78.912-22.355a2.726,2.726,0,0,1,1.113-.079,2.787,2.787,0,0,1,2.3,2.008l7.029,24.809a2.774,2.774,0,0,1-1.893,3.433l-69.2,19.606L594.1,325.8l-1.222-4.309-5.636,1.6a2.775,2.775,0,0,1-3.413-1.931L576.8,296.35A2.782,2.782,0,0,1,577.707,293.436Z" transform="translate(-16153.596 -5674.314)" fill="#f6f6f6"/>
          <rect id="Rectangle_1556" data-name="Rectangle 1556" width="5.054" height="63.408" transform="translate(-15561.178 -5364.988) rotate(-105.818)" fill="#fff"/>
          <path id="Path_5392" data-name="Path 5392" d="M577.707,293.436a2.7,2.7,0,0,1,.989-.52l78.912-22.355a2.726,2.726,0,0,1,1.113-.079,2.787,2.787,0,0,1,2.3,2.008l7.029,24.809a2.774,2.774,0,0,1-1.893,3.433l-69.2,19.606L594.1,325.8l-1.222-4.309-5.636,1.6a2.775,2.775,0,0,1-3.413-1.931L576.8,296.35A2.782,2.782,0,0,1,577.707,293.436Z" transform="translate(-16151.863 -5678.314)" fill="none" stroke="#20154c" stroke-miterlimit="10" stroke-width="2"/>
        </g>
        <g id="Group_4853" data-name="Group 4853" transform="translate(-5.505 -8.842)">
          <path id="Path_3498" data-name="Path 3498" d="M663.237,292.344,558.905,321.9a2.758,2.758,0,0,0-1.9,3.4l7.013,24.757a2.757,2.757,0,0,0,3.4,1.9l9.726-2.755,3.095-.878,7.692,3.552-1.5-5.306,85.321-24.171a2.755,2.755,0,0,0,1.9-3.4l-7.013-24.757A2.757,2.757,0,0,0,663.237,292.344Z" transform="translate(-16110.34 -5619.396)" fill="#f6f6f6"/>
          <rect id="Rectangle_1555" data-name="Rectangle 1555" width="5.054" height="91.437" transform="translate(-15537.775 -5281.307) rotate(-105.818)" fill="#fff"/>
          <path id="Path_5393" data-name="Path 5393" d="M663.237,292.344,558.905,321.9a2.758,2.758,0,0,0-1.9,3.4l7.013,24.757a2.757,2.757,0,0,0,3.4,1.9l9.726-2.755,3.095-.878,7.692,3.552-1.5-5.306,85.321-24.171a2.755,2.755,0,0,0,1.9-3.4l-7.013-24.757A2.757,2.757,0,0,0,663.237,292.344Z" transform="translate(-16109.807 -5623.396)" fill="none" stroke="#20154c" stroke-miterlimit="10" stroke-width="2"/>
        </g>
        <g id="Group_4856" data-name="Group 4856" transform="translate(0.967 -4.961)">
          <path id="Path_3499" data-name="Path 3499" d="M564.086,341.518a2.711,2.711,0,0,1,.987-.52l78.912-22.357a2.759,2.759,0,0,1,1.114-.076,2.787,2.787,0,0,1,2.3,2.007l7.027,24.809a2.771,2.771,0,0,1-1.893,3.433l-69.2,19.606-2.849,5.463-1.22-4.311-5.636,1.6a2.771,2.771,0,0,1-3.413-1.929l-7.029-24.809A2.786,2.786,0,0,1,564.086,341.518Z" transform="translate(-16100.546 -5577.58)" fill="#f6f6f6"/>
          <rect id="Rectangle_1557" data-name="Rectangle 1557" width="5.054" height="63.409" transform="translate(-15521.875 -5220.614) rotate(-105.818)" fill="#fff"/>
          <path id="Path_5394" data-name="Path 5394" d="M564.086,341.518a2.711,2.711,0,0,1,.987-.52l78.912-22.357a2.759,2.759,0,0,1,1.114-.076,2.787,2.787,0,0,1,2.3,2.007l7.027,24.809a2.771,2.771,0,0,1-1.893,3.433l-69.2,19.606-2.849,5.463-1.22-4.311-5.636,1.6a2.771,2.771,0,0,1-3.413-1.929l-7.029-24.809A2.786,2.786,0,0,1,564.086,341.518Z" transform="translate(-16097.053 -5582.58)" fill="none" stroke="#20154c" stroke-miterlimit="10" stroke-width="2"/>
        </g>
        <circle id="Ellipse_145" data-name="Ellipse 145" cx="13" cy="13" r="13" transform="translate(-15462 -5180)" fill="#fff"/>
        <g id="Ellipse_146" data-name="Ellipse 146" transform="translate(-15458 -5180)" fill="none" stroke="#09091d" stroke-width="2">
          <circle cx="13" cy="13" r="13" stroke="none"/>
          <circle cx="13" cy="13" r="12" fill="none"/>
        </g>
      </g>
    </g>
    <g id="Group_4884" data-name="Group 4884" transform="translate(-17488.309 -4421.673) rotate(90)">
      <path id="Path_5411-2" data-name="Path 5411" d="M2137.328,2467.853l-.224-.023a1.541,1.541,0,0,1-1.594-1.079l4.263-303.258.36-76.75.024-5.44c.044-9.082,3.148-10.117,3.1.014l-.024,5.44-.36,76.75-4.263,303.258C2138.605,2467.626,2138.18,2467.853,2137.328,2467.853Z" transform="translate(-2018.875 -3068.243)" fill="#09091d" stroke="#09091d" stroke-width="1"/>
    </g>
    <path id="Union_14" data-name="Union 14" d="M65.689,293.755c-11.155-3.838-29.175-15.7-39.349-26.154-4.9-5.036-13.047-15.975-16.72-21.778a2.885,2.885,0,0,1-.529-1.573,5.81,5.81,0,0,1-5.181-4.882l-3.8-20.326a5.691,5.691,0,0,1,4.231-6.813L97.051,194.7a5.661,5.661,0,0,1,6.4,4.8l3.8,20.327a5.776,5.776,0,0,1-3.539,6.631c5.49,1.872,11.2,9.4,21.405,8.729,8.5-.558,19.575-8.332,19.575-8.332l43.132-33.558-.013-.014,4.788-3.7,3.793-2.949.01.012,56.7-43.811s10.3-8.784,13-16.914c3.276-9.844-2.642-17.366-2.945-23.208a3.125,3.125,0,0,1,.01-.417l-.169.358a5.639,5.639,0,0,1-7.628,2.377L236.8,96.148a5.7,5.7,0,0,1-2.984-7.452l40.492-85.7A5.64,5.64,0,0,1,281.938.617L300.51,9.5a5.88,5.88,0,0,1,3.436,5.88c.763-.161,1.5.552,1.835.914,4.643,5.052,13.08,15.765,16.672,21.815,7.457,12.56,14.265,33.111,15.11,44.941.162,2.279-1.327,8.834-2.32,10.889-8.87,18.375-31.106,46.986-43.82,61.7-7.68,8.89-36.572,39.434-69.259,64.634-30.964,23.872-65.735,42.56-74.927,47.113C129.849,276,96.674,290.333,76.749,294.276a20.96,20.96,0,0,1-3.535.225A30.527,30.527,0,0,1,65.689,293.755Z" transform="translate(-16751.266 -4276.638)" fill="#63bedd" stroke="rgba(0,0,0,0)" stroke-miterlimit="10" stroke-width="1"/>
    <g id="Group_4925" data-name="Group 4925" transform="translate(-17393.451 -10396.76)">
      <path id="Union_18" data-name="Union 18" d="M64.662,289.165c-10.981-3.777-28.719-15.453-38.733-25.745-4.672-4.8-12.344-15.056-16.106-20.886-2.848.424-5.39-3.788-5.974-6.906L.109,215.618a5.6,5.6,0,0,1,4.165-6.706l91.26-17.259a5.573,5.573,0,0,1,6.3,4.727l3.739,20.009a5.685,5.685,0,0,1-3.483,6.527c5.4,1.843,11.028,9.252,21.071,8.593,8.372-.55,19.27-8.2,19.27-8.2l42.458-33.035-.013-.014,4.713-3.642,3.733-2.9.01.012L249.15,140.6s10.134-8.647,12.8-16.65c3.225-9.69-2.6-17.095-2.9-22.846a3.067,3.067,0,0,1,.009-.41l-.166.351a5.553,5.553,0,0,1-7.51,2.34L233.1,94.646a5.615,5.615,0,0,1-2.938-7.336L270.023,2.948a5.551,5.551,0,0,1,7.509-2.34l18.282,8.739c2.365,1.13,4.69,3.855,4.756,6.273a4.441,4.441,0,0,1,.433.416c4.571,4.973,12.875,15.519,16.412,21.474,7.34,12.364,14.042,32.593,14.874,44.238.159,2.244-1.308,8.7-2.284,10.719-8.731,18.088-30.62,46.253-43.135,60.74-7.56,8.751-36,38.818-68.177,63.624-30.479,23.5-64.707,41.9-73.756,46.377C127.82,271.688,95.163,285.8,75.55,289.677a20.626,20.626,0,0,1-3.483.222A30.038,30.038,0,0,1,64.662,289.165Z" transform="translate(651.979 6133.372)" fill="none" stroke="#000" stroke-linecap="round" stroke-miterlimit="10" stroke-width="5"/>
      <line id="Line_54" data-name="Line 54" x1="33.469" y2="73.31" transform="translate(908.429 6164.014)" fill="none" stroke="#000" stroke-linecap="round" stroke-width="5"/>
      <line id="Line_55" data-name="Line 55" x1="82.687" y2="15.75" transform="translate(674.148 6354.982)" fill="none" stroke="#000" stroke-linecap="round" stroke-width="5"/>
    </g>
  </g>
</svg>
