<svg xmlns="http://www.w3.org/2000/svg" xmlns:xlink="http://www.w3.org/1999/xlink" width="334.997" height="330.079" viewBox="0 0 274.997 270.079">
  <defs>
    <clipPath id="clip-path">
      <path id="Path_3491" data-name="Path 3491" d="M29.664,120.6a1.369,1.369,0,0,0,1.679.962l49.682-14.035a1.369,1.369,0,0,0,.927-1.7L52.342,1.012A1.369,1.369,0,0,0,50.663.05L.981,14.086a1.369,1.369,0,0,0-.928,1.7Z" fill="#fff" stroke="#20154c" stroke-miterlimit="10" stroke-width="1"/>
    </clipPath>
  </defs>
  <g id="Group_5276" data-name="Group 5276" transform="translate(0.044 0.473)">
    <g id="Group_5271" data-name="Group 5271" transform="translate(125.278 121.636)">
      <g id="Group_2616" data-name="Group 2616" transform="translate(0 0)">
        <path id="Path_3478" data-name="Path 3478" d="M262.748,366.306c25.038,5.375,31.559,28.594,45.008,31.024,27.091,4.894,35.219-10.312,31.811-18.177-3.247-7.494-13.851-12.316-30.762-9.089-13.284,2.535-24.508,14.342-27.18,27.7C269.478,458.5,347.083,459.2,347.083,459.2" transform="translate(-262.748 -366.306)" fill="none" stroke="#ea676c" stroke-miterlimit="10" stroke-width="1" stroke-dasharray="7"/>
      </g>
    </g>
    <path id="Path_5883" data-name="Path 5883" d="M483.311,144.056h46.525a4.105,4.105,0,0,1,4.105,4.105v13a4.106,4.106,0,0,1-4.105,4.105H510.824l-.088,13.227-6.44-13.227H483.311a4.105,4.105,0,0,1-4.105-4.105v-13A4.1,4.1,0,0,1,483.311,144.056Z" transform="translate(-351.657 37.727)" fill="#f6f6f6"/>
    <path id="Path_5888" data-name="Path 5888" d="M4.105,0H21.894A4.105,4.105,0,0,1,26,4.105V21.438a4.105,4.105,0,0,1-4.105,4.105h-9.88l-4.83,7.7.148-7.7H4.105A4.106,4.106,0,0,1,0,21.438V4.105A4.106,4.106,0,0,1,4.105,0Z" transform="translate(244.004 29.504) rotate(20)" fill="#f6f6f6"/>
    <path id="Path_5882" data-name="Path 5882" d="M38.571,74.1c0-8.173,9.034-16.822,4.594-31.088-6.009-19.306-19.789-6.131-26.491-7.24C-2.62,32.579.136,0,.136,0" transform="matrix(0.809, -0.588, 0.588, 0.809, 32.607, 161.673)" fill="none" stroke="#fdb958" stroke-miterlimit="10" stroke-width="1" stroke-dasharray="7"/>
    <path id="Path_5879" data-name="Path 5879" d="M66.915,465.055s42.093-3.683,48.859-46.669c3.507-22.286.031-57.673,41.456-71.831" transform="translate(-66.915 -346.556)" fill="none" stroke="#ea676c" stroke-miterlimit="10" stroke-width="1" stroke-dasharray="7"/>
    <g id="Group_5269" data-name="Group 5269" transform="matrix(0.996, -0.087, 0.087, 0.996, 53.699, 31.378)">
      <g id="Group_4863" data-name="Group 4863" transform="translate(0 11.569)">
        <path id="Path_5399" data-name="Path 5399" d="M2.631,61.275a.33.33,0,0,1-.3-.2c-.145-.352-.285-.709-.416-1.062a.329.329,0,1,1,.617-.229c.128.346.265.7.407,1.04a.329.329,0,0,1-.179.43A.325.325,0,0,1,2.631,61.275ZM1.512,58.082a.329.329,0,0,1-.316-.237c-.106-.365-.206-.735-.3-1.1a.329.329,0,0,1,.639-.16c.09.358.187.721.291,1.078a.329.329,0,0,1-.316.421Zm174.77-1.018h0q-.566,0-1.132-.011a.329.329,0,0,1-.324-.334.333.333,0,0,1,.335-.324q.562.009,1.124.011a.329.329,0,0,1,0,.658Zm2.256-.024a.329.329,0,0,1-.008-.658q.561-.013,1.123-.034h.013a.329.329,0,0,1,.012.658q-.566.021-1.132.035Zm-5.639-.055h-.015q-.566-.025-1.131-.057a.329.329,0,1,1,.038-.657q.561.032,1.122.057a.329.329,0,0,1-.014.658Zm9.019-.094a.329.329,0,0,1-.021-.658q.561-.036,1.121-.079a.329.329,0,1,1,.051.656q-.565.044-1.13.08Zm-12.4-.124h-.029q-.564-.048-1.128-.1a.329.329,0,0,1,.066-.655q.559.056,1.118.1a.329.329,0,0,1-.028.657Zm15.768-.159a.329.329,0,0,1-.034-.656q.559-.058,1.117-.124a.329.329,0,1,1,.077.654q-.562.066-1.125.124Zm-19.133-.2-.042,0q-.562-.072-1.122-.152a.329.329,0,0,1,.093-.652q.556.08,1.113.151a.329.329,0,0,1-.042.656Zm22.491-.214a.329.329,0,0,1-.046-.655q.556-.08,1.111-.167a.329.329,0,0,1,.1.65q-.559.088-1.12.168A.35.35,0,0,1,188.649,56.191Zm-25.837-.29a.341.341,0,0,1-.056,0q-.558-.1-1.115-.2a.329.329,0,1,1,.122-.647q.552.1,1.105.2a.329.329,0,0,1-.056.653Zm29.177-.256a.329.329,0,0,1-.059-.653q.553-.1,1.1-.21a.329.329,0,1,1,.127.646q-.555.109-1.112.211A.306.306,0,0,1,191.989,55.645Zm-32.5-.393a.329.329,0,0,1-.071-.007q-.553-.121-1.1-.25a.329.329,0,0,1,.15-.641q.547.128,1.1.248a.329.329,0,0,1-.07.651Zm35.815-.281a.329.329,0,0,1-.072-.65q.548-.123,1.1-.252a.329.329,0,0,1,.152.641q-.551.13-1.1.254A.334.334,0,0,1,195.306,54.971ZM.753,54.784a.329.329,0,0,1-.324-.273c-.064-.373-.122-.752-.172-1.128A.329.329,0,1,1,.91,53.3c.049.367.105.738.168,1.1a.329.329,0,0,1-.269.38A.335.335,0,0,1,.753,54.784ZM156.2,54.456a.323.323,0,0,1-.085-.011q-.548-.146-1.093-.3a.329.329,0,1,1,.179-.634q.54.153,1.083.3a.329.329,0,0,1-.084.647Zm42.392-.287a.329.329,0,0,1-.084-.647q.543-.144,1.085-.294a.329.329,0,0,1,.176.634q-.546.151-1.093.3A.329.329,0,0,1,198.594,54.169Zm-45.642-.658a.324.324,0,0,1-.1-.016c-.359-.113-.722-.231-1.078-.35a.329.329,0,0,1,.208-.625c.353.118.712.234,1.068.347a.329.329,0,0,1-.1.643Zm48.9-.27a.329.329,0,0,1-.1-.644q.537-.165,1.073-.336a.329.329,0,0,1,.2.627q-.54.172-1.081.338A.329.329,0,0,1,201.849,53.241Zm-52.1-.825a.334.334,0,0,1-.114-.02c-.348-.128-.705-.263-1.061-.4a.329.329,0,1,1,.237-.614c.352.136.706.269,1.051.4a.329.329,0,0,1-.114.638Zm55.317-.227a.329.329,0,0,1-.108-.64q.531-.185,1.059-.377a.329.329,0,1,1,.224.619q-.532.193-1.067.379A.329.329,0,0,1,205.066,52.189ZM.371,51.423a.329.329,0,0,1-.328-.31c-.021-.377-.036-.761-.043-1.14a.329.329,0,0,1,.323-.335.325.325,0,0,1,.335.323c.007.371.021.746.042,1.115a.329.329,0,0,1-.31.347Zm146.23-.251a.327.327,0,0,1-.128-.026c-.349-.148-.7-.3-1.041-.45a.329.329,0,1,1,.266-.6c.339.15.686.3,1.031.446a.329.329,0,0,1-.128.632Zm61.639-.158a.329.329,0,0,1-.12-.636q.523-.205,1.044-.417a.329.329,0,1,1,.248.61q-.524.214-1.052.421A.325.325,0,0,1,208.24,51.014Zm-64.724-1.236a.328.328,0,0,1-.142-.033c-.338-.162-.68-.331-1.018-.5a.329.329,0,1,1,.3-.588c.334.168.674.335,1.008.5a.329.329,0,0,1-.143.626Zm67.85-.062a.329.329,0,0,1-.132-.631q.515-.225,1.027-.458a.329.329,0,0,1,.272.6q-.516.234-1.034.461A.33.33,0,0,1,211.366,49.716Zm3.073-1.419a.329.329,0,0,1-.144-.625q.479-.233.955-.472a.329.329,0,0,1,.3.589q-.48.24-.962.475A.326.326,0,0,1,214.439,48.3ZM140.5,48.234a.327.327,0,0,1-.157-.04c-.332-.18-.666-.365-.993-.55a.329.329,0,1,1,.324-.573c.324.183.655.366.983.545a.329.329,0,0,1-.157.618ZM.37,48.04H.352a.329.329,0,0,1-.311-.347c.02-.376.048-.759.083-1.136a.329.329,0,1,1,.656.06c-.034.37-.061.744-.081,1.113A.329.329,0,0,1,.37,48.04Zm137.2-1.5a.328.328,0,0,1-.171-.048c-.322-.2-.646-.4-.964-.6a.329.329,0,0,1,.352-.556c.315.2.636.4.955.593a.329.329,0,0,1-.172.61Zm-2.847-1.834a.328.328,0,0,1-.185-.057c-.312-.213-.626-.43-.933-.647a.329.329,0,0,1,.379-.538c.3.214.615.43.924.64a.329.329,0,0,1-.185.6ZM.735,44.68a.341.341,0,0,1-.053,0A.329.329,0,0,1,.409,44.3c.06-.372.128-.748.2-1.118a.329.329,0,1,1,.646.127c-.071.363-.138.732-.2,1.1A.329.329,0,0,1,.735,44.68Zm131.238-1.947a.326.326,0,0,1-.2-.067c-.3-.227-.6-.461-.9-.7a.329.329,0,1,1,.408-.516c.293.232.591.463.886.688a.329.329,0,0,1-.2.591ZM1.44,41.379a.335.335,0,0,1-.085-.011.329.329,0,0,1-.234-.4c.1-.362.2-.731.309-1.1a.329.329,0,1,1,.631.189c-.107.358-.209.72-.3,1.076A.329.329,0,0,1,1.44,41.379Zm127.9-.77a.328.328,0,0,1-.214-.079c-.288-.246-.576-.5-.856-.744a.329.329,0,1,1,.437-.493c.277.245.562.493.847.736a.329.329,0,0,1-.214.579Zm-2.512-2.268a.328.328,0,0,1-.227-.091c-.271-.259-.544-.525-.813-.792a.329.329,0,0,1,.464-.467c.265.264.536.527.8.783a.329.329,0,0,1-.227.567ZM2.459,38.154a.329.329,0,0,1-.309-.443c.129-.353.266-.71.407-1.062a.329.329,0,0,1,.611.244c-.138.346-.273.7-.4,1.044A.329.329,0,0,1,2.459,38.154Zm121.989-2.221a.328.328,0,0,1-.241-.1c-.256-.275-.514-.557-.766-.838a.329.329,0,1,1,.49-.439c.249.277.5.556.757.828a.329.329,0,0,1-.241.554ZM3.757,35.03a.33.33,0,0,1-.3-.468c.158-.34.324-.685.493-1.024a.329.329,0,0,1,.589.293c-.166.334-.33.674-.486,1.009A.329.329,0,0,1,3.757,35.03Zm118.456-1.638a.329.329,0,0,1-.254-.119q-.256-.309-.509-.622l-.207-.256a.329.329,0,1,1,.513-.413l.206.256q.25.31.5.615a.329.329,0,0,1-.253.539ZM5.3,32.02a.329.329,0,0,1-.286-.491c.185-.328.376-.659.57-.983a.329.329,0,0,1,.566.337c-.191.32-.379.646-.562.969A.329.329,0,0,1,5.3,32.02ZM120.086,30.76a.329.329,0,0,1-.256-.122l-.706-.875a.329.329,0,1,1,.512-.414l.707.876a.329.329,0,0,1-.256.536ZM7.069,29.133a.329.329,0,0,1-.274-.511c.208-.314.422-.63.637-.94a.329.329,0,0,1,.541.375c-.212.306-.424.618-.629.928A.329.329,0,0,1,7.069,29.133Zm110.891-1a.329.329,0,0,1-.255-.121l-.711-.871a.329.329,0,1,1,.509-.417l.712.872a.329.329,0,0,1-.255.537ZM9.029,26.373a.329.329,0,0,1-.262-.528c.226-.3.46-.6.7-.9a.329.329,0,0,1,.516.409c-.233.294-.465.592-.688.886A.329.329,0,0,1,9.029,26.373Zm106.785-.847a.329.329,0,0,1-.253-.118q-.36-.432-.721-.861a.329.329,0,1,1,.5-.424q.362.43.723.864a.329.329,0,0,1-.253.54ZM11.156,23.747a.329.329,0,0,1-.249-.544c.243-.282.494-.568.747-.85a.329.329,0,0,1,.49.439c-.25.279-.5.562-.739.84A.329.329,0,0,1,11.156,23.747Zm102.472-.8a.329.329,0,0,1-.249-.114q-.368-.427-.738-.85a.329.329,0,1,1,.5-.433q.372.425.741.854a.329.329,0,0,1-.249.544ZM13.436,21.253A.329.329,0,0,1,13.2,20.7c.26-.268.527-.539.8-.806a.329.329,0,0,1,.464.467c-.266.264-.53.532-.787.8A.328.328,0,0,1,13.436,21.253Zm97.954-.845a.329.329,0,0,1-.244-.108q-.378-.418-.759-.831a.329.329,0,0,1,.484-.446q.383.415.763.835a.329.329,0,0,1-.244.55ZM15.855,18.891a.329.329,0,0,1-.224-.571c.276-.255.558-.511.839-.762a.329.329,0,1,1,.438.491c-.278.248-.558.5-.831.754A.328.328,0,0,1,15.855,18.891Zm93.227-.959a.328.328,0,0,1-.237-.1q-.391-.406-.784-.805a.329.329,0,0,1,.469-.462q.4.4.79.811a.329.329,0,0,1-.237.557ZM18.4,16.661a.329.329,0,0,1-.21-.582c.289-.24.585-.481.88-.717a.329.329,0,1,1,.411.514c-.291.233-.584.472-.871.71A.328.328,0,0,1,18.4,16.661Zm88.293-1.121a.328.328,0,0,1-.228-.092q-.4-.389-.812-.771a.329.329,0,1,1,.45-.48q.412.385.819.778a.329.329,0,0,1-.228.566Zm-85.63-.972a.329.329,0,0,1-.2-.593c.3-.226.612-.452.917-.671a.329.329,0,0,1,.384.535c-.3.217-.608.44-.908.664A.329.329,0,0,1,21.064,14.567Zm83.145-1.316a.328.328,0,0,1-.217-.082c-.281-.247-.566-.493-.847-.732a.329.329,0,0,1,.426-.5c.284.241.572.49.856.739a.329.329,0,0,1-.217.576Zm-80.374-.637a.329.329,0,0,1-.183-.6c.316-.211.637-.42.953-.623a.329.329,0,1,1,.355.554c-.312.2-.63.408-.943.616A.328.328,0,0,1,23.835,12.614Zm77.778-1.526a.328.328,0,0,1-.2-.071c-.3-.233-.594-.463-.886-.685a.329.329,0,1,1,.4-.525c.3.224.6.457.9.692a.329.329,0,0,1-.2.588ZM26.7,10.81a.329.329,0,0,1-.168-.612c.325-.193.655-.384.981-.57a.329.329,0,1,1,.325.572c-.322.183-.649.373-.971.564A.327.327,0,0,1,26.7,10.81Zm2.958-1.647a.329.329,0,0,1-.153-.621c.334-.174.674-.347,1.011-.516a.329.329,0,1,1,.294.589c-.334.166-.67.338-1,.51A.326.326,0,0,1,29.662,9.163ZM98.9,9.077a.328.328,0,0,1-.187-.059c-.311-.216-.623-.427-.928-.629a.329.329,0,1,1,.363-.549c.309.2.625.418.94.636a.329.329,0,0,1-.188.6Zm-66.191-1.4a.329.329,0,0,1-.136-.629c.343-.155.693-.309,1.038-.458a.329.329,0,1,1,.26.6c-.342.147-.687.3-1.027.452A.328.328,0,0,1,32.705,7.681Zm63.348-.438a.327.327,0,0,1-.169-.047c-.32-.191-.646-.381-.97-.564a.329.329,0,1,1,.324-.573c.328.186.659.378.983.572a.329.329,0,0,1-.169.612ZM35.829,6.377a.329.329,0,0,1-.118-.637c.352-.135.711-.268,1.065-.394A.329.329,0,1,1,37,5.966c-.35.126-.7.257-1.052.39A.329.329,0,0,1,35.829,6.377Zm57.256-.766a.326.326,0,0,1-.147-.035c-.334-.168-.673-.332-1.007-.49a.329.329,0,1,1,.28-.6c.339.16.683.327,1.022.5a.329.329,0,0,1-.148.623ZM39.027,5.269a.329.329,0,0,1-.1-.643q.538-.167,1.081-.329a.329.329,0,0,1,.188.631q-.539.161-1.074.327A.326.326,0,0,1,39.027,5.269Zm3.246-.949a.329.329,0,0,1-.087-.647q.544-.149,1.092-.293a.329.329,0,0,1,.167.637q-.544.143-1.085.291A.331.331,0,0,1,42.272,4.321ZM90.007,4.21a.329.329,0,0,1-.125-.025c-.346-.142-.7-.28-1.041-.411a.329.329,0,0,1,.234-.615c.35.133.706.273,1.057.417a.329.329,0,0,1-.125.634Zm-44.459-.73a.329.329,0,0,1-.076-.649q.549-.131,1.1-.257a.329.329,0,0,1,.146.642q-.549.125-1.094.255A.325.325,0,0,1,45.548,3.481Zm41.283-.429a.327.327,0,0,1-.1-.016c-.353-.113-.713-.224-1.07-.329a.329.329,0,1,1,.185-.632c.362.106.728.219,1.086.334a.329.329,0,0,1-.1.643Zm-37.98-.3a.329.329,0,0,1-.066-.652q.553-.114,1.109-.222a.329.329,0,1,1,.126.646q-.552.108-1.1.22A.342.342,0,0,1,48.851,2.747Zm34.724-.605a.323.323,0,0,1-.077-.009c-.358-.086-.726-.168-1.092-.246a.329.329,0,0,1,.136-.644c.372.079.744.163,1.108.25a.329.329,0,0,1-.076.649Zm-31.4-.022a.329.329,0,0,1-.055-.654q.557-.1,1.116-.186a.329.329,0,0,1,.1.65q-.555.09-1.109.185A.332.332,0,0,1,52.176,2.12ZM55.52,1.6a.329.329,0,0,1-.045-.655Q56.035.868,56.6.8a.329.329,0,0,1,.083.653q-.557.071-1.115.149A.341.341,0,0,1,55.52,1.6Zm24.739-.12a.327.327,0,0,1-.053,0c-.367-.059-.739-.115-1.108-.165a.329.329,0,0,1,.089-.652c.373.051.751.108,1.123.168a.329.329,0,0,1-.052.654Zm-21.38-.29a.329.329,0,0,1-.034-.657q.563-.059,1.127-.112a.329.329,0,1,1,.062.655q-.56.053-1.119.111ZM76.9,1.051l-.033,0q-.558-.056-1.119-.1A.329.329,0,1,1,75.807.29q.566.048,1.128.1a.329.329,0,0,1-.032.657ZM62.251.893a.329.329,0,0,1-.023-.657q.565-.04,1.13-.073A.329.329,0,1,1,63.4.82q-.561.033-1.123.073ZM73.529.788H73.51Q72.95.756,72.388.733A.329.329,0,0,1,72.073.39a.326.326,0,0,1,.343-.315q.567.024,1.132.056a.329.329,0,0,1-.018.658Zm-7.9-.074a.329.329,0,0,1-.011-.658q.567-.02,1.133-.033a.329.329,0,0,1,.015.658q-.561.013-1.124.033ZM70.146.668h-.005Q69.58.66,69.017.658a.329.329,0,0,1,0-.658h0q.567,0,1.133.01a.329.329,0,0,1,0,.658Z" transform="translate(0 0)" fill="#fdb958"/>
      </g>
      <path id="Path_5402" data-name="Path 5402" d="M138.024,59.731l-.3,1.807L117.051,88.373,43.883,91.242,0,38.365l.3-1.807a9.628,9.628,0,0,1,5.58-7.2L69.12,1.224a14.172,14.172,0,0,1,15.44,2.6L135.108,51.1A9.636,9.636,0,0,1,138.024,59.731Z" transform="translate(31.484 3.943)" fill="#015096"/>
      <path id="Path_5403" data-name="Path 5403" d="M100.619,0l14.657,79.149a14.359,14.359,0,0,1-1.2,9.268c-.069.13-.141.258-.215.381a7.576,7.576,0,0,1-5.09,3.838L25.558,108.046a7.579,7.579,0,0,1-6.126-1.757q-.171-.136-.338-.281a14.36,14.36,0,0,1-4.436-8.225L0,18.633Z" transform="translate(146.567 109.001) rotate(177)" fill="#2295d6"/>
      <path id="Union_15" data-name="Union 15" d="M127.428,94.921l-8.75-.041-3.217-.016H19.416L16.639,94.4l-6.564-1.1a12.048,12.048,0,0,1-7.2-4.1c-.111-.13-.219-.262-.323-.4h0A12.05,12.05,0,0,1,.169,79.378L13.525,0,68.449,51.378h0l.252-.143a10.958,10.958,0,0,1,13.642,2.3l.191.217,4.411-1.963,36.725-16.342,16.149-7.186,11.426-5.084L140.909,84.6a12.287,12.287,0,0,1-12.117,10.248,12,12,0,0,1-1.3.071Z" transform="translate(17.958 42.308)" fill="#035aa7" stroke="rgba(0,0,0,0)" stroke-miterlimit="10" stroke-width="1"/>
      <g id="Group_4873" data-name="Group 4873" transform="translate(26.757 0)">
        <g id="Group_4866" data-name="Group 4866" transform="translate(14.028 89.382)">
          <path id="Path_5407" data-name="Path 5407" d="M.527,41.687A.527.527,0,0,1,.2,40.75L48.658,2.712l.227-.182a11.527,11.527,0,0,1,14.5.069l.224.183,50.556,37.824c.225.185.073.741.073.741s-.517.257-.741.072L62.715,3.413a10.471,10.471,0,0,0-13.169-.062l-.227.182L.857,41.57A.524.524,0,0,1,.527,41.687Z" transform="translate(0 0)" fill="#09091d" stroke="#09091d" stroke-width="1"/>
        </g>
        <g id="Group_4867" data-name="Group 4867" transform="translate(76.774 50.789)">
          <path id="Path_5408" data-name="Path 5408" d="M.527,42.31a.527.527,0,0,1-.289-.967L63.118.086A.527.527,0,0,1,63.7.967L.816,42.224A.524.524,0,0,1,.527,42.31Z" transform="translate(0 0)" fill="#09091d" stroke="#09091d" stroke-width="1"/>
        </g>
        <g id="Group_4868" data-name="Group 4868" transform="translate(0 50.129)">
          <path id="Path_5409" data-name="Path 5409" d="M63.017,42.9a.524.524,0,0,1-.293-.089L.234.964A.527.527,0,0,1,.82.089L63.31,41.938a.527.527,0,0,1-.293.964Z" transform="translate(0 0)" fill="#09091d" stroke="#09091d" stroke-width="1"/>
        </g>
        <g id="Group_4869" data-name="Group 4869" transform="translate(0.009 23.631)">
          <path id="Path_5410" data-name="Path 5410" d="M5.983,107.885c-.55.006-.544-.258-.543-.549L0,25.189a10.135,10.135,0,0,1,4.583-8.443L30,.086a.527.527,0,0,1,.729.152c.159.243-.152.729-.152.729L5.161,17.627a9.084,9.084,0,0,0-4.108,7.568l-.009,1.833,5.45,80.314A.494.494,0,0,1,5.983,107.885Z" transform="translate(0 0)" fill="#09091d" stroke="#09091d" stroke-width="1"/>
        </g>
        <g id="Group_4870" data-name="Group 4870" transform="translate(83.948 6.446)">
          <path id="Path_5411" data-name="Path 5411" d="M56.066,124.568l-.276-.273c-.291,0-.444-3.266-.443-3.557l.236-50.022.122-25.85.008-1.832a9.084,9.084,0,0,0-4.036-7.606L.234.964A.527.527,0,0,1,.82.089L52.264,34.553a10.135,10.135,0,0,1,4.5,8.486l-.008,1.832-.122,25.85L56.4,120.744C56.4,121.034,56.356,124.568,56.066,124.568Z" transform="translate(0 0)" fill="#09091d" stroke="#09091d" stroke-width="1"/>
        </g>
        <g id="Group_4871" data-name="Group 4871" transform="translate(45.419 0)">
          <path id="Path_5412" data-name="Path 5412" d="M.527,14.4a.527.527,0,0,1-.289-.967L17.044,2.413a14.677,14.677,0,0,1,16.24.076l6.469,4.332a.527.527,0,0,1-.586.875L32.7,3.364a13.626,13.626,0,0,0-15.076-.071L.816,14.318A.525.525,0,0,1,.527,14.4Z" transform="translate(0 0)" fill="#09091d" stroke="#09091d" stroke-width="1"/>
        </g>
        <g id="Group_4872" data-name="Group 4872" transform="translate(29.525 13.215)">
          <path id="Path_5413" data-name="Path 5413" d="M.527,11.617a.527.527,0,0,1-.289-.967L16.34.086a.527.527,0,1,1,.578.881L.816,11.53A.524.524,0,0,1,.527,11.617Z" transform="translate(0 0)" fill="#09091d" stroke="#09091d" stroke-width="1"/>
        </g>
      </g>
      <g id="Group_4875" data-name="Group 4875" transform="translate(64.795 25.053)">
        <path id="Path_5416" data-name="Path 5416" d="M49.479,25.119a21.849,21.849,0,0,1-2.461,7.642A13.1,13.1,0,0,1,42.376,37.8,9.029,9.029,0,0,1,36.3,39.008a7.281,7.281,0,0,1-3.747-1.6,6.108,6.108,0,0,1-2.05-3.12l-.476-.066a10.3,10.3,0,0,1-8.71,2.694,11.046,11.046,0,0,1-7.852-4.323q-2.59-3.589-1.823-9.088a13.517,13.517,0,0,1,5.394-9.551,14.513,14.513,0,0,1,10.939-2.382,36.357,36.357,0,0,1,5.565,1.277,31.307,31.307,0,0,1,4.9,1.882L35.73,29.171q-.577,4.132,1.683,4.447,1.9.266,3.42-2.356a19.781,19.781,0,0,0,2.144-7.11,17.629,17.629,0,0,0-.811-8.735,13.651,13.651,0,0,0-4.821-6.386,17.383,17.383,0,0,0-7.979-3.083A21.306,21.306,0,0,0,18.587,6.959,16.656,16.656,0,0,0,10.8,13.13,23.643,23.643,0,0,0,6.937,23.546q-1.145,8.2,2.628,13.2t12.1,6.158a38.655,38.655,0,0,0,7.024.268,46.347,46.347,0,0,0,7.716-1l-.8,5.707a36.079,36.079,0,0,1-14.5.734q-11.3-1.577-16.783-8.4T.313,22.8A27.931,27.931,0,0,1,5.4,9.922,23.628,23.628,0,0,1,15.9,1.81,27.438,27.438,0,0,1,30.089.321,25.181,25.181,0,0,1,41.4,4.627a19.16,19.16,0,0,1,6.875,8.718A22.928,22.928,0,0,1,49.479,25.119ZM18.52,24.587q-.875,6.273,4.237,6.986a4.8,4.8,0,0,0,4.336-1.319q1.66-1.692,2.551-5.9l1.3-6.516a16.452,16.452,0,0,0-3.373-.8,7.412,7.412,0,0,0-6.105,1.512A9.263,9.263,0,0,0,18.52,24.587Z" transform="translate(0 0)" fill="#fff"/>
      </g>
      <g id="Group_4876" data-name="Group 4876" transform="translate(68.013 26.334)">
        <path id="Path_5417" data-name="Path 5417" d="M21.809,43.84a33.53,33.53,0,0,1-4.21-.245A18.037,18.037,0,0,1,5.615,37.529,23.734,23.734,0,0,1,.064,24.094,20.6,20.6,0,0,1,2.208,13.288a24.283,24.283,0,0,1,7-8.42C15.389.143,23.049-1.245,29.7,1.156a21.758,21.758,0,0,1,12.809,13.57c1.332,4.054,1.185,10.379-1.673,14.624a8.671,8.671,0,0,1-6.774,4,4.7,4.7,0,0,1-4.592-2.734,8.657,8.657,0,0,1-.274-5.71c.448-1.991,1.268-6.958-.784-10.058a5.6,5.6,0,0,0-3.834-2.428,9.608,9.608,0,0,0-6.957,1.849,13.558,13.558,0,0,0-5.916,8.912c-.427,2.827.311,6.69,2.922,8.947A7.263,7.263,0,0,0,20,33.753a6.241,6.241,0,0,0,4.391-2.292.329.329,0,0,1,.518.406,6.892,6.892,0,0,1-4.846,2.541,7.931,7.931,0,0,1-5.87-1.78c-2.8-2.421-3.6-6.537-3.142-9.543a14.225,14.225,0,0,1,6.2-9.36A10.254,10.254,0,0,1,24.7,11.775a6.232,6.232,0,0,1,4.265,2.712c2.191,3.311,1.343,8.492.877,10.565-.513,2.28-.443,3.955.219,5.27A4.013,4.013,0,0,0,34.017,32.7a7.932,7.932,0,0,0,6.273-3.712c2.71-4.026,2.844-10.245,1.594-14.051A21.087,21.087,0,0,0,29.477,1.775C23.037-.549,15.61.8,9.608,5.391,3.474,10.081.151,17.053.72,24.041A23.068,23.068,0,0,0,6.115,37.1c6.4,7.426,16.191,6.365,24.829,5.428l.264-.028a.329.329,0,1,1,.071.654l-.264.028A85.861,85.861,0,0,1,21.809,43.84Z" transform="translate(0 0)" fill="#240448"/>
      </g>
    </g>
    <path id="Path_5880" data-name="Path 5880" d="M319.713,181.975l53.253-18.367a4.106,4.106,0,0,1,5.219,2.542l8.329,24.147a4.106,4.106,0,0,1-2.542,5.22l-18.837,6.5-.7,15.2-4.61-13.368-29.106,10.039a4.1,4.1,0,0,1-5.219-2.542l-8.329-24.147A4.106,4.106,0,0,1,319.713,181.975Z" transform="translate(-308.63 -152.51)" fill="#f6f6f6"/>
    <path id="Path_5881" data-name="Path 5881" d="M319.713,181.975l53.253-18.367a4.106,4.106,0,0,1,5.219,2.542l8.329,24.147a4.106,4.106,0,0,1-2.542,5.22l-18.837,6.5-.7,15.2-4.61-13.368-29.106,10.039a4.1,4.1,0,0,1-5.219-2.542l-8.329-24.147A4.106,4.106,0,0,1,319.713,181.975Z" transform="translate(-306.685 -155.908)" fill="none" stroke="#20154c" stroke-linecap="round" stroke-linejoin="round" stroke-width="1"/>
    <path id="Path_5884" data-name="Path 5884" d="M483.311,144.056h46.525a4.105,4.105,0,0,1,4.105,4.105v13a4.106,4.106,0,0,1-4.105,4.105H510.824l-.088,13.227-6.44-13.227H483.311a4.105,4.105,0,0,1-4.105-4.105v-13A4.1,4.1,0,0,1,483.311,144.056Z" transform="translate(-353.931 34.277)" fill="none" stroke="#20154c" stroke-linecap="round" stroke-linejoin="round" stroke-width="1"/>
    <text id="Hello_" data-name="Hello!" transform="translate(138.787 191.319)" fill="#fdb958" font-size="8" font-family="Poppins-Bold, Poppins" font-weight="700" letter-spacing="0.1em"><tspan x="0" y="0">Hello!</tspan></text>
    <text id="Hi_" data-name="Hi!" transform="translate(248.501 45.759) rotate(20)" fill="#ea676c" font-size="7" font-family="Poppins-Bold, Poppins" font-weight="700" letter-spacing="0.1em"><tspan x="0" y="0">Hi!</tspan></text>
    <path id="Path_5889" data-name="Path 5889" d="M4.105,0H21.894A4.105,4.105,0,0,1,26,4.105V21.438a4.105,4.105,0,0,1-4.105,4.105h-9.88l-4.83,7.7.148-7.7H4.105A4.106,4.106,0,0,1,0,21.438V4.105A4.106,4.106,0,0,1,4.105,0Z" transform="translate(248.19 29.008) rotate(20)" fill="none" stroke="#20154c" stroke-linecap="round" stroke-linejoin="round" stroke-width="1"/>
    <g id="Group_5270" data-name="Group 5270" transform="matrix(0.087, 0.996, -0.996, 0.087, 231.084, 146.266)">
      <path id="Path_5411-2" data-name="Path 5411" d="M.618,133.793l-.076-.008A.524.524,0,0,1,0,133.418L1.449,30.375,1.571,4.3l.008-1.849c.015-3.086,1.07-3.438,1.053,0L2.624,4.3,2.5,30.38,1.053,133.423C1.052,133.716.907,133.793.618,133.793Z" transform="translate(0 0)" fill="#09091d" stroke="#09091d" stroke-width="1"/>
    </g>
    <path id="Union_21" data-name="Union 21" d="M22.32,99.815c-3.791-1.3-9.913-5.334-13.37-8.887a59.386,59.386,0,0,1-5.681-7.4.98.98,0,0,1-.18-.534,1.974,1.974,0,0,1-1.76-1.659L.038,74.428a1.934,1.934,0,0,1,1.438-2.315l31.5-5.957a1.924,1.924,0,0,1,2.176,1.632l1.291,6.907a1.963,1.963,0,0,1-1.2,2.253c1.865.636,3.807,3.194,7.273,2.966,2.89-.19,6.651-2.831,6.651-2.831l14.656-11.4,0,0,1.627-1.257,1.289-1,0,0L86,48.532s3.5-2.985,4.418-5.747c1.113-3.345-.9-5.9-1-7.886a1.064,1.064,0,0,1,0-.142l-.057.122a1.916,1.916,0,0,1-2.592.808L80.463,32.67a1.938,1.938,0,0,1-1.014-2.532L93.207,1.018A1.916,1.916,0,0,1,95.8.21l6.311,3.017a2,2,0,0,1,1.168,2c.259-.055.51.188.624.311a59.363,59.363,0,0,1,5.665,7.413c2.534,4.268,4.847,11.251,5.134,15.27a12.014,12.014,0,0,1-.788,3.7c-3.014,6.244-10.569,15.965-14.89,20.966A187.493,187.493,0,0,1,75.489,74.846,175.529,175.529,0,0,1,50.03,90.855c-5.909,2.927-17.181,7.8-23.951,9.137a7.122,7.122,0,0,1-1.2.077A10.373,10.373,0,0,1,22.32,99.815Z" transform="matrix(0.996, -0.087, 0.087, 0.996, 144.897, 162.444)" fill="#035aa7" stroke="rgba(0,0,0,0)" stroke-miterlimit="10" stroke-width="1"/>
    <g id="Group_4857" data-name="Group 4857" transform="translate(0.607 117.948) rotate(-14)">
      <g id="Group_2621" data-name="Group 2621" transform="translate(0 0.591)">
        <path id="Path_3486" data-name="Path 3486" d="M32.339,136.575a8.017,8.017,0,0,0,9.973,5.388l46.024-13a8.016,8.016,0,0,0,5.679-9.81L61.967,5.706A8.016,8.016,0,0,0,51.995.317l-46.024,13a8.017,8.017,0,0,0-5.679,9.81Z" transform="translate(0 0)" fill="#035aa7"/>
      </g>
      <g id="Group_4852" data-name="Group 4852" transform="translate(4.834 0)">
        <path id="Path_3486-2" data-name="Path 3486" d="M32.339,136.575a8.017,8.017,0,0,0,9.973,5.388l46.024-13a8.016,8.016,0,0,0,5.679-9.81L61.967,5.706A8.016,8.016,0,0,0,51.995.317l-46.024,13a8.017,8.017,0,0,0-5.679,9.81Z" transform="translate(0 0)" fill="none" stroke="#09091d" stroke-linecap="round" stroke-linejoin="round" stroke-width="2"/>
      </g>
      <g id="Group_2623" data-name="Group 2623" transform="translate(7.984 6.762)">
        <path id="Path_3490" data-name="Path 3490" d="M29.664,120.6a1.369,1.369,0,0,0,1.679.962l49.682-14.035a1.369,1.369,0,0,0,.927-1.7L52.342,1.012A1.369,1.369,0,0,0,50.663.05L.981,14.086a1.369,1.369,0,0,0-.928,1.7Z" transform="translate(0 0)" fill="#fff"/>
        <path id="Path_3492" data-name="Path 3492" d="M29.664,120.6a1.369,1.369,0,0,0,1.679.962l49.682-14.035a1.369,1.369,0,0,0,.927-1.7L52.342,1.012A1.369,1.369,0,0,0,50.663.05L.981,14.086a1.369,1.369,0,0,0-.928,1.7Z" transform="translate(0 0)" fill="none" stroke="#20154c" stroke-miterlimit="10" stroke-width="2"/>
      </g>
      <g id="Group_4855" data-name="Group 4855" transform="translate(18.4 22.175)">
        <path id="Path_3496" data-name="Path 3496" d="M.682,10.079,36.132.036a.936.936,0,0,1,1.157.646l2.383,8.412a.937.937,0,0,1-.646,1.156l-3.3.936-1.052.3-1.593,2.4-.51-1.8L3.576,20.293a.937.937,0,0,1-1.157-.646L.036,11.235A.936.936,0,0,1,.682,10.079Z" transform="translate(0 1.359)" fill="#f6f6f6"/>
        <rect id="Rectangle_1554" data-name="Rectangle 1554" width="1.717" height="31.069" transform="translate(5.195 16.488) rotate(-105.818)" fill="#fff"/>
        <path id="Path_5391" data-name="Path 5391" d="M.682,10.079,36.132.036a.936.936,0,0,1,1.157.646l2.383,8.412a.937.937,0,0,1-.646,1.156l-3.3.936-1.052.3-1.593,2.4-.51-1.8L3.576,20.293a.937.937,0,0,1-1.157-.646L.036,11.235A.936.936,0,0,1,.682,10.079Z" transform="translate(0.68 0)" fill="none" stroke="#20154c" stroke-miterlimit="10" stroke-width="2"/>
      </g>
      <g id="Group_4854" data-name="Group 4854" transform="translate(24.846 46.3)">
        <path id="Path_3497" data-name="Path 3497" d="M.344,7.807A.919.919,0,0,1,.68,7.631L27.493.035a.926.926,0,0,1,.378-.027.947.947,0,0,1,.781.682l2.388,8.43a.943.943,0,0,1-.643,1.166L6.883,16.949l-.968,1.856L5.5,17.341l-1.915.543a.943.943,0,0,1-1.16-.656L.037,8.8A.945.945,0,0,1,.344,7.807Z" transform="translate(0 1.359)" fill="#f6f6f6"/>
        <rect id="Rectangle_1556" data-name="Rectangle 1556" width="1.717" height="21.545" transform="translate(5.343 14.566) rotate(-105.818)" fill="#fff"/>
        <path id="Path_5392" data-name="Path 5392" d="M.344,7.807A.919.919,0,0,1,.68,7.631L27.493.035a.926.926,0,0,1,.378-.027.947.947,0,0,1,.781.682l2.388,8.43a.943.943,0,0,1-.643,1.166L6.883,16.949l-.968,1.856L5.5,17.341l-1.915.543a.943.943,0,0,1-1.16-.656L.037,8.8A.945.945,0,0,1,.344,7.807Z" transform="translate(0.589 0)" fill="none" stroke="#20154c" stroke-miterlimit="10" stroke-width="2"/>
      </g>
      <g id="Group_4853" data-name="Group 4853" transform="translate(30.947 68.726)">
        <path id="Path_3498" data-name="Path 3498" d="M36.132.036.682,10.079a.937.937,0,0,0-.646,1.157l2.383,8.412a.937.937,0,0,0,1.156.646l3.3-.936,1.052-.3,2.614,1.207-.51-1.8,28.991-8.213a.936.936,0,0,0,.646-1.157L37.288.682A.937.937,0,0,0,36.132.036Z" transform="translate(0 1.359)" fill="#f6f6f6"/>
        <rect id="Rectangle_1555" data-name="Rectangle 1555" width="1.717" height="31.069" transform="translate(5.323 16.939) rotate(-105.818)" fill="#fff"/>
        <path id="Path_5393" data-name="Path 5393" d="M36.132.036.682,10.079a.937.937,0,0,0-.646,1.157l2.383,8.412a.937.937,0,0,0,1.156.646l3.3-.936,1.052-.3,2.614,1.207-.51-1.8,28.991-8.213a.936.936,0,0,0,.646-1.157L37.288.682A.937.937,0,0,0,36.132.036Z" transform="translate(0.181 0)" fill="none" stroke="#20154c" stroke-miterlimit="10" stroke-width="2"/>
      </g>
      <g id="Group_4856" data-name="Group 4856" transform="translate(38.571 92.851)">
        <path id="Path_3499" data-name="Path 3499" d="M.344,7.808a.921.921,0,0,1,.335-.177L27.493.034a.941.941,0,0,1,1.16.656L31.04,9.12a.941.941,0,0,1-.643,1.167L6.882,16.949l-.968,1.856L5.5,17.34l-1.915.543a.942.942,0,0,1-1.16-.655L.036,8.8A.947.947,0,0,1,.344,7.808Z" transform="translate(0 1.699)" fill="#f6f6f6"/>
        <rect id="Rectangle_1557" data-name="Rectangle 1557" width="1.717" height="21.545" transform="translate(5.3 14.755) rotate(-105.818)" fill="#fff"/>
        <path id="Path_5394" data-name="Path 5394" d="M.344,7.808a.921.921,0,0,1,.335-.177L27.493.034a.941.941,0,0,1,1.16.656L31.04,9.12a.941.941,0,0,1-.643,1.167L6.882,16.949l-.968,1.856L5.5,17.34l-1.915.543a.942.942,0,0,1-1.16-.655L.036,8.8A.947.947,0,0,1,.344,7.808Z" transform="translate(1.187 0)" fill="none" stroke="#20154c" stroke-miterlimit="10" stroke-width="2"/>
      </g>
      <ellipse id="Ellipse_145" data-name="Ellipse 145" cx="4.417" cy="4.417" rx="4.417" ry="4.417" transform="translate(63.888 123.093)" fill="#fff"/>
      <g id="Ellipse_146" data-name="Ellipse 146" transform="translate(65.247 123.093)" fill="none" stroke="#09091d" stroke-width="2">
        <ellipse cx="4.417" cy="4.417" rx="4.417" ry="4.417" stroke="none"/>
        <ellipse cx="4.417" cy="4.417" rx="3.417" ry="3.417" fill="none"/>
      </g>
    </g>
    <g id="Group_5272" data-name="Group 5272" transform="matrix(0.996, -0.087, 0.087, 0.996, 144.897, 170.39)">
      <path id="Union_18" data-name="Union 18" d="M21.971,98.255C18.24,96.971,12.213,93,8.81,89.507a58.55,58.55,0,0,1-5.473-7.1c-.968.144-1.832-1.287-2.03-2.347l-1.271-6.8a1.9,1.9,0,0,1,1.415-2.279l31.009-5.865A1.894,1.894,0,0,1,34.6,66.728l1.27,6.8a1.932,1.932,0,0,1-1.183,2.218c1.836.626,3.747,3.144,7.16,2.92,2.845-.187,6.548-2.787,6.548-2.787L62.824,64.652l0,0,1.6-1.238,1.269-.987,0,0L84.658,47.774s3.443-2.938,4.349-5.657c1.1-3.293-.884-5.809-.985-7.763a1.042,1.042,0,0,1,0-.139l-.056.119a1.887,1.887,0,0,1-2.552.8L79.205,32.16a1.908,1.908,0,0,1-1-2.493L91.751,1A1.886,1.886,0,0,1,94.3.207l6.212,2.969a2.852,2.852,0,0,1,1.616,2.131,1.508,1.508,0,0,1,.147.141,58.42,58.42,0,0,1,5.577,7.3c2.494,4.2,4.771,11.075,5.054,15.031a11.834,11.834,0,0,1-.776,3.642c-2.967,6.146-10.4,15.716-14.657,20.639A184.572,184.572,0,0,1,74.309,73.677,172.729,172.729,0,0,1,49.248,89.435c-5.816,2.882-16.913,7.675-23.577,8.994a7.009,7.009,0,0,1-1.184.075A10.207,10.207,0,0,1,21.971,98.255Z" transform="translate(0 0)" fill="none" stroke="#000" stroke-linecap="round" stroke-miterlimit="10" stroke-width="2"/>
      <line id="Line_54" data-name="Line 54" x1="11.372" y2="24.91" transform="translate(87.139 10.412)" fill="none" stroke="#000" stroke-linecap="round" stroke-width="2"/>
      <line id="Line_55" data-name="Line 55" x1="28.096" y2="5.352" transform="translate(7.533 75.301)" fill="none" stroke="#000" stroke-linecap="round" stroke-width="2"/>
    </g>
    <text id="Can_you_help_me_" data-name="Can you 
help me?" transform="translate(14.594 29.707) rotate(-19)" fill="#fdb958" font-size="10" font-family="Poppins-Bold, Poppins" font-weight="700" letter-spacing="0.1em"><tspan x="0" y="11">Can you </tspan><tspan x="0" y="23">help me?</tspan></text>
  </g>
</svg>
