<svg xmlns="http://www.w3.org/2000/svg" xmlns:xlink="http://www.w3.org/1999/xlink" width="1352" height="1000" viewBox="0 0 1920 1431">
  <defs>
    <style>
      .cls-1 {
        fill: none;
      }

      .cls-2 {
        opacity: 0.5;
        clip-path: url(#clip-path);
      }

      .cls-3, .cls-4 {
        fill: #f6f6f6;
        opacity: 0.9;
      }

      .cls-3 {
        mix-blend-mode: multiply;
        isolation: isolate;
      }
    </style>
    <clipPath id="clip-path">
      <rect id="SVGID" class="cls-1" width="1920" height="1431" transform="translate(0.707 -101.031)"/>
    </clipPath>
  </defs>
  <g id="Group_5034" data-name="Group 5034" class="cls-2" transform="translate(-0.707 101.031)">
    <path id="Path_5673" data-name="Path 5673" class="cls-3" d="M1519.118,70.02A538.687,538.687,0,0,0,1395.764,21.3c-141.191-35.976-269.147,34.97-340.658,150.529-78,126.051-68.139,276.011-70.69,416.868-3.819,211.037-54.305,399.659-303.029,428.634C568.581,1030.472,439.463,1066.062,375,1163.394c-103.668,156.533-6.192,366.408,122.567,480.121,166.194,146.773,417.312,177.224,628.768,116.328,468.989-135.061,816.328-689.519,754.545-1149.8C1851.375,390.222,1723.5,180.672,1519.118,70.02Z" transform="translate(579.338 -112.932)"/>
    <path id="Path_5678" data-name="Path 5678" class="cls-4" d="M-27.052,356.995c68.038-69.392,166.9-107.736,267.576-94.935,94.943,12.074,164.806,77.817,203.565,162.585,31.249,68.347,71.028,126.921,150.62,142.863,60.255,12.066,115.437-9.728,173.436-22.787,102-22.965,205.182,30.882,228.78,136.053,20.329,90.594-25.779,184.9-91.437,245.6a304.874,304.874,0,0,1-46.2,35.3c-89.727,55.642-199.072,65.674-302.285,60.789-114.676-5.427-229.583-22.537-339.008-57.938C120.865,933.1,23.254,886.959-41.991,805.668c-66.323-82.637-90.051-196.494-66.932-299.439C-95.976,448.573-66.763,397.5-27.052,356.995Z" transform="translate(-194.987 430.933)"/>
  </g>
</svg>
