<svg xmlns="http://www.w3.org/2000/svg" width="254.446" height="105.645" viewBox="0 0 254.446 105.645">
  <g id="Untitled-1-01" transform="translate(0 0.005)">
    <path id="Path_6195" data-name="Path 6195" d="M157.876,9l12.616,14.309a.569.569,0,0,0,.4.195h0a.555.555,0,0,0,.389-.159,43.072,43.072,0,0,1,68.722,12.349,42.51,42.51,0,0,1,3.7,12.249l.353,2.457a.569.569,0,0,0,.562.49h9.467v26.1H237.736a.555.555,0,0,0-.468.252A43.05,43.05,0,0,1,219.6,92.672c-.793.367-1.592.72-2.4,1.045a.562.562,0,0,0-.353.612,11.449,11.449,0,0,1-15.455,12.465.72.72,0,0,0-.209,0,.627.627,0,0,0-.2,0A11.463,11.463,0,0,1,185.4,96.181a11.1,11.1,0,0,1,.158-1.881.569.569,0,0,0-.353-.62,43.547,43.547,0,0,1-11.528-6.845.555.555,0,0,0-.36-.13.54.54,0,0,0-.238.05.569.569,0,0,0-.331.512v8.79H99.061a.605.605,0,0,0-.317.094c-4.835,3.249-11.283,4.835-19.706,4.835H70.889V91.772a.562.562,0,0,0-.274-.49.6.6,0,0,0-.288-.079.54.54,0,0,0-.274.072A46.4,46.4,0,0,1,16.2,84.732,45.81,45.81,0,0,1,1.541,54.673L.82,46.07H28.833a.584.584,0,0,0,.461-.231,14.144,14.144,0,0,1,18.1-4.215.584.584,0,0,0,.533,0,14.144,14.144,0,0,1,18.1,4.215.584.584,0,0,0,.461.231H96.748a.562.562,0,0,0,.569-.562V23.641h27.494V37.971a.569.569,0,0,0,.339.519.583.583,0,0,0,.223.043.569.569,0,0,0,.382-.144L157.876,9" transform="translate(-0.229 -2.517)" fill="#1d2a4c"/>
    <path id="Path_6196" data-name="Path 6196" d="M157.69,7.91,125.159,37.667v-14.9H96.548V45.2H66.286A14.72,14.72,0,0,0,47.46,40.815,14.72,14.72,0,0,0,28.6,45.2H0l.721,9.208A46.9,46.9,0,0,0,70.1,91.489v9.77h8.711c8.516,0,15.131-1.621,20.023-4.921h74.277V86.971a44.044,44.044,0,0,0,11.651,6.938,11.838,11.838,0,0,0-.166,1.974,12.032,12.032,0,0,0,16.384,11.153A11.985,11.985,0,0,0,217.2,93.945c.821-.331,1.628-.721,2.435-1.059a43.648,43.648,0,0,0,17.89-15.628h16.917V50.016H244.417l-.353-2.457a42.847,42.847,0,0,0-3.754-12.385,43.763,43.763,0,0,0-39.332-24.749A43.3,43.3,0,0,0,182.324,14.6a43.864,43.864,0,0,0-11.636,8.055L157.718,7.91Z" transform="translate(0 -2.212)" fill="#181f3a"/>
    <path id="Path_6197" data-name="Path 6197" d="M300.025,53.132H250.642l9.921-9.9h24.865a24.886,24.886,0,0,0-44.261,9.9H231.08a34.094,34.094,0,0,1,3-9.9,34.9,34.9,0,0,1,62.922,0,34.317,34.317,0,0,1,3.026,9.9Z" transform="translate(-64.586 -6.553)" fill="#e96424"/>
    <path id="Path_6198" data-name="Path 6198" d="M231.12,78.38a34.094,34.094,0,0,0,3,9.9,34.887,34.887,0,0,0,62.922,0h13.293v-9.9h-20.39a24.439,24.439,0,0,1-4.474,9.9,24.937,24.937,0,0,1-39.786,0,24.634,24.634,0,0,1-4.474-9.9Z" transform="translate(-64.597 -21.908)" fill="#e96424"/>
    <ellipse id="Ellipse_173" data-name="Ellipse 173" cx="3.314" cy="3.3" rx="3.314" ry="3.3" transform="translate(202.022 90.357)" fill="#e96424"/>
    <ellipse id="Ellipse_174" data-name="Ellipse 174" cx="3.314" cy="3.3" rx="3.314" ry="3.3" transform="translate(193.311 90.357)" fill="#e96424"/>
    <path id="Path_6199" data-name="Path 6199" d="M51.089,106.394a38.093,38.093,0,0,1-38-34.894H24.474a26.81,26.81,0,0,0,53.238,0H89.089a38.093,38.093,0,0,1-38,34.894Z" transform="translate(-3.659 -19.985)" fill="#69bfda"/>
    <path id="Path_6200" data-name="Path 6200" d="M146.08,92.446v-56.2h11.2V81.134h37.056l-.922-3.754a23.64,23.64,0,0,0-2.212-5.642,18.906,18.906,0,0,0-7.645-7.731,21.478,21.478,0,0,0-7.205-2.479l-1.506-.231-6.254,6.312-7.673-8.718L197.848,25.1l7.45,8.452L185.124,52.018l3.905,2.162a29.692,29.692,0,0,1,11.888,11.982c.339.62.663,1.261.994,1.945a34.5,34.5,0,0,1,2.8,8.7,33.864,33.864,0,0,1,.519,5.642V92.467Z" transform="translate(-40.829 -7.017)" fill="#69bfda"/>
    <ellipse id="Ellipse_175" data-name="Ellipse 175" cx="5.987" cy="5.951" rx="5.987" ry="5.951" transform="translate(34.548 45.563)" fill="#69bfda"/>
    <ellipse id="Ellipse_176" data-name="Ellipse 176" cx="5.987" cy="5.951" rx="5.987" ry="5.951" transform="translate(48.339 45.563)" fill="#69bfda"/>
    <path id="Path_6201" data-name="Path 6201" d="M131.6,89.968c0,7.292-1.837,12.522-5.577,15.772-3.422,3.091-9,4.6-16.644,4.6V101.4q10.988,0,10.988-10.462V71.48H131.6Z" transform="translate(-30.571 -19.98)" fill="#69bfda"/>
    <path id="Path_6202" data-name="Path 6202" d="M240.5,15.114a.468.468,0,0,1,.13.331.368.368,0,0,1-.151.259L238.314,17.4a1.866,1.866,0,0,0,.367.353,1.009,1.009,0,0,0,.418.18.922.922,0,0,0,.454-.05,1.592,1.592,0,0,0,.483-.274,3.313,3.313,0,0,0,.425-.4,2.7,2.7,0,0,0,.281-.346c.072-.108.122-.2.166-.274a.576.576,0,0,1,.122-.151.115.115,0,0,1,.072-.036.087.087,0,0,1,.072,0,.223.223,0,0,1,.1.086.8.8,0,0,1,.137.159,1.44,1.44,0,0,1,.115.144l.072.115a.3.3,0,0,1,0,.086.2.2,0,0,1,0,.094.461.461,0,0,1-.072.18,2.515,2.515,0,0,1-.216.324,5,5,0,0,1-.346.4,5.442,5.442,0,0,1-.461.418,3.307,3.307,0,0,1-.908.526,1.953,1.953,0,0,1-.872.115,1.866,1.866,0,0,1-.814-.324,3.6,3.6,0,0,1-.8-.764,3.343,3.343,0,0,1-.54-.929,2.313,2.313,0,0,1-.151-.908,1.974,1.974,0,0,1,.252-.85,2.493,2.493,0,0,1,.641-.721,2.421,2.421,0,0,1,.85-.461,1.758,1.758,0,0,1,.793-.05,1.643,1.643,0,0,1,.721.31,2.883,2.883,0,0,1,.634.6Zm-1.174.476a1.318,1.318,0,0,0-.684-.519.836.836,0,0,0-.721.2.865.865,0,0,0-.274.339.72.72,0,0,0-.079.367.965.965,0,0,0,.079.389,1.722,1.722,0,0,0,.216.389Z" transform="translate(-66.078 -3.919)" fill="#1d2a4c"/>
    <path id="Path_6203" data-name="Path 6203" d="M247.713,11.442c.043.072.072.13.108.18a.463.463,0,0,1,.058.144.353.353,0,0,1,0,.108.52.52,0,0,1,0,.137.872.872,0,0,1-.1.231c-.065.108-.144.223-.238.353a3.684,3.684,0,0,1-.375.389,4.194,4.194,0,0,1-.5.382,3.48,3.48,0,0,1-1.124.454,2.471,2.471,0,0,1-1.1-.036,2.831,2.831,0,0,1-1.023-.562,4.755,4.755,0,0,1-.929-1.117,4.431,4.431,0,0,1-.576-1.355,3.026,3.026,0,0,1-.043-1.239,2.644,2.644,0,0,1,.461-1.009,3.141,3.141,0,0,1,.922-.836,2.508,2.508,0,0,1,.461-.231,3.048,3.048,0,0,1,.454-.151,2.881,2.881,0,0,1,.418-.058,1.441,1.441,0,0,1,.281,0l.144.043.094.079.1.13c.043.05.079.115.137.195a1.794,1.794,0,0,1,.122.223.569.569,0,0,1,.05.159.159.159,0,0,1,0,.115.108.108,0,0,1-.043.065.36.36,0,0,1-.209,0,2.818,2.818,0,0,0-.36,0,2.363,2.363,0,0,0-.468.058,1.881,1.881,0,0,0-.562.245,1.585,1.585,0,0,0-.5.5,1.441,1.441,0,0,0-.195.648,1.953,1.953,0,0,0,.094.771,3.833,3.833,0,0,0,.389.85,4.072,4.072,0,0,0,.62.778,2.046,2.046,0,0,0,.641.4,1.4,1.4,0,0,0,.663.058,1.542,1.542,0,0,0,.663-.252,1.989,1.989,0,0,0,.468-.382,2.285,2.285,0,0,0,.274-.389c.072-.122.122-.223.166-.31s.072-.144.115-.159a.172.172,0,0,1,.159.043.483.483,0,0,1,.115.122C247.576,11.262,247.627,11.341,247.713,11.442Z" transform="translate(-67.587 -2.02)" fill="#1d2a4c"/>
    <path id="Path_6204" data-name="Path 6204" d="M254.206,7.39a3.387,3.387,0,0,1,.3,1,2.32,2.32,0,0,1-.079.922,1.931,1.931,0,0,1-.476.793,2.973,2.973,0,0,1-1.909.886,1.823,1.823,0,0,1-.865-.122,2.161,2.161,0,0,1-.72-.519,3.652,3.652,0,0,1-.562-.893,3.429,3.429,0,0,1-.3-1,2.161,2.161,0,0,1,.072-.922,2.075,2.075,0,0,1,.476-.8,3.055,3.055,0,0,1,.893-.62,3.213,3.213,0,0,1,1.016-.288,1.708,1.708,0,0,1,.857.13,1.931,1.931,0,0,1,.72.519,3.667,3.667,0,0,1,.569.915Zm-1.153.584a3.515,3.515,0,0,0-.3-.519,1.484,1.484,0,0,0-.367-.367,1,1,0,0,0-.432-.151,1.283,1.283,0,0,0-.526.122,1.1,1.1,0,0,0-.4.3.886.886,0,0,0-.18.411,1.24,1.24,0,0,0,0,.512,2.594,2.594,0,0,0,.2.605,3.373,3.373,0,0,0,.31.526,1.311,1.311,0,0,0,.367.353.721.721,0,0,0,.425.151,1.2,1.2,0,0,0,.922-.418.836.836,0,0,0,.195-.411,1.239,1.239,0,0,0,0-.512,2.976,2.976,0,0,0-.245-.6Z" transform="translate(-69.757 -1.627)" fill="#1d2a4c"/>
    <path id="Path_6205" data-name="Path 6205" d="M264.753,5.947a.137.137,0,0,1,0,.094.252.252,0,0,1-.072.086,1.058,1.058,0,0,1-.18.086,1.506,1.506,0,0,1-.288.094l-.3.079h-.195a.187.187,0,0,1-.108-.036.1.1,0,0,1-.05-.072l-.721-2.536a1.442,1.442,0,0,0-.158-.367.9.9,0,0,0-.216-.267.533.533,0,0,0-.259-.137.72.72,0,0,0-.339,0,.771.771,0,0,0-.375.288,2.693,2.693,0,0,0-.339.634l.807,2.868a.108.108,0,0,1,0,.094.6.6,0,0,1-.079.086l-.173.094-.288.094-.3.072h-.195a.216.216,0,0,1-.115-.036.144.144,0,0,1-.058-.072l-.721-2.529a3.2,3.2,0,0,0-.159-.382,1,1,0,0,0-.216-.267.627.627,0,0,0-.267-.137.721.721,0,0,0-.324,0,.786.786,0,0,0-.389.3,2.343,2.343,0,0,0-.331.62l.821,2.839a.144.144,0,0,1,0,.094.288.288,0,0,1-.079.094l-.173.086-.3.094a2.313,2.313,0,0,1-.3.079h-.187a.252.252,0,0,1-.122,0,.151.151,0,0,1-.05-.079L256.7,3.663a.173.173,0,0,1,0-.086.151.151,0,0,1,.072-.086.446.446,0,0,1,.144-.079l.245-.086.259-.065a.72.72,0,0,1,.166,0,.1.1,0,0,1,.144.072l.144.5a3.07,3.07,0,0,1,.54-.778,1.628,1.628,0,0,1,.663-.4,1.78,1.78,0,0,1,.49-.079,1.347,1.347,0,0,1,.425.05,1.145,1.145,0,0,1,.36.159,1.62,1.62,0,0,1,.288.259,3.906,3.906,0,0,1,.281-.461,2.366,2.366,0,0,1,.288-.346,2.351,2.351,0,0,1,.317-.245,1.441,1.441,0,0,1,.367-.151,1.722,1.722,0,0,1,.721-.065,1.283,1.283,0,0,1,.591.252,1.693,1.693,0,0,1,.425.5,3.525,3.525,0,0,1,.281.677Z" transform="translate(-71.744 -0.494)" fill="#1d2a4c"/>
    <path id="Path_6206" data-name="Path 6206" d="M276.389,4.552a.137.137,0,0,1,0,.094.173.173,0,0,1-.094.072,1.189,1.189,0,0,1-.187.058l-.3.043h-.5a.2.2,0,0,1-.108-.058.123.123,0,0,1-.036-.086L274.9,2.059a1.673,1.673,0,0,0-.079-.4.865.865,0,0,0-.166-.3.584.584,0,0,0-.238-.18.771.771,0,0,0-.324-.043.785.785,0,0,0-.432.223,2.882,2.882,0,0,0-.454.548l.288,2.94a.108.108,0,0,1,0,.094.23.23,0,0,1-.086.072,1,1,0,0,1-.187.05,1.6,1.6,0,0,1-.3.043,2.5,2.5,0,0,1-.31,0,.533.533,0,0,1-.194,0,.216.216,0,0,1-.1-.05.122.122,0,0,1-.043-.086l-.259-2.615a2.028,2.028,0,0,0-.072-.4,1.327,1.327,0,0,0-.166-.3.526.526,0,0,0-.281-.2.591.591,0,0,0-.317-.043.764.764,0,0,0-.447.216,2.7,2.7,0,0,0-.439.555l.288,2.932a.359.359,0,0,1,0,.094.23.23,0,0,1-.1.072,1.188,1.188,0,0,1-.187.058l-.3.043h-.5a.194.194,0,0,1-.108-.058.115.115,0,0,1-.036-.079L268.917.805a.123.123,0,0,1,0-.086A.2.2,0,0,1,269,.647a.72.72,0,0,1,.166-.05,1.751,1.751,0,0,1,.252,0,1.945,1.945,0,0,1,.267,0,.511.511,0,0,1,.166,0,.252.252,0,0,1,.086.05.123.123,0,0,1,.036.086l.05.5A3.236,3.236,0,0,1,270.7.575,1.578,1.578,0,0,1,271.417.3a2.255,2.255,0,0,1,.5,0,1.715,1.715,0,0,1,.411.13,1.442,1.442,0,0,1,.324.223,1.823,1.823,0,0,1,.238.317,3.463,3.463,0,0,1,.353-.411,2.523,2.523,0,0,1,.36-.288,1.817,1.817,0,0,1,.353-.18,2.341,2.341,0,0,1,.375-.086,1.808,1.808,0,0,1,.764.079,1.232,1.232,0,0,1,.526.36,1.441,1.441,0,0,1,.324.569,2.788,2.788,0,0,1,.151.721Z" transform="translate(-75.159 0)" fill="#1d2a4c"/>
    <path id="Path_6207" data-name="Path 6207" d="M285.066,2.52a.519.519,0,0,1-.115.331.4.4,0,0,1-.288.1l-2.716-.144a2.351,2.351,0,0,0,.036.519,1.016,1.016,0,0,0,.2.4.857.857,0,0,0,.36.267,1.758,1.758,0,0,0,.555.115,3.79,3.79,0,0,0,.591,0,3.8,3.8,0,0,0,.425-.079l.31-.094a.6.6,0,0,1,.2,0h.072a.251.251,0,0,1,.05.065.316.316,0,0,1,0,.13.992.992,0,0,1,0,.209.677.677,0,0,1,0,.18.6.6,0,0,1,0,.137.238.238,0,0,1-.036.086.216.216,0,0,1-.05.072.656.656,0,0,1-.187.086,3.3,3.3,0,0,1-.382.094,3.12,3.12,0,0,1-.512.072,4.446,4.446,0,0,1-.627,0,3.314,3.314,0,0,1-1.03-.2,2,2,0,0,1-.721-.49,2.061,2.061,0,0,1-.4-.793,3.646,3.646,0,0,1-.094-1.088,3.417,3.417,0,0,1,.209-1.045,2.162,2.162,0,0,1,.5-.778,1.787,1.787,0,0,1,.72-.468,2.162,2.162,0,0,1,.944-.159,2.32,2.32,0,0,1,.951.209,1.787,1.787,0,0,1,.634.483,2.162,2.162,0,0,1,.339.721,2.88,2.88,0,0,1,.072.872Zm-1.2-.418a1.326,1.326,0,0,0-.166-.843.828.828,0,0,0-.72-.331.915.915,0,0,0-.425.065.8.8,0,0,0-.3.231.828.828,0,0,0-.2.346,1.442,1.442,0,0,0-.1.44Z" transform="translate(-78.454 -0.014)" fill="#1d2a4c"/>
    <path id="Path_6208" data-name="Path 6208" d="M291.288,1.611a.507.507,0,0,1-.05.288.6.6,0,0,1-.058.173.253.253,0,0,1-.065.079.159.159,0,0,1-.086,0h-.079a.426.426,0,0,0-.115-.05.547.547,0,0,0-.13-.065l-.151-.043a1.2,1.2,0,0,0-.223,0,1.023,1.023,0,0,0-.231.1,1.854,1.854,0,0,0-.267.2,3.435,3.435,0,0,0-.31.324l-.411,2.738a.094.094,0,0,1-.043.079c-.043.022-.058,0-.115.05h-.5l-.3-.058a.677.677,0,0,1-.187-.072.1.1,0,0,1-.086-.072.137.137,0,0,1,0-.094l.648-4.4a.1.1,0,0,1,.036-.079.267.267,0,0,1,.115-.1.418.418,0,0,1,.173,0h.252a2.11,2.11,0,0,1,.259.058.49.49,0,0,1,.159.058A.223.223,0,0,1,289.6.8a.137.137,0,0,1,0,.094l-.072.548a3.368,3.368,0,0,1,.382-.36,1.492,1.492,0,0,1,.339-.209.9.9,0,0,1,.288-.094,1.211,1.211,0,0,1,.281,0h.144l.144.05.137.058a.324.324,0,0,1,.072.065.13.13,0,0,1,.036.058.266.266,0,0,1,0,.086.722.722,0,0,1,0,.159A1.834,1.834,0,0,0,291.288,1.611Z" transform="translate(-80.461 -0.171)" fill="#1d2a4c"/>
    <path id="Path_6209" data-name="Path 6209" d="M296.291,6.107a.549.549,0,0,1-.065.209.606.606,0,0,1-.058.137.245.245,0,0,1-.043.086l-.1.072a.972.972,0,0,1-.231.094,2.378,2.378,0,0,1-.353.065,2.572,2.572,0,0,1-.411,0,1.974,1.974,0,0,1-.454-.065,2.284,2.284,0,0,1-.85-.36,1.7,1.7,0,0,1-.54-.612A2.046,2.046,0,0,1,293,4.9a3.467,3.467,0,0,1,.1-1.023,3.561,3.561,0,0,1,.432-1.081,2.1,2.1,0,0,1,.641-.721,1.96,1.96,0,0,1,.793-.3,2.659,2.659,0,0,1,.915.058,2.277,2.277,0,0,1,.375.122,2.427,2.427,0,0,1,.331.18,1.9,1.9,0,0,1,.259.2A1.368,1.368,0,0,1,297,2.5a.562.562,0,0,1,.058.115.412.412,0,0,1,0,.1.6.6,0,0,1,0,.151,1.441,1.441,0,0,1-.043.2,1.131,1.131,0,0,1-.13.382c-.058.072-.108.1-.159.086a.367.367,0,0,1-.166-.108,1.444,1.444,0,0,0-.18-.2,2.162,2.162,0,0,0-.267-.223,1.312,1.312,0,0,0-.4-.166.865.865,0,0,0-.814.195,1.866,1.866,0,0,0-.5,1.016,2.607,2.607,0,0,0-.087.627,1.268,1.268,0,0,0,.086.49.778.778,0,0,0,.245.339,1,1,0,0,0,.411.2,1.275,1.275,0,0,0,.461,0,2.111,2.111,0,0,0,.353-.086l.267-.122a.389.389,0,0,1,.18,0,.108.108,0,0,1,.065.043.173.173,0,0,1,0,.1.789.789,0,0,1,0,.173A1.126,1.126,0,0,0,296.291,6.107Z" transform="translate(-81.89 -0.496)" fill="#1d2a4c"/>
    <path id="Path_6210" data-name="Path 6210" d="M303.284,6.7a.418.418,0,0,1-.209.281.339.339,0,0,1-.3,0L300.207,6.1a1.691,1.691,0,0,0-.1.5,1.1,1.1,0,0,0,.065.44.98.98,0,0,0,.288.36,1.441,1.441,0,0,0,.5.267,3.226,3.226,0,0,0,.562.144l.447.043a2.061,2.061,0,0,0,.31,0,.807.807,0,0,1,.209,0,.339.339,0,0,1,.065.043.108.108,0,0,1,0,.072.3.3,0,0,1,0,.13.978.978,0,0,1-.058.2.267.267,0,0,1-.065.173l-.058.122a.317.317,0,0,1-.058.072l-.072.058a1.132,1.132,0,0,1-.2,0,2.537,2.537,0,0,1-.389,0,1.384,1.384,0,0,1-.519-.072,3.6,3.6,0,0,1-.6-.166,3.264,3.264,0,0,1-.937-.483,1.881,1.881,0,0,1-.555-.67,2.011,2.011,0,0,1-.18-.872,3.53,3.53,0,0,1,.223-1.074,3.43,3.43,0,0,1,.5-.958,2.269,2.269,0,0,1,.684-.612,2.039,2.039,0,0,1,.857-.2,2.442,2.442,0,0,1,.958.151,2.565,2.565,0,0,1,.85.468,1.794,1.794,0,0,1,.461.641,1.844,1.844,0,0,1,.13.778,2.926,2.926,0,0,1-.173.857Zm-1.03-.721a1.276,1.276,0,0,0,.065-.85.807.807,0,0,0-.548-.519.886.886,0,0,0-.418-.058.929.929,0,0,0-.36.13,1.067,1.067,0,0,0-.288.281,1.745,1.745,0,0,0-.216.4Z" transform="translate(-83.53 -1.012)" fill="#1d2a4c"/>
    <path id="Path_6211" data-name="Path 6211" d="M314.641,14.588a.129.129,0,0,1-.065.058.223.223,0,0,1-.122,0,.721.721,0,0,1-.187-.065L314,14.437l-.252-.166a.808.808,0,0,1-.137-.137.2.2,0,0,1-.058-.108.5.5,0,0,1,0-.094l2.716-4.46h0L311.947,13a.245.245,0,0,1-.115.058.324.324,0,0,1-.144,0,1.075,1.075,0,0,1-.187-.072l-.252-.151c-.094-.058-.18-.108-.245-.159a1.376,1.376,0,0,1-.144-.13.725.725,0,0,1-.065-.122.34.34,0,0,1,0-.115l1.153-5.425h0l-2.7,4.5a.273.273,0,0,1-.065.065h-.13l-.18-.065-.267-.144a2.569,2.569,0,0,1-.252-.166.671.671,0,0,1-.144-.137.151.151,0,0,1-.05-.1.137.137,0,0,1,0-.094L311.1,5.812a.569.569,0,0,1,.324-.267.49.49,0,0,1,.375.072l.72.44a2.014,2.014,0,0,1,.317.238.957.957,0,0,1,.18.252.808.808,0,0,1,.05.3,1.24,1.24,0,0,1-.065.367l-.771,4.02h0L315.448,8.7a1.606,1.606,0,0,1,.3-.231.864.864,0,0,1,.274-.108.72.72,0,0,1,.274,0,1.2,1.2,0,0,1,.3.137l.764.454a.627.627,0,0,1,.18.151.324.324,0,0,1,.079.166.44.44,0,0,1,0,.195.719.719,0,0,1-.086.209Z" transform="translate(-86.126 -1.549)" fill="#1d2a4c"/>
    <path id="Path_6212" data-name="Path 6212" d="M321.361,20.46a.166.166,0,0,1-.115.043.252.252,0,0,1-.151-.058,1.117,1.117,0,0,1-.252-.187,1.642,1.642,0,0,1-.245-.223.469.469,0,0,1-.079-.137.159.159,0,0,1,.043-.108l.223-.274a1.887,1.887,0,0,1-.778-.058,1.845,1.845,0,0,1-.721-.367,3.033,3.033,0,0,1-.439-.49,1.491,1.491,0,0,1-.223-.548,1.254,1.254,0,0,1,.036-.562,1.441,1.441,0,0,1,.31-.555,1.4,1.4,0,0,1,.548-.418,1.254,1.254,0,0,1,.656-.072,2.161,2.161,0,0,1,.72.274,5.376,5.376,0,0,1,.865.6l.331.281.173-.209a1.3,1.3,0,0,0,.231-.274.483.483,0,0,0,.058-.3.5.5,0,0,0-.1-.281,1.269,1.269,0,0,0-.274-.3,2.162,2.162,0,0,0-.476-.31,4.319,4.319,0,0,0-.432-.166l-.346-.086a.382.382,0,0,1-.2-.079.137.137,0,0,1-.05-.086.246.246,0,0,1,0-.122.722.722,0,0,1,.072-.151,1.081,1.081,0,0,1,.122-.166.966.966,0,0,1,.173-.173.418.418,0,0,1,.18-.065.814.814,0,0,1,.288.043,2.465,2.465,0,0,1,.418.13,3.6,3.6,0,0,1,.468.238,3.516,3.516,0,0,1,.476.331,3.668,3.668,0,0,1,.62.656,1.5,1.5,0,0,1,.267.634,1.174,1.174,0,0,1-.079.641,2.378,2.378,0,0,1-.425.677Zm.267-2.262-.367-.3a3.457,3.457,0,0,0-.425-.3,1.182,1.182,0,0,0-.36-.122.555.555,0,0,0-.288.043.569.569,0,0,0-.231.187.512.512,0,0,0-.144.447.677.677,0,0,0,.267.439,1.067,1.067,0,0,0,.461.209,2.118,2.118,0,0,0,.6,0Z" transform="translate(-89.049 -4.149)" fill="#1d2a4c"/>
    <path id="Path_6213" data-name="Path 6213" d="M326.815,25.881a.165.165,0,0,1-.086.043.173.173,0,0,1-.1,0l-.144-.094-.173-.18a1.921,1.921,0,0,1-.18-.2.506.506,0,0,1-.072-.137.158.158,0,0,1,0-.108.122.122,0,0,1,.043-.079l.36-.346a3.019,3.019,0,0,1-.915-.13,1.664,1.664,0,0,1-.721-.468,1.736,1.736,0,0,1-.454-.764,1.671,1.671,0,0,1,0-.778,2.219,2.219,0,0,1,.346-.771,4.324,4.324,0,0,1,.612-.721,4.129,4.129,0,0,1,.865-.634,2.3,2.3,0,0,1,.843-.288,1.621,1.621,0,0,1,.785.094,1.765,1.765,0,0,1,.721.49,1.484,1.484,0,0,1,.36.6,2.348,2.348,0,0,1,.094.721l1.744-1.65a.231.231,0,0,1,.2-.043,1.045,1.045,0,0,1,.166.108l.223.216c.079.086.144.166.195.231a.722.722,0,0,1,.1.166.258.258,0,0,1,0,.122.187.187,0,0,1-.05.079Zm1.3-2.947a3.261,3.261,0,0,0,0-.721.887.887,0,0,0-.231-.5.721.721,0,0,0-.375-.223.879.879,0,0,0-.432,0,1.512,1.512,0,0,0-.439.2,2.458,2.458,0,0,0-.411.31,3.8,3.8,0,0,0-.367.4,2.047,2.047,0,0,0-.245.432.972.972,0,0,0-.05.425.72.72,0,0,0,.209.4.812.812,0,0,0,.195.159,1.282,1.282,0,0,0,.267.094,1.492,1.492,0,0,0,.339.043h.447Z" transform="translate(-90.648 -5.651)" fill="#1d2a4c"/>
    <path id="Path_6214" data-name="Path 6214" d="M333.338,30.432a.526.526,0,0,1-.331.122.382.382,0,0,1-.252-.166l-1.614-2.162a1.44,1.44,0,0,0-.375.353.98.98,0,0,0-.209.411.893.893,0,0,0,0,.454,2.067,2.067,0,0,0,.259.5c.144.173.267.317.389.44a2.583,2.583,0,0,0,.346.281,2.5,2.5,0,0,0,.267.18.721.721,0,0,1,.151.13.091.091,0,0,0,.036.072.137.137,0,0,1,0,.072.568.568,0,0,1-.094.1c-.043.043-.1.079-.151.13l-.159.108-.122.065h-.173a.721.721,0,0,1-.18-.086c-.094-.058-.195-.137-.317-.231a4.178,4.178,0,0,1-.389-.36,3.322,3.322,0,0,1-.4-.468,3.364,3.364,0,0,1-.5-.922,1.924,1.924,0,0,1-.079-.872,1.952,1.952,0,0,1,.353-.821,3.6,3.6,0,0,1,.771-.735,3.733,3.733,0,0,1,.951-.512,2.306,2.306,0,0,1,.915-.115,1.88,1.88,0,0,1,.836.274,2.443,2.443,0,0,1,.72.663,2.521,2.521,0,0,1,.44.865,1.744,1.744,0,0,1,0,.793,1.786,1.786,0,0,1-.331.721,2.968,2.968,0,0,1-.62.62Zm-.432-1.2a1.225,1.225,0,0,0,.533-.663.793.793,0,0,0-.173-.721.915.915,0,0,0-.72-.382,1.318,1.318,0,0,0-.4.072,2.575,2.575,0,0,0-.4.2Z" transform="translate(-92.07 -7.378)" fill="#1d2a4c"/>
    <path id="Path_6215" data-name="Path 6215" d="M336.781,40.122l-.216.1a.591.591,0,0,1-.159,0,.231.231,0,0,1-.108,0,.115.115,0,0,1-.065-.065l-1.484-2.882a.374.374,0,0,1-.043-.288.4.4,0,0,1,.223-.245l5.029-2.558a.36.36,0,0,1,.54.159l1.477,2.882a.1.1,0,0,1,0,.079.238.238,0,0,1-.05.094.934.934,0,0,1-.123.108,1.946,1.946,0,0,1-.223.122,1.825,1.825,0,0,1-.209.1.533.533,0,0,1-.159.036.259.259,0,0,1-.108,0,.115.115,0,0,1-.058-.058l-1.088-2.075-1.391.721.893,1.736a.166.166,0,0,1,0,.086.4.4,0,0,1-.05.094.56.56,0,0,1-.115.108l-.216.115a1.594,1.594,0,0,1-.209.094.627.627,0,0,1-.151.043.187.187,0,0,1-.1,0,.1.1,0,0,1-.065-.058l-.9-1.744-1.578.807,1.066,2.068a.13.13,0,0,1,0,.086.383.383,0,0,1-.043.1l-.137.1a1.241,1.241,0,0,1-.18.13Z" transform="translate(-93.545 -9.538)" fill="#1d2a4c"/>
    <path id="Path_6216" data-name="Path 6216" d="M339.038,46.728a.13.13,0,0,1-.115,0,.317.317,0,0,1-.115-.122l-.13-.3a1.811,1.811,0,0,1-.1-.31.287.287,0,0,1,0-.159.158.158,0,0,1,.086-.079l.331-.13a1.916,1.916,0,0,1-.663-.418,1.888,1.888,0,0,1-.432-.67,2.159,2.159,0,0,1-.151-.641,1.44,1.44,0,0,1,.072-.584,1.281,1.281,0,0,1,.3-.476,1.491,1.491,0,0,1,.54-.331,1.441,1.441,0,0,1,.685-.108,1.239,1.239,0,0,1,.605.252,2.357,2.357,0,0,1,.533.605,5.76,5.76,0,0,1,.468.944l.151.4.252-.1a1.694,1.694,0,0,0,.324-.166.572.572,0,0,0,.245-.526,1.689,1.689,0,0,0-.1-.4,2.032,2.032,0,0,0-.274-.5,2.559,2.559,0,0,0-.3-.353c-.094-.094-.18-.18-.252-.238a.476.476,0,0,1-.144-.173.123.123,0,0,1,0-.1.173.173,0,0,1,.065-.1,1.01,1.01,0,0,1,.13-.094,1.514,1.514,0,0,1,.187-.094,1.129,1.129,0,0,1,.245-.065.4.4,0,0,1,.18,0,1.116,1.116,0,0,1,.245.173c.094.086.187.195.3.317a4.23,4.23,0,0,1,.3.44,3.366,3.366,0,0,1,.483,1.441,1.441,1.441,0,0,1-.072.684,1.167,1.167,0,0,1-.382.526,2.6,2.6,0,0,1-.721.389Zm1.326-1.844-.173-.447a3.148,3.148,0,0,0-.231-.468.944.944,0,0,0-.252-.274.548.548,0,0,0-.267-.108.641.641,0,0,0-.3.05.54.54,0,0,0-.339.324.721.721,0,0,0,0,.512.9.9,0,0,0,.3.411,2.1,2.1,0,0,0,.526.274Z" transform="translate(-94.398 -11.655)" fill="#1d2a4c"/>
    <path id="Path_6217" data-name="Path 6217" d="M342.112,52.6a1.441,1.441,0,0,1-.677.05,1.527,1.527,0,0,1-.569-.267,1.629,1.629,0,0,1-.447-.512,3.085,3.085,0,0,1-.3-.721,2.839,2.839,0,0,1-.094-.468V49.94a.676.676,0,0,1,.065-.195.339.339,0,0,1,.137-.13,1.442,1.442,0,0,1,.31-.115l.216-.05a.583.583,0,0,1,.151,0h.079a.137.137,0,0,1,.036.065.324.324,0,0,1,0,.173.686.686,0,0,1-.05.3,2.163,2.163,0,0,0-.036.4,1.442,1.442,0,0,0,.058.483,1,1,0,0,0,.122.281.874.874,0,0,0,.151.2.433.433,0,0,0,.2.094.425.425,0,0,0,.231,0,.331.331,0,0,0,.223-.151A.864.864,0,0,0,342.04,51a1.958,1.958,0,0,0,.05-.375,1.4,1.4,0,0,1,.043-.418,2.966,2.966,0,0,1,.086-.44,1.319,1.319,0,0,1,.468-.721,1.592,1.592,0,0,1,.5-.231,1.3,1.3,0,0,1,.6,0,1.131,1.131,0,0,1,.526.223,1.78,1.78,0,0,1,.447.476,3.133,3.133,0,0,1,.3.721,2.661,2.661,0,0,1,.079.4,2.16,2.16,0,0,1,0,.367,1.655,1.655,0,0,1,0,.281,1.181,1.181,0,0,1-.05.18.254.254,0,0,1-.05.079.26.26,0,0,1-.086.058l-.115.05-.18.058-.216.05a.469.469,0,0,1-.137,0,.13.13,0,0,1-.079,0V51.7a.729.729,0,0,1,0-.151,1.5,1.5,0,0,0,.05-.259v-.346a1.54,1.54,0,0,0-.058-.425,1,1,0,0,0-.122-.281.526.526,0,0,0-.137-.166.476.476,0,0,0-.187-.079.562.562,0,0,0-.187,0,.389.389,0,0,0-.223.159.863.863,0,0,0-.115.288,2.159,2.159,0,0,0-.043.382l-.043.425a3.121,3.121,0,0,1-.079.44,1.261,1.261,0,0,1-.166.411,1.349,1.349,0,0,1-.3.346A1.442,1.442,0,0,1,342.112,52.6Z" transform="translate(-95.037 -13.636)" fill="#1d2a4c"/>
    <path id="Path_6218" data-name="Path 6218" d="M341.063,57.649l-1.636-.267a.331.331,0,0,1-.223-.209,2.951,2.951,0,0,1-.151-.569,2.1,2.1,0,0,1-.036-.324.439.439,0,0,1,0-.18.13.13,0,0,1,.094-.079.238.238,0,0,1,.144,0l1.571.339a.267.267,0,0,1,.065-.137.54.54,0,0,1,.122-.1l3.754-2.169a.851.851,0,0,1,.245-.115.18.18,0,0,1,.159.036.346.346,0,0,1,.108.187,2.236,2.236,0,0,1,.079.367,1.468,1.468,0,0,0,.058.331.925.925,0,0,1,0,.2.361.361,0,0,1-.079.122.562.562,0,0,1-.166.094l-2.745,1.549h0l3.156.425a.339.339,0,0,1,.18.05.245.245,0,0,1,.086.144,1.814,1.814,0,0,1,.086.375,1.858,1.858,0,0,1,.043.353.578.578,0,0,1,0,.223.2.2,0,0,1-.137.094.721.721,0,0,1-.216,0Z" transform="translate(-94.751 -15.047)" fill="#1d2a4c"/>
  </g>
</svg>
