<svg xmlns="http://www.w3.org/2000/svg" width="37.505" height="37.506" viewBox="0 0 37.505 37.506">
  <g id="Group_254" data-name="Group 254" transform="translate(0 0)">
    <path id="Path_332" data-name="Path 332" d="M3750.572-2262.03h0a18.753,18.753,0,0,1-18.753-18.753h0a18.753,18.753,0,0,1,18.753-18.753h0a18.752,18.752,0,0,1,18.752,18.753h0A18.753,18.753,0,0,1,3750.572-2262.03Z" transform="translate(-3731.819 2299.536)" fill="#63bedd"/>
    <path id="Path_333" data-name="Path 333" d="M3791.149-2245.62h4.564v-11.432h3.185l.34-3.827h-3.525v-2.18c0-.9.181-1.259,1.054-1.259h2.471v-3.972h-3.161c-3.4,0-4.928,1.5-4.928,4.359v3.052h-2.375V-2257h2.375Z" transform="translate(-3775.253 2275.708)" fill="#fff"/>
  </g>
</svg>
