<svg id="Layer_1" data-name="Layer 1" xmlns="http://www.w3.org/2000/svg" xmlns:xlink="http://www.w3.org/1999/xlink" viewBox="0 0 1080 867"><defs><style>.cls-1,.cls-13,.cls-15,.cls-16,.cls-24,.cls-4,.cls-6{fill:none;}.cls-2,.cls-20,.cls-21,.cls-34{fill:#fff;}.cls-23,.cls-3{fill:#84cde3;}.cls-3{opacity:0.5;}.cls-21,.cls-4{stroke:#fff;}.cls-13,.cls-15,.cls-16,.cls-4{stroke-linecap:round;}.cls-13,.cls-15,.cls-16,.cls-21,.cls-24,.cls-4,.cls-6{stroke-miterlimit:10;}.cls-4{stroke-width:5.18px;}.cls-5{clip-path:url(#clip-path);}.cls-6{stroke:#e96423;stroke-width:2px;}.cls-7{fill:#62bddd;}.cls-8{fill:#a2d6e5;}.cls-9{fill:#4a5;}.cls-10{fill:#78bd81;}.cls-11{fill:#d96022;}.cls-12{fill:#e96423;}.cls-13,.cls-15,.cls-16{stroke:#f29569;}.cls-13{stroke-width:2.55px;}.cls-14{fill:#f29569;}.cls-15{stroke-width:1.55px;}.cls-16{stroke-width:2.1px;}.cls-17{fill:#192b4b;}.cls-18{fill:#323243;}.cls-19{clip-path:url(#clip-path-2);}.cls-20{opacity:0.61;}.cls-21{stroke-width:1.93px;stroke-dasharray:4.84;}.cls-22{fill:#5fc3e1;}.cls-24{stroke:#a2d6e5;stroke-width:0.97px;}.cls-25{fill:#4a556f;}.cls-26{opacity:0.36;}.cls-27{fill:#171f38;}.cls-28{fill:#be1e2d;}.cls-29{fill:url(#linear-gradient);}.cls-30{fill:url(#linear-gradient-2);}.cls-31{fill:#272c6f;}.cls-32{fill:#1d8ece;}.cls-33{fill:#00b2cb;}.cls-34{fill-rule:evenodd;}.cls-35{fill:#00a0df;}.cls-36{fill:#00bed6;}</style><clipPath id="clip-path"><rect class="cls-1" x="1152" y="952.56" width="1920" height="1080"/></clipPath><clipPath id="clip-path-2"><rect class="cls-2" x="191.92" y="310.88" width="533.8" height="243.99" rx="26.5" transform="translate(20.84 886.84) rotate(-89.36)"/></clipPath><linearGradient id="linear-gradient" x1="447.66" y1="372.67" x2="471.03" y2="372.67" gradientUnits="userSpaceOnUse"><stop offset="0" stop-color="#603813"/><stop offset="1" stop-color="#3c2415"/></linearGradient><linearGradient id="linear-gradient-2" x1="457.78" y1="373.12" x2="461.87" y2="373.12" gradientUnits="userSpaceOnUse"><stop offset="0" stop-color="#af7c3c"/><stop offset="0.08" stop-color="#c1943a"/><stop offset="0.19" stop-color="#d3ac39"/><stop offset="0.3" stop-color="#e1bd38"/><stop offset="0.42" stop-color="#e8c837"/><stop offset="0.57" stop-color="#ebcb37"/><stop offset="1" stop-color="#745129"/></linearGradient></defs><path class="cls-3" d="M962.69,565q-24.32,70.86-48.64,141.74H103.18c-21.4-94.76-28.86-192.6-23.41-289.44C87,288.57,112.45,139.73,233.71,89.42a288.14,288.14,0,0,1,191-9.78C531.44,111.56,616.4,204.73,727.64,213.13c55.73,4.21,113.64-13.74,166.71,3.4,64.21,20.73,102.21,89,106.94,155S984.22,502.26,962.69,565Z"/><path class="cls-3" d="M859.29,600.56q-18,52.31-35.91,104.62H224.81a773.73,773.73,0,0,1-17.28-213.65c5.35-95,24.12-204.87,113.63-242a212.75,212.75,0,0,1,141-7.22c78.77,23.56,141.49,92.34,223.6,98.54,41.14,3.11,83.89-10.14,123.07,2.51,47.4,15.3,75.45,65.72,78.94,114.42S875.18,554.27,859.29,600.56Z"/><path class="cls-4" d="M839.83,234c47,1.77,92.6,26.81,119.32,65.55"/><path class="cls-2" d="M964.51,309.57l3.84,12.12A6.14,6.14,0,0,0,967,310.14"/><path class="cls-4" d="M111.39,442.65a473.17,473.17,0,0,0,22.86,259.92"/><path class="cls-2" d="M110.2,412.09a9.44,9.44,0,0,1,1.9-3.44,3.83,3.83,0,0,1,3.58-1.19c2.21.6,2.87,3.4,2.8,5.68-.11,3.54-2.54,15.67-7.67,15.49C105.32,428.45,109.1,415.19,110.2,412.09Z"/><path class="cls-2" d="M828.51,652.81c9.66-26.08,19.42-52,27.92-78.52.44-1.34-1.57-1.83-2.07-.57-10.3,25.85-19.32,52.08-28.48,78.37-.58,1.66,2,2.34,2.63.72Z"/><path class="cls-2" d="M859.3,566.38c2.83,0,2.84-4.41,0-4.41s-2.84,4.41,0,4.41Z"/><g class="cls-5"><path class="cls-6" d="M1686.21,711.23a716.4,716.4,0,0,1-62.15,206.29c-115.87,243.92-364.5,412.57-652.52,412.57A721.54,721.54,0,0,1,319,917.52H43.27V711.23h422.9A513.13,513.13,0,0,0,559,917.52,515.62,515.62,0,0,0,971.54,1123.8c168.73,0,318.52-81,412.6-206.28a513,513,0,0,0,92.79-206.29Z"/></g><rect class="cls-7" x="49.97" y="307.95" width="361.56" height="170.85" transform="translate(450.79 -6.09) rotate(59.24)"/><path class="cls-8" d="M364.36,507.16,267,565.08a14.13,14.13,0,0,0-19.37-4.92L92.23,299a14.14,14.14,0,0,0,4.91-19.37l97.32-57.92a14.13,14.13,0,0,0,19.37,4.92l155.45,261.2A14.13,14.13,0,0,0,364.36,507.16Z"/><polygon class="cls-9" points="329.65 156.83 421.43 480.33 406.55 510.84 368.94 521.51 314.11 537.07 263.97 551.3 173.91 233.89 169.77 219.29 165.28 203.46 329.65 156.83"/><path class="cls-10" d="M396.62,498.41,287.67,529.32a14.13,14.13,0,0,0-17.45-9.74l-83-292.42A14.13,14.13,0,0,0,197,209.71L306,178.8a14.13,14.13,0,0,0,17.45,9.74l83,292.42A14.13,14.13,0,0,0,396.62,498.41Z"/><path class="cls-11" d="M757,517.42H655.3v53.67q6.6-8.16,18.83-13.34a66.19,66.19,0,0,1,26-5.18q25.1,0,41.11,11a63.66,63.66,0,0,1,23.22,28.09,93.09,93.09,0,0,1,7.22,36.56q0,36.09-20.56,58t-58.52,22q-35.77,0-57.12-17.89t-24.16-46.76h42.68a33.72,33.72,0,0,0,12.71,20.09q9.88,7.53,25.26,7.53,18.51,0,27.93-11.61t9.41-30.75q0-19.46-9.57-29.66T691.71,589q-13.19,0-22,6.59a35.94,35.94,0,0,0-12.55,17.58H615.14V478.83H757Z"/><path class="cls-11" d="M750.65,674.46A75.93,75.93,0,0,0,763.2,608.7"/><path class="cls-11" d="M746.78,678.48l-5.09,3.64a3,3,0,0,0,5.19-2.4"/><path class="cls-11" d="M640.4,686.29a39.57,39.57,0,0,0,33,12.36"/><polyline class="cls-11" points="699.45 483.89 619.78 483.89 619.82 503.26"/><path class="cls-11" d="M619.65,512.31c.11.31.31.68.64.67s.56-.55.58-1l.11-2c0-.79-.37-2.87-1.52-1.75C618.69,509,619.36,511.44,619.65,512.31Z"/><path class="cls-12" d="M764.91,517.42H663.24v53.67q6.59-8.16,18.83-13.34a66.18,66.18,0,0,1,26-5.18q25.11,0,41.11,11a63.6,63.6,0,0,1,23.22,28.09,93.09,93.09,0,0,1,7.22,36.56q0,36.09-20.55,58t-58.53,22q-35.77,0-57.11-17.89t-24.16-46.76H662a33.77,33.77,0,0,0,12.71,20.09q9.88,7.53,25.27,7.53,18.51,0,27.92-11.61t9.42-30.75q0-19.46-9.57-29.66T699.64,589q-13.17,0-22,6.59a36,36,0,0,0-12.56,17.58h-42V478.83H764.91Z"/><path class="cls-13" d="M758.59,674.46a75.93,75.93,0,0,0,12.54-65.76"/><path class="cls-14" d="M754.71,678.48l-5.08,3.64a3,3,0,0,0,5.19-2.4"/><path class="cls-13" d="M648.34,686.29a39.57,39.57,0,0,0,33,12.36"/><polyline class="cls-13" points="707.38 483.89 627.71 483.89 627.76 503.26"/><path class="cls-13" d="M627.59,512.31c.1.31.31.68.64.67s.56-.55.58-1l.1-2c.05-.79-.36-2.87-1.51-1.75C626.62,509,627.3,511.44,627.59,512.31Z"/><path class="cls-12" d="M790.45,503.22Q804,490.14,825.3,490.14t34.86,13.08q13.55,13.09,13.55,36.23,0,23.44-13.55,36.53T825.3,589.07q-21.3,0-34.85-13.09T776.9,539.45Q776.9,516.32,790.45,503.22Zm17.81,36.23q0,24.06,16.74,24,8.22,0,12.79-5.94t4.56-18.11q0-23.75-17.35-23.74Q808.26,515.71,808.26,539.45Zm164.08-45.66L852.7,706.88H811.3L930.63,493.79ZM924.09,624.54q13.54-12.94,34.85-12.94t34.56,12.94q13.23,12.93,13.24,36.37T993.5,697.44q-13.25,13.09-34.56,13.09-21.62,0-35-13.09t-13.4-36.53Q910.54,637.48,924.09,624.54Zm17.2,36.37q0,24.06,17.35,24.05,17,0,17.05-24.05,0-23.74-17.05-23.74Q941.29,637.17,941.29,660.91Z"/><path class="cls-15" d="M956.13,705.45a46.12,46.12,0,0,0,36.12-18.61"/><path class="cls-14" d="M952.76,705.11,949.11,704a1.84,1.84,0,0,0,3.1,1.58"/><path class="cls-16" d="M853.61,506a62.71,62.71,0,0,1,10.3,54.3"/><path class="cls-14" d="M850.41,502.67l-4.19-3a2.49,2.49,0,0,1,4.28,2"/><path class="cls-17" d="M614.34,303.22h29.48q-1.27-20.46-23.58-25.43l3.84-13.74q36,8.4,36,44.09v8.1H614.34Z"/><path class="cls-17" d="M672.33,242.21h16.61v74H672.33Z"/><path class="cls-17" d="M701.65,303.22h29.48q-1.27-20.46-23.58-25.43l3.84-13.74q36,8.4,36.05,44.09v8.1H701.65Z"/><path class="cls-17" d="M779.27,316.24v.41q0,26-27,26a42.85,42.85,0,0,1-7.44-.61L746,329a28.45,28.45,0,0,0,7.13.82q4.82,0,7.07-2.56,2.46-2.93,2.46-9.95V266.87h16.61v36.35H799V266.87h16.72v36.35h9.43v13Zm11.08-58.6A7.9,7.9,0,0,1,788,251.9a8,8,0,0,1,2.31-5.75,7.86,7.86,0,0,1,11.23,0,8.46,8.46,0,0,1,0,11.49,7.75,7.75,0,0,1-11.23,0Zm18.66,0a8.46,8.46,0,0,1,0-11.49,7.86,7.86,0,0,1,11.23,0,8.14,8.14,0,0,1,2.26,5.75,8,8,0,0,1-2.26,5.74,7.75,7.75,0,0,1-11.23,0Z"/><path class="cls-17" d="M823.78,303.22h5.69c3.21,0,5.41-.81,6.61-2.41s1.85-4.94,1.85-9.8V273.17h16.71v19.54q0,6.51,1.33,9c.89,1.57,2.52,2.36,4.87,2.36q6.93,0,6.93-11.23V269h15.84v25.94q0,5,2,6.67t8.46,1.64h2.31a107,107,0,0,0,.66-11.33,142,142,0,0,0-2.77-27.54l16.2-2.2a129.34,129.34,0,0,1,3.13,28.76,230,230,0,0,1-1.38,25.33h-21q-14.06,0-18-6.51-3.79,7.33-15.69,7.33-11.58,0-14.35-7.64-3.18,6.82-14,6.82h-5.43Z"/><path class="cls-17" d="M928.21,242.21h16.61v74H928.21Z"/><path class="cls-17" d="M661.46,419.72q-39.8,0-39.79-31.47a53.77,53.77,0,0,1,2.41-15.8l17.74-2.82a41.68,41.68,0,0,0-3.33,16.92q0,10.67,5.48,15.33,5.7,4.83,19.18,4.82h5.9V370.92a115.84,115.84,0,0,1,22.45-2q13.53,0,19.48,6.3,5.19,5.59,5.18,17.08v14.81H700.22V393.89q0-6.78-2-9.34t-7.69-2.61a30,30,0,0,0-5.54.51v37.27Zm-6.87,21.49a7.86,7.86,0,0,1-11.23,0,8.37,8.37,0,0,1,0-11.44,7.88,7.88,0,0,1,11.23,0,8.4,8.4,0,0,1,0,11.44Zm18.66,0a7.86,7.86,0,0,1-11.23,0,8.4,8.4,0,0,1,0-11.44,7.88,7.88,0,0,1,11.23,0,8.24,8.24,0,0,1,0,11.44Z"/><path class="cls-17" d="M726.83,406.7h29.48q-1.29-20.46-23.59-25.43l3.85-13.74q33.63,8,35.83,39.17h6v13H726.83Z"/><path class="cls-17" d="M776.66,406.7h26v13h-26Z"/><path class="cls-17" d="M801.68,406.7h26v13h-26Z"/><path class="cls-17" d="M826.7,406.7h26v13h-26Z"/><path class="cls-17" d="M851.72,406.7H855a30.49,30.49,0,0,1,5.79.52q-3.43-4.37-3.43-11.85,0-11.73,7.74-19.12t19.74-7.33q12,0,18.51,6.15,6.62,6.26,6.61,18.2,0,9.54-4.77,14a53.17,53.17,0,0,1,7.28-.52H917v13H851.72Zm17.07-45.58a8,8,0,0,1-2.25-5.74,8.13,8.13,0,0,1,2.25-5.74,7.8,7.8,0,0,1,11.18,0,8,8,0,0,1,2.31,5.74,7.88,7.88,0,0,1-2.31,5.74,7.35,7.35,0,0,1-5.59,2.41A7.44,7.44,0,0,1,868.79,361.12Zm21.79,42.4q2.71-3.33,2.72-9.22,0-12.36-9.54-12.36a9.08,9.08,0,0,0-6.82,2.82q-3.08,3.23-3.07,9.13,0,12.81,9.53,12.81A8.89,8.89,0,0,0,890.58,403.52Zm-3.13-42.4a8.45,8.45,0,0,1,0-11.48,7.86,7.86,0,0,1,11.23,0,8,8,0,0,1,2.31,5.74,7.88,7.88,0,0,1-2.31,5.74,7.75,7.75,0,0,1-11.23,0Z"/><path class="cls-17" d="M915.45,406.7H929.6V370.35h16.71v49.37H915.45Zm16.66-45.88a8.14,8.14,0,0,1-2.36-5.9,8.06,8.06,0,0,1,8.15-8.15,8.09,8.09,0,0,1,5.9,2.36,7.8,7.8,0,0,1,2.41,5.79,8.23,8.23,0,0,1-8.31,8.31A7.93,7.93,0,0,1,932.11,360.82Z"/><path class="cls-12" d="M962.76,374.12l8.09,5.85c14.8-20.65,4.62-34.07,1-37.8-.21-.22-.36-.35-.42-.41l-2.57-2.3,2.3-2.57,4.75-5.22,2.88,3c2.24,2.31,20.68,22.86.34,51.32l8.22,5.94-22.56,5.3Z"/><path class="cls-18" d="M592.91,246.36h-.52L593,192a32.62,32.62,0,0,0-32.26-33L363,156.83a32.63,32.63,0,0,0-33,32.25l-.6,54.34h-.52a4.27,4.27,0,0,0-4.31,4.21l-.41,37.59a4.26,4.26,0,0,0,4.21,4.31h.51l-.1,9h-.51a4.26,4.26,0,0,0-4.31,4.21l-.42,37.59a4.26,4.26,0,0,0,4.21,4.3h.52l-3.67,329.15a32.62,32.62,0,0,0,32.26,33l197.72,2.2a32.62,32.62,0,0,0,33-32.25l4-361.17h.52a4.26,4.26,0,0,0,4.31-4.21l.67-60.64A4.25,4.25,0,0,0,592.91,246.36Z"/><rect class="cls-2" x="191.92" y="310.88" width="533.8" height="243.99" rx="26.5" transform="translate(20.84 886.84) rotate(-89.36)"/><g class="cls-19"><polygon class="cls-2" points="736.02 723.92 121.08 716.5 129.57 99.22 744.51 106.65 736.02 723.92"/><path class="cls-20" d="M740.64,393.74l1.71-124.46a73.35,73.35,0,0,0-50.2,44.36,38.9,38.9,0,0,0-62.51-8.45,72.91,72.91,0,0,0-141.11,22,32.06,32.06,0,0,0-7.25-.92A32.63,32.63,0,0,0,454,340.5a51,51,0,0,0-89.4-17.19,57.15,57.15,0,0,0-112.26,3.3A32.52,32.52,0,0,0,203,322.36a40.68,40.68,0,0,0-58.77-28.85,33.06,33.06,0,0,0,.42-4.8,32.71,32.71,0,0,0-17.24-29.3l-.88,64.11-.86,62.79Z"/><path class="cls-2" d="M739.46,479.77l1.36-99a52.11,52.11,0,0,0-56.31,7.87A73.32,73.32,0,0,0,570.09,346c.09-1.17.16-2.34.18-3.52a52.24,52.24,0,1,0-102.09,15.17,52.12,52.12,0,0,0-78.07,14A35.19,35.19,0,0,0,344,369.61a52.11,52.11,0,0,0-95.52,15.17,73.35,73.35,0,0,0-123,12.68l-1,74.87Z"/><path class="cls-2" d="M738.57,544l1.95-141.41a86,86,0,0,0-48.76,66.87,55.64,55.64,0,0,0-87.75-.62,60.31,60.31,0,0,0-54.16-35.37h-.13c.09-1.19.16-2.4.18-3.61a55.8,55.8,0,0,0-111.57-2.54,85.32,85.32,0,0,0-140,16.43,41.69,41.69,0,0,0-54.08-3,55.65,55.65,0,0,0-79.61-23.9,55.89,55.89,0,0,0-38.77-45.86l-2.28,165.58Z"/><path class="cls-2" d="M737.34,634l1.91-138.95a40.6,40.6,0,0,0-47.79,31.56,40.43,40.43,0,0,0-51.56-6.73,61.6,61.6,0,0,0-109.73-23.72,55.2,55.2,0,0,0-108.31,12.57,40.54,40.54,0,0,0-60.18,13.61,61.47,61.47,0,0,0-69.16-18.84,41.3,41.3,0,0,0,1.16-9.1,40.57,40.57,0,0,0-78.11-16.06,61.54,61.54,0,0,0-91.07-10.92L122.32,626.6Z"/><path class="cls-2" d="M736.43,699.57,738.34,561a89.38,89.38,0,0,0-63.49,37.48,55.38,55.38,0,0,0-74.14,22.08A37.7,37.7,0,0,0,561.39,611,55.47,55.47,0,0,0,455,579.75a37.71,37.71,0,0,0-58.62,11.65,55.44,55.44,0,0,0-99.29,27.81A89,89,0,0,0,177,603.27a55.43,55.43,0,0,0-53.71-45l-1.85,133.92Z"/><path class="cls-2" d="M736.1,723.82l2.06-149.89A47.53,47.53,0,0,0,712,615.75a48.55,48.55,0,0,0,.42,7,58.47,58.47,0,0,0-27.66-7.29,59.24,59.24,0,0,0-58.57,47,47.13,47.13,0,0,0-71.6,4.44,82.74,82.74,0,0,0-162.38-8.71A73.87,73.87,0,0,0,262.13,679.9a47.08,47.08,0,0,0-60.42-16.68,73.61,73.61,0,0,0-79.16-54.05l-1.47,107.22Z"/><path class="cls-2" d="M437.11,407.59l10.21,33a3.46,3.46,0,0,0,5.48,1.67L485,416.16s-33.68-13.73-33.69-13S437.11,407.59,437.11,407.59Z"/><path class="cls-2" d="M522.06,345.37c-20.93,8-88.49,35-114.06,45.19a3.92,3.92,0,0,0,.2,7.35l28.91,9.68,10.18,32.92a3.51,3.51,0,0,0,2.68,2.43c1,.2,2.79-26.53,2.79-26.53s30.2,23.19,44.53,34.13a6,6,0,0,0,9.55-3.61c4.62-22.35,16.18-78.24,20.12-97.34A3.68,3.68,0,0,0,522.06,345.37Z"/><path class="cls-2" d="M450,442.94c1,.2,2.79-26.53,2.79-26.53l50.79-46.86a.39.39,0,0,0-.46-.63l-66,38.67,10.18,32.92A3.51,3.51,0,0,0,450,442.94Z"/><path class="cls-21" d="M275.38,505.25c34.43.31,80.48-18.71,90.18-56.19,3.92-15.12.84-31.41-10.93-42.63-14.88-14.17-31.6-1.59-27.8,18,6.25,32.16,44.79,56.38,74.32,57.07,17.07.4,33.2-7.66,39.57-24.45"/><path class="cls-21" d="M324,508.8c31.69,37.33,52.84,104.93,20.75,149.65-13,18-33.55,29.52-56.51,26.87-29-3.34-30.51-33.06-5.67-46.73,40.81-22.45,102.35-2.42,130,29.2,16,18.28,21.86,43.23,9.33,65.47"/></g><path class="cls-2" d="M584.74,196l-4.26,478.47c-.14,15.7-12.81,28.37-28.25,28.23l-192-1.71c-15.44-.14-27.89-13-27.75-28.73l4.26-478.47c0-.46,0-.93.05-1.38v-.13A28.25,28.25,0,0,1,365,165.53l192,1.71a28.26,28.26,0,0,1,27.73,27.21v.13C584.74,195,584.75,195.51,584.74,196Z"/><path class="cls-22" d="M363.74,165.08H558.45a26.15,26.15,0,0,1,26.15,26.15v67a0,0,0,0,1,0,0h-248a0,0,0,0,1,0,0v-66A27.14,27.14,0,0,1,363.74,165.08Z" transform="translate(1.9 -4.1) rotate(0.51)"/><rect class="cls-8" x="371.67" y="323.15" width="175.11" height="134.6" rx="9.05" transform="matrix(1, 0.01, -0.01, 1, 3.5, -4.08)"/><rect class="cls-8" x="560.69" y="322.52" width="22.72" height="134.6" rx="3.57" transform="translate(3.5 -5.08) rotate(0.51)"/><rect class="cls-8" x="335.31" y="322.52" width="22.72" height="134.6" rx="3.57" transform="translate(3.49 -3.07) rotate(0.51)"/><rect class="cls-23" x="347.73" y="629.16" width="221.56" height="21.07" rx="4.11" transform="translate(5.72 -4.06) rotate(0.51)"/><path class="cls-8" d="M372.22,641.19a2.27,2.27,0,1,1,2.28-2.25A2.27,2.27,0,0,1,372.22,641.19Z"/><path class="cls-8" d="M363.28,641.11a2.27,2.27,0,1,1,2.29-2.25A2.25,2.25,0,0,1,363.28,641.11Z"/><path class="cls-8" d="M354.35,641a2.27,2.27,0,1,1,2.29-2.25A2.27,2.27,0,0,1,354.35,641Z"/><rect class="cls-24" x="369.49" y="473.39" width="175.11" height="32.25" rx="4.49" transform="translate(4.38 -4.05) rotate(0.51)"/><path class="cls-25" d="M474.7,336.6l-1.28,7a.86.86,0,0,0,0,.42c.36,1.3,2.19,8.42.6,13.46-1.46,4.63-3.38,11.6-4,13.81a1,1,0,0,1-.92.71H449.31a1,1,0,0,1-.92-.71c-.43-1.56-1.5-5.47-2.61-9.27-.47-1.59-.94-3.17-1.37-4.54-1.59-5,.24-12.16.6-13.46a.86.86,0,0,0,0-.42l-1.28-7s0-.05,0-.07l-.76-2.88a1,1,0,0,1,.92-1.2h1.25a1,1,0,0,1,.89.62l1.21,3.16a6,6,0,0,1,.22.68c1.76,6,10.86,5.52,11.7,5.47h.13c.84.05,9.8.51,11.66-5.33l.56-1.62.91-2.36a1,1,0,0,1,.89-.62h1.24a1,1,0,0,1,.93,1.2l-.76,2.88A.19.19,0,0,0,474.7,336.6Z"/><g class="cls-26"><path class="cls-2" d="M459.22,345.21c-.21,0-.29-.2-.46-.62-.11-.27-.44-1.08-.65-1.08a19.39,19.39,0,0,1-6.13-.94c-3-1-4.83-2.84-5.57-5.35a6,6,0,0,0-.2-.6L445,333.4a.25.25,0,0,1,.14-.31.24.24,0,0,1,.31.14l1.23,3.22c.08.21.15.43.21.64.69,2.35,2.46,4,5.27,5a18.53,18.53,0,0,0,6,.92c.53,0,.84.77,1.09,1.38l0,.06,0-.06c.25-.61.56-1.38,1.09-1.38,2.81,0,9.53-.56,11.2-5.78l.56-1.61.92-2.41a.24.24,0,1,1,.44.17l-.91,2.41L472,337.4c-1.76,5.51-8.73,6.11-11.65,6.11-.21,0-.54.81-.65,1.08-.17.42-.26.62-.47.62Z"/></g><path class="cls-25" d="M499.87,437.69s-2.33,2.39-9.16,5l-5.92,1.9c-2.05.57-4.36,1.12-7,1.62-1.87.36-3.89.71-6.06,1-3.72.53-7.89,1-12.56,1.27-4.65-.25-8.81-.64-12.51-1.13-2.31-.31-4.45-.66-6.41-1-3.08-.59-5.75-1.25-8.07-1.93a53.78,53.78,0,0,1-5.94-2.09c-5.79-2.41-7.71-4.59-7.71-4.59.21-27.27,22.61-56.63,28.56-63.95l.06-.08c.72-.88,1.19-1.43,1.33-1.6l.05-.05h21.29l0,.05c.15.17.62.72,1.34,1.6l.06.08C477.26,381.06,499.66,410.42,499.87,437.69Z"/><path class="cls-27" d="M469.87,372H448.58l-1.44,1.73s10.15,2.74,12.08,5.4c1.94-2.66,12.09-5.4,12.09-5.4Z"/><path class="cls-27" d="M426.29,442.28c.77-16.86,12.71-39.83,17-47.51-5.29,11-10.33,39-11,49.6A53.78,53.78,0,0,1,426.29,442.28Z"/><path class="cls-28" d="M444.74,392.15c-.05.09-.6,1-1.48,2.62A19.11,19.11,0,0,1,444.74,392.15Z"/><path class="cls-28" d="M445.1,394.91c0,.07-.3,1.12-.73,2.91A18.38,18.38,0,0,1,445.1,394.91Z"/><path class="cls-27" d="M446.71,447.33c-2.31-.31-4.45-.66-6.41-1-3-16.46,2.1-40.27,4.07-48.48C442.29,409.4,444.62,436.09,446.71,447.33Z"/><path class="cls-28" d="M474.61,392.59a17.72,17.72,0,0,1,1.35,2.63C475.16,393.61,474.66,392.67,474.61,392.59Z"/><path class="cls-27" d="M490.71,442.65l-5.92,1.9c-.22-10.29-4.05-38.23-8.83-49.33C479.83,402.94,490.66,426,490.71,442.65Z"/><path class="cls-28" d="M468.79,400.34a18.42,18.42,0,0,1,.95,2.79C469.18,401.42,468.82,400.42,468.79,400.34Z"/><path class="cls-27" d="M477.84,446.17c-1.87.36-3.89.71-6.06,1,.77-12.67.57-34.22-2-44.06C472.12,410.37,478.11,430.29,477.84,446.17Z"/><path class="cls-29" d="M470.29,373.26a58.39,58.39,0,0,1-21.89,0,.87.87,0,0,1-.72-1c0-.16.07-.33.1-.5a.89.89,0,0,1,1-.68,56,56,0,0,0,21.05,0,.89.89,0,0,1,1,.68l.1.5A.87.87,0,0,1,470.29,373.26Z"/><path class="cls-30" d="M460.44,374.9h-1.23a1.44,1.44,0,0,1-1.43-1.44v-.69a1.43,1.43,0,0,1,1.43-1.43h1.23a1.43,1.43,0,0,1,1.43,1.43v.69A1.44,1.44,0,0,1,460.44,374.9Zm-1.23-3a.87.87,0,0,0-.86.86v.69a.86.86,0,0,0,.86.86h1.23a.86.86,0,0,0,.86-.86v-.69a.87.87,0,0,0-.86-.86Z"/><rect class="cls-23" x="347.4" y="590.13" width="117.91" height="28.3" rx="3.46"/><g id="Group_18725" data-name="Group 18725"><path id="Path_35" data-name="Path 35" class="cls-31" d="M432.62,603.42c.08-.39.15-.81.23-1.26a.51.51,0,0,0-.05-.4.52.52,0,0,0-.39-.17c-.25,0-.92-.11-.92-.11a9.89,9.89,0,0,0-4.69.7.67.67,0,0,0-.45.55c-.1.6-1.44,8.14-1.63,9.24a.51.51,0,0,0,0,.4.44.44,0,0,0,.34.13H427a.4.4,0,0,0,.42-.35l1.44-8.12a6.31,6.31,0,0,1,3.17-.18.48.48,0,0,0,.37,0,.49.49,0,0,0,.24-.4"/><path id="Path_36" data-name="Path 36" class="cls-31" d="M424,606.28l-.25,1.34c-.61,3.26-2.28,5-5.67,5a3.68,3.68,0,0,1-4-3.34,3.62,3.62,0,0,1,0-.57,4.79,4.79,0,0,1,.1-1.07l.24-1.34c.66-3.46,2.49-5,5.67-5,2.59,0,4,1.53,4,3.87a8.34,8.34,0,0,1-.11,1.11m-4.39-2.47c-1.11,0-2.15.75-2.46,2.44l-.25,1.34a5.62,5.62,0,0,0-.09.92,1.6,1.6,0,0,0,1.62,1.6h.13c1.24,0,2.16-.92,2.44-2.47l.25-1.34a5.16,5.16,0,0,0,.1-.88,1.63,1.63,0,0,0-1.63-1.61h-.11"/><path id="Path_37" data-name="Path 37" class="cls-31" d="M403.56,601.36a9,9,0,0,0-2.64.09,7.61,7.61,0,0,0-2.32.8c-.22.12-.35.27-.22.56s.35.81.59,1.29c.13.27.33.24.52.17l.24-.1.09,0a5.65,5.65,0,0,1,1.66-.48,4.8,4.8,0,0,1,1.69,0,1,1,0,0,1,.84.82,3.1,3.1,0,0,1-.11,1.42l-.22,0-.63-.07a9.47,9.47,0,0,0-3.48.17c-2,.53-3.13,2-2.92,3.84a2.63,2.63,0,0,0,.77,1.58,4.38,4.38,0,0,0,3,1.19H401a14.56,14.56,0,0,0,4.14-.66.67.67,0,0,0,.36-.21.7.7,0,0,0,.15-.39l1-5.66a4.38,4.38,0,0,0-.21-2.32,2.6,2.6,0,0,0-.25-.5,3.76,3.76,0,0,0-2.66-1.5m0,6.62-.4,2.19-.35.05c-.36,0-.7.1-1,.13a4,4,0,0,1-1.46-.06,2.2,2.2,0,0,1-.53-.22.73.73,0,0,1-.4-.63,1.31,1.31,0,0,1,1.11-1.46,5.27,5.27,0,0,1,1.31-.15c.27,0,.52,0,.74,0l.74.08.28,0"/><path id="Path_38" data-name="Path 38" class="cls-31" d="M439.31,601.35a8.66,8.66,0,0,0-2.64.1,7.41,7.41,0,0,0-2.32.79c-.22.13-.34.27-.22.56s.36.81.59,1.29a.36.36,0,0,0,.52.17l.24-.1.1,0a5.61,5.61,0,0,1,1.65-.49,5.11,5.11,0,0,1,1.7,0,1,1,0,0,1,.84.82,3.12,3.12,0,0,1-.12,1.42l-.21,0-.64-.08a9.27,9.27,0,0,0-3.48.18,3.47,3.47,0,0,0-2.92,3.83,2.59,2.59,0,0,0,.78,1.58,4.31,4.31,0,0,0,3,1.19l.62,0a14.49,14.49,0,0,0,4.13-.66.76.76,0,0,0,.37-.21.84.84,0,0,0,.14-.4l1-5.65a4.27,4.27,0,0,0-.2-2.32,2.38,2.38,0,0,0-.26-.5,3.71,3.71,0,0,0-2.65-1.51m0,6.62-.4,2.2-.36.05c-.35,0-.69.09-1,.12a4.16,4.16,0,0,1-1.45-.05,3.49,3.49,0,0,1-.53-.22.75.75,0,0,1-.41-.64,1.31,1.31,0,0,1,1.12-1.45,5.28,5.28,0,0,1,1.31-.16c.26,0,.51,0,.73,0s.49,0,.75.08l.28,0"/><path id="Path_39" data-name="Path 39" class="cls-31" d="M413.69,600.81h-1.54l.34-1.9a.47.47,0,0,0-.38-.54h-1.86a.47.47,0,0,0-.47.39l-1.88,10.44a2.82,2.82,0,0,0,2.28,3.27,2.73,2.73,0,0,0,.5,0h1.08a.48.48,0,0,0,.46-.39l.37-2.07h-1a.94.94,0,0,1-.94-.94.88.88,0,0,1,0-.16l1-5.69h1.71a.47.47,0,0,0,.46-.39l.27-1.51a.46.46,0,0,0-.38-.54h-.08"/><path id="Path_40" data-name="Path 40" class="cls-31" d="M397.57,598.36h-8.7a.59.59,0,0,0-.58.48l-2.35,13.1a.47.47,0,0,0,.38.55h2a.48.48,0,0,0,.47-.39l1.07-5.94h5.61a.47.47,0,0,0,.46-.39l.27-1.5a.47.47,0,0,0-.38-.55h-5.53l.53-2.92h6.51a.47.47,0,0,0,.47-.39l.27-1.5a.48.48,0,0,0-.38-.55h-.08"/><g id="Group_123" data-name="Group 123"><path id="Path_41" data-name="Path 41" class="cls-32" d="M372.3,604.81l5.31-2.08-5.91-2.32a.43.43,0,0,1-.25-.55.42.42,0,0,1,.55-.24l6.77,2.65L382,601a1.66,1.66,0,0,0,1-2.16,1.63,1.63,0,0,0-1-.94l-9.73-3.82a1,1,0,0,0-1.27.55.92.92,0,0,0-.07.36v8.92a1,1,0,0,0,1,1,1.15,1.15,0,0,0,.36-.07m-.45-9a.45.45,0,0,1,.16,0l8.93,3.51a.41.41,0,0,1,.24.54.42.42,0,0,1-.39.28.76.76,0,0,1-.16,0l-8.93-3.51a.43.43,0,0,1-.25-.55.45.45,0,0,1,.4-.27"/><path id="Path_42" data-name="Path 42" class="cls-33" d="M382.05,601.9l-9.85,3.86a2,2,0,0,0-1.24,1.82v8a1.31,1.31,0,0,0,1.31,1.31,1.27,1.27,0,0,0,.47-.09l9-3.54a2.08,2.08,0,0,0,1.33-1.94V600.61a1.59,1.59,0,0,1-.2.55,1.78,1.78,0,0,1-.84.74"/></g></g><rect class="cls-23" x="347.4" y="534.14" width="119.44" height="52.14" rx="4.72"/><path class="cls-2" d="M359.59,553.46a.84.84,0,0,0-.74.29,1.23,1.23,0,0,0-.21.73,1,1,0,0,0,.29.79,2,2,0,0,0,1.17.24h1.63a.15.15,0,0,1,.17.17v1a.15.15,0,0,1-.17.17H360a3.47,3.47,0,0,1-2.06-.55,2.06,2.06,0,0,1-.75-1.78,2.66,2.66,0,0,1,.23-1.16,2.08,2.08,0,0,1,1.37-1.11,3.5,3.5,0,0,1,.82-.11h2.68a3.13,3.13,0,0,0,.77-.08.84.84,0,0,0,.44-.26,1.1,1.1,0,0,0,.21-.5,5.56,5.56,0,0,0,.05-.78,5.7,5.7,0,0,0-.12-1.21,2.64,2.64,0,0,0-.39-.95,1.66,1.66,0,0,0-.7-.61,2.44,2.44,0,0,0-1.11-.22,2.36,2.36,0,0,0-1.06.24,3,3,0,0,0-.86.65c-.06.08-.14.08-.23,0l-.75-.61c-.1-.08-.12-.16,0-.24a3.91,3.91,0,0,1,1.18-1,3.54,3.54,0,0,1,1.73-.39,4.49,4.49,0,0,1,1.93.36,3.24,3.24,0,0,1,1.18,1,3.76,3.76,0,0,1,.61,1.38,7.78,7.78,0,0,1,.17,1.61,5.66,5.66,0,0,1-.15,1.42,2.23,2.23,0,0,1-.44.9,1.66,1.66,0,0,1-.77.48,3.61,3.61,0,0,1-1.1.15Z"/><path class="cls-2" d="M367.37,542.07a.15.15,0,0,1,.17-.17h1.09c.12,0,.17.05.17.17v9.16a1,1,0,0,0,.2.7.84.84,0,0,0,.62.2h.75a.6.6,0,0,1,.68.68.65.65,0,0,1-.17.54.94.94,0,0,1-.51.11h-1a2,2,0,0,1-1.53-.52,2.46,2.46,0,0,1-.46-1.63Z"/><path class="cls-2" d="M370.38,553.46a.58.58,0,0,1-.46-.15.78.78,0,0,1-.12-.5.85.85,0,0,1,.12-.55c.07-.09.22-.13.46-.13h1.87a.8.8,0,0,1,.51.14.57.57,0,0,1,.17.49.72.72,0,0,1-.16.56.81.81,0,0,1-.52.14Z"/><path class="cls-2" d="M372.27,553.46a.56.56,0,0,1-.46-.15.78.78,0,0,1-.12-.5.94.94,0,0,1,.11-.55.61.61,0,0,1,.47-.13h1.87a.8.8,0,0,1,.51.14.6.6,0,0,1,.17.49.72.72,0,0,1-.16.56.81.81,0,0,1-.52.14Z"/><path class="cls-2" d="M378.12,547.52a2.33,2.33,0,0,0-1.06.24,2.87,2.87,0,0,0-.86.65.16.16,0,0,1-.24,0l-.75-.61c-.1-.08-.12-.16,0-.24a4,4,0,0,1,1.18-1,3.54,3.54,0,0,1,1.73-.39,4.44,4.44,0,0,1,1.92.36,3.28,3.28,0,0,1,1.19,1,3.76,3.76,0,0,1,.61,1.38,7.78,7.78,0,0,1,.17,1.61,2.62,2.62,0,0,1,0,.29c0,.09,0,.19,0,.28a1,1,0,0,0,.45.79,2.06,2.06,0,0,0,1.08.26h.19a.8.8,0,0,1,.51.14.63.63,0,0,1,.17.49.73.73,0,0,1-.16.57.88.88,0,0,1-.52.13h-.36a2.25,2.25,0,0,1-1-.25,1.34,1.34,0,0,1-.64-.74,1.63,1.63,0,0,1-.82.76,3.31,3.31,0,0,1-1.31.23h-5.35a.6.6,0,0,1-.68-.68c0-.29.05-.47.16-.54a1,1,0,0,1,.52-.11H379a3.1,3.1,0,0,0,.76-.08.8.8,0,0,0,.44-.26,1,1,0,0,0,.21-.5,5.56,5.56,0,0,0,.05-.78,5.7,5.7,0,0,0-.12-1.21,2.82,2.82,0,0,0-.38-.95,1.69,1.69,0,0,0-.71-.61A2.4,2.4,0,0,0,378.12,547.52Zm-.33,9.06a.15.15,0,0,1-.17-.17v-1.24a.15.15,0,0,1,.17-.17H379a.15.15,0,0,1,.17.17v1.24a.15.15,0,0,1-.17.17Z"/><path class="cls-2" d="M383.76,553.46a.92.92,0,0,1-.51-.12.57.57,0,0,1-.17-.48.86.86,0,0,1,.16-.58.75.75,0,0,1,.52-.15h1.07a.84.84,0,0,0,.62-.2,1,1,0,0,0,.2-.7v-4.56a.15.15,0,0,1,.17-.17h1.09a.15.15,0,0,1,.17.17V551a1,1,0,0,0,.41.87,2,2,0,0,0,1.12.29h.2a.8.8,0,0,1,.51.14.63.63,0,0,1,.17.49.73.73,0,0,1-.16.57.88.88,0,0,1-.52.13h-.37a2,2,0,0,1-1-.23,1.38,1.38,0,0,1-.62-.66,1.78,1.78,0,0,1-1.77.89Zm2-8.64a.15.15,0,0,1-.17-.17v-1.24a.15.15,0,0,1,.17-.17h1.16a.15.15,0,0,1,.17.17v1.24a.15.15,0,0,1-.17.17Z"/><path class="cls-2" d="M388.67,553.46a.92.92,0,0,1-.51-.12.57.57,0,0,1-.17-.48.8.8,0,0,1,.17-.58.72.72,0,0,1,.51-.15h1.08a.85.85,0,0,0,.62-.2,1,1,0,0,0,.19-.7v-4.56a.15.15,0,0,1,.17-.17h1.09a.15.15,0,0,1,.17.17v4.64a2.4,2.4,0,0,1-.46,1.63,2,2,0,0,1-1.53.52Zm1.64,3.11a.15.15,0,0,1-.17-.17v-1.24c0-.12.05-.17.17-.17h1.15c.12,0,.17,0,.17.17v1.24a.15.15,0,0,1-.17.17Z"/><path class="cls-2" d="M402.09,546.2a4.15,4.15,0,0,1,2.68.71,2.38,2.38,0,0,1,.87,1.94,3.12,3.12,0,0,1-.17,1,4.23,4.23,0,0,1-.43.88,4.37,4.37,0,0,1-.61.74,4.47,4.47,0,0,1-.66.55,2.38,2.38,0,0,0,.37.06l.36,0H407a.87.87,0,0,1,.51.12.53.53,0,0,1,.17.47.77.77,0,0,1-.16.58.7.7,0,0,1-.52.16h-2.53a5,5,0,0,1-1.05-.12,3,3,0,0,1-1-.41c-.33.12-.67.23-1,.33a8.26,8.26,0,0,0-1,.32,2.23,2.23,0,0,0-.73.42.88.88,0,0,0-.29.68.7.7,0,0,0,.31.62,2.24,2.24,0,0,0,1.15.21h1.63a.15.15,0,0,1,.17.17v1a.15.15,0,0,1-.17.17h-1.75a3.75,3.75,0,0,1-2.09-.49,1.9,1.9,0,0,1-.71-1.67,2.15,2.15,0,0,1,.31-1.21,2.6,2.6,0,0,1,.79-.76,4.61,4.61,0,0,1,1-.45c.37-.11.73-.2,1.07-.27a4.28,4.28,0,0,0-.9-2,4,4,0,0,0-.67-.64l-.74-.56a.6.6,0,0,1-.2-.17.35.35,0,0,1,0-.17v-1a.38.38,0,0,1,.17-.34l.54-.27a6.42,6.42,0,0,1,.76-.29,7.58,7.58,0,0,1,1-.22A7.83,7.83,0,0,1,402.09,546.2Zm0,1.32a5.43,5.43,0,0,0-1.35.16,4,4,0,0,0-.76.28,5,5,0,0,1,1.52,1.38,5.58,5.58,0,0,1,.94,2.11A4.78,4.78,0,0,0,403,551a3.75,3.75,0,0,0,.55-.58,2.86,2.86,0,0,0,.41-.7,2,2,0,0,0,.16-.79,1.37,1.37,0,0,0-.16-.7,1.26,1.26,0,0,0-.43-.43,2,2,0,0,0-.66-.23A5.07,5.07,0,0,0,402.09,547.52Z"/><path class="cls-2" d="M407,553.46a.56.56,0,0,1-.46-.15.78.78,0,0,1-.12-.5.94.94,0,0,1,.11-.55c.07-.09.23-.13.47-.13h1.87a.84.84,0,0,1,.51.14.6.6,0,0,1,.17.49.76.76,0,0,1-.16.56.83.83,0,0,1-.52.14Z"/><path class="cls-2" d="M408.9,553.46a.58.58,0,0,1-.46-.15,1.31,1.31,0,0,1,0-1,.59.59,0,0,1,.46-.13h1.87a.8.8,0,0,1,.51.14.57.57,0,0,1,.17.49.72.72,0,0,1-.16.56.81.81,0,0,1-.52.14Z"/><path class="cls-2" d="M410.89,553.46a.88.88,0,0,1-.52-.13.77.77,0,0,1-.16-.57.63.63,0,0,1,.17-.49.84.84,0,0,1,.51-.14h1.92a4.36,4.36,0,0,1-.49-2.23,4.93,4.93,0,0,1,.25-1.67,3,3,0,0,1,.69-1.16,2.64,2.64,0,0,1,1-.66,3.84,3.84,0,0,1,1.29-.21,3.21,3.21,0,0,1,2.38.87,3.91,3.91,0,0,1,.86,2.83,5.27,5.27,0,0,1-.22,1.65,2.82,2.82,0,0,1-.65,1.1,2.51,2.51,0,0,1-1,.61,4.35,4.35,0,0,1-1.35.2Zm4.68-5.94a1.59,1.59,0,0,0-1.36.62,2.66,2.66,0,0,0-.46,1.66,2.85,2.85,0,0,0,.43,1.79,1.68,1.68,0,0,0,1.39.54,1.75,1.75,0,0,0,1.38-.5,2.67,2.67,0,0,0,.44-1.73,3.06,3.06,0,0,0-.44-1.75A1.56,1.56,0,0,0,415.57,547.52Zm-.6-2.7a.15.15,0,0,1-.17-.17v-1.24a.15.15,0,0,1,.17-.17h1.16a.15.15,0,0,1,.17.17v1.24a.15.15,0,0,1-.17.17Z"/><path class="cls-2" d="M427.16,551a1,1,0,0,0,.42.87,1.94,1.94,0,0,0,1.11.29h.19a.8.8,0,0,1,.51.14.63.63,0,0,1,.17.49.77.77,0,0,1-.16.57.88.88,0,0,1-.52.13h-.36a2.25,2.25,0,0,1-1-.25,1.39,1.39,0,0,1-.65-.74,1.57,1.57,0,0,1-.8.77,3.39,3.39,0,0,1-1.33.22h-3.78a.15.15,0,0,1-.17-.17v-1a.15.15,0,0,1,.17-.17h3.25a3,3,0,0,0,.76-.08.86.86,0,0,0,.45-.25,1,1,0,0,0,.2-.47,4.81,4.81,0,0,0,.05-.73v-1.36c0-1.14-.64-1.72-1.94-1.72h-2a.15.15,0,0,1-.17-.17v-1a.15.15,0,0,1,.17-.17h2.5a3.07,3.07,0,0,1,2.12.73,2.91,2.91,0,0,1,.82,2.29Z"/><path class="cls-2" d="M428.86,553.46a.92.92,0,0,1-.51-.12.57.57,0,0,1-.17-.48.86.86,0,0,1,.16-.58.75.75,0,0,1,.52-.15h1.07a.84.84,0,0,0,.62-.2,1,1,0,0,0,.2-.7v-9.16a.15.15,0,0,1,.17-.17H432a.15.15,0,0,1,.17.17v9.24a2.46,2.46,0,0,1-.46,1.63,2,2,0,0,1-1.53.52Z"/><path class="cls-2" d="M436,553.29a.15.15,0,0,1-.17.17h-1.08a.15.15,0,0,1-.17-.17V542.07c0-.12.05-.17.17-.17h1.08c.12,0,.17.05.17.17Z"/><path class="cls-2" d="M447.15,553.58a3.93,3.93,0,0,1-1.55-.29,2.52,2.52,0,0,1-1.1-.92,1.06,1.06,0,0,1-.4.39c-.15.08-.3.16-.44.25a1.4,1.4,0,0,0-.37.36,1.28,1.28,0,0,0-.15.7v2.77h-1.43v-3.13a2,2,0,0,1,.16-.87,1.64,1.64,0,0,1,.39-.58,2.44,2.44,0,0,1,.52-.39l.52-.3a1.88,1.88,0,0,0,.43-.35.85.85,0,0,0,.21-.52c0-.12,0-.25,0-.38s0-.27,0-.42a4,4,0,0,1,.86-2.83,3.69,3.69,0,0,1,4.76,0,3.91,3.91,0,0,1,.87,2.83c0,.13,0,.25,0,.38s0,.24,0,.35a1.69,1.69,0,0,0,.34,1.19,1,1,0,0,0,.71.31h.48a.84.84,0,0,1,.51.14.63.63,0,0,1,.17.49.77.77,0,0,1-.16.57.9.9,0,0,1-.52.13h-.36l-.51,0a2.59,2.59,0,0,1-.54-.11,2.13,2.13,0,0,1-.5-.25,1.41,1.41,0,0,1-.41-.43,2.31,2.31,0,0,1-1,.71A4.07,4.07,0,0,1,447.15,553.58Zm0-6.06a1.56,1.56,0,0,0-1.38.63,3.06,3.06,0,0,0-.44,1.75,2.94,2.94,0,0,0,.44,1.79,2,2,0,0,0,2.77,0,3,3,0,0,0,.43-1.79,3.06,3.06,0,0,0-.43-1.75A1.57,1.57,0,0,0,447.15,547.52Z"/><path class="cls-2" d="M451.9,553.46a.56.56,0,0,1-.46-.15.78.78,0,0,1-.12-.5.94.94,0,0,1,.11-.55c.07-.09.23-.13.47-.13h1.87a.84.84,0,0,1,.51.14.6.6,0,0,1,.17.49.72.72,0,0,1-.17.56.78.78,0,0,1-.51.14Z"/><path class="cls-2" d="M453.77,553.46a.87.87,0,0,1-.51-.12c-.12-.08-.17-.24-.17-.48a.81.81,0,0,1,.16-.58.75.75,0,0,1,.52-.15h1.17a.85.85,0,0,0,.62-.2,1,1,0,0,0,.19-.7v-4.56c0-.11.06-.17.18-.17H457a.15.15,0,0,1,.17.17v4.64a2.4,2.4,0,0,1-.46,1.63,2,2,0,0,1-1.53.52Zm1.08-8.64a.15.15,0,0,1-.17-.17v-1.24a.15.15,0,0,1,.17-.17H456a.15.15,0,0,1,.17.17v1.24a.15.15,0,0,1-.17.17Zm2.08,0a.15.15,0,0,1-.17-.17v-1.24a.15.15,0,0,1,.17-.17h1.15a.15.15,0,0,1,.17.17v1.24a.15.15,0,0,1-.17.17Z"/><path class="cls-2" d="M360.9,574a3.21,3.21,0,0,1-2.38-.86,3.86,3.86,0,0,1-.87-2.81,3.91,3.91,0,0,1,.87-2.83,3.69,3.69,0,0,1,4.76,0,3.91,3.91,0,0,1,.86,2.83,5.18,5.18,0,0,1-.23,1.67,3,3,0,0,1-.64,1.14,2.59,2.59,0,0,1-1,.65A4.07,4.07,0,0,1,360.9,574Zm0-6.05a1.57,1.57,0,0,0-1.39.63,3,3,0,0,0-.43,1.75,3,3,0,0,0,.43,1.79,2,2,0,0,0,2.77,0,2.94,2.94,0,0,0,.44-1.79,3,3,0,0,0-.44-1.75A1.56,1.56,0,0,0,360.9,567.92Zm-1.62-2.7a.15.15,0,0,1-.17-.17v-1.24a.15.15,0,0,1,.17-.17h1.16a.15.15,0,0,1,.17.17v1.24a.15.15,0,0,1-.17.17Zm2.08,0a.15.15,0,0,1-.17-.17v-1.24a.15.15,0,0,1,.17-.17h1.15a.15.15,0,0,1,.17.17v1.24a.15.15,0,0,1-.17.17Z"/><path class="cls-2" d="M365.25,577.24a.15.15,0,0,1-.17-.17v-1a.15.15,0,0,1,.17-.17h.39q1.38,0,1.38-1.44v-7.4a.15.15,0,0,1,.17-.17h1.08c.12,0,.18.06.18.17v7.36a2.88,2.88,0,0,1-.7,2.09,2.73,2.73,0,0,1-2,.72Z"/><path class="cls-2" d="M371.93,577.24a.15.15,0,0,1-.17-.17v-1a.15.15,0,0,1,.17-.17h2a2.48,2.48,0,0,0,.63-.07,1.26,1.26,0,0,0,.5-.26,1.18,1.18,0,0,0,.33-.49,2.23,2.23,0,0,0,.12-.79v-.44h-1.82a4.69,4.69,0,0,1-1.35-.18,2.38,2.38,0,0,1-1.67-1.64,5.18,5.18,0,0,1-.23-1.64,4.87,4.87,0,0,1,.27-1.69,3.34,3.34,0,0,1,.71-1.19,2.82,2.82,0,0,1,1.05-.69,3.28,3.28,0,0,1,1.26-.23,3.16,3.16,0,0,1,2.36.87,4,4,0,0,1,.85,2.83v2.23h1.17a.8.8,0,0,1,.51.14.63.63,0,0,1,.17.49.73.73,0,0,1-.16.57.88.88,0,0,1-.52.13H377v.4a3.85,3.85,0,0,1-.21,1.36,2.41,2.41,0,0,1-.6.92,2.25,2.25,0,0,1-.93.53,4.09,4.09,0,0,1-1.2.17Zm1.84-9.32a1.62,1.62,0,0,0-1.36.68,3,3,0,0,0-.5,1.8,2.24,2.24,0,0,0,.49,1.67,2,2,0,0,0,1.43.46h1.72V570.3a3.12,3.12,0,0,0-.42-1.75A1.5,1.5,0,0,0,373.77,567.92Z"/><path class="cls-2" d="M378.17,573.86a.87.87,0,0,1-.51-.12.57.57,0,0,1-.17-.48.79.79,0,0,1,.16-.58.75.75,0,0,1,.52-.15h1.17a.85.85,0,0,0,.62-.2,1,1,0,0,0,.2-.7v-4.56a.15.15,0,0,1,.17-.17h1.09a.15.15,0,0,1,.17.17v4.64a2.46,2.46,0,0,1-.46,1.63,2,2,0,0,1-1.53.52Zm1.09-8.64a.15.15,0,0,1-.17-.17v-1.24a.15.15,0,0,1,.17-.17h1.15a.15.15,0,0,1,.17.17v1.24a.15.15,0,0,1-.17.17Zm2.07,0a.15.15,0,0,1-.17-.17v-1.24a.15.15,0,0,1,.17-.17h1.16a.15.15,0,0,1,.17.17v1.24a.15.15,0,0,1-.17.17Z"/><path class="cls-2" d="M384.05,562.47a.15.15,0,0,1,.17-.17h1.09a.15.15,0,0,1,.17.17v9.16a1,1,0,0,0,.19.7.85.85,0,0,0,.62.2H387a.6.6,0,0,1,.68.68c0,.28-.05.46-.16.54a1,1,0,0,1-.52.11h-1a2,2,0,0,1-1.53-.52,2.4,2.4,0,0,1-.46-1.63Z"/><path class="cls-2" d="M387.16,573.86a.88.88,0,0,1-.52-.13.77.77,0,0,1-.16-.57.63.63,0,0,1,.17-.49.84.84,0,0,1,.51-.14h1.92a4.36,4.36,0,0,1-.49-2.23,4.93,4.93,0,0,1,.25-1.67,3.07,3.07,0,0,1,.68-1.16,2.76,2.76,0,0,1,1-.66,3.79,3.79,0,0,1,1.29-.21,3.21,3.21,0,0,1,2.38.87,4,4,0,0,1,.86,2.83,5,5,0,0,1-.23,1.65,2.69,2.69,0,0,1-.64,1.1,2.51,2.51,0,0,1-1,.61,4.4,4.4,0,0,1-1.35.2Zm4.68-5.94a1.61,1.61,0,0,0-1.36.61,2.71,2.71,0,0,0-.46,1.67,2.85,2.85,0,0,0,.43,1.79,1.68,1.68,0,0,0,1.39.54,1.75,1.75,0,0,0,1.38-.5,2.67,2.67,0,0,0,.44-1.73,3,3,0,0,0-.44-1.75A1.56,1.56,0,0,0,391.84,567.92Zm-.6-2.7a.15.15,0,0,1-.17-.17v-1.24a.15.15,0,0,1,.17-.17h1.16a.15.15,0,0,1,.17.17v1.24a.15.15,0,0,1-.17.17Z"/><path class="cls-2" d="M412.13,573.86v1a2.21,2.21,0,0,1-.17.87,1.86,1.86,0,0,1-.55.77,2.78,2.78,0,0,1-1,.53,4.78,4.78,0,0,1-1.51.21h-4a4.18,4.18,0,0,1-3-1,3.59,3.59,0,0,1-1-2.72,5.67,5.67,0,0,1,.33-1.93A6.67,6.67,0,0,1,402,570c0-.08.12-.08.24,0l.93.51a.14.14,0,0,1,.05.22,6.83,6.83,0,0,0-.58,1.18,3.8,3.8,0,0,0-.29,1.46,2.79,2.79,0,0,0,.23,1.18,2.07,2.07,0,0,0,.62.77,2.4,2.4,0,0,0,.9.42,4.05,4.05,0,0,0,1.06.13h3.76a2.38,2.38,0,0,0,1.42-.31.91.91,0,0,0,.4-.73v-1h-1.82a4.35,4.35,0,0,1-1.35-.2,2.48,2.48,0,0,1-1-.61,2.6,2.6,0,0,1-.65-1.1,5.27,5.27,0,0,1-.22-1.65,4.69,4.69,0,0,1,.26-1.67,3.09,3.09,0,0,1,.69-1.16,2.72,2.72,0,0,1,1-.66,3.74,3.74,0,0,1,1.26-.21,3.21,3.21,0,0,1,2.38.87,4,4,0,0,1,.86,2.83v2.23h1.19a.8.8,0,0,1,.51.14.6.6,0,0,1,.17.49.73.73,0,0,1-.16.57.88.88,0,0,1-.52.13Zm-4.89-8.64a.15.15,0,0,1-.17-.17v-1.24a.15.15,0,0,1,.17-.17h1.15a.15.15,0,0,1,.17.17v1.24a.15.15,0,0,1-.17.17Zm1.65,2.7a1.6,1.6,0,0,0-1.35.63,2.89,2.89,0,0,0-.47,1.75,2.49,2.49,0,0,0,.48,1.73,1.94,1.94,0,0,0,1.44.5h1.72V570.3a3,3,0,0,0-.44-1.75A1.56,1.56,0,0,0,408.89,567.92Zm.42-2.7a.15.15,0,0,1-.17-.17v-1.24a.15.15,0,0,1,.17-.17h1.16a.15.15,0,0,1,.17.17v1.24a.15.15,0,0,1-.17.17Z"/><path class="cls-2" d="M413.21,573.86a.87.87,0,0,1-.51-.12.54.54,0,0,1-.18-.48.79.79,0,0,1,.17-.58.73.73,0,0,1,.52-.15h1.17a.85.85,0,0,0,.62-.2,1,1,0,0,0,.19-.7v-4.56a.15.15,0,0,1,.17-.17h1.09a.15.15,0,0,1,.17.17v4.64a2.4,2.4,0,0,1-.46,1.63,2,2,0,0,1-1.53.52Zm.73,3.16a.15.15,0,0,1-.17-.17v-1.24c0-.12.05-.17.17-.17h1.15c.12,0,.17,0,.17.17v1.24a.15.15,0,0,1-.17.17Zm2.07,0a.15.15,0,0,1-.17-.17v-1.24a.15.15,0,0,1,.17-.17h1.16a.15.15,0,0,1,.17.17v1.24a.15.15,0,0,1-.17.17Z"/><path class="cls-2" d="M418.07,577.24a.15.15,0,0,1-.17-.17v-1a.15.15,0,0,1,.17-.17h.39c.92,0,1.37-.48,1.37-1.44v-7.4a.15.15,0,0,1,.17-.17h1.09a.15.15,0,0,1,.17.17v4.3a1,1,0,0,0,.42.87,1.94,1.94,0,0,0,1.11.29H423a.8.8,0,0,1,.51.14.63.63,0,0,1,.17.49.73.73,0,0,1-.16.57.88.88,0,0,1-.52.13h-.36a1.73,1.73,0,0,1-1.36-.55v1.12a2.88,2.88,0,0,1-.69,2.09,2.73,2.73,0,0,1-2,.72Z"/><path class="cls-2" d="M423,573.86a.87.87,0,0,1-.51-.12.57.57,0,0,1-.17-.48.79.79,0,0,1,.16-.58.75.75,0,0,1,.52-.15h1.07a.85.85,0,0,0,.62-.2,1,1,0,0,0,.2-.7v-9.15a.15.15,0,0,1,.17-.17h1.08a.15.15,0,0,1,.17.17v5.17a10.81,10.81,0,0,1,1.85-.75,7.4,7.4,0,0,1,2.1-.3,5.11,5.11,0,0,1,2,.32,3.28,3.28,0,0,1,1.26.88,3.05,3.05,0,0,1,.65,1.28,6,6,0,0,1,.19,1.55,6.61,6.61,0,0,1-.15,1.52,2.31,2.31,0,0,1-.45,1,1.55,1.55,0,0,1-.8.54,3.7,3.7,0,0,1-1.17.17H426a.66.66,0,0,1-.57-.23,2.48,2.48,0,0,1-1.14.23Zm7.16-5.94a5.31,5.31,0,0,0-1,.1,9.05,9.05,0,0,0-1,.24c-.33.1-.65.22-.95.34s-.58.25-.83.38v2.73a3.62,3.62,0,0,1-.08.82h5a2.78,2.78,0,0,0,.78-.09.84.84,0,0,0,.48-.29,1.28,1.28,0,0,0,.23-.6,6.42,6.42,0,0,0,.06-1,4.33,4.33,0,0,0-.13-1.13,1.94,1.94,0,0,0-.43-.83,2,2,0,0,0-.82-.52A3.84,3.84,0,0,0,430.14,567.92Z"/><path class="cls-2" d="M441.19,570c0-.08.12-.08.23,0l.94.51a.14.14,0,0,1,.05.22,7.6,7.6,0,0,0-.59,1.18,4,4,0,0,0-.28,1.46,2.76,2.76,0,0,0,.25,1.22,2.08,2.08,0,0,0,.64.76,2.46,2.46,0,0,0,.85.4,3.48,3.48,0,0,0,.9.12,2.77,2.77,0,0,0,1.78-.56,2.19,2.19,0,0,0,.7-1.82v-5a.15.15,0,0,1,.17-.17h1.09a.15.15,0,0,1,.17.17v2.84a1,1,0,0,0,.41.87,2,2,0,0,0,1.12.29h.07a.84.84,0,0,1,.51.14.63.63,0,0,1,.17.49.77.77,0,0,1-.16.57.9.9,0,0,1-.52.13h-.24a1.73,1.73,0,0,1-1.36-.55v.21a3.58,3.58,0,0,1-1,2.73,4.11,4.11,0,0,1-3,1,5,5,0,0,1-1.65-.25,3.27,3.27,0,0,1-2.07-1.88,4.14,4.14,0,0,1-.29-1.59,5.67,5.67,0,0,1,.33-1.93A6.3,6.3,0,0,1,441.19,570Zm2.9-2.09a.15.15,0,0,1-.17-.17v-1.24a.15.15,0,0,1,.17-.17h1.16a.15.15,0,0,1,.17.17v1.24a.15.15,0,0,1-.17.17Z"/><path class="cls-2" d="M457.52,572.53a.15.15,0,0,1,.17.17v1a.15.15,0,0,1-.17.17h-7.83a.6.6,0,0,1-.68-.68c0-.29.05-.47.16-.54a1,1,0,0,1,.52-.11h1.93a3.31,3.31,0,0,1-.67-1,3.24,3.24,0,0,1-.28-1.42,4.41,4.41,0,0,1,.16-1.15,3,3,0,0,1,.56-1.15,3.21,3.21,0,0,1,1.12-.87,4,4,0,0,1,1.82-.35,3.87,3.87,0,0,1,1.73.36,3,3,0,0,1,1.17,1,.16.16,0,0,1-.05.24l-.74.61c-.1.07-.17.07-.24,0a2.44,2.44,0,0,0-1.92-.89,1.92,1.92,0,0,0-1.57.62,2.4,2.4,0,0,0-.51,1.56,2.46,2.46,0,0,0,.21,1.07,2.86,2.86,0,0,0,.46.73,2,2,0,0,0,.54.43,2.44,2.44,0,0,0,.42.2Z"/><path class="cls-25" d="M441.9,491.07q-4.11,0-4.11-3.56a3.8,3.8,0,0,1,1-2.69,4,4,0,0,1,3.1-1.17,9.15,9.15,0,0,1,3.21.53v5.29h1.5v1.6Zm-2.24-8.69a1.09,1.09,0,0,1,0-1.48,1,1,0,0,1,.72-.31,1,1,0,0,1,.74.31,1,1,0,0,1,.29.74,1.06,1.06,0,0,1-.29.74,1,1,0,0,1-.74.3A1,1,0,0,1,439.66,482.38Zm3.44,3.15a3.31,3.31,0,0,0-1.46-.28,1.66,1.66,0,0,0-1.34.58,2.19,2.19,0,0,0-.49,1.49c0,1.43.77,2.15,2.31,2.15h1Zm-.89-3.15a1.09,1.09,0,0,1,0-1.48,1,1,0,0,1,.72-.31.92.92,0,0,1,.72.31,1,1,0,0,1,.29.74,1,1,0,0,1-.29.74,1,1,0,0,1-.72.3A1,1,0,0,1,442.21,482.38Z"/><path class="cls-25" d="M446.34,491.07v-1.6h.88a2.85,2.85,0,0,1,.86.11,2.56,2.56,0,0,1-.86-2.2,3.62,3.62,0,0,1,1-2.6,4,4,0,0,1,3-1.13c2.32,0,3.47,1.18,3.47,3.53v3.89Zm6.36-3.64c0-1.45-.54-2.18-1.64-2.18a1.7,1.7,0,0,0-1.35.58,2.24,2.24,0,0,0-.48,1.49c0,1.43.77,2.15,2.3,2.15h1.17Zm-2.43-5.23a1.05,1.05,0,0,1-.32-.76,1,1,0,0,1,.32-.75,1.05,1.05,0,0,1,1.49,0,1.06,1.06,0,0,1,0,1.5,1,1,0,0,1-.74.31A1,1,0,0,1,450.27,482.2Z"/><path class="cls-25" d="M457.05,480.24h2v9.23h1.54v1.6h-3.56Z"/><path class="cls-25" d="M460.38,489.47h2.05v-5.62h2v.39a12.74,12.74,0,0,1-.18,2.27h0a4.31,4.31,0,0,1,1.59-2.13,3.88,3.88,0,0,1,2.29-.73,3.08,3.08,0,0,1,2.42.93,4.26,4.26,0,0,1-.24,5.35,5.1,5.1,0,0,1-3.63,1.14h-6.36Zm6.54,0c1.62,0,2.43-.74,2.43-2.21s-.53-2-1.57-2a2.75,2.75,0,0,0-2.18,1.29,6.39,6.39,0,0,0-1.17,2.92Zm.14-7.21a1.07,1.07,0,1,1,1.5,0,1.07,1.07,0,0,1-1.5,0Z"/><path class="cls-25" d="M472.49,494a4.15,4.15,0,0,1,.82.06.67.67,0,0,1-.27-.58,1.26,1.26,0,0,1,.52-1,2.59,2.59,0,0,1,1.61-.45,3.54,3.54,0,0,1,.91.09l-.18,1.05a5.45,5.45,0,0,0-.77-.09q-.69,0-.69.45c0,.33.33.49,1,.49h.94v1.08h-3.87Zm1-13.79h2v10.83h-2Z"/><path class="cls-2" d="M388.15,216.35v2.29c-.08.57-.14,1.14-.25,1.7a14.56,14.56,0,0,1-7.27,10.4,16.59,16.59,0,0,1-12.52,1.67.76.76,0,0,0-.42,0c-1,.43-2,.89-3,1.34H363.3l-.11-.06a2.33,2.33,0,0,1-1.63-2.18c-.05-.77-.05-1.54-.1-2.31a.82.82,0,0,0-.22-.47c-.48-.55-1-1.05-1.47-1.62a15.17,15.17,0,0,1-3.09-12,14.46,14.46,0,0,1,3.95-8.13,15.6,15.6,0,0,1,10.93-4.82,16,16,0,0,1,8.13,1.65A14.77,14.77,0,0,1,388,215.08C388,215.5,388.09,215.93,388.15,216.35ZM364,231.3l2.73-1.21a2.59,2.59,0,0,1,1.8-.15,14.51,14.51,0,0,0,7.57,0,12.44,12.44,0,0,0,7.92-6,12.72,12.72,0,0,0,1.45-8.85,12,12,0,0,0-5.31-8.18,13.84,13.84,0,0,0-11.58-1.82,12.65,12.65,0,0,0-9.44,14.32A12.17,12.17,0,0,0,363,227a2.73,2.73,0,0,1,.93,2.1Z"/><path class="cls-2" d="M369.72,213.82a2.19,2.19,0,0,1,1.39.5l3.15,2.39a1,1,0,0,0,1.39,0l4.33-3.28a.77.77,0,0,1,.76-.21.7.7,0,0,1,.33,1.11c-.7,1.14-1.42,2.27-2.13,3.4l-2,3.21a2.22,2.22,0,0,1-3.44.6l-3.12-2.43a.91.91,0,0,0-1.31,0l-4.38,3.37a.72.72,0,0,1-1.07,0,.7.7,0,0,1,0-.93l2.56-4.07c.55-.86,1.09-1.72,1.63-2.59A2.18,2.18,0,0,1,369.72,213.82Z"/><path class="cls-2" d="M410.69,211.63V225h-1.76V215l-4.44,10h-1.24l-4.47-10v10H397V211.63h1.9l4.95,11.06,4.95-11.06Z"/><path class="cls-2" d="M415.43,213v4.51h4.92v1.45h-4.92v4.64h5.5V225h-7.26v-13.5h7.26V213Z"/><path class="cls-2" d="M425.48,224.67a3.94,3.94,0,0,1-1.65-1.31,3.35,3.35,0,0,1-.62-2h1.87a2.5,2.5,0,0,0,.79,1.6,2.8,2.8,0,0,0,2,.65,2.9,2.9,0,0,0,2-.63,2.06,2.06,0,0,0,.73-1.62,1.84,1.84,0,0,0-.43-1.25,2.68,2.68,0,0,0-1.06-.74,15.77,15.77,0,0,0-1.72-.54,14.92,14.92,0,0,1-2.14-.7,3.34,3.34,0,0,1-1.37-1.09,3.15,3.15,0,0,1-.58-2,3.39,3.39,0,0,1,.57-2,3.65,3.65,0,0,1,1.57-1.32,5.57,5.57,0,0,1,2.33-.46,4.9,4.9,0,0,1,3.11.94,3.5,3.5,0,0,1,1.36,2.52h-1.93a2.13,2.13,0,0,0-.82-1.37,2.89,2.89,0,0,0-1.89-.59,2.73,2.73,0,0,0-1.8.57,2,2,0,0,0-.7,1.6,1.72,1.72,0,0,0,.42,1.2,2.84,2.84,0,0,0,1,.71c.41.16,1,.34,1.72.55a15.06,15.06,0,0,1,2.14.72,3.71,3.71,0,0,1,1.4,1.1,3.26,3.26,0,0,1,.58,2,3.54,3.54,0,0,1-.53,1.85,3.78,3.78,0,0,1-1.54,1.41,5,5,0,0,1-2.42.55A5.7,5.7,0,0,1,425.48,224.67Z"/><path class="cls-2" d="M436.83,224.67a3.94,3.94,0,0,1-1.65-1.31,3.35,3.35,0,0,1-.62-2h1.88a2.45,2.45,0,0,0,.78,1.6,2.81,2.81,0,0,0,2,.65,2.9,2.9,0,0,0,2-.63,2,2,0,0,0,.73-1.62,1.79,1.79,0,0,0-.43-1.25,2.61,2.61,0,0,0-1.06-.74,15.77,15.77,0,0,0-1.72-.54,15.36,15.36,0,0,1-2.14-.7,3.41,3.41,0,0,1-1.37-1.09,3.21,3.21,0,0,1-.57-2,3.38,3.38,0,0,1,.56-2,3.65,3.65,0,0,1,1.57-1.32,5.59,5.59,0,0,1,2.34-.46,4.89,4.89,0,0,1,3.1.94,3.47,3.47,0,0,1,1.36,2.52h-1.93a2.15,2.15,0,0,0-.81-1.37,2.92,2.92,0,0,0-1.9-.59,2.77,2.77,0,0,0-1.8.57,2,2,0,0,0-.69,1.6,1.72,1.72,0,0,0,.41,1.2,2.79,2.79,0,0,0,1,.71c.4.16,1,.34,1.71.55a15.71,15.71,0,0,1,2.15.72,3.68,3.68,0,0,1,1.39,1.1,3.2,3.2,0,0,1,.58,2,3.62,3.62,0,0,1-.52,1.85,3.87,3.87,0,0,1-1.55,1.41,5,5,0,0,1-2.42.55A5.73,5.73,0,0,1,436.83,224.67Z"/><path class="cls-2" d="M448.06,213v4.51H453v1.45h-4.91v4.64h5.49V225H446.3v-13.5h7.25V213Z"/><path class="cls-2" d="M466.82,225h-1.76L458,214.28V225h-1.76v-13.5H458l7.08,10.71V211.51h1.76Z"/><path class="cls-2" d="M480,215.44a4.19,4.19,0,0,0-1.62-1.83,4.7,4.7,0,0,0-2.48-.65,5,5,0,0,0-2.54.65,4.5,4.5,0,0,0-1.78,1.86,6.31,6.31,0,0,0,0,5.58,4.51,4.51,0,0,0,1.78,1.84,5,5,0,0,0,2.54.65,4.59,4.59,0,0,0,3.25-1.18,4.87,4.87,0,0,0,1.49-3.19h-5.38v-1.43h7.25v1.35a6.69,6.69,0,0,1-1,3,6.36,6.36,0,0,1-2.34,2.18,6.51,6.51,0,0,1-3.23.81,6.86,6.86,0,0,1-3.42-.88,6.48,6.48,0,0,1-2.45-2.45,7,7,0,0,1-.9-3.54,7,7,0,0,1,.9-3.55,6.43,6.43,0,0,1,2.45-2.46,7.19,7.19,0,0,1,7.22.19,6.09,6.09,0,0,1,2.41,3Z"/><path class="cls-2" d="M486.62,213v4.51h4.92v1.45h-4.92v4.64h5.5V225h-7.26v-13.5h7.26V213Z"/><path class="cls-2" d="M501.88,225l-3.21-5.51h-2.12V225h-1.76V211.53h4.35a5.73,5.73,0,0,1,2.58.52,3.7,3.7,0,0,1,1.58,1.41A4.2,4.2,0,0,1,503,218a3.93,3.93,0,0,1-2.41,1.41L504,225Zm-5.33-6.92h2.59a3,3,0,0,0,2.15-.71,2.56,2.56,0,0,0,.71-1.89,2.38,2.38,0,0,0-.71-1.85,3,3,0,0,0-2.15-.66h-2.59Z"/><path class="cls-2" d="M571.51,208.71a1.87,1.87,0,1,1-1.86-1.89A1.87,1.87,0,0,1,571.51,208.71Z"/><path class="cls-2" d="M571.44,216.07a1.87,1.87,0,1,1-1.85-1.88A1.87,1.87,0,0,1,571.44,216.07Z"/><path class="cls-2" d="M571.38,223.44a1.87,1.87,0,1,1-1.86-1.88A1.87,1.87,0,0,1,571.38,223.44Z"/><rect class="cls-17" x="103.13" y="467.41" width="275.19" height="202.57" rx="20.64" transform="translate(-330.08 804.34) rotate(-89.49)"/><rect class="cls-17" x="105.91" y="470.18" width="269.65" height="197.02" rx="17.86" transform="translate(-330.08 804.34) rotate(-89.49)"/><path class="cls-2" d="M180.89,498.17a8.61,8.61,0,0,0,0-2,8.43,8.43,0,0,0-.87-3.06c-.19-.36-.32-.41-.69-.25s-.75.32-1.13.5-.43.31-.26.73l.08.22a8.8,8.8,0,0,1,.35,1,5.15,5.15,0,0,1,.09,2.52,1,1,0,0,1-.94.87,3.69,3.69,0,0,1-1.39-.14l0-.24.09-.67a9.88,9.88,0,0,0-.16-3.62,3.61,3.61,0,0,0-3.94-3.06,2.69,2.69,0,0,0-1.68.8,4.5,4.5,0,0,0-1.26,3.05c0,.22,0,.45,0,.67a15.26,15.26,0,0,0,.65,4.32.7.7,0,0,0,.6.55l2.61.48,2.6.49.15,0a7.38,7.38,0,0,0,1.7.19A3.48,3.48,0,0,0,180.89,498.17ZM174,498.1l-2.25-.39,0-.14c0-.14-.05-.28-.07-.41a9.14,9.14,0,0,1-.11-2,2.17,2.17,0,0,1,.3-1,.84.84,0,0,1,.67-.42,1.35,1.35,0,0,1,1.51,1.16,5.12,5.12,0,0,1,.15,1.38c0,.27,0,.52,0,.75s0,.51-.09.77C174,497.89,174,498,174,498.1Z"/><path class="cls-2" d="M180.56,535.76a9.21,9.21,0,0,0-.08-2.75,7.58,7.58,0,0,0-.8-2.42c-.13-.23-.28-.36-.58-.24s-.85.37-1.35.61c-.28.13-.25.34-.18.54l.1.25,0,.09a6.07,6.07,0,0,1,.5,1.73,5.24,5.24,0,0,1-.06,1.76,1,1,0,0,1-.86.87,3.15,3.15,0,0,1-1.48-.13l0-.23c0-.22.06-.44.08-.66a9.72,9.72,0,0,0-.15-3.62c-.53-2.12-2-3.27-4-3.07a2.7,2.7,0,0,0-1.66.79,4.51,4.51,0,0,0-1.26,3.08c0,.21,0,.43,0,.64a15.35,15.35,0,0,0,.65,4.31.71.71,0,0,0,.63.57l2.81.52,2.36.44.17,0a8.09,8.09,0,0,0,1.72.19A3.5,3.5,0,0,0,180.56,535.76Zm-6.9-.09-2.27-.39c0-.14,0-.28,0-.42-.05-.37-.1-.72-.13-1.08a4.26,4.26,0,0,1,.08-1.51,2.21,2.21,0,0,1,.23-.55.76.76,0,0,1,.66-.42,1.37,1.37,0,0,1,1.51,1.17,5.53,5.53,0,0,1,.15,1.37c0,.28,0,.53,0,.77s-.06.5-.1.77C173.69,535.47,173.68,535.57,173.66,535.67Z"/><path class="cls-2" d="M180.68,516.69a6.3,6.3,0,0,0-.15-3.44,4.94,4.94,0,0,0-3.86-3.64l-2.62-.5a4.76,4.76,0,0,0-1.84,0,3.68,3.68,0,0,0-2.37,1.6,5.12,5.12,0,0,0-.79,2.77h0c0,.17,0,.34,0,.51a10.78,10.78,0,0,0,.16,1.12,4.78,4.78,0,0,0,3.67,4c.67.16,1.36.29,2,.42l.86.16a4.71,4.71,0,0,0,1.59.1A3.93,3.93,0,0,0,180.68,516.69ZM173,511.88h.21l.33.05.9.16,2.15.4a2.57,2.57,0,0,1,1.88,3.14A1.54,1.54,0,0,1,177,516.9a3,3,0,0,1-.76-.06l-.62-.11c-.79-.14-1.61-.29-2.41-.47a2.23,2.23,0,0,1-1.71-2.2,6.05,6.05,0,0,1,0-.86,1.39,1.39,0,0,1,1.19-1.3Z"/><path class="cls-2" d="M180.89,509.11c.12-.1.13-.29.13-.56l0-1.73,2.38.36a.46.46,0,0,0,.37-.06.32.32,0,0,0,.1-.24c0-.2,0-.45,0-.71,0-.42,0-.86,0-1.2s-.17-.42-.47-.48l-1.65-.31-2.51-.46-2.36-.45-3.15-.6a5.27,5.27,0,0,0-2.18-.1,3,3,0,0,0-2.29,2.16,5.2,5.2,0,0,0-.2,1.43c0,.23,0,.48,0,.73s.12.46.46.53,1.72.29,1.74.3l.11,0v-.12s0-.58,0-.81v-.06a2.88,2.88,0,0,1,0-.59.85.85,0,0,1,.84-.78,3.88,3.88,0,0,1,.91.05c1.17.2,2.36.42,3.51.64l1.39.24.43.1.14,0v.81c0,.33,0,.66,0,1,0,.52.06.59.52.68l1.16.22A.63.63,0,0,0,180.89,509.11Z"/><path class="cls-2" d="M178.36,529.16c.42.09.85.17,1.32.25a.48.48,0,0,0,.41,0,.53.53,0,0,0,.19-.4c0-.26.07-.52.09-.79l0-.17a10.22,10.22,0,0,0-.68-4.89.69.69,0,0,0-.57-.47l-1.85-.34-1.44-.27-2.88-.54-3.44-.64a.53.53,0,0,0-.41,0,.46.46,0,0,0-.13.36c0,.28,0,.56,0,.84v1.1a.4.4,0,0,0,.35.44l.09,0,.14,0,.87.16,2,.37,3.7.69,1.61.3,0,0,.06.18A4.9,4.9,0,0,1,178,527c0,.49-.06,1-.12,1.54S177.93,529.07,178.36,529.16Z"/><path class="cls-2" d="M184,492a1.55,1.55,0,0,0,0-.22h0v-.75c0-2.73.05-5.45.07-8.18,0-.46-.1-.59-.55-.67l-.87-.17-.78-.15-2.4-.47L177.1,481l-2.32-.43-.85-.14-.39-.07-3.61-.67a.56.56,0,0,0-.44.05.52.52,0,0,0-.14.38c0,.29,0,.59,0,.88v1.16a.45.45,0,0,0,.38.47h.06l.19,0,.9.16,2.14.4,1.83.32.66.13.41.08-.05,5.61c0,.55.07.65.6.75l.43.09.76.15c.29.05.48.08.6,0s.15-.29.15-.61l0-3.84v-1.3c0-.09,0-.19,0-.3v-.05c.69.13,1.11.22,1.52.32s.83.18,1.52.31l0,3.22c0,1.12,0,2.23,0,3.35,0,.49.09.62.56.7l.55.1.53.1.51.07A.34.34,0,0,0,184,492Z"/><path class="cls-34" d="M186.14,482.79a1.65,1.65,0,0,1-.65-.66,1.9,1.9,0,0,1-.23-.89,1.86,1.86,0,0,1,.25-.88,1.59,1.59,0,0,1,.66-.65,1.75,1.75,0,0,1,.88-.23,1.79,1.79,0,0,1,.89.25,1.61,1.61,0,0,1,.65.67,1.81,1.81,0,0,1,.22.87,1.73,1.73,0,0,1-.24.87,1.61,1.61,0,0,1-.66.66,1.87,1.87,0,0,1-.89.23A1.77,1.77,0,0,1,186.14,482.79Zm1.63-.25a1.33,1.33,0,0,0,.55-.55,1.56,1.56,0,0,0,.2-.72,1.5,1.5,0,0,0-.19-.73,1.32,1.32,0,0,0-.54-.56,1.52,1.52,0,0,0-.74-.2,1.41,1.41,0,0,0-.74.19,1.36,1.36,0,0,0-.55.54,1.49,1.49,0,0,0-.2.73,1.51,1.51,0,0,0,.19.74,1.36,1.36,0,0,0,.54.55,1.39,1.39,0,0,0,.73.2A1.44,1.44,0,0,0,187.77,482.54Zm-1.2-.71a4.55,4.55,0,0,0-.54.14v-.26a2.56,2.56,0,0,1,.47-.13c.28-.05.38-.16.39-.39v-.25H186v-.26l2,0a2.43,2.43,0,0,1,0,.49.81.81,0,0,1-.17.58.51.51,0,0,1-.38.15.53.53,0,0,1-.5-.38h0A.53.53,0,0,1,186.57,481.83Zm.89-.17c.26,0,.37-.18.37-.45a1.34,1.34,0,0,0,0-.26h-.72v.26C187.08,481.48,187.23,481.66,187.46,481.66Z"/><path class="cls-2" d="M188.44,539.25a1.64,1.64,0,0,0,1.42-1.17,2.2,2.2,0,0,0-.1-1.48,2.16,2.16,0,0,0-1.63-1.38c-.37-.08-.69-.12-1-.19a1.24,1.24,0,0,0-.6,0,1.44,1.44,0,0,0-.31.13l0-2.13a1,1,0,0,1,0-.17.34.34,0,0,1,.35-.31,1.59,1.59,0,0,1,.38,0l3.95.74a.16.16,0,0,0,.12,0,.11.11,0,0,0,0-.09c0-.08,0-.64,0-.78s-.07-.16-.19-.18l-3.71-.74a2.12,2.12,0,0,0-.91-.05,1.17,1.17,0,0,0-.94.84,1.93,1.93,0,0,0-.08.58s0,2.86,0,3.9v0h0v0a2.69,2.69,0,0,0,.08.63,2,2,0,0,0,1.52,1.6l.95.19A1.94,1.94,0,0,0,188.44,539.25ZM188,538.1c-.09,0-.69-.12-1-.2a.86.86,0,0,1-.73-.83c0-.13,0-.3,0-.4a.57.57,0,0,1,.5-.52h.18s.92.15,1.19.21a1,1,0,0,1,.78,1.26.63.63,0,0,1-.61.51A1.51,1.51,0,0,1,188,538.1Z"/><path class="cls-2" d="M189.55,530.79V530c0-.12-.14-.16-.14-.16l-2.4-.52a2.14,2.14,0,0,1-.38-.13.59.59,0,0,1-.36-.46c0-.08,0-.17,0-.25v0s0-.23,0-.44l1.68.33.18,0a2.2,2.2,0,0,0,.66,0,1.55,1.55,0,0,0,1.35-1.19,2.5,2.5,0,0,0-.06-1.38,2.05,2.05,0,0,0-1.6-1.46l-1.09-.21a1.9,1.9,0,0,0-.75,0,1.43,1.43,0,0,0-1,.62,1.93,1.93,0,0,0-.33,1.09h0a3.22,3.22,0,0,0,.09.69s0,.1,0,.15h0a.92.92,0,0,1-.72-.89c0-.12,0-.24,0-.34a.56.56,0,0,1,.19-.38l.19-.14-.47-.94,0,0,0,0a1.32,1.32,0,0,0-.53.46,1.91,1.91,0,0,0-.33,1.1,3.61,3.61,0,0,0,.08.65,2,2,0,0,0,1.5,1.59c0,.24,0,.5,0,.55a2.09,2.09,0,0,0,.07.6,2,2,0,0,0,.92,1.2,2.92,2.92,0,0,0,.89.3l1.63.32.53.11c.08,0,.13,0,.17,0S189.54,530.82,189.55,530.79Zm-3.23-4.65a1.93,1.93,0,0,1,0-.34.55.55,0,0,1,.5-.51H187s1.15.19,1.43.25a1,1,0,0,1,.78,1.26.61.61,0,0,1-.6.52,1.51,1.51,0,0,1-.32,0c-.09,0-.93-.17-1.26-.25A.9.9,0,0,1,186.32,526.14Z"/><path class="cls-2" d="M190.19,523.48c0-.14,0-.74,0-.82a.18.18,0,0,0-.14-.16l-4.56-.93a.91.91,0,0,1-.72-.88,1.34,1.34,0,0,1,0-.35.58.58,0,0,1,.14-.34,1.82,1.82,0,0,1,.26-.2l-.48-.95h0a1.4,1.4,0,0,0-.57.48,2,2,0,0,0-.33,1.1,3.77,3.77,0,0,0,.09.65,2,2,0,0,0,1.52,1.59c.17.05,4.34.87,4.61.92a.17.17,0,0,0,.16,0A.15.15,0,0,0,190.19,523.48Z"/><path class="cls-2" d="M190,537.84a.57.57,0,1,0,1.14,0,.57.57,0,1,0-1.14,0Z"/><path class="cls-2" d="M190,529.25a.57.57,0,1,0,1.14,0,.57.57,0,1,0-1.14,0Z"/><path class="cls-2" d="M191.1,530.59a.57.57,0,0,0-.56-.59.57.57,0,0,0-.58.58.57.57,0,1,0,1.14,0Z"/><path class="cls-2" d="M187,520.82c.28.07,1.08.22,1.2.25a2.15,2.15,0,0,0,.65,0,1.55,1.55,0,0,0,1.35-1.19,2.52,2.52,0,0,0-.06-1.38,2,2,0,0,0-1.59-1.46l-1.09-.21a2.19,2.19,0,0,0-.76,0,1.53,1.53,0,0,0-1,.63,1.93,1.93,0,0,0-.32,1.09h0a3,3,0,0,0,.08.66A2,2,0,0,0,187,520.82Zm-.6-2.34a.57.57,0,0,1,.5-.52h.17l1.44.26a1,1,0,0,1,.78,1.26.62.62,0,0,1-.61.52,1.42,1.42,0,0,1-.31,0c-.09,0-.94-.17-1.26-.25a.92.92,0,0,1-.72-.89A1.87,1.87,0,0,1,186.39,518.48Z"/><path class="cls-35" d="M185,471.81a2.11,2.11,0,0,0,1.9-1.33c0-.1,4.1-10.1,4.42-11l0-.09a3.37,3.37,0,0,0,.38-1.37h0c0-.12-.15-.73-1.29-.74l-10.15-.09a2.91,2.91,0,0,0-2.21,1.08l2.71,7.12,3.09-7.28a.57.57,0,0,1,.28-.27.53.53,0,0,1,.39,0,.55.55,0,0,1,.28.28.48.48,0,0,1,0,.39l-3.51,8.25c.22.57,1.11,2.84,1.75,4A2.1,2.1,0,0,0,185,471.81Zm-1-1.86a.5.5,0,0,1-.31-.47.45.45,0,0,1,0-.2l4.73-11.11a.51.51,0,0,1,.67-.27.57.57,0,0,1,.27.28.53.53,0,0,1,0,.39l-4.73,11.11a.51.51,0,0,1-.28.28A.48.48,0,0,1,184.05,470Z"/><path class="cls-36" d="M174.36,457.15l-9.77-.09a1.18,1.18,0,0,0-1,.39c-.22.32-.18.86.11,1.57,0,.09,3.33,9.19,3.89,10.39l.09.22c.54,1.18,1.09,2.4,3.24,2.42l12.07.1a4.9,4.9,0,0,1-1.3-1.7c-.05-.09-3.67-9.81-4.26-11.29A2.81,2.81,0,0,0,174.36,457.15Z"/><path class="cls-35" d="M162.53,482.38l0-2.1h0a.59.59,0,0,0-.75.66c0,.47,0,.92,0,1.19v0c0,.06,0,.11-.09.1l-.39-.06c-.1,0-.14,0-.15-.15a6,6,0,0,1-.08-1.27,1.22,1.22,0,0,1,1.49-1.33l.44.07a1.62,1.62,0,0,1,1.46,1.76,1.21,1.21,0,0,1-1.51,1.31l-.33-.05A.14.14,0,0,1,162.53,482.38Zm.58-.64c.46.07.73-.17.73-.57a.76.76,0,0,0-.71-.79h0l0,1.37Z"/><path class="cls-35" d="M162.73,484.8c0-.17,0-.42,0-.57l-1.53-.23a.14.14,0,0,1-.11-.14v-.64a.1.1,0,0,1,.12-.11l4,.61c.12,0,.16.1.17.23a9.56,9.56,0,0,1,.06,1.27c0,1-.35,1.81-1.38,1.65h-.06C163,486.7,162.71,485.79,162.73,484.8Zm1.41,1.18c.49.08.68-.22.69-.86a5.56,5.56,0,0,0,0-.58l-1.4-.21c0,.11,0,.46,0,.57,0,.7.22,1,.69,1.07Z"/><path class="cls-35" d="M161.13,489.77a6,6,0,0,1-.13-1.32c0-1,.58-1.45,1.49-1.31l.46.07a1.58,1.58,0,0,1,1.44,1.76,5.4,5.4,0,0,1-.17,1.27c0,.14-.07.16-.16.15l-2.77-.42C161.2,490,161.16,489.92,161.13,489.77Zm2.58-.29a4.25,4.25,0,0,0,0-.61c0-.55-.35-.74-.83-.81l-.45-.07c-.48-.08-.84,0-.85.56a5,5,0,0,0,0,.62Z"/><path class="cls-35" d="M159.81,492.14A4.53,4.53,0,0,1,160,491c0-.09.06-.12.14-.11l.32,0a.14.14,0,0,1,.09.14h0c0,.28-.08.89-.09,1.18,0,.53.11.62.52.68h0a6.19,6.19,0,0,1-.05-.63c0-1,.58-1.45,1.49-1.31l1.77.26a.15.15,0,0,1,.11.15V492a.1.1,0,0,1-.11.11l-1.77-.26c-.48-.08-.84,0-.85.56,0,.15,0,.44,0,.62l2.55.39a.14.14,0,0,1,.12.15v.59a.1.1,0,0,1-.12.11l-3.18-.48C160.14,493.64,159.8,493.12,159.81,492.14Z"/><path class="cls-35" d="M160.88,499.09v-.61a.1.1,0,0,1,.12-.1l2.11.32c.4.06.48-.08.48-.38v-.15c0-.38-.18-.46-.47-.5l-2.1-.32a.15.15,0,0,1-.12-.14v-.61a.1.1,0,0,1,.12-.1l2.11.32c.29,0,.47,0,.48-.36v-.15c0-.3-.07-.46-.47-.52l-2.1-.32a.14.14,0,0,1-.12-.14v-.61a.1.1,0,0,1,.12-.1l2.11.32a1.29,1.29,0,0,1,1.1,1.47v.15a1.17,1.17,0,0,1-.24.81,1.65,1.65,0,0,1,.22.9v.15c0,.82-.41,1.24-1.14,1.13l-2.11-.32A.15.15,0,0,1,160.88,499.09Z"/><path class="cls-35" d="M162.2,503.09l0-2.09h0a.6.6,0,0,0-.76.66c0,.47,0,.92,0,1.2h0c0,.07,0,.12-.09.11l-.38-.06c-.1,0-.14,0-.15-.16a5.92,5.92,0,0,1-.08-1.26,1.22,1.22,0,0,1,1.49-1.33l.43.06a1.64,1.64,0,0,1,1.47,1.77,1.2,1.2,0,0,1-1.51,1.3l-.33-.05Q162.2,503.23,162.2,503.09Zm.59-.64c.46.07.73-.16.73-.56a.77.77,0,0,0-.71-.8h0l0,1.36Z"/><path class="cls-35" d="M160.76,506.56V506a.1.1,0,0,1,.13-.1l2,.31c.28,0,.55,0,.55-.36v-.4c0-.37-.26-.47-.54-.52l-2-.3a.14.14,0,0,1-.12-.15v-.6a.1.1,0,0,1,.12-.1l2,.3a1.35,1.35,0,0,1,1.18,1.47v.4c0,.84-.51,1.21-1.22,1.1l-2-.3A.15.15,0,0,1,160.76,506.56Z"/><path class="cls-35" d="M160.72,509.22a5.56,5.56,0,0,1,0-.76c0-.64.21-1,.89-.88l3,.44c.06,0,.1.08.11.15l.09.61v0a.1.1,0,0,1-.12.09l-.58-.08v.9a.11.11,0,0,1-.12.11l-.35-.05a.14.14,0,0,1-.11-.14v-.91l-1.89-.29c-.24,0-.28.08-.28.35v.51c0,.08,0,.13-.09.12l-.36-.05A.14.14,0,0,1,160.72,509.22Z"/><path class="cls-35" d="M160.69,514.31a5.47,5.47,0,0,1-.08-1,1.43,1.43,0,0,1,1.82-1.55l.87.13a1.93,1.93,0,0,1,1.76,2.09,4.75,4.75,0,0,1-.11,1c0,.08,0,.14-.14.12l-.39-.06a.13.13,0,0,1-.12-.14v0c0-.22.06-.65.06-1,0-.54-.25-1-1.08-1.1l-.86-.13c-.82-.12-1.1.22-1.11.76,0,.35,0,.79,0,1h0c0,.09-.05.12-.12.11l-.4-.06C160.74,514.46,160.71,514.39,160.69,514.31Z"/><path class="cls-35" d="M160.56,516.57a1.21,1.21,0,0,1,1.48-1.32l.48.08a1.61,1.61,0,0,1,1.43,1.75,1.2,1.2,0,0,1-1.48,1.32l-.47-.07A1.64,1.64,0,0,1,160.56,516.57Zm1.92,1c.49.07.8-.12.81-.57a.81.81,0,0,0-.78-.81l-.48-.07c-.48-.07-.79.12-.8.57a.8.8,0,0,0,.78.81Z"/><path class="cls-35" d="M160.5,523.33v-.61a.1.1,0,0,1,.13-.1l2.1.32c.4.06.48-.08.48-.38v-.15c0-.38-.19-.46-.47-.5l-2.11-.32a.15.15,0,0,1-.12-.14v-.61a.1.1,0,0,1,.13-.1l2.1.32c.29,0,.48,0,.48-.36v-.15c0-.3-.06-.46-.46-.52l-2.11-.32a.15.15,0,0,1-.12-.14V519a.1.1,0,0,1,.13-.1l2.1.32a1.29,1.29,0,0,1,1.1,1.47v.15a1.22,1.22,0,0,1-.25.81,1.53,1.53,0,0,1,.22.89v.16c0,.82-.4,1.24-1.14,1.13l-2.11-.32A.15.15,0,0,1,160.5,523.33Z"/><path class="cls-35" d="M160.42,525.75a5.13,5.13,0,0,1,.05-.61l-1-.16a.14.14,0,0,1-.11-.15v-.59c0-.07.06-.12.12-.11l4.08.62c.09,0,.13,0,.16.2a5.82,5.82,0,0,1,.13,1.31c0,1-.58,1.45-1.49,1.31l-.45-.06A1.58,1.58,0,0,1,160.42,525.75Zm1.91,1c.48.07.84,0,.85-.57a5.11,5.11,0,0,0,0-.62l-2.05-.31c0,.18,0,.46,0,.61,0,.56.35.74.83.82Z"/><path class="cls-35" d="M160.49,530.71a6.47,6.47,0,0,1-.13-1.31c0-1,.58-1.45,1.5-1.31l.45.06a1.6,1.6,0,0,1,1.45,1.76,5.89,5.89,0,0,1-.18,1.27c0,.15-.07.17-.16.15l-2.77-.42C160.56,530.9,160.53,530.87,160.49,530.71Zm2.58-.28a3.16,3.16,0,0,0,.05-.61c0-.56-.34-.74-.83-.82l-.45-.07c-.48-.07-.84,0-.85.57a3.49,3.49,0,0,0,0,.62Z"/><path class="cls-35" d="M160.33,534.53v-.61a.1.1,0,0,1,.12-.1l2,.3c.29,0,.55,0,.56-.35v-.4c0-.37-.25-.47-.54-.52l-2-.31a.15.15,0,0,1-.12-.14v-.6a.1.1,0,0,1,.13-.1l2,.3a1.35,1.35,0,0,1,1.18,1.47v.4c0,.83-.5,1.21-1.21,1.1l-2-.3A.14.14,0,0,1,160.33,534.53Z"/><path class="cls-35" d="M159.12,536.83a4.13,4.13,0,0,1,.16-1.18c0-.09.06-.12.14-.11l.31.05a.13.13,0,0,1,.1.14h0c0,.29-.09.89-.09,1.18,0,.53.11.62.51.68h.05a6.12,6.12,0,0,1-.06-.63c0-1,.58-1.45,1.5-1.31l1.76.27a.13.13,0,0,1,.12.14v.59a.11.11,0,0,1-.12.11l-1.77-.26c-.48-.08-.84,0-.84.56a4.5,4.5,0,0,0,0,.62l2.56.39a.14.14,0,0,1,.11.15v.59c0,.07-.06.12-.12.11l-3.18-.48C159.45,538.33,159.1,537.81,159.12,536.83Z"/><path class="cls-36" d="M161.38,666.65l-.17,18.8a1.8,1.8,0,0,1-3.6,0l.17-18.81a1.8,1.8,0,0,1,3.6,0Z"/><path class="cls-36" d="M161.66,634.36l-.16,18.8a1.8,1.8,0,0,1-3.6,0l.17-18.8a1.8,1.8,0,1,1,3.59,0Z"/><path class="cls-36" d="M162,602.07l-.17,18.81a1.8,1.8,0,1,1-3.59,0l.17-18.8a1.8,1.8,0,1,1,3.59,0Z"/><path class="cls-36" d="M162.24,569.79l-.17,18.8a1.8,1.8,0,0,1-3.59,0l.16-18.8a1.8,1.8,0,1,1,3.6,0Z"/><path class="cls-36" d="M178.55,686l.26-28.88a2.48,2.48,0,0,1,2.5-2.46l19.77.18a2.48,2.48,0,0,1,2.46,2.5l-.26,28.88a2.48,2.48,0,0,1-2.5,2.45L181,688.51A2.49,2.49,0,0,1,178.55,686Zm24.07-28.67a1.57,1.57,0,0,0-1.54-1.57l-19.78-.17a1.55,1.55,0,0,0-1.57,1.54L179.47,686a1.57,1.57,0,0,0,1.54,1.57l19.78.18a1.55,1.55,0,0,0,1.57-1.54Z"/><path class="cls-2" d="M138.41,684.74l2.08-233.91a20.66,20.66,0,0,1,20.82-20.45l161.29,1.44a20.66,20.66,0,0,1,20.45,20.82L341,686.55A20.66,20.66,0,0,1,320.15,707l-161.29-1.44A20.66,20.66,0,0,1,138.41,684.74ZM340.28,452.61a17.89,17.89,0,0,0-17.71-18l-161.28-1.44a17.9,17.9,0,0,0-18,17.71l-2.08,233.91a17.89,17.89,0,0,0,17.71,18l161.28,1.44a17.89,17.89,0,0,0,18-17.71Z"/><rect class="cls-36" x="147.29" y="552.98" width="268.94" height="32.87" transform="translate(853.66 292.73) rotate(90.51)"/><rect class="cls-17" x="42.28" y="705.83" width="1003.57" height="5.79"/><path class="cls-17" d="M620.21,341.1l3.68,6.66-6.1,2,6.1,1.87-4,7-4.78-4.72,1.53,6.43H609l1.54-6.43-4.67,4.78-4.12-7.09,6.1-2-6-1.76,3.68-6.65,5.06,4.56-1.71-6.54h7.81l-1.59,6.54Z"/></svg>