<svg xmlns="http://www.w3.org/2000/svg" width="37.506" height="37.506" viewBox="0 0 37.506 37.506">
  <g id="Group_256" data-name="Group 256" transform="translate(0 0)">
    <path id="Path_334" data-name="Path 334" d="M3981.922-2262.03h0a18.753,18.753,0,0,1-18.753-18.753h0a18.753,18.753,0,0,1,18.753-18.753h0a18.753,18.753,0,0,1,18.753,18.753h0A18.753,18.753,0,0,1,3981.922-2262.03Z" transform="translate(-3963.169 2299.536)" fill="#63bedd"/>
    <g id="Group_255" data-name="Group 255" transform="translate(8.471 8.471)">
      <path id="Path_335" data-name="Path 335" d="M4009.133-2262c2.745,0,3.071.01,4.155.06a5.689,5.689,0,0,1,1.91.354,3.183,3.183,0,0,1,1.182.769,3.181,3.181,0,0,1,.769,1.182,5.691,5.691,0,0,1,.354,1.91c.049,1.084.06,1.409.06,4.154s-.011,3.071-.06,4.155a5.682,5.682,0,0,1-.354,1.909,3.179,3.179,0,0,1-.769,1.183,3.184,3.184,0,0,1-1.182.769,5.7,5.7,0,0,1-1.91.354c-1.084.049-1.409.06-4.155.06s-3.071-.011-4.155-.06a5.69,5.69,0,0,1-1.909-.354,3.188,3.188,0,0,1-1.182-.769,3.182,3.182,0,0,1-.769-1.183,5.682,5.682,0,0,1-.354-1.909c-.049-1.084-.06-1.409-.06-4.155s.01-3.07.06-4.154a5.691,5.691,0,0,1,.354-1.91,3.184,3.184,0,0,1,.769-1.182,3.187,3.187,0,0,1,1.182-.769,5.682,5.682,0,0,1,1.909-.354c1.084-.05,1.409-.06,4.155-.06m0-1.853c-2.793,0-3.143.012-4.24.062a7.556,7.556,0,0,0-2.5.478,5.042,5.042,0,0,0-1.821,1.186,5.034,5.034,0,0,0-1.186,1.821,7.544,7.544,0,0,0-.478,2.5c-.05,1.1-.062,1.447-.062,4.239s.012,3.143.062,4.24a7.545,7.545,0,0,0,.478,2.5,5.038,5.038,0,0,0,1.186,1.821,5.039,5.039,0,0,0,1.821,1.186,7.556,7.556,0,0,0,2.5.478c1.1.05,1.447.062,4.24.062s3.143-.012,4.239-.062a7.556,7.556,0,0,0,2.5-.478,5.038,5.038,0,0,0,1.822-1.186,5.044,5.044,0,0,0,1.186-1.821,7.544,7.544,0,0,0,.478-2.5c.05-1.1.062-1.447.062-4.24s-.012-3.142-.062-4.239a7.543,7.543,0,0,0-.478-2.5,5.04,5.04,0,0,0-1.186-1.821,5.041,5.041,0,0,0-1.822-1.186,7.556,7.556,0,0,0-2.5-.478c-1.1-.05-1.447-.062-4.239-.062" transform="translate(-3998.851 2263.855)" fill="#fff"/>
      <path id="Path_336" data-name="Path 336" d="M4025.2-2242.783a5.28,5.28,0,0,0-5.28,5.28,5.28,5.28,0,0,0,5.28,5.28,5.28,5.28,0,0,0,5.28-5.28,5.28,5.28,0,0,0-5.28-5.28m0,8.708a3.428,3.428,0,0,1-3.428-3.427,3.428,3.428,0,0,1,3.428-3.427,3.427,3.427,0,0,1,3.427,3.427,3.428,3.428,0,0,1-3.427,3.427" transform="translate(-4014.92 2247.785)" fill="#fff"/>
      <path id="Path_337" data-name="Path 337" d="M4062.554-2247.626a1.234,1.234,0,0,1-1.234,1.234,1.234,1.234,0,0,1-1.234-1.234,1.234,1.234,0,0,1,1.234-1.234,1.234,1.234,0,0,1,1.234,1.234" transform="translate(-4045.549 2252.42)" fill="#fff"/>
    </g>
  </g>
</svg>
