<svg id="Layer_1" data-name="Layer 1" xmlns="http://www.w3.org/2000/svg" xmlns:xlink="http://www.w3.org/1999/xlink" viewBox="0 0 815.8 497.09"><defs><style>.cls-1,.cls-29{fill:none;}.cls-2{clip-path:url(#clip-path);}.cls-3,.cls-4,.cls-5{fill:#1a2b4c;}.cls-3{stroke:#ed743b;stroke-width:2px;}.cls-29,.cls-3{stroke-miterlimit:10;}.cls-17,.cls-5{opacity:0.2;}.cls-6{fill:#f2f4f4;}.cls-11,.cls-7{fill:#4a556f;}.cls-8{fill:#fff;}.cls-9{fill:#e2e2e2;}.cls-10,.cls-11{isolation:isolate;}.cls-11{font-size:10.48px;font-family:Poppins-Regular, Poppins;}.cls-12{fill:#84cde3;}.cls-13{fill:#2a415d;}.cls-14{fill:#e96423;}.cls-15{fill:#5f6a80;}.cls-16{fill:#ed743c;}.cls-18{fill:#0b192d;}.cls-19{fill:#dadada;}.cls-20{fill:#a5a4a5;}.cls-21{fill:#63bcdc;}.cls-22{fill:#4da7bc;}.cls-23{fill:#f4a79f;}.cls-24{fill:#eaeaea;}.cls-25{fill:#e96424;}.cls-26{fill:#263238;}.cls-27{fill:#57b2cf;}.cls-28{fill:#f4a69f;}.cls-29{stroke:#f4a69f;stroke-width:9px;}.cls-30{fill:#ef8050;}.cls-31{fill:#da6022;}.cls-32{fill:#ed743b;}.cls-33{fill:#dd8576;}.cls-34{fill:#f197b9;}.cls-35{fill:#465a64;}</style><clipPath id="clip-path"><rect class="cls-1" x="35.42" y="-23.96" width="739.4" height="515.73"/></clipPath></defs><g class="cls-2"><path class="cls-3" d="M221.18,595.64c-5.48,0-19.56-25.64-22-29.47-12.51-19.45-23-40.59-29.93-62.68a236.43,236.43,0,0,1-.18-140.2C187.88,303,231.45,251.11,286.9,220.85c40.93-22.33,88-32.87,134.5-31.36,47.31,1.53,90.14,20.13,126.76,50.09A253.09,253.09,0,0,1,585.28,277c76.22,95.06,72.35,224.31-1.44,318.63H716c3.9,0,12.87-51.91,13.56-55.59,8.14-43.48,11.63-88.08,8.63-132.26-6.34-93.27-47.5-176.5-119.64-236.45-41.5-34.48-91.1-59.43-144-70.61C386.17,82,291,102.16,216.15,152.36,142.48,201.78,89.39,272.77,72.32,360.71c-15.17,78.21-4.27,160.63,23.11,234.93Z"/></g><path class="cls-4" d="M815.8,494.27c-115.28,5.1-290.86,2.38-407.9,3C301.82,496.68,130,499,25.49,495.12L0,494.27l25.49-.84c103.86-3.91,276.9-1.57,382.41-2.16,117.43.65,292-2.12,407.9,3Z"/><ellipse class="cls-5" cx="386.73" cy="463.12" rx="30.1" ry="223.4" transform="translate(-80.21 845.23) rotate(-89.43)"/><path id="Rectangle_8409" data-name="Rectangle 8409" class="cls-6" d="M337.89,5.24l197.93.32c12.1,0,12.39,7.64,12.39,19.75V444.25c0,12.1-14.73,22.28-26.83,22.28H344c-12.1,0-27.86-8.48-27.86-20.59l2-432.33C318.1,1.51,325.79,5.24,337.89,5.24Z"/><circle id="Ellipse_188" data-name="Ellipse 188" class="cls-7" cx="428.02" cy="136.28" r="48.66"/><path id="Path_6900" data-name="Path 6900" class="cls-8" d="M442.92,117.89c0,8.24-6.68,17.13-14.92,17.13s-14.92-8.89-14.92-17.13,6.68-14.08,14.92-14.08S442.92,109.65,442.92,117.89Z"/><path id="Path_6901" data-name="Path 6901" class="cls-8" d="M409.49,166.74h36.42a8.81,8.81,0,0,0,8.38-6.12l1.95-6.13a8.8,8.8,0,0,0-5.32-11c-14.82-5.42-30.14-4.73-45.84.5a8.77,8.77,0,0,0-5.62,10.64l1.51,5.56A8.8,8.8,0,0,0,409.49,166.74Z"/><rect id="Rectangle_8410" data-name="Rectangle 8410" class="cls-9" x="342.78" y="235.02" width="179.55" height="27.62" rx="4.79"/><rect id="Rectangle_8411" data-name="Rectangle 8411" class="cls-9" x="341.81" y="280.09" width="179.55" height="27.62" rx="4.79"/><rect id="Rectangle_8412" data-name="Rectangle 8412" class="cls-9" x="446.53" y="322.97" width="75.22" height="28.36" rx="4.28"/><g id="Login" class="cls-10"><text class="cls-11" transform="translate(467.97 337.41)">Login</text></g><path id="Rectangle_8413" data-name="Rectangle 8413" class="cls-12" d="M358.41,241.28H450a7.67,7.67,0,0,1,7.68,7.67h0a7.67,7.67,0,0,1-7.68,7.67H358.41a7.66,7.66,0,0,1-7.67-7.67h0A7.66,7.66,0,0,1,358.41,241.28Z"/><circle id="Ellipse_189" data-name="Ellipse 189" class="cls-12" cx="354.45" cy="293.13" r="6.3"/><circle id="Ellipse_190" data-name="Ellipse 190" class="cls-12" cx="371.74" cy="293.45" r="6.3"/><circle id="Ellipse_191" data-name="Ellipse 191" class="cls-12" cx="388.37" cy="294.25" r="6.3"/><circle id="Ellipse_192" data-name="Ellipse 192" class="cls-12" cx="405.66" cy="294.59" r="6.3"/><circle id="Ellipse_193" data-name="Ellipse 193" class="cls-12" cx="422.95" cy="294.42" r="6.3"/><circle id="Ellipse_194" data-name="Ellipse 194" class="cls-12" cx="440.23" cy="294.75" r="6.3"/><path class="cls-13" d="M537.76,0H327.44a21.38,21.38,0,0,0-21.33,21.41V450.49A21.39,21.39,0,0,0,327.39,472H537.76a21.4,21.4,0,0,0,21.31-21.47v-429A21.4,21.4,0,0,0,537.76,0Zm8,437.23c0,11.29-8.53,20.42-19.06,20.42H338.55c-10.56,0-19.1-9.13-19.1-20.42V37.74c0-23,8.54-24.13,19.1-24.13h37.74c2.18,0,4,2.47,4,5.52v1.29c0,7.17,3.9,7.2,8.81,7.2h87.19c4.91,0,8.84,0,8.84-7.2V19.18c0-3.05,1.77-5.51,4-5.51h37.75c10.52,0,19.06,3,19.06,24.12Z"/><path class="cls-5" d="M528.84,222.68s-65.73,82.75,36.47,92.66Z"/><path id="Path_6932" data-name="Path 6932" class="cls-14" d="M511.48,262.21c0-30.94,26.2-56,57.66-56,30.52,0,54.6,23.76,54.6,53.07s-24.08,54.32-54.6,55.93C537.69,316.83,511.48,293.14,511.48,262.21Z"/><path id="Path_6933" data-name="Path 6933" class="cls-15" d="M516.74,262.06c0-28,23.75-50.77,52.25-50.77,27.67,0,49.49,21.54,49.49,48.09s-21.83,49.24-49.49,50.7C540.49,311.57,516.74,290.1,516.74,262.06Z"/><path id="Path_6934" data-name="Path 6934" class="cls-8" d="M552.06,258.87h-4.69V240.21a14.54,14.54,0,0,1,12.76-14.41l9.58-1.16a14.51,14.51,0,0,1,16.17,12.64,15,15,0,0,1,.11,1.77v16.29H581.3V239.05a9.84,9.84,0,0,0-9.84-9.82,9.34,9.34,0,0,0-1.18.07l-9.58,1.17a9.84,9.84,0,0,0-8.64,9.76Z"/><path id="Path_6935" data-name="Path 6935" class="cls-8" d="M546,254.69l41-2.28a2.91,2.91,0,0,1,3.06,2.74.92.92,0,0,1,0,.16v32.53a2.91,2.91,0,0,1-2.91,2.91H547.14a2.91,2.91,0,0,1-2.91-2.82l-1-30.24A2.91,2.91,0,0,1,546,254.69Z"/><path id="Path_6936" data-name="Path 6936" class="cls-16" d="M573.38,281.43l-2.48-7.14a2.37,2.37,0,0,1,.54-2.47,6.76,6.76,0,1,0-9.57.07l.5.44a2.4,2.4,0,0,1,.78,2.66l-2.24,6.44a2.42,2.42,0,0,0,1.49,3.07,2.34,2.34,0,0,0,.79.13h7.92a2.4,2.4,0,0,0,2.4-2.41,2.34,2.34,0,0,0-.13-.79Z"/><g id="freepik--Shadow--inject-11" class="cls-17"><ellipse class="cls-4" cx="319.77" cy="487.06" rx="4.47" ry="44.65" transform="translate(-191.1 767.21) rotate(-85.45)"/><ellipse class="cls-18" cx="319.77" cy="487.06" rx="4.47" ry="44.65" transform="translate(-191.1 767.21) rotate(-85.45)"/></g><g id="freepik--Shadow--inject-11-2" data-name="freepik--Shadow--inject-11" class="cls-17"><ellipse class="cls-4" cx="381.51" cy="481.37" rx="37.4" ry="4.57"/><ellipse class="cls-18" cx="381.51" cy="481.37" rx="37.4" ry="4.57"/></g><polygon class="cls-19" points="315.11 358.04 317.86 374.54 336.5 475.17 339.5 475.17 325.95 374.54 323.95 358.04 315.11 358.04"/><polygon class="cls-20" points="323.95 358.04 315.11 358.04 317.86 374.54 325.95 374.54 323.95 358.04"/><polygon class="cls-4" points="256.59 475.17 259.6 475.17 278.23 374.54 280.99 358.04 272.14 358.04 270.14 374.54 256.59 475.17"/><polygon class="cls-21" points="272.14 358.04 270.14 374.54 278.23 374.54 280.99 358.04 272.14 358.04"/><polygon class="cls-4" points="200.69 475.17 203.69 475.17 222.33 374.54 225.08 358.04 216.25 358.04 214.24 374.54 200.69 475.17"/><polygon class="cls-22" points="214.24 374.54 222.33 374.54 225.08 358.04 216.25 358.04 214.24 374.54"/><polygon class="cls-4" points="205.45 365.78 342.02 365.78 342.02 351.4 290.9 351.4 273.72 276.46 210.67 276.46 205.45 365.78"/><polygon class="cls-21" points="205.45 365.78 212.91 365.78 217.75 276.46 210.67 276.46 205.45 365.78"/><path class="cls-23" d="M422,450.37c-2.38,1.4-75.93,16.77-79.11,15.59-1.16-.44-4.07-11-7.17-23.91-.67-2.78-1.34-5.66-2-8.58-4.36-19-8.58-39.19-8.58-39.19l49.17-10.44,7.19,39.53,1.59,8.67s30.8,6.72,34.14,8.39S424.4,449,422,450.37Z"/><path class="cls-24" d="M422,450.37c-2.38,1.4-75.93,16.77-79.11,15.59-1.16-.44-4.07-11-7.17-23.91-.67-2.78-1.34-5.66-2-8.58-.16-.68-.32-1.37-.47-2.05l48.11-9,.18.93,1.58,8.67s30.8,6.71,34.14,8.38S424.4,449,422,450.37Z"/><path class="cls-25" d="M422.42,450.38c-2.42,1.42-76.82,16.86-80,15.65-1.23-.44-4.11-11.13-7.21-24.16,0-.13-.07-.26-.1-.4L383,431l.15.82s31.11,6.8,34.5,8.51S424.82,449,422.42,450.38Z"/><path class="cls-26" d="M421,447.68c-12.6,2.32-63.22,12.75-75.51,16-.09,0-.08.11,0,.09,12.54-2,63.07-12.86,75.54-15.85C421.34,447.82,421.24,447.6,421,447.68Z"/><path class="cls-26" d="M388.35,430c-5.12.11-11,2.12-14.05,6.41-.11.18.13.34.27.26a70,70,0,0,1,13.91-6,.33.33,0,0,0,.26-.38A.34.34,0,0,0,388.35,430Z"/><path class="cls-26" d="M392.36,431.37c-5.13.11-11,2.11-14.05,6.4-.11.17.12.34.27.26a70,70,0,0,1,13.91-6,.32.32,0,0,0,.18-.42A.33.33,0,0,0,392.36,431.37Z"/><path class="cls-26" d="M396.36,432.81c-5.12.1-11,2.11-14,6.41-.12.16.12.32.27.24a70,70,0,0,1,13.91-6,.33.33,0,0,0-.14-.63Z"/><path class="cls-26" d="M392.54,417.91c-2.49-2.26-5.86-.31-7.56,1.85a26.81,26.81,0,0,0-5.25,12.86.14.14,0,0,0,.15.15.62.62,0,0,0,.71.53.6.6,0,0,0,.19-.06c3.76-2.32,8.12-4.41,11-7.85C393.52,423.38,394.89,420.06,392.54,417.91Zm-6.78,10.59c-1.82,1.16-3.7,2.32-5.48,3.58,1-2.51,2-5,3.24-7.45a29.53,29.53,0,0,1,2-3.37c1.16-1.63,6.42-5.68,6.66-.09.15,3.08-4.29,5.9-6.45,7.33Z"/><path class="cls-26" d="M366.92,434c4.43.88,9.08-.18,13.49-.65a.64.64,0,0,0,.49-.76.44.44,0,0,0-.06-.16.14.14,0,0,0,0-.19l0,0a26.77,26.77,0,0,0-12.1-6.85c-2.67-.65-6.52-.09-7.07,3.22C361.17,431.67,364.33,433.42,366.92,434Zm-3-3.07c-3.27-4.54,3.34-4.63,5.29-4a28.79,28.79,0,0,1,3.69,1.39c2.44,1.16,4.83,2.45,7.15,3.85-2.18.1-4.34.39-6.52.57C371,432.87,365.76,433.4,364,430.88Z"/><path class="cls-23" d="M356.12,485.69c-2.67.74-77.67-3.14-80.48-5.09-.6-.43.08-10.51.94-19.59.63-6.74,17-53.55,17-53.55l50.22,2.44L323.19,458s28.07,14.34,30.87,16.81S358.75,485,356.12,485.69Z"/><path class="cls-24" d="M356.12,485.69c-2.67.74-77.67-3.14-80.48-5.09-.6-.43.08-10.51.94-19.59.21-2.22,2.12-8.78,4.64-16.59l46.1,4.08L323.24,458s28.06,14.34,30.87,16.81S358.75,485,356.12,485.69Z"/><path class="cls-25" d="M357.07,486.38c-2.71.73-78.55-3.74-81.33-5.73-1-.67-.33-8.11.63-20.19.11-1.35,1.44-6.25,1.44-6.39L324,457.36l-.06.82s28.26,14.68,31.09,17.21S359.77,485.65,357.07,486.38Z"/><path class="cls-26" d="M356.43,483.39c-12.75-1.07-64.37-4.17-77.07-4.25-.1,0-.11.07,0,.08,12.64,1.34,64.26,4,77.07,4.37C356.64,483.61,356.65,483.41,356.43,483.39Z"/><path class="cls-26" d="M329.49,457.82c-5-1.24-11.18-.83-15.23,2.53-.17.13,0,.35.19.3a71.48,71.48,0,0,1,15-2.2.31.31,0,0,0,.34-.28.32.32,0,0,0-.28-.35Z"/><path class="cls-26" d="M333,460.22c-5-1.24-11.18-.83-15.23,2.53-.16.13,0,.35.19.3a71.58,71.58,0,0,1,15-2.2.31.31,0,0,0,.34-.28.32.32,0,0,0-.28-.35Z"/><path class="cls-26" d="M336.49,462.67c-5-1.23-11.17-.82-15.23,2.54-.15.13,0,.35.2.3a71.49,71.49,0,0,1,15-2.2.33.33,0,0,0,.06-.64Z"/><path class="cls-26" d="M336.72,447.24c-1.82-2.83-5.57-1.82-7.78-.18a26.82,26.82,0,0,0-8.42,11.05.13.13,0,0,0,.08.18h0a.63.63,0,0,0,.56.68.4.4,0,0,0,.19,0c4.26-1.3,8.95-2.14,12.67-4.7C336.17,452.78,338.39,449.92,336.72,447.24Zm-9.27,8.46c-2.08.69-4.16,1.27-6.22,2a79.22,79.22,0,0,1,5.07-6.35,29.07,29.07,0,0,1,2.83-2.72c1.58-1.27,7.67-3.82,6.47,1.64-.76,3-5.76,4.58-8.23,5.42Z"/><path class="cls-26" d="M307.74,456c4,2,8.81,2.2,13.19,2.89a.62.62,0,0,0,.67-.56.5.5,0,0,0,0-.21.14.14,0,0,0,.1-.17.08.08,0,0,0,0,0,26.89,26.89,0,0,0-9.88-9.76c-2.42-1.32-6.28-1.78-7.68,1.28S305.42,454.87,307.74,456Zm-2.06-3.71c-2-5.24,4.43-3.57,6.17-2.53a27.8,27.8,0,0,1,3.18,2.32c2.12,1.71,4,3.68,5.9,5.58-2.13-.47-4.27-.76-6.43-1.16-2.54-.48-7.72-1.32-8.8-4.21Z"/><path class="cls-21" d="M239.21,339.57c14.95,16.66,65.2,3.48,68.21,10.14,2.65,5.79-31.65,99.76-31.65,99.76l54.88,5.91S378,351.66,361.07,321.7c-9.15-16.23-49.46-9.74-73.78-12.69-7.33-.9-10.78-16-10.78-16H233.08S222.11,320.53,239.21,339.57Z"/><path class="cls-22" d="M345.83,312.41l-46.08,35.27c-15.3-.33-48.8,5-60.54-8.12-17.1-19-6.13-46.59-6.13-46.59h43.46s3.47,15.13,10.78,16C304.39,311.08,329.31,308.5,345.83,312.41Z"/><path class="cls-27" d="M332.75,443.14c-1.51-.48-15.75-2.07-18.89-2.4-6.28-.69-26.06-2.53-29.64-2.53a.09.09,0,0,0-.05.12s0,.05.05.05c3.11.65,15.73,2.13,18.87,2.45,6.29.65,27.89,2.75,29.64,2.57a.14.14,0,0,0,.11-.16A.15.15,0,0,0,332.75,443.14Z"/><path class="cls-27" d="M314.08,344.2c-3.53-1.75-30.28-.88-49.47-2.68-6.25-.57-12.51-1.92-17.3-6a28.7,28.7,0,0,1-8.54-14.08c-1.84-6.56-1.66-13.39-1.35-20.11.09-1.66.2-3.3.31-5,0-.09-.17-.11-.18,0-1.46,12-2.57,25.5,5.25,35.93a25.07,25.07,0,0,0,14,9.17c11.6,3.05,55.09,2.32,56.63,3.48,1.82,1.4-26.31,87.06-26.87,88.69-.1.3.44.51.57.21C289.89,427.21,317.15,345.73,314.08,344.2Z"/><path class="cls-26" d="M363.06,324.6c-2.59-6.58-8.49-10.66-17.17-12.22-.15,0-.14.18,0,.22,7.58,2.21,13,5.26,16,11.66,1.39,3,2.1,7.18,2.46,12.75,1.8,28.06-22.67,91.72-23.18,92.82a.1.1,0,0,0,0,.12.09.09,0,0,0,.12,0C344.77,424.15,373.75,351.71,363.06,324.6Z"/><path class="cls-21" d="M382.9,420.81l-41.54,8.83s32.78-97.83,17.39-110.46c-4.27-3.47-13.58-4.73-24.64,0-16.51,7.18-35.64,21.77-53.64,27.05-16.88,5-36.91.39-43.8-7.2-14.49-15.94-3.59-46.06-3.59-46.06l57-2.24s.26.73,3.11,3.25c0,0,36.76-8,52,1.36C372.72,312.16,382.9,420.81,382.9,420.81Z"/><path class="cls-27" d="M258.89,296.46a.1.1,0,0,0-.1-.1.11.11,0,0,0-.11.1,34.15,34.15,0,0,1-.51,6.7,11.53,11.53,0,0,1-3,5.57c-3.27,3.31-8,4.44-12.26,5.79-.24.09-.19.48.07.44,4.76-.74,9.77-1.94,13.25-5.51a11.58,11.58,0,0,0,3.08-6A14.13,14.13,0,0,0,258.89,296.46Z"/><path class="cls-28" d="M350.2,264.65c2.09-2.36,10.82-14.07,12.56-17.9s6-15.23,3.31-16.92-4.15,1.53-4.15,1.53,1-5.07-1.76-6.59-5,3.67-5,3.67.73-5.34-2.18-6.58-4.26,4.29-4.26,4.29.87-4.85-1.93-4.8c-3.37,0-4,9.18-6.26,13.26-.5.93-11.45,18.07-11.45,18.07Z"/><path class="cls-26" d="M348.86,225.7c-.5,6.71-1.84,9.56-5.61,14.86-.06.11.09.24.15.14,4.14-4.84,6.29-8.15,5.77-15C349.14,225.38,348.89,225.39,348.86,225.7Z"/><path class="cls-26" d="M355.21,227.93c-1.1,6.92-2.51,10-6.08,15.86-.06,0,.07.18.14.1,4-5.45,6-8.81,6.24-15.92C355.56,227.72,355.26,227.61,355.21,227.93Z"/><path class="cls-26" d="M361.74,231.65c-1.53,6.62-2.94,10.09-7.1,15.31a.16.16,0,0,0,.06.19.13.13,0,0,0,.12,0,23.06,23.06,0,0,0,7.1-15.42C362,231.3,361.83,231.24,361.74,231.65Z"/><path class="cls-29" d="M325.14,260.16c.47-4.71,5.37-7.29,8.71-9.7a.39.39,0,0,0,.12-.53.28.28,0,0,0-.09-.1c-1.7-3.66-2.9-8.34-1.49-12.27.1-.28.21-.55.32-.82a8.92,8.92,0,0,1,1.15-2.46c.18-.21.19-.27.26,0a3.23,3.23,0,0,1-.22,1.17c-.12.5-.25,1-.39,1.49a15.79,15.79,0,0,1-.61,2.32c-2.66,3.74,1.43,8.86,3.55,12.77-3.45,2.42-11.7,3.12-11.34,8.13C325.11,260.19,325.14,260.18,325.14,260.16Z"/><path class="cls-27" d="M357.7,317.32c-6.38-4-16.38-1-21.15.86-.11,0,0,.2,0,.16,4.39-1.58,15.33-4,21.19.17,13.53,9.58-4.58,75.08-16.44,111.13-.18.57.26.42.51-.12,2-4.28,17.25-49.85,21.24-80C363.71,344.92,366.86,323.09,357.7,317.32Z"/><path class="cls-27" d="M378.16,409.76c-1.25,0-12,2.32-14.39,2.88-4.75,1.07-15.75,3.92-18.32,4.89-.06,0,0,.17.06.16,2.46-.23,8.19-1.49,10.56-2,4.74-1.1,21-5,22.17-5.63C378.35,410,378.29,409.76,378.16,409.76Z"/><path class="cls-27" d="M355.66,315.61c-4.3-2.31-9.41-2.73-14.19-2.14A49.26,49.26,0,0,0,327,318c-9.72,4.44-19,9.88-28.71,14.29s-20,7.84-30.67,8.12c-9.12.29-20.66-1.32-26.52-9.52-9-12.63-3.77-34.43-3.67-35.83,0-.1-.14-.1-.16,0-6.95,26.78,2,37.18,8.11,41.55,4.84,3.47,11.77,4.36,16.36,4.74,10.61.89,21.25-1.71,31.08-5.62,10.07-4,19.53-9.42,29.19-14.36,9.27-4.74,19.57-9.62,30.14-6.95a25.36,25.36,0,0,1,3.48,1.16C355.69,315.74,355.72,315.64,355.66,315.61Z"/><path class="cls-15" d="M303.23,230.83a.5.5,0,0,1-.4.54l-2.1.14c-1.88-4.9-3.91-8.78-3.37-7.26a25.39,25.39,0,0,1,1.31,7.38l-4.14.21c-1.64-8.61-3.74-15-3.61-13,.53,7.95.06,10.51-.49,13.24-10,.47-23.1.95-32.59,1.07-1.09-4.75-2-9.91-2.22-9.55-1.29,2.69-1.64,6.6-1.67,9.61-3,0-5.43,0-6.95-.11,0,0-.71-4-.81-5.32a27.67,27.67,0,0,1,1.05-10,50.43,50.43,0,0,1,4.38-9.28v-.07h0a27.25,27.25,0,0,0,2.52-6.21h0a29.59,29.59,0,0,0,.78-4.78c.44-5.87,3.74-11,9.27-12.53,10.43-9.84,20.87-5.71,24.07,1.84.3.73.59,1.57.88,2.49h0c1.06,3.41,2,7.81,2.92,11.22h0a34,34,0,0,0,1.24,3.94C296.15,210.46,302.12,213.94,303.23,230.83Z"/><path class="cls-15" d="M261.91,186.37a11.16,11.16,0,0,0-6.41,9,28.47,28.47,0,0,1-1.45,7.31,26,26,0,0,1-4.18,6.44,19.1,19.1,0,0,0-4.74,10.55A32.44,32.44,0,0,0,246.37,233h0a34.14,34.14,0,0,1-.48-13.91c.78-4.64,3.42-7.59,6.12-11.13a19.59,19.59,0,0,0,4-9.54c.26-2.12.23-4.32,1.09-6.33a12.52,12.52,0,0,1,5.06-5.26.26.26,0,0,0,0-.36A.25.25,0,0,0,261.91,186.37Z"/><path class="cls-15" d="M299.53,210.9c-2.56-3.34-5.22-6.18-6.73-10.31-1.37-3.77-2.14-7.75-3.48-11.52h-.09c2.14,6.69,2.56,13.44,6.88,19.06,2.32,3.05,4.64,5.88,6.24,9.54a32.57,32.57,0,0,1,2.44,12.09.1.1,0,1,0,.2,0h0A27,27,0,0,0,299.53,210.9Z"/><path class="cls-23" d="M273.2,242.77c6.38,21.31,23.5,50.31,32.17,51.72,4.13.68,11.36,2.76,17.49-1.15,13.39-8.61,26.25-26.94,30-38,1.32-3.93-17-15.6-20.41-12.75-7.93,6.67-18.08,20.6-19.26,20.33-4.41-1-19.63-18.08-30.23-30.14C270,218.25,270.64,234.27,273.2,242.77Z"/><path class="cls-30" d="M353,263.12s-20.86,29.36-30.76,31.63-15.38.61-18.77-.43A9.32,9.32,0,0,1,300,292c-8.42-8.11-21.73-34.47-26.57-48.88-3.63-10.83-1.69-19.85,5.66-15.75a26.49,26.49,0,0,1,6.5,5.67c12.53,14.16,27.44,28.09,28.3,27.82s11-12.1,11-12.1Z"/><path class="cls-31" d="M348.08,268.31c-1-.76-10.43-6.19-12.56-7.33s-10.59-5.87-12.84-6.86a.09.09,0,0,0-.11.06.1.1,0,0,0,0,.09c2,1.39,10.58,6.19,12.68,7.38S346.86,268,348,268.46C348.11,268.49,348.14,268.36,348.08,268.31Z"/><path class="cls-32" d="M329.2,290.55c-2.62,2.19-5,3.75-7,4.2-9.87,2.32-15.37.61-18.77-.43A9.37,9.37,0,0,1,300,292c-8.42-8.11-21.73-34.47-26.57-48.88-3.3-9.82-2-18.14,3.73-16.56C290.25,242.56,315.16,273.24,329.2,290.55Z"/><path class="cls-30" d="M292.17,273.24l2.32,18.92-65.34,4.23s15.07-54.91,26.93-67.07c8-8.23,17.09-7.35,22.75-1.3,1.43,1.53,16.32,19.71,17.93,28.58C298.17,264.45,292.17,273.24,292.17,273.24Z"/><path class="cls-31" d="M295,267.92c-12.4,1.77-38,4.46-57,.17,1.76-5.14,3.7-10.44,5.71-15.51a179.34,179.34,0,0,0,51.26-1.16,21.06,21.06,0,0,1,1.82,5.17C297.47,260.53,296.31,264.7,295,267.92Z"/><path class="cls-31" d="M291.71,243a16.11,16.11,0,0,1,1.75,3.34,12.5,12.5,0,0,1,.59,1.79,7.57,7.57,0,0,1,.28,1.88c-.45-1.16-.95-2.32-1.4-3.47A32.17,32.17,0,0,1,291.71,243Z"/><path class="cls-30" d="M258,226.33c-23,11.67-49.39,38-47.85,46.81,1.72,9.76,34.77-6.75,34.44-8.21-.29-1.25,6.65-11.74,16.57-26.77C271.25,222.87,263.69,223.45,258,226.33Z"/><path class="cls-31" d="M251.5,252.85c-3.05,4.72-5.27,8.28-6.29,10.3A168.51,168.51,0,0,1,222,253.67c2.72-2.87,5.8-5.8,9.11-8.71A133.73,133.73,0,0,0,251.5,252.85Z"/><path class="cls-23" d="M210.14,273.14c2,6.82,12.19,11.38,36.73,25.31,3.4,1.92,23.43-18.39,19.91-20.63-4.43-2.82-22.25-12.83-23.65-13.39C231.36,259.65,208.77,268.5,210.14,273.14Z"/><path class="cls-30" d="M267.17,275.45S238.93,297,238.64,296.9s-28-16.45-28.5-23.76,22.53-12.81,33-8.76S267.17,275.45,267.17,275.45Z"/><path class="cls-31" d="M257.62,272.34c-1.16.66-10,7.85-11.93,9.45s-9.75,8.11-11.59,9.9a.09.09,0,0,0,0,.13.12.12,0,0,0,.1,0c2.14-1.44,10.07-8,12-9.56s10.64-8.89,11.48-9.81C257.81,272.38,257.7,272.29,257.62,272.34Z"/><path class="cls-31" d="M230.55,263.29c2.42-.39,9.09-.94,14.5,1.77v.08a44.41,44.41,0,0,0-14.45-1.76S230.48,263.29,230.55,263.29Z"/><path class="cls-31" d="M265.44,276.78l1.71-1.39v.14l-5.6-2.78c-1.87-.93-3.75-1.82-5.64-2.7-3.76-1.79-7.57-3.48-11.43-5l-.45-.18.23-.42c2.16-3.93,4.39-7.8,6.77-11.59a128.48,128.48,0,0,1,7.68-11q-3.72,5.57-7.11,11.32c-2.26,3.84-4.5,7.69-6.57,11.59l-.22-.59c3.88,1.57,7.67,3.34,11.42,5.19,1.85.94,3.71,1.91,5.55,2.9s3.64,2,5.45,3.07l.11.07-.1.07Z"/><path class="cls-31" d="M253.05,250.22a22.58,22.58,0,0,1,2.17-2.51,17.42,17.42,0,0,1,2.55-2.14,18,18,0,0,1-2.13,2.55c-.41.39-.8.77-1.23,1.16A8.44,8.44,0,0,1,253.05,250.22Z"/><path class="cls-31" d="M230.46,291.8a26.09,26.09,0,0,1,6.57,4.08,22,22,0,0,1-3.48-1.79A23.74,23.74,0,0,1,230.46,291.8Z"/><path class="cls-23" d="M255.4,227.7s11.9,10.78,20.44,10.27,7.28-7.5,7.28-7.5-6.12-7.28-14.47-7.15A21.84,21.84,0,0,0,255.4,227.7Z"/><path class="cls-23" d="M266,227.12c.3,1.72,4.37,9.51,9.6,9.27,2.69-.08,2.75-9.5,2.75-9.5l.12-.7,1.86-9.7-13.21-7.81S265.87,226.63,266,227.12Z"/><path class="cls-33" d="M266.65,215.4a19.83,19.83,0,0,0,11.8,10.79l1.85-9.7-13.21-7.82S266.88,211.77,266.65,215.4Z"/><path class="cls-23" d="M293.9,201.66c1.52,17.26-8.65,20.12-12.37,20.44-3.38.29-14.93.86-18.22-16.15s4.27-23.18,11.95-24.26S292.39,184.39,293.9,201.66Z"/><path class="cls-26" d="M290.93,197.79a9.47,9.47,0,0,1-1.16-.22,1.92,1.92,0,0,1-1.16-.44.62.62,0,0,1,0-.75,1.55,1.55,0,0,1,1.5-.41,2.3,2.3,0,0,1,1.43.76.65.65,0,0,1-.11.92A.61.61,0,0,1,290.93,197.79Z"/><path class="cls-26" d="M279.85,198.16a10.92,10.92,0,0,0,1.16-.29,1.89,1.89,0,0,0,1.16-.51.62.62,0,0,0,0-.75,1.53,1.53,0,0,0-1.52-.31,2.34,2.34,0,0,0-1.38.83.66.66,0,0,0,.18.92A.64.64,0,0,0,279.85,198.16Z"/><path class="cls-26" d="M282.24,202.46s-.09.06-.08.11c.09,1.16,0,2.54-1,3v.06C282.47,205.33,282.56,203.56,282.24,202.46Z"/><path class="cls-26" d="M281.17,201.28c-1.9,0-1.85,3.77-.09,3.82S282.76,201.33,281.17,201.28Z"/><path class="cls-26" d="M280.42,201.5c-.33.22-.65.6-1,.65s-.83-.35-1.16-.73h-.07c0,.73.29,1.47,1.08,1.58s1.15-.57,1.39-1.3C280.67,201.61,280.56,201.41,280.42,201.5Z"/><path class="cls-26" d="M288.78,202.17s.09.06.09.11c0,1.16.13,2.54,1.16,2.92v.07C288.75,205.1,288.56,203.29,288.78,202.17Z"/><path class="cls-26" d="M289.82,200.93c1.9-.15,2.08,3.66.31,3.79S288.23,201.06,289.82,200.93Z"/><path class="cls-26" d="M290.63,201.15c.3.19.62.54,1,.55s.7-.42.95-.82h0c.06.73-.15,1.49-.85,1.66s-1.16-.44-1.33-1.15C290.41,201.28,290.5,201.07,290.63,201.15Z"/><path class="cls-26" d="M282,211.76c.21.33.41.75.82.88a2.85,2.85,0,0,0,1.3,0s.07,0,0,.07a1.58,1.58,0,0,1-1.6.31,1.25,1.25,0,0,1-.68-1.21C281.82,211.71,281.91,211.71,282,211.76Z"/><path class="cls-26" d="M287.21,207.46s.29,1.76.32,2.58a4.47,4.47,0,0,1-4.4-1.22c-.07-.07,0-.18.13-.12a5.9,5.9,0,0,0,3.63.94c0-.23-.59-3-.47-3a7.36,7.36,0,0,1,1.91.38c-.49-3.68-1.57-7.25-2-10.91a.11.11,0,0,1,.11-.12.11.11,0,0,1,.11.06,59.76,59.76,0,0,1,2.65,11.65C289.28,208.18,287.55,207.65,287.21,207.46Z"/><path class="cls-26" d="M286.39,210a4.29,4.29,0,0,1-1.72,1.35,1.91,1.91,0,0,1-1.16.08c-.84-.22-.88-1-.73-1.66a4.75,4.75,0,0,1,.39-1A5.45,5.45,0,0,0,286.39,210Z"/><path class="cls-34" d="M284.67,211.33a1.84,1.84,0,0,1-1.16.08c-.84-.22-.88-1-.73-1.65A2,2,0,0,1,284.67,211.33Z"/><path class="cls-15" d="M265.73,183.86c1.53-.44,3.58-8.63-1.57-13s-12.49-.39-10.08,6.63C255.58,181.93,262.53,184.79,265.73,183.86Z"/><path class="cls-15" d="M256.57,169.79a9.32,9.32,0,0,0-3.55,5,5.63,5.63,0,0,0,1.25,5.47,11.48,11.48,0,0,0,5.21,3.07,17.07,17.07,0,0,0,3.09.61,8.4,8.4,0,0,0,3.16-.1,7.47,7.47,0,0,1-3.19.68,13,13,0,0,1-3.29-.3,11,11,0,0,1-5.86-3.16,6.26,6.26,0,0,1-1.24-6.6A8.07,8.07,0,0,1,256.57,169.79Z"/><path class="cls-15" d="M264.28,205.47c3.23.46,4.19-7,4.19-7s13.82-2.11,15.17-13.31a19,19,0,0,0,9.4,10.55s-.26-12.31-10-14.86c0,0-12-4.64-19,4.88S262.12,205.15,264.28,205.47Z"/><path class="cls-26" d="M283.7,184.39a12,12,0,0,1-.7,5.11,12.78,12.78,0,0,1-2.67,4.5c-.28.34-.64.6-.95.92l-.49.44c-.16.14-.35.25-.52.38-.37.24-.72.51-1.09.74l-1.16.6-.58.29-.62.23-1.15.45c-.85.21-1.7.39-2.53.54.8-.32,1.61-.57,2.39-.9l1.16-.55.56-.26c.19-.1.36-.21.55-.33s.71-.44,1.08-.65a9.19,9.19,0,0,0,1-.75l.5-.37.45-.43a10.44,10.44,0,0,0,.88-.88,14.67,14.67,0,0,0,2.71-4.17,16.74,16.74,0,0,0,1.25-4.91Z"/><path class="cls-23" d="M266.34,204.85s-3.78-5.4-6.24-4.06.39,9.2,3.28,10.26a2.93,2.93,0,0,0,3.88-1.46l.05-.11Z"/><path class="cls-26" d="M261,203v.07a7.46,7.46,0,0,1,3.83,4.63,1.6,1.6,0,0,0-2.19-.59l-.23.15v.11a1.81,1.81,0,0,1,2,.62,9.63,9.63,0,0,1,.95,1.6c.1.19.42.1.35-.11h0C265.74,206.88,263.69,203.29,261,203Z"/><path class="cls-35" d="M263.69,210.42a.75.75,0,0,0,1.45-.39.74.74,0,0,0-.91-.53A.76.76,0,0,0,263.69,210.42Z"/><path class="cls-26" d="M264.09,210.31a.33.33,0,0,0,.4.25h0a.36.36,0,0,0,.25-.42.37.37,0,0,0-.48-.18.34.34,0,0,0-.2.36Z"/><path class="cls-35" d="M262.41,209.51a.52.52,0,0,0,.65.38.53.53,0,0,0-.27-1h0A.53.53,0,0,0,262.41,209.51Z"/><path class="cls-31" d="M307.19,255.29a150.45,150.45,0,0,1-22.46,13.42c-1.85-3.54-3.64-7.17-5.25-10.7a131.35,131.35,0,0,0,19.2-11C301.83,250.18,304.75,253,307.19,255.29Z"/><path class="cls-31" d="M293.43,283.65c-.58-3.47-1.09-6.95-1.57-10.37v-.1l.07-.12a30.74,30.74,0,0,0,3.74-8,20.4,20.4,0,0,0,.83-4.31,14.13,14.13,0,0,0-.23-4.35,23.16,23.16,0,0,0-1.34-4.21,35.15,35.15,0,0,0-1.88-4,76.39,76.39,0,0,0-4.63-7.66,52.92,52.92,0,0,1,5.14,7.38,29.78,29.78,0,0,1,3.48,8.36,17.27,17.27,0,0,1-.58,9.07,28.28,28.28,0,0,1-4,8.12v-.22Q293,278.44,293.43,283.65Z"/><path class="cls-15" d="M260.47,301.09a24.86,24.86,0,0,0,18.32,19,26.2,26.2,0,0,0,18.57-2.49,25.52,25.52,0,0,0,12.3-15.33,27.45,27.45,0,0,0,.22-13.14l27.41-18.69,1.44.07,2.34,3.5,1.56.33,4.12-2.58.22-1.21-2.5-3.8.13-1.21,6.8-4.6,1.29.22,4.36,5.95h1.5l5.94-4.19.16-1.48-4-5.7a3.74,3.74,0,0,1,.39-1.49c.73-.88,2-.81,2.19-2.15a3.84,3.84,0,0,0-.38-2,19.85,19.85,0,0,0-3.47-5.34,5.26,5.26,0,0,0-3.8-2.22l-52.86,35.32a24.64,24.64,0,0,0-16.49-6.69,27.19,27.19,0,0,0-19.21,7.3c-4,3.78-6.36,9.74-6.93,15A24.46,24.46,0,0,0,260.47,301.09Zm24.06-15.3a10,10,0,0,1,9.46,4.47c2.73,4.16,2.39,10.57-2.16,13.49-2.39,1.53-5.39,3.61-11.13,1.47-5.22-1.93-7-8.61-4.88-13.3A10.6,10.6,0,0,1,284.53,285.79Z"/><path class="cls-23" d="M266,276.39s3.28.07,8.91,3.36a42.09,42.09,0,0,1,14,14.35c3.73,6.3,8.42,24.11,3.52,26.35-4.42,2-8.3-16.41-8.3-16.41s7.05,18.15,1.28,19.61-9.05-20.2-9.05-20.2,6.82,18.82.62,19.39c-4.68.41-8.76-19-8.76-19s5.75,16.21.95,16.85c-5.31.72-10.18-17-10.18-17-12.46-.43-15.81-3.05-19.51-7.3C240.87,295.4,266,276.39,266,276.39Z"/><path class="cls-26" d="M282.13,297.57a67.66,67.66,0,0,1,2.55,6.4c.71,2.18,1.37,4.44,1.86,6.61a38.46,38.46,0,0,1,1.16,8.87c-.46-5.31-2.9-13.13-3.62-15.31s-1.39-4.32-2.08-6.54Z"/><path class="cls-26" d="M267,300.9a67.17,67.17,0,0,1,3.76,12.88c0,.23-.13.16-.19-.07-1.17-4.31-2.06-7.69-3.73-12.75C266.85,300.88,267,300.81,267,300.9Z"/><path class="cls-26" d="M279.3,314.82c0,.23-.09.17-.14,0-.71-2.83-1.58-5.4-2.32-8.21s-1.36-5.63-2.2-8.44c0-.05.05-.06.06,0,.91,2.79,1.93,5.53,2.72,8.34"/></svg>