<svg id="Group_15542" data-name="Group 15542" xmlns="http://www.w3.org/2000/svg" width="76.989" height="76.823" viewBox="0 0 76.989 76.823">
  <path id="Path_6346" data-name="Path 6346" d="M1559.643,480.087v5.568c-.2,1.37-.345,2.765-.6,4.135a35.442,35.442,0,0,1-17.69,25.255c-9.523,5.517-19.763,6.567-30.426,4.058a1.728,1.728,0,0,0-1.011,0c-2.458,1.062-4.9,2.163-7.36,3.264h-3.3a1.263,1.263,0,0,0-.256-.141,5.7,5.7,0,0,1-3.968-5.3c-.115-1.869-.115-3.75-.243-5.632a2.036,2.036,0,0,0-.525-1.139c-1.178-1.28-2.56-2.56-3.6-3.93a36.9,36.9,0,0,1-7.488-29.121,35.061,35.061,0,0,1,9.588-19.777,38.068,38.068,0,0,1,26.561-11.712,38.926,38.926,0,0,1,19.751,4.019,35.841,35.841,0,0,1,20.122,27.418C1559.361,478.026,1559.489,479.063,1559.643,480.087ZM1500.876,516.4l6.643-2.931a6.4,6.4,0,0,1,4.378-.371,35.518,35.518,0,0,0,18.381,0,30.325,30.325,0,0,0,19.265-14.49,31.041,31.041,0,0,0,3.52-21.5,29.311,29.311,0,0,0-12.915-19.866,33.512,33.512,0,0,0-28.161-4.416c-15.974,4.16-25.14,18.753-22.938,34.779a29.555,29.555,0,0,0,9.549,18.292,6.592,6.592,0,0,1,2.253,5.12Z" transform="translate(-1482.654 -445.543)" fill="#2b415d"/>
  <path id="Path_6347" data-name="Path 6347" d="M1510.981,468.045a5.38,5.38,0,0,1,3.359,1.3l7.6,5.884a2.235,2.235,0,0,0,3.334,0l10.418-8.088a1.873,1.873,0,0,1,1.838-.493,1.707,1.707,0,0,1,1.1,1.146,1.755,1.755,0,0,1-.3,1.576c-1.7,2.8-3.422,5.573-5.07,8.36s-3.258,5.262-4.88,7.893a5.345,5.345,0,0,1-3.787,2.8,5.255,5.255,0,0,1-4.49-1.322l-7.516-5.975a2.159,2.159,0,0,0-3.143,0l-10.533,8.308a1.71,1.71,0,0,1-2.535,0,1.78,1.78,0,0,1,0-2.307l6.185-10.006,3.916-6.364a5.256,5.256,0,0,1,4.5-2.709Z" transform="translate(-1478.717 -439.798)" fill="#2b415d"/>
</svg>
