<svg id="Group_5541" data-name="Group 5541" xmlns="http://www.w3.org/2000/svg" width="72.427" height="72.272" viewBox="0 0 72.427 72.272">
  <path id="Path_6346" data-name="Path 6346" d="M1555.082,478.041v5.238c-.193,1.289-.325,2.6-.566,3.89a33.345,33.345,0,0,1-16.642,23.759c-8.959,5.19-18.593,6.178-28.624,3.817a1.626,1.626,0,0,0-.951,0c-2.312,1-4.612,2.035-6.924,3.071h-3.107a1.2,1.2,0,0,0-.241-.132,5.359,5.359,0,0,1-3.733-4.985c-.108-1.758-.108-3.528-.229-5.3a1.915,1.915,0,0,0-.494-1.072c-1.108-1.2-2.408-2.408-3.384-3.7a34.717,34.717,0,0,1-7.044-27.4,32.983,32.983,0,0,1,9.02-18.6,35.813,35.813,0,0,1,24.987-11.018,36.62,36.62,0,0,1,18.581,3.781,33.717,33.717,0,0,1,18.93,25.794C1554.817,476.1,1554.937,477.077,1555.082,478.041ZM1499.8,512.2l6.25-2.758a6.021,6.021,0,0,1,4.118-.349,33.417,33.417,0,0,0,17.292,0,28.528,28.528,0,0,0,18.123-13.632,29.2,29.2,0,0,0,3.312-20.23,27.576,27.576,0,0,0-12.15-18.689,31.526,31.526,0,0,0-26.493-4.155c-15.028,3.914-23.65,17.641-21.579,32.718a27.8,27.8,0,0,0,8.983,17.208,6.2,6.2,0,0,1,2.119,4.817Z" transform="translate(-1482.655 -445.543)" fill="#1a2b4c"/>
  <path id="Path_6347" data-name="Path 6347" d="M1510.231,467.941a5.178,5.178,0,0,1,3.191,1.2l7.225,5.467a2.156,2.156,0,0,0,3.167,0l9.9-7.514a1.806,1.806,0,0,1,1.746-.458,1.6,1.6,0,0,1,.759,2.529c-1.613,2.6-3.251,5.178-4.817,7.767s-3.095,4.889-4.636,7.334a5.07,5.07,0,0,1-7.864,1.373l-7.141-5.551a2.083,2.083,0,0,0-2.986,0l-10.007,7.719a1.65,1.65,0,0,1-2.408,0,1.626,1.626,0,0,1,0-2.143l5.876-9.3,3.721-5.913a5.009,5.009,0,0,1,4.275-2.517Z" transform="translate(-1479.939 -441.248)" fill="#1a2b4c"/>
</svg>
