<svg xmlns="http://www.w3.org/2000/svg" xmlns:xlink="http://www.w3.org/1999/xlink" viewBox="0 0 815.8 493.89"><defs><style>.cls-1,.cls-11,.cls-15,.cls-18,.cls-46,.cls-56{fill:none;}.cls-12,.cls-13,.cls-16,.cls-19,.cls-2,.cls-21,.cls-23,.cls-26{isolation:isolate;}.cls-3{clip-path:url(#clip-path);}.cls-4,.cls-5,.cls-6{fill:#1a2b4c;}.cls-4{stroke:#ed743b;stroke-width:2px;}.cls-18,.cls-4,.cls-46,.cls-56{stroke-miterlimit:10;}.cls-48,.cls-6{opacity:0.2;}.cls-7{fill:#2a415d;}.cls-8{clip-path:url(#clip-path-2);}.cls-23,.cls-26,.cls-9{fill:#fff;}.cls-10{fill:#f9f9fa;}.cls-11{stroke:#dbdada;}.cls-11,.cls-15,.cls-18{stroke-width:0.77px;}.cls-12,.cls-16{font-size:7.35px;fill:#5f6b80;}.cls-12,.cls-44{font-family:Poppins-Bold, Poppins;}.cls-12,.cls-13,.cls-44{font-weight:700;}.cls-13{font-size:7.61px;fill:#29387a;font-family:Cairo-Bold, Cairo Bold;}.cls-14{letter-spacing:-0.01em;}.cls-15{stroke:#ed7e03;}.cls-16{font-family:Poppins-SemiBold, Poppins;font-weight:600;}.cls-17{opacity:0.35;}.cls-18{stroke:#1e1d3f;}.cls-19,.cls-20,.cls-21{fill:#1e1d3f;}.cls-19{opacity:0.4;}.cls-21,.cls-23,.cls-26{font-size:6.52px;}.cls-21{font-family:Cairo-Regular, Cairo Regular;}.cls-22{fill:#4b5ea7;}.cls-23{font-family:Cairo-Medium, Cairo Medium;font-weight:500;}.cls-24{filter:url(#filter);}.cls-25{fill:#ed743c;}.cls-26{font-family:Poppins-Regular, Poppins;}.cls-27{filter:url(#filter-2);}.cls-28{fill:#e96424;}.cls-29{fill:#292c66;}.cls-30{fill:#238ccc;}.cls-31{fill:#02adcc;}.cls-32{fill:#d6d6d5;opacity:0.62;}.cls-33{fill:#7f8083;}.cls-34{fill:#231611;}.cls-35{fill:#603914;}.cls-36{fill:#2e1c13;}.cls-37{fill:#3c2415;}.cls-38{fill:url(#linear-gradient);}.cls-39{fill:url(#linear-gradient-2);}.cls-40{fill:#382314;}.cls-41{fill:url(#linear-gradient-3);}.cls-42{fill:#60c2e0;}.cls-43,.cls-44{fill:#fcfdfc;}.cls-44{font-size:1.9px;}.cls-45{fill:#dddede;}.cls-46{stroke:#dddede;stroke-width:1.23px;}.cls-47{mix-blend-mode:screen;opacity:0.05;}.cls-49{fill:#d86639;}.cls-49,.cls-66{opacity:0.4;}.cls-50{opacity:0.35;}.cls-51{fill:#f4a69f;}.cls-52{fill:#e9e9e9;}.cls-53{fill:#263238;}.cls-54{fill:#f29669;}.cls-55{fill:#da6022;}.cls-56{stroke:#57b2cf;stroke-width:8.08px;}.cls-57{fill:#ed743b;}.cls-58{fill:#dd8576;}.cls-59{fill:#f196b8;}.cls-60{fill:#f8f8f8;}.cls-61{fill:#a7d8e7;}.cls-62{fill:#e96524;}.cls-63{fill:#242049;}.cls-64{fill:#292960;}.cls-65{fill:#57b2cf;}.cls-66{fill:#4b556f;}</style><clipPath id="clip-path"><rect class="cls-1" x="35.42" y="-27.27" width="739.4" height="515.73"/></clipPath><clipPath id="clip-path-2"><path class="cls-1" d="M282.93,12.62H335c3.2,0,5.81,4.55,5.81,7.74h0a5.8,5.8,0,0,0,5.8,5.79H433a5.8,5.8,0,0,0,5.81-5.79V18.41a5.8,5.8,0,0,1,5.81-5.79h54.21a5.8,5.8,0,0,1,5.81,5.79V463.93a5.8,5.8,0,0,1-5.81,5.79H283a5.8,5.8,0,0,1-5.81-5.79l-.08-443.57C277.12,17.17,279.72,12.62,282.93,12.62Z"/></clipPath><filter id="filter"><feOffset dy="0.9" input="SourceAlpha"/><feGaussianBlur stdDeviation="4.52" result="blur"/><feFlood flood-color="#11100d"/><feComposite operator="in" in2="blur"/><feComposite in="SourceGraphic"/></filter><filter id="filter-2"><feOffset dy="0.63" input="SourceAlpha"/><feGaussianBlur stdDeviation="3.15" result="blur-2"/><feFlood flood-color="#11100d"/><feComposite operator="in" in2="blur-2"/><feComposite in="SourceGraphic"/></filter><linearGradient id="linear-gradient" x1="383.64" y1="157.55" x2="394.99" y2="157.55" gradientUnits="userSpaceOnUse"><stop offset="0" stop-color="#ad7c3a"/><stop offset="0.08" stop-color="#be9238"/><stop offset="0.18" stop-color="#d1aa36"/><stop offset="0.3" stop-color="#debb35"/><stop offset="0.42" stop-color="#e6c634"/><stop offset="0.57" stop-color="#e9c934"/><stop offset="1" stop-color="#745129"/></linearGradient><linearGradient id="linear-gradient-2" x1="374.4" y1="134.51" x2="379.8" y2="134.51" xlink:href="#linear-gradient"/><linearGradient id="linear-gradient-3" x1="399.31" y1="134.51" x2="404.71" y2="134.51" xlink:href="#linear-gradient"/></defs><g class="cls-2"><g id="Layer_1" data-name="Layer 1"><g class="cls-3"><path class="cls-4" d="M221.18,592.33c-5.48,0-19.56-25.64-22-29.47-12.51-19.45-23-40.59-29.93-62.68a236.43,236.43,0,0,1-.18-140.2c18.83-60.29,62.4-112.18,117.85-142.44,40.93-22.33,88-32.87,134.5-31.36,47.31,1.53,90.14,20.13,126.76,50.09a253.09,253.09,0,0,1,37.12,37.43c76.22,95.06,72.35,224.31-1.44,318.63H716c3.9,0,12.87-51.91,13.56-55.59,8.14-43.48,11.63-88.08,8.63-132.26C731.86,311.21,690.7,228,618.56,168c-41.5-34.48-91.1-59.43-144-70.61C386.17,78.72,291,98.85,216.15,149.05,142.48,198.47,89.39,269.46,72.32,357.4,57.15,435.61,68.05,518,95.43,592.33Z"/></g><path class="cls-5" d="M815.8,491c-115.28,5.09-290.86,2.37-407.9,3-106.08-.6-277.89,1.75-382.41-2.16L0,491l25.49-.85c103.86-3.91,276.9-1.57,382.41-2.16,117.43.65,292-2.11,407.9,3Z"/><ellipse class="cls-6" cx="377.6" cy="450.16" rx="205.63" ry="41.44"/><path class="cls-7" d="M496.48,0H285.15a21.58,21.58,0,0,0-21.43,21.72V456.93A21.59,21.59,0,0,0,285.1,478.7H496.48a21.6,21.6,0,0,0,21.41-21.77V21.79A21.61,21.61,0,0,0,496.48,0Zm8,443.47c0,11.46-8.57,20.72-19.15,20.72h-189c-10.61,0-19.19-9.26-19.19-20.72V38.28c0-23.33,8.58-24.47,19.19-24.47h37.92c2.2,0,4,2.5,4,5.6v1.3c0,7.27,3.92,7.3,8.85,7.3H434.7c4.93,0,8.88,0,8.88-7.3V19.46c0-3.1,1.77-5.6,4-5.6h37.92c10.58,0,19.16,3.1,19.16,24.47Z"/><g class="cls-8"><rect class="cls-9" x="277.48" y="8.28" width="226.59" height="458.73"/><rect id="Rectangle_9075-2" data-name="Rectangle 9075-2" class="cls-10" x="277.48" y="263.73" width="226.59" height="105.69"/><line id="Line_2548-2" data-name="Line 2548-2" class="cls-11" x1="489.98" y1="332.47" x2="291.28" y2="332.47"/><g id="Payment_Method-2" data-name="Payment Method-2"><text class="cls-12" transform="translate(291.42 284.39) scale(1.07 1)">Payment Method:</text></g><g id="Order_Lines-2" data-name="Order Lines-2" class="cls-2"><text class="cls-13" transform="translate(291.41 32.74) scale(1.07 1)">O<tspan class="cls-14" x="5.24" y="0">r</tspan><tspan x="7.65" y="0">der Lines</tspan></text></g><line id="Line_2545-4" data-name="Line 2545-4" class="cls-15" x1="490.42" y1="49.31" x2="291.72" y2="49.31"/><g id="Ellipse_52-3" data-name="Ellipse 52-3"><ellipse class="cls-1" cx="297.96" cy="350.97" rx="6.68" ry="6.25"/><ellipse class="cls-11" cx="297.96" cy="350.97" rx="6.39" ry="5.98"/></g><g id="Cash_on_Delivery-2" data-name="Cash on Delivery-2"><text class="cls-16" transform="translate(319.07 353.96) scale(1.07 1)">Cash on Delivery</text></g><rect id="Rectangle_8976-2" data-name="Rectangle 8976-2" class="cls-9" x="277.48" y="8.28" width="226.59" height="46.2"/><g id="Group_16141-2" data-name="Group 16141-2"><g id="Group-2"><g id="Battery-2"><g id="Border-2" class="cls-17"><path class="cls-1" d="M477.54,16.61h9.68a1.5,1.5,0,0,1,1.55,1.45v3.26a1.5,1.5,0,0,1-1.55,1.45h-9.68A1.51,1.51,0,0,1,476,21.32V18.06A1.51,1.51,0,0,1,477.54,16.61Z"/><path class="cls-18" d="M477.54,16.88h9.68a1.22,1.22,0,0,1,1.26,1.18v3.26a1.22,1.22,0,0,1-1.26,1.18h-9.68a1.23,1.23,0,0,1-1.26-1.18V18.06A1.23,1.23,0,0,1,477.54,16.88Z"/></g><path id="Cap-2" class="cls-19" d="M489.35,18.6v2.18a1.15,1.15,0,0,0,0-2.18"/><path id="Capacity-2" class="cls-20" d="M477.93,17.7h8.91a.75.75,0,0,1,.77.72V21a.75.75,0,0,1-.77.72h-8.91a.75.75,0,0,1-.78-.72V18.42A.75.75,0,0,1,477.93,17.7Z"/></g><path id="Wifi-2" class="cls-20" d="M468.5,22.52l-1.16-1.1a.16.16,0,0,1,0-.24h0a2.1,2.1,0,0,1,2.56,0,.18.18,0,0,1,.06.13.18.18,0,0,1-.05.12l-1.17,1.1a.18.18,0,0,1-.25,0Zm2-1.92a3,3,0,0,0-3.82,0,.2.2,0,0,1-.25,0L465.8,20a.17.17,0,0,1,0-.25h0a4.36,4.36,0,0,1,5.66,0,.17.17,0,0,1,0,.25h0l-.67.64A.21.21,0,0,1,470.54,20.6Zm1.55-1.46a5.29,5.29,0,0,0-6.92,0,.2.2,0,0,1-.25,0l-.67-.64a.16.16,0,0,1,0-.24h0a6.64,6.64,0,0,1,8.76,0,.16.16,0,0,1,0,.24l-.67.64a.2.2,0,0,1-.25,0Z"/><path id="Cellular_Connection-2" data-name="Cellular Connection-2" class="cls-20" d="M460.11,22.59a.56.56,0,0,1-.58-.54V17.33a.56.56,0,0,1,.58-.54h.58a.56.56,0,0,1,.58.54v4.72a.56.56,0,0,1-.58.54Zm-2.71,0a.56.56,0,0,1-.58-.54V18.6a.56.56,0,0,1,.58-.54H458a.56.56,0,0,1,.58.54v3.45a.56.56,0,0,1-.58.54Zm-2.71,0a.56.56,0,0,1-.58-.54V19.87a.56.56,0,0,1,.58-.54h.58a.56.56,0,0,1,.58.54v2.18a.56.56,0,0,1-.58.54Zm-2.71,0a.56.56,0,0,1-.58-.54V21a.57.57,0,0,1,.58-.55h.58a.57.57,0,0,1,.58.55v1.09a.56.56,0,0,1-.58.54Z"/></g><rect id="Rectangle_22-2" data-name="Rectangle 22-2" class="cls-5" x="277.51" y="32.85" width="226.59" height="24.46"/><g id="_Time-2" data-name=" Time-2" class="cls-2"><text class="cls-21" transform="translate(291.2 22.14) scale(1.07 1)">9:41</text></g></g><g id="Group_16142-2" data-name="Group 16142-2"><g id="Group_16138-2" data-name="Group 16138-2"><path id="Path_8383-7" data-name="Path 8383-7" class="cls-10" d="M277.48,385.48H504.07V429H277.48Z"/><g id="Group_18327-2" data-name="Group 18327-2"><rect id="Rectangle-6" class="cls-22" x="308.28" y="395.26" width="165" height="24.46"/><g id="Add_to_Cart-2" data-name="Add to Cart-2" class="cls-2"><text class="cls-23" transform="translate(374.39 409.94) scale(1.07 1)">تأكيد الطلب</text></g></g></g><g id="Group_16832-2" data-name="Group 16832-2"><g id="Group_16831-2" data-name="Group 16831-2"><g class="cls-24"><path id="Path_8383-8" data-name="Path 8383-8" class="cls-10" d="M277.48,385.48H504.07v59.25H277.48Z"/></g><g id="Group_18707-2" data-name="Group 18707-2"><path id="Rectangle-7" class="cls-25" d="M307.12,399.73H474.43a7,7,0,0,1,7.27,6.8v10.85a7,7,0,0,1-7.27,6.81H307.12a7.06,7.06,0,0,1-7.27-6.81V406.53A7,7,0,0,1,307.12,399.73Z"/><g id="Confirm-2" class="cls-2"><text class="cls-26" transform="translate(376.73 412.86) scale(1.07 1)">Confirm</text></g></g></g></g></g><g class="cls-27"><rect id="Rectangle-8" class="cls-9" x="277.48" y="441.75" width="226.59" height="25.26"/></g><g id="Group_2" data-name="Group 2"><ellipse id="Ellipse_52-4" data-name="Ellipse 52-4" class="cls-28" cx="297.96" cy="314.55" rx="6.68" ry="6.25"/><ellipse id="Ellipse_59" data-name="Ellipse 59" class="cls-9" cx="297.96" cy="314.55" rx="2.61" ry="2.45"/></g><g id="Group_18725" data-name="Group 18725"><path id="Path_35" data-name="Path 35" class="cls-29" d="M356.71,313.42c.05-.22.1-.45.14-.71a.25.25,0,0,0,0-.22.33.33,0,0,0-.23-.1l-.56-.06a6.25,6.25,0,0,0-2.81.4.36.36,0,0,0-.27.31c-.06.33-.87,4.57-1,5.19a.25.25,0,0,0,0,.22.25.25,0,0,0,.2.07h1.12a.24.24,0,0,0,.26-.19l.86-4.57a4.08,4.08,0,0,1,1.9-.1.36.36,0,0,0,.23,0,.33.33,0,0,0,.15-.23"/><path id="Path_36" data-name="Path 36" class="cls-29" d="M351.51,315l-.15.75a3.09,3.09,0,0,1-3.41,2.8,2.18,2.18,0,0,1-2.41-1.88,1.71,1.71,0,0,1,0-.32,3.05,3.05,0,0,1,.06-.6l.15-.75a3.08,3.08,0,0,1,3.4-2.8,2.13,2.13,0,0,1,2.43,2.17,4.5,4.5,0,0,1-.07.63m-2.63-1.39A1.5,1.5,0,0,0,347.4,315l-.15.75a2.31,2.31,0,0,0-.06.52.93.93,0,0,0,1,.9h.07a1.5,1.5,0,0,0,1.47-1.39l.15-.75a4.1,4.1,0,0,0,.06-.49.94.94,0,0,0-1-.91h-.07"/><path id="Path_37" data-name="Path 37" class="cls-29" d="M339.25,312.26a5.24,5.24,0,0,0-1.58.06,4.57,4.57,0,0,0-1.4.44c-.13.07-.2.15-.13.32l.36.72a.22.22,0,0,0,.31.1l.14-.06.06,0a3.74,3.74,0,0,1,1-.28,3.17,3.17,0,0,1,1,0,.58.58,0,0,1,.51.46,1.67,1.67,0,0,1-.07.8h-.13l-.38-.05a6.18,6.18,0,0,0-2.1.1A2,2,0,0,0,335.1,317a1.42,1.42,0,0,0,.47.88,2.68,2.68,0,0,0,1.78.67h.37a9.09,9.09,0,0,0,2.49-.37.48.48,0,0,0,.22-.12.43.43,0,0,0,.09-.22l.61-3.18a2.23,2.23,0,0,0-.13-1.3,1.51,1.51,0,0,0-.15-.28,2.31,2.31,0,0,0-1.59-.85m0,3.72-.24,1.23-.21,0-.63.08a2.81,2.81,0,0,1-.87,0,1.75,1.75,0,0,1-.32-.12.43.43,0,0,1-.25-.36.75.75,0,0,1,.67-.82,3.53,3.53,0,0,1,.79-.08l.44,0,.45,0,.17,0"/><path id="Path_38" data-name="Path 38" class="cls-29" d="M360.73,312.26a5.58,5.58,0,0,0-1.58.05,4.72,4.72,0,0,0-1.39.45c-.14.07-.21.15-.14.31s.22.46.36.73.2.13.31.09l.14-.05.06,0a3.47,3.47,0,0,1,1-.27,3.17,3.17,0,0,1,1,0,.58.58,0,0,1,.51.46,1.67,1.67,0,0,1-.07.8l-.13,0-.38,0a5.87,5.87,0,0,0-2.09.1,2,2,0,0,0-1.76,2.15,1.44,1.44,0,0,0,.47.89,2.68,2.68,0,0,0,1.78.67h.38a9.48,9.48,0,0,0,2.48-.37.48.48,0,0,0,.22-.12.47.47,0,0,0,.09-.22l.61-3.18a2.3,2.3,0,0,0-.12-1.3,1.18,1.18,0,0,0-.16-.29,2.3,2.3,0,0,0-1.59-.84m0,3.72-.24,1.23-.21,0-.63.07a2.55,2.55,0,0,1-.87,0,1.75,1.75,0,0,1-.32-.12.42.42,0,0,1-.24-.36.74.74,0,0,1,.67-.82,2.91,2.91,0,0,1,.78-.08h.45l.44,0,.17,0"/><path id="Path_39" data-name="Path 39" class="cls-29" d="M345.34,312h-.93l.21-1.06a.27.27,0,0,0-.23-.31h-1.12a.29.29,0,0,0-.28.21l-1.13,5.87a1.6,1.6,0,0,0,1.37,1.84l.3,0h.65a.28.28,0,0,0,.28-.22l.22-1.16h-.59a.55.55,0,0,1-.56-.53.28.28,0,0,1,0-.09l.61-3.2h1a.28.28,0,0,0,.28-.22l.16-.85a.25.25,0,0,0-.23-.3h-.05"/><path id="Path_40" data-name="Path 40" class="cls-29" d="M335.66,310.58h-5.23a.35.35,0,0,0-.35.27l-1.41,7.36a.26.26,0,0,0,.22.31h1.19a.29.29,0,0,0,.28-.21L331,315h3.37a.3.3,0,0,0,.28-.22l.16-.85a.28.28,0,0,0-.23-.31h-3.32c.07-.37.24-1.27.32-1.64h3.91a.28.28,0,0,0,.28-.22l.16-.85a.25.25,0,0,0-.23-.3h-.05"/><g id="Group_123" data-name="Group 123"><path id="Path_41" data-name="Path 41" class="cls-30" d="M320.47,314.2l3.2-1.17-3.56-1.3a.23.23,0,0,1-.14-.31.27.27,0,0,1,.33-.14l4.06,1.49,2-.71a.92.92,0,0,0,.57-1.22,1,1,0,0,0-.57-.53l-5.85-2.14a.59.59,0,0,0-.76.31.45.45,0,0,0,0,.2v5a.57.57,0,0,0,.59.55.52.52,0,0,0,.21,0m-.27-5h.1l5.37,2a.24.24,0,0,1,.14.31.26.26,0,0,1-.24.15h-.09l-5.37-2a.23.23,0,0,1-.14-.31.24.24,0,0,1,.23-.15"/><path id="Path_42" data-name="Path 42" class="cls-31" d="M326.33,312.57l-5.91,2.16a1.12,1.12,0,0,0-.75,1v4.48a.76.76,0,0,0,.79.73.69.69,0,0,0,.28-.05l5.42-2a1.19,1.19,0,0,0,.8-1.1v-6a.9.9,0,0,1-.62.72"/></g></g><rect class="cls-32" x="326.39" y="90.29" width="127.19" height="100.6" rx="14.91"/><path class="cls-32" d="M309.14,100.76v79.66c0,5.78-5,10.47-11.19,10.47H277.48V90.29H298C304.13,90.29,309.14,95,309.14,100.76Z"/><path class="cls-32" d="M472.41,100.76v79.66c0,5.78,5,10.47,11.19,10.47h20.47V90.29H483.6C477.42,90.29,472.41,95,472.41,100.76Z"/><rect class="cls-33" x="327.18" y="196.44" width="127.19" height="3.12" rx="1"/><rect class="cls-33" x="327.18" y="204.25" width="127.19" height="3.12" rx="1"/><rect class="cls-33" x="327.18" y="212.07" width="72.06" height="3.12" rx="1"/><path class="cls-34" d="M367.46,171.39a6.76,6.76,0,0,1-7-6.52V139.7a6.77,6.77,0,0,1,7-6.52h45a6.76,6.76,0,0,1,7,6.52v25.17a6.76,6.76,0,0,1-7,6.52Z"/><path class="cls-35" d="M418.94,139.7v25.17a6.26,6.26,0,0,1-6.44,6h-45a6.25,6.25,0,0,1-6.43-6V139.7a6.24,6.24,0,0,1,6.43-6h45A6.25,6.25,0,0,1,418.94,139.7Z"/><path class="cls-36" d="M418.94,140.6v11.18c-6.41,4.78-17,7.9-29,7.9s-22.54-3.12-29-7.9V140.6a6.25,6.25,0,0,1,6.43-6h45A6.26,6.26,0,0,1,418.94,140.6Z"/><path class="cls-37" d="M418.94,139.7v11.18c-6.42,4.78-17,7.9-29,7.9s-22.54-3.12-29-7.9V139.7a6.24,6.24,0,0,1,6.43-6h45A6.25,6.25,0,0,1,418.94,139.7Z"/><path class="cls-9" d="M390,158.32h-.34v-.08H390Zm.15,0v-.08h.33v.08Zm-.83,0H389v-.08h.33Zm1.5,0v-.08h.34v.08Zm-2.17,0h-.34v-.08h.34Zm2.84,0v-.07h.34v.08Zm-3.52,0h-.33v-.08H388Zm4.19,0v-.08h.33v.07Zm-4.86,0-.34,0v-.08l.34,0Zm5.53,0v-.08h.33v.08Zm-6.21,0-.33,0v-.08l.34,0Zm6.88,0v-.08l.33,0v.08Zm-7.55,0-.33,0v-.08l.34,0Zm8.22,0v-.08l.33,0v.08Zm-8.89,0-.34,0v-.08l.34,0Zm9.56,0v-.07l.34,0v.08Zm-10.23,0-.34,0V158l.34,0Zm10.9,0V158l.34,0v.08ZM383.92,158l-.34,0v-.08l.34,0Zm12.24,0V158l.34,0V158ZM383.25,158l-.33,0v-.07l.33,0Zm13.58,0v-.08l.33,0v.08Zm-14.25-.06-.33,0v-.08l.33,0Zm14.92,0v-.08l.33,0v.08Zm-15.59-.06-.33-.05v-.07l.34,0Zm16.26,0,0-.08.34,0v.08Zm-16.92-.07-.34-.05,0-.07.33,0Zm17.58,0v-.07l.33-.05,0,.08Zm-18.25-.07-.33-.05v-.08l.34,0Zm18.92,0,0-.08.34-.05v.08Zm-19.58-.08-.33-.06v-.07l.33.05Zm20.24,0v-.08l.33-.06v.08Zm-20.91-.09-.33-.06,0-.08.33.06Zm21.57,0v-.08l.33-.06,0,.08Zm-22.23-.1-.33-.06,0-.08.33.06Zm22.9,0,0-.08.33-.06,0,.08Zm-23.56-.1-.33-.07,0-.07.33.06Zm24.22,0,0-.07.33-.07v.08Zm-24.88-.1L377,157v-.08l.33.07Zm25.53,0V157l.32-.07,0,.07Zm-26.18-.11-.33-.07,0-.08.33.07Zm26.84,0,0-.07.33-.08,0,.08Zm-27.5-.12-.32-.07,0-.08.32.08Zm28.15,0,0-.08.33-.08,0,.08Zm-28.8-.13-.33-.08,0-.08.32.08Zm29.46,0,0-.08.32-.08,0,.08Zm-30.11-.13-.32-.09,0-.07.32.08Zm30.76,0,0-.08.33-.08,0,.07ZM374,156.3l-.32-.09,0-.07.33.08Zm32.05,0,0-.08.32-.09,0,.08Zm-32.69-.15L373,156l0-.08.32.1Zm33.34,0,0-.08.32-.09,0,.07Zm-34-.16-.32-.09,0-.08.32.1Zm34.63,0,0-.08.32-.09,0,.07Zm-35.27-.16-.32-.1,0-.08.32.11Zm35.91,0,0-.07.31-.1,0,.07Zm-36.54-.16-.32-.11,0-.07.31.1Zm37.18,0,0-.08.32-.1,0,.07Zm-37.82-.18-.31-.11,0-.07.31.11Zm38.45,0,0-.07.32-.11,0,.07Zm-39.08-.18-.31-.11,0-.07.31.11Zm39.71,0,0-.07.31-.12,0,.08Zm-40.33-.19-.32-.12,0-.07.31.12Zm41,0,0-.07.31-.12,0,.07Zm-41.59-.2-.31-.12,0-.07.31.12Zm42.21,0,0-.07.3-.13,0,.07Zm-42.83-.21-.3-.13,0-.07.31.13Zm43.45,0,0-.08.31-.12,0,.07Zm-44.06-.22-.3-.13,0-.07.31.13Zm44.67,0,0-.08.31-.13,0,.07Zm-45.28-.23-.3-.13,0-.07.3.13Zm45.89,0,0-.07.3-.14,0,.08Zm-46.49-.23-.3-.14,0-.07.3.14Zm47.09,0,0-.07.3-.14,0,.07Zm-47.69-.24-.29-.14,0-.07.29.15Zm48.29-.05,0-.07.29-.15,0,.07ZM365.3,153l-.29-.15,0-.07.29.16Zm49.47,0,0-.07.3-.15,0,.06Zm-50-.26a2.69,2.69,0,0,1-.29-.16l0-.07a2.69,2.69,0,0,0,.29.16Zm50.63-.06,0-.06a2.69,2.69,0,0,1,.29-.16l0,.06Zm-51.21-.26-.29-.17,0-.06.28.16Zm51.79-.06-.05-.07.29-.16,0,.06ZM363.57,152a2.61,2.61,0,0,1-.28-.17l0-.06.28.17Zm52.92-.06,0-.06.28-.18,0,.07ZM363,151.67l-.28-.18,0-.07.27.18Zm54.05-.07-.05-.06.27-.18.05.06Zm-54.61-.29-.27-.19.05-.06.27.18Zm55.16-.07-.05-.06.27-.19.05.07Zm-55.7-.31-.27-.19.05-.06.27.19Zm56.24-.06,0-.06.26-.2.06.07Zm-56.54-.43h-.09v-.31h.09Zm56.83-.11h-.08V150h.08Zm-56.83-.52h-.09v-.31h.09Zm56.83-.11h-.08v-.31h.08Zm-56.83-.51h-.09v-.32h.09Zm56.83-.11h-.08v-.32h.08Zm-56.83-.52h-.09v-.32h.09Zm56.83-.11h-.08v-.32h.08Zm-56.83-.52h-.09v-.32h.09Zm56.83-.11h-.08v-.32h.08Zm-56.83-.52h-.09V147h.09Zm56.83-.11h-.08v-.32h.08Zm-56.83-.52h-.09v-.32h.09Zm56.83-.11h-.08v-.32h.08ZM361.61,146h-.09v-.31h.09Zm56.83-.11h-.08v-.31h.08Zm-56.83-.52h-.09v-.31h.09Zm56.83-.11h-.08V145h.08Zm-56.83-.52h-.09v-.31h.09Zm56.83-.11h-.08v-.31h.08Zm-56.83-.52h-.09v-.31h.09Zm56.83-.11h-.08v-.31h.08Zm-56.83-.52h-.09v-.31h.09Zm56.83-.11h-.08v-.31h.08Zm-56.83-.52h-.09v-.31h.09Zm56.83-.11h-.08v-.31h.08Zm-56.83-.51h-.09V142h.09Zm56.83-.11h-.08v-.32h.08Zm-56.83-.52h-.09v-.32h.09Zm56.83-.11h-.08v-.32h.08ZM361.61,141h-.09v-.32h.09Zm56.83-.11h-.08v-.32h.08Zm-56.83-.52h-.09v-.32h.09Zm56.83-.11h-.08V140h.08Zm-56.83-.52h-.09v-.05a2.44,2.44,0,0,1,0-.27h.08v.31Zm56.75-.11c0-.1,0-.21,0-.31h.09c0,.11,0,.21,0,.32Zm-56.72-.51h-.08c0-.11,0-.21,0-.32l.08,0C361.67,138.92,361.65,139,361.64,139.13Zm56.67-.11a2.87,2.87,0,0,0-.05-.31l.08,0,.06.32Zm-56.56-.51-.09,0,.09-.3.08,0C361.8,138.31,361.77,138.41,361.75,138.51Zm56.44-.11a1.71,1.71,0,0,0-.09-.3l.08,0a1.71,1.71,0,0,1,.09.3Zm-56.26-.49-.08,0,.12-.29.08,0Zm56.07-.1c0-.1-.09-.2-.13-.29l.08,0,.12.29Zm-55.82-.48-.07,0a2.54,2.54,0,0,1,.16-.28l.07,0Zm55.55-.09a2.54,2.54,0,0,0-.16-.28l.07,0c.06.09.11.19.16.28Zm-55.22-.45-.07,0,.19-.26.06.05Zm54.88-.09a2.14,2.14,0,0,0-.19-.26l.07-.05c.07.09.13.18.2.26Zm-54.49-.42-.07-.05a2.61,2.61,0,0,1,.22-.24l.06,0Zm54.1-.08-.22-.24.06-.05a2.61,2.61,0,0,1,.22.24Zm-53.66-.39-.06-.05.25-.22.06.06Zm53.2-.07-.25-.21.06-.06.25.21Zm-52.7-.34,0-.06.27-.19.05.06Zm52.19-.06a1.85,1.85,0,0,0-.27-.19l.05-.06.27.18Zm-51.64-.3,0-.06a2.69,2.69,0,0,1,.29-.16l0,.07Zm51.09,0-.29-.15,0-.07.3.15Zm-50.5-.25,0-.07.31-.12,0,.07Zm49.9,0-.3-.12,0-.07.31.12Zm-49.29-.19,0-.07.32-.1,0,.08Zm48.67,0-.32-.09,0-.07.33.08Zm-48-.13,0-.08.33-.06v.08Zm47.37,0-.33-.06,0-.07.33.05Zm-46.71-.08v-.08l.34,0v.08Zm46.05,0h-.33v-.08H413Zm-.67,0H412v-.08h.33Zm-.67,0h-.34v-.08h.34Zm-.67,0h-.34v-.08h.34Zm-.67,0h-.34v-.08h.34Zm-.68,0h-.33v-.08h.33Zm-.67,0h-.34v-.08h.34Zm-.67,0h-.34v-.08h.34Zm-.67,0h-.34v-.08h.34Zm-.68,0h-.33v-.08h.33Zm-.67,0h-.34v-.08h.34Zm-.67,0h-.34v-.08h.34Zm-.67,0h-.34v-.08h.34Zm-.68,0h-.33v-.08h.33Zm-.67,0h-.34v-.08h.34Zm-.67,0h-.34v-.08h.34Zm-.67,0h-.34v-.08h.34Zm-.68,0h-.33v-.08h.33Zm-.67,0h-.34v-.08h.34Zm-.67,0h-.34v-.08h.34Zm-.67,0h-.34v-.08h.34Zm-.68,0h-.33v-.08h.33Zm-.67,0h-.34v-.08h.34Zm-.67,0h-.34v-.08h.34Zm-.67,0h-.34v-.08h.34Zm-.68,0h-.33v-.08h.33Zm-.67,0h-.33v-.08h.33Zm-.67,0h-.34v-.08h.34Zm-.67,0h-.34v-.08h.34Zm-.68,0h-.33v-.08h.33Zm-.67,0h-.33v-.08h.33Zm-.67,0h-.34v-.08h.34Zm-.67,0h-.34v-.08h.34Zm-.68,0h-.33v-.08h.33Zm-.67,0h-.33v-.08h.33Zm-.67,0h-.34v-.08h.34Zm-.67,0h-.34v-.08h.34Zm-.68,0h-.33v-.08h.33Zm-.67,0h-.33v-.08h.33Zm-.67,0h-.34v-.08h.34Zm-.67,0h-.34v-.08h.34Zm-.68,0h-.33v-.08h.33Zm-.67,0h-.33v-.08h.33Zm-.67,0h-.34v-.08H384Zm-.67,0H383v-.08h.34Zm-.68,0h-.33v-.08h.33Zm-.67,0h-.33v-.08H382Zm-.67,0H381v-.08h.34Zm-.67,0h-.34v-.08h.34Zm-.68,0h-.33v-.08H380Zm-.67,0H379v-.08h.33Zm-.67,0h-.34v-.08h.34Zm-.67,0h-.34v-.08H378Zm-.68,0H377v-.08h.33Zm-.67,0h-.33v-.08h.33Zm-.67,0h-.34v-.08H376Zm-.67,0H375v-.08h.34Zm-.68,0h-.33v-.08h.33Zm-.67,0h-.33v-.08H374Zm-.67,0h-.34v-.08h.34Zm-.67,0h-.34v-.08h.34Zm-.68,0h-.33v-.08h.33Zm-.67,0h-.33v-.08h.33Zm-.67,0h-.34v-.08h.34Zm-.67,0h-.34v-.08h.34Zm-.68,0h-.33v-.08h.33Zm-.67,0h-.33v-.08h.33Zm-.67,0h-.34v-.08h.34Z"/><path class="cls-36" d="M389.53,162.86a5.33,5.33,0,1,1,5.68-5.31A5.51,5.51,0,0,1,389.53,162.86Zm0-9.37a4.07,4.07,0,1,0,4.34,4.06A4.21,4.21,0,0,0,389.53,153.49Z"/><path class="cls-38" d="M389.32,162.86a5.33,5.33,0,1,1,5.67-5.31A5.5,5.5,0,0,1,389.32,162.86Zm0-9.37a4.07,4.07,0,1,0,4.33,4.06A4.21,4.21,0,0,0,389.32,153.49Z"/><path class="cls-39" d="M378.1,136.54h-2a1.64,1.64,0,0,1-1.7-1.58v-.9a1.65,1.65,0,0,1,1.7-1.59h2a1.65,1.65,0,0,1,1.7,1.59v.9A1.64,1.64,0,0,1,378.1,136.54Zm-2-3.44a1,1,0,0,0-1,1v.9a1,1,0,0,0,1,1h2a1,1,0,0,0,1-1v-.9a1,1,0,0,0-1-1Z"/><rect class="cls-40" x="375.77" y="134.51" width="3.08" height="8.37" rx="0.99"/><rect class="cls-35" x="375.56" y="134.51" width="3.08" height="8.37" rx="0.99"/><path class="cls-9" d="M377.21,142.61h-.33v-.08h.33Zm-.54,0a1,1,0,0,1-.35-.07l0-.07a.81.81,0,0,0,.31.06Zm.88,0v-.08a.73.73,0,0,0,.3-.07l0,.07A.94.94,0,0,1,377.55,142.61Zm-1.51-.27a.92.92,0,0,1-.16-.29l.08,0a.72.72,0,0,0,.15.27Zm2.13,0-.07,0a.55.55,0,0,0,.14-.26l.08,0A.8.8,0,0,1,378.17,142.32Zm-2.23-.6h-.09v-.31h.09Zm2.41,0h-.09v-.31h.09Zm-2.41-.61h-.09v-.31h.09Zm2.41,0h-.09v-.32h.09Zm-2.41-.62h-.09v-.31h.09Zm2.41,0h-.09v-.32h.09Zm-2.41-.61h-.09v-.32h.09Zm2.41,0h-.09v-.32h.09Zm-2.41-.61h-.09v-.32h.09Zm2.41,0h-.09v-.32h.09Zm-2.41-.61h-.09v-.32h.09Zm2.41,0h-.09v-.32h.09Zm-2.41-.61h-.09v-.32h.09Zm2.41,0h-.09v-.31h.09Zm-2.41-.61h-.09V137h.09Zm2.41,0h-.09V137h.09Zm-2.41-.61h-.09v-.31h.09Zm2.41,0h-.09v-.31h.09Zm-2.41-.61h-.09v-.31h.09Zm2.41,0h-.09v-.31h.09Zm-2.4-.6h-.09a.71.71,0,0,1,.13-.31l.07,0A.61.61,0,0,0,376,135.44Zm2.3,0a.66.66,0,0,0-.12-.27l.06-.05a.79.79,0,0,1,.14.31Zm-2-.46,0-.07a.91.91,0,0,1,.33-.1v.08A.75.75,0,0,0,376.29,135Zm1.6,0a.61.61,0,0,0-.3-.08v-.08a.9.9,0,0,1,.33.09Zm-.63-.09h-.34v-.08h.34Z"/><path class="cls-41" d="M403,136.54h-2a1.64,1.64,0,0,1-1.7-1.58v-.9a1.65,1.65,0,0,1,1.7-1.59h2a1.65,1.65,0,0,1,1.69,1.59v.9A1.64,1.64,0,0,1,403,136.54Zm-2-3.44a1,1,0,0,0-1,1v.9a1,1,0,0,0,1,1h2a1,1,0,0,0,1-1v-.9a1,1,0,0,0-1-1Z"/><rect class="cls-40" x="400.68" y="134.51" width="3.08" height="8.37" rx="0.99"/><rect class="cls-35" x="400.47" y="134.51" width="3.08" height="8.37" rx="0.99"/><path class="cls-9" d="M402.13,142.61h-.34v-.08h.34Zm-.55,0a1,1,0,0,1-.34-.07l0-.07a.81.81,0,0,0,.31.06Zm.88,0v-.08a.82.82,0,0,0,.31-.07l0,.07A1.05,1.05,0,0,1,402.46,142.61Zm-1.5-.27a.79.79,0,0,1-.17-.29l.09,0a.59.59,0,0,0,.14.27Zm2.12,0-.07,0a.55.55,0,0,0,.14-.26l.09,0A.92.92,0,0,1,403.08,142.32Zm-2.23-.6h-.08v-.31h.08Zm2.41,0h-.09v-.31h.09Zm-2.41-.61h-.08v-.31h.08Zm2.41,0h-.09v-.32h.09Zm-2.41-.62h-.08v-.31h.08Zm2.41,0h-.09v-.32h.09Zm-2.41-.61h-.08v-.32h.08Zm2.41,0h-.09v-.32h.09Zm-2.41-.61h-.08v-.32h.08Zm2.41,0h-.09v-.32h.09Zm-2.41-.61h-.08v-.32h.08Zm2.41,0h-.09v-.32h.09Zm-2.41-.61h-.08v-.32h.08Zm2.41,0h-.09v-.31h.09Zm-2.41-.61h-.08V137h.08Zm2.41,0h-.09V137h.09Zm-2.41-.61h-.08v-.31h.08Zm2.41,0h-.09v-.31h.09Zm-2.41-.61h-.08v-.31h.08Zm2.41,0h-.09v-.31h.09Zm-2.4-.6h-.08a.61.61,0,0,1,.13-.31l.06,0A1,1,0,0,0,400.86,135.44Zm2.3,0a.66.66,0,0,0-.12-.27l.07-.05a.76.76,0,0,1,.13.31Zm-2-.46,0-.07a.91.91,0,0,1,.33-.1v.08A.86.86,0,0,0,401.2,135Zm1.6,0a.61.61,0,0,0-.3-.08v-.08a1,1,0,0,1,.34.09Zm-.63-.09h-.34v-.08h.34Z"/><path class="cls-35" d="M403.77,124c0-.23,0-.47,0-.71A7.69,7.69,0,0,0,402,119a20,20,0,0,1-1.12-1.89c-.37-.62-.76-1.23-1.17-1.82a16.35,16.35,0,0,0-2.57-3,11.55,11.55,0,0,0-7.1-2.56,4.82,4.82,0,0,0-.93,0,11.53,11.53,0,0,0-7.1,2.56,16.35,16.35,0,0,0-2.57,3c-.41.59-.8,1.2-1.17,1.82a20,20,0,0,1-1.12,1.89,7.69,7.69,0,0,0-1.84,4.27c0,.24,0,.48,0,.71a1.88,1.88,0,0,0-1.21,1.72v6.06a1.94,1.94,0,0,0,2,1.87H378a1.94,1.94,0,0,0,2-1.87v-6.06a1.85,1.85,0,0,0-1-1.63v0a9.8,9.8,0,0,0,.18-1.63,20.69,20.69,0,0,1,0-2.49,2.6,2.6,0,0,1,.24-.81c.45-1,.9-2,1.45-2.94a11.45,11.45,0,0,1,2.25-2.82,10.24,10.24,0,0,1,5.31-2.16,7,7,0,0,1,2.14,0,10.21,10.21,0,0,1,5.31,2.16,11.27,11.27,0,0,1,2.26,2.82c.55,1,1,2,1.45,2.94a2.88,2.88,0,0,1,.23.81,20.69,20.69,0,0,1,0,2.49,9.79,9.79,0,0,0,.17,1.63v0a1.87,1.87,0,0,0-1,1.63v6.06a2,2,0,0,0,2,1.87H403a1.94,1.94,0,0,0,2-1.87v-6.06A1.88,1.88,0,0,0,403.77,124Z"/><path class="cls-9" d="M403,133.4h-.27v-.08h.34v.08Zm-.61,0H402v-.08h.33Zm-.67,0h-.33v-.08h.33Zm-.65,0a1.27,1.27,0,0,1-.34,0v-.07a1.84,1.84,0,0,0,.33,0Zm-23,0h-.17v-.08h.33v.08Zm-.5,0h-.34v-.08h.34Zm-.68,0h-.33v-.08h.33Zm-.67,0h-.08l-.26,0v-.08l.25,0h.08Zm27.22-.05,0-.08a1.86,1.86,0,0,0,.31-.1l0,.07A1.73,1.73,0,0,1,403.39,133.35Zm-24.86,0,0-.07a1.34,1.34,0,0,0,.3-.12l.05.07A2.08,2.08,0,0,1,378.53,133.32Zm-3,0a1.77,1.77,0,0,1-.31-.15l0-.06a1.6,1.6,0,0,0,.3.13Zm24.88,0a1.43,1.43,0,0,1-.3-.16l.05-.06a1.51,1.51,0,0,0,.28.15Zm3.63-.2L404,133a2.25,2.25,0,0,0,.24-.21l.06,0A1.71,1.71,0,0,1,404,133.07ZM379.13,133l-.06-.06a1.2,1.2,0,0,0,.23-.22l.07.05A1.75,1.75,0,0,1,379.13,133Zm-4.21,0a1.79,1.79,0,0,1-.23-.25l.07,0a1.51,1.51,0,0,0,.21.23Zm24.9-.06a1.31,1.31,0,0,1-.22-.25l.07,0a1.57,1.57,0,0,0,.21.24Zm4.64-.31-.07,0a1.43,1.43,0,0,0,.13-.28l.08,0A1.55,1.55,0,0,1,404.46,132.59Zm-24.91-.08-.08,0a1.69,1.69,0,0,0,.12-.28l.08,0A1.88,1.88,0,0,1,379.55,132.51Zm-5-.08a1.76,1.76,0,0,1-.1-.3l.08,0a1.42,1.42,0,0,0,.1.29Zm24.93-.07a1.58,1.58,0,0,1-.09-.31h.08a1.4,1.4,0,0,0,.09.29Zm5.22-.38h-.08a1,1,0,0,0,0-.17v-.14h.09v.14A1.1,1.1,0,0,1,404.67,132Zm-24.94-.09h-.09v-.31h.09v.32Zm-5.35-.08v-.32h.09v.31Zm25-.08h-.08v-.31h.08Zm5.27-.38h-.09V131h.09Zm-25-.09h-.09v-.32h.09Zm-5.26-.08h-.09v-.32h.09Zm24.95-.08h-.08v-.31h.08Zm5.27-.38h-.09v-.31h.09Zm-25-.09h-.09v-.32h.09Zm-5.26-.08h-.09v-.32h.09Zm24.95-.08h-.08v-.31h.08Zm5.27-.38h-.09v-.31h.09Zm-25-.09h-.09v-.31h.09Zm-5.26-.08h-.09v-.32h.09Zm24.95-.08h-.08v-.31h.08Zm5.27-.38h-.09v-.31h.09Zm-25-.09h-.09v-.31h.09Zm-5.26-.08h-.09V129h.09Zm24.95-.07h-.08v-.32h.08Zm5.27-.39h-.09v-.31h.09Zm-25-.09h-.09v-.31h.09Zm-5.26-.08h-.09v-.31h.09Zm24.95-.07h-.08v-.32h.08Zm5.27-.39h-.09v-.31h.09Zm-25-.09h-.09v-.31h.09Zm-5.26-.08h-.09v-.31h.09Zm24.95-.07h-.08v-.32h.08Zm5.27-.38h-.09v-.32h.09Zm-25-.1h-.09v-.31h.09Zm-5.26-.08h-.09v-.31h.09Zm24.95-.07h-.08V127h.08Zm5.27-.38h-.09v-.32h.09Zm-25-.1h-.09v-.31h.09Zm-5.26-.08h-.09v-.31h.09Zm24.95-.07h-.08v-.32h.08Zm5.27-.38h-.09V126h.09Zm-25-.09h-.09v-.32h.09Zm-5.26-.09h-.09v-.31h.09Zm24.95-.07h-.08v-.31h.08Zm5.18-.38a1.54,1.54,0,0,0,0-.3l.08,0a1.12,1.12,0,0,1,0,.32Zm-25-.09a1.09,1.09,0,0,0-.07-.3l.08,0a1.16,1.16,0,0,1,.07.31Zm-5.16-.08h-.08a1.57,1.57,0,0,1,.08-.31l.08,0A1.67,1.67,0,0,0,374.48,125.52Zm25-.07-.08,0a1.76,1.76,0,0,1,.1-.3l.08,0A1.42,1.42,0,0,0,399.45,125.45Zm5-.35a2,2,0,0,0-.17-.27l.07,0a1.11,1.11,0,0,1,.17.27Zm-25-.08a1.64,1.64,0,0,0-.19-.25l.07-.06.19.27ZM374.7,125l-.07,0a1.71,1.71,0,0,1,.21-.26l.06.06A1.59,1.59,0,0,0,374.7,125Zm25-.06-.07,0a1.23,1.23,0,0,1,.22-.24l.06.05A1.57,1.57,0,0,0,399.71,124.89Zm4.35-.28a1.27,1.27,0,0,0-.27-.18l0-.07a1.31,1.31,0,0,1,.27.19Zm-25-.06-.21-.13-.07,0,.05-.06.06,0a1.64,1.64,0,0,1,.22.14Zm-3.88,0,0-.06a1.43,1.43,0,0,1,.3-.16l0,.07A1.51,1.51,0,0,0,375.15,124.5Zm25,0,0-.06.08-.05.21-.11,0,0h0v0l0,0-.21.11Zm3.33-.16-.13-.06,0-.24h.08v.18l.07,0Zm-27.9-.15V124c0-.06,0-.11,0-.17h.08s0,.11,0,.16v.15Zm3.11-.05h-.08V124c0-.07,0-.14,0-.22h.08a1.24,1.24,0,0,1,0,.22Zm21.62-.13c0-.09,0-.2-.05-.31h.09a2.34,2.34,0,0,0,.05.3Zm3.17-.28h-.09c0-.11,0-.21,0-.31h.09C403.5,123.48,403.5,123.58,403.5,123.69Zm-27.94-.17v-.32h.09v.32Zm3.25,0h-.08l0-.31h.09C378.84,123.27,378.82,123.38,378.81,123.48Zm21.43-.14,0-.31h.08l0,.31Zm3.17-.28,0-.3.08,0c0,.11,0,.22,0,.32Zm-27.74-.17h-.08c0-.11,0-.21.05-.32l.08,0C375.7,122.69,375.68,122.79,375.67,122.89Zm3.21,0h-.09c0-.11,0-.21,0-.31h.08C378.89,122.63,378.88,122.74,378.88,122.85Zm21.3-.14c0-.1,0-.19,0-.28v0h.09v0a2.72,2.72,0,0,0,0,.28Zm3.14-.26c0-.1-.05-.2-.08-.3l.08,0c0,.11.06.21.08.31Zm-27.53-.17-.08,0a1.71,1.71,0,0,1,.09-.3l.08,0A2,2,0,0,0,375.79,122.28Zm3-.06c0-.11,0-.21,0-.32h.09v.32Zm21.45-.14h-.08v-.31h.09Zm2.88-.23c0-.1-.07-.2-.11-.3l.08,0c0,.1.08.2.11.3ZM376,121.68l-.08,0c0-.1.08-.2.12-.3l.08,0A2.24,2.24,0,0,0,376,121.68Zm2.8-.09v-.31h.08v.32Zm21.49-.14h-.09c0-.1,0-.21,0-.31h.08Zm2.62-.19c0-.09-.09-.19-.14-.28l.08,0c.05.1.09.2.14.29Zm-26.66-.15-.07,0c0-.09.09-.19.14-.28l.08,0Zm2.63-.15h-.09v0c0-.1,0-.2,0-.3h.08V121Zm21.33-.14c0-.1,0-.2,0-.31h.09v.31Zm2.41-.12-.16-.28.07,0,.17.28Zm-26.07-.15-.07,0c0-.09.11-.18.16-.28l.08,0Zm2.34-.22h-.08c0-.11,0-.21,0-.32h.09Zm21.3-.13,0-.29v0h.08v0l0,.29Zm2.1,0c0-.09-.11-.17-.17-.26l.07,0c.06.09.12.18.17.27Zm-25.4-.15-.07,0,.18-.26.07,0Zm2.07-.29h-.08c0-.1.05-.21.08-.31l.08,0C379,119.51,379,119.61,379,119.71Zm23-.09-.18-.26.07,0,.18.26Zm-1.83,0-.1-.3.08,0c0,.1.07.21.1.3Zm-22.84-.1-.07,0,.17-.23,0,0,.07,0,0,0Zm1.89-.36-.08,0,0-.09.09-.19h0l.08,0h0c0,.06-.05.13-.08.19Zm22.41,0a3.16,3.16,0,0,1-.18-.27l.07,0a3.16,3.16,0,0,0,.18.27Zm-1.68-.11-.13-.29.08,0,.13.29Zm-22.25,0-.07,0a2.33,2.33,0,0,0,.17-.26l.07,0A2.61,2.61,0,0,1,377.62,119Zm23.58-.4-.16-.28.08,0,.15.28Zm-21.8,0-.08,0c.05-.1.09-.19.13-.29l.08,0C379.49,118.35,379.44,118.44,379.4,118.54Zm20.21-.13-.13-.29.08,0,.13.29Zm-21.65,0-.08,0c.05-.09.1-.19.16-.28l.07,0Zm22.93-.41,0,0-.14-.25.08,0,.14.26v0Zm-21.23,0-.07,0c0-.1.09-.19.13-.29l.08,0C379.75,117.77,379.71,117.87,379.66,118Zm-1.4-.11-.07,0,.15-.28.08,0C378.37,117.66,378.31,117.75,378.26,117.85Zm21.08,0c0-.1-.09-.19-.13-.29l.07,0a2.59,2.59,0,0,1,.14.29Zm1.24-.4a.75.75,0,0,1-.07-.12l-.1-.15.08,0,.09.15s.05.08.07.13Zm-20.64,0-.08,0c.05-.09.1-.19.14-.28l.08,0Zm-1.36-.1-.07,0,.16-.27.07,0Zm20.49,0c-.05-.09-.1-.19-.14-.28l.07,0c.05.09.1.19.14.28Zm1.18-.36-.17-.27.07,0c.06.08.11.18.17.27Zm-20-.08-.08,0,.15-.28.07,0A2.44,2.44,0,0,0,380.23,116.82Zm-1.32-.07-.07,0c.06-.09.11-.19.17-.27l.07,0Zm19.87,0-.15-.28.07,0,.15.28Zm1.13-.35-.18-.26.07,0,.18.26Zm-19.38-.09-.08,0,.12-.2a.59.59,0,0,0,0-.08l.08,0-.05.08Zm-1.27-.05-.08,0c.06-.1.12-.18.18-.27l.07,0C379.37,116,379.31,116.12,379.26,116.21Zm19.21-.07,0-.08-.12-.2.07,0,.12.19.05.08Zm1.09-.32-.18-.26.07,0,.18.27Zm-18.71-.11-.07,0,.17-.27.07,0C381,115.53,380.91,115.62,380.85,115.71Zm-1.24,0-.07,0,.11-.15.07-.11.07,0-.07.11Zm18.53-.08c-.05-.09-.11-.18-.17-.27l.07,0,.18.27Zm1.05-.3L399,115l.07,0,.19.26Zm-18-.12-.07,0,.18-.26.07,0Zm-1.22,0-.07,0,.19-.26.07,0Zm17.81-.09-.19-.26.07,0,.19.27Zm1-.28c-.07-.09-.13-.18-.2-.26l.07,0,.2.26Zm-17.23-.13-.07,0c.06-.09.13-.17.2-.26l.06.05Zm-1.22,0-.06,0a2.43,2.43,0,0,1,.2-.25l.06,0C380.5,114.47,380.43,114.55,380.36,114.64Zm17.05-.1-.2-.24.06,0a2.43,2.43,0,0,1,.2.25Zm1-.27-.2-.25.06,0,.21.25ZM382,114.15l-.06-.05.21-.24.06,0Zm-1.21,0-.07,0,.21-.25.07,0Zm16.23-.08-.22-.24.06,0,.22.24Zm1-.27-.21-.24.06-.05.22.24Zm-15.57-.1-.06-.05a2.5,2.5,0,0,1,.23-.23l.06,0C382.57,113.53,382.49,113.6,382.42,113.68Zm-1.23,0-.06-.05.22-.24.06,0Zm15.36-.07-.23-.22.06-.06a2.5,2.5,0,0,1,.23.23Zm1-.27a2.5,2.5,0,0,0-.23-.23l.06-.06.24.23Zm-14.66-.08-.06-.06.07-.06.18-.15.05.06-.18.15Zm-1.25,0-.06-.05.23-.23.06,0Zm14.44,0-.25-.21.05-.06.25.21Zm1-.29-.24-.21,0-.06.25.22Zm-13.7,0-.06-.06.27-.2,0,.07A2.48,2.48,0,0,0,383.39,112.82Zm12.18-.08-.27-.19.05-.07.27.19Zm-13.46,0-.06,0,.12-.1.13-.12.06.06-.14.11A.52.52,0,0,1,382.11,112.73Zm1.82-.28-.05-.07.28-.17,0,.07A2.61,2.61,0,0,0,383.93,112.45Zm12.67,0-.26-.2.06-.06.25.2Zm-1.58-.06-.28-.16,0-.07.29.17Zm-12.41-.05-.06-.07.27-.19.05.06Zm1.89-.2-.05-.07.3-.15,0,.07Zm9.94-.06-.29-.15,0-.07.3.15Zm1.64,0-.27-.18,0-.06.28.18Zm-12.94-.1-.05-.06.28-.18,0,.07Zm1.95-.09,0-.07.3-.13,0,.07Zm8.75-.06-.3-.12,0-.07.31.12Zm1.69-.1-.29-.16,0-.07.29.16Zm-9.82-.09,0-.07.32-.11,0,.08Zm-2,0-.05-.07.29-.16.05.07A2.69,2.69,0,0,0,383.7,111.59Zm9.52,0-.31-.11,0-.07.32.1Zm-6.88-.16,0-.08.32-.09,0,.08Zm8.61,0-.3-.14,0-.07.3.14Zm-2.36,0-.32-.09,0-.07.32.08Zm-8.31-.07,0-.07.31-.13,0,.07Zm2.71-.06,0-.08.33-.08,0,.08Zm4.95,0-.32-.07V111l.33.08Zm2.41-.09L394,111l0-.08.31.13Zm-6.71,0,0-.07.33-.06,0,.07Zm3.65,0L391,111v-.08l.33.06Zm-6.4,0,0-.07.32-.12,0,.08Zm3.41-.06,0-.08.12,0,.22,0v.08l-.21,0Zm2.33,0-.33,0v-.07l.34,0Zm-1.67-.06v-.08l.34,0v.08Zm1,0h-.33v-.08H390Zm3.77,0-.32-.11,0-.07.32.1Zm-8.22-.06,0-.08.32-.09,0,.07Zm7.58-.14-.32-.09,0-.07.33.08Zm-6.94,0,0-.07.33-.08,0,.07Zm6.29-.11-.32-.07v-.08l.33.07Zm-5.64,0,0-.08.33-.06,0,.08Zm5-.09-.33-.05v-.08l.33.05Zm-4.33,0v-.08l.33-.05v.08Zm3.67-.07-.34,0v-.08l.34,0Zm-3,0v-.08l.34,0v.08Zm2.34,0-.33,0v-.08l.34,0Zm-1.67,0v-.08l.31,0h0v.08h0Zm1,0h-.33v-.07h.34Z"/><rect class="cls-42" x="455.9" y="35.65" width="17.88" height="14.82" rx="1.97"/><path class="cls-43" d="M462.14,44.56h6a.27.27,0,0,0,.26-.18L469.53,41a.24.24,0,0,0,0-.23.29.29,0,0,0-.23-.1H461a.26.26,0,0,0-.22.1.22.22,0,0,0,0,.23l1.14,3.37A.28.28,0,0,0,462.14,44.56Zm5.79-.51h-5.59l-1-2.86h7.54Z"/><path class="cls-43" d="M462.63,46h5.11a.26.26,0,1,0,0-.52h-4.91a.48.48,0,0,1-.51-.45.45.45,0,0,1,.2-.46l-1.73-5.09a.26.26,0,0,0-.26-.18h-1.78a.26.26,0,1,0,0,.52h1.58l1.58,4.72A1,1,0,0,0,462.63,46Z"/><path class="cls-43" d="M466.06,46.86a.63.63,0,1,0,.63-.6A.61.61,0,0,0,466.06,46.86Z"/><path class="cls-43" d="M462.89,46.86a.61.61,0,0,0,.63.59.6.6,0,1,0-.63-.59Z"/><ellipse class="cls-28" cx="469.05" cy="40.68" rx="2.14" ry="2"/><text class="cls-44" transform="translate(468.58 41.3) scale(1.07 1)">1</text><g id="arrow_back_black_24dp-2" data-name="arrow back black 24dp-2"><path id="Path_5874-2" data-name="Path 5874-2" class="cls-45" d="M468.63,455l-3.53-3.29.76-.7,4.27,4-4.27,4-.75-.7,3-2.79.54-.5"/></g><g id="menu_black_24dp-2" data-name="menu black 24dp-2"><path id="Path_6063-2" data-name="Path 6063-2" class="cls-45" d="M320,459v-8h-1.42v8Zm-3.56,0v-8H315v8Zm-5,0h1.43v-8h-1.43Z"/></g><rect class="cls-46" x="387.84" y="451.01" width="9.38" height="7.99" rx="0.31"/><path class="cls-9" d="M302.43,42.38v1c0,.25-.07.49-.11.74A6.33,6.33,0,0,1,299,48.6a8.17,8.17,0,0,1-5.79.73.25.25,0,0,0-.19,0c-.47.18-.94.38-1.4.58h-.63l-.05,0a1.05,1.05,0,0,1-.76-.94c0-.34,0-.67,0-1a.37.37,0,0,0-.1-.21c-.22-.23-.48-.45-.68-.7a6.23,6.23,0,0,1-1.43-5.18,6.14,6.14,0,0,1,1.82-3.52,7.54,7.54,0,0,1,5.06-2.09,7.83,7.83,0,0,1,3.76.72,6.44,6.44,0,0,1,3.83,4.88C302.38,42,302.4,42.2,302.43,42.38Zm-11.18,6.47,1.26-.53a1.31,1.31,0,0,1,.83-.06,7.27,7.27,0,0,0,3.5,0,5.74,5.74,0,0,0,3.67-2.59,5.38,5.38,0,0,0-1.79-7.36,6.74,6.74,0,0,0-5.35-.79A5.49,5.49,0,0,0,289,43.71,5.18,5.18,0,0,0,290.82,47a1.12,1.12,0,0,1,.43.91Z"/><path class="cls-9" d="M293.91,41.28a1.12,1.12,0,0,1,.64.22l1.46,1a.47.47,0,0,0,.64,0l2-1.42A.38.38,0,0,1,299,41a.3.3,0,0,1,.16.48l-1,1.47-.94,1.39a1.07,1.07,0,0,1-1.59.26l-1.44-1.05a.45.45,0,0,0-.61,0l-2,1.46c-.19.13-.37.13-.49,0s-.11-.24,0-.4l1.18-1.76c.25-.38.51-.75.76-1.12A1,1,0,0,1,293.91,41.28Z"/><path class="cls-9" d="M312.85,40.34v5.78H312V41.81L310,46.12h-.57l-2.07-4.32v4.32h-.81V40.34h.88l2.29,4.78L312,40.34Z"/><path class="cls-9" d="M315,40.91v2h2.28v.63H315v2h2.54v.62h-3.35V40.29h3.35v.62Z"/><path class="cls-9" d="M319.69,46a1.8,1.8,0,0,1-.76-.57,1.38,1.38,0,0,1-.29-.84h.87a1.06,1.06,0,0,0,.36.69,1.33,1.33,0,0,0,.92.28,1.42,1.42,0,0,0,.92-.27.88.88,0,0,0,.34-.7.79.79,0,0,0-.2-.55,1.37,1.37,0,0,0-.49-.31,7.48,7.48,0,0,0-.8-.24,7.6,7.6,0,0,1-1-.3,1.61,1.61,0,0,1-.63-.47,1.31,1.31,0,0,1-.26-.87,1.43,1.43,0,0,1,.25-.84,1.67,1.67,0,0,1,.73-.57,2.85,2.85,0,0,1,1.08-.2,2.41,2.41,0,0,1,1.44.41,1.49,1.49,0,0,1,.63,1.09h-.9a.87.87,0,0,0-.37-.59,1.42,1.42,0,0,0-.88-.26,1.28,1.28,0,0,0-.83.25.79.79,0,0,0-.32.69.73.73,0,0,0,.19.52,1.35,1.35,0,0,0,.47.3c.19.07.45.15.79.24a8.84,8.84,0,0,1,1,.31,1.77,1.77,0,0,1,.64.48,1.34,1.34,0,0,1,.27.88,1.47,1.47,0,0,1-.24.8,1.75,1.75,0,0,1-.72.61,2.44,2.44,0,0,1-1.12.23A2.73,2.73,0,0,1,319.69,46Z"/><path class="cls-9" d="M324.94,46a1.9,1.9,0,0,1-.77-.57,1.37,1.37,0,0,1-.28-.84h.87a1.06,1.06,0,0,0,.36.69,1.33,1.33,0,0,0,.92.28,1.42,1.42,0,0,0,.92-.27.88.88,0,0,0,.34-.7.79.79,0,0,0-.2-.55,1.37,1.37,0,0,0-.49-.31,8.27,8.27,0,0,0-.8-.24,7.6,7.6,0,0,1-1-.3,1.61,1.61,0,0,1-.63-.47,1.31,1.31,0,0,1-.27-.87,1.44,1.44,0,0,1,.26-.84,1.67,1.67,0,0,1,.73-.57,2.81,2.81,0,0,1,1.08-.2,2.43,2.43,0,0,1,1.44.41,1.49,1.49,0,0,1,.63,1.09h-.9a.87.87,0,0,0-.37-.59,1.42,1.42,0,0,0-.88-.26,1.28,1.28,0,0,0-.83.25.79.79,0,0,0-.32.69.73.73,0,0,0,.19.52,1.27,1.27,0,0,0,.47.3c.19.07.45.15.79.24a9.55,9.55,0,0,1,1,.31,1.77,1.77,0,0,1,.64.48,1.34,1.34,0,0,1,.27.88,1.47,1.47,0,0,1-.24.8,1.75,1.75,0,0,1-.72.61,2.44,2.44,0,0,1-1.12.23A2.73,2.73,0,0,1,324.94,46Z"/><path class="cls-9" d="M330.13,40.91v2h2.27v.63h-2.27v2h2.54v.62h-3.35V40.29h3.35v.62Z"/><path class="cls-9" d="M338.8,46.12H338l-3.27-4.64v4.64h-.82V40.29h.82L338,44.92V40.29h.81Z"/><path class="cls-9" d="M344.91,42a1.84,1.84,0,0,0-.75-.79,2.35,2.35,0,0,0-1.14-.28,2.54,2.54,0,0,0-1.18.28A2.06,2.06,0,0,0,341,42a2.57,2.57,0,0,0,0,2.41,2,2,0,0,0,.82.8,2.42,2.42,0,0,0,1.18.28,2.22,2.22,0,0,0,1.5-.51,2.09,2.09,0,0,0,.69-1.38h-2.49V43h3.35v.58a2.65,2.65,0,0,1-.48,1.32,2.84,2.84,0,0,1-1.08.95,3.24,3.24,0,0,1-1.49.35,3.28,3.28,0,0,1-1.59-.39,2.93,2.93,0,0,1-1.13-1,2.94,2.94,0,0,1,1.13-4.13,3.54,3.54,0,0,1,3.34.08A2.71,2.71,0,0,1,345.89,42Z"/><path class="cls-9" d="M348,40.91v2h2.27v.63H348v2h2.54v.62h-3.35V40.29h3.35v.62Z"/><path class="cls-9" d="M355,46.12l-1.49-2.38h-1v2.38h-.81V40.29h2a2.8,2.8,0,0,1,1.19.23,1.59,1.59,0,0,1,.73.61,1.72,1.72,0,0,1-.13,1.94,1.83,1.83,0,0,1-1.11.61L356,46.12Zm-2.47-3h1.2a1.38,1.38,0,0,0,1-.31,1,1,0,0,0,.33-.81,1,1,0,0,0-.33-.8,1.46,1.46,0,0,0-1-.29h-1.2Z"/><g id="menu_black_24dp-2-2" data-name="menu black 24dp-2"><path id="Path_6062-2" data-name="Path 6062-2" class="cls-1" d="M480,36.54h13.94v13H480Z"/><path id="Path_6063-2-2" data-name="Path 6063-2" class="cls-9" d="M481.73,46.32h10.46V45.23H481.73Zm0-2.72h10.46V42.52H481.73Zm0-3.8v1.09h10.46V39.8Z"/></g><path id="Rectangle-7-2" data-name="Rectangle-7" class="cls-25" d="M349.93,225.41h81.34a4.58,4.58,0,0,1,4.31,4.8v10.27a4.58,4.58,0,0,1-4.31,4.8H349.93a4.58,4.58,0,0,1-4.31-4.8V230.21A4.58,4.58,0,0,1,349.93,225.41Z"/><g id="Confirm-2-2" data-name="Confirm-2" class="cls-2"><text class="cls-26" transform="translate(370.88 228.84) scale(1.07 1)">Add to cart</text></g></g><g class="cls-47"><polygon class="cls-9" points="195 200.03 188.15 208.56 188.15 200.03 195 200.03"/></g><g id="freepik--Shadow--inject-11" class="cls-48"><ellipse class="cls-5" cx="298.28" cy="481.09" rx="39.56" ry="1.79"/><ellipse class="cls-49" cx="298.28" cy="481.09" rx="39.56" ry="1.79"/></g><g id="freepik--Shadow--inject-11-2" data-name="freepik--Shadow--inject-11" class="cls-50"><ellipse class="cls-6" cx="200.76" cy="466.14" rx="1.79" ry="26.59" transform="translate(-277.78 635.24) rotate(-86.16)"/></g><path class="cls-51" d="M226,467.81c-2.26-1.59-45.3-61.18-45.51-64.5-.09-1.25,8.24-8,18.51-15.94,2.25-1.72,32.63-36.62,32.63-36.62l28.2,38.76-32.93,36.2s6.29,30.2,6.12,33.83S228.23,469.42,226,467.81Z"/><path class="cls-52" d="M226,467.81c-2.25-1.58-45.28-61.18-45.49-64.5-.09-1.26,8.22-8,18.51-15.94.78-.61,5-5.29,10.2-11.11l27.89,38.25L227,425.71s6.28,30.2,6.11,33.83S228.23,469.42,226,467.81Z"/><path class="cls-28" d="M226.08,468.09c-2.26-1.59-45.55-61.52-45.76-64.86-.08-1.22,8.08-7.58,17.62-16,2.26-2,4.36-4.65,6.93-6.59l28.31,38.91-6.2,6.22s6.34,30.37,6.17,34.05S228.3,469.68,226.08,468.09Z"/><path class="cls-53" d="M227.86,465.55c-7-10.23-36.29-50.8-44-60.38,0-.07-.11,0,0,0,6.77,10.29,36.34,50.63,43.9,60.46C227.85,465.82,228,465.71,227.86,465.55Z"/><path class="cls-53" d="M230.24,425.56c-2.12-4.51-6.22-8.88-11.28-9.86a.18.18,0,0,0-.1.33,69.46,69.46,0,0,1,10.83,9.87.32.32,0,1,0,.55-.34Z"/><path class="cls-53" d="M230.58,429.66c-2.12-4.51-6.23-8.89-11.22-9.87a.19.19,0,0,0-.11.34A67.58,67.58,0,0,1,230.07,430a.33.33,0,0,0,.45,0A.31.31,0,0,0,230.58,429.66Z"/><path class="cls-53" d="M230.93,433.75c-2.12-4.51-6.23-8.87-11.28-9.87a.19.19,0,0,0-.1.34,69,69,0,0,1,10.83,9.88.33.33,0,0,0,.55-.35Z"/><path class="cls-53" d="M231.27,437.85c-2.12-4.51-6.23-8.88-11.22-9.86a.19.19,0,0,0-.12.34,68.91,68.91,0,0,1,10.83,9.86.31.31,0,0,0,.42.09.32.32,0,0,0,.09-.43Z"/><path class="cls-53" d="M244.66,426.25c1-3.1-2-5.3-4.62-5.94a25.9,25.9,0,0,0-13.45.46c-.1,0-.12.11-.08.19a.61.61,0,0,0-.13.85.53.53,0,0,0,.13.13c3.57,2.39,7.09,5.38,11.28,6.61C240.2,429.26,243.71,429.18,244.66,426.25Zm-12-1.79c-1.78-1.13-3.51-2.35-5.33-3.39,2.62-.07,5.24-.27,7.89-.09a26.72,26.72,0,0,1,3.78.46c1.92.4,7.57,3.38,2.73,5.85C239,428.6,234.74,425.81,232.62,424.46Z"/><path class="cls-53" d="M220.35,410c1,4.26,3.75,8,5.92,11.67a.59.59,0,0,0,.84.13.53.53,0,0,0,.13-.13.14.14,0,0,0,.18,0,.14.14,0,0,0,0-.06,25.92,25.92,0,0,0,1.28-13.4c-.49-2.61-2.49-5.79-5.64-5S219.78,407.49,220.35,410Zm1.54-3.83c2.71-4.68,5.39,1.13,5.63,3.08a28.4,28.4,0,0,1,.23,3.8,77.3,77.3,0,0,1-.58,7.9c-.94-1.9-2-3.68-3.07-5.53-1.19-2.25-3.73-6.66-2.21-9.25Z"/><path class="cls-53" d="M254.25,316.3c-2.67,13.2-46.42,54.64-46.42,54.64l38.15,44s66.71-66.38,62.66-95.51c-3.53-25.27-41.5-127.21-41.5-127.21H223.38S256.88,303.34,254.25,316.3Z"/><path class="cls-54" d="M254.25,316.3c-2.67,13.2-46.42,54.64-46.42,54.64l38.15,44s66.71-66.38,62.66-95.51c-3.53-25.27-41.5-127.21-41.5-127.21H223.38S256.88,303.34,254.25,316.3Z"/><path class="cls-55" d="M250.31,404.51c-5.06-6.32-3.51-4.58-8.66-10.83-2.51-3.05-19.05-23.15-21.9-25.59-.06,0-.17,0-.13.11,1.92,3.22,18.8,23,21.42,26,5.26,6.14,3.82,4.33,9.14,10.42C250.22,404.77,250.42,404.66,250.31,404.51Z"/><path class="cls-55" d="M259.69,309.93c-.64-3.29-1.35-6.56-2.05-9.84q-2.13-10.05-4.51-20-4.73-19.8-10.28-39.39c-3.73-13.11-7.68-26.19-12.23-39-.56-1.59-1.12-3.17-1.71-4.75,0-.12-.24-.07-.19,0,3.93,12.87,8,25.7,11.67,38.64s7.08,25.84,10.28,38.86c1.62,6.54,3.11,13.09,4.57,19.66.75,3.23,1.46,6.46,2.11,9.69a70.52,70.52,0,0,1,1.84,10,15.29,15.29,0,0,1-2.57,9c-1.65,2.69-3.58,5.21-5.45,7.74-3.73,5.07-28.39,33.6-29.54,34.69-.09.07,0,.21.13.12,4.78-4.29,24-25.84,27.89-30.9,1.89-2.5,3.74-5,5.57-7.61a30.11,30.11,0,0,0,4.34-7.67A18,18,0,0,0,259.69,309.93Z"/><path class="cls-53" d="M259.59,192.2l-7.95,104.3c-7.57-35.7-28.24-104.3-28.24-104.3Z"/><path class="cls-51" d="M336.68,478.85c-2.57.84-76.12.55-78.93-1.23-1.08-.67-1.65-11.39-2-24.35-.09-2.81-10.35-47.95-10.35-47.95l47.92.06,9.88,47.94s28.11,12.7,31,15S339.31,478,336.68,478.85Z"/><path class="cls-52" d="M336.68,478.85c-2.57.84-76.12.55-78.93-1.24-1.08-.67-1.65-11.38-2-24.35,0-1-1.32-7.16-3-14.79h47.36l3,14.83s28.11,12.72,31,15S339.31,478,336.68,478.85Z"/><path class="cls-28" d="M336.91,479c-2.58.85-76.55.56-79.36-1.23-1-.68-1.37-11-2.57-23.68-.28-3.07-1.18-6.26-1.24-9.49h48.12l1.38,8.69s28.27,12.77,31.14,15.07S339.5,478.09,336.91,479Z"/><path class="cls-53" d="M335.86,476c-12.4-.35-62.43-.61-74.71,0-.1,0-.1.07,0,.08,12.28.61,62.32.46,74.71.14C336.12,476.18,336.12,476,335.86,476Z"/><path class="cls-53" d="M305,450.53c-4.88-.94-10.84-.2-14.59,3.26-.14.13,0,.34.21.28A69,69,0,0,1,305,451.15a.32.32,0,0,0,0-.62Z"/><path class="cls-53" d="M308.51,452.66c-4.87-.92-10.84-.2-14.59,3.26-.15.14.06.34.22.29a68.09,68.09,0,0,1,14.35-2.93.32.32,0,0,0,.27-.36A.32.32,0,0,0,308.51,452.66Z"/><path class="cls-53" d="M312,454.8c-4.87-.93-10.84-.2-14.58,3.26-.15.13,0,.34.2.28A69.6,69.6,0,0,1,312,455.41a.29.29,0,0,0,.31-.29.3.3,0,0,0-.29-.32Z"/><path class="cls-53" d="M315.54,456.94c-4.87-.93-10.85-.21-14.59,3.25-.14.14,0,.34.21.3a68.31,68.31,0,0,1,14.36-2.93.32.32,0,0,0,.26-.36A.3.3,0,0,0,315.54,456.94Z"/><path class="cls-53" d="M314.05,439.29c-1.91-2.65-5.48-1.48-7.52.22A26.1,26.1,0,0,0,299,450.65a.15.15,0,0,0,.08.18h0a.6.6,0,0,0,.58.63.37.37,0,0,0,.18,0c4-1.47,8.53-2.55,12-5.22C313.86,444.67,315.85,441.79,314.05,439.29ZM305.48,448c-2,.77-4,1.44-5.89,2.25q2.1-3.31,4.51-6.4a27.44,27.44,0,0,1,2.6-2.79c1.45-1.32,7.22-4.1,6.34,1.24C312.61,445.25,307.85,447,305.48,448Z"/><path class="cls-53" d="M286.58,449.33c4,1.73,8.64,1.66,12.91,2.1a.62.62,0,0,0,.61-.63.88.88,0,0,0,0-.16.12.12,0,0,0,.08-.15v0a26,26,0,0,0-10.09-8.93c-2.4-1.13-6.15-1.4-7.35,1.63S284.23,448.32,286.58,449.33Zm-2.19-3.48c-2.19-5,4.08-3.69,5.82-2.77a27.81,27.81,0,0,1,3.22,2.05,78.38,78.38,0,0,1,6,5.08c-2.08-.35-4.18-.5-6.28-.76C290.64,449.13,285.59,448.64,284.39,445.85Z"/><path class="cls-54" d="M266.69,192.2a176.14,176.14,0,0,0-3.77,21.88c-.91,9.17-2.05,17.26-3.28,18.28s-8.3,5.58-10.62,7c0,0,21.57,65.41,27.13,87.18,8.07,31.58,24.62,108.51,24.62,108.51h-51.5s-12.87-72.36-19.72-102.44c-5.87-25.79-28.35-103.16-28.35-103.16A44.91,44.91,0,0,1,203,192.23S266.69,192.17,266.69,192.2Z"/><path class="cls-55" d="M295.67,425c-7.54-.05-5.38-.15-12.92-.11-3.69,0-27.95.17-31.39.84a.08.08,0,0,0-.08.07.08.08,0,0,0,.08.08c3.46.57,27.71,0,31.4-.13,7.54-.19,5.38-.23,12.91-.51C295.8,425.27,295.8,425,295.67,425Z"/><path class="cls-53" d="M263.29,229.74a99.44,99.44,0,0,0-14.21,9.51.18.18,0,0,0,.2.29c4.81-3,9.74-5.95,14.39-9.24a.34.34,0,0,0,.07-.47A.34.34,0,0,0,263.29,229.74Z"/><path class="cls-53" d="M259.36,194.16c0-.17-.36-.17-.33,0a174.68,174.68,0,0,1,1.82,17.38c.17,2.7.31,17.7-4.51,17.36-.8-.07-1.31-.76-1.62-1.91a19.66,19.66,0,0,1-.09-4.6q.08-4.72-.25-9.44a84.77,84.77,0,0,0-2.88-17.34.16.16,0,0,0-.18-.12.15.15,0,0,0-.12.17h0a161.32,161.32,0,0,1,2.41,24.23c0,3.91-1,10,3.06,9.92s5.3-10.07,5.39-12.79A88.54,88.54,0,0,0,259.36,194.16Z"/><path class="cls-53" d="M256.57,229.29a23,23,0,0,0-.56,3.2,6.54,6.54,0,0,0,0,2.57.18.18,0,0,0,.24.09.2.2,0,0,0,.09-.09,8.61,8.61,0,0,0,.68-2.6c.22-1,.44-2,.61-3a.53.53,0,0,0-.44-.62.54.54,0,0,0-.62.44Z"/><path class="cls-55" d="M244.65,407.15c-.14-1.46-.32-2.9-.52-4.34-.37-2.78-4.57-25.3-6.76-36.27-1.25-6.2-2.72-12.33-4.25-18.46-.12-.42-.67-.21-.6.2.94,5.64,1.84,11.22,2.9,16.81s7,34.24,7.59,37.36c.28,1.55.57,3.11.89,4.65s.74,3.06,1,4.62c0,.14.22.06.21-.07C244.84,410.16,244.81,408.64,244.65,407.15Z"/><path class="cls-55" d="M281.57,346.08c-1.71-8.53-4-17-6.35-25.37-4.68-16.91-10.14-33.55-15.68-50.19q-2.39-7.18-4.76-14.39c-.79-2.39-4.67-15.33-5.15-16.56a.11.11,0,0,0-.11-.1.11.11,0,0,0-.1.1c1.13,4.41,2.64,10.84,3.93,15.19s2.66,8.6,4,12.88c2.63,8.44,5.3,16.85,7.89,25.31,5.05,16.7,10.06,33.41,14.16,50.38,1.12,4.75,2.25,9.5,3.38,14.28s1.94,9.57,2.94,14.34c0,.14.25.1.24,0C285,363.27,283.29,354.65,281.57,346.08Z"/><path class="cls-56" d="M255.06,235.61l11.63,26.05c1.05,3.1,8.5,4.31,12.06,3.41l12.21-6.4"/><path class="cls-55" d="M249.56,390.79c-2.83-16.31-6.23-32.52-10-48.63s-8-32.27-12.63-48.24-9.78-31.79-15.29-47.47a197.34,197.34,0,0,1-7-22.55c-1.7-7.61-2.56-15.84-.79-23.52a40.38,40.38,0,0,1,1.76-5.73c.06-.13-.13-.24-.19-.1C199.24,209,203.26,224.76,208,239c2.59,7.79,5.34,15.53,7.89,23.33q3.93,12,7.52,24.14c4.75,16,9.16,32.13,13.12,48.36s7.47,32.57,10.57,49,2.94,15.13,5.63,31.67c.34,2.15.61,4.32.9,6.48,0,.12.21.12.19,0C251.76,405.5,252.39,407.06,249.56,390.79Z"/><path class="cls-54" d="M271.58,131.18a.49.49,0,0,1-.31.57l-2,.41c-2.43-4.36-4.87-7.77-4.16-6.4a23.83,23.83,0,0,1,2.26,6.76l-3.88.76c-2.71-7.89-5.54-13.67-5.15-11.82,1.56,7.43,1.47,9.91,1.32,12.56-9.38,1.79-21.69,4-30.62,5.4-1.68-4.34-3.28-9.07-3.38-8.71-.86,2.72-.66,6.45-.29,9.29-2.84.43-5.13.72-6.53.82,0,0-1.2-3.68-1.47-4.91a25.9,25.9,0,0,1-.36-9.61,46.47,46.47,0,0,1,2.88-9.38v-.07h0a27.08,27.08,0,0,0,1.55-6.2h0a26.42,26.42,0,0,0,.09-4.62c-.37-5.63,2.06-10.86,7.07-13.08,8.54-10.69,19-8.21,23-1.51a19,19,0,0,1,1.13,2.26h0c1.47,3.06,3,7.1,4.26,10.2h0a27.65,27.65,0,0,0,1.7,3.56C262.1,112.9,268.27,115.37,271.58,131.18Z"/><path class="cls-57" d="M228.45,95.88c-3.68,2-5.84,5.44-5.67,9.09a22.39,22.39,0,0,1-.45,6.92,22.52,22.52,0,0,1-3.6,6.48,15.7,15.7,0,0,0-3.46,10.3,26.11,26.11,0,0,0,3.46,12.11h0A27.36,27.36,0,0,1,216,128c.13-4.41,2.63-7.44,5-11a15.88,15.88,0,0,0,2.89-9.27,17.93,17.93,0,0,1,.2-6,12,12,0,0,1,4.77-5.5.24.24,0,0,0,0-.38A.35.35,0,0,0,228.45,95.88Z"/><path class="cls-57" d="M265.4,112.86c-2.86-2.81-5.76-5.13-7.73-8.83-1.81-3.39-3.08-7-4.9-10.4m-.08-1.46c2.92,6.21,4.22,12.72,9,17.58,2.63,2.65,5.23,5.08,7.19,8.43a33,33,0,0,1,3.92,11.43.1.1,0,0,0,.07.13.09.09,0,0,0,.12-.06.08.08,0,0,0,0-.07A26.9,26.9,0,0,0,265.4,112Z"/><path class="cls-51" d="M248.55,141.05c14.85,8,39.61,16.25,53.54,16.2,6,0,29.18-10.74,40.74-18.65,4.32-2.95-15.37-25.52-20.41-22.83-3.39,1.82-20.74,16.28-23.75,16.84-5.54,1-30-2.25-45.55-2.16C244.47,130.5,239.33,136.05,248.55,141.05Z"/><path class="cls-7" d="M275.24,130.18l2,28.09s-28.37-12.41-35.69-18.42c-8.22-6.76-3-9.48,7.09-10.55S275.24,130.18,275.24,130.18Z"/><path class="cls-53" d="M270.23,131.53c-.24,3.61.6,14.54.71,16.34.07,1,.48,4.75.54,5.7,0,.12.19.09.18,0-.1-1.82,0-3.65-.11-5.47s-.53-13-1.19-16.55a.07.07,0,0,0-.05-.08A.08.08,0,0,0,270.23,131.53Z"/><path class="cls-7" d="M277.22,158.27s-28.37-12.41-35.69-18.42c-3.38-2.75-4.51-4.82-3.94-6.4L276,141.34Z"/><path class="cls-7" d="M202.7,193.24l65.41,1.13L263,174.77a20.48,20.48,0,0,0,3-17.08c-1.57-5.76-9-14.41-13.53-19.9-11.13-13.36-20.78-7.32-23.87-3.88C216.74,147,202.7,193.24,202.7,193.24Z"/><path class="cls-53" d="M245.51,173.57a56.24,56.24,0,0,1,8.41-.15c1.4.11,2.78.26,4.16.46.69.1,1.38.16,2.08.24a8.83,8.83,0,0,0,2.18,0c.05,0,.07.08,0,.11a19.92,19.92,0,0,1-2,.32,16.85,16.85,0,0,1-2,0c-1.41-.09-2.82-.23-4.23-.34-2.85-.21-5.71-.41-8.56-.41a.12.12,0,0,1-.11-.12A.11.11,0,0,1,245.51,173.57Z"/><path class="cls-53" d="M239.15,177.25a62.16,62.16,0,0,1,6.77-1.58c1.12-.19,2.25-.32,3.45-.41.55,0,1.12-.09,1.65-.11s1.22,0,1.83,0a.05.05,0,1,1,0,.1c-.56.06-1.13.22-1.7.31l-1.72.26c-1.12.18-2.25.37-3.38.54-2.25.33-4.51.68-6.84,1.12a.12.12,0,0,1-.15-.09A.11.11,0,0,1,239.15,177.25Z"/><path class="cls-51" d="M234.2,133.73c.41,1.13,6.87,8,12.13,7.06,1.72-.31.51-9.73.51-9.73l.08-.71,1-10-12.4-5.94-1.79-.77s-.08,2.77-.15,6.2v5.06A64.18,64.18,0,0,0,234.2,133.73Z"/><path class="cls-58" d="M233.58,119.81a20.22,20.22,0,0,0,13.34,10.54l1-10-12.41-5.94-1.78-.77S233.66,116.38,233.58,119.81Z"/><path class="cls-51" d="M260.08,103.46c5.64,16.76-3.79,22-7.41,23.23-3.28,1.13-14.6,4.41-21.92-11.68s-1.3-24,6.08-26.92S254.45,86.65,260.08,103.46Z"/><path class="cls-53" d="M255.57,103.56a8.28,8.28,0,0,1-1.22,0,1.81,1.81,0,0,1-1.25-.18.61.61,0,0,1-.19-.74,1.52,1.52,0,0,1,1.38-.73,2.22,2.22,0,0,1,1.57.53.67.67,0,0,1,0,1A.66.66,0,0,1,255.57,103.56Z"/><path class="cls-53" d="M243.46,106.32a9.81,9.81,0,0,0,1.13-.55,1.92,1.92,0,0,0,1-.76.65.65,0,0,0-.19-.75,1.59,1.59,0,0,0-1.58,0,2.36,2.36,0,0,0-1.2,1.13.68.68,0,0,0,.3.9A.69.69,0,0,0,243.46,106.32Z"/><path class="cls-53" d="M246.84,109s-.08.08-.07.14c.38,1.13.6,2.52-.34,3.2v.06C247.73,111.81,247.42,110,246.84,109Z"/><path class="cls-53" d="M245.51,108.08c-1.91.38-1,4.16.77,3.8S247.1,107.71,245.51,108.08Z"/><path class="cls-53" d="M244.81,108.42c-.28.3-.51.75-.9.88s-.89-.15-1.29-.46h0c.16.74.62,1.41,1.42,1.33s1.13-.84,1.13-1.61C245.09,108.47,244.92,108.3,244.81,108.42Z"/><path class="cls-53" d="M253.76,106.65s.11,0,.12.08c.23,1.13.71,2.5,1.86,2.64m0,.07c-1.33.11-1.94-1.64-2-2.79Z"/><path class="cls-53" d="M254.52,105.19c1.85-.59,2.89,3.16,1.13,3.7S253,105.67,254.52,105.19Z"/><path class="cls-53" d="M255.38,105.21c.35.13.73.4,1.13.33s.6-.58.76-1h.07c.21.71.19,1.52-.46,1.85s-1.22-.19-1.59-.86C255.19,105.39,255.23,105.17,255.38,105.21Z"/><path class="cls-53" d="M249.25,120.39c.55.37,1.14.9,1.83.81a4.94,4.94,0,0,0,2-.88m.11,0a2.62,2.62,0,0,1-2.23,1.5,2.07,2.07,0,0,1-1.82-1.39c-.07,0,.07-.09.14,0Z"/><path class="cls-53" d="M253.61,113.22s2.06,1.51,2.27,2.34c0,.08-1.55.32-1.83.41h0a4,4,0,0,1-4.18-.5c-.07,0,0-.17.09-.13a11.06,11.06,0,0,0,5.18,0c0-.25-2.62-2.71-2.47-2.76a7.22,7.22,0,0,1,2,0c-1.33-3.54-3.21-6.84-4.51-10.38a.12.12,0,0,1,.05-.16.13.13,0,0,1,.16,0,61.4,61.4,0,0,1,5.29,11C255.77,113.45,253.92,113.27,253.61,113.22Z"/><path class="cls-53" d="M255.88,115.56a7.94,7.94,0,0,1-2.26,3.3,3.54,3.54,0,0,1-2,.79c-1.63,0-2.1-1.28-2.19-2.52a8.45,8.45,0,0,1,.09-2A10.29,10.29,0,0,0,255.88,115.56Z"/><path class="cls-59" d="M253.67,118.86a3.52,3.52,0,0,1-2,.79c-1.62,0-2.1-1.28-2.19-2.52A3.65,3.65,0,0,1,253.67,118.86Z"/><path class="cls-54" d="M231,116a7.32,7.32,0,0,0,3-6.58,19,19,0,0,0,6.57-7.52c-.06.39-.44,3.14-.68,4.51,10.71-4,12.63-13.11,12.63-13.11a19.47,19.47,0,0,1,6.08,6.17s-1.13-6.77-5.43-10.74A11.12,11.12,0,0,0,242.24,86a15.91,15.91,0,0,0-14.46,7.45C222,102.44,231,116,231,116Z"/><path class="cls-57" d="M248,101.89a20.89,20.89,0,0,1-5.32,3.19h0a18.06,18.06,0,0,0,7.26-6.56,17.74,17.74,0,0,0,1.79-3.88,12.09,12.09,0,0,0,.72-4.65.09.09,0,1,1,.18,0,14.23,14.23,0,0,1-.11,4.65,12.91,12.91,0,0,1-1.8,4.23,15.06,15.06,0,0,1-2.72,3"/><path class="cls-51" d="M233.85,113.82s-5-4.52-7.16-2.54,2.58,9,5.71,9.39a3,3,0,0,0,3.5-2.39s0-.08,0-.11Z"/><path class="cls-53" d="M228.09,113.27v.08c2.2.34,3.71,1.94,4.9,3.69a1.63,1.63,0,0,0-2.32-.06,1.12,1.12,0,0,0-.18.2s0,.12.08.1a1.8,1.8,0,0,1,2.12.14,9.57,9.57,0,0,1,1.33,1.37.19.19,0,0,0,.31-.22h0C233.74,116,230.9,112.87,228.09,113.27Z"/><path class="cls-60" d="M239,210.78l-1,1.08a.32.32,0,0,1-.13.1.32.32,0,0,1-.31-.08.3.3,0,0,1,0-.42l0,0,1.37-1.5a.31.31,0,0,1,.44,0,.41.41,0,0,1,.1.21l2.35,7.9a.3.3,0,0,1-.19.38h0a.31.31,0,0,1-.39-.2Z"/><path class="cls-60" d="M243.89,217.22l3-4.85a2.25,2.25,0,0,0-.66-3.12l-.12-.07a2.26,2.26,0,0,0-1.85-.23,2.33,2.33,0,0,0-1.34,1l-.3.51a.32.32,0,0,1-.44.06.31.31,0,0,1-.1-.38l.3-.52a3,3,0,0,1,1.7-1.29,2.86,2.86,0,0,1,2.35.31,2.94,2.94,0,0,1,1.31,1.67,3,3,0,0,1-.31,2.38l-2.53,4.15,4.09-1.21a.32.32,0,0,1,.38.21h0a.3.3,0,0,1-.2.38l-4.83,1.43h0a.21.21,0,0,1-.24,0,.33.33,0,0,1-.19-.42Z"/><path class="cls-60" d="M254.17,205.92l-1.56,3a3.06,3.06,0,1,1-1.2,5.74.31.31,0,0,1-.13-.43h0a.3.3,0,0,1,.41-.13h0a2.41,2.41,0,0,0,3.48-2.8,2.41,2.41,0,0,0-1.13-1.43,2.36,2.36,0,0,0-1.84-.19.34.34,0,0,1-.28,0h0a.35.35,0,0,1-.14-.46l1.5-2.84-3.31,1a.32.32,0,1,1-.19-.62h0l4-1.19a.33.33,0,0,1,.41.21.38.38,0,0,1,0,.15A.12.12,0,0,1,254.17,205.92Z"/><path class="cls-61" d="M410,207.51l-126.83,57a12.9,12.9,0,0,1-17-6.47l-35.45-78.91a12.89,12.89,0,0,1,6.48-17l39.06-17.55L364,105.11a12.88,12.88,0,0,1,17,6.47l35.44,78.9A12.88,12.88,0,0,1,410,207.51Z"/><rect class="cls-62" x="245.6" y="148.52" width="126.91" height="14.02" rx="3.26" transform="translate(-36.6 140.31) rotate(-24.19)"/><path class="cls-9" d="M272.13,188a4.66,4.66,0,0,0-.71-1.14,2.62,2.62,0,0,0-.82-.64,1.86,1.86,0,0,0-.89-.17,2.58,2.58,0,0,0-.94.25,2.42,2.42,0,0,0-.79.55,1.78,1.78,0,0,0-.45.79,2.32,2.32,0,0,0,0,1,4.76,4.76,0,0,0,.4,1.28l.51,1.1a4.37,4.37,0,0,0,.71,1.14,2.66,2.66,0,0,0,.82.64,1.86,1.86,0,0,0,.89.17,2.85,2.85,0,0,0,1.74-.8,1.88,1.88,0,0,0,.45-.79,2.5,2.5,0,0,0,0-1,4.44,4.44,0,0,0-.41-1.29Zm-.4,2.57a1.53,1.53,0,0,1,0,.54.76.76,0,0,1-.15.39,1,1,0,0,1-.34.25,1,1,0,0,1-.41.09.67.67,0,0,1-.39-.13,1.43,1.43,0,0,1-.39-.39,3.72,3.72,0,0,1-.39-.68l-.66-1.44a4,4,0,0,1-.27-.73,1.68,1.68,0,0,1,0-.53.81.81,0,0,1,.16-.39,1,1,0,0,1,.33-.24.91.91,0,0,1,.41-.1.86.86,0,0,1,.4.13,1.37,1.37,0,0,1,.38.38,3.23,3.23,0,0,1,.38.68l.66,1.43A4,4,0,0,1,271.73,190.59Z"/><path class="cls-9" d="M277.21,185.68a4.66,4.66,0,0,0-.72-1.14,2.48,2.48,0,0,0-.82-.63,1.71,1.71,0,0,0-.89-.17,2.56,2.56,0,0,0-.94.24,2.71,2.71,0,0,0-.79.55,1.94,1.94,0,0,0-.45.79,2.67,2.67,0,0,0-.05,1,4.44,4.44,0,0,0,.41,1.29l.5,1.09a5.06,5.06,0,0,0,.71,1.15,2.51,2.51,0,0,0,.83.63,1.84,1.84,0,0,0,.89.17,2.78,2.78,0,0,0,.94-.24,2.71,2.71,0,0,0,.79-.55,1.79,1.79,0,0,0,.45-.79,2.72,2.72,0,0,0,.05-1,4.82,4.82,0,0,0-.41-1.28Zm-.4,2.57a1.89,1.89,0,0,1,.05.55.77.77,0,0,1-.16.38.86.86,0,0,1-.34.25.77.77,0,0,1-.41.09.67.67,0,0,1-.39-.13,1.53,1.53,0,0,1-.39-.38,4.24,4.24,0,0,1-.39-.69l-.66-1.43a5.08,5.08,0,0,1-.26-.73,1.5,1.5,0,0,1,0-.54.69.69,0,0,1,.16-.38,1,1,0,0,1,.33-.25,1,1,0,0,1,.41-.09.74.74,0,0,1,.39.12,1.73,1.73,0,0,1,.39.38,5,5,0,0,1,.38.68l.66,1.43A4.3,4.3,0,0,1,276.81,188.25Z"/><path class="cls-9" d="M282.28,183.35a5.06,5.06,0,0,0-.71-1.15,2.58,2.58,0,0,0-.82-.63,1.88,1.88,0,0,0-.9-.17,2.48,2.48,0,0,0-.93.25,2.58,2.58,0,0,0-.8.55,1.78,1.78,0,0,0-.44.78,2.37,2.37,0,0,0-.05,1,4.76,4.76,0,0,0,.4,1.28l.51,1.1a4.37,4.37,0,0,0,.71,1.14,2.66,2.66,0,0,0,.82.64l.11,0a1.91,1.91,0,0,0,.78.13,2.85,2.85,0,0,0,1.74-.8,1.82,1.82,0,0,0,.44-.79,2.49,2.49,0,0,0,.05-1,4.7,4.7,0,0,0-.33-1.11,1.42,1.42,0,0,0-.08-.18Zm-.41,2.53v0a1.53,1.53,0,0,1,.05.54.69.69,0,0,1-.16.39,1.06,1.06,0,0,1-.33.25,1,1,0,0,1-.41.09.25.25,0,0,1-.12,0,.62.62,0,0,1-.27-.11,1.79,1.79,0,0,1-.39-.39,3.52,3.52,0,0,1-.39-.69l-.66-1.43a4,4,0,0,1-.27-.73,1.5,1.5,0,0,1,0-.54.81.81,0,0,1,.16-.38,1.07,1.07,0,0,1,.74-.34.75.75,0,0,1,.39.13,1.39,1.39,0,0,1,.39.38,4,4,0,0,1,.38.67l.66,1.44a4.14,4.14,0,0,1,.26.7Z"/><path class="cls-9" d="M287.36,181a5.87,5.87,0,0,0-.5-.87,2,2,0,0,0-.22-.27,2.66,2.66,0,0,0-.82-.64,2,2,0,0,0-.89-.17,2.58,2.58,0,0,0-.94.25,2.71,2.71,0,0,0-.79.55,1.94,1.94,0,0,0-.45.79,2.49,2.49,0,0,0-.05,1,4.44,4.44,0,0,0,.41,1.29l.4.87.1.22a4.66,4.66,0,0,0,.71,1.14,2.62,2.62,0,0,0,.82.64,1.88,1.88,0,0,0,.9.17,2.67,2.67,0,0,0,.93-.24,2.64,2.64,0,0,0,.8-.55,2,2,0,0,0,.45-.8,2.66,2.66,0,0,0,0-1,5,5,0,0,0-.41-1.29Zm-.41,2.57a1.58,1.58,0,0,1,.05.55.76.76,0,0,1-.15.38,1,1,0,0,1-.34.25.87.87,0,0,1-.41.09.67.67,0,0,1-.39-.13,1.53,1.53,0,0,1-.39-.38,4.24,4.24,0,0,1-.39-.69l-.44-1-.22-.48a3.31,3.31,0,0,1-.26-.74,1.43,1.43,0,0,1,0-.53.73.73,0,0,1,.15-.38,1,1,0,0,1,.34-.25,1,1,0,0,1,.4-.09.75.75,0,0,1,.4.12,1.37,1.37,0,0,1,.38.38,3.86,3.86,0,0,1,.26.42h0l.13.26.66,1.43A3.31,3.31,0,0,1,287,183.58Z"/><path class="cls-9" d="M297.22,176.59a4.94,4.94,0,0,0-.72-1.15,2.48,2.48,0,0,0-.82-.63,1.84,1.84,0,0,0-.89-.17,2.58,2.58,0,0,0-.94.25,2.54,2.54,0,0,0-.79.55,1.91,1.91,0,0,0-.45.78,2.54,2.54,0,0,0-.05,1,4.82,4.82,0,0,0,.41,1.28l.5,1.1a4.66,4.66,0,0,0,.72,1.14,2.48,2.48,0,0,0,.82.63,1.83,1.83,0,0,0,.89.18,2.58,2.58,0,0,0,.94-.25,2.54,2.54,0,0,0,.79-.55,1.94,1.94,0,0,0,.45-.79,2.67,2.67,0,0,0,.05-1,4.76,4.76,0,0,0-.41-1.29Zm-.4,2.57a1.5,1.5,0,0,1,0,.54.71.71,0,0,1-.15.39,1.11,1.11,0,0,1-.34.25,1,1,0,0,1-.4.09.76.76,0,0,1-.4-.13,1.43,1.43,0,0,1-.39-.39,3.72,3.72,0,0,1-.39-.68l-.66-1.44a4.69,4.69,0,0,1-.26-.73,1.5,1.5,0,0,1,0-.54.8.8,0,0,1,.15-.38,1,1,0,0,1,.34-.24.88.88,0,0,1,.41-.1.75.75,0,0,1,.39.13,1.53,1.53,0,0,1,.39.38,4.84,4.84,0,0,1,.38.67l.66,1.44A4,4,0,0,1,296.82,179.16Z"/><path class="cls-9" d="M302.29,174.25a4.66,4.66,0,0,0-.71-1.14,2.58,2.58,0,0,0-.82-.63,2,2,0,0,0-.9-.18,2.53,2.53,0,0,0-.93.25,2.77,2.77,0,0,0-.8.55,1.82,1.82,0,0,0-.44.79,2.48,2.48,0,0,0-.06,1,4.76,4.76,0,0,0,.41,1.29l.5,1.09a4.94,4.94,0,0,0,.72,1.15,2.48,2.48,0,0,0,.82.63,1.86,1.86,0,0,0,.89.17,2.78,2.78,0,0,0,.94-.24,2.45,2.45,0,0,0,.79-.56,1.71,1.71,0,0,0,.45-.78,2.54,2.54,0,0,0,.05-1,4.63,4.63,0,0,0-.41-1.29Zm-.4,2.57a1.58,1.58,0,0,1,.05.55.69.69,0,0,1-.16.38.93.93,0,0,1-.33.25,1,1,0,0,1-.41.09.67.67,0,0,1-.39-.13,1.43,1.43,0,0,1-.39-.39,3.72,3.72,0,0,1-.39-.68l-.66-1.43a4,4,0,0,1-.27-.74,1.43,1.43,0,0,1,0-.53.77.77,0,0,1,.16-.38.85.85,0,0,1,.33-.25,1,1,0,0,1,.41-.09.8.8,0,0,1,.4.12,1.7,1.7,0,0,1,.38.38,3.75,3.75,0,0,1,.38.68l.66,1.43A4,4,0,0,1,301.89,176.82Z"/><path class="cls-9" d="M307.36,171.92a4.28,4.28,0,0,0-.71-1.15,2.48,2.48,0,0,0-.82-.63,1.84,1.84,0,0,0-.89-.17,2.58,2.58,0,0,0-.94.25,2.28,2.28,0,0,0-.79.55,1.91,1.91,0,0,0-.45.78,2.54,2.54,0,0,0-.05,1,4.48,4.48,0,0,0,.41,1.28l.5,1.1a5,5,0,0,0,.71,1.14,2.58,2.58,0,0,0,.82.63,1.89,1.89,0,0,0,.9.18,2.53,2.53,0,0,0,.93-.25,2.64,2.64,0,0,0,.8-.55,1.94,1.94,0,0,0,.45-.79,2.54,2.54,0,0,0,0-1,4.76,4.76,0,0,0-.4-1.28Zm-.4,2.57a1.33,1.33,0,0,1,.05.54.8.8,0,0,1-.15.39,1,1,0,0,1-.34.24.88.88,0,0,1-.41.1.75.75,0,0,1-.39-.13,1.79,1.79,0,0,1-.39-.39,3.52,3.52,0,0,1-.39-.69l-.66-1.43a3.84,3.84,0,0,1-.26-.73,1.3,1.3,0,0,1,0-.54.76.76,0,0,1,.15-.38,1,1,0,0,1,.34-.24.85.85,0,0,1,.4-.1.68.68,0,0,1,.4.13,1.37,1.37,0,0,1,.38.38,4,4,0,0,1,.39.67l.66,1.44A3.9,3.9,0,0,1,307,174.49Z"/><path class="cls-9" d="M312.44,169.58a4.66,4.66,0,0,0-.72-1.14,2.42,2.42,0,0,0-.82-.64,1.82,1.82,0,0,0-.89-.17,2.48,2.48,0,0,0-.93.25,2.58,2.58,0,0,0-.8.55,2,2,0,0,0-.26.34,2.25,2.25,0,0,0-.19.45,2.67,2.67,0,0,0-.05,1,4.87,4.87,0,0,0,.41,1.29l.5,1.09a4.66,4.66,0,0,0,.72,1.14,2.51,2.51,0,0,0,.82.64,1.88,1.88,0,0,0,1.23.12,2.78,2.78,0,0,0,.6-.19,2.74,2.74,0,0,0,.79-.56,1.69,1.69,0,0,0,.45-.79,2.49,2.49,0,0,0,.05-1,4.87,4.87,0,0,0-.41-1.29Zm-.4,2.57a1.56,1.56,0,0,1,0,.55.69.69,0,0,1-.16.38.93.93,0,0,1-.33.25,1,1,0,0,1-.41.09h-.09a.67.67,0,0,1-.31-.12,1.43,1.43,0,0,1-.39-.39,4.47,4.47,0,0,1-.38-.68l-.66-1.43a4.24,4.24,0,0,1-.27-.73.6.6,0,0,1,0-.12,1.23,1.23,0,0,1,0-.42.69.69,0,0,1,.16-.38.85.85,0,0,1,.33-.25,1.23,1.23,0,0,1,.41-.1.86.86,0,0,1,.39.13,1.53,1.53,0,0,1,.39.38,4.47,4.47,0,0,1,.38.68l.66,1.43A4,4,0,0,1,312,172.15Z"/><path class="cls-9" d="M321.62,165.46a4.74,4.74,0,0,0-.72-1.15,2.48,2.48,0,0,0-.82-.63,1.84,1.84,0,0,0-.89-.17,2.58,2.58,0,0,0-.94.25,2.54,2.54,0,0,0-.79.55,1.91,1.91,0,0,0-.45.78,2.72,2.72,0,0,0-.05,1,4.48,4.48,0,0,0,.41,1.28l.5,1.1a4.66,4.66,0,0,0,.72,1.14,2.48,2.48,0,0,0,.82.63,1.83,1.83,0,0,0,.89.18,2.58,2.58,0,0,0,.94-.25,2.54,2.54,0,0,0,.79-.55,1.88,1.88,0,0,0,.45-.79,2.67,2.67,0,0,0,0-1,4.76,4.76,0,0,0-.41-1.29Zm-.4,2.57a1.5,1.5,0,0,1,0,.54.71.71,0,0,1-.15.39,1.11,1.11,0,0,1-.34.25,1,1,0,0,1-.41.09.75.75,0,0,1-.39-.13,1.59,1.59,0,0,1-.39-.39,3.72,3.72,0,0,1-.39-.68l-.66-1.44a4.69,4.69,0,0,1-.26-.73,1.5,1.5,0,0,1,0-.54.69.69,0,0,1,.16-.38.83.83,0,0,1,.33-.24.88.88,0,0,1,.4-.1.76.76,0,0,1,.4.13,1.53,1.53,0,0,1,.39.38,4.84,4.84,0,0,1,.38.67l.66,1.44A4,4,0,0,1,321.22,168Z"/><path class="cls-9" d="M326.69,163.12A4.66,4.66,0,0,0,326,162a2.58,2.58,0,0,0-.82-.63,1.89,1.89,0,0,0-.9-.18,2.53,2.53,0,0,0-.93.25,2.77,2.77,0,0,0-.8.55,1.94,1.94,0,0,0-.45.79,2.5,2.5,0,0,0,0,1,4.39,4.39,0,0,0,.4,1.29l.5,1.09a4.94,4.94,0,0,0,.72,1.15,2.48,2.48,0,0,0,.82.63,1.86,1.86,0,0,0,.89.17,2.78,2.78,0,0,0,.94-.24,2.45,2.45,0,0,0,.79-.56,1.71,1.71,0,0,0,.45-.78,2.54,2.54,0,0,0,.05-1,4.63,4.63,0,0,0-.41-1.29Zm-.4,2.57a1.56,1.56,0,0,1,0,.55.69.69,0,0,1-.16.38.93.93,0,0,1-.33.25,1,1,0,0,1-.41.09.67.67,0,0,1-.39-.13,1.43,1.43,0,0,1-.39-.39,3.72,3.72,0,0,1-.39-.68l-.66-1.43a4,4,0,0,1-.27-.74,1.43,1.43,0,0,1,0-.53.77.77,0,0,1,.16-.38.85.85,0,0,1,.33-.25,1,1,0,0,1,.41-.09.8.8,0,0,1,.4.12,1.7,1.7,0,0,1,.38.38,3.75,3.75,0,0,1,.38.68L326,165A4,4,0,0,1,326.29,165.69Z"/><path class="cls-9" d="M331.77,160.78a4.66,4.66,0,0,0-.72-1.14,2.48,2.48,0,0,0-.82-.63,1.86,1.86,0,0,0-.89-.17,2.78,2.78,0,0,0-.94.24,2.59,2.59,0,0,0-.79.55,2,2,0,0,0-.45.79,2.37,2.37,0,0,0-.05,1,4.48,4.48,0,0,0,.41,1.28l.5,1.09a4.55,4.55,0,0,0,.71,1.15,2.58,2.58,0,0,0,.82.63,1.89,1.89,0,0,0,.9.18,2.86,2.86,0,0,0,1.73-.8,1.94,1.94,0,0,0,.45-.79,2.54,2.54,0,0,0,0-1,4.43,4.43,0,0,0-.4-1.28Zm-.41,2.58a1.53,1.53,0,0,1,.05.54.8.8,0,0,1-.15.39,1,1,0,0,1-.34.24.88.88,0,0,1-.41.1.75.75,0,0,1-.39-.13,1.79,1.79,0,0,1-.39-.39,3.52,3.52,0,0,1-.39-.69l-.66-1.43a3.25,3.25,0,0,1-.26-.73,1.3,1.3,0,0,1,0-.54.76.76,0,0,1,.15-.38,1,1,0,0,1,.34-.24.85.85,0,0,1,.4-.1.68.68,0,0,1,.4.13,1.24,1.24,0,0,1,.38.38,3.6,3.6,0,0,1,.39.67l.65,1.44A3.4,3.4,0,0,1,331.36,163.36Z"/><path class="cls-9" d="M336.84,158.45a4.66,4.66,0,0,0-.72-1.14,2.51,2.51,0,0,0-.82-.64,1.82,1.82,0,0,0-.89-.17,2.48,2.48,0,0,0-.93.25,2.58,2.58,0,0,0-.8.55,1.88,1.88,0,0,0-.45.79,2.67,2.67,0,0,0-.05,1,4.87,4.87,0,0,0,.41,1.29l.5,1.09a4.66,4.66,0,0,0,.72,1.14,2.51,2.51,0,0,0,.82.64,1.84,1.84,0,0,0,.89.17,2.78,2.78,0,0,0,.94-.24,2.74,2.74,0,0,0,.79-.56,1.69,1.69,0,0,0,.45-.79,2.48,2.48,0,0,0,.05-1,4.87,4.87,0,0,0-.41-1.29Zm-.4,2.57a1.84,1.84,0,0,1,.05.55.69.69,0,0,1-.16.38,1,1,0,0,1-.74.34.68.68,0,0,1-.4-.13,1.43,1.43,0,0,1-.39-.39,4.47,4.47,0,0,1-.38-.68l-.66-1.43a4,4,0,0,1-.27-.74,1.43,1.43,0,0,1,0-.53.66.66,0,0,1,.16-.38.85.85,0,0,1,.33-.25,1.23,1.23,0,0,1,.41-.1.86.86,0,0,1,.39.13,1.53,1.53,0,0,1,.39.38,4.47,4.47,0,0,1,.38.68l.66,1.43A4,4,0,0,1,336.44,161Z"/><path class="cls-9" d="M346.6,154a4.7,4.7,0,0,0-.63-1.05h0l-.08-.09a2.66,2.66,0,0,0-.82-.64,2,2,0,0,0-.89-.17,2.79,2.79,0,0,0-1.73.8,1.88,1.88,0,0,0-.45.79,2.32,2.32,0,0,0-.05,1l0,.19a5,5,0,0,0,.38,1.1l.5,1.09a4.66,4.66,0,0,0,.71,1.14,2.62,2.62,0,0,0,.82.64,1.88,1.88,0,0,0,.9.17,2.72,2.72,0,0,0,.93-.24,2.79,2.79,0,0,0,.8-.56,1.76,1.76,0,0,0,.44-.79,2.33,2.33,0,0,0,.05-1,4.71,4.71,0,0,0-.4-1.29Zm-.4,2.57a1.56,1.56,0,0,1,.05.55.69.69,0,0,1-.16.38,1,1,0,0,1-.33.25,1,1,0,0,1-.41.09.67.67,0,0,1-.39-.13,1.43,1.43,0,0,1-.39-.39,3.72,3.72,0,0,1-.39-.68l-.66-1.44a3.09,3.09,0,0,1-.26-.73,1.49,1.49,0,0,1-.05-.54.83.83,0,0,1,.16-.37l.07-.08a.89.89,0,0,1,.27-.17.68.68,0,0,1,.2-.07h0a.46.46,0,0,1,.2,0,.75.75,0,0,1,.4.12,1.37,1.37,0,0,1,.38.38,3.75,3.75,0,0,1,.38.68l.66,1.43A4,4,0,0,1,346.2,156.53Z"/><path class="cls-9" d="M351.68,151.62a4.66,4.66,0,0,0-.72-1.14,2.48,2.48,0,0,0-.82-.63,1.84,1.84,0,0,0-.89-.17,2.78,2.78,0,0,0-.94.24,2.71,2.71,0,0,0-.79.55,2,2,0,0,0-.45.79,2,2,0,0,0-.07.43,2.54,2.54,0,0,0,0,.61,3.61,3.61,0,0,0,.16.65,5.14,5.14,0,0,0,.25.63l.5,1.09a4.55,4.55,0,0,0,.72,1.15,2.48,2.48,0,0,0,.82.63,1.83,1.83,0,0,0,.89.18,2.58,2.58,0,0,0,.94-.25,2.71,2.71,0,0,0,.79-.55,1.94,1.94,0,0,0,.45-.79,2.72,2.72,0,0,0,0-1,4.82,4.82,0,0,0-.41-1.28Zm-.4,2.57a1.56,1.56,0,0,1,0,.55.68.68,0,0,1-.15.38.86.86,0,0,1-.34.25.85.85,0,0,1-.4.1.86.86,0,0,1-.4-.13,1.79,1.79,0,0,1-.39-.39,3.62,3.62,0,0,1-.38-.69l-.67-1.43a4.69,4.69,0,0,1-.26-.73,1.5,1.5,0,0,1,0-.54.69.69,0,0,1,.16-.38,1,1,0,0,1,.33-.25,1,1,0,0,1,.41-.09.67.67,0,0,1,.39.13,1.48,1.48,0,0,1,.39.37,5,5,0,0,1,.38.68l.66,1.44A4,4,0,0,1,351.28,154.19Z"/><path class="cls-9" d="M356.75,149.29a4.94,4.94,0,0,0-.71-1.15,2.58,2.58,0,0,0-.82-.63,1.86,1.86,0,0,0-.89-.17,2.53,2.53,0,0,0-.94.25,2.58,2.58,0,0,0-.8.55,1.76,1.76,0,0,0-.44.79,2.32,2.32,0,0,0,0,1,4.58,4.58,0,0,0,.4,1.29l.5,1.09a4.66,4.66,0,0,0,.72,1.14,2.66,2.66,0,0,0,.82.64,1.86,1.86,0,0,0,.89.17,2.85,2.85,0,0,0,1.74-.8,1.76,1.76,0,0,0,.44-.79,2.33,2.33,0,0,0,.05-1,4.44,4.44,0,0,0-.41-1.29Zm-.4,2.57a1.56,1.56,0,0,1,0,.55.69.69,0,0,1-.16.38,1,1,0,0,1-.33.25,1,1,0,0,1-.41.09.67.67,0,0,1-.39-.13,1.43,1.43,0,0,1-.39-.39,3.72,3.72,0,0,1-.39-.68l-.66-1.44a4,4,0,0,1-.27-.73,1.48,1.48,0,0,1,0-.54.74.74,0,0,1,.16-.37.76.76,0,0,1,.33-.25,1.07,1.07,0,0,1,.41-.1.9.9,0,0,1,.4.13,1.7,1.7,0,0,1,.38.38,3.75,3.75,0,0,1,.38.68l.66,1.43A4,4,0,0,1,356.35,151.86Z"/><path class="cls-9" d="M361.83,147a4.66,4.66,0,0,0-.72-1.14,2.48,2.48,0,0,0-.82-.63,1.84,1.84,0,0,0-.89-.17,2.71,2.71,0,0,0-1.73.79,1.94,1.94,0,0,0-.45.79,2.49,2.49,0,0,0-.05,1,4.44,4.44,0,0,0,.41,1.29l.5,1.09a4.94,4.94,0,0,0,.71,1.15,2.51,2.51,0,0,0,.83.63,1.82,1.82,0,0,0,.89.17,2.56,2.56,0,0,0,.94-.24,2.71,2.71,0,0,0,.79-.55,2,2,0,0,0,.45-.79,2.55,2.55,0,0,0,0-1,4.43,4.43,0,0,0-.4-1.28Zm-.4,2.57a1.55,1.55,0,0,1,0,.55.68.68,0,0,1-.15.38,1,1,0,0,1-.34.25,1,1,0,0,1-.41.1.86.86,0,0,1-.39-.13,1.79,1.79,0,0,1-.39-.39,4.24,4.24,0,0,1-.39-.69l-.66-1.43a3.84,3.84,0,0,1-.26-.73,1.3,1.3,0,0,1,0-.54.76.76,0,0,1,.15-.38,1.11,1.11,0,0,1,.34-.25,1,1,0,0,1,.4-.09.75.75,0,0,1,.4.12,1.37,1.37,0,0,1,.38.38,4.1,4.1,0,0,1,.39.68l.66,1.44A4,4,0,0,1,361.43,149.52Z"/><path class="cls-9" d="M391.57,178.45l7.7,17.61a3.35,3.35,0,0,1-1.75,4.38l-14,6.14-1,.45-2.8,1.23a3.34,3.34,0,0,1-4.4-1.69l-4-9.06-.44-1-2-4.53-.44-1-.87-2a3.33,3.33,0,0,1,1.74-4.37l2-.89,1-.45,6.15-2.69,1-.45,5-2.18,1-.45h0l1.62-.71A3.33,3.33,0,0,1,391.57,178.45Z"/><path class="cls-63" d="M397.6,200.55h0l-17.85,7.82a3.5,3.5,0,0,1-2.66.06,3.4,3.4,0,0,1-1.91-1.81L367.46,189a3.48,3.48,0,0,1,1.79-4.54l0,0,17.85-7.81a3.46,3.46,0,0,1,2.66-.06,3.4,3.4,0,0,1,1.91,1.81L399.39,196A3.47,3.47,0,0,1,397.6,200.55Zm-28.24-15.84a3.2,3.2,0,0,0-1.65,4.19l7.69,17.62a3.13,3.13,0,0,0,1.77,1.67,3.16,3.16,0,0,0,2.45-.06l17.85-7.81h0a3.21,3.21,0,0,0,1.66-4.19l-7.7-17.62a3.11,3.11,0,0,0-1.76-1.67,3.23,3.23,0,0,0-2.46,0l-17.84,7.82Z"/><path class="cls-64" d="M380.24,193.6l-.18.08-8.74,3.83-.44-1,8.74-3.83a3.82,3.82,0,0,0,2.05-2.11,3.76,3.76,0,0,0,0-2.91l-3.1-7.1,1-.45,3.1,7.1a4.86,4.86,0,0,1,.06,3.76A5,5,0,0,1,380.24,193.6Z"/><path class="cls-64" d="M385.56,177.47l4.76,10.88a5.83,5.83,0,0,1,.06,4.51,6,6,0,0,1-3.16,3.26l-3.84,1.68a3.42,3.42,0,0,0-1.81,1.87,3.32,3.32,0,0,0,0,2.57l1.89,4.34-1,.45-1.89-4.34a4.37,4.37,0,0,1,0-3.42,4.46,4.46,0,0,1,2.4-2.48l3.84-1.68a4.87,4.87,0,0,0,2.57-2.65,4.74,4.74,0,0,0-.06-3.66l-4.75-10.88Z"/><path class="cls-64" d="M372.38,183.24,373.6,186a3.57,3.57,0,0,1-1.74,4.64l-.13.06L368.9,192l-.44-1,2.83-1.24a2.47,2.47,0,0,0,1.29-3.24l-1.22-2.79Z"/><path class="cls-5" d="M346.56,116c7.58-3.77,15.1-7.68,23.08-10.56,2-.8,4.65-1.14,6.5.37s2.09,3.75,3,5.73l2.44,5.86c.77,2,1.58,3.91,2.33,5.89-1-1.89-1.85-3.8-2.78-5.7l-2.69-5.74c-.94-1.71-1.48-4-2.92-5.34s-3.78-.86-5.58-.13c-4,1.37-7.85,3-11.73,4.71s-7.73,3.4-11.69,4.91Z"/><path class="cls-5" d="M359.73,228.45a60.56,60.56,0,0,1-14.3,6.75,61,61,0,0,1,14.3-6.75Z"/><path class="cls-5" d="M264.3,153.22c16.43-8.17,33.25-15.78,50.23-22.73-16.43,8.17-33.25,15.78-50.23,22.73Z"/><path class="cls-65" d="M242.25,173.34S248,196.57,249,196.82s32.92,14.48,32.92,14.48,9.73-.73,12.84,0,5.83,3.19,7.39,3.7-21.76,2.71-21.76,2.71L242.53,204s-5.91-13.63-5.05-15.62S242.25,173.34,242.25,173.34Z"/><path class="cls-51" d="M224.14,151.55c-2.41,18.25-8.56,56-.73,67.23,10.26,14.66,43.88,24.21,52.68,27.06,3.85,1.26,13.61-23.79,11.45-27.51S248.66,200,246.27,197.78s-5.2-31.18-8.52-46.46C233.56,132,226.19,136.09,224.14,151.55Z"/><path class="cls-51" d="M298.11,227c-1.4-1.52-.61-2.25,3-1.67s17.4,6,18.88,1-18-12.32-24.16-12.83-16.13.75-16.13.75C283.22,216.49,291.25,222.63,298.11,227Z"/><path class="cls-51" d="M266.49,241.84c10.14,5.81,22.42,13.67,35.61,13.53a6.56,6.56,0,0,0,4.06-1.34c5.92,0,7.71-2.75,7.71-2.75,5.51-1.65,7-4.75,7-4.75s6.94,0,7.61-4.23c.78-4.71-9.12-3.74-14.9-6.54-13.21-6.4-30.22-19.17-33.83-21.42Z"/><path class="cls-53" d="M295,238.76a93,93,0,0,0,11.9,5,93.19,93.19,0,0,0,13.86,2.68.11.11,0,1,1,0,.22,50,50,0,0,1-25.83-7.67C294.71,238.89,294.77,238.67,295,238.76Z"/><path class="cls-53" d="M289.94,246.18c3.93,1.55,10.83,4.22,23.93,4.94,0,0,.06.08,0,.08a44.84,44.84,0,0,1-24-4.84C289.63,246.25,289.69,246.08,289.94,246.18Z"/><path class="cls-53" d="M287.31,250.22c6.77,2.38,11.34,3,18.82,3.75v.08c-8.59.06-11.72-.89-18.93-3.62C287,250.34,287.05,250.16,287.31,250.22Z"/><path class="cls-7" d="M244.17,172.47l-26.56,9.34s4.44-30.63,8.29-39.28c4.33-9.72,8.36-5.38,12.07,4S244.17,172.47,244.17,172.47Z"/><path class="cls-53" d="M241.54,168c-3.54.73-13.86,4.43-15.56,5-.9.31-4.46,1.72-5.36,2-.11,0,0,.21.09.17,1.72-.58,3.51-1,5.23-1.56s12.41-4,15.65-5.53C241.65,168.09,241.62,168,241.54,168Z"/><path class="cls-53" d="M242.39,160.51c-.13-1.49-.26-3-.43-4.44h0c0,1.13.12,2.18.2,3.27-.51-2.12-1-4.24-1.69-6.32h-.06c.5,3.26,1.19,6.5,1.76,9.75s1.2,6.37,1.82,9.55c-.57.31-1.15.6-1.73.88a.1.1,0,0,0,0,.14.09.09,0,0,0,.08,0c.69-.2,1.36-.41,2-.59a.32.32,0,0,0,.27-.35C244,168.49,243.3,164.46,242.39,160.51Z"/><path class="cls-51" d="M320,118.38c4-3.48,8.12-10.6,11.75-12.12a4.51,4.51,0,0,1,5.27,1.13s.8-4.29,4.31-5.12c1.81-.43,4.09,2.08,4.09,2.08s.79-3.38,4-3.94c2.52-.44,4.43,2.14,4.43,2.14s2.25-2.91,5-2.53c5.52.77,11.55,22,4.68,27.45-3.2,2.56-4.39-2.69-4.39-2.69s-.12,8-4.45,9.32-5.48-5.56-5.48-5.56-.17,7.73-4.8,8.67c-4.84,1-4.78-6.12-4.78-6.12s-1.86,5.64-5.57,5.54c-6.15-.15-1.59-11.09-4-15.43l-8.41-.38Z"/><path class="cls-51" d="M325.42,112.24c-4.05,3-11.28-1-15.53,1.25-5.8,3.09,2.25,8.32,11.65,7.31l7.16-2.07Z"/><path class="cls-53" d="M345.38,104.22c0-.08.11-.14.16,0,3.75,6.76,5.81,16.07,3.84,24.55-.06.29-.42.48-.36.14C349.9,123.12,347.9,110.87,345.38,104.22Z"/><path class="cls-53" d="M339.2,131.64c1.57-8.21.35-16.09-2.07-24,0-.1.12-.13.16,0,2.26,3.56,3.26,8.77,3.7,12.88a22.09,22.09,0,0,1-1.51,11.28C339.42,131.84,339.16,131.81,339.2,131.64Z"/><path class="cls-53" d="M354.51,102.69a38.26,38.26,0,0,1,4.92,22.1.24.24,0,0,1-.47,0,78.43,78.43,0,0,0-4.55-22.1Z"/><polyline class="cls-53" points="242.16 159.34 276.02 141.34 276.25 144.53 242.39 160.51"/><path class="cls-66" d="M399.1,278s-44.52,86.11,35.6,121.1Z"/><ellipse class="cls-9" cx="503.93" cy="311.66" rx="82.78" ry="65.17"/><path class="cls-7" d="M493.11,208.41c-56.5,0-102.31,42.86-102.31,99.3,0,30.36,12.13,55.73,31.57,73.23a11.24,11.24,0,0,1,3.76,8.36v16.37a8.23,8.23,0,0,0,11.68,7.47L455.36,405A17.55,17.55,0,0,1,466.81,404a113.33,113.33,0,0,0,26.3,3.06c64.12,0,102.31-44.46,102.31-99.3C595.42,250.36,549.62,208.41,493.11,208.41ZM555,285.81Q540.19,309.39,525.35,333a16.14,16.14,0,0,1-23.43,4.26l-23.14-17.58a5.85,5.85,0,0,0-7,0l-32.62,24.43a5.2,5.2,0,0,1-7.51-6.95L462,289.23a15.06,15.06,0,0,1,21.56-4.12l25.09,18.2a6.29,6.29,0,0,0,7.52-.1l31.46-24.15A5.09,5.09,0,0,1,555,285.81Z"/></g></g></svg>