<?xml version="1.0" encoding="utf-8"?>
<!-- Generator: Adobe Illustrator 25.2.3, SVG Export Plug-In . SVG Version: 6.00 Build 0)  -->
<svg version="1.1" id="Layer_1" xmlns="http://www.w3.org/2000/svg" xmlns:xlink="http://www.w3.org/1999/xlink" x="0px" y="0px"
	 viewBox="0 0 1916 665" style="enable-background:new 0 0 1916 665;" xml:space="preserve">
<style type="text/css">
	.st0{fill:#FFCB05;}
	.st1{fill:#00678F;}
	.st2{fill:#FFFFFF;}
	.st3{fill:#ED1D24;}
</style>
<g>
	<g>
		<rect class="st0" width="1916" height="665"/>
	</g>
	<g>
		<path class="st1" d="M1582.98,328.59c0,142.32-279.77,257.69-624.83,257.69c-345.13,0-624.9-115.36-624.9-257.69
			S613.02,70.97,958.15,70.97C1303.21,70.97,1582.98,186.26,1582.98,328.59"/>
	</g>
	<g>
		<polygon class="st2" points="557.77,455.77 622.4,198.08 725.65,198.08 725.65,348.16 793.52,198.08 900.1,198.08 835.55,455.77 
			767.67,455.77 806.37,289.44 725.65,455.77 670.85,455.77 670.85,289.44 628.75,455.77 		"/>
		<polygon class="st3" points="921,459.02 930.67,423.12 1004.97,423.12 995.22,459.02 		"/>
		<polygon class="st2" points="1087.25,455.77 1151.8,198.08 1226.1,198.08 1258.45,335.16 1293.9,198.08 1361.7,198.08 
			1297.15,455.77 1226.1,455.77 1190.57,315.51 1155.05,455.77 		"/>
		<polygon class="st0" points="921,198.08 904.82,263.37 972.7,263.37 936.14,404.95 1010.36,404.95 1047,263.37 1114.8,263.37 
			1130.9,198.08 		"/>
	</g>
</g>
</svg>
