<svg id="Layer_1" data-name="Layer 1" xmlns="http://www.w3.org/2000/svg" xmlns:xlink="http://www.w3.org/1999/xlink" viewBox="0 0 815.8 487.98"><defs><style>.cls-1,.cls-12,.cls-17,.cls-20,.cls-49{fill:none;}.cls-2{clip-path:url(#clip-path);}.cls-3,.cls-4,.cls-5{fill:#1a2b4c;}.cls-3{stroke:#ed743b;}.cls-20,.cls-3,.cls-49,.cls-6{stroke-miterlimit:10;}.cls-3,.cls-6{stroke-width:2px;}.cls-5{opacity:0.2;}.cls-6{fill:#f29669;stroke:#0d2e4c;}.cls-7{font-size:19.33px;fill:#1b2a4c;}.cls-18,.cls-7{font-family:Poppins-SemiBold, Poppins;font-weight:600;}.cls-8{fill:#2a415d;}.cls-9{clip-path:url(#clip-path-2);}.cls-10,.cls-26,.cls-29{fill:#fff;}.cls-11{fill:#f9f9fa;}.cls-12{stroke:#dcdbdb;}.cls-12,.cls-17,.cls-20{stroke-width:0.77px;}.cls-13,.cls-14,.cls-15,.cls-18,.cls-21,.cls-24,.cls-26,.cls-29{isolation:isolate;}.cls-13,.cls-18{font-size:7.24px;fill:#5f6a80;}.cls-13,.cls-47{font-family:Poppins-Bold, Poppins;}.cls-13,.cls-15,.cls-47{font-weight:700;}.cls-15{font-size:7.49px;fill:#2a387c;font-family:Cairo-Bold, Cairo Bold;}.cls-16{letter-spacing:-0.01em;}.cls-17{stroke:#ee7d00;}.cls-19{opacity:0.35;}.cls-20{stroke:#1f1c40;}.cls-21,.cls-22,.cls-24{fill:#1f1c40;}.cls-21{opacity:0.4;}.cls-23{fill:#62bddd;}.cls-24,.cls-26,.cls-29{font-size:6.42px;}.cls-24{font-family:Cairo-Regular, Cairo Regular;}.cls-25{fill:#4a5ea7;}.cls-26{font-family:Cairo-Medium, Cairo Medium;font-weight:500;}.cls-27{filter:url(#filter);}.cls-28{fill:#58b1ce;}.cls-29{font-family:Poppins-Regular, Poppins;}.cls-30{filter:url(#filter-2);}.cls-31{fill:#e96524;}.cls-32{fill:#292968;}.cls-33{fill:#218dcd;}.cls-34{fill:#0aaecc;}.cls-35{fill:#d7d7d6;opacity:0.62;}.cls-36{fill:#808184;}.cls-37{fill:#231610;}.cls-38{fill:#603914;}.cls-39{fill:#2f1d13;}.cls-40{fill:#3c2415;}.cls-41{fill:url(#linear-gradient);}.cls-42{fill:url(#linear-gradient-2);}.cls-43{fill:#382313;}.cls-44{fill:url(#linear-gradient-3);}.cls-45{fill:#5fc3e1;}.cls-46,.cls-47{fill:#fcfdfc;}.cls-47{font-size:1.87px;}.cls-48{fill:#dfdfdf;}.cls-49{stroke:#dfdfdf;stroke-width:1.23px;}.cls-50{fill:#e96424;}</style><clipPath id="clip-path"><rect class="cls-1" x="35.42" y="-32.86" width="739.4" height="515.73"/></clipPath><clipPath id="clip-path-2"><path class="cls-1" d="M256.53,12.42h51.74c3.19,0,5.77,4.47,5.77,7.62h0a5.73,5.73,0,0,0,5.77,5.69H405.6A5.73,5.73,0,0,0,411.37,20V18.11a5.73,5.73,0,0,1,5.77-5.69H471a5.73,5.73,0,0,1,5.77,5.69V456.46a5.73,5.73,0,0,1-5.77,5.69H256.61a5.73,5.73,0,0,1-5.77-5.69L250.76,20C250.76,16.89,253.35,12.42,256.53,12.42Z"/></clipPath><filter id="filter"><feOffset dy="0.9" input="SourceAlpha"/><feGaussianBlur stdDeviation="4.52" result="blur"/><feFlood flood-color="#12100b"/><feComposite operator="in" in2="blur"/><feComposite in="SourceGraphic"/></filter><filter id="filter-2"><feOffset dy="0.63" input="SourceAlpha"/><feGaussianBlur stdDeviation="3.15" result="blur-2"/><feFlood flood-color="#12100b"/><feComposite operator="in" in2="blur-2"/><feComposite in="SourceGraphic"/></filter><linearGradient id="linear-gradient" x1="356.55" y1="155.01" x2="367.83" y2="155.01" gradientUnits="userSpaceOnUse"><stop offset="0" stop-color="#ae7c3b"/><stop offset="0.08" stop-color="#c0933a"/><stop offset="0.18" stop-color="#d2ab38"/><stop offset="0.3" stop-color="#e0bc37"/><stop offset="0.42" stop-color="#e7c736"/><stop offset="0.57" stop-color="#eaca36"/><stop offset="1" stop-color="#745129"/></linearGradient><linearGradient id="linear-gradient-2" x1="347.37" y1="132.34" x2="352.74" y2="132.34" xlink:href="#linear-gradient"/><linearGradient id="linear-gradient-3" x1="372.11" y1="132.34" x2="377.48" y2="132.34" xlink:href="#linear-gradient"/></defs><g class="cls-2"><path class="cls-3" d="M221.18,586.74c-5.48,0-19.56-25.64-22-29.48-12.51-19.44-23-40.58-29.93-62.67a236.43,236.43,0,0,1-.18-140.2c18.83-60.3,62.4-112.18,117.85-142.44,40.93-22.33,88-32.87,134.5-31.36,47.31,1.53,90.14,20.13,126.76,50.09a252.61,252.61,0,0,1,37.12,37.43c76.22,95.05,72.35,224.31-1.44,318.63H716c3.9,0,12.87-51.91,13.56-55.59,8.14-43.48,11.63-88.08,8.63-132.26-6.34-93.27-47.5-176.5-119.64-236.45-41.5-34.48-91.1-59.43-144-70.61C386.17,73.13,291,93.26,216.15,143.46,142.48,192.88,89.39,263.87,72.32,351.81,57.15,430,68.05,512.43,95.43,586.74Z"/></g><path class="cls-4" d="M815.8,485.37c-115.28,5.1-290.86,2.38-407.9,3-106.08-.59-277.89,1.76-382.41-2.15L0,485.37l25.49-.85c103.86-3.9,276.9-1.56,382.41-2.15,117.43.64,292-2.12,407.9,3Z"/><ellipse class="cls-5" cx="369.83" cy="454.84" rx="202.22" ry="30.1"/><path class="cls-6" d="M334.26,85.06,453.34,294.59A22.33,22.33,0,0,1,445,325L314.61,399.11a22.33,22.33,0,0,1-30.44-8.38L247.49,326.2l-82.4-145a22.34,22.34,0,0,1,8.38-30.45L303.81,76.68A22.34,22.34,0,0,1,334.26,85.06Z"/><path class="cls-4" d="M383.2,170.77a182.62,182.62,0,0,1,14,23.55,183.77,183.77,0,0,1-14-23.55Z"/><path class="cls-4" d="M269,347.74c-15.82-26.32-32.76-56-47.45-83,15.82,26.36,32.78,56,47.45,83Z"/><path class="cls-4" d="M311.31,93.17c-22.68,13-56,31.86-78.66,44.68-2.67,1.5-9.24,5.24-11.81,6.68-7.21,3.17-10.7,11-6.65,18.12,2.91,5.28,10.28,18.68,13.05,23.8a3.16,3.16,0,0,1-1,4.55l-3.89,2.3c-5.17,3.08-10.43,6.12-15.54,9.22A12.39,12.39,0,0,0,202.6,218c.64,1.29,1.51,2.59,2.25,3.88,12.46,20.83,31.61,52.85,44,73.85-12.74-20.85-32-52.63-44.58-73.47-.77-1.32-1.59-2.53-2.3-3.93a13.18,13.18,0,0,1,4.42-16.54c5.18-3.18,10.36-6.2,15.54-9.31l3.88-2.32a2.22,2.22,0,0,0,.63-3.29c-2.8-5-10.17-18.59-13-23.82-4.24-7.5-.6-15.93,7.06-19.26,2.55-1.44,9.21-5.15,11.84-6.63,22.67-12.72,56.18-31.43,79-44Z"/><text class="cls-7" transform="matrix(-0.49, -0.87, 0.87, -0.49, 207.68, 185.59)">100</text><path class="cls-6" d="M333.22,44.12,452.3,253.64a22.33,22.33,0,0,1-8.38,30.44L313.57,358.16a22.33,22.33,0,0,1-30.44-8.38l-36.67-64.53-82.41-145a22.33,22.33,0,0,1,8.38-30.44L302.78,35.74A22.33,22.33,0,0,1,333.22,44.12Z"/><path class="cls-4" d="M382.17,129.82a183.7,183.7,0,0,1,14,23.55,183.7,183.7,0,0,1-14-23.55Z"/><path class="cls-4" d="M268,306.79c-15.82-26.32-32.76-56-47.45-83,15.82,26.35,32.78,56,47.45,83Z"/><path class="cls-4" d="M310.27,52.22c-22.68,13.06-56,31.86-78.65,44.69-2.67,1.5-9.25,5.23-11.81,6.68-7.22,3.16-10.71,11-6.66,18.12,2.91,5.28,10.29,18.67,13,23.79a3.17,3.17,0,0,1-1,4.56l-3.9,2.3c-5.17,3.07-10.43,6.11-15.53,9.22a12.37,12.37,0,0,0-4.23,15.51c.65,1.3,1.51,2.59,2.26,3.89,12.45,20.82,31.61,52.85,44,73.84C235,234,215.73,202.19,203.19,181.35c-.76-1.31-1.59-2.53-2.3-3.93a13.16,13.16,0,0,1,4.43-16.53c5.18-3.19,10.35-6.21,15.53-9.32l3.89-2.32a2.21,2.21,0,0,0,.62-3.29c-2.79-5-10.17-18.59-13-23.81-4.24-7.51-.6-15.94,7.06-19.27,2.55-1.44,9.22-5.15,11.84-6.63,22.67-12.72,56.18-31.42,79-44Z"/><text class="cls-7" transform="matrix(-0.49, -0.87, 0.87, -0.49, 206.65, 144.64)">100</text><path class="cls-8" d="M468.62,0H258.74a21.32,21.32,0,0,0-21.29,21.37V449.56A21.34,21.34,0,0,0,258.69,471H468.62a21.36,21.36,0,0,0,21.26-21.43V21.43A21.35,21.35,0,0,0,468.62,0Zm8,436.32c0,11.28-8.52,20.38-19,20.38H269.81c-10.53,0-19.05-9.1-19.05-20.38V37.66c0-22.95,8.52-24.07,19.05-24.07h37.67c2.18,0,4,2.45,4,5.5v1.29c0,7.15,3.9,7.18,8.79,7.18h87c4.89,0,8.82,0,8.82-7.18V19.14c0-3,1.76-5.5,4-5.5h37.67c10.5,0,19,3.05,19,24.07Z"/><g class="cls-9"><rect class="cls-10" x="251.12" y="8.14" width="225.03" height="451.34"/><rect id="Rectangle_9075-2" data-name="Rectangle 9075-2" class="cls-11" x="251.12" y="259.48" width="225.03" height="103.99"/><line id="Line_2548-2" data-name="Line 2548-2" class="cls-12" x1="462.16" y1="327.12" x2="264.83" y2="327.12"/><g id="Payment_Method-2" data-name="Payment Method-2"><text class="cls-13" transform="translate(264.97 279.8) scale(1.08 1)">Payment Method:</text></g><g id="Order_Lines-2" data-name="Order Lines-2" class="cls-14"><text class="cls-15" transform="translate(264.96 32.21) scale(1.08 1)">O<tspan class="cls-16" x="5.16" y="0">r</tspan><tspan x="7.53" y="0">der Lines</tspan></text></g><line id="Line_2545-4" data-name="Line 2545-4" class="cls-17" x1="462.6" y1="48.52" x2="265.26" y2="48.52"/><g id="Ellipse_52-3" data-name="Ellipse 52-3"><ellipse class="cls-1" cx="271.46" cy="345.31" rx="6.64" ry="6.15"/><ellipse class="cls-12" cx="271.46" cy="345.31" rx="6.35" ry="5.88"/></g><g id="Cash_on_Delivery-2" data-name="Cash on Delivery-2"><text class="cls-18" transform="translate(292.42 348.26) scale(1.08 1)">Cash on Delivery</text></g><rect id="Rectangle_8976-2" data-name="Rectangle 8976-2" class="cls-10" x="251.12" y="8.14" width="225.03" height="45.45"/><g id="Group_16141-2" data-name="Group 16141-2"><g id="Group-2"><g id="Battery-2"><g id="Border-2" class="cls-19"><path class="cls-1" d="M449.81,16.34h9.61A1.49,1.49,0,0,1,461,17.77V21a1.49,1.49,0,0,1-1.54,1.42h-9.61A1.49,1.49,0,0,1,448.27,21V17.77A1.49,1.49,0,0,1,449.81,16.34Z"/><path class="cls-20" d="M449.81,16.61h9.61a1.2,1.2,0,0,1,1.25,1.16V21a1.19,1.19,0,0,1-1.25,1.15h-9.61A1.2,1.2,0,0,1,448.56,21V17.77A1.21,1.21,0,0,1,449.81,16.61Z"/></g><path id="Cap-2" class="cls-21" d="M461.54,18.3v2.14a1.13,1.13,0,0,0,0-2.14"/><path id="Capacity-2" class="cls-22" d="M450.19,17.41H459a.74.74,0,0,1,.77.71v2.5a.74.74,0,0,1-.77.71h-8.85a.75.75,0,0,1-.77-.71v-2.5A.75.75,0,0,1,450.19,17.41Z"/></g><path id="Wifi-2" class="cls-22" d="M440.83,22.16l-1.15-1.08a.16.16,0,0,1,0-.24h0a2.12,2.12,0,0,1,2.55,0,.16.16,0,0,1,.06.12.21.21,0,0,1-.05.13l-1.16,1.08a.2.2,0,0,1-.25,0Zm2-1.89a3,3,0,0,0-3.8,0,.18.18,0,0,1-.25,0l-.67-.62a.16.16,0,0,1,0-.24h0a4.39,4.39,0,0,1,5.63,0,.18.18,0,0,1,0,.25h0l-.66.62A.18.18,0,0,1,442.86,20.27Zm1.53-1.44a5.26,5.26,0,0,0-6.87,0,.2.2,0,0,1-.25,0l-.66-.63a.15.15,0,0,1,0-.24h0a6.65,6.65,0,0,1,8.7,0,.16.16,0,0,1,0,.24l-.67.63a.2.2,0,0,1-.25,0Z"/><path id="Cellular_Connection-2" data-name="Cellular Connection-2" class="cls-22" d="M432.5,22.22a.55.55,0,0,1-.58-.53V17.05a.56.56,0,0,1,.58-.53h.57a.56.56,0,0,1,.58.53v4.64a.55.55,0,0,1-.58.53Zm-2.7,0a.55.55,0,0,1-.57-.53V18.3a.56.56,0,0,1,.57-.53h.58a.56.56,0,0,1,.58.53v3.39a.55.55,0,0,1-.58.53Zm-2.69,0a.54.54,0,0,1-.57-.53V19.55a.55.55,0,0,1,.57-.53h.58a.56.56,0,0,1,.58.53v2.14a.55.55,0,0,1-.58.53Zm-2.69,0a.55.55,0,0,1-.58-.53V20.62a.55.55,0,0,1,.58-.53H425a.54.54,0,0,1,.57.53v1.07a.54.54,0,0,1-.57.53Z"/></g><rect id="Rectangle_22-2" data-name="Rectangle 22-2" class="cls-23" x="251.12" y="29.53" width="225.03" height="24.06"/><g id="_Time-2" data-name=" Time-2" class="cls-14"><text class="cls-24" transform="translate(264.74 21.78) scale(1.08 1)">9:41</text></g></g><g id="Group_16142-2" data-name="Group 16142-2"><g id="Group_16138-2" data-name="Group 16138-2"><path id="Path_8383-7" data-name="Path 8383-7" class="cls-11" d="M251.12,379.27h225v42.78h-225Z"/><g id="Group_18327-2" data-name="Group 18327-2"><rect id="Rectangle-6" class="cls-25" x="281.7" y="388.89" width="163.87" height="24.06"/><g id="Add_to_Cart-2" data-name="Add to Cart-2" class="cls-14"><text class="cls-26" transform="translate(347.37 403.33) scale(1.08 1)">تأكيد الطلب</text></g></g></g><g id="Group_16832-2" data-name="Group 16832-2"><g id="Group_16831-2" data-name="Group 16831-2"><g class="cls-27"><path id="Path_8383-8" data-name="Path 8383-8" class="cls-11" d="M251.12,379.27h225v58.29h-225Z"/></g><g id="Group_18707-2" data-name="Group 18707-2"><path id="Rectangle-7" class="cls-28" d="M280.56,393.29H446.72a7,7,0,0,1,7.22,6.69v10.68a7,7,0,0,1-7.22,6.69H280.56a7,7,0,0,1-7.22-6.69V400A7,7,0,0,1,280.56,393.29Z"/><g id="Confirm-2" class="cls-14"><text class="cls-29" transform="translate(349.69 406.21) scale(1.08 1)">Confirm</text></g></g></g></g></g><g class="cls-30"><polygon id="Rectangle-8" class="cls-10" points="251.12 434.63 476.15 434.63 476.15 459.48 421.62 459.48 352.62 459.48 351.49 459.48 347.37 459.48 251.12 459.48 251.12 434.63"/></g><g id="Group_2" data-name="Group 2"><ellipse id="Ellipse_52-4" data-name="Ellipse 52-4" class="cls-31" cx="271.46" cy="309.48" rx="6.64" ry="6.15"/><ellipse id="Ellipse_59" data-name="Ellipse 59" class="cls-10" cx="271.46" cy="309.48" rx="2.6" ry="2.41"/></g><g id="Group_18725" data-name="Group 18725"><path id="Path_35" data-name="Path 35" class="cls-32" d="M329.81,308.37c.05-.22.09-.45.14-.7a.29.29,0,0,0,0-.22.34.34,0,0,0-.24-.09l-.55-.06a6.22,6.22,0,0,0-2.8.39.37.37,0,0,0-.26.3c-.06.33-.86,4.5-1,5.11a.25.25,0,0,0,0,.22.29.29,0,0,0,.2.07h1.11a.24.24,0,0,0,.26-.19l.85-4.49a4,4,0,0,1,1.89-.1.32.32,0,0,0,.22,0,.28.28,0,0,0,.15-.22"/><path id="Path_36" data-name="Path 36" class="cls-32" d="M324.64,310l-.15.74a3.05,3.05,0,0,1-3.38,2.76,2.16,2.16,0,0,1-2.39-1.85,1.61,1.61,0,0,1,0-.31,3.05,3.05,0,0,1,.06-.6l.15-.74a3.06,3.06,0,0,1,3.38-2.75,2.11,2.11,0,0,1,2.41,2.14,4.22,4.22,0,0,1-.07.61M322,308.59a1.48,1.48,0,0,0-1.46,1.34l-.15.75a2.07,2.07,0,0,0-.06.5.93.93,0,0,0,1,.89h.07a1.49,1.49,0,0,0,1.46-1.36L323,310a2,2,0,0,0,.06-.48.92.92,0,0,0-1-.89H322"/><path id="Path_37" data-name="Path 37" class="cls-32" d="M312.47,307.23a5.57,5.57,0,0,0-1.58,0,5.06,5.06,0,0,0-1.38.44c-.13.07-.21.15-.13.31s.21.45.35.71a.22.22,0,0,0,.31.1l.14-.06.06,0a3.3,3.3,0,0,1,1-.27,3.12,3.12,0,0,1,1,0,.56.56,0,0,1,.5.45,1.63,1.63,0,0,1-.07.79l-.13,0-.38,0a5.77,5.77,0,0,0-2.07.1c-1.22.29-1.87,1.08-1.74,2.12a1.38,1.38,0,0,0,.46.87,2.69,2.69,0,0,0,1.77.66H311a9.35,9.35,0,0,0,2.47-.37.46.46,0,0,0,.22-.11.58.58,0,0,0,.08-.22l.61-3.13a2.24,2.24,0,0,0-.12-1.28,1.51,1.51,0,0,0-.15-.28,2.33,2.33,0,0,0-1.59-.83m0,3.66-.23,1.21-.22,0-.62.07a2.48,2.48,0,0,1-.86,0,1.75,1.75,0,0,1-.32-.12.39.39,0,0,1-.24-.35.74.74,0,0,1,.66-.81,3.44,3.44,0,0,1,.78-.08l.44,0,.45,0,.16,0"/><path id="Path_38" data-name="Path 38" class="cls-32" d="M333.8,307.23a5.51,5.51,0,0,0-1.57,0,4.51,4.51,0,0,0-1.39.44c-.13.07-.2.15-.13.31s.21.45.35.71.2.13.31.1l.15-.06.05,0a3.47,3.47,0,0,1,1-.27,3.11,3.11,0,0,1,1,0,.55.55,0,0,1,.5.45,1.64,1.64,0,0,1-.06.79l-.13,0-.38,0a6,6,0,0,0-2.08.09,2,2,0,0,0-1.74,2.12,1.38,1.38,0,0,0,.46.88,2.74,2.74,0,0,0,1.77.66h.37a9.77,9.77,0,0,0,2.47-.37A.48.48,0,0,0,335,313a.43.43,0,0,0,.09-.21l.6-3.13a2.16,2.16,0,0,0-.12-1.28,1.51,1.51,0,0,0-.15-.28,2.27,2.27,0,0,0-1.58-.83m0,3.66-.24,1.21-.21,0-.62.07a2.81,2.81,0,0,1-.87,0,1.75,1.75,0,0,1-.32-.12.44.44,0,0,1-.24-.36.73.73,0,0,1,.67-.8,3.33,3.33,0,0,1,.78-.09l.44,0,.44.05.17,0"/><path id="Path_39" data-name="Path 39" class="cls-32" d="M318.52,306.93h-.93l.21-1.05a.27.27,0,0,0-.23-.3h-1.11a.28.28,0,0,0-.28.22l-1.12,5.77a1.57,1.57,0,0,0,1.36,1.81,1.51,1.51,0,0,0,.3,0h.64a.28.28,0,0,0,.28-.21l.22-1.14h-.59a.54.54,0,0,1-.56-.52s0-.06,0-.09l.61-3.15h1a.28.28,0,0,0,.28-.21l.16-.84a.26.26,0,0,0-.23-.3h0"/><path id="Path_40" data-name="Path 40" class="cls-32" d="M308.9,305.57h-5.19a.35.35,0,0,0-.35.27L302,313.08a.28.28,0,0,0,.23.31h1.17a.27.27,0,0,0,.28-.21l.64-3.29h3.35a.27.27,0,0,0,.27-.21l.16-.84a.26.26,0,0,0-.22-.3h-3.3l.31-1.62h3.89a.28.28,0,0,0,.28-.21l.16-.84a.26.26,0,0,0-.23-.3h-.05"/><g id="Group_123" data-name="Group 123"><path id="Path_41" data-name="Path 41" class="cls-33" d="M293.82,309.14,297,308l-3.53-1.29a.23.23,0,0,1-.15-.3.26.26,0,0,1,.33-.13l4,1.46,1.95-.7a.91.91,0,0,0,.56-1.2,1,1,0,0,0-.56-.52l-5.81-2.11a.6.6,0,0,0-.76.31.43.43,0,0,0,0,.19v4.93a.57.57,0,0,0,.58.55.78.78,0,0,0,.22,0m-.27-4.95h.09l5.33,1.94a.23.23,0,0,1,.15.3.26.26,0,0,1-.24.15h-.09l-5.33-1.94a.23.23,0,0,1-.15-.3.26.26,0,0,1,.24-.15"/><path id="Path_42" data-name="Path 42" class="cls-34" d="M299.64,307.53l-5.88,2.13a1.1,1.1,0,0,0-.74,1v4.41a.75.75,0,0,0,.78.72.87.87,0,0,0,.28-.05l5.39-1.95a1.16,1.16,0,0,0,.79-1.08v-5.9a.86.86,0,0,1-.12.3,1,1,0,0,1-.5.41"/></g></g><rect class="cls-35" x="299.69" y="88.84" width="126.32" height="98.98" rx="14.91"/><path class="cls-35" d="M282.56,99.14v78.37c0,5.69-5,10.3-11.11,10.3H251.12v-99h20.33C277.59,88.84,282.56,93.45,282.56,99.14Z"/><path class="cls-35" d="M444.71,99.14v78.37c0,5.69,5,10.3,11.12,10.3h20.32v-99H455.83C449.69,88.84,444.71,93.45,444.71,99.14Z"/><rect class="cls-36" x="300.48" y="193.27" width="126.32" height="3.07" rx="1.29"/><rect class="cls-36" x="300.48" y="200.96" width="126.32" height="3.07" rx="1.29"/><rect class="cls-36" x="300.48" y="208.65" width="71.57" height="3.07" rx="1.29"/><path class="cls-37" d="M340.48,168.63a6.7,6.7,0,0,1-6.92-6.42V137.45a6.69,6.69,0,0,1,6.92-6.41h44.74a6.69,6.69,0,0,1,6.92,6.41v24.76a6.7,6.7,0,0,1-6.92,6.42Z"/><path class="cls-38" d="M391.6,137.45v24.76a6.18,6.18,0,0,1-6.38,5.92H340.48a6.19,6.19,0,0,1-6.39-5.92V137.45a6.19,6.19,0,0,1,6.39-5.92h44.74A6.18,6.18,0,0,1,391.6,137.45Z"/><path class="cls-39" d="M391.6,138.33v11c-6.36,4.7-16.87,7.78-28.75,7.78s-22.39-3.07-28.76-7.78v-11a6.19,6.19,0,0,1,6.39-5.92h44.74A6.18,6.18,0,0,1,391.6,138.33Z"/><path class="cls-40" d="M391.6,137.45v11c-6.36,4.7-16.87,7.77-28.75,7.77s-22.39-3.06-28.76-7.77v-11a6.19,6.19,0,0,1,6.39-5.92h44.74A6.18,6.18,0,0,1,391.6,137.45Z"/><path class="cls-10" d="M362.85,155.77h-.34v-.08h.34Zm.14,0v-.08h.34v.08Zm-.81,0h-.34v-.08h.34Zm1.48,0v-.07H364v.08Zm-2.15,0h-.34v-.08h.34Zm2.82,0v-.07h.33v.08Zm-3.5,0h-.33v-.08h.34Zm4.17,0v-.08h.33v.07Zm-4.84,0-.33,0v-.08l.34,0Zm5.5,0v-.08H366v.08Zm-6.17,0-.33,0v-.08l.33,0Zm6.84,0v-.08l.33,0v.08Zm-7.5,0-.34,0v-.08l.33,0Zm8.16,0v-.08l.33,0v.08Zm-8.83,0-.33,0v-.08l.34,0Zm9.49,0v-.08l.33,0v.08Zm-10.16,0-.33,0v-.08l.33,0Zm10.83,0v-.07l.34,0v.08Zm-11.49,0-.33,0v-.08l.34,0Zm12.16,0v-.08l.33,0v.07Zm-12.83-.06-.33,0v-.08l.33,0Zm13.49,0v-.08l.33,0v.07Zm-14.15-.06-.33,0v-.07l.33,0Zm14.81,0v-.08l.33,0,0,.08Zm-15.47-.07-.33,0v-.08l.33.05Zm16.14,0v-.08l.33,0v.08Zm-16.81-.07-.33,0,0-.07.33,0Zm17.47,0v-.08l.33,0v.08Zm-18.13-.07-.33-.05,0-.08.33.05Zm18.79,0V155l.33,0V155ZM352.85,155l-.33-.06,0-.07.33.05ZM373,155l0-.08.33,0,0,.07Zm-20.76-.09-.33-.06v-.07l.33,0Zm21.42,0,0-.08.33-.05,0,.07Zm-22.08-.09-.33-.06,0-.08.32.06Zm22.73,0v-.07l.33-.06v.07Zm-23.39-.1-.32-.06v-.07l.33.06Zm24.05,0,0-.07.33-.07,0,.08Zm-24.7-.1-.33-.07,0-.08.33.07Zm25.35,0v-.07l.32-.07,0,.07Zm-26-.11-.33-.07,0-.08.33.08Zm26.65,0v-.08l.32-.07,0,.07Zm-27.3-.12-.33-.08,0-.07.33.07Zm27.95,0,0-.08.33-.07,0,.07Zm-28.6-.12L348,154l0-.08.32.08Zm29.25,0,0-.08.32-.08,0,.08Zm-29.9-.13-.32-.09,0-.07.32.08Zm30.55,0,0-.08.32-.08,0,.07ZM347,153.78l-.32-.09,0-.07.32.09Zm31.83,0,0-.08.32-.08,0,.07Zm-32.47-.14-.32-.1,0-.07.32.09Zm33.11,0,0-.07.32-.09,0,.07Zm-33.75-.15-.32-.09,0-.08.31.1Zm34.39,0,0-.08.31-.09,0,.07Zm-35-.16-.31-.1,0-.07.32.1Zm35.67,0,0-.07.31-.1,0,.07Zm-36.3-.16-.32-.1,0-.08.32.11Zm36.93,0,0-.07.31-.1,0,.07Zm-37.56-.17-.31-.11,0-.07.31.11Zm38.19,0,0-.07.31-.11,0,.07Zm-38.81-.18-.32-.11,0-.07.32.11Zm39.43,0,0-.07.31-.11,0,.07Zm-40.06-.18-.31-.12,0-.07.31.11Zm40.68,0,0-.07.31-.11,0,.07Zm-41.3-.19-.3-.12,0-.07.31.12Zm41.92,0,0-.07.3-.13,0,.07Zm-42.53-.21-.31-.12,0-.07.3.12Zm43.14,0,0-.07.3-.13,0,.07Zm-43.75-.21-.3-.13,0-.07.31.13Zm44.36,0,0-.07.3-.13,0,.07Zm-45-.21-.3-.14,0-.07.3.14Zm45.57,0,0-.07.3-.14,0,.07Zm-46.17-.23-.3-.14,0-.07.3.14Zm46.76,0,0-.07.29-.14,0,.07Zm-47.36-.24-.29-.14,0-.07.29.15Zm48-.05,0-.07.29-.14,0,.06Zm-48.54-.24-.29-.15,0-.07.29.15Zm49.12-.06,0-.06a2.69,2.69,0,0,0,.29-.16l0,.07Zm-49.7-.25a2.69,2.69,0,0,1-.29-.16l0-.06.29.15Zm50.28-.05,0-.07.29-.16,0,.07Zm-50.86-.27-.28-.16,0-.07.29.17Zm51.44,0-.05-.07.28-.16,0,.06Zm-52-.28a2.61,2.61,0,0,1-.28-.17l0-.06.28.17Zm52.56-.06,0-.06.27-.17,0,.06Zm-53.12-.28-.28-.17.05-.07.27.18Zm53.68-.06-.05-.06.27-.18.05.06Zm-54.23-.29-.27-.18.05-.07.27.19Zm54.78-.07-.05-.06.27-.18.05.06ZM335,148.5l-.27-.19.05-.06.27.19Zm55.85-.06-.05-.07.27-.18,0,.06ZM334.67,148h-.09v-.31h.09Zm56.44-.11H391v-.31h.08Zm-56.44-.51h-.09v-.31h.09Zm56.44-.11H391V147h.08Zm-56.44-.51h-.09v-.31h.09Zm56.44-.11H391v-.31h.08Zm-56.44-.51h-.09v-.31h.09Zm56.44-.11H391v-.31h.08Zm-56.44-.51h-.09v-.31h.09Zm56.44-.1H391v-.31h.08Zm-56.44-.52h-.09v-.3h.09Zm56.44-.1H391v-.31h.08Zm-56.44-.51h-.09V144h.09Zm56.44-.11H391v-.31h.08Zm-56.44-.51h-.09v-.31h.09Zm56.44-.11H391v-.31h.08Zm-56.44-.51h-.09v-.31h.09Zm56.44-.11H391v-.31h.08Zm-56.44-.51h-.09v-.31h.09Zm56.44-.11H391V142h.08Zm-56.44-.51h-.09v-.31h.09Zm56.44-.11H391v-.31h.08Zm-56.44-.51h-.09v-.31h.09Zm56.44-.11H391v-.31h.08Zm-56.44-.51h-.09v-.31h.09Zm56.44-.11H391v-.31h.08ZM334.67,140h-.09v-.31h.09Zm56.44-.11H391v-.3h.08Zm-56.44-.51h-.09V139h.09Zm56.44-.1H391v-.31h.08Zm-56.44-.52h-.09v-.3h.09Zm56.44-.1H391v-.31h.08Zm-56.44-.51h-.09v-.31h.09Zm56.44-.11H391v-.31h.08Zm-56.44-.51h-.09v-.05c0-.09,0-.18,0-.26h.09a2.26,2.26,0,0,0,0,.26Zm56.36-.11c0-.1,0-.2,0-.31h.08c0,.1,0,.21,0,.31Zm-56.33-.51h-.08a2.91,2.91,0,0,1,0-.31h.08C334.73,136.68,334.71,136.78,334.7,136.88Zm56.29-.1-.06-.31H391c0,.1,0,.2.05.31Zm-56.18-.5-.08,0c0-.1,0-.2.08-.3l.08,0C334.86,136.08,334.83,136.18,334.81,136.28Zm56.06-.11-.09-.29.08,0,.09.3ZM335,135.69l-.08,0,.12-.29.08,0A1.48,1.48,0,0,0,335,135.69Zm55.68-.1-.12-.29.07,0a2.55,2.55,0,0,1,.13.29Zm-55.43-.47-.07,0,.15-.27.08,0A2.4,2.4,0,0,0,335.24,135.12Zm55.17-.1-.16-.27.07,0a2.4,2.4,0,0,1,.16.27Zm-54.85-.44-.07,0,.19-.26.07.05C335.68,134.41,335.62,134.5,335.56,134.58Zm54.51-.09-.19-.25.07,0c.07.08.13.17.19.25ZM336,134.08l-.07-.05.22-.23.06,0Zm53.73-.08-.22-.23.06-.05.22.23Zm-53.29-.38-.06-.05.25-.21.06,0Zm52.84-.07-.25-.2,0-.06.25.21Zm-52.34-.33-.05-.06.27-.19.05.06Zm51.83-.07a1.78,1.78,0,0,0-.27-.17l.05-.07.27.18Zm-51.29-.28,0-.07.29-.16,0,.07A2.69,2.69,0,0,0,337.43,132.87Zm50.74-.06-.29-.15,0-.07a2.69,2.69,0,0,1,.29.16ZM338,132.57l0-.07.31-.12,0,.07Zm49.57,0-.31-.12,0-.07.32.12Zm-48.95-.19,0-.07.32-.09,0,.07Zm48.33,0-.32-.08,0-.08.33.09Zm-47.69-.13,0-.07.33-.06v.08Zm47.05,0-.33,0V132l.33.05Zm-46.4-.07V132l.34,0v.08Zm45.74,0-.33,0V132h.34Zm-.66,0h-.34V132H385Zm-.67,0H384V132h.33Zm-.67,0h-.33V132h.33Zm-.67,0h-.33V132H383Zm-.66,0H382V132h.34Zm-.67,0h-.34V132h.34Zm-.67,0h-.33V132H381Zm-.67,0H380V132h.33Zm-.67,0h-.33V132h.33Zm-.66,0h-.34V132H379Zm-.67,0H378V132h.34Zm-.67,0h-.33V132h.33Zm-.67,0h-.33V132H377Zm-.66,0H376V132h.34Zm-.67,0h-.34V132h.34Zm-.67,0h-.33V132H375Zm-.67,0H374V132h.33Zm-.67,0h-.33V132h.33Zm-.66,0h-.34V132H373Zm-.67,0H372V132h.34Zm-.67,0h-.33V132h.33Zm-.67,0h-.33V132H371Zm-.67,0H370V132h.33Zm-.66,0h-.34V132h.34Zm-.67,0h-.34V132H369Zm-.67,0H368V132h.33Zm-.67,0h-.33V132h.33Zm-.67,0h-.33V132H367Zm-.66,0H366V132h.34Zm-.67,0h-.33V132h.33Zm-.67,0h-.33V132H365Zm-.67,0H364V132h.33Zm-.66,0h-.34V132h.34Zm-.67,0h-.34V132H363Zm-.67,0H362V132h.33Zm-.67,0h-.33V132h.33Zm-.67,0h-.33V132H361Zm-.66,0H360V132h.34Zm-.67,0h-.34V132h.34Zm-.67,0h-.33V132H359Zm-.67,0H358V132h.33Zm-.67,0h-.33V132h.33Zm-.66,0h-.34V132H357Zm-.67,0h-.34V132h.34Zm-.67,0h-.33V132h.33Zm-.67,0h-.33V132h.33Zm-.66,0h-.34V132h.34Zm-.67,0h-.34V132h.34Zm-.67,0h-.33V132h.33Zm-.67,0h-.33V132h.33Zm-.67,0h-.33V132h.33Zm-.66,0h-.34V132h.34Zm-.67,0h-.34V132h.34Zm-.67,0h-.33V132h.33Zm-.67,0h-.33V132h.33Zm-.67,0h-.33V132h.33Zm-.66,0h-.34V132h.34Zm-.67,0h-.34V132h.34Zm-.67,0h-.33V132h.33Zm-.67,0h-.33V132h.33Zm-.67,0h-.33V132h.33Zm-.66,0h-.34V132h.34Zm-.67,0h-.33V132h.33Zm-.67,0h-.33V132h.33Zm-.67,0h-.33V132h.33Zm-.66,0h-.34V132h.34Zm-.67,0h-.34V132h.34Z"/><path class="cls-39" d="M362.4,160.23A5.24,5.24,0,1,1,368,155,5.45,5.45,0,0,1,362.4,160.23Zm0-9.22a4,4,0,1,0,4.31,4A4.17,4.17,0,0,0,362.4,151Z"/><path class="cls-41" d="M362.19,160.23a5.24,5.24,0,1,1,5.64-5.22A5.45,5.45,0,0,1,362.19,160.23Zm0-9.22a4,4,0,1,0,4.31,4A4.16,4.16,0,0,0,362.19,151Z"/><path class="cls-42" d="M351.05,134.34h-2a1.63,1.63,0,0,1-1.69-1.56v-.88a1.63,1.63,0,0,1,1.69-1.56h2a1.63,1.63,0,0,1,1.69,1.56v.88A1.63,1.63,0,0,1,351.05,134.34Zm-2-3.38a1,1,0,0,0-1,.94v.88a1,1,0,0,0,1,.95h2a1,1,0,0,0,1-.95v-.88a1,1,0,0,0-1-.94Z"/><rect class="cls-43" x="348.73" y="132.34" width="3.06" height="8.24" rx="1.27"/><rect class="cls-38" x="348.52" y="132.34" width="3.06" height="8.24" rx="1.27"/><path class="cls-10" d="M350.17,140.31h-.34v-.08h.34Zm-.54,0a.84.84,0,0,1-.35-.07l0-.07a.81.81,0,0,0,.31.06Zm.87,0v-.08a.6.6,0,0,0,.3-.07l0,.07A.77.77,0,0,1,350.5,140.31ZM349,140a.81.81,0,0,1-.17-.28l.09,0a.52.52,0,0,0,.14.25Zm2.1,0-.06-.05a.66.66,0,0,0,.14-.26l.08,0A.69.69,0,0,1,351.11,140Zm-2.21-.59h-.08v-.31h.08Zm2.39,0h-.08v-.31h.08Zm-2.39-.6h-.08v-.31h.08Zm2.39,0h-.08v-.31h.08Zm-2.39-.6h-.08v-.31h.08Zm2.39,0h-.08v-.31h.08Zm-2.39-.6h-.08v-.31h.08Zm2.39,0h-.08v-.31h.08Zm-2.39-.6h-.08v-.31h.08Zm2.39,0h-.08v-.31h.08Zm-2.39-.61h-.08V136h.08Zm2.39,0h-.08V136h.08Zm-2.39-.61h-.08v-.3h.08Zm2.39,0h-.08v-.31h.08Zm-2.39-.6h-.08v-.31h.08Zm2.39,0h-.08v-.31h.08Zm-2.39-.6h-.08v-.31h.08Zm2.39,0h-.08v-.31h.08Zm-2.39-.6h-.08v-.31h.08Zm2.39,0h-.08v-.31h.08Zm-2.38-.59-.08,0a.7.7,0,0,1,.12-.3l.07.05A.54.54,0,0,0,348.91,133.26Zm2.29,0a.57.57,0,0,0-.13-.27l.07,0a.69.69,0,0,1,.14.3Zm-1.95-.45,0-.07a.75.75,0,0,1,.33-.1v.07A.63.63,0,0,0,349.25,132.79Zm1.59,0a.75.75,0,0,0-.3-.09v-.08a.91.91,0,0,1,.33.1Zm-.63-.09h-.33v-.08h.33Z"/><path class="cls-44" d="M375.79,134.34h-2a1.63,1.63,0,0,1-1.69-1.56v-.88a1.63,1.63,0,0,1,1.69-1.56h2a1.63,1.63,0,0,1,1.69,1.56v.88A1.63,1.63,0,0,1,375.79,134.34Zm-2-3.38a1,1,0,0,0-1,.94v.88a1,1,0,0,0,1,.95h2a1,1,0,0,0,1-.95v-.88a1,1,0,0,0-1-.94Z"/><rect class="cls-43" x="373.48" y="132.34" width="3.06" height="8.24" rx="1.27"/><rect class="cls-38" x="373.27" y="132.34" width="3.06" height="8.24" rx="1.27"/><path class="cls-10" d="M374.91,140.31h-.33v-.08h.33Zm-.54,0a.77.77,0,0,1-.34-.07l0-.07a.81.81,0,0,0,.31.06Zm.88,0v-.08a.67.67,0,0,0,.31-.07l0,.07A.76.76,0,0,1,375.25,140.31Zm-1.5-.27a.66.66,0,0,1-.16-.28l.08,0a.77.77,0,0,0,.14.25Zm2.11,0-.07-.05a.55.55,0,0,0,.14-.26l.08,0A.89.89,0,0,1,375.86,140Zm-2.22-.59h-.08v-.31h.08Zm2.39,0H376v-.31H376Zm-2.39-.6h-.08v-.31h.08Zm2.39,0H376v-.31H376Zm-2.39-.6h-.08v-.31h.08Zm2.39,0H376v-.31H376Zm-2.39-.6h-.08v-.31h.08Zm2.39,0H376v-.31H376Zm-2.39-.6h-.08v-.31h.08Zm2.39,0H376v-.31H376Zm-2.39-.61h-.08V136h.08Zm2.39,0H376V136H376Zm-2.39-.6h-.08v-.31h.08Zm2.39,0H376v-.31H376Zm-2.39-.6h-.08v-.31h.08Zm2.39,0H376v-.31H376Zm-2.39-.6h-.08v-.31h.08Zm2.39,0H376v-.31H376Zm-2.39-.6h-.08v-.31h.08Zm2.39,0H376v-.31H376Zm-2.38-.59-.08,0a.72.72,0,0,1,.13-.3l.07.05A.66.66,0,0,0,373.65,133.26Zm2.29,0a.66.66,0,0,0-.12-.27l.06,0a.69.69,0,0,1,.14.3Zm-1.95-.45,0-.07a.75.75,0,0,1,.33-.1v.07A.88.88,0,0,0,374,132.79Zm1.59,0a.75.75,0,0,0-.3-.09v-.08a.91.91,0,0,1,.33.1Zm-.63-.09h-.33v-.08H375Z"/><path class="cls-38" d="M376.54,122c0-.23,0-.46,0-.7a7.5,7.5,0,0,0-1.83-4.2c-.43-.57-.74-1.25-1.11-1.86s-.75-1.21-1.16-1.79a15.62,15.62,0,0,0-2.55-2.91,11.58,11.58,0,0,0-7.06-2.52,7.06,7.06,0,0,0-.92,0,11.56,11.56,0,0,0-7.05,2.52,15.62,15.62,0,0,0-2.55,2.91c-.41.58-.79,1.18-1.16,1.79s-.68,1.29-1.11,1.86a7.5,7.5,0,0,0-1.83,4.2,5.39,5.39,0,0,0,0,.7,1.86,1.86,0,0,0-1.21,1.69v6a1.93,1.93,0,0,0,2,1.85H351a1.93,1.93,0,0,0,2-1.85v-6a1.84,1.84,0,0,0-1-1.6v0a10.58,10.58,0,0,0,.17-1.6,22.43,22.43,0,0,1,0-2.46,2.87,2.87,0,0,1,.24-.79,31.09,31.09,0,0,1,1.44-2.89,10.78,10.78,0,0,1,2.24-2.77,10.12,10.12,0,0,1,5.27-2.13,6.92,6.92,0,0,1,2.13,0,10.15,10.15,0,0,1,5.27,2.13,11,11,0,0,1,2.24,2.77c.55.94,1,1.92,1.44,2.89a2.85,2.85,0,0,1,.23.79,20.2,20.2,0,0,1,0,2.46,9.44,9.44,0,0,0,.17,1.6v0a1.84,1.84,0,0,0-1,1.6v6a1.93,1.93,0,0,0,2,1.85h1.91a1.92,1.92,0,0,0,2-1.85v-6A1.85,1.85,0,0,0,376.54,122Z"/><path class="cls-10" d="M375.75,131.25h-.26v-.08h.33v.08Zm-.59,0h-.34v-.08h.34Zm-.67,0h-.33v-.08h.33Zm-.65,0a1.27,1.27,0,0,1-.34,0l0-.07a1.66,1.66,0,0,0,.32,0Zm-22.87,0h-.17v-.08h.33v.08Zm-.5,0h-.34v-.08h.34Zm-.67,0h-.33v-.08h.33Zm-.67,0h-.08l-.26,0,0-.08.24,0h.08Zm27-.05,0-.08a1.12,1.12,0,0,0,.31-.1l0,.07A2.13,2.13,0,0,1,376.16,131.2Zm-24.69,0,0-.08a1.88,1.88,0,0,0,.3-.12l0,.07Zm-3,0-.3-.14,0-.07a1.55,1.55,0,0,0,.29.14Zm24.71,0a1.59,1.59,0,0,1-.29-.15l0-.07a1.59,1.59,0,0,0,.29.15Zm3.61-.19,0-.06.24-.21.06.05Zm-24.71-.06-.05-.06a2.28,2.28,0,0,0,.22-.22l.07,0A1.75,1.75,0,0,1,352.07,130.87Zm-4.18-.06a1.31,1.31,0,0,1-.23-.24l.07,0a1.51,1.51,0,0,0,.21.23Zm24.73-.05a1.31,1.31,0,0,1-.22-.25l.07,0a1.21,1.21,0,0,0,.21.24Zm4.61-.31-.07,0a2.39,2.39,0,0,0,.13-.28l.08,0A2.44,2.44,0,0,1,377.23,130.45Zm-24.74-.08-.08,0a1.69,1.69,0,0,0,.12-.28l.08,0A1.48,1.48,0,0,1,352.49,130.37Zm-5-.07a1.21,1.21,0,0,1-.11-.3l.08,0a2.47,2.47,0,0,0,.1.29Zm24.75-.07a1.58,1.58,0,0,1-.09-.31h.09a1,1,0,0,0,.08.29Zm5.19-.37h-.08a1.09,1.09,0,0,0,0-.18v-.13h.08v.13A1.28,1.28,0,0,1,377.44,129.86Zm-24.78-.1h-.08v-.31h.09v.22S352.66,129.73,352.66,129.76Zm-5.3-.08v-.31h.08v.3Zm24.86-.07h-.08v-.31h.08Zm5.23-.38h-.08v-.31h.08Zm-24.78-.09h-.09v-.31h.09Zm-5.23-.08h-.08v-.31h.08Zm24.78-.07h-.08v-.31h.08Zm5.23-.38h-.08v-.3h.08Zm-24.78-.09h-.09v-.31h.09Zm-5.23-.08h-.08v-.31h.08Zm24.78-.07h-.08v-.31h.08Zm5.23-.37h-.08v-.31h.08Zm-24.78-.09h-.09v-.31h.09Zm-5.23-.08h-.08v-.31h.08Zm24.78-.08h-.08v-.31h.08Zm5.23-.37h-.08v-.31h.08Zm-24.78-.09h-.09V127h.09Zm-5.23-.08h-.08v-.31h.08Zm24.78-.08h-.08v-.31h.08Zm5.23-.37h-.08v-.31h.08Zm-24.78-.09h-.09v-.31h.09Zm-5.23-.08h-.08v-.31h.08Zm24.78-.08h-.08v-.31h.08Zm5.23-.37h-.08v-.31h.08Zm-24.78-.09h-.09v-.31h.09Zm-5.23-.08h-.08v-.31h.08Zm24.78-.07h-.08v-.31h.08Zm5.23-.38h-.08v-.31h.08Zm-24.78-.09h-.09v-.31h.09Zm-5.23-.08h-.08V125h.08Zm24.78-.07h-.08V125h.08Zm5.23-.38h-.08v-.31h.08Zm-24.78-.09h-.09v-.31h.09Zm-5.23-.08h-.08v-.31h.08Zm24.78-.07h-.08v-.31h.08Zm5.23-.38h-.08V124h.08Zm-24.78-.09h-.09v-.31h.09Zm-5.23-.08h-.08v-.31h.08Zm24.78-.07h-.08v-.31h.08Zm5.15-.38a1.35,1.35,0,0,0-.05-.29l.08,0a1.12,1.12,0,0,1,.05.31Zm-24.79-.08a1.63,1.63,0,0,0-.07-.3l.08,0a1.08,1.08,0,0,1,.07.31Zm-5.12-.08h-.09a1.58,1.58,0,0,1,.09-.31l.07,0A1.37,1.37,0,0,0,347.46,123.5Zm24.8-.07-.09,0c0-.1.06-.2.1-.3l.08,0A1.4,1.4,0,0,0,372.26,123.43Zm5-.35a2.33,2.33,0,0,0-.17-.26l.07,0a1.78,1.78,0,0,1,.17.27ZM352.39,123a2.35,2.35,0,0,0-.19-.25l.07,0a2.61,2.61,0,0,1,.19.27Zm-4.71-.06-.07,0a1.16,1.16,0,0,1,.2-.25l.06.06A1.12,1.12,0,0,0,347.68,122.94Zm24.83-.06-.07,0a1.23,1.23,0,0,1,.22-.24l0,.06A1.5,1.5,0,0,0,372.51,122.88Zm4.32-.28a1.51,1.51,0,0,0-.26-.18l0-.06a1.27,1.27,0,0,1,.27.18ZM352,122.54l-.21-.13-.06,0,0-.06.07,0,.21.13Zm-3.85,0-.05-.07a1.4,1.4,0,0,1,.3-.15l0,.07A1.51,1.51,0,0,0,348.12,122.5Zm24.85,0-.05-.07.08,0,.21-.11,0,0h0v0h0l-.2.11Zm3.3-.17-.12-.05,0-.24h.08l0,.18.07,0Zm-27.7-.14V122a.86.86,0,0,1,0-.16h.08s0,.1,0,.16v.14Zm3.08-.05h-.08l0-.09c0-.06,0-.14,0-.22l.09,0c0,.08,0,.15,0,.21Zm21.48-.13a2.24,2.24,0,0,1-.05-.31h.08c0,.11,0,.22,0,.31Zm3.14-.27h-.08c0-.11,0-.21,0-.31h.08C376.28,121.49,376.28,121.59,376.27,121.7Zm-27.74-.17v-.31h.08v.31Zm3.22,0h-.08c0-.1,0-.2,0-.31h.08C351.78,121.28,351.77,121.39,351.75,121.49Zm21.29-.13c0-.11,0-.21,0-.31h.09l0,.31Zm3.15-.28c0-.1,0-.2,0-.3h.09l0,.31Zm-27.55-.17h-.09a2.87,2.87,0,0,1,.05-.31h.08C348.66,120.71,348.65,120.81,348.64,120.91Zm3.18,0h-.08c0-.11,0-.21,0-.3h.08C351.83,120.65,351.83,120.76,351.82,120.87Zm21.16-.13c0-.11,0-.2,0-.28v0h.08v0c0,.08,0,.17,0,.27Zm3.11-.27c0-.09,0-.19-.07-.29l.08,0c0,.1,0,.2.08.3Zm-27.34-.16-.08,0q0-.14.09-.3l.08,0Q348.8,120.18,348.75,120.31Zm3-.06c0-.1,0-.21,0-.31h.09v.31Zm21.31-.13H373v-.31h.09Zm2.86-.24c0-.09-.07-.19-.11-.29l.07,0a2.52,2.52,0,0,1,.12.29Zm-27-.16-.08,0,.12-.29.08,0C349,119.53,349,119.63,349,119.72Zm2.79-.09v-.31h.08v.31Zm21.33-.13H373c0-.1,0-.2,0-.3h.08C373.08,119.29,373.08,119.39,373.07,119.5Zm2.61-.19-.14-.28.08,0c.05.09.09.18.14.28Zm-26.48-.16-.07,0,.14-.28.08,0Zm2.61-.14h-.08v-.31h.08V119Zm21.19-.13c0-.11,0-.21,0-.31h.08c0,.1,0,.2,0,.31Zm2.39-.13c-.05-.09-.1-.18-.16-.27l.08,0a2.54,2.54,0,0,0,.16.28Zm-25.89-.15-.07,0,.16-.27.08,0Zm2.33-.21h-.09l0-.31h.08C351.84,118.19,351.83,118.29,351.83,118.39Zm21.14-.13a1.5,1.5,0,0,0,0-.29h0l.09,0v0l0,.29Zm2.09,0c-.05-.09-.11-.18-.17-.27l.07,0,.18.27Zm-25.22-.15-.07,0a2,2,0,0,1,.18-.26l.07,0A2,2,0,0,0,349.84,118.07Zm2.05-.29h-.08c0-.1.05-.2.08-.31l.08,0C351.94,117.59,351.91,117.69,351.89,117.78Zm22.82-.09c-.06-.08-.12-.17-.19-.25l.07,0,.19.26Zm-1.83,0a1.71,1.71,0,0,0-.09-.3l.08,0c0,.1.07.2.1.3Zm-22.68-.11-.07,0,.17-.23,0,0,.07,0,0,0C350.31,117.4,350.26,117.48,350.2,117.55Zm1.88-.35-.08,0a.36.36,0,0,0,0-.09l.09-.18v0l.08,0v0a1.42,1.42,0,0,1-.08.18Zm22.25,0c-.06-.08-.11-.17-.17-.26l.07,0c.06.09.11.18.17.26Zm-1.66-.1-.13-.29.08,0,.13.29Zm-22.1,0-.07,0c.06-.09.12-.18.17-.27l.07,0C350.69,116.86,350.63,117,350.57,117Zm23.42-.39-.16-.27.08,0,.15.27Zm-21.65,0-.08,0c.05-.1.09-.19.13-.29l.08,0C352.43,116.44,352.38,116.53,352.34,116.63Zm20.07-.12-.13-.29.08,0,.13.29Zm-21.51,0-.07,0,.15-.27.08,0C351,116.31,351,116.41,350.9,116.5Zm22.78-.4v0a2,2,0,0,1-.14-.25l.07,0,.14.25v0Zm-21.08,0-.07,0,.13-.28.08,0C352.69,115.87,352.65,116,352.6,116.06Zm-1.39-.11-.07,0,.15-.27.07,0Zm20.94,0c0-.1-.09-.19-.14-.28l.08,0c0,.1.09.19.13.29Zm1.22-.39-.07-.12-.09-.15.07,0,.09.15.08.12Zm-20.49,0-.08,0c.05-.09.09-.18.14-.28l.08,0A2.44,2.44,0,0,0,352.88,115.5Zm-1.36-.1-.07,0c.06-.09.11-.18.17-.26l.07,0Zm20.35,0c0-.09-.09-.18-.14-.27l.08,0c0,.09.09.19.14.28ZM373,115l-.16-.26.07,0,.17.26Zm-19.88-.07-.08,0,.15-.28.08,0Zm-1.3-.07-.08,0c.06-.09.12-.18.17-.27l.07,0Zm19.72-.05a1.51,1.51,0,0,0-.15-.28l.08,0,.15.27Zm1.13-.34-.18-.26.07,0,.18.26Zm-19.25-.1-.07,0a2,2,0,0,1,.11-.2l.05-.07.07,0-.05.08Zm-1.26,0-.08,0,.18-.26.07,0C352.31,114.16,352.25,114.24,352.2,114.33Zm19.08-.06,0-.08-.12-.19.07,0,.12.19,0,.08Zm1.08-.32-.18-.26.07,0,.18.26Zm-18.58-.11-.07,0,.17-.26.07,0Zm-1.23,0-.07,0,.1-.15a1,1,0,0,1,.08-.11l.07,0-.08.11Zm18.4-.08a2.33,2.33,0,0,0-.17-.26l.07,0,.18.26Zm1-.3-.18-.25.07,0,.18.25Zm-17.86-.11-.07,0,.18-.25.07,0Zm-1.22,0-.06,0A2.35,2.35,0,0,1,353,113l.06,0C353,113.12,353,113.21,352.91,113.29Zm17.69-.08-.18-.26.07,0,.18.25Zm1-.28-.2-.25.07-.05.19.25Zm-17.12-.12-.07,0,.2-.25.07,0A2.43,2.43,0,0,0,354.5,112.81Zm-1.2,0-.07-.05.2-.25.07.05A2.43,2.43,0,0,0,353.3,112.79Zm16.92-.09-.2-.25.07,0,.2.24Zm1-.27-.2-.24.06,0,.21.24Zm-16.32-.12-.06,0,.21-.24.07,0A2.39,2.39,0,0,0,354.9,112.31Zm-1.2,0-.07,0,.21-.25.07,0Zm16.11-.08-.21-.23.06,0,.22.23Zm1-.26-.22-.24.06,0,.22.24Zm-15.47-.1-.07-.06.24-.22.05.05Zm-1.22,0-.06,0,.22-.24.06,0Zm15.25-.07a2.39,2.39,0,0,0-.23-.22l.06-.06c.08.08.16.15.23.23Zm1-.27-.23-.22.06-.06.23.23Zm-14.57-.07-.06-.06.07-.06.18-.15.06.06-.18.15Zm-1.24,0-.06-.06.23-.22.06,0C354.72,111.21,354.64,111.28,354.56,111.36Zm14.34,0-.25-.21.06-.06.25.21Zm1-.28-.24-.22.05,0,.25.21Zm-13.61,0-.05-.06.26-.19.05.06Zm12.09-.08-.26-.18.05-.07.27.19Zm-13.36,0-.06-.06.12-.1.13-.11,0,.06-.13.11Zm1.8-.28,0-.07.28-.17,0,.07Zm12.59,0-.25-.2.05-.06.26.2Zm-1.57-.06-.28-.16,0-.07.29.17Zm-12.32,0-.06-.06.26-.2,0,.06Zm1.87-.2,0-.06.3-.15,0,.07Zm9.88-.06-.29-.14,0-.07.3.14Zm1.62,0-.27-.18.05-.06.27.18Zm-12.85-.1-.05-.06.28-.18.05.06ZM358,110l0-.07.3-.12,0,.07Zm8.69,0-.3-.12,0-.07.31.12Zm1.68-.1-.29-.16,0-.07.29.16Zm-9.76-.09,0-.07.32-.1,0,.07Zm-2,0-.05-.07.29-.15,0,.07Zm9.46,0-.32-.1,0-.08.32.11Zm-6.84-.16,0-.07.32-.09,0,.07Zm8.55,0-.29-.14,0-.07.3.14Zm-2.34,0-.32-.08,0-.08.32.09Zm-8.25-.06,0-.07.3-.13,0,.07Zm2.68-.07,0-.07.33-.08,0,.08Zm4.92,0-.32-.07,0-.07.33.07Zm2.4-.09-.31-.12,0-.07.31.12Zm-6.67,0,0-.07.33-.06,0,.07Zm3.63,0-.33-.06v-.08l.33.06Zm-6.36,0,0-.07.31-.11,0,.07Zm3.39-.06,0-.08h.12l.21,0v.07l-.2,0Zm2.31,0-.33,0V109l.33,0Zm-1.66-.06V109h.33v.07Zm1,0h-.33V109h.33Zm3.74,0-.32-.1,0-.08.32.11Zm-8.16-.06,0-.07.32-.1,0,.08Zm7.53-.13-.32-.09,0-.07.32.08Zm-6.89,0,0-.08.33-.07,0,.07Zm6.24-.11-.32-.07,0-.08.32.07Zm-5.6,0,0-.08.33-.06,0,.08Zm4.95-.09-.33,0,0-.08.33.05Zm-4.3,0v-.07l.33,0v.07Zm3.65-.07-.33,0v-.07l.34,0Zm-3,0v-.08l.33,0v.08Zm2.32,0-.33,0v-.07l.33,0Zm-1.65,0v-.08l.31,0h0v.08h0Zm1,0h-.33v-.08h.33Z"/><rect class="cls-45" x="428.31" y="35.08" width="17.76" height="14.58" rx="1.97"/><path class="cls-46" d="M434.51,43.84h5.95a.28.28,0,0,0,.26-.17l1.14-3.32a.27.27,0,0,0,0-.23.3.3,0,0,0-.22-.1h-8.23a.29.29,0,0,0-.22.1.24.24,0,0,0,0,.23l1.14,3.32A.27.27,0,0,0,434.51,43.84Zm5.75-.5h-5.55l-1-2.81h7.48Z"/><path class="cls-46" d="M435,45.25h5.07a.27.27,0,0,0,.27-.26.26.26,0,0,0-.27-.25H435.2a.48.48,0,0,1-.51-.44.45.45,0,0,1,.2-.46l-1.71-5a.28.28,0,0,0-.26-.17h-1.78a.26.26,0,0,0-.27.25.27.27,0,0,0,.27.26h1.58l1.57,4.65A1,1,0,0,0,435,45.25Z"/><path class="cls-46" d="M438.41,46.1a.63.63,0,1,0,.62-.58A.6.6,0,0,0,438.41,46.1Z"/><path class="cls-46" d="M435.25,46.1a.63.63,0,0,0,1.26,0,.63.63,0,0,0-1.26,0Z"/><ellipse class="cls-31" cx="441.38" cy="40.02" rx="2.13" ry="1.97"/><text class="cls-47" transform="translate(440.91 40.64) scale(1.08 1)">1</text><g id="arrow_back_black_24dp-2" data-name="arrow back black 24dp-2"><path id="Path_5874-2" data-name="Path 5874-2" class="cls-48" d="M441,447.67l-3.5-3.24.75-.69,4.24,3.93-4.24,3.93-.75-.7,3-2.74.54-.49"/></g><g id="menu_black_24dp-2" data-name="menu black 24dp-2"><path id="Path_6063-2" data-name="Path 6063-2" class="cls-48" d="M293.31,451.6v-7.86h-1.42v7.86Zm-3.54,0v-7.86h-1.41v7.86Zm-4.94,0h1.41v-7.86h-1.41Z"/></g><rect class="cls-49" x="360.72" y="443.74" width="9.32" height="7.86" rx="0.31"/><path class="cls-10" d="M275.9,41.7v1c0,.24-.07.49-.12.73a6.21,6.21,0,0,1-3.34,4.42,8.11,8.11,0,0,1-5.75.71.41.41,0,0,0-.19,0l-1.39.57h-.63l0,0a1,1,0,0,1-.75-.93c0-.33,0-.66-.05-1a.38.38,0,0,0-.1-.2c-.22-.23-.47-.44-.68-.68a6.15,6.15,0,0,1-1.41-5.11,5.91,5.91,0,0,1,1.81-3.46,7.47,7.47,0,0,1,5-2.05,7.82,7.82,0,0,1,3.73.71,6.3,6.3,0,0,1,3.8,4.8C275.85,41.34,275.87,41.52,275.9,41.7Zm-11.11,6.36,1.26-.52a1.28,1.28,0,0,1,.82-.06,7.31,7.31,0,0,0,3.48,0A5.73,5.73,0,0,0,274,44.93a5.27,5.27,0,0,0-1.78-7.24,6.76,6.76,0,0,0-5.31-.78,5.42,5.42,0,0,0-4.34,6.1,5.07,5.07,0,0,0,1.81,3.2,1.14,1.14,0,0,1,.42.9Z"/><path class="cls-10" d="M267.43,40.62a1.09,1.09,0,0,1,.64.21l1.45,1a.44.44,0,0,0,.63,0l2-1.39a.38.38,0,0,1,.35-.09.29.29,0,0,1,.16.47c-.33.48-.66,1-1,1.45l-.93,1.36a1.07,1.07,0,0,1-1.58.26l-1.44-1a.46.46,0,0,0-.6,0l-2,1.44a.36.36,0,0,1-.49,0,.28.28,0,0,1,0-.4l1.18-1.73.75-1.1A1,1,0,0,1,267.43,40.62Z"/><path class="cls-10" d="M286.25,39.69v5.69h-.81V41.13l-2,4.25h-.57l-2.05-4.25v4.25H280V39.69h.87l2.27,4.7,2.28-4.7Z"/><path class="cls-10" d="M288.43,40.25v1.92h2.25v.62h-2.25v2H291v.62h-3.33V39.64H291v.61Z"/><path class="cls-10" d="M293,45.24a1.84,1.84,0,0,1-.76-.56,1.36,1.36,0,0,1-.28-.83h.86a1,1,0,0,0,.36.68,1.37,1.37,0,0,0,.92.28,1.43,1.43,0,0,0,.91-.27.85.85,0,0,0,.33-.69.72.72,0,0,0-.2-.53,1.23,1.23,0,0,0-.48-.32,7.83,7.83,0,0,0-.8-.23c-.4-.1-.73-.2-1-.29a1.68,1.68,0,0,1-.63-.47,1.31,1.31,0,0,1-.26-.85,1.41,1.41,0,0,1,.26-.83,1.64,1.64,0,0,1,.72-.56,2.76,2.76,0,0,1,1.07-.2,2.37,2.37,0,0,1,1.43.4,1.44,1.44,0,0,1,.62,1.07h-.88a.89.89,0,0,0-.38-.58,1.45,1.45,0,0,0-.87-.25,1.25,1.25,0,0,0-.82.25.77.77,0,0,0-.32.67.69.69,0,0,0,.19.51,1.11,1.11,0,0,0,.47.31l.78.23a7.42,7.42,0,0,1,1,.31,1.64,1.64,0,0,1,.64.47,1.28,1.28,0,0,1,.27.86,1.43,1.43,0,0,1-.24.79,1.85,1.85,0,0,1-.71.6,2.59,2.59,0,0,1-1.11.23A2.92,2.92,0,0,1,293,45.24Z"/><path class="cls-10" d="M298.25,45.24a1.91,1.91,0,0,1-.76-.56,1.36,1.36,0,0,1-.28-.83h.86a1,1,0,0,0,.36.68,1.38,1.38,0,0,0,.92.28,1.41,1.41,0,0,0,.91-.27.85.85,0,0,0,.33-.69.72.72,0,0,0-.19-.53,1.27,1.27,0,0,0-.49-.32c-.2-.07-.46-.15-.79-.23a8.88,8.88,0,0,1-1-.29,1.54,1.54,0,0,1-.63-.47,1.26,1.26,0,0,1-.27-.85,1.41,1.41,0,0,1,.26-.83,1.61,1.61,0,0,1,.73-.56,2.72,2.72,0,0,1,1.07-.2,2.34,2.34,0,0,1,1.42.4,1.49,1.49,0,0,1,.63,1.07h-.89a.88.88,0,0,0-.37-.58,1.45,1.45,0,0,0-.87-.25,1.28,1.28,0,0,0-.83.25.79.79,0,0,0-.32.67.69.69,0,0,0,.19.51,1.25,1.25,0,0,0,.47.31l.79.23a7.22,7.22,0,0,1,1,.31,1.57,1.57,0,0,1,.64.47,1.28,1.28,0,0,1,.27.86,1.43,1.43,0,0,1-.24.79,1.85,1.85,0,0,1-.71.6,2.53,2.53,0,0,1-1.11.23A2.92,2.92,0,0,1,298.25,45.24Z"/><path class="cls-10" d="M303.41,40.25v1.92h2.25v.62h-2.25v2h2.52v.62H302.6V39.64h3.33v.61Z"/><path class="cls-10" d="M312,45.38h-.81L308,40.81v4.57h-.8V39.64h.8l3.25,4.56V39.64H312Z"/><path class="cls-10" d="M318.09,41.31a1.77,1.77,0,0,0-.75-.78,2.28,2.28,0,0,0-1.13-.28,2.47,2.47,0,0,0-1.17.28,2,2,0,0,0-.82.79,2.31,2.31,0,0,0-.3,1.19,2.28,2.28,0,0,0,.3,1.18,2,2,0,0,0,.82.79,2.47,2.47,0,0,0,1.17.28,2.19,2.19,0,0,0,1.49-.51,2,2,0,0,0,.68-1.35h-2.47v-.61h3.33v.57a2.58,2.58,0,0,1-.48,1.3,2.93,2.93,0,0,1-1.07.93,3.19,3.19,0,0,1-1.48.34,3.35,3.35,0,0,1-1.58-.37,3,3,0,0,1-1.12-1,3,3,0,0,1,0-3,2.9,2.9,0,0,1,1.12-1A3.57,3.57,0,0,1,318,40a2.62,2.62,0,0,1,1.11,1.28Z"/><path class="cls-10" d="M321.12,40.25v1.92h2.25v.62h-2.25v2h2.52v.62h-3.33V39.64h3.33v.61Z"/><path class="cls-10" d="M328.12,45.38,326.65,43h-1v2.34h-.81V39.64h2a2.8,2.8,0,0,1,1.19.23,1.6,1.6,0,0,1,.72.6,1.57,1.57,0,0,1,.24.86,1.59,1.59,0,0,1-.37,1.05,1.82,1.82,0,0,1-1.1.6l1.55,2.4Zm-2.45-3h1.19a1.43,1.43,0,0,0,1-.3,1,1,0,0,0,.33-.8,1,1,0,0,0-.33-.79,1.5,1.5,0,0,0-1-.28h-1.19Z"/><g id="menu_black_24dp-2-2" data-name="menu black 24dp-2"><path id="Path_6062-2" data-name="Path 6062-2" class="cls-1" d="M452.24,36h13.84V48.78H452.24Z"/><path id="Path_6063-2-2" data-name="Path 6063-2" class="cls-10" d="M454,45.58h10.38V44.51H454Zm0-2.68h10.38V41.83H454Zm0-3.74v1.07h10.38V39.16Z"/></g><path id="Rectangle-7-2" data-name="Rectangle-7" class="cls-28" d="M323.07,221.78h80.79a4.51,4.51,0,0,1,4.27,4.72v10.11a4.51,4.51,0,0,1-4.27,4.71H323.07a4.51,4.51,0,0,1-4.27-4.71V226.5A4.51,4.51,0,0,1,323.07,221.78Z"/><g id="Confirm-2-2" data-name="Confirm-2" class="cls-14"><text class="cls-29" transform="translate(344.13 233.58) scale(1.08 1)">Add to cart</text></g></g><path class="cls-50" d="M654.69,347.21l3.65,2.64c6.93-10.68,2.24-15.31-.89-18.27.66-.75,2.49-2.76,3.18-3.52,2.42,2.84,10.86,10,1.46,24.49l3.7,2.68-10.17,2.39Z"/><path class="cls-50" d="M499.05,325h13.3q-.57-9.22-10.64-11.47l1.74-6.19c12.45,2.55,17.19,11.81,16.25,23.54H499.05Z"/><path class="cls-50" d="M525.21,297.52h7.49v33.39h-7.49Z"/><path class="cls-50" d="M538.44,325h13.29q-.57-9.22-10.63-11.47l1.73-6.19c12.45,2.55,17.19,11.81,16.26,23.54H538.44Z"/><path class="cls-50" d="M573.45,330.91c.57,9.28-6.92,13.19-15.54,11.65l.53-5.92c4.1,1.16,8,0,7.52-5.27V308.64h7.49V325h8.88V308.64h7.54V325h4.25v5.88Zm5-26.43c-3.33-3.23,1.77-8.62,5.06-5.18C586.78,302.54,581.74,308,578.45,304.48Zm8.41,0c-3.26-3.26,1.75-8.62,5.07-5.18C595.2,302.56,590.12,308,586.86,304.48Z"/><path class="cls-50" d="M593.52,325c1.58,0,4.76.29,5.55-1.08,1.42-1.78.65-9.95.84-12.47h7.54c.52,2.86-1.76,14.51,2.79,13.92,5.12.27,2.53-12.66,3.13-15.81h7.14v11.7c-.16,3.9,2.35,3.73,5.78,3.74a57.13,57.13,0,0,0-.95-17.52l7.31-1c1.82,7.74,1.65,16.46.79,24.4-4.38-.25-15.62,1.23-17.6-2.94-1.58,4.24-12.32,4.65-13.55-.14-1,2.86-5.5,3.3-8.77,3.08Z"/><path class="cls-50" d="M640.63,297.52h7.49v33.39h-7.49Z"/><path class="cls-50" d="M520.31,377.59c-15.44.55-20.54-9.45-16.86-21.33l8-1.27c-4,11.16-.63,17.83,12.28,16.72V355.57c15.64-2.34,22.73-1.64,21.25,16.33h-7.19c-.18-5.76,1.71-13.13-6.87-11.13v16.82Zm-3.1,9.69c-3.28,3.42-8.34-1.9-5.07-5.16C515.44,378.69,520.48,384,517.21,387.28Zm8.42,0c-3.3,3.42-8.34-1.9-5.07-5.16C523.83,378.69,529,384,525.63,387.28Z"/><path class="cls-50" d="M549.79,371.71h13.3q-.58-9.22-10.64-11.47l1.74-6.2q15.16,3.58,16.16,17.67h2.71v5.88H549.79Z"/><path class="cls-50" d="M572.78,371.56h11.66v5.84H572.78Z"/><path class="cls-50" d="M584,371.56h11.66v5.84H584Z"/><path class="cls-50" d="M595.23,371.56h11.66v5.84H595.23Z"/><path class="cls-50" d="M606.13,371.71a21,21,0,0,1,4.07.23c-4.84-7.46,1.82-18,10.84-17.27,9.63-1,14.72,10.51,9.18,17.27a37.36,37.36,0,0,1,5.37-.23v5.88H606.13Zm7.7-20.56c-3.26-3.22,1.74-8.61,5-5.18C622.18,349.2,617.11,354.64,613.83,351.15Zm9.83,19.13c3.54-4.57-.64-13.24-6.16-8.47C613.5,366.4,618.29,375.49,623.66,370.28Zm-1.41-19.13c-3.27-3.25,1.75-8.61,5.06-5.18C630.64,349.22,625.49,354.64,622.25,351.15Z"/><path class="cls-50" d="M634.87,371.71h6.39V355.32h7.53v22.27H634.87Zm7.52-20.7c-3.43-3.38,1.89-8.7,5.27-5.27S645.75,354.51,642.39,351Z"/><path class="cls-50" d="M500,339.4l1.49,2.69-2.47.8,2.47.76-1.62,2.82L498,344.56l.63,2.6H495.5l.62-2.6-1.89,1.93-1.66-2.87,2.46-.8-2.42-.71,1.49-2.69,2,1.85-.69-2.64h3.16l-.65,2.64Z"/><ellipse class="cls-5" cx="578" cy="403.56" rx="80.47" ry="6.89"/></svg>