<svg xmlns="http://www.w3.org/2000/svg" width="76.16" height="75.657" viewBox="0 0 76.16 75.657">
  <g id="Group_15588" data-name="Group 15588" transform="translate(-1208 -1114.001)">
    <path id="Path_6348" data-name="Path 6348" d="M944,482.322l6.64,23.167a2.263,2.263,0,0,0,1.437,1.573,1.984,1.984,0,0,0,1.98-.451L974.179,487.7s-21.239-9.277-21.251-8.76S944,482.322,944,482.322Z" transform="translate(281.289 679.842)" fill="#192b4b"/>
    <g id="Group_15529" data-name="Group 15529" transform="translate(1208 1114)">
      <g id="Group_15576" data-name="Group 15576">
        <path id="Path_6349" data-name="Path 6349" d="M999.538,445.963c-13.108,5.937-55.428,25.8-71.451,33.339a2.818,2.818,0,0,0-1.528,2.657,2.771,2.771,0,0,0,1.688,2.536l18.221,6.466,6.571,23.167a2.27,2.27,0,0,0,1.7,1.689c.615.126,1.617-18.781,1.617-18.781s19.1,16.008,28.163,23.558a3.482,3.482,0,0,0,3.67.513,4.127,4.127,0,0,0,2.309-3.2c2.79-15.844,9.76-55.46,12.151-69.01a2.688,2.688,0,0,0-.729-2.539,2.106,2.106,0,0,0-2.38-.4Z" transform="translate(-926.557 -445.756)" fill="#192b4b"/>
        <path id="Path_6350" data-name="Path 6350" d="M952.313,512.256c.615.126,1.617-18.781,1.617-18.781l31.671-33.73a.3.3,0,0,0,.019-.348.237.237,0,0,0-.3-.093L944,487.438l6.617,23.167A2.262,2.262,0,0,0,952.313,512.256Z" transform="translate(-926.754 -439.215)" fill="#253b61"/>
      </g>
    </g>
  </g>
</svg>
