<svg xmlns="http://www.w3.org/2000/svg" width="79.531" height="71.917" viewBox="0 0 79.531 71.917">
  <g id="Group_15607" data-name="Group 15607" transform="translate(-930.249 -2824.31)">
    <path id="Path_6964" data-name="Path 6964" d="M998.426,445.94c-12.908,5.282-54.583,22.957-70.363,29.664a2.479,2.479,0,0,0,.157,4.621l17.944,5.753,6.471,20.613a2.142,2.142,0,0,0,1.671,1.5c.606.112,1.593-16.71,1.593-16.71s18.807,14.243,27.734,20.961a3.723,3.723,0,0,0,5.888-2.389c2.748-14.1,9.611-49.346,11.966-61.4a2.243,2.243,0,0,0-3.062-2.613Z" transform="translate(5.943 2380.856)" fill="none" stroke="#fff" stroke-linejoin="round" stroke-width="4.5"/>
    <path id="Path_6965" data-name="Path 6965" d="M952.187,506.416c.606.112,1.593-16.71,1.593-16.71l31.189-30.011a.247.247,0,0,0-.28-.393L944,484.334l6.516,20.613A2.142,2.142,0,0,0,952.187,506.416Z" transform="translate(8.358 2382.517)" fill="#fff"/>
  </g>
</svg>
