<svg id="Layer_1" data-name="Layer 1" xmlns="http://www.w3.org/2000/svg" xmlns:xlink="http://www.w3.org/1999/xlink" viewBox="0 0 815.8 491.95"><defs><style>.cls-1,.cls-11,.cls-17,.cls-20,.cls-48{fill:none;}.cls-2{clip-path:url(#clip-path);}.cls-3,.cls-4,.cls-6{fill:#1a2b4c;}.cls-3{stroke:#ed743b;stroke-width:2px;}.cls-20,.cls-3,.cls-48{stroke-miterlimit:10;}.cls-5{font-size:8.65px;font-family:MyriadPro-Regular, Myriad Pro;}.cls-6{opacity:0.2;}.cls-7{fill:#2a415d;}.cls-8{clip-path:url(#clip-path-2);}.cls-26,.cls-29,.cls-9{fill:#fff;}.cls-10{fill:#f9f9fa;}.cls-11{stroke:#dcdbdb;}.cls-11,.cls-17,.cls-20{stroke-width:0.77px;}.cls-12,.cls-13,.cls-14,.cls-18,.cls-21,.cls-24,.cls-26,.cls-29{isolation:isolate;}.cls-12,.cls-18{font-size:7.09px;fill:#5f6a80;}.cls-12,.cls-46{font-family:Poppins-Bold, Poppins;}.cls-12,.cls-14,.cls-46{font-weight:700;}.cls-14{font-size:7.34px;fill:#2a387c;font-family:Cairo-Bold, Cairo Bold;}.cls-15{letter-spacing:-0.01em;}.cls-16{letter-spacing:0em;}.cls-17{stroke:#ee7d00;}.cls-18{font-family:Poppins-SemiBold, Poppins;font-weight:600;}.cls-19{opacity:0.35;}.cls-20{stroke:#1f1c40;}.cls-21,.cls-22,.cls-24{fill:#1f1c40;}.cls-21{opacity:0.4;}.cls-23{fill:#62bddd;}.cls-24,.cls-26,.cls-29{font-size:6.29px;}.cls-24{font-family:Cairo-Regular, Cairo Regular;}.cls-25{fill:#4a5ea7;}.cls-26{font-family:Cairo-Medium, Cairo Medium;font-weight:500;}.cls-27{filter:url(#filter);}.cls-28{fill:#e96524;}.cls-29{font-family:Poppins-Regular, Poppins;}.cls-30{filter:url(#filter-2);}.cls-31{fill:#292968;}.cls-32{fill:#218dcd;}.cls-33{fill:#0aaecc;}.cls-34{fill:#d7d7d6;opacity:0.62;}.cls-35{fill:#808184;}.cls-36{fill:#231610;}.cls-37{fill:#603914;}.cls-38{fill:#2f1d13;}.cls-39{fill:#3c2415;}.cls-40{fill:url(#linear-gradient);}.cls-41{fill:url(#linear-gradient-2);}.cls-42{fill:#382313;}.cls-43{fill:url(#linear-gradient-3);}.cls-44{fill:#5fc3e1;}.cls-45,.cls-46{fill:#fcfdfc;}.cls-46{font-size:1.84px;}.cls-47{fill:#dfdfdf;}.cls-48{stroke:#dfdfdf;stroke-width:1.23px;}.cls-49,.cls-59{fill:#4b556f;}.cls-49{opacity:0.6;}.cls-50{fill:#ed743b;}.cls-51{fill:#ef8050;}.cls-52{fill:#63bcdc;}.cls-53{fill:#263238;}.cls-54{fill:#83cbe2;}.cls-55{fill:#57b2cf;}.cls-56{fill:#5f6b80;}.cls-57{fill:#58b1ce;}.cls-58{fill:#a7d8e7;}.cls-60{fill:#f4a79f;}.cls-61{fill:#dd8576;}.cls-62{fill:#f197b9;}.cls-63{fill:#122038;}.cls-64{fill:#1c164b;}.cls-65{fill:#292561;}</style><clipPath id="clip-path"><rect class="cls-1" x="35.42" y="-29.14" width="739.4" height="515.73"/></clipPath><clipPath id="clip-path-2"><path class="cls-1" d="M213.8,12.17H264c3.1,0,5.6,4.38,5.6,7.46h0a5.59,5.59,0,0,0,5.6,5.58H358.5a5.59,5.59,0,0,0,5.6-5.58V17.75a5.59,5.59,0,0,1,5.6-5.58H422a5.59,5.59,0,0,1,5.6,5.58V447.24a5.59,5.59,0,0,1-5.6,5.58H213.87a5.58,5.58,0,0,1-5.59-5.58L208.2,19.63C208.2,16.55,210.71,12.17,213.8,12.17Z"/></clipPath><filter id="filter"><feOffset dy="0.9" input="SourceAlpha"/><feGaussianBlur stdDeviation="4.52" result="blur"/><feFlood flood-color="#12100b"/><feComposite operator="in" in2="blur"/><feComposite in="SourceGraphic"/></filter><filter id="filter-2"><feOffset dy="0.63" input="SourceAlpha"/><feGaussianBlur stdDeviation="3.15" result="blur-2"/><feFlood flood-color="#12100b"/><feComposite operator="in" in2="blur-2"/><feComposite in="SourceGraphic"/></filter><linearGradient id="linear-gradient" x1="310.88" y1="151.88" x2="321.83" y2="151.88" gradientUnits="userSpaceOnUse"><stop offset="0" stop-color="#ae7c3b"/><stop offset="0.08" stop-color="#c0933a"/><stop offset="0.18" stop-color="#d2ab38"/><stop offset="0.3" stop-color="#e0bc37"/><stop offset="0.42" stop-color="#e7c736"/><stop offset="0.57" stop-color="#eaca36"/><stop offset="1" stop-color="#745129"/></linearGradient><linearGradient id="linear-gradient-2" x1="301.98" y1="129.67" x2="307.19" y2="129.67" xlink:href="#linear-gradient"/><linearGradient id="linear-gradient-3" x1="325.99" y1="129.67" x2="331.2" y2="129.67" xlink:href="#linear-gradient"/></defs><g class="cls-2"><path class="cls-3" d="M221.18,590.46c-5.48,0-19.56-25.64-22-29.47-12.51-19.45-23-40.59-29.93-62.68a236.43,236.43,0,0,1-.18-140.2c18.83-60.3,62.4-112.18,117.85-142.44,40.93-22.33,88-32.87,134.5-31.36,47.31,1.53,90.14,20.13,126.76,50.09a252.61,252.61,0,0,1,37.12,37.43c76.22,95.05,72.35,224.31-1.44,318.63H716c3.9,0,12.87-51.91,13.56-55.59,8.14-43.48,11.63-88.08,8.63-132.26-6.34-93.27-47.5-176.5-119.64-236.45-41.5-34.48-91.1-59.43-144-70.61C386.17,76.85,291,97,216.15,147.18,142.48,196.6,89.39,267.59,72.32,355.53c-15.17,78.21-4.27,160.63,23.11,234.93Z"/></g><path class="cls-4" d="M815.8,489.09c-115.28,5.1-290.86,2.38-407.9,3-106.08-.59-277.89,1.76-382.41-2.15L0,489.09l25.49-.84c103.86-3.91,276.9-1.57,382.41-2.16,117.43.64,292-2.12,407.9,3Z"/><text class="cls-5" transform="translate(332.16 241.21)">E96524</text><ellipse class="cls-6" cx="361.88" cy="457.26" rx="203.61" ry="31.68"/><g id="freepik--Device--inject-11"><path class="cls-7" d="M419.67,0H215.94a20.8,20.8,0,0,0-20.66,20.94V440.49a20.82,20.82,0,0,0,20.61,21H419.67a20.84,20.84,0,0,0,20.64-21V21A20.83,20.83,0,0,0,419.67,0Zm7.74,427.52c0,11-8.27,20-18.47,20H226.69c-10.22,0-18.49-8.92-18.49-20V36.9c0-22.49,8.27-23.59,18.49-23.59h36.56c2.12,0,3.86,2.41,3.86,5.4V20c0,7,3.78,7,8.54,7h84.46c4.75,0,8.56,0,8.56-7V18.76c0-3,1.71-5.4,3.87-5.4H409.1c10.19,0,18.46,3,18.46,23.59Z"/><g class="cls-8"><rect class="cls-9" x="208.55" y="7.98" width="218.43" height="442.23"/><rect id="Rectangle_9075-2" data-name="Rectangle 9075-2" class="cls-10" x="208.55" y="254.24" width="218.43" height="101.89"/><line id="Line_2548-2" data-name="Line 2548-2" class="cls-11" x1="413.4" y1="320.51" x2="221.85" y2="320.51"/><g id="Payment_Method-2" data-name="Payment Method-2"><text class="cls-12" transform="translate(221.99 274.15) scale(1.07 1)">Payment Method:</text></g><g id="Order_Lines-2" data-name="Order Lines-2" class="cls-13"><text class="cls-14" transform="translate(221.98 31.56) scale(1.07 1)">O<tspan class="cls-15" x="5.05" y="0">r</tspan><tspan class="cls-16" x="7.38" y="0">der Lines</tspan></text></g><line id="Line_2545-4" data-name="Line 2545-4" class="cls-17" x1="413.82" y1="47.54" x2="222.27" y2="47.54"/><g id="Ellipse_52-3" data-name="Ellipse 52-3"><ellipse class="cls-1" cx="228.29" cy="338.34" rx="6.44" ry="6.03"/><ellipse class="cls-11" cx="228.29" cy="338.34" rx="6.16" ry="5.76"/></g><g id="Cash_on_Delivery-2" data-name="Cash on Delivery-2"><text class="cls-18" transform="translate(248.64 341.23) scale(1.07 1)">Cash on Delivery</text></g><rect id="Rectangle_8976-2" data-name="Rectangle 8976-2" class="cls-9" x="208.55" y="7.98" width="218.43" height="44.54"/><g id="Group_16141-2" data-name="Group 16141-2"><g id="Group-2"><g id="Battery-2"><g id="Border-2" class="cls-19"><path class="cls-1" d="M401.41,16h9.33a1.45,1.45,0,0,1,1.5,1.4v3.14a1.45,1.45,0,0,1-1.5,1.4h-9.33a1.44,1.44,0,0,1-1.49-1.4V17.41A1.44,1.44,0,0,1,401.41,16Z"/><path class="cls-20" d="M401.41,16.27h9.33A1.18,1.18,0,0,1,412,17.41v3.14a1.18,1.18,0,0,1-1.22,1.14h-9.33a1.18,1.18,0,0,1-1.21-1.14V17.41A1.18,1.18,0,0,1,401.41,16.27Z"/></g><path id="Cap-2" class="cls-21" d="M412.8,17.93V20a1.11,1.11,0,0,0,0-2.1"/><path id="Capacity-2" class="cls-22" d="M401.78,17.06h8.59a.73.73,0,0,1,.75.7V20.2a.73.73,0,0,1-.75.7h-8.59a.72.72,0,0,1-.74-.7V17.76A.72.72,0,0,1,401.78,17.06Z"/></g><path id="Wifi-2" class="cls-22" d="M392.7,21.71l-1.12-1.06a.16.16,0,0,1,0-.23h0a2,2,0,0,1,2.48,0,.18.18,0,0,1,.05.12.17.17,0,0,1-.05.12l-1.12,1.06a.2.2,0,0,1-.25,0h0Zm2-1.85a2.87,2.87,0,0,0-3.68,0,.2.2,0,0,1-.25,0l-.64-.62a.16.16,0,0,1,0-.24h0a4.21,4.21,0,0,1,5.46,0,.16.16,0,0,1,0,.24h0l-.64.62A.2.2,0,0,1,394.66,19.86Zm1.49-1.41a5.08,5.08,0,0,0-6.66,0,.2.2,0,0,1-.25,0l-.64-.61a.16.16,0,0,1,0-.24h0a6.4,6.4,0,0,1,8.44,0,.16.16,0,0,1,0,.24l-.64.61a.2.2,0,0,1-.25,0Z"/><path id="Cellular_Connection-2" data-name="Cellular Connection-2" class="cls-22" d="M384.61,21.78a.55.55,0,0,1-.56-.53V16.71a.54.54,0,0,1,.56-.52h.56a.54.54,0,0,1,.56.52v4.54a.55.55,0,0,1-.56.53Zm-2.62,0a.55.55,0,0,1-.56-.53V17.93a.54.54,0,0,1,.56-.52h.56a.54.54,0,0,1,.56.52v3.32a.55.55,0,0,1-.56.53Zm-2.61,0a.55.55,0,0,1-.56-.53V19.16a.55.55,0,0,1,.56-.53h.56a.55.55,0,0,1,.56.53v2.09a.55.55,0,0,1-.56.53Zm-2.61,0a.55.55,0,0,1-.56-.53V20.2a.54.54,0,0,1,.56-.52h.56a.54.54,0,0,1,.56.52v1.05a.55.55,0,0,1-.56.53Z"/></g><rect id="Rectangle_22-2" data-name="Rectangle 22-2" class="cls-23" x="208.55" y="28.94" width="218.43" height="23.58"/><g id="_Time-2" data-name=" Time-2" class="cls-13"><text class="cls-24" transform="translate(221.77 21.34) scale(1.07 1)">9:41</text></g></g><g id="Group_16142-2" data-name="Group 16142-2"><g id="Group_16138-2" data-name="Group 16138-2"><path id="Path_8383-7" data-name="Path 8383-7" class="cls-10" d="M208.55,371.61H427v41.92H208.55Z"/><g id="Group_18327-2" data-name="Group 18327-2"><rect id="Rectangle-6" class="cls-25" x="238.23" y="381.04" width="159.07" height="23.58"/><g id="Add_to_Cart-2" data-name="Add to Cart-2" class="cls-13"><text class="cls-26" transform="translate(301.97 395.19) scale(1.07 1)">تأكيد الطلب</text></g></g></g><g id="Group_16832-2" data-name="Group 16832-2"><g id="Group_16831-2" data-name="Group 16831-2"><g class="cls-27"><path id="Path_8383-8" data-name="Path 8383-8" class="cls-10" d="M208.55,371.61H427v57.12H208.55Z"/></g><g id="Group_18707-2" data-name="Group 18707-2"><path id="Rectangle-7" class="cls-28" d="M237.12,385.35H398.41a6.79,6.79,0,0,1,7,6.55v10.47a6.79,6.79,0,0,1-7,6.55H237.12a6.79,6.79,0,0,1-7-6.55V391.9A6.79,6.79,0,0,1,237.12,385.35Z"/><g id="Confirm-2" class="cls-13"><text class="cls-29" transform="translate(304.22 398) scale(1.07 1)">Confirm</text></g></g></g></g></g><g class="cls-30"><polygon id="Rectangle-8" class="cls-9" points="208.55 425.85 426.98 425.85 426.98 450.21 374.05 450.21 307.07 450.21 305.98 450.21 301.97 450.21 208.55 450.21 208.55 425.85"/></g><g id="Group_2" data-name="Group 2"><ellipse id="Ellipse_52-4" data-name="Ellipse 52-4" class="cls-28" cx="228.29" cy="303.23" rx="6.44" ry="6.03"/><ellipse id="Ellipse_59" data-name="Ellipse 59" class="cls-9" cx="228.29" cy="303.23" rx="2.52" ry="2.36"/></g><g id="Group_18725" data-name="Group 18725"><path id="Path_35" data-name="Path 35" class="cls-31" d="M284.93,302.15c0-.22.09-.44.13-.69a.23.23,0,0,0,0-.21.32.32,0,0,0-.22-.1l-.54,0a6,6,0,0,0-2.71.37.39.39,0,0,0-.26.3c-.06.32-.84,4.41-.95,5a.29.29,0,0,0,0,.22.3.3,0,0,0,.2.06h1.08a.23.23,0,0,0,.25-.19l.83-4.39a3.78,3.78,0,0,1,1.83-.1.34.34,0,0,0,.22,0,.28.28,0,0,0,.14-.22"/><path id="Path_36" data-name="Path 36" class="cls-31" d="M279.91,303.69l-.14.73a3,3,0,0,1-3.28,2.7,2.11,2.11,0,0,1-2.33-1.81,1.61,1.61,0,0,1,0-.31,2.28,2.28,0,0,1,0-.58l.15-.73a3,3,0,0,1,3.28-2.69,2.05,2.05,0,0,1,2.34,2.09,3.79,3.79,0,0,1-.07.6m-2.54-1.33a1.44,1.44,0,0,0-1.42,1.32l-.15.72a2.83,2.83,0,0,0-.05.5.89.89,0,0,0,.94.87h.07a1.47,1.47,0,0,0,1.42-1.34l.14-.72a2.63,2.63,0,0,0,.06-.48.9.9,0,0,0-.95-.87h-.06"/><path id="Path_37" data-name="Path 37" class="cls-31" d="M268.1,301a5.23,5.23,0,0,0-1.53.05,4.38,4.38,0,0,0-1.34.43c-.13.07-.21.14-.13.3s.2.44.34.7.19.13.3.1l.14-.06.05,0a3.28,3.28,0,0,1,1-.27,3.22,3.22,0,0,1,1,0,.55.55,0,0,1,.49.45,1.63,1.63,0,0,1-.06.76h-.13l-.37,0a5.66,5.66,0,0,0-2,.09,1.9,1.9,0,0,0-1.69,2.08,1.33,1.33,0,0,0,.44.86,2.61,2.61,0,0,0,1.72.64h.36a8.83,8.83,0,0,0,2.4-.36.36.36,0,0,0,.21-.11.35.35,0,0,0,.08-.22l.59-3.06a2.1,2.1,0,0,0-.12-1.26,1.16,1.16,0,0,0-.14-.27,2.22,2.22,0,0,0-1.54-.81m0,3.58-.23,1.19-.2,0-.61.07a2.64,2.64,0,0,1-.84,0,1.66,1.66,0,0,1-.31-.12.39.39,0,0,1-.23-.35.71.71,0,0,1,.64-.78,3.29,3.29,0,0,1,.76-.09l.43,0,.43.05h.16"/><path id="Path_38" data-name="Path 38" class="cls-31" d="M288.81,301a5.6,5.6,0,0,0-1.53.06,4.26,4.26,0,0,0-1.35.43c-.13.06-.2.14-.13.3s.21.44.35.7.19.13.3.09l.14-.05.05,0a3.6,3.6,0,0,1,1-.26,2.93,2.93,0,0,1,1,0,.55.55,0,0,1,.49.44,1.55,1.55,0,0,1-.07.77h-.12l-.37,0a5.72,5.72,0,0,0-2,.09,1.9,1.9,0,0,0-1.68,2.08,1.31,1.31,0,0,0,.44.85,2.57,2.57,0,0,0,1.72.65h.36a8.88,8.88,0,0,0,2.4-.36.53.53,0,0,0,.21-.11.37.37,0,0,0,.08-.22l.59-3.06a2.1,2.1,0,0,0-.12-1.26,1.16,1.16,0,0,0-.14-.27,2.27,2.27,0,0,0-1.54-.82m0,3.59-.23,1.19-.21,0-.6.07a2.64,2.64,0,0,1-.84,0,1.15,1.15,0,0,1-.31-.11.39.39,0,0,1-.23-.35.72.72,0,0,1,.64-.79,3.92,3.92,0,0,1,.76-.08l.43,0,.43,0,.16,0"/><path id="Path_39" data-name="Path 39" class="cls-31" d="M274,300.73h-.9l.2-1a.24.24,0,0,0-.22-.29H272a.28.28,0,0,0-.27.21l-1.09,5.66a1.54,1.54,0,0,0,1.32,1.77,1.43,1.43,0,0,0,.29,0h.63a.26.26,0,0,0,.26-.21l.22-1.12h-.57a.53.53,0,0,1-.54-.51.28.28,0,0,1,0-.09l.59-3.08h1a.28.28,0,0,0,.27-.21l.15-.82a.26.26,0,0,0-.22-.3h0"/><path id="Path_40" data-name="Path 40" class="cls-31" d="M264.63,299.4h-5a.33.33,0,0,0-.33.26l-1.37,7.1a.26.26,0,0,0,.22.3h1.14a.26.26,0,0,0,.27-.21l.62-3.22h3.25a.27.27,0,0,0,.27-.2l.15-.82a.26.26,0,0,0-.22-.3h-3.2l.31-1.58h3.77a.28.28,0,0,0,.27-.21l.16-.82a.27.27,0,0,0-.22-.3h-.05"/><g id="Group_123" data-name="Group 123"><path id="Path_41" data-name="Path 41" class="cls-32" d="M250,302.9l3.08-1.13-3.43-1.26a.22.22,0,0,1-.14-.29.27.27,0,0,1,.32-.14l3.92,1.44,1.89-.69a.89.89,0,0,0,.55-1.17.92.92,0,0,0-.55-.51L250,297.08a.57.57,0,0,0-.73.3.43.43,0,0,0,0,.19v4.83a.54.54,0,0,0,.57.53.64.64,0,0,0,.2,0m-.26-4.85h.09L255,300a.22.22,0,0,1,.14.3.26.26,0,0,1-.23.14h-.09l-5.18-1.9a.23.23,0,0,1-.14-.3.24.24,0,0,1,.23-.14"/><path id="Path_42" data-name="Path 42" class="cls-33" d="M255.64,301.32l-5.7,2.09a1.06,1.06,0,0,0-.72,1v4.32a.74.74,0,0,0,.76.71.86.86,0,0,0,.27-.05l5.23-1.92a1.14,1.14,0,0,0,.77-1v-5.79a1,1,0,0,1-.11.3,1,1,0,0,1-.5.4"/></g></g><rect class="cls-34" x="255.69" y="87.04" width="122.61" height="96.98" rx="14.91"/><path class="cls-34" d="M239.07,97.14v76.79c0,5.57-4.83,10.09-10.79,10.09H208.55V87h19.73C234.24,87,239.07,91.56,239.07,97.14Z"/><path class="cls-34" d="M396.46,97.14v76.79c0,5.57,4.83,10.09,10.79,10.09H427V87H407.25C401.29,87,396.46,91.56,396.46,97.14Z"/><rect class="cls-35" x="256.46" y="189.37" width="122.61" height="3.01" rx="1.27"/><rect class="cls-35" x="256.46" y="196.9" width="122.61" height="3.01" rx="1.27"/><rect class="cls-35" x="256.46" y="204.44" width="69.47" height="3.01" rx="1.27"/><path class="cls-36" d="M295.29,165.22a6.52,6.52,0,0,1-6.72-6.28V134.68a6.53,6.53,0,0,1,6.72-6.29h43.42a6.52,6.52,0,0,1,6.72,6.29v24.26a6.51,6.51,0,0,1-6.72,6.28Z"/><path class="cls-37" d="M344.91,134.68v24.26a6,6,0,0,1-6.2,5.8H295.29a6,6,0,0,1-6.2-5.8V134.68a6,6,0,0,1,6.2-5.8h43.42A6,6,0,0,1,344.91,134.68Z"/><path class="cls-38" d="M344.91,135.54v10.78c-6.18,4.6-16.38,7.61-27.91,7.61s-21.73-3-27.91-7.61V135.54a6,6,0,0,1,6.2-5.8h43.42A6,6,0,0,1,344.91,135.54Z"/><path class="cls-39" d="M344.91,134.68v10.77c-6.18,4.61-16.38,7.62-27.91,7.62s-21.73-3-27.91-7.62V134.68a6,6,0,0,1,6.2-5.8h43.42A6,6,0,0,1,344.91,134.68Z"/><path class="cls-9" d="M317,152.63h-.33v-.07H317Zm.14,0v-.08h.33v.07Zm-.79,0H316v-.08h.33Zm1.44,0v-.08h.32v.08Zm-2.09,0h-.33v-.07h.33Zm2.74,0v-.08h.32v.07Zm-3.39,0h-.33v-.08h.33Zm4,0v-.07l.32,0v.08Zm-4.69,0h-.32v-.08l.33,0Zm5.34,0v-.08h.32v.07Zm-6,0h-.32v-.08l.32,0Zm6.64,0v-.08l.32,0v.08Zm-7.28,0-.33,0v-.08l.32,0Zm7.92,0v-.08l.32,0v.08Zm-8.57,0-.32,0v-.08l.33,0Zm9.22,0v-.08l.32,0v.08Zm-9.87-.05-.32,0v-.08l.32,0Zm10.51,0v-.07l.33,0v.08Zm-11.15,0-.33,0v-.08l.32,0Zm11.8,0v-.08l.32,0v.08Zm-12.45-.06-.32,0v-.07l.32,0Zm13.09,0v-.07l.33,0v.08Zm-13.73-.06-.33,0v-.08l.33,0Zm14.38,0v-.07l.32,0v.07Zm-15-.06-.32,0V152l.32,0Zm15.67,0v-.07l.32,0v.07Zm-16.31-.06-.32,0V152l.32,0Zm16.95,0V152l.32,0V152ZM307.94,152l-.32,0v-.08l.32.05Zm18.23,0v-.08l.32,0v.08Zm-18.87-.08-.32,0v-.08l.32.05Zm19.51,0v-.08l.32-.05v.08Zm-20.15-.09-.32-.05,0-.08.31.06Zm20.79,0v-.07l.32-.06v.08ZM306,151.66l-.32-.06,0-.07.32.06Zm22.07,0v-.07l.31-.06,0,.07Zm-22.7-.1-.32-.06v-.07l.32.06Zm23.34,0,0-.07.32-.07v.08Zm-24-.1-.32-.07,0-.07.32.06Zm24.61,0,0-.07.32-.07,0,.08Zm-25.24-.11-.32-.07,0-.07.32.07Zm25.87,0v-.08l.31-.06,0,.07Zm-26.5-.12-.32-.07,0-.07.32.07Zm27.14,0,0-.08.31-.07,0,.07ZM302.86,151l-.32-.07,0-.08.32.08Zm28.39,0,0-.08.32-.07,0,.07Zm-29-.13-.31-.08,0-.07.31.08Zm29.65,0,0-.07.31-.08,0,.07Zm-30.27-.13-.32-.09,0-.07.31.08Zm30.89,0,0-.07.31-.08,0,.07ZM301,150.5l-.31-.09,0-.07.31.09Zm32.15,0,0-.07.31-.09,0,.07Zm-32.77-.15-.31-.09,0-.07.31.09Zm33.39,0,0-.07.31-.1,0,.08Zm-34-.15-.31-.1,0-.07.31.09Zm34.61,0,0-.07.3-.1,0,.07Zm-35.23-.16-.3-.1,0-.07.31.1Zm35.85,0,0-.07.3-.1,0,.07Zm-36.46-.16-.3-.11,0-.07.3.1Zm37.07,0,0-.07.3-.11,0,.07Zm-37.68-.18-.3-.11,0-.07.3.11Zm38.28,0,0-.07.31-.11,0,.07Zm-38.88-.18-.3-.11,0-.07.3.11Zm39.49,0,0-.07.3-.12,0,.07Zm-40.09-.19-.3-.12,0-.07.3.12Zm40.69,0,0-.07.3-.12,0,.07Zm-41.29-.2-.29-.12,0-.07.3.12Zm41.88-.05,0-.07.29-.12,0,.07Zm-42.47-.2-.29-.13,0-.07.3.13Zm43.06-.05,0-.07.29-.13,0,.07Zm-43.64-.21-.3-.13,0-.07.29.13Zm44.23,0,0-.07.29-.13,0,.07Zm-44.82-.22-.29-.14,0-.07.29.14Zm45.4-.05,0-.07.29-.14,0,.07Zm-46-.23-.29-.14,0-.07.29.14Zm46.54-.05,0-.07.28-.14,0,.06Zm-47.11-.24-.29-.15,0-.06.29.14Zm47.68,0,0-.07.28-.15.05.07Zm-48.25-.25-.28-.16.05-.06.27.15Zm48.82-.06,0-.06.27-.16,0,.07Zm-49.37-.25-.28-.16,0-.07.28.16Zm49.92-.06,0-.06.27-.16.05.06Zm-50.47-.27-.28-.16.05-.06.27.16Zm51,0,0-.07.27-.16,0,.06ZM291,146.21l-.26-.17,0-.06.27.17Zm52.11-.06-.05-.06.27-.18.05.07Zm-52.64-.29-.26-.17.05-.07.26.18Zm53.17-.06,0-.06.26-.18,0,.06Zm-53.69-.3-.26-.18.05-.06.26.18Zm54.21-.06,0-.06.25-.19.05.06A2.48,2.48,0,0,1,344.15,145.44Zm-54.5-.41h-.08v-.3h.08Zm54.79-.1h-.08v-.31h.08Zm-54.79-.5h-.08v-.31h.08Zm54.79-.11h-.08V144h.08Zm-54.79-.5h-.08v-.3h.08Zm54.79-.11h-.08v-.3h.08Zm-54.79-.5h-.08v-.3h.08Zm54.79-.1h-.08v-.31h.08Zm-54.79-.5h-.08v-.31h.08Zm54.79-.11h-.08v-.3h.08Zm-54.79-.5h-.08v-.3h.08Zm54.79-.11h-.08v-.3h.08Zm-54.79-.5h-.08v-.3h.08Zm54.79-.1h-.08V141h.08Zm-54.79-.5h-.08v-.31h.08Zm54.79-.11h-.08v-.3h.08Zm-54.79-.5h-.08v-.3h.08Zm54.79-.11h-.08v-.3h.08Zm-54.79-.5h-.08v-.3h.08Zm54.79-.1h-.08v-.31h.08Zm-54.79-.5h-.08v-.31h.08Zm54.79-.11h-.08v-.3h.08Zm-54.79-.5h-.08v-.3h.08Zm54.79-.11h-.08V138h.08Zm-54.79-.5h-.08v-.3h.08Zm54.79-.1h-.08v-.31h.08Zm-54.79-.5h-.08v-.31h.08Zm54.79-.11h-.08v-.3h.08Zm-54.79-.5h-.08v-.3h.08Zm54.79-.11h-.08v-.3h.08Zm-54.79-.5h-.08v-.3h.08Zm54.79-.1h-.08v-.31h.08Zm-54.79-.5h-.08V135h.08Zm54.79-.11h-.08v-.3h.08Zm-54.79-.5h-.08v-.3h.08v.3Zm54.71-.1c0-.1,0-.2,0-.3h.08a3,3,0,0,1,0,.31Zm-54.68-.5h-.08c0-.1,0-.2,0-.3h.08C289.7,133.92,289.69,134,289.68,134.12Zm54.63-.1a2.34,2.34,0,0,0-.05-.3l.08,0a2.87,2.87,0,0,1,.05.31Zm-54.53-.49-.08,0c0-.1.05-.2.08-.3l.08,0C289.83,133.33,289.8,133.43,289.78,133.53Zm54.42-.11-.09-.29.08,0c0,.1.06.2.08.3ZM290,133l-.08,0,.12-.28.07,0A2.33,2.33,0,0,0,290,133Zm54.05-.1-.12-.28.07,0,.12.28Zm-53.81-.46-.07,0,.15-.27.07,0Zm53.55-.09-.15-.27.07,0,.15.26Zm-53.23-.44-.07,0c.05-.08.12-.17.18-.25l.07,0A3,3,0,0,0,290.52,131.86Zm52.91-.08c-.06-.08-.12-.17-.19-.25l.07,0c.06.08.13.16.19.25Zm-52.54-.41-.06,0,.21-.24.06.06ZM343,131.3l-.21-.23.06,0,.22.23Zm-51.72-.37-.06-.06.24-.21.06.06Zm51.28-.07-.23-.2.05-.06.24.2Zm-50.8-.33-.05-.06.26-.18.05.06Zm50.31-.06-.26-.18,0-.06.26.18Zm-49.78-.29,0-.06.28-.15,0,.06Zm49.25-.05-.28-.15,0-.06a1.91,1.91,0,0,1,.28.15Zm-48.69-.23,0-.07c.1,0,.2-.09.3-.12l0,.07A1.88,1.88,0,0,0,292.89,129.9Zm48.12-.05-.3-.11,0-.07.3.11Zm-47.52-.18,0-.07.32-.09,0,.08Zm46.92,0-.31-.08,0-.08.31.09Zm-46.3-.13,0-.07.32-.06,0,.08Zm45.67,0-.32-.05,0-.07.32,0Zm-45-.07v-.07l.32,0v.07Zm44.4,0h-.32v-.08l.32,0Zm-.64,0h-.32v-.08h.32Zm-.65,0h-.32v-.08h.32Zm-.65,0h-.32v-.08h.32Zm-.64,0h-.33v-.08h.33Zm-.65,0h-.33v-.08h.33Zm-.65,0h-.33v-.08h.33Zm-.65,0h-.32v-.08h.32Zm-.65,0h-.32v-.08H334Zm-.65,0H333v-.08h.32Zm-.64,0h-.33v-.08h.33Zm-.65,0h-.33v-.08H332Zm-.65,0H331v-.08h.33Zm-.65,0h-.32v-.08h.32Zm-.65,0h-.32v-.08h.32Zm-.65,0h-.32v-.08h.32Zm-.64,0h-.33v-.08h.33Zm-.65,0h-.33v-.08h.33Zm-.65,0h-.33v-.08h.33Zm-.65,0h-.32v-.08h.32Zm-.65,0h-.32v-.08h.32Zm-.65,0h-.32v-.08h.32Zm-.64,0h-.33v-.08h.33Zm-.65,0h-.33v-.08h.33Zm-.65,0h-.32v-.08h.32Zm-.65,0h-.32v-.08h.32Zm-.65,0H322v-.08h.32Zm-.65,0h-.32v-.08h.32Zm-.64,0h-.33v-.08H321Zm-.65,0H320v-.08h.33Zm-.65,0h-.32v-.08h.32Zm-.65,0h-.32v-.08h.32Zm-.65,0h-.32v-.08h.32Zm-.65,0h-.32v-.08h.32Zm-.64,0h-.33v-.08h.33Zm-.65,0h-.33v-.08h.33Zm-.65,0h-.32v-.08h.32Zm-.65,0h-.32v-.08h.32Zm-.65,0h-.32v-.08h.32Zm-.65,0h-.32v-.08h.32Zm-.64,0h-.33v-.08h.33Zm-.65,0h-.33v-.08h.33Zm-.65,0h-.32v-.08h.32Zm-.65,0H311v-.08h.32Zm-.65,0h-.32v-.08h.32Zm-.65,0h-.32v-.08H310Zm-.64,0H309v-.08h.33Zm-.65,0h-.33v-.08h.33Zm-.65,0h-.32v-.08H308Zm-.65,0h-.32v-.08h.32Zm-.65,0h-.32v-.08h.32Zm-.64,0h-.33v-.08h.33Zm-.65,0h-.33v-.08h.33Zm-.65,0h-.33v-.08h.33Zm-.65,0h-.32v-.08h.32Zm-.65,0h-.32v-.08h.32Zm-.65,0h-.32v-.08h.32Zm-.64,0h-.33v-.08h.33Zm-.65,0h-.33v-.08h.33Zm-.65,0h-.33v-.08h.33Zm-.65,0h-.32v-.08h.32Zm-.65,0h-.32v-.08h.32Zm-.65,0h-.32v-.08H299Zm-.64,0H298v-.08h.33Zm-.65,0h-.33v-.08h.33Zm-.65,0h-.33v-.08H297Zm-.65,0H296v-.08h.32Zm-.65,0h-.32v-.08h.32Z"/><path class="cls-38" d="M316.57,157a5.13,5.13,0,1,1,5.47-5.12A5.32,5.32,0,0,1,316.57,157Zm0-9a3.92,3.92,0,1,0,4.18,3.92A4.06,4.06,0,0,0,316.57,148Z"/><path class="cls-40" d="M316.36,157a5.13,5.13,0,1,1,5.47-5.12A5.32,5.32,0,0,1,316.36,157Zm0-9a3.92,3.92,0,1,0,4.18,3.92A4.07,4.07,0,0,0,316.36,148Z"/><path class="cls-41" d="M305.55,131.63h-1.94A1.59,1.59,0,0,1,302,130.1v-.86a1.59,1.59,0,0,1,1.63-1.53h1.94a1.59,1.59,0,0,1,1.64,1.53v.86A1.59,1.59,0,0,1,305.55,131.63Zm-1.94-3.32a1,1,0,0,0-1,.93v.86a1,1,0,0,0,1,.93h1.94a1,1,0,0,0,1-.93v-.86a1,1,0,0,0-1-.93Z"/><rect class="cls-42" x="303.3" y="129.67" width="2.97" height="8.07" rx="1.26"/><rect class="cls-37" x="303.1" y="129.67" width="2.97" height="8.07" rx="1.26"/><path class="cls-9" d="M304.69,137.48h-.32v-.08h.32Zm-.53,0a1,1,0,0,1-.33-.07l0-.07a.72.72,0,0,0,.29.06Zm.86,0v-.08a.59.59,0,0,0,.29-.07l0,.07A1,1,0,0,1,305,137.48Zm-1.46-.26a.8.8,0,0,1-.15-.29l.08,0a.55.55,0,0,0,.14.26Zm2.05,0-.06,0a.6.6,0,0,0,.13-.25l.08,0A.76.76,0,0,1,305.61,137.2Zm-2.15-.58h-.08v-.3h.08Zm2.32,0h-.08v-.31h.08Zm-2.32-.59h-.08v-.31h.08Zm2.32,0h-.08v-.3h.08Zm-2.32-.59h-.08v-.3h.08Zm2.32,0h-.08v-.3h.08Zm-2.32-.59h-.08v-.3h.08Zm2.32,0h-.08v-.31h.08Zm-2.32-.59h-.08v-.31h.08Zm2.32,0h-.08v-.3h.08Zm-2.32-.59h-.08v-.3h.08Zm2.32,0h-.08v-.3h.08Zm-2.32-.59h-.08v-.3h.08Zm2.32,0h-.08v-.31h.08Zm-2.32-.59h-.08v-.3h.08Zm2.32,0h-.08v-.3h.08Zm-2.32-.59h-.08v-.3h.08Zm2.32,0h-.08v-.3h.08Zm-2.32-.58h-.08v-.31h.08Zm2.32,0h-.08v-.3h.08Zm-2.31-.58-.08,0a.81.81,0,0,1,.12-.29l.07,0A.64.64,0,0,0,303.47,130.57Zm2.22,0a.68.68,0,0,0-.12-.26l.07,0a.81.81,0,0,1,.13.3Zm-1.89-.44,0-.07a.75.75,0,0,1,.32-.1V130A.75.75,0,0,0,303.8,130.11Zm1.55,0a.75.75,0,0,0-.3-.09v-.07a1,1,0,0,1,.33.09Zm-.62-.09h-.32v-.07h.32Z"/><path class="cls-43" d="M329.57,131.63h-1.94A1.59,1.59,0,0,1,326,130.1v-.86a1.59,1.59,0,0,1,1.64-1.53h1.94a1.59,1.59,0,0,1,1.63,1.53v.86A1.59,1.59,0,0,1,329.57,131.63Zm-1.94-3.32a1,1,0,0,0-1,.93v.86a1,1,0,0,0,1,.93h1.94a1,1,0,0,0,1-.93v-.86a1,1,0,0,0-1-.93Z"/><rect class="cls-42" x="327.32" y="129.67" width="2.97" height="8.07" rx="1.26"/><rect class="cls-37" x="327.11" y="129.67" width="2.97" height="8.07" rx="1.26"/><path class="cls-9" d="M328.71,137.48h-.33v-.08h.33Zm-.53,0a1,1,0,0,1-.33-.07l0-.07a.72.72,0,0,0,.29.06Zm.85,0v-.08a.63.63,0,0,0,.3-.07l0,.07A.89.89,0,0,1,329,137.48Zm-1.45-.26a.88.88,0,0,1-.16-.28l.08,0a.89.89,0,0,0,.14.25Zm2.05,0-.07,0a.62.62,0,0,0,.14-.25l.08,0A.76.76,0,0,1,329.63,137.2Zm-2.15-.58h-.08v-.3h.08Zm2.32,0h-.08v-.31h.08Zm-2.32-.59h-.08v-.31h.08Zm2.32,0h-.08v-.3h.08Zm-2.32-.59h-.08v-.3h.08Zm2.32,0h-.08v-.3h.08Zm-2.32-.59h-.08v-.3h.08Zm2.32,0h-.08v-.31h.08Zm-2.32-.59h-.08v-.3h.08Zm2.32,0h-.08v-.3h.08Zm-2.32-.59h-.08v-.3h.08Zm2.32,0h-.08v-.3h.08Zm-2.32-.58h-.08v-.31h.08Zm2.32,0h-.08v-.31h.08Zm-2.32-.59h-.08v-.3h.08Zm2.32,0h-.08v-.3h.08Zm-2.32-.59h-.08v-.3h.08Zm2.32,0h-.08v-.3h.08Zm-2.32-.58h-.08v-.31h.08Zm2.32,0h-.08v-.3h.08Zm-2.31-.58-.08,0a.67.67,0,0,1,.12-.29l.07,0A.54.54,0,0,0,327.49,130.57Zm2.22,0a.68.68,0,0,0-.12-.26l.06,0a.69.69,0,0,1,.14.3Zm-1.89-.44,0-.07a.71.71,0,0,1,.32-.1V130A.91.91,0,0,0,327.82,130.11Zm1.54,0a.75.75,0,0,0-.29-.09v-.07a.9.9,0,0,1,.32.09Zm-.61-.09h-.32v-.07h.32Z"/><path class="cls-37" d="M330.29,119.56c0-.23,0-.45,0-.68a7.38,7.38,0,0,0-1.78-4.12c-.42-.57-.72-1.23-1.08-1.83s-.72-1.18-1.12-1.75a14.89,14.89,0,0,0-2.48-2.85,11.28,11.28,0,0,0-6.85-2.48h-.89a11.33,11.33,0,0,0-6.85,2.48,15.19,15.19,0,0,0-2.47,2.85c-.4.57-.77,1.16-1.13,1.75a19.94,19.94,0,0,1-1.08,1.83,7.36,7.36,0,0,0-1.77,4.12c0,.23,0,.45,0,.68a1.81,1.81,0,0,0-1.17,1.66v5.83a1.88,1.88,0,0,0,1.93,1.81h1.86a1.88,1.88,0,0,0,1.93-1.81v-5.83a1.8,1.8,0,0,0-1-1.57v-.05a10.45,10.45,0,0,0,.16-1.57,19.38,19.38,0,0,1,0-2.41,2.63,2.63,0,0,1,.23-.77,31,31,0,0,1,1.39-2.84,10.88,10.88,0,0,1,2.18-2.72,9.85,9.85,0,0,1,5.12-2.08,7.11,7.11,0,0,1,2.06,0,9.89,9.89,0,0,1,5.12,2.08,11.06,11.06,0,0,1,2.17,2.72,31.14,31.14,0,0,1,1.4,2.84,2.63,2.63,0,0,1,.23.77,21.53,21.53,0,0,1,0,2.41,9.31,9.31,0,0,0,.17,1.57v.05a1.78,1.78,0,0,0-1,1.57v5.83a1.88,1.88,0,0,0,1.93,1.81h1.86a1.88,1.88,0,0,0,1.93-1.81v-5.83A1.81,1.81,0,0,0,330.29,119.56Z"/><path class="cls-9" d="M329.53,128.6h-.26v-.08h.32v.08Zm-.58,0h-.33v-.08H329Zm-.65,0H328v-.08h.32Zm-.63,0a1.84,1.84,0,0,1-.33,0l0-.08a1.55,1.55,0,0,0,.31,0Zm-22.2,0h-.16v-.08h.32v.08Zm-.49,0h-.32v-.08H305Zm-.65,0H304v-.08h.32Zm-.64,0h-.08l-.25,0v-.08a1,1,0,0,0,.24,0h.08Zm26.24,0,0-.07.29-.1,0,.07A1.86,1.86,0,0,1,329.93,128.55Zm-24,0,0-.08a1.15,1.15,0,0,0,.29-.11l0,.06A1.14,1.14,0,0,1,306,128.53Zm-2.92,0a1,1,0,0,1-.3-.14l0-.06a1.75,1.75,0,0,0,.28.13Zm24,0a1.59,1.59,0,0,1-.29-.15l0-.06a1.16,1.16,0,0,0,.27.14Zm3.5-.19,0-.06a1.1,1.1,0,0,0,.23-.2l.06,0A1.21,1.21,0,0,1,330.52,128.28Zm-24-.05-.06-.06a1.11,1.11,0,0,0,.22-.21l.07,0A2.5,2.5,0,0,1,306.54,128.23Zm-4.06-.06a1.58,1.58,0,0,1-.22-.23l.07,0a2.09,2.09,0,0,0,.2.22Zm24,0a1.11,1.11,0,0,1-.2-.24l.06,0a2.2,2.2,0,0,0,.2.23Zm4.48-.3-.07,0a1.69,1.69,0,0,0,.13-.27l.07,0A1.43,1.43,0,0,1,331,127.82Zm-24-.08-.07,0a1,1,0,0,0,.11-.28l.08,0A1.48,1.48,0,0,1,306.94,127.74Zm-4.84-.07a1.18,1.18,0,0,1-.1-.3h.08a1.52,1.52,0,0,0,.09.28Zm24-.07a1.71,1.71,0,0,1-.09-.3h.08a2.29,2.29,0,0,0,.08.28Zm5-.37h-.08a1.09,1.09,0,0,0,0-.18v-.12h.09v.12A1.1,1.1,0,0,1,331.16,127.23Zm-24.05-.09H307s0-.06,0-.09v-.21h.08v.21A.28.28,0,0,1,307.11,127.14Zm-5.15-.08v-.3H302v.29ZM326.1,127H326v-.3h.08Zm5.08-.37h-.09v-.3h.09Zm-24.06-.08H307v-.31h.08Zm-5.08-.08H302v-.31H302Zm24.06-.07H326v-.31h.08Zm5.08-.37h-.09v-.31h.09Zm-24.06-.09H307v-.3h.08Zm-5.08-.08H302v-.3H302Zm24.06-.07H326v-.3h.08Zm5.08-.37h-.09v-.3h.09Zm-24.06-.09H307V125h.08Zm-5.08-.08H302v-.3H302Zm24.06-.07H326v-.3h.08Zm5.08-.36h-.09v-.31h.09Zm-24.06-.09H307v-.31h.08Zm-5.08-.08H302v-.31H302Zm24.06-.07H326v-.31h.08Zm5.08-.37h-.09v-.3h.09Zm-24.06-.09H307v-.3h.08ZM302,124H302v-.3H302ZM326.1,124H326v-.3h.08Zm5.08-.37h-.09v-.3h.09Zm-24.06-.09H307v-.3h.08Zm-5.08-.07H302v-.31H302Zm24.06-.08H326v-.3h.08Zm5.08-.36h-.09v-.31h.09Zm-24.06-.09H307v-.31h.08Zm-5.08-.08H302v-.3H302Zm24.06-.07H326v-.31h.08Zm5.08-.37h-.09v-.3h.09Zm-24.06-.09H307V122h.08Zm-5.08-.08H302v-.3H302Zm24.06-.07H326v-.3h.08Zm5.08-.37h-.09v-.3h.09Zm-24.06-.09H307v-.3h.08Zm-5.08-.07H302v-.31H302Zm24.06-.08H326v-.3h.08Zm5-.36a.92.92,0,0,0,0-.29l.08,0a1.06,1.06,0,0,1,0,.31ZM307,121.08a1.5,1.5,0,0,0-.06-.29l.07,0a1.09,1.09,0,0,1,.07.3Zm-5-.07-.08,0a1.11,1.11,0,0,1,.08-.3l.08,0A1,1,0,0,0,302.06,121Zm24.07-.07-.08,0a1.42,1.42,0,0,1,.1-.29l.07,0A1.61,1.61,0,0,0,326.13,120.94Zm4.82-.34a1.45,1.45,0,0,0-.17-.26l.07,0a1.24,1.24,0,0,1,.17.27Zm-24.11-.08a1.46,1.46,0,0,0-.17-.24l.06,0a1.44,1.44,0,0,1,.18.25Zm-4.57-.07-.07,0a2.31,2.31,0,0,1,.2-.24l.06,0A2.11,2.11,0,0,0,302.27,120.45Zm24.1,0-.06-.05a1.51,1.51,0,0,1,.21-.23l.06,0A1.15,1.15,0,0,0,326.37,120.4Zm4.2-.27a1.44,1.44,0,0,0-.25-.18l0-.06a2.11,2.11,0,0,1,.27.18Zm-24.13-.06a1.37,1.37,0,0,0-.2-.13l-.07,0,.05-.06.06,0,.21.13Zm-3.74,0-.05-.06a1.59,1.59,0,0,1,.29-.15l0,.07Zm24.12,0,0-.07.08,0,.2-.11,0,0h0v0l0,0-.2.1Zm3.21-.17-.12,0,0-.23H330l0,.18.07,0Zm-26.89-.14v-.14a.92.92,0,0,1,0-.16h.08a.76.76,0,0,0,0,.15v.15Zm3,0h-.08l0-.09a1.55,1.55,0,0,1,0-.21h.08c0,.08,0,.15,0,.21Zm20.85-.13c0-.09,0-.19-.05-.3H327c0,.11,0,.21.05.3Zm3-.27H330c0-.11,0-.21,0-.3H330C330,119,330,119.14,330,119.24Zm-26.93-.16v-.31h.08v.3Zm3.13,0h-.08c0-.1,0-.2,0-.3h.08C306.26,118.84,306.24,118.94,306.23,119Zm20.66-.13,0-.31h.08l0,.3Zm3.06-.27c0-.1,0-.2,0-.3H330c0,.1,0,.2,0,.3Zm-26.75-.17h-.08c0-.09,0-.2.05-.3l.08,0C303.23,118.28,303.22,118.38,303.2,118.47Zm3.09,0h-.08c0-.1,0-.21,0-.3h.08C306.31,118.22,306.3,118.32,306.29,118.43Zm20.54-.13V118h.08v0a2.35,2.35,0,0,0,0,.26Zm3-.26c0-.09-.05-.19-.08-.29l.08,0c0,.1.06.2.08.3Zm-26.54-.16-.08,0a1.9,1.9,0,0,1,.09-.29l.07,0C303.37,117.69,303.34,117.79,303.32,117.88Zm2.91-.06c0-.1,0-.2,0-.3h.08c0,.1,0,.2,0,.3Zm20.68-.13h-.08v-.3h.08Zm2.78-.23c0-.09-.07-.19-.11-.28l.07,0c0,.1.08.19.11.29Zm-26.18-.15-.08,0,.12-.28.07,0A2.33,2.33,0,0,0,303.51,117.31Zm2.7-.09v-.31h.08v.3Zm20.72-.14h-.09c0-.1,0-.2,0-.3h.08Zm2.53-.18-.14-.27.07,0c.05.1.1.19.14.28Zm-25.71-.15-.07,0c.05-.09.09-.18.14-.28l.08,0Zm2.54-.14h-.09v0c0-.1,0-.19,0-.29h.08v.3Zm20.56-.13c0-.1,0-.2,0-.3h.09v.31Zm2.33-.12c-.05-.09-.1-.18-.16-.27l.07,0c.06.09.11.18.16.27Zm-25.13-.15-.08,0a2.26,2.26,0,0,0,.16-.26l.07,0Zm2.25-.21h-.08c0-.1,0-.2,0-.3h.08C306.31,115.8,306.31,115.9,306.3,116Zm20.53-.13,0-.28v0h.08v0l0,.29Zm2,0-.17-.26.07,0c.06.09.11.18.17.26Zm-24.49-.14-.07,0,.18-.26.06,0Zm2-.28-.08,0c0-.1,0-.2.07-.3l.08,0A2.46,2.46,0,0,0,306.37,115.41Zm22.14-.09c-.05-.08-.12-.17-.18-.25l.07,0,.18.26Zm-1.77,0a1.9,1.9,0,0,0-.09-.29l.08,0a1.9,1.9,0,0,1,.09.29Zm-22-.1-.06,0,.16-.23,0,0,.07,0,0,0Zm1.83-.35-.08,0a.36.36,0,0,0,0-.09.89.89,0,0,0,.08-.17v0l.07,0v0l-.08.17A.36.36,0,0,0,306.55,114.83Zm21.6,0a2.33,2.33,0,0,1-.17-.26l.07,0c.05.09.11.17.17.26Zm-1.61-.11-.13-.28.08,0,.12.28Zm-21.45,0-.07,0,.16-.26.07,0Zm22.73-.39a2.26,2.26,0,0,1-.16-.26l.07,0c0,.09.1.18.16.27Zm-21,0-.08,0c0-.09.09-.18.13-.27l.08,0C306.88,114.09,306.84,114.18,306.8,114.27Zm19.48-.12-.12-.27.07,0,.13.28Zm-20.87,0-.08,0a1.82,1.82,0,0,0,.15-.27l.08,0Zm22.1-.39v0l-.13-.24.07,0c0,.08.09.16.13.25l0,0Zm-20.46,0-.07,0c0-.1.09-.19.13-.28l.08,0C307.14,113.53,307.1,113.63,307.05,113.72Zm-1.35-.11-.07,0,.15-.27.07,0Zm20.33,0c0-.09-.09-.19-.14-.28l.08,0,.13.28Zm1.18-.38-.06-.12-.09-.15.07,0,.09.14a.75.75,0,0,0,.07.12Zm-19.89-.06-.07,0,.13-.27.08,0C307.41,113,307.36,113.07,307.32,113.16Zm-1.31-.09-.07,0c.05-.09.1-.18.16-.27l.07,0Zm19.75,0c-.05-.1-.09-.19-.14-.28l.07,0c.05.09.1.18.14.27Zm1.14-.36-.17-.26.07,0,.17.26Zm-19.3-.07-.08,0,.15-.27.07,0C307.69,112.43,307.64,112.53,307.6,112.62Zm-1.27-.07-.07,0,.16-.26.07,0Zm19.15,0-.15-.27.08,0,.14.28Zm1.09-.33c-.06-.09-.11-.18-.17-.26l.07,0c.06.08.11.17.17.26Zm-18.68-.09-.07,0,.1-.19.05-.08.07,0a.59.59,0,0,0,0,.08A1.18,1.18,0,0,0,307.89,112.08Zm-1.23,0-.07,0c.06-.09.11-.18.17-.26l.07,0C306.77,111.85,306.72,111.94,306.66,112Zm18.52-.07,0-.07-.11-.19.07,0,.11.19.05.08Zm1.05-.31-.17-.25.06,0,.18.25Zm-18-.1-.07,0,.16-.26.07,0Zm-1.2,0-.07,0,.11-.15.07-.1.07,0-.08.1Zm17.87-.08-.17-.25.07,0c.06.08.11.17.17.26Zm1-.29-.18-.25.06,0c.06.08.12.17.19.25ZM308.53,111l-.06,0,.17-.26.07,0Zm-1.17,0-.07-.05.18-.25.07.05Zm17.17-.09-.18-.25.06,0,.18.25Zm1-.27a2.35,2.35,0,0,0-.19-.25l.07,0,.19.24Zm-16.61-.12-.07,0,.19-.24.07,0C309,110.36,309,110.45,308.9,110.53Zm-1.17,0-.07,0,.2-.25.06,0Zm16.43-.09-.2-.24.07,0,.19.24Zm1-.26-.2-.24.06,0,.2.24Zm-15.84-.11-.07,0,.21-.23.06,0Zm-1.17,0-.07,0,.21-.24.06.05Zm15.64-.08-.21-.23.06,0,.21.23Zm1-.26-.21-.23.07,0,.21.23Zm-15-.1-.06,0,.22-.22.06.05C309.86,109.44,309.78,109.51,309.71,109.59Zm-1.18,0-.06,0,.21-.23.06,0Zm14.8-.07-.22-.21.06-.06.22.22Zm1-.26-.22-.22.06-.05c.07.07.15.14.22.22Zm-14.14-.07-.06-.06.07-.06.17-.14.06,0-.17.15Zm-1.2,0-.06,0,.22-.22.06,0C309.11,109,309,109,309,109.11Zm13.92,0a2.43,2.43,0,0,0-.25-.2l.06-.06.24.2Zm1-.28-.23-.21.05,0,.24.21Zm-13.21,0-.05-.06.26-.18,0,.06Zm11.74-.08-.25-.18,0-.06.26.18Zm-13,0-.05-.06.11-.09.12-.11.06,0-.13.11Zm1.75-.28,0-.06.27-.16,0,.06Zm12.22,0-.25-.19.05-.06a2.43,2.43,0,0,1,.25.2Zm-1.52,0-.28-.16,0-.06.28.16Zm-12-.06-.05,0,.25-.19.05.06Zm1.82-.18,0-.07.29-.14,0,.06Zm9.59-.07-.28-.13,0-.07.29.14Zm1.58,0-.26-.17,0-.06.27.17Zm-12.48-.09,0-.07.26-.17.05.06Zm1.89-.1,0-.07.3-.12,0,.07Zm8.43,0-.29-.12,0-.07.3.12Zm1.63-.1-.28-.15,0-.07.28.16Zm-9.47-.08,0-.07.31-.11,0,.07Zm-1.94,0,0-.06.28-.15,0,.06Zm9.19,0-.31-.1,0-.07.3.1Zm-6.64-.15,0-.07.31-.09,0,.07Zm8.3,0-.29-.14,0-.07.29.14Zm-2.28,0-.31-.08,0-.07.32.08Zm-8-.06,0-.07.29-.13,0,.07Zm2.61-.07,0-.07.32-.07,0,.07Zm4.78,0-.31-.07V107l.32.07Zm2.32-.09-.3-.11,0-.07.3.11Zm-6.47,0V107l.31-.06,0,.08Zm3.52,0-.32,0,0-.08.31.06Zm-6.17,0,0-.07.3-.12,0,.07Zm3.29-.06,0-.08.12,0,.21,0v.07l-.21,0Zm2.24,0-.32,0v-.08l.33,0Zm-1.6,0v-.08h.33v.07Zm1,0h-.32v-.08H317Zm3.63,0-.3-.1,0-.07.31.1Zm-7.92-.06,0-.07.3-.09,0,.07Zm7.31-.13-.31-.08,0-.08.31.09Zm-6.69-.05,0-.07.31-.08,0,.08Zm6.06-.11-.31-.06,0-.08.31.07Zm-5.43,0,0-.08.32-.06v.07Zm4.8-.09-.32-.05,0-.08.32,0Zm-4.17,0v-.07l.32,0v.07Zm3.53-.07-.32,0v-.07l.33,0Zm-2.89,0v-.07l.32,0v.08Zm2.25,0-.32,0v-.08l.32,0Zm-1.61,0v-.08l.3,0h0v.07h0Zm1,0h-.32v-.07h.33Z"/><rect class="cls-44" x="380.54" y="34.37" width="17.24" height="14.28" rx="1.97"/><path class="cls-45" d="M386.56,43h5.77a.28.28,0,0,0,.26-.17l1.1-3.25a.24.24,0,0,0,0-.23.28.28,0,0,0-.21-.1h-8a.28.28,0,0,0-.21.1.24.24,0,0,0,0,.23l1.11,3.25A.25.25,0,0,0,386.56,43Zm5.58-.5h-5.39l-.94-2.75h7.27Z"/><path class="cls-45" d="M387,44.34H392a.26.26,0,0,0,.26-.25.26.26,0,0,0-.26-.25h-4.73a.48.48,0,0,1-.5-.44.43.43,0,0,1,.2-.44l-1.66-4.91a.28.28,0,0,0-.26-.17h-1.72a.25.25,0,1,0,0,.49h1.53l1.52,4.56A.94.94,0,0,0,387,44.34Z"/><path class="cls-45" d="M390.34,45.17a.61.61,0,1,0,.61-.57A.59.59,0,0,0,390.34,45.17Z"/><path class="cls-45" d="M387.28,45.17a.61.61,0,1,0,.61-.57A.59.59,0,0,0,387.28,45.17Z"/><ellipse class="cls-28" cx="393.23" cy="39.21" rx="2.07" ry="1.93"/><text class="cls-46" transform="translate(392.78 39.81) scale(1.07 1)">1</text><g id="arrow_back_black_24dp-2" data-name="arrow back black 24dp-2"><path id="Path_5874-2" data-name="Path 5874-2" class="cls-47" d="M392.82,438.63l-3.4-3.17.73-.68,4.12,3.85-4.12,3.85-.72-.68,2.87-2.69.52-.48"/></g><g id="menu_black_24dp-2" data-name="menu black 24dp-2"><path id="Path_6063-2" data-name="Path 6063-2" class="cls-47" d="M249.5,442.48v-7.7h-1.37v7.7Zm-3.43,0v-7.7H244.7v7.7Zm-4.8,0h1.37v-7.7h-1.37Z"/></g><rect class="cls-48" x="314.94" y="434.78" width="9.04" height="7.7" rx="0.31"/><path class="cls-9" d="M221.82,47.09l1.22-.51a1.22,1.22,0,0,1,.8-.06,6.87,6.87,0,0,0,3.37,0,5.57,5.57,0,0,0,3.54-2.5,5,5,0,0,0,.64-3.69A5,5,0,0,0,229,36.93a6.49,6.49,0,0,0-5.16-.76,5.29,5.29,0,0,0-4.21,6,5,5,0,0,0,1.76,3.14,1.11,1.11,0,0,1,.41.87Z"/><g id="menu_black_24dp-2-2" data-name="menu black 24dp-2"><path id="Path_6062-2" data-name="Path 6062-2" class="cls-1" d="M403.77,35.22h13.44V47.8H403.77Z"/><path id="Path_6063-2-2" data-name="Path 6063-2" class="cls-9" d="M405.45,44.66h10.08v-1H405.45Zm0-2.62h10.08V41H405.45Zm0-3.67v1.05h10.08V38.37Z"/></g><path id="Rectangle-7-2" data-name="Rectangle-7" class="cls-28" d="M278.39,217.3h78.42a4.4,4.4,0,0,1,4.14,4.63v9.9a4.4,4.4,0,0,1-4.14,4.62H278.39a4.41,4.41,0,0,1-4.15-4.62v-9.9A4.41,4.41,0,0,1,278.39,217.3Z"/><g id="Confirm-2-2" data-name="Confirm-2" class="cls-13"><text class="cls-29" transform="translate(298.83 228.86) scale(1.07 1)">Add to cart</text></g></g></g><path class="cls-49" d="M381.63,325.29s-34.95,76.84,44.94,113.23Z"/><path class="cls-50" d="M521.32,200.51a65.47,65.47,0,0,1-10.71,10.4c4.22-12.79-2.42-38.13-2.44-34.3-.08,18.29-6.84,39.8-10.8,41.65h-.07c-10.88,3.93-21.71,3.14-31.23.27v-.06c5.83-14.71-.25-40.61-.48-38.9C463,197.91,452,210.7,449.76,211.18h0c-10.18-6.2-16.41-13.25-15.38-14.33,7.42-7.85,11.49-24.78,14.63-42.43h0c3.12-17.39,3.13-33.29,9.31-49.57C464,90,480.49,83.73,491.59,88.27,520.78,100.18,525.79,195.09,521.32,200.51Z"/><path class="cls-51" d="M489.66,87.62A17.5,17.5,0,0,1,496.28,91a41.41,41.41,0,0,1,5.46,5.13,71,71,0,0,1,8.38,12.4,111.6,111.6,0,0,1,10.36,28.05,175.86,175.86,0,0,1,4,29.61c.16,2.49.18,5,.27,7.47l.05,7.46-.25,7.45-.47,7.44v-7.45l-.13-7.44-.28-7.43c-.17-2.47-.26-4.95-.49-7.41A192.06,192.06,0,0,0,518.84,137,119.1,119.1,0,0,0,509,109.1a73,73,0,0,0-7.9-12.48A40.61,40.61,0,0,0,496,91.26a25.64,25.64,0,0,0-3-2.16A12.66,12.66,0,0,0,489.66,87.62Z"/><path class="cls-51" d="M432.79,194.48a128.73,128.73,0,0,0,5.19-11.8c1.59-4,3-8,4.26-12.15s2.36-8.25,3.22-12.43,1.57-8.46,2.35-12.69c1.67-8.45,3.33-16.95,5.49-25.29,1.1-4.17,2.28-8.33,3.74-12.41a56.81,56.81,0,0,1,2.53-6,15.75,15.75,0,0,1,3.75-5.24,16.91,16.91,0,0,0-3.35,5.42,62.27,62.27,0,0,0-2.17,6c-1.28,4.1-2.32,8.27-3.26,12.49-1.89,8.39-3.57,16.83-5.1,25.29-.83,4.23-1.59,8.45-2.51,12.7a113.34,113.34,0,0,1-3.47,12.49A124.37,124.37,0,0,1,432.79,194.48Z"/><path class="cls-52" d="M413.14,367h69.79c.6-2.32,1.19-4.66,1.79-7,.38-1.54.77-3.07,1.17-4.6a.89.89,0,0,1,.07-.28l1.52-6a5.66,5.66,0,0,0,.15-.59c.39-1.52.78-3,1.15-4.56q1.47-5.67,2.88-11.24c.35-1.41.71-2.83,1.08-4.22a1.18,1.18,0,0,1,0-.2c.22-.89.46-1.78.68-2.68,1.45-5.69,2.85-11.21,4.19-16.49.16-.63.32-1.22.48-1.83,1.18-4.65,2.31-9.07,3.37-13.23l.44-1.78c.26-1,.51-2,.77-3h0c.23-.89.46-1.77.67-2.62.64-2.53,1.26-4.9,1.78-7.14.09-.37.19-.71.27-1.06.8-3.11,1.51-5.91,2.12-8.32.12-.42.22-.83.33-1.24.22-.89.43-1.71.62-2.47.1-.38.19-.75.29-1.09l1.31-5.15H443.6S427.73,314.89,413.14,367Z"/><path class="cls-53" d="M471.88,367h2q1.79-7,3.5-14l1.34-5.35q1.5-6.06,3-12.15a2.2,2.2,0,0,1,.13-.55c4.78-19.37,9.47-38.78,13.72-58.27l.15-.69a.09.09,0,0,0-.1-.1.1.1,0,0,0-.1.1l-.06.23c-5.35,19.1-10.36,38.36-15.16,57.61-.1.33-.18.67-.26,1-.4,1.59-.8,3.16-1.2,4.73-.55,2.24-1.12,4.46-1.68,6.72Q474.46,356.59,471.88,367Z"/><path class="cls-54" d="M445.76,260.22l9.45,47.28.42,2.12.67,3.36h0l1.07,5.35,1,5v.22l.19.9L467,366.86h15.91c.6-2.32,1.19-4.65,1.79-7,.38-1.53.77-3.07,1.17-4.59A1,1,0,0,1,486,355c.51-2,1-4,1.52-6,.06-.2.11-.4.15-.59.39-1.53.78-3.05,1.15-4.56q1.47-5.69,2.88-11.25c.35-1.41.71-2.83,1.08-4.22a1.42,1.42,0,0,1,0-.2c.22-.89.46-1.78.68-2.67,1.45-5.69,2.85-11.22,4.19-16.5l.48-1.83L501.5,294c.15-.59.29-1.18.44-1.78.26-1,.51-2,.77-3h0c.23-.89.46-1.76.67-2.62.64-2.52,1.26-4.9,1.78-7.14.09-.36.19-.71.27-1.06.8-3.11,1.51-5.9,2.12-8.31.12-.43.22-.84.33-1.24.22-.89.43-1.71.62-2.47.1-.39.19-.75.29-1.1l1.31-5.15Z"/><path class="cls-52" d="M445.75,260.2h0c0,.37.28,4.32.89,10.34a295.63,295.63,0,0,0,6.25,37.63c.73,3,1.53,6,2.41,8.92.58,2,1.23,4,1.91,5.91l.06.17,1.16.44a132.3,132.3,0,0,1,18.13,9.18v.37c.05,1.32.24,6.06.5,13,.09,2.07.17,4.33.27,6.76.16,4.24.35,9,.54,14H544.7c-.89-11.23-1.73-22.63-2.59-33.68,0,0,6.25-17.5,5.57-26.34-1.69-21.41-11.28-46.73-11.28-46.73Z"/><path class="cls-55" d="M468.55,307.2l-.08-5.35c-.05-3.27-.27-6.53-.4-9.81-.28-7.4-.61-14.82-1.24-22.2,0-.18-.31-.18-.32,0-.11,2.94-.17,5.86-.16,8.8s-.09,5.87-.08,8.79c0,5.82,0,11.6.24,17.45.08,2.24.89,6.35-2.34,6.6-2.57.2-4.06-2.5-4.51-4.65a50.16,50.16,0,0,1-.61-8.11q-.17-4.47-.19-8.86c0-6.43-.15-12.85-.32-19.27,0-.19-.29-.17-.32,0q-1.11,9.72-1.24,19.51c0,3.12,0,6.24.14,9.38.09,2.91,0,6,.94,8.84a7,7,0,0,0,4.64,4.89h.14a.25.25,0,0,0-.11.17c-.1,1-.27,2.06-.3,3.09a28.65,28.65,0,0,0,.09,3.08,20.48,20.48,0,0,0,.38,3.11,12.44,12.44,0,0,0,.36,1.46c.16.5.43.89.64,1.38a.18.18,0,0,0,.24.09.17.17,0,0,0,.11-.15h0a1.4,1.4,0,0,1,.06-.5.14.14,0,0,1,0-.09h0q0-.45.06-.9c0-.49-.06-1-.09-1.49-.08-1-.21-2-.35-3s-.2-2-.32-3-.31-2-.4-3.08a.18.18,0,0,0-.06-.09,4.58,4.58,0,0,0,4.77-2.16A7.92,7.92,0,0,0,468.55,307.2Z"/><path class="cls-55" d="M482.25,335.22a56.65,56.65,0,0,0-6.61-4.35A65.66,65.66,0,0,0,468.1,327c-5.09-2.2-10.33-3.71-15.58-5.45-.15-.05-.26.21-.11.27,5.09,2,10,4.71,14.87,7.14,2.41,1.18,4.86,2.31,7.32,3.39s4.92,2.36,7.45,3.29A.23.23,0,0,0,482.25,335.22Z"/><path class="cls-55" d="M521.92,290.91c-3.57,0-14.14.14-19.63-5-2.32-2.18-3.57-5.35-4.58-8.25a77.48,77.48,0,0,1-2.78-10c0-.17-.28-.11-.28,0a38.52,38.52,0,0,0,1.47,11.4c.89,3.13,2,6.64,4.56,8.84s6.29,3.13,9.71,3.57a44.58,44.58,0,0,0,11.54-.16.21.21,0,0,0,0-.42Z"/><path class="cls-55" d="M436.27,290.42c1.6.11,6.36.61,9.2-4.32a32.38,32.38,0,0,0,2.68-8.07c.78-3.23,1.42-6.53,2-9.9,0-.16.13-.1.12.05a84.26,84.26,0,0,1-1.51,11.3c-.62,3.1-1.41,6.55-2.72,8.67a6.54,6.54,0,0,1-4.64,3.2,9.3,9.3,0,0,1-5.19-.54C436.12,290.76,436.15,290.41,436.27,290.42Z"/><path class="cls-55" d="M526.74,265.84c.09.33,8.79,33.12,8.39,41s-5,23.95-5.07,24.09.83,14.17,2.09,36h1.69l-2.07-35.79c.19-1.18,4.67-16.41,5.06-24.17.43-8.23-8-40.25-8.43-41.61a.89.89,0,0,0-1.66.44Z"/><path class="cls-56" d="M467.48,165.24c-34.28,30.22-66.13,63.34-68.78,80.44C395,269.32,409.51,276.06,416,276.19c17.77.38,50.84-71.27,62.39-98.64C489.62,151,475,158.65,467.48,165.24Z"/><path class="cls-57" d="M444,260.2l4.78-30s-11.9-12.31-5.74-25.21c3.1-6.54,24.24-38.36,35.52-46.39,10.59-7.51,23.14-1.27,27.84,6.85,11.87,20.51,23.14,44.1,30,94.82Z"/><path class="cls-58" d="M462.88,226.27a97.13,97.13,0,0,1,14.27,2.63c2.32.65,4.59,1.39,6.85,2.19,1.13.39,2.27.75,3.41,1.11a15.68,15.68,0,0,0,3.66.76.1.1,0,0,1,.06.11.09.09,0,0,1-.06.06,26.63,26.63,0,0,1-3.57-.13,25.39,25.39,0,0,1-3.36-.71c-2.36-.63-4.68-1.36-7-2-4.73-1.32-9.47-2.68-14.28-3.62C462.58,226.62,462.66,226.24,462.88,226.27Z"/><path class="cls-59" d="M450.91,230.29a108,108,0,0,1,11.93-.33c2,.06,4,.24,6,.47.95.11,1.89.24,2.84.38s2.05.45,3.09.58c.1,0,.1.19,0,.17-1-.1-2,0-3-.08l-3-.13c-2-.09-4-.16-6-.27-4-.21-7.93-.38-11.91-.46a.17.17,0,0,1-.13-.2A.19.19,0,0,1,450.91,230.29Z"/><path class="cls-57" d="M507.56,162.3c32,25.07,63.34,68.4,63.56,92.63.23,23.91-8.1,21.59-10.47,21.41-14.45-.95-48.48-67.53-58.88-94.66C491.51,154.77,499.71,156.1,507.56,162.3Z"/><path class="cls-58" d="M541.46,257.67c-1.67-3-3.4-6-5-9l-5-9.06c-3.28-6.05-6.62-12.07-9.81-18.17s-6.49-12.13-9.63-18.25q-2.37-4.57-4.64-9.22c-1.56-3.07-3-6.2-4.46-9.33a186.23,186.23,0,0,0,7.91,19.12c2.92,6.24,6.11,12.37,9.3,18.48s6.65,12.09,10.17,18S537.48,252,541.46,257.67Z"/><path class="cls-58" d="M506.32,192.64a29.9,29.9,0,0,0-2-3.13c-.36-.49-.69-1-1.08-1.46s-.74-1-1.17-1.46a9.26,9.26,0,0,0,1.57,3.4A10.27,10.27,0,0,0,506.32,192.64Z"/><path class="cls-60" d="M408.7,210.67c1.68-11.23,5-26.89,9.08-30.13,4.27-3.4,19.71-14.76,24.15-16.24s24.25-8.77,27.85-6.64c2.88,1.71-.64,9.31-10.07,12.86-8.28,3.12-12.56,6.06-14.93,7.06s-8.29,8.73-6.75,12.21c.9,2,6.79,4.46,10.49,2.86s4.68-8.92,8.92-12.28,11.64-2.88,12.05-.89-2.05,2.91-5.92,9.67c-2.48,4.35-2.76,14.84-8.37,22.3-2.82,3.75-7.78,13.76-7.78,13.76Z"/><path class="cls-53" d="M461.4,177.32a7.3,7.3,0,0,0,3.68-1.62,2.77,2.77,0,0,0,.89-2.43,1.39,1.39,0,0,0-.34-.89c-.08,0,0-.14.07-.07a3,3,0,0,0,.34.45,2.67,2.67,0,0,1,.2.42,2.5,2.5,0,0,1,.14.9,3,3,0,0,1-.74,1.86,5,5,0,0,1-4.24,1.47C461.34,177.43,461.34,177.33,461.4,177.32Z"/><path class="cls-60" d="M417.78,180.54c3.64-5.57,12.89-15.59,22-19,6.15-2.29,27.12,8.2,26.46,12.22s-4.25,4-9.58,3.3c-1.93-.25-12.17-4-13.94-1.91-2.55,3.07-5.86,13.62-5.86,13.62Z"/><path class="cls-53" d="M465.72,172.21c-2.56-4.34-8.25-6.71-13.93-8.58a.06.06,0,0,0,0,.09s0,0,0,0c1.45.48,10.71,4.85,13.92,8.51C465.7,172.32,465.75,172.25,465.72,172.21Z"/><path class="cls-60" d="M417.78,180.54c3.64-5.57,12.89-15.59,22-19,6.15-2.29,22.69,11,22,15s-5.84,4.29-11.53,2.24c-1.83-.66-8-5.09-9.76-2.95-2.55,3.06-8.77,10.7-8.77,10.7Z"/><path class="cls-53" d="M435.3,181.85c.59-.9.79-1.19,1.39-2.06s1.21-1.73,1.86-2.54a7.86,7.86,0,0,1,1.92-2,4,4,0,0,1,2.53-.46c2,.2,3.76,1.48,5.43,2.46,1.86,1.1,5.74,2.88,8.72,2.6a5.94,5.94,0,0,0,2.37-.61,3.66,3.66,0,0,0,1.41-1.12c1.32-2.17-.26-4.7-1.9-6.49-3-3.34-7.13-5.77-11.16-7.79-1-.49-2-1-3-1.43a8.92,8.92,0,0,0-3.57-1.07c-2.06,0-5.48,2-6.54,2.68-.08,0-.15-.09-.07-.13,1.29-.79,4.46-3.34,7.81-3.14A10.49,10.49,0,0,1,446,162c1.16.51,2.3,1.06,3.43,1.64a48.61,48.61,0,0,1,6.34,3.84,19.67,19.67,0,0,1,5.15,5,5.82,5.82,0,0,1,.31,6c-.89,1.51-2.88,1.86-3.78,2a9.73,9.73,0,0,1-2.64,0,42.4,42.4,0,0,1-5.71-1.78c-1.79-.74-3.43-2-5.29-2.56a3.58,3.58,0,0,0-2.67.14,9.35,9.35,0,0,0-2,1.83,27.55,27.55,0,0,0-3.42,4C435.37,182.36,435.09,182.24,435.3,181.85Z"/><path class="cls-60" d="M415.08,185.41c1.35-2.67,3.68-13.64,5.83-17s12-14.92,16.51-14.37c5.68.69-.36,10.89-3.38,15.08s-2.6,11.38-2.6,11.38Z"/><path class="cls-53" d="M438.27,162.22c-1.07,1.32-2,2.79-3,4.22a33.65,33.65,0,0,0-2.58,4.17,14.76,14.76,0,0,0-1.16,4.67c-.08.79-.12,1.58-.14,2.37s.07,1.79,0,2.62c0,.09.15.1.15,0a37.09,37.09,0,0,1,.67-4.71,19.81,19.81,0,0,1,1.47-4.69c1.36-3,3.33-5.6,4.73-8.55C438.52,162.16,438.35,162.08,438.27,162.22Z"/><path class="cls-53" d="M431.5,181.71a16.25,16.25,0,0,0,1.38,8,28.09,28.09,0,0,0,1.78,3.71,30.17,30.17,0,0,0,2.32,3.38,31.5,31.5,0,0,1,4.07,6.68,32.35,32.35,0,0,1,2.1,7.66,21.09,21.09,0,0,0-.89-8.09,24.66,24.66,0,0,0-3.91-7.24,38.4,38.4,0,0,1-4.2-6.65A23.13,23.13,0,0,1,431.5,181.71Z"/><path class="cls-60" d="M417.69,275.37c11.09-1.5,18.35-20.05,31-52.63,2.23-5.73-26.76-40.94-30.7-35.68-5,6.61-18.35,43.47-19.75,53.52C395.47,260.35,404.73,277.12,417.69,275.37Z"/><path class="cls-57" d="M442,240.9l-35.76-34.75s-10.16,29.91-9.21,42.44,5.35,26.82,20.41,27.6C428.76,276.78,442,240.9,442,240.9Z"/><path class="cls-58" d="M434.31,247c-1.73-1.91-3.64-3.68-5.47-5.47s-3.71-3.57-5.61-5.35q-5.64-5.28-11.39-10.46l-3.16-2.81c-1.15-1-2.41-1.84-3.57-2.84a.1.1,0,0,0-.13.05.09.09,0,0,0,0,.1c.89.89,1.71,1.88,2.6,2.78s1.87,1.85,2.83,2.76Q413.2,228.4,416,231c3.77,3.51,7.55,7,11.43,10.41,2.2,1.92,4.35,3.92,6.65,5.71a.14.14,0,0,0,.2,0,.13.13,0,0,0,0-.19Z"/><path class="cls-4" d="M430.45,265c1.29-1.83,2.45-3.74,3.57-5.67s2.16-3.9,3.17-5.89,1.93-4,2.75-6.11A37.74,37.74,0,0,0,442,240.9c-.94,2-1.94,4-2.95,6l-3,5.94c-1,2-2,4-2.89,6S431.29,262.87,430.45,265Z"/><path class="cls-60" d="M498.12,159.54c-.26,1.79-7.8,14.37-17.79,13.76-5.77-.38-1.85-12-1.85-12l-5-15.85,19.15-14.63S498.21,158.77,498.12,159.54Z"/><path class="cls-61" d="M494.66,141.31a31.66,31.66,0,0,1-16.46,19.17l-4.75-14.95,19.16-14.64S493.54,135.59,494.66,141.31Z"/><path class="cls-60" d="M450.88,123.28c-.57,27.21,15.67,30.63,21.54,30.74,5.35.11,23.47-.21,26.86-27.23S490.18,90.92,478,90,451.44,96.06,450.88,123.28Z"/><path class="cls-53" d="M457.26,121.09a18.1,18.1,0,0,0,1.78-.51,3.12,3.12,0,0,0,1.79-.89,1,1,0,0,0-.09-1.18,2.43,2.43,0,0,0-2.4-.39,3.63,3.63,0,0,0-2.13,1.41,1.05,1.05,0,0,0,.35,1.43A1.07,1.07,0,0,0,457.26,121.09Z"/><path class="cls-53" d="M475.91,120.29a16.64,16.64,0,0,1-1.86-.26,3,3,0,0,1-1.86-.61,1,1,0,0,1-.09-1.18,2.38,2.38,0,0,1,2.32-.73,3.42,3.42,0,0,1,2.3,1.08,1,1,0,0,1-.12,1.46A1,1,0,0,1,475.91,120.29Z"/><path class="cls-53" d="M472.54,127.43c0-.07.14.08.15.16,0,1.85.39,4,2.09,4.46.05,0,.05.11,0,.11C472.71,132,472.27,129.21,472.54,127.43Z"/><path class="cls-53" d="M474.09,125.39c3-.38,3.51,5.59.76,5.94S471.6,125.71,474.09,125.39Z"/><path class="cls-53" d="M475.29,125.64a5,5,0,0,0,1.78.9c.67,0,1.23-.67,1.65-1.32,0-.06.1,0,.11.07.12,1.14-.21,2.34-1.43,2.63s-2-.69-2.38-1.79C474.91,125.81,475.06,125.48,475.29,125.64Z"/><path class="cls-53" d="M461.34,127.6c0-.07-.13.1-.12.18.24,1.83.2,4-1.41,4.76,0,0,0,.12,0,.1C461.85,132.16,461.87,129.3,461.34,127.6Z"/><path class="cls-53" d="M459.51,125.83c-3,.07-2.68,6,.13,6S462,125.78,459.51,125.83Z"/><path class="cls-53" d="M458.28,126.3c-.45.34-.89,1-1.44,1s-1.18-.54-1.63-1.13c0-.06-.09,0-.09.07,0,1.14.49,2.31,1.59,2.46s1.7-.89,1.9-2C458.65,126.47,458.5,126.16,458.28,126.3Z"/><path class="cls-53" d="M472.57,141.65c-.39.49-.74,1.14-1.4,1.28a5,5,0,0,1-2-.18c-.06,0-.11.05-.07.09a2.5,2.5,0,0,0,2.47.69,2,2,0,0,0,1.24-1.83C472.77,141.59,472.62,141.58,472.57,141.65Z"/><path class="cls-50" d="M498.64,126.17c-6.7.89-12.09-19.25-12.73-21.73.31,1.59,2,10,1.39,10.42a6.47,6.47,0,0,1-2.15,0h0a21.52,21.52,0,0,0-.75-3c-.14-.46,0,1,0,2.91-.4,0-.82-.1-1.29-.14a24.74,24.74,0,0,0-1.72-6.3c-.33-.75.06,2.86-.17,6.12a81.3,81.3,0,0,0-18-.13c-1.68.22-3.1.48-4.36.76-.43-2.48-.59-5.18-.68-4.58a24.79,24.79,0,0,0-.26,4.79c-.68.16-1.3.31-1.86.47-.77-3.48-.05-9.38-.47-8.42a25,25,0,0,0-1.92,9.23c-2.32.89-2.9,1.44-3.08.84-.3-1.11-.6-11.17,5.84-19.68,7-9.24,23.27-14,34.67-3.57,0,0,8.56,3.73,11.15,11.6S502.52,125.64,498.64,126.17Z"/><path class="cls-60" d="M494.65,126.94s5.36-8.87,9.36-7,.34,14.45-4.07,16.43a4.59,4.59,0,0,1-6.22-1.9l-.09-.17Z"/><path class="cls-53" d="M502.88,123.51a.06.06,0,0,1,0,.08s0,0,0,0c-3.09,1.5-4.56,4.54-5.53,7.66.89-1.23,2.1-2,3.75-.94.08.05,0,.18-.08.17a2.83,2.83,0,0,0-3,1.19,14.25,14.25,0,0,0-1.33,2.61c-.12.3-.65.18-.56-.15a.11.11,0,0,0,0-.08C495.81,130.1,498.57,124.21,502.88,123.51Z"/><path class="cls-60" d="M564,276.32c-10.71,1.47-24-6.84-58.59-32.07-4.78-3.49,10.78-43.88,16.06-40.41,6.67,4.37,31.63,22.75,33.28,24.33C568.71,241.45,571.22,275.32,564,276.32Z"/><path class="cls-53" d="M489,196.73c-3.28-.06-6.59-.13-9.82.1s-6.53.59-9.76,1.13a55.92,55.92,0,0,0-12.37,3.29c7.28-2.26,19-3.28,22.22-3.53s6.52-.63,9.82-.89C489.11,196.85,489.1,196.73,489,196.73Z"/><path class="cls-53" d="M520.19,260.2c-.24.46-.23.07-.17-.22a43.32,43.32,0,0,1,1.14-4.19c.05-.15.28-.42.19.13A43,43,0,0,1,520.19,260.2Z"/><path class="cls-53" d="M465.48,135.5s-.87,2.55-1.11,3.76a6.76,6.76,0,0,0,6.86-.76c.12-.09,0-.25-.15-.2a9.06,9.06,0,0,1-5.65.51c0-.36,1.64-4.32,1.45-4.37a11.06,11.06,0,0,0-2.93.09c1.66-5.37,4.17-10.43,5.74-15.8a.16.16,0,0,0-.12-.2.17.17,0,0,0-.19.06c-3,5.12-5.05,11.28-6.91,16.75C462.22,136.05,465,135.61,465.48,135.5Z"/><path class="cls-53" d="M466.08,139.48a6.51,6.51,0,0,0,2.22,2.44,3,3,0,0,0,1.73.42c1.33-.11,1.56-1.27,1.5-2.31a6.43,6.43,0,0,0-.3-1.62A8.35,8.35,0,0,1,466.08,139.48Z"/><ellipse class="cls-6" cx="489.11" cy="460.24" rx="57.81" ry="10.89"/><path class="cls-62" d="M468.3,141.92a3,3,0,0,0,1.73.42c1.33-.11,1.56-1.27,1.5-2.31A3,3,0,0,0,468.3,141.92Z"/><path class="cls-4" d="M402.3,418.59c23.31,28.18,59.23,45.58,96.73,41.07,28.85-3.47,55-19.51,72.23-42.8l.51-.7c36.15-49.39,23.65-114-24.39-149.17s-114-26.73-149.58,21.88c-17.42,23.8-26.26,55.39-18.77,84.48A117,117,0,0,0,402.3,418.59Z"/><path class="cls-58" d="M408.91,357.3c-4.42-1.33-5.31-6.64-1.05-8.45l111.51-48.06c8.66-3.76,14.8.9,13.88,7.12q-6.62,44.89-13.24,89.8a11,11,0,0,1-17.14,7.52l-39.34-27.56a7.07,7.07,0,0,1-.9-10.78l38.11-37.82a1.74,1.74,0,0,0-2.18-2.7l-49,33.89a23.43,23.43,0,0,1-20.07,3.19Z"/><path class="cls-63" d="M507.24,248.38s12.21,29.77,52,28.6Z"/><path class="cls-63" d="M462.68,247.39s-10.15,19.5-11.43,20.64-16.16-11.4-16.16-11.4l14.45,5.55Z"/><polyline class="cls-60" points="510.51 250.95 520.19 260.2 524.22 245.5 505.19 246.74"/><path class="cls-7" d="M441.74,261l-27.88-18.36c-9-6.47-7.9-5.49-3-13.58l39.52-60c.81-1.23,1.58-2.5,2.44-3.7a11,11,0,0,1,1.83-2.13,3,3,0,0,1,3.43-.29,22.77,22.77,0,0,1,2.39,1.38c1.71,1.08,3.48,2.07,5.17,3.18l3.41,2.25,4.6,3,5.15,3.39,5.05,3.32,4.29,2.83,2.9,1.91.89.58c.22.14.41.32.63.45,9.51,5.6,4.94,7.87,2.36,13.13l-39.52,60c-5.21,7.92-3.76,8.43-13,3C442.19,261.29,442,261.16,441.74,261Z"/><path class="cls-9" d="M428.69,233.39,421,228.21a1.6,1.6,0,0,1-.42-2.23l4.11-6.12.3-.44.82-1.23a1.61,1.61,0,0,1,2.23-.45L432,220.4l.44.3,2,1.33.44.29.88.59a1.61,1.61,0,0,1,.42,2.24l-.59.88-.3.45-1.81,2.68-.3.45-1.46,2.18-.3.44h0l-.48.71A1.6,1.6,0,0,1,428.69,233.39Z"/><path class="cls-64" d="M420.52,226h0l5.24-7.8a1.69,1.69,0,0,1,1.07-.71,1.6,1.6,0,0,1,1.24.25l7.69,5.17a1.67,1.67,0,0,1,.44,2.31h0L431,233a1.66,1.66,0,0,1-1.07.72,1.59,1.59,0,0,1-1.24-.25L421,228.27A1.69,1.69,0,0,1,420.52,226Zm15.59-.86a1.55,1.55,0,0,0-.42-2.13L428,217.79a1.46,1.46,0,0,0-1.15-.22,1.52,1.52,0,0,0-1,.66L420.64,226h0a1.56,1.56,0,0,0,.41,2.13l7.69,5.18a1.54,1.54,0,0,0,2.13-.44l5.24-7.79Z"/><path class="cls-65" d="M429.38,224.3l.05-.08L432,220.4l.44.3-2.57,3.81a1.9,1.9,0,0,0-.28,1.39,1.78,1.78,0,0,0,.77,1.17l3.09,2.09-.3.45-3.09-2.09a2.32,2.32,0,0,1-1-1.51A2.38,2.38,0,0,1,429.38,224.3Z"/><path class="cls-65" d="M431.39,232.23l-4.75-3.2a2.79,2.79,0,0,1-1.19-1.81,2.89,2.89,0,0,1,.44-2.14L427,223.4a1.66,1.66,0,0,0,.25-1.23,1.59,1.59,0,0,0-.68-1l-1.89-1.28.3-.44,1.89,1.27a2.12,2.12,0,0,1,.91,1.38,2.24,2.24,0,0,1-.34,1.63l-1.13,1.67a2.4,2.4,0,0,0-.36,1.75,2.29,2.29,0,0,0,1,1.47l4.75,3.2Z"/><path class="cls-65" d="M435.26,226.48l-1.22-.82a1.72,1.72,0,0,1-.49-2.34l0-.06.82-1.23.44.29-.82,1.24a1.19,1.19,0,0,0,.31,1.65l1.22.82Z"/><rect class="cls-50" x="438.91" y="220.41" width="61.16" height="6.76" rx="0.16" transform="translate(914.59 -45.25) rotate(123.36)"/><path class="cls-9" d="M476.1,201a2.39,2.39,0,0,0,.59.28,1.21,1.21,0,0,0,.49,0,.86.86,0,0,0,.41-.16,1.31,1.31,0,0,0,.5-.77.94.94,0,0,0,0-.44,1.2,1.2,0,0,0-.25-.43,2.45,2.45,0,0,0-.5-.42l-.48-.31a2.08,2.08,0,0,0-.59-.28,1.27,1.27,0,0,0-.5-.05,1,1,0,0,0-.41.16,1.27,1.27,0,0,0-.31.34,1.2,1.2,0,0,0-.18.43.82.82,0,0,0,0,.44,1,1,0,0,0,.25.43,1.89,1.89,0,0,0,.49.42Zm-.5-1.15a.83.83,0,0,1-.16-.21.36.36,0,0,1,0-.2.52.52,0,0,1,.08-.19.32.32,0,0,1,.14-.14.38.38,0,0,1,.19-.05.69.69,0,0,1,.26.06,1.84,1.84,0,0,1,.33.18l.64.41a1.65,1.65,0,0,1,.3.23.73.73,0,0,1,.16.21.32.32,0,0,1,0,.19.49.49,0,0,1-.07.19.47.47,0,0,1-.14.14.33.33,0,0,1-.2,0,.85.85,0,0,1-.25,0,1.84,1.84,0,0,1-.33-.18l-.64-.41A1.65,1.65,0,0,1,475.6,199.89Z"/><path class="cls-9" d="M474.64,203.3a2.39,2.39,0,0,0,.59.28,1.21,1.21,0,0,0,.49,0,.82.82,0,0,0,.41-.16,1.16,1.16,0,0,0,.32-.34,1.23,1.23,0,0,0,.18-.43.94.94,0,0,0,0-.44,1.37,1.37,0,0,0-.25-.43,2.45,2.45,0,0,0-.5-.42l-.48-.31a2.08,2.08,0,0,0-.59-.28,1.27,1.27,0,0,0-.5-.05,1,1,0,0,0-.41.16,1.18,1.18,0,0,0-.31.35,1.23,1.23,0,0,0-.18.43.79.79,0,0,0,0,.43,1.1,1.1,0,0,0,.25.44,2.08,2.08,0,0,0,.49.41Zm-.5-1.15a.59.59,0,0,1-.16-.21.33.33,0,0,1,0-.38.41.41,0,0,1,.14-.15.38.38,0,0,1,.19,0,.73.73,0,0,1,.26.06,1.84,1.84,0,0,1,.33.18l.64.41a1.65,1.65,0,0,1,.3.23.73.73,0,0,1,.16.21.33.33,0,0,1,0,.19.44.44,0,0,1-.07.19.47.47,0,0,1-.14.14.33.33,0,0,1-.2.05.65.65,0,0,1-.25-.05,1.84,1.84,0,0,1-.33-.18l-.64-.41A1.65,1.65,0,0,1,474.14,202.15Z"/><path class="cls-9" d="M473.18,205.56a2.08,2.08,0,0,0,.59.28,1.22,1.22,0,0,0,.49,0,.94.94,0,0,0,.41-.17,1.16,1.16,0,0,0,.32-.34,1.23,1.23,0,0,0,.18-.43.9.9,0,0,0,0-.43,1.24,1.24,0,0,0-.25-.44,2.15,2.15,0,0,0-.5-.41l-.48-.32a2.39,2.39,0,0,0-.59-.28,1.27,1.27,0,0,0-.5,0h-.06a1,1,0,0,0-.35.16,1.14,1.14,0,0,0-.31.34,1.23,1.23,0,0,0-.18.43.79.79,0,0,0,0,.43,1.24,1.24,0,0,0,.25.44,2.15,2.15,0,0,0,.41.36l.08.06Zm-.49-1.14h0a.59.59,0,0,1-.16-.21.34.34,0,0,1,0-.19.46.46,0,0,1,.08-.19.5.5,0,0,1,.14-.15l.05,0a.32.32,0,0,1,.14,0,1,1,0,0,1,.26.06,2.3,2.3,0,0,1,.34.18l.63.41a1.65,1.65,0,0,1,.3.23.73.73,0,0,1,.16.21.33.33,0,0,1,0,.19.44.44,0,0,1-.07.19.47.47,0,0,1-.14.14.33.33,0,0,1-.19.06.69.69,0,0,1-.26-.06,1.84,1.84,0,0,1-.33-.18l-.64-.41a1.82,1.82,0,0,1-.29-.22Z"/><path class="cls-9" d="M471.72,207.82a2.6,2.6,0,0,0,.43.23l.16,0a1.22,1.22,0,0,0,.49.05.93.93,0,0,0,.41-.16,1.21,1.21,0,0,0,.32-.35,1.23,1.23,0,0,0,.18-.43.9.9,0,0,0,0-.43,1.12,1.12,0,0,0-.25-.43,2,2,0,0,0-.5-.42l-.39-.25-.09-.07a2.39,2.39,0,0,0-.59-.28,1.25,1.25,0,0,0-.5,0,.9.9,0,0,0-.41.16,1.14,1.14,0,0,0-.31.34,1.23,1.23,0,0,0-.18.43.82.82,0,0,0,0,.44,1.2,1.2,0,0,0,.25.43,2.37,2.37,0,0,0,.49.42Zm-.5-1.15a.73.73,0,0,1-.16-.21.43.43,0,0,1,0-.19.46.46,0,0,1,.08-.19.38.38,0,0,1,.14-.14.3.3,0,0,1,.19-.05.91.91,0,0,1,.26.05,1.84,1.84,0,0,1,.33.18l.43.28.21.13a2.28,2.28,0,0,1,.3.23.9.9,0,0,1,.16.21.35.35,0,0,1,0,.2.45.45,0,0,1-.07.18.51.51,0,0,1-.14.15.42.42,0,0,1-.2.05.69.69,0,0,1-.25-.06l-.21-.1h0l-.12-.07-.64-.42A1.56,1.56,0,0,1,471.22,206.67Z"/><path class="cls-9" d="M468.85,212.17a2.21,2.21,0,0,0,.59.28,1.27,1.27,0,0,0,.5.05.92.92,0,0,0,.41-.17,1.14,1.14,0,0,0,.31-.34,1.23,1.23,0,0,0,.18-.43.79.79,0,0,0,0-.43,1.2,1.2,0,0,0-.24-.44,2.39,2.39,0,0,0-.5-.41l-.49-.32a2.39,2.39,0,0,0-.59-.28,1.21,1.21,0,0,0-.49,0,.82.82,0,0,0-.41.16,1.16,1.16,0,0,0-.32.34,1.23,1.23,0,0,0-.18.43.9.9,0,0,0,0,.43,1.31,1.31,0,0,0,.25.44,2.45,2.45,0,0,0,.5.42Zm-.5-1.15a1,1,0,0,1-.16-.21.33.33,0,0,1,0-.19.34.34,0,0,1,.07-.19.67.67,0,0,1,.14-.15.41.41,0,0,1,.19-.05l.26.06a2.3,2.3,0,0,1,.34.18l.64.41a2,2,0,0,1,.29.23.59.59,0,0,1,.16.21.33.33,0,0,1,0,.19.34.34,0,0,1-.07.19.47.47,0,0,1-.14.14.31.31,0,0,1-.19.06.69.69,0,0,1-.26-.06,2.64,2.64,0,0,1-.33-.17l-.64-.42A2.89,2.89,0,0,1,468.35,211Z"/><path class="cls-9" d="M467.4,214.43a2,2,0,0,0,.58.28,1.27,1.27,0,0,0,.5,0,1,1,0,0,0,.41-.16,1.18,1.18,0,0,0,.31-.35,1.27,1.27,0,0,0,.18-.42.82.82,0,0,0,0-.44,1.09,1.09,0,0,0-.24-.43,2.13,2.13,0,0,0-.5-.42l-.49-.32a2.24,2.24,0,0,0-.59-.28,1.21,1.21,0,0,0-.49,0,.82.82,0,0,0-.41.16,1.16,1.16,0,0,0-.32.34,1.32,1.32,0,0,0-.18.43.94.94,0,0,0,0,.44,1.37,1.37,0,0,0,.25.43,2.45,2.45,0,0,0,.5.42Zm-.51-1.15a.73.73,0,0,1-.16-.21.32.32,0,0,1,0-.19.44.44,0,0,1,.07-.19.47.47,0,0,1,.14-.14.32.32,0,0,1,.19-.05.85.85,0,0,1,.26.05,2.3,2.3,0,0,1,.34.18l.64.42a2,2,0,0,1,.29.22.83.83,0,0,1,.16.21.35.35,0,0,1,0,.2.34.34,0,0,1-.07.18.41.41,0,0,1-.14.15.38.38,0,0,1-.19,0,.69.69,0,0,1-.26-.06,1.74,1.74,0,0,1-.33-.17l-.64-.42A2,2,0,0,1,466.89,213.28Z"/><path class="cls-9" d="M465.94,216.69a2,2,0,0,0,.58.28,1.27,1.27,0,0,0,.5.05,1,1,0,0,0,.41-.16,1.27,1.27,0,0,0,.31-.34,1.32,1.32,0,0,0,.18-.43.82.82,0,0,0,0-.44,1.09,1.09,0,0,0-.24-.43,2.76,2.76,0,0,0-.5-.42l-.49-.31a2.08,2.08,0,0,0-.59-.28,1.07,1.07,0,0,0-.49-.05.82.82,0,0,0-.41.16,1.31,1.31,0,0,0-.5.77.94.94,0,0,0,0,.44,1.37,1.37,0,0,0,.25.43,2.45,2.45,0,0,0,.5.42Zm-.51-1.14a2,2,0,0,1-.16-.21.36.36,0,0,1,0-.2.49.49,0,0,1,.07-.19.47.47,0,0,1,.14-.14.33.33,0,0,1,.2-.05.65.65,0,0,1,.25.06,1.53,1.53,0,0,1,.34.17l.64.42a2,2,0,0,1,.3.23.8.8,0,0,1,.15.2.51.51,0,0,1,0,.2.6.6,0,0,1-.08.19.38.38,0,0,1-.14.14.38.38,0,0,1-.19,0,.69.69,0,0,1-.26-.06,1.74,1.74,0,0,1-.33-.17l-.64-.41Z"/><path class="cls-9" d="M464.48,219a2.76,2.76,0,0,0,.58.28,1.25,1.25,0,0,0,.5,0,.86.86,0,0,0,.41-.16,1.27,1.27,0,0,0,.31-.34,1.13,1.13,0,0,0,.18-.43.75.75,0,0,0,0-.21.66.66,0,0,0,0-.23,1.17,1.17,0,0,0-.24-.43,2.76,2.76,0,0,0-.5-.42l-.49-.31a2,2,0,0,0-.58-.28,1.29,1.29,0,0,0-.5-.05.86.86,0,0,0-.41.16.69.69,0,0,0-.13.11,1.45,1.45,0,0,0-.19.23,1.32,1.32,0,0,0-.18.43.94.94,0,0,0,0,.44,1.27,1.27,0,0,0,.25.43,2,2,0,0,0,.5.42Zm-.51-1.15a2,2,0,0,1-.16-.21.36.36,0,0,1,0-.2.49.49,0,0,1,.07-.19.47.47,0,0,1,.14-.14l0,0a.38.38,0,0,1,.16,0,.65.65,0,0,1,.25.06,2.3,2.3,0,0,1,.34.18l.64.41a2,2,0,0,1,.3.23l0,0a.44.44,0,0,1,.12.17.32.32,0,0,1,0,.19.37.37,0,0,1-.07.19.38.38,0,0,1-.14.14.38.38,0,0,1-.19.05.91.91,0,0,1-.26-.05l-.33-.18-.64-.41A2.89,2.89,0,0,1,464,217.81Z"/><path class="cls-9" d="M461.81,223a2.6,2.6,0,0,0,.59.28,1.21,1.21,0,0,0,.49,0,.86.86,0,0,0,.41-.16,1.31,1.31,0,0,0,.5-.77.94.94,0,0,0,0-.44,1.37,1.37,0,0,0-.25-.43,2.45,2.45,0,0,0-.5-.42l-.49-.31a2,2,0,0,0-.58-.28,1.27,1.27,0,0,0-.5-.05.86.86,0,0,0-.41.16,1.5,1.5,0,0,0-.32.34,1.32,1.32,0,0,0-.18.43.94.94,0,0,0,0,.44,1.09,1.09,0,0,0,.24.43,2.13,2.13,0,0,0,.5.42Zm-.5-1.15a.83.83,0,0,1-.16-.21.38.38,0,0,1,0-.2.49.49,0,0,1,.07-.19.4.4,0,0,1,.15-.14.36.36,0,0,1,.19-.05.73.73,0,0,1,.26.06,1.37,1.37,0,0,1,.33.18l.64.41a1.56,1.56,0,0,1,.3.23.8.8,0,0,1,.15.2.3.3,0,0,1,0,.2.49.49,0,0,1-.07.19.47.47,0,0,1-.14.14.42.42,0,0,1-.2,0,.85.85,0,0,1-.25,0,1.84,1.84,0,0,1-.33-.18l-.64-.41A1.65,1.65,0,0,1,461.31,221.86Z"/><path class="cls-9" d="M460.35,225.27a2.39,2.39,0,0,0,.59.28,1.21,1.21,0,0,0,.49,0,.86.86,0,0,0,.41-.16,1.3,1.3,0,0,0,.32-.34,1.23,1.23,0,0,0,.18-.43.94.94,0,0,0,0-.44,1.37,1.37,0,0,0-.25-.43,2.45,2.45,0,0,0-.5-.42l-.48-.31a2.08,2.08,0,0,0-.59-.28,1.27,1.27,0,0,0-.5-.05,1,1,0,0,0-.41.16,1.27,1.27,0,0,0-.31.34,1,1,0,0,0-.18.43.82.82,0,0,0,0,.44,1.09,1.09,0,0,0,.24.43,2.13,2.13,0,0,0,.5.42Zm-.5-1.15a.59.59,0,0,1-.16-.21.29.29,0,0,1,0-.2.56.56,0,0,1,.07-.19.62.62,0,0,1,.14-.14.42.42,0,0,1,.2,0,.73.73,0,0,1,.26.06,1.84,1.84,0,0,1,.33.18l.64.41a1.65,1.65,0,0,1,.3.23,1,1,0,0,1,.16.21.32.32,0,0,1,0,.19.44.44,0,0,1-.07.19.47.47,0,0,1-.14.14.33.33,0,0,1-.2.05.62.62,0,0,1-.25-.05,1.84,1.84,0,0,1-.33-.18l-.64-.41A1.65,1.65,0,0,1,459.85,224.12Z"/><path class="cls-9" d="M458.89,227.53a2.39,2.39,0,0,0,.59.28,1.21,1.21,0,0,0,.49,0,.86.86,0,0,0,.41-.16,1.16,1.16,0,0,0,.32-.34,1.23,1.23,0,0,0,.18-.43.9.9,0,0,0,0-.43,1.41,1.41,0,0,0-.25-.44,2.45,2.45,0,0,0-.5-.42l-.48-.31A2.08,2.08,0,0,0,459,225a1.27,1.27,0,0,0-.5,0,1,1,0,0,0-.41.16,1.18,1.18,0,0,0-.31.35,1.09,1.09,0,0,0-.19.43.9.9,0,0,0,0,.43,1.1,1.1,0,0,0,.25.44,2.08,2.08,0,0,0,.49.41Zm-.5-1.15a.59.59,0,0,1-.16-.21.36.36,0,0,1,0-.2.45.45,0,0,1,.07-.18.43.43,0,0,1,.15-.15.38.38,0,0,1,.19,0,.73.73,0,0,1,.26.06,1.84,1.84,0,0,1,.33.18l.64.41a1.65,1.65,0,0,1,.3.23,1,1,0,0,1,.16.21.33.33,0,0,1,0,.19.44.44,0,0,1-.07.19.47.47,0,0,1-.14.14.33.33,0,0,1-.2.05.49.49,0,0,1-.25-.05,1.84,1.84,0,0,1-.33-.18l-.64-.41A1.65,1.65,0,0,1,458.39,226.38Z"/><path class="cls-9" d="M457.43,229.79a2.08,2.08,0,0,0,.59.28,1.22,1.22,0,0,0,.49.05.88.88,0,0,0,.41-.17,1.16,1.16,0,0,0,.32-.34,1.23,1.23,0,0,0,.18-.43.9.9,0,0,0,0-.43,1.41,1.41,0,0,0-.25-.44,2.15,2.15,0,0,0-.5-.41l-.48-.32a2.39,2.39,0,0,0-.59-.28,1.1,1.1,0,0,0-.5,0,.86.86,0,0,0-.41.16,1.14,1.14,0,0,0-.31.34,1.07,1.07,0,0,0-.18.43.83.83,0,0,0,0,.44,1.14,1.14,0,0,0,.25.43,2.37,2.37,0,0,0,.49.42Zm-.5-1.15a.59.59,0,0,1-.16-.21.34.34,0,0,1,0-.19.44.44,0,0,1,.07-.19.54.54,0,0,1,.15-.15.3.3,0,0,1,.19,0,1,1,0,0,1,.26,0,1.84,1.84,0,0,1,.33.18l.64.41a1.65,1.65,0,0,1,.3.23.73.73,0,0,1,.16.21.33.33,0,0,1,0,.19.44.44,0,0,1-.07.19.67.67,0,0,1-.14.15.42.42,0,0,1-.2.05.65.65,0,0,1-.25-.06,1.37,1.37,0,0,1-.33-.18l-.64-.41A1.3,1.3,0,0,1,456.93,228.64Z"/><path class="cls-9" d="M454.62,234.14a2.15,2.15,0,0,0,.53.26h0l.06,0a1.22,1.22,0,0,0,.49.05,1,1,0,0,0,.41-.16,1.35,1.35,0,0,0,.32-.35,1.23,1.23,0,0,0,.18-.43.9.9,0,0,0,0-.43,1.27,1.27,0,0,0-.25-.43l-.06-.07a2.33,2.33,0,0,0-.44-.35l-.48-.32a2.57,2.57,0,0,0-.59-.28,1.25,1.25,0,0,0-.5,0,.86.86,0,0,0-.41.16,1.14,1.14,0,0,0-.31.34,1.09,1.09,0,0,0-.19.43,1,1,0,0,0,0,.44,1.07,1.07,0,0,0,.25.43,2.37,2.37,0,0,0,.49.42Zm-.5-1.15a.59.59,0,0,1-.16-.21.33.33,0,0,1,0-.19.44.44,0,0,1,.07-.19.4.4,0,0,1,.15-.14.24.24,0,0,1,.19,0,1,1,0,0,1,.26,0,1.84,1.84,0,0,1,.33.18l.64.41a1.65,1.65,0,0,1,.3.23,1,1,0,0,1,.16.21.35.35,0,0,1,0,.2v0a.35.35,0,0,1-.06.14.27.27,0,0,1-.07.08h0l-.07.06a.42.42,0,0,1-.2.05.65.65,0,0,1-.25-.06,1.74,1.74,0,0,1-.33-.17l-.64-.42A1.65,1.65,0,0,1,454.12,233Z"/><path class="cls-9" d="M453.16,236.4a2.08,2.08,0,0,0,.59.28,1.22,1.22,0,0,0,.49,0,1,1,0,0,0,.41-.16,1.3,1.3,0,0,0,.32-.34,1.41,1.41,0,0,0,.18-.43.94.94,0,0,0,0-.44,1.67,1.67,0,0,0-.08-.2,2.05,2.05,0,0,0-.4-.46,1.85,1.85,0,0,0-.27-.19l-.48-.32a2.57,2.57,0,0,0-.59-.28,1.25,1.25,0,0,0-.5,0,.86.86,0,0,0-.41.16,1.27,1.27,0,0,0-.31.34,1.07,1.07,0,0,0-.18.43.82.82,0,0,0,0,.44,1.07,1.07,0,0,0,.25.43,2.37,2.37,0,0,0,.49.42Zm-.5-1.15a.59.59,0,0,1-.16-.21.33.33,0,0,1,0-.19.36.36,0,0,1,.08-.19.32.32,0,0,1,.14-.14.3.3,0,0,1,.19-.05.91.91,0,0,1,.26.05,1.84,1.84,0,0,1,.33.18l.64.42a1.67,1.67,0,0,1,.3.22,1.17,1.17,0,0,1,.16.21.35.35,0,0,1,0,.2.45.45,0,0,1-.07.18.51.51,0,0,1-.14.15.42.42,0,0,1-.2,0,.65.65,0,0,1-.25-.06,1.3,1.3,0,0,1-.33-.17l-.64-.41A1.65,1.65,0,0,1,452.66,235.25Z"/><path class="cls-9" d="M451.7,238.66a2.08,2.08,0,0,0,.59.28,1.07,1.07,0,0,0,.49.05.82.82,0,0,0,.41-.16,1.31,1.31,0,0,0,.5-.77.94.94,0,0,0,0-.44,1.37,1.37,0,0,0-.25-.43,2.45,2.45,0,0,0-.5-.42l-.48-.31a2.08,2.08,0,0,0-.59-.28,1.11,1.11,0,0,0-.5-.05.86.86,0,0,0-.41.16,1.27,1.27,0,0,0-.31.34,1.32,1.32,0,0,0-.18.43.82.82,0,0,0,0,.44,1,1,0,0,0,.25.43,2.37,2.37,0,0,0,.49.42Zm-.5-1.14a.83.83,0,0,1-.16-.21.38.38,0,0,1,0-.2.73.73,0,0,1,.07-.19.4.4,0,0,1,.15-.14.3.3,0,0,1,.19-.05.73.73,0,0,1,.26.06,1.09,1.09,0,0,1,.33.18l.64.41a1.3,1.3,0,0,1,.3.23.87.87,0,0,1,.16.2.36.36,0,0,1,0,.2.56.56,0,0,1-.07.19.62.62,0,0,1-.14.14.42.42,0,0,1-.2,0,.92.92,0,0,1-.25,0,1.84,1.84,0,0,1-.33-.18l-.64-.41A1.65,1.65,0,0,1,451.2,237.52Z"/><path class="cls-9" d="M450.24,240.93a2.82,2.82,0,0,0,.59.28,1.21,1.21,0,0,0,.49,0,.82.82,0,0,0,.41-.16,1.31,1.31,0,0,0,.5-.77.94.94,0,0,0,0-.44,1.37,1.37,0,0,0-.25-.43,2.45,2.45,0,0,0-.5-.42l-.48-.31a2.08,2.08,0,0,0-.59-.28,1.27,1.27,0,0,0-.5-.05,1,1,0,0,0-.41.16,1.27,1.27,0,0,0-.31.34,1.32,1.32,0,0,0-.18.43.82.82,0,0,0,0,.44,1.12,1.12,0,0,0,.25.43,1.89,1.89,0,0,0,.49.42Zm-.5-1.15a.83.83,0,0,1-.16-.21.38.38,0,0,1,0-.2.6.6,0,0,1,.08-.19.38.38,0,0,1,.14-.14.38.38,0,0,1,.19,0,.69.69,0,0,1,.26.06,1.84,1.84,0,0,1,.33.18l.64.41a1.65,1.65,0,0,1,.3.23.73.73,0,0,1,.16.21.32.32,0,0,1,0,.19.49.49,0,0,1-.07.19.47.47,0,0,1-.14.14.33.33,0,0,1-.2.05.65.65,0,0,1-.25-.05,1.84,1.84,0,0,1-.33-.18L450,240A1.65,1.65,0,0,1,449.74,239.78Z"/><path class="cls-60" d="M533.81,216.05s-9.81-13.81-17.26-19.47c-9.94-7.57-21.64-10-26.6-10.76-10.35-1.52-36.46,2-36.77,9.65-.28,7,26.22,2.07,26.22,2.07s-27.84.53-26.65,9,31.62,1,31.62,1-28.6,1.19-26,9.7c2,6.44,29.93,1.25,29.93,1.25s-24.57,1.2-22.82,7.91c1.94,7.4,28,4.23,28,4.23,3.4,7.59,7.5,12.63,11.67,16.12l.76.61A41.06,41.06,0,0,0,519,254C520.84,254.66,533.81,216.05,533.81,216.05Z"/><path class="cls-53" d="M490.09,208.51c-4.19.12-8.34.07-12.49.37s-8.08.93-12.21,1.51c-.31.05-.18.2.14.16,4.15-.41,8-.47,12.17-.84s8.28-.89,12.43-1.1C490.16,208.61,490.15,208.51,490.09,208.51Z"/><path class="cls-53" d="M494.36,196c-4.19.12-8.34.07-12.49.37s-8.07.93-12.21,1.51c-.31.05-.18.2.14.16,4.15-.41,8-.47,12.17-.83s8.28-.9,12.43-1.11C494.43,196.11,494.42,196,494.36,196Z"/><path class="cls-53" d="M492.82,218.42c-6.41-.16-12.82.89-19.1,2-.31.06-.13.24.19.2,6.35-.79,11.31-1.45,18.9-2C492.93,218.67,493,218.42,492.82,218.42Z"/><path class="cls-57" d="M533.81,210.56,520.19,260.2s36.57,21.51,44.6,15.82,2.8-34.35-6.38-45.28C554.65,226.18,533.81,210.56,533.81,210.56Z"/><path class="cls-58" d="M541.81,222.88c-.83,2.44-1.46,5-2.15,7.43s-1.36,5-2,7.49c-1.27,5-2.51,10-3.67,15-.33,1.37-.65,2.75-.9,4.13s-.45,3-.78,4.46a.09.09,0,0,0,.07.11.11.11,0,0,0,.11-.06h0c.33-1.23.84-2.4,1.19-3.63s.73-2.52,1.06-3.8c.66-2.49,1.3-5,1.94-7.48,1.28-5,2.52-10,3.63-15,.63-2.84,1.34-5.69,1.78-8.57a.13.13,0,0,0-.11-.17A.15.15,0,0,0,541.81,222.88Z"/><path class="cls-58" d="M527.67,193.1l.42-1.38-.11.05c2.92,2.33,5.85,4.65,8.74,7s5.79,4.72,8.55,7.22a42.44,42.44,0,0,1,3.93,3.89,31.77,31.77,0,0,1,3.15,4.55,35.45,35.45,0,0,1,3.85,10.5,29.88,29.88,0,0,0-3.15-10.86,26.9,26.9,0,0,0-3.12-4.78,42.27,42.27,0,0,0-4-4.06c-2.81-2.5-5.74-4.84-8.72-7.11s-6-4.43-9.18-6.46l-.09-.06v.1Z"/></svg>