<svg xmlns="http://www.w3.org/2000/svg" width="75" height="75" viewBox="0 0 75 75">
  <path id="Path_6966" data-name="Path 6966" d="M414.72,445.76a37.5,37.5,0,1,0,37.5,37.5A37.5,37.5,0,0,0,414.72,445.76Zm32.225,34.912H432.82c-.35-11.687-3.063-21.612-7.238-27.85A32.412,32.412,0,0,1,446.945,480.672Zm-32.212,34.912c-5.85,0-12.338-12.087-12.925-29.737h25.85c-.6,17.712-7.087,29.737-12.937,29.737Zm-12.925-34.912c.587-17.65,7.075-29.737,12.925-29.737s12.337,12.088,12.925,29.737Zm2.063-27.85c-4.175,6.25-6.888,16.162-7.238,27.85H382.508a32.388,32.388,0,0,1,21.35-27.85Zm-21.35,33.025h14.113c.35,11.7,3.063,21.612,7.237,27.862a32.387,32.387,0,0,1-21.363-27.862ZM425.6,513.71c4.175-6.25,6.888-16.162,7.237-27.862h14.113a32.412,32.412,0,0,1-21.363,27.862Z" transform="translate(-377.22 -445.76)" fill="#1a2b4c"/>
</svg>
