<svg xmlns="http://www.w3.org/2000/svg" width="75.503" height="74.971" viewBox="0 0 75.503 74.971">
  <path id="Path_6957" data-name="Path 6957" d="M414.971,445.76a37.486,37.486,0,1,0,37.751,37.485A37.619,37.619,0,0,0,414.971,445.76Zm32.441,34.9h-14.22c-.352-11.683-3.083-21.6-7.286-27.839A32.436,32.436,0,0,1,447.412,480.659Zm-32.428,34.9c-5.889,0-12.42-12.083-13.012-29.726H428c-.6,17.706-7.135,29.726-13.024,29.726Zm-13.012-34.9c.591-17.643,7.122-29.726,13.012-29.726S427.4,463.016,428,480.659Zm2.076-27.839c-4.2,6.248-6.934,16.156-7.286,27.839h-14.22a32.411,32.411,0,0,1,21.493-27.839Zm-21.493,33.012h14.207c.352,11.7,3.083,21.6,7.286,27.852a32.411,32.411,0,0,1-21.506-27.852Zm43.364,27.852c4.2-6.248,6.934-16.156,7.286-27.852h14.207a32.436,32.436,0,0,1-21.506,27.852Z" transform="translate(-377.22 -445.76)" fill="#192b4b"/>
</svg>
