<svg xmlns="http://www.w3.org/2000/svg" width="60" height="60" viewBox="0 0 60 60">
  <path id="Path_6343" data-name="Path 6343" d="M407.22,445.76a30,30,0,1,0,30,30A30,30,0,0,0,407.22,445.76ZM433,473.69H421.7c-.28-9.35-2.45-17.29-5.79-22.28A25.93,25.93,0,0,1,433,473.69Zm-25.77,27.93c-4.68,0-9.87-9.67-10.34-23.79h20.68c-.48,14.17-5.67,23.79-10.35,23.79Zm-10.34-27.93c.47-14.12,5.66-23.79,10.34-23.79s9.87,9.67,10.34,23.79Zm1.65-22.28c-3.34,5-5.51,12.93-5.79,22.28h-11.3a25.91,25.91,0,0,1,17.08-22.28Zm-17.08,26.42h11.29c.28,9.36,2.45,17.29,5.79,22.29a25.91,25.91,0,0,1-17.09-22.29Zm34.46,22.29c3.34-5,5.51-12.93,5.79-22.29H433a25.93,25.93,0,0,1-17.09,22.29Z" transform="translate(-377.22 -445.76)" fill="#62bddd"/>
</svg>
