<svg id="Layer_1" data-name="Layer 1" xmlns="http://www.w3.org/2000/svg" xmlns:xlink="http://www.w3.org/1999/xlink" viewBox="0 0 815.8 413.49"><defs><style>.cls-1{fill:none;}.cls-2{clip-path:url(#clip-path);}.cls-3,.cls-4,.cls-5{fill:#1a2b4c;}.cls-3{stroke:#ed743b;stroke-width:2px;}.cls-19,.cls-3{stroke-miterlimit:10;}.cls-5{opacity:0.2;}.cls-6{fill:#5f6a80;}.cls-7{fill:#4a556f;}.cls-8{fill:#2a415d;}.cls-9{fill:url(#linear-gradient);}.cls-10{fill:#fff;}.cls-11{fill:#58b1ce;}.cls-12{fill:#21375b;}.cls-13,.cls-19{fill:#a7d8e7;}.cls-14{fill:#1c2b4c;}.cls-15{fill:#e96426;}.cls-16{fill:#61c3e1;}.cls-17{fill:#242049;}.cls-18{fill:#292960;}.cls-19{stroke:#e96524;}</style><clipPath id="clip-path"><rect class="cls-1" x="35.42" y="-107.73" width="739.4" height="515.73"/></clipPath><linearGradient id="linear-gradient" x1="213.55" y1="123.26" x2="560.93" y2="123.26" gradientUnits="userSpaceOnUse"><stop offset="0" stop-color="#498ecc"/><stop offset="0.87" stop-color="#29a9e1"/></linearGradient></defs><g class="cls-2"><path class="cls-3" d="M221.18,511.87c-5.48,0-19.56-25.64-22-29.47-12.51-19.45-23-40.59-29.93-62.68a236.43,236.43,0,0,1-.18-140.2c18.83-60.29,62.4-112.18,117.85-142.44,40.93-22.33,88-32.87,134.5-31.36,47.31,1.53,90.14,20.13,126.76,50.09a253.09,253.09,0,0,1,37.12,37.43c76.22,95.06,72.35,224.31-1.44,318.63H716c3.9,0,12.87-51.91,13.56-55.59C737.71,412.8,741.2,368.2,738.2,324c-6.34-93.27-47.5-176.5-119.64-236.45-41.5-34.48-91.1-59.43-144-70.61C386.17-1.74,291,18.39,216.15,68.59,142.48,118,89.39,189,72.32,276.94c-15.17,78.21-4.27,160.63,23.11,234.93Z"/></g><path class="cls-4" d="M815.8,410.5c-115.28,5.1-290.86,2.38-407.9,3-106.08-.6-277.89,1.75-382.41-2.16L0,410.5l25.49-.84c103.86-3.91,276.9-1.57,382.41-2.16,117.43.65,292-2.11,407.9,3Z"/><ellipse class="cls-5" cx="399.05" cy="378.6" rx="236.83" ry="29.26"/><path class="cls-6" d="M589,356.45c0,8.24-6.16,14.91-13.75,14.91H192.17c-7.59,0-13.75-6.67-13.75-14.91l22.18-94.92c3.39-11.33,11-14.92,18.61-14.92H553.58c7.59,0,15,5.57,17,14.92Z"/><path class="cls-4" d="M575.26,366.39H192.17c-5.71,0-10.61-5.69-12.69-13.8l-1.06,6.86c0,12.41,6.16,22.48,13.75,22.48H575.26c7.59,0,13.75-10.07,13.75-22.48l-1-7.34C586.06,360.47,581.08,366.39,575.26,366.39Z"/><polygon class="cls-7" points="212.37 252.16 200.22 308.21 567.21 308.21 557.35 252.16 212.37 252.16"/><path class="cls-8" d="M570.49,231.6c0,8.24-6.16,14.92-13.75,14.92h-339c-7.59,0-13.75-6.68-13.75-14.92V14.91C204,6.68,210.15,0,217.74,0h339c7.59,0,13.75,6.68,13.75,14.91Z"/><path class="cls-9" d="M560.93,223.52c0,7.51-5.61,13.59-12.53,13.59H226.08c-6.92,0-12.53-6.08-12.53-13.59V23c0-7.5,5.61-13.59,12.53-13.59H548.4c6.92,0,12.53,6.09,12.53,13.59Z"/><path class="cls-10" d="M549.45,9,225,8.71c-6.92,0-12.52,6.09-12.52,13.59V222.83c0,7.51,5.6,13.59,12.52,13.59l77.22.27h247.2c6.92,0,12.52-6.08,12.52-13.59V22.57C562,15.07,556.37,9,549.45,9Z"/><path class="cls-1" d="M561.16,224.58c0,7.51-5.61,13.59-12.52,13.59H226.31c-6.91,0-12.52-6.08-12.52-13.59V24.05c0-7.5,5.61-13.59,12.52-13.59H548.64c6.91,0,12.52,6.09,12.52,13.59Z"/><path class="cls-7" d="M280.39,351.32a3.13,3.13,0,0,0,3.37,2.73H343.7a3.13,3.13,0,0,0,3.37-2.73l-3-33.89v-.09a3.12,3.12,0,0,0-3.37-2.78H287a3.12,3.12,0,0,0-3.37,2.78.34.34,0,0,1,0,.1Z"/><rect class="cls-4" x="223.24" y="19.18" width="328.02" height="11.88" rx="5.94"/><rect class="cls-11" x="231.01" y="50.07" width="98.99" height="85.15" rx="8.29"/><rect class="cls-11" x="337.98" y="50.07" width="98.99" height="85.15" rx="6.62"/><rect class="cls-12" x="446.03" y="50.07" width="98.99" height="164.27" rx="9.95"/><rect class="cls-13" x="237.05" y="58.26" width="86.7" height="69.26" rx="12"/><rect class="cls-13" x="344.66" y="58.01" width="86.7" height="69.26" rx="12"/><rect class="cls-10" x="452.17" y="58.01" width="86.7" height="94.07" rx="12"/><rect class="cls-13" x="212.51" y="221.59" width="348.42" height="15.11" rx="5.89"/><rect class="cls-4" x="218.05" y="224.51" width="36.66" height="10.5" rx="4.1"/><ellipse class="cls-5" cx="541" cy="386.76" rx="81.56" ry="6.5"/><ellipse class="cls-10" cx="233.14" cy="25.34" rx="2.73" ry="2.96"/><path class="cls-14" d="M270.68,197.08c-.61,34.55-53.9,34.54-54.51,0C216.78,162.53,270.07,162.54,270.68,197.08Z"/><path class="cls-15" d="M233.44,215.33a.39.39,0,0,1-.27.11.38.38,0,0,1-.26-.11.42.42,0,0,1-.1-.28.43.43,0,0,1,.1-.27.31.31,0,0,1,.26-.11.32.32,0,0,1,.27.11.34.34,0,0,1,.1.27A.35.35,0,0,1,233.44,215.33Zm0-.9h-.52l-.1-2.64h.71Z"/><path class="cls-15" d="M236.6,215c0,1-.44,1.52-1.31,1.52s-1.24-.48-1.24-1.44a3.42,3.42,0,0,1,.12-.9l.63-.13a4,4,0,0,0-.13,1c0,.66.22,1,.67,1s.66-.32.65-1V213h.62Zm-1.54-1.49a.36.36,0,0,1,0-.49.3.3,0,0,1,.23-.11.35.35,0,0,1,0,.7A.32.32,0,0,1,235.06,213.53Z"/><path class="cls-15" d="M236.58,211.17l.49-.4a.6.6,0,0,0,.44.2.7.7,0,0,0,.49-.2v.48a.79.79,0,0,1-.52.2.58.58,0,0,1-.41-.17l-.28.21Zm1.54,3.3h-.63l-.67-2.61.62-.09Zm-1.1.91v-.53h1.44v-3h.62v3.57Z"/><path class="cls-15" d="M239.87,211.81h.61v3.57h-.61Z"/><path class="cls-15" d="M245.58,216.59c-.61,0-1.11.06-1.51.06a2.6,2.6,0,0,1-1.58-.38,1.35,1.35,0,0,1-.48-1.17,3.35,3.35,0,0,1,.12-.89l.64-.13a3.84,3.84,0,0,0-.14,1,1,1,0,0,0,.33.84,2.16,2.16,0,0,0,1.2.25l.77,0v-.71h-.32c-.83,0-1.25-.4-1.25-1.18a1.33,1.33,0,0,1,.3-.89,1.18,1.18,0,0,1,.94-.38,2.37,2.37,0,0,1,1,.18Zm-1.65-4.08a.33.33,0,0,1-.08-.24.38.38,0,0,1,.08-.25.32.32,0,0,1,.22-.1.33.33,0,0,1,.23.1.38.38,0,0,1,.09.25.34.34,0,0,1-.09.24.29.29,0,0,1-.23.1A.28.28,0,0,1,243.93,212.51Zm1,1a1,1,0,0,0-.44-.09.51.51,0,0,0-.42.19.78.78,0,0,0-.14.49.62.62,0,0,0,.7.71H245Zm-.27-1a.34.34,0,0,1-.09-.24.38.38,0,0,1,.09-.25.29.29,0,0,1,.44,0,.38.38,0,0,1,.09.25.34.34,0,0,1-.09.24.29.29,0,0,1-.43,0Z"/><path class="cls-15" d="M246.42,212c-.18,0-.28-.12-.31-.35l0-.28.28-.05,0,.28c0,.08,0,.13.1.13s.12-.06.12-.17l-.05-.28.29-.05,0,.29c0,.09.05.14.11.14s.13-.07.12-.2l0-.3.28,0,0,.28a.47.47,0,0,1-.08.38.39.39,0,0,1-.33.15.3.3,0,0,1-.24-.12A.34.34,0,0,1,246.42,212Z"/><path class="cls-15" d="M246.13,216.59l0-.54a3.45,3.45,0,0,0,.72.08c.54,0,.81-.22.81-.67v-.08h-.36c-.84,0-1.25-.39-1.26-1.18a1.33,1.33,0,0,1,.3-.88,1.17,1.17,0,0,1,.94-.38,2.5,2.5,0,0,1,1,.17v1.74h.46v.53h-.46a1.16,1.16,0,0,1-.34.89,1.52,1.52,0,0,1-1.12.38A4.17,4.17,0,0,1,246.13,216.59Zm1.57-3a.85.85,0,0,0-.44-.09.48.48,0,0,0-.41.19.77.77,0,0,0-.15.49.63.63,0,0,0,.7.71h.3Z"/><path class="cls-15" d="M251.73,215.38a1.51,1.51,0,0,1-.56-.07.55.55,0,0,1-.3-.28.68.68,0,0,1-.7.39.56.56,0,0,1-.62-.39.62.62,0,0,1-.63.35h-.23v-.53h.24a.36.36,0,0,0,.32-.13.85.85,0,0,0,.1-.5v-.92H250v.94a1.63,1.63,0,0,0,.05.49.27.27,0,0,0,.27.16c.25,0,.37-.22.37-.65v-1.15h.6v1.27a.52.52,0,0,0,.11.39.68.68,0,0,0,.44.1h.12c0-.21,0-.41,0-.61a6.82,6.82,0,0,0-.13-1.36l.6-.09a6,6,0,0,1,.14,1.41c0,.19,0,.41,0,.65H253v.53Z"/><path class="cls-15" d="M252.94,214.85h.65V213h.62v2.38h-1.27Zm.26-2.34a.38.38,0,0,1-.08-.25.33.33,0,0,1,.08-.24.28.28,0,0,1,.22-.1.29.29,0,0,1,.23.1.34.34,0,0,1,.09.24.38.38,0,0,1-.09.25.33.33,0,0,1-.23.1.28.28,0,0,1-.22-.1Zm.78,0a.38.38,0,0,1-.09-.25A.34.34,0,0,1,254,212a.29.29,0,0,1,.44,0,.34.34,0,0,1,.09.24.38.38,0,0,1-.09.25.32.32,0,0,1-.22.1.28.28,0,0,1-.22-.1Z"/><path class="cls-16" d="M249.55,201.63c2.75.05,2.76,4.49,0,4.54S246.8,201.68,249.55,201.63Z"/><path class="cls-16" d="M237.46,201.63c2.74,0,2.75,4.53,0,4.54S234.71,201.68,237.46,201.63Z"/><path class="cls-15" d="M238.51,201.25c-.12,1,.5,3.65-1,3.63s-.94-2.64-1.05-3.63Z"/><path class="cls-16" d="M237.46,203.46c.53,0,.54.9,0,.88S236.94,203.45,237.46,203.46Z"/><path class="cls-15" d="M250.59,201.25c-.11,1,.51,3.65-1.05,3.63s-.93-2.64-1-3.63Z"/><path class="cls-16" d="M249.55,203.46c.52,0,.52.9,0,.88S249,203.45,249.55,203.46Z"/><path class="cls-15" d="M233.4,184.4l21,.93a.45.45,0,0,1,.4.46h0l-1.68,7.15a.47.47,0,0,1-.39.47l-17.1,2.68a.43.43,0,0,1-.47-.39l-.68-3.34c0-.07-.73-3.53-.74-3.61Zm18.87,1.84-2.86-.12.05,1.75,2.81-.06Zm-3.71-.18L246,186l.07,2,2.5-.06Zm-3.37-.16-2.94-.14.2,2.25,2.82-.06Zm-3.79-.18-3.22-.16.43,2.53,3-.06Zm-4.08-.2-3.41-.17.58,2.83,3.26-.07Zm15,7V191.2l-2.7.23.06,1.53Zm0-2.27v-1.54l-2.78.06.06,1.72Zm-16.36,4.84,2.94-.46-.38-2.27-3.07.27Zm3.78-.59,2.46-.38-.18-2.06-2.65.23ZM243,194l2.5-.39-.07-1.82-2.61.22Zm3.34-.53,2.45-.38-.05-1.59-2.47.21Zm-12.59-4.74L233,185a.46.46,0,0,1,.32-.55l.11,0Zm.94.36.53,2.64,3.1-.27L237.9,189Zm4.08-.08.4,2.39,2.72-.24-.19-2.22Zm3.77-.08.19,2.16,2.66-.23-.08-2Zm3.62-.07.08,1.93,2.47-.21,0-1.77Z"/><path class="cls-15" d="M234.38,187.81a.42.42,0,1,1-.82.19l-1.15-5.68-3.81-.54c-.54-.08-.41-1,.12-.89l4.09.59h0C233.34,181.24,234.21,187.6,234.38,187.81Z"/><path class="cls-15" d="M242.87,195.22c.53,0,.54.91,0,.9h-6.31a2.13,2.13,0,0,0-2,2.21h0a2.12,2.12,0,0,0,2,2.22h16.24c.53,0,.55.92,0,.91H236.55a3,3,0,0,1-2.88-3.13h0a3,3,0,0,1,2.88-3.11Z"/><path class="cls-16" d="M228.27,180.18l2.27.48a.48.48,0,0,1,.34.56l-.15.82a.43.43,0,0,1-.51.37l-2.26-.48a.47.47,0,0,1-.34-.56l.14-.82A.44.44,0,0,1,228.27,180.18Z"/><path class="cls-11" d="M474.13,388.43l137.17-.58a6.65,6.65,0,0,0,6.33-6.93l-.35-97a6.63,6.63,0,0,0-6.38-6.87l-44.31.19-92.86.39a6.65,6.65,0,0,0-6.33,6.93l.35,97A6.63,6.63,0,0,0,474.13,388.43Z"/><rect class="cls-15" x="485.85" y="293.6" width="115.42" height="13.84" rx="3.26" transform="translate(1088.4 598.72) rotate(179.76)"/><path class="cls-10" d="M586.35,315.84a4.73,4.73,0,0,0,.14,1.32,2.65,2.65,0,0,0,.43.91,1.79,1.79,0,0,0,.67.53,2.29,2.29,0,0,0,1.73,0,1.68,1.68,0,0,0,.68-.51,2.66,2.66,0,0,0,.44-.91,5.07,5.07,0,0,0,.16-1.32v-1.19a5.1,5.1,0,0,0-.15-1.32,2.36,2.36,0,0,0-.43-.9,1.7,1.7,0,0,0-.67-.53,2.35,2.35,0,0,0-1.73,0,1.61,1.61,0,0,0-.67.52,2.53,2.53,0,0,0-.45.9,5.07,5.07,0,0,0-.16,1.32Zm1.24.18v-1.55a4.15,4.15,0,0,1,.06-.77,1.46,1.46,0,0,1,.18-.5.66.66,0,0,1,.28-.27.75.75,0,0,1,.37-.08.87.87,0,0,1,.37.08.67.67,0,0,1,.27.28,1.28,1.28,0,0,1,.17.5,4.15,4.15,0,0,1,.06.77V316a4.26,4.26,0,0,1-.06.78,1.54,1.54,0,0,1-.18.5.68.68,0,0,1-.28.28.75.75,0,0,1-.37.08.87.87,0,0,1-.37-.08.67.67,0,0,1-.27-.28,1.52,1.52,0,0,1-.17-.51A4.26,4.26,0,0,1,587.59,316Z"/><path class="cls-10" d="M581.27,315.81a4.73,4.73,0,0,0,.14,1.32,2.65,2.65,0,0,0,.43.91,1.72,1.72,0,0,0,.67.53,2.2,2.2,0,0,0,.86.17,2.41,2.41,0,0,0,.87-.16,1.8,1.8,0,0,0,.68-.52,2.66,2.66,0,0,0,.44-.91,5,5,0,0,0,.16-1.32v-1.18a5.13,5.13,0,0,0-.15-1.33,2.6,2.6,0,0,0-.43-.9,1.7,1.7,0,0,0-.67-.53,2.35,2.35,0,0,0-1.73,0,1.7,1.7,0,0,0-.68.52,2.7,2.7,0,0,0-.44.9,5.07,5.07,0,0,0-.16,1.32Zm1.24.18v-1.55a4.15,4.15,0,0,1,.06-.77,1.54,1.54,0,0,1,.18-.5.8.8,0,0,1,.28-.27.9.9,0,0,1,.74,0,.67.67,0,0,1,.27.28,1.46,1.46,0,0,1,.17.5,4.15,4.15,0,0,1,.06.77V316a4.26,4.26,0,0,1-.06.78,1.9,1.9,0,0,1-.18.5.68.68,0,0,1-.28.28.65.65,0,0,1-.37.08.69.69,0,0,1-.65-.36,1.81,1.81,0,0,1-.16-.51A4.26,4.26,0,0,1,582.51,316Z"/><path class="cls-10" d="M576.19,315.78v.2a5.1,5.1,0,0,0,.14,1.12,2.65,2.65,0,0,0,.43.91,1.79,1.79,0,0,0,.67.53,2.35,2.35,0,0,0,1.73,0,1.7,1.7,0,0,0,.6-.43l.08-.09a2.86,2.86,0,0,0,.44-.91,5,5,0,0,0,.16-1.32v-1.18a4.76,4.76,0,0,0-.14-1.33,2.43,2.43,0,0,0-.43-.9,1.79,1.79,0,0,0-.67-.53,2.35,2.35,0,0,0-1.73,0,1.7,1.7,0,0,0-.68.52,2.8,2.8,0,0,0-.44.9,5.07,5.07,0,0,0-.16,1.32Zm1.29.92a5.06,5.06,0,0,1-.05-.74v-1.55a4.15,4.15,0,0,1,.06-.77,1.54,1.54,0,0,1,.18-.5.8.8,0,0,1,.28-.27.87.87,0,0,1,.37-.08.75.75,0,0,1,.37.09.59.59,0,0,1,.27.27,1.46,1.46,0,0,1,.17.5,4.15,4.15,0,0,1,.06.77V316a3.46,3.46,0,0,1-.07.78,1.52,1.52,0,0,1-.17.51.63.63,0,0,1-.18.21.27.27,0,0,1-.1.06.75.75,0,0,1-.37.09.88.88,0,0,1-.37-.09.75.75,0,0,1-.28-.28,1.81,1.81,0,0,1-.16-.51v0Z"/><path class="cls-10" d="M571.1,315.75a5.1,5.1,0,0,0,.15,1.32,2.65,2.65,0,0,0,.43.91,1.63,1.63,0,0,0,.67.53,2.35,2.35,0,0,0,1.73,0,1.7,1.7,0,0,0,.68-.52,2.66,2.66,0,0,0,.44-.91,5,5,0,0,0,.16-1.32v-1.18a5.13,5.13,0,0,0-.15-1.33,2.6,2.6,0,0,0-.43-.9,1.79,1.79,0,0,0-.67-.53,2.35,2.35,0,0,0-1.73,0,1.8,1.8,0,0,0-.68.52,2.7,2.7,0,0,0-.44.9,3.4,3.4,0,0,0-.07.34,4.88,4.88,0,0,0-.09,1Zm1.25.19v-1.56c0-.1,0-.2,0-.28h0c0-.18,0-.34,0-.48a1.4,1.4,0,0,1,.18-.49.75.75,0,0,1,.28-.28.87.87,0,0,1,.37-.08.75.75,0,0,1,.37.09.59.59,0,0,1,.27.27,1.54,1.54,0,0,1,.17.5,4.15,4.15,0,0,1,.06.77V316a4.22,4.22,0,0,1-.06.77,2.13,2.13,0,0,1-.18.51.66.66,0,0,1-.28.27.75.75,0,0,1-.37.09.88.88,0,0,1-.37-.09.75.75,0,0,1-.28-.28,1.81,1.81,0,0,1-.16-.51A4.22,4.22,0,0,1,572.35,315.94Z"/><path class="cls-10" d="M561.28,315.8a4.73,4.73,0,0,0,.14,1.32,2.65,2.65,0,0,0,.43.91,1.72,1.72,0,0,0,.67.53,2.4,2.4,0,0,0,.86.17,2.21,2.21,0,0,0,.87-.16,1.8,1.8,0,0,0,.68-.52,2.86,2.86,0,0,0,.44-.91,5.07,5.07,0,0,0,.16-1.32v-1.18a4.76,4.76,0,0,0-.14-1.33,2.6,2.6,0,0,0-.43-.9,1.7,1.7,0,0,0-.67-.53,2.35,2.35,0,0,0-1.73,0,1.7,1.7,0,0,0-.68.52,2.7,2.7,0,0,0-.44.9,5.07,5.07,0,0,0-.16,1.32Zm1.24.18v-1.56a4.1,4.1,0,0,1,.06-.76,1.46,1.46,0,0,1,.18-.5.72.72,0,0,1,.28-.27.75.75,0,0,1,.37-.08.87.87,0,0,1,.37.08.67.67,0,0,1,.27.28,1.46,1.46,0,0,1,.17.5,4.15,4.15,0,0,1,.06.77V316a3.46,3.46,0,0,1-.07.78,1.79,1.79,0,0,1-.17.51.72.72,0,0,1-.28.27.88.88,0,0,1-.37.09,1.06,1.06,0,0,1-.37-.09.75.75,0,0,1-.28-.28,1.81,1.81,0,0,1-.16-.51A4.26,4.26,0,0,1,562.52,316Z"/><path class="cls-10" d="M556.19,315.77a5.1,5.1,0,0,0,.15,1.32,2.65,2.65,0,0,0,.43.91,1.63,1.63,0,0,0,.67.53,2.35,2.35,0,0,0,1.73,0,1.8,1.8,0,0,0,.68-.52,2.66,2.66,0,0,0,.44-.91,5.07,5.07,0,0,0,.16-1.32v-1.18a5.13,5.13,0,0,0-.15-1.33,2.6,2.6,0,0,0-.43-.9,1.7,1.7,0,0,0-.67-.53,2.35,2.35,0,0,0-1.73,0,1.7,1.7,0,0,0-.68.52,2.52,2.52,0,0,0-.44.9,5.07,5.07,0,0,0-.16,1.32Zm1.25.18V314.4a4.15,4.15,0,0,1,.06-.77,1.46,1.46,0,0,1,.18-.5.72.72,0,0,1,.28-.27.75.75,0,0,1,.37-.08.87.87,0,0,1,.37.08.67.67,0,0,1,.27.28,1.46,1.46,0,0,1,.17.5,4.15,4.15,0,0,1,.06.77V316a4.26,4.26,0,0,1-.06.78,2.13,2.13,0,0,1-.18.51.66.66,0,0,1-.28.27.75.75,0,0,1-.37.09.88.88,0,0,1-.37-.09.75.75,0,0,1-.28-.28,1.81,1.81,0,0,1-.16-.51A4.26,4.26,0,0,1,557.44,316Z"/><path class="cls-10" d="M551.12,315.74a4.73,4.73,0,0,0,.14,1.32,2.48,2.48,0,0,0,.43.91,1.63,1.63,0,0,0,.67.53,2.35,2.35,0,0,0,1.73,0,1.7,1.7,0,0,0,.68-.52,2.86,2.86,0,0,0,.44-.91,5,5,0,0,0,.16-1.32v-1.18a4.64,4.64,0,0,0-.14-1.32,2.57,2.57,0,0,0-.43-.91,1.7,1.7,0,0,0-.67-.53,2.35,2.35,0,0,0-1.73,0,1.7,1.7,0,0,0-.68.52,2.8,2.8,0,0,0-.44.9,5.07,5.07,0,0,0-.16,1.32Zm1.24.18v-1.55a4.15,4.15,0,0,1,.06-.77,1.54,1.54,0,0,1,.18-.5.8.8,0,0,1,.28-.27.75.75,0,0,1,.37-.08.87.87,0,0,1,.37.08.73.73,0,0,1,.27.28,1.54,1.54,0,0,1,.17.5,4.15,4.15,0,0,1,.06.77v1.55a3.46,3.46,0,0,1-.07.78,1.79,1.79,0,0,1-.17.51.66.66,0,0,1-.28.27.75.75,0,0,1-1-.28,1.81,1.81,0,0,1-.16-.51A4.26,4.26,0,0,1,552.36,315.92Z"/><path class="cls-10" d="M546,315.71a5.1,5.1,0,0,0,.15,1.32,2.65,2.65,0,0,0,.43.91,1.63,1.63,0,0,0,.67.53,2.2,2.2,0,0,0,.86.17,2.62,2.62,0,0,0,.57-.06l.3-.1a1.7,1.7,0,0,0,.68-.52,2.86,2.86,0,0,0,.44-.91,5,5,0,0,0,.16-1.32v-1.18a4.69,4.69,0,0,0-.14-1.32,2.65,2.65,0,0,0-.43-.91,1.94,1.94,0,0,0-.32-.32,2.5,2.5,0,0,0-.35-.21,2.35,2.35,0,0,0-1.73,0,1.8,1.8,0,0,0-.68.52,2.7,2.7,0,0,0-.44.9,5.07,5.07,0,0,0-.16,1.32Zm1.25.18v-1.55a4.15,4.15,0,0,1,.06-.77,1.54,1.54,0,0,1,.18-.5.72.72,0,0,1,.28-.27.87.87,0,0,1,.37-.08.75.75,0,0,1,.37.09.64.64,0,0,1,.27.27,1.59,1.59,0,0,1,.15.39s0,.07,0,.11a4.22,4.22,0,0,1,.06.77v1.56a4.13,4.13,0,0,1-.07.77,1.52,1.52,0,0,1-.17.51.67.67,0,0,1-.21.23l-.07,0a.75.75,0,0,1-1-.28,1.81,1.81,0,0,1-.16-.51A4.26,4.26,0,0,1,547.28,315.89Z"/><path class="cls-10" d="M536.88,315.75a5.1,5.1,0,0,0,.15,1.32,2.48,2.48,0,0,0,.43.91,1.63,1.63,0,0,0,.67.53,2.35,2.35,0,0,0,1.73,0,1.7,1.7,0,0,0,.68-.52,2.86,2.86,0,0,0,.44-.91,5,5,0,0,0,.16-1.32v-1.18a4.64,4.64,0,0,0-.14-1.32,2.65,2.65,0,0,0-.43-.91,1.79,1.79,0,0,0-.67-.53,2.35,2.35,0,0,0-1.73,0,1.7,1.7,0,0,0-.68.52,2.61,2.61,0,0,0-.44.9,4.68,4.68,0,0,0-.16,1.32Zm1.25.18v-1.55a4.15,4.15,0,0,1,.06-.77,1.54,1.54,0,0,1,.18-.5.72.72,0,0,1,.28-.27.87.87,0,0,1,.37-.08.75.75,0,0,1,.37.09.59.59,0,0,1,.27.27,1.54,1.54,0,0,1,.17.5,4.15,4.15,0,0,1,.06.77v1.55a4.16,4.16,0,0,1-.07.78,1.79,1.79,0,0,1-.17.51.66.66,0,0,1-.28.27.75.75,0,0,1-1-.28,1.81,1.81,0,0,1-.16-.51A4.26,4.26,0,0,1,538.13,315.93Z"/><path class="cls-10" d="M531.8,315.72A5.1,5.1,0,0,0,532,317a2.48,2.48,0,0,0,.43.91,1.63,1.63,0,0,0,.67.53,2.35,2.35,0,0,0,1.73,0,1.61,1.61,0,0,0,.67-.52,2.71,2.71,0,0,0,.45-.9,5.1,5.1,0,0,0,.16-1.33v-1.18a4.69,4.69,0,0,0-.14-1.32,2.65,2.65,0,0,0-.43-.91,1.79,1.79,0,0,0-.67-.53,2.2,2.2,0,0,0-.86-.17,2.41,2.41,0,0,0-.87.16,1.8,1.8,0,0,0-.68.52,2.7,2.7,0,0,0-.44.9,5.07,5.07,0,0,0-.16,1.32Zm1.25.19v-1.56a4.15,4.15,0,0,1,.06-.77,1.4,1.4,0,0,1,.18-.49.69.69,0,0,1,.28-.28.87.87,0,0,1,.37-.08.75.75,0,0,1,.37.09.64.64,0,0,1,.27.27,1.54,1.54,0,0,1,.17.5,4.15,4.15,0,0,1,.06.77v1.56a4.13,4.13,0,0,1-.07.77,1.79,1.79,0,0,1-.17.51.75.75,0,0,1-.28.28.87.87,0,0,1-.37.08.75.75,0,0,1-.37-.09.69.69,0,0,1-.28-.28,1.53,1.53,0,0,1-.16-.51A4.22,4.22,0,0,1,533.05,315.91Z"/><path class="cls-10" d="M526.72,315.69a5.1,5.1,0,0,0,.15,1.32,2.48,2.48,0,0,0,.43.91,1.63,1.63,0,0,0,.67.53,2.16,2.16,0,0,0,.86.17,2.21,2.21,0,0,0,.87-.16,1.61,1.61,0,0,0,.67-.52,2.71,2.71,0,0,0,.45-.9,5.56,5.56,0,0,0,.16-1.33v-1.18a4.73,4.73,0,0,0-.14-1.32,2.65,2.65,0,0,0-.43-.91,1.79,1.79,0,0,0-.67-.53,2.35,2.35,0,0,0-1.73,0,1.8,1.8,0,0,0-.68.52,2.66,2.66,0,0,0-.44.91,4.94,4.94,0,0,0-.16,1.31Zm1.25.19v-1.56a4.22,4.22,0,0,1,.06-.77,1.4,1.4,0,0,1,.18-.49.75.75,0,0,1,.28-.28.87.87,0,0,1,.37-.08.75.75,0,0,1,.37.09.64.64,0,0,1,.27.27,1.54,1.54,0,0,1,.17.5,3.5,3.5,0,0,1,.05.77v1.56a3.43,3.43,0,0,1-.07.77,1.79,1.79,0,0,1-.17.51.75.75,0,0,1-.28.28.87.87,0,0,1-.37.08.72.72,0,0,1-.37-.09.68.68,0,0,1-.28-.28,1.53,1.53,0,0,1-.16-.51A4.22,4.22,0,0,1,528,315.88Z"/><path class="cls-10" d="M521.64,315.66a5,5,0,0,0,.15,1.32,2.41,2.41,0,0,0,.43.91,1.57,1.57,0,0,0,.67.53,2.35,2.35,0,0,0,1.73,0,1.7,1.7,0,0,0,.68-.52,2.8,2.8,0,0,0,.44-.9,5.07,5.07,0,0,0,.16-1.32V314.5a4.73,4.73,0,0,0-.14-1.32,2.65,2.65,0,0,0-.43-.91,1.79,1.79,0,0,0-.67-.53,2.41,2.41,0,0,0-.87-.17,2.2,2.2,0,0,0-.86.17,1.68,1.68,0,0,0-.68.51,2.66,2.66,0,0,0-.44.91,5,5,0,0,0-.16,1.32Zm1.25.19v-1.56a4,4,0,0,1,.06-.76,1.38,1.38,0,0,1,.18-.5.69.69,0,0,1,.28-.28.87.87,0,0,1,.37-.08.75.75,0,0,1,.37.09.64.64,0,0,1,.27.27,1.52,1.52,0,0,1,.17.51,4,4,0,0,1,.06.76v1.56a4,4,0,0,1-.07.77,1.79,1.79,0,0,1-.17.51.75.75,0,0,1-.28.28.87.87,0,0,1-.37.08.75.75,0,0,1-.37-.09.68.68,0,0,1-.28-.28,1.81,1.81,0,0,1-.16-.51A4.22,4.22,0,0,1,522.89,315.85Z"/><path class="cls-10" d="M511.87,315.61a5.05,5.05,0,0,0,.15,1.32,2.56,2.56,0,0,0,.42.91,1.7,1.7,0,0,0,.67.53,2.21,2.21,0,0,0,.87.17,2.28,2.28,0,0,0,.87-.16,1.67,1.67,0,0,0,.67-.52,2.7,2.7,0,0,0,.44-.9,4.68,4.68,0,0,0,.16-1.32v-1.19a5.56,5.56,0,0,0-.1-1.14c0-.06,0-.13,0-.18a2.48,2.48,0,0,0-.43-.91,1.67,1.67,0,0,0-.67-.52,2.13,2.13,0,0,0-.86-.18,2.41,2.41,0,0,0-.87.16,1.77,1.77,0,0,0-.67.52,2.49,2.49,0,0,0-.44.91.35.35,0,0,0,0,.11h0a5.27,5.27,0,0,0-.14,1.2Zm1.25.19v-1.56a4.94,4.94,0,0,1,.07-.76,1.39,1.39,0,0,1,.17-.5.75.75,0,0,1,.28-.28.55.55,0,0,1,.18-.06h0l.19,0a.88.88,0,0,1,.29.05l.08,0a.8.8,0,0,1,.28.27,1.82,1.82,0,0,1,.17.5,5.51,5.51,0,0,1,0,.77v1.56a4.22,4.22,0,0,1-.06.77,1.52,1.52,0,0,1-.18.51.63.63,0,0,1-.28.28.84.84,0,0,1-.37.08.75.75,0,0,1-.37-.09.61.61,0,0,1-.27-.28,1.79,1.79,0,0,1-.17-.51A4.32,4.32,0,0,1,513.12,315.8Z"/><path class="cls-10" d="M506.79,315.58a4.61,4.61,0,0,0,.15,1.32,2.56,2.56,0,0,0,.42.91,1.7,1.7,0,0,0,.67.53,2.21,2.21,0,0,0,.87.17,2.28,2.28,0,0,0,.87-.16,1.67,1.67,0,0,0,.67-.52,2.52,2.52,0,0,0,.44-.9,4.68,4.68,0,0,0,.16-1.32v-1.19c0-.24,0-.46,0-.67a4,4,0,0,0-.12-.65,2.73,2.73,0,0,0-.2-.55,3.17,3.17,0,0,0-.23-.36,1.61,1.61,0,0,0-.67-.52,2,2,0,0,0-.86-.17,2,2,0,0,0-.87.16,1.74,1.74,0,0,0-.67.51,2.49,2.49,0,0,0-.44.91,4.9,4.9,0,0,0-.17,1.31Zm1.25.19v-1.56a4.94,4.94,0,0,1,.07-.76,1.61,1.61,0,0,1,.17-.5.75.75,0,0,1,.28-.28.92.92,0,0,1,.38-.08.71.71,0,0,1,.36.09.75.75,0,0,1,.28.28,1.61,1.61,0,0,1,.17.5,5.26,5.26,0,0,1,.05.76v1.56a4.22,4.22,0,0,1-.06.77,1.52,1.52,0,0,1-.18.51.69.69,0,0,1-.28.28.87.87,0,0,1-.37.08.75.75,0,0,1-.37-.09.61.61,0,0,1-.27-.28,1.52,1.52,0,0,1-.17-.51A4.25,4.25,0,0,1,508,315.77Z"/><path class="cls-10" d="M501.71,315.55a5.13,5.13,0,0,0,.15,1.33,2.55,2.55,0,0,0,.42.91,1.77,1.77,0,0,0,.67.52,2.21,2.21,0,0,0,.87.17,2,2,0,0,0,.86-.16,1.64,1.64,0,0,0,.68-.52,2.52,2.52,0,0,0,.44-.9,4.68,4.68,0,0,0,.16-1.32v-1.19a5.1,5.1,0,0,0-.15-1.32,2.48,2.48,0,0,0-.43-.91,1.67,1.67,0,0,0-.67-.52,2.16,2.16,0,0,0-.86-.17,2,2,0,0,0-.87.16,1.74,1.74,0,0,0-.67.51,2.49,2.49,0,0,0-.44.91,4.93,4.93,0,0,0-.17,1.32Zm1.25.19v-1.56a4.94,4.94,0,0,1,.07-.76,1.71,1.71,0,0,1,.17-.5.75.75,0,0,1,.28-.28.91.91,0,0,1,.37-.08.72.72,0,0,1,.65.37,1.4,1.4,0,0,1,.16.5,4,4,0,0,1,.06.76v1.56a4.15,4.15,0,0,1-.06.77,1.52,1.52,0,0,1-.18.51.69.69,0,0,1-.28.28.87.87,0,0,1-.37.08.75.75,0,0,1-.37-.09.61.61,0,0,1-.27-.28,1.52,1.52,0,0,1-.17-.51A4.25,4.25,0,0,1,503,315.74Z"/><path class="cls-10" d="M496.63,315.52a4.39,4.39,0,0,0,.15,1.33,2.74,2.74,0,0,0,.42.91,1.77,1.77,0,0,0,.67.52,2.21,2.21,0,0,0,.87.17,2.11,2.11,0,0,0,.87-.16,1.67,1.67,0,0,0,.67-.52,2.52,2.52,0,0,0,.44-.9,4.68,4.68,0,0,0,.16-1.32v-1.19a5.1,5.1,0,0,0-.15-1.32,2.48,2.48,0,0,0-.43-.91,1.77,1.77,0,0,0-.67-.52,2.13,2.13,0,0,0-.86-.17,2,2,0,0,0-.87.16,1.67,1.67,0,0,0-.67.52,2.53,2.53,0,0,0-.45.9,5.47,5.47,0,0,0-.16,1.32Zm1.25.19v-1.56a4.94,4.94,0,0,1,.07-.76,1.46,1.46,0,0,1,.17-.5.7.7,0,0,1,.65-.35.63.63,0,0,1,.37.08.75.75,0,0,1,.28.28,1.61,1.61,0,0,1,.17.5,5.26,5.26,0,0,1,.05.76v1.56a4.07,4.07,0,0,1-.06.77,1.52,1.52,0,0,1-.18.51.69.69,0,0,1-.28.28.87.87,0,0,1-.37.08.75.75,0,0,1-.37-.09.57.57,0,0,1-.27-.28,1.79,1.79,0,0,1-.17-.51A3.5,3.5,0,0,1,497.88,315.71Z"/><path class="cls-10" d="M483.84,354.77l.25,19a3.16,3.16,0,0,0,3.09,3.22l13.92-.2h1l2.79-.05a3.16,3.16,0,0,0,3-3.3l-.12-9.76,0-1.09-.06-4.87,0-1.09,0-2.16a3.15,3.15,0,0,0-3.09-3.22l-2,0h-1l-6.1.09h-1l-5,.08h-1l-1.61,0A3.18,3.18,0,0,0,483.84,354.77Z"/><path class="cls-17" d="M484,373.74l-.25-19a3.43,3.43,0,0,1,.9-2.41,3,3,0,0,1,2.22-1l17.72-.25h0a3.28,3.28,0,0,1,3.18,3.35l.26,19a3.54,3.54,0,0,1-.9,2.41,3.12,3.12,0,0,1-2.23,1l-17.72.25h0A3.29,3.29,0,0,1,484,373.74Zm20.59-22.4-17.71.25a2.84,2.84,0,0,0-2.06,1,3.21,3.21,0,0,0-.83,2.22l.25,19a3,3,0,0,0,2.94,3.09h0l17.72-.26a2.79,2.79,0,0,0,2.05-.95,3.16,3.16,0,0,0,.83-2.22l-.25-19a3,3,0,0,0-2.94-3.09Z"/><path class="cls-18" d="M498.92,363.77h.18l8.68-.13,0-1.08-8.68.12a3.35,3.35,0,0,1-2.48-1.06,3.8,3.8,0,0,1-1.06-2.64l-.11-7.64h-1l.1,7.65a5,5,0,0,0,1.37,3.4A4.32,4.32,0,0,0,498.92,363.77Z"/><path class="cls-18" d="M488.45,351.44l.15,11.72a6,6,0,0,0,1.64,4.07,5.2,5.2,0,0,0,3.85,1.64l3.81-.05a3,3,0,0,1,2.2.94,3.44,3.44,0,0,1,.94,2.33l.06,4.67h1l-.06-4.68a4.53,4.53,0,0,0-1.24-3.09,4,4,0,0,0-2.93-1.25l-3.81.06a4.23,4.23,0,0,1-3.12-1.34,4.8,4.8,0,0,1-1.33-3.3l-.16-11.72Z"/><path class="cls-18" d="M501.53,351.25l0,3a3.4,3.4,0,0,0,3.19,3.45h.13l2.81,0,0-1.09-2.8,0a2.34,2.34,0,0,1-2.29-2.39l0-3Z"/><path class="cls-4" d="M498.74,280.94c-7.78.52-16,.14-23.77,1-5.31.66-4,5-4.19,8.89,0,4-.1,7.94-.26,11.92-.24-4-.37-7.94-.49-11.92.1-2.9-1-6.78,1.84-8.75a6.43,6.43,0,0,1,3-1.12,104.18,104.18,0,0,1,12-.42c3,.07,8.95.27,11.92.41Z"/><path class="cls-4" d="M530.93,386.13a50.22,50.22,0,0,1,14.38.24,50.58,50.58,0,0,1-14.38-.24Z"/><path class="cls-4" d="M615.94,337.36a142.9,142.9,0,0,1-.21,24.3,143.94,143.94,0,0,1,.21-24.3Z"/><path class="cls-4" d="M610.05,280.78c-16.67.69-33.47.71-50.15.06,16.68-.69,33.47-.71,50.15-.06Z"/><line class="cls-19" x1="352.6" y1="71.85" x2="424.6" y2="71.85"/><line class="cls-19" x1="244.5" y1="67.07" x2="316.5" y2="67.07"/><line class="cls-19" x1="352.6" y1="64.16" x2="424.6" y2="64.16"/><line class="cls-19" x1="352.6" y1="90.21" x2="424.6" y2="90.21"/><line class="cls-19" x1="459.52" y1="71.85" x2="531.52" y2="71.85"/><line class="cls-19" x1="459.52" y1="90.21" x2="531.52" y2="90.21"/></svg>