<svg xmlns="http://www.w3.org/2000/svg" width="856.408" height="576.108" viewBox="0 0 856.408 776.108">
  <g id="Group_5074" data-name="Group 5074" transform="translate(-151 -189.65)">
    <path id="Path_5680" data-name="Path 5680" d="M24.876,710.131c-13.457-39.307,288.551-7.561,502.808-19.774s352.244-14.342,353.164,19.774-328.437,6.634-542.693,18.846S38.333,749.438,24.876,710.131Z" transform="translate(126.559 226.674)" fill="#f6f6f6"/>
    <g id="Group_3039" data-name="Group 3039" transform="translate(67)">
      <g id="Group_3038" data-name="Group 3038" transform="translate(0 24.324)">
        <g id="Group_3016" data-name="Group 3016" transform="translate(-1168.412 -411.215)">
          <g id="Group_2616" data-name="Group 2616" transform="translate(274.733)">
            <path id="Path_3478" data-name="Path 3478" d="M262.748,366.306c73.687,15.818,92.879,84.153,132.458,91.3,79.73,14.4,103.65-30.348,93.619-53.5-9.555-22.055-40.765-36.246-90.533-26.75-39.1,7.46-72.126,42.209-79.99,81.533-35.749,178.75,192.643,180.809,192.643,180.809" transform="translate(775.734 579.411)" fill="none" stroke="#20154c" stroke-miterlimit="10" stroke-width="1" stroke-dasharray="7"/>
          </g>
        </g>
        <g id="Group_3017" data-name="Group 3017" transform="translate(568.5 534.5) rotate(-135)">
          <g id="Group_2616-2" data-name="Group 2616" transform="translate(0 0)">
            <path id="Path_3478-2" data-name="Path 3478" d="M0,273.4c73.687-15.817,92.878-84.153,132.458-91.3,79.73-14.4,103.65,30.349,93.619,53.5-9.555,22.055-40.765,36.246-90.533,26.749-39.1-7.46-72.126-42.209-79.99-81.533C19.8,2.059,248.2,0,248.2,0" transform="translate(0 0)" fill="none" stroke="#20154c" stroke-miterlimit="10" stroke-width="1" stroke-dasharray="7"/>
          </g>
        </g>
        <g id="Group_2955" data-name="Group 2955" transform="translate(123)">
          <g id="Group_2954" data-name="Group 2954">
            <rect id="Rectangle_1602" data-name="Rectangle 1602" width="425" height="642" rx="25" transform="translate(150 261)"/>
            <path id="Path_4195" data-name="Path 4195" d="M25.333,0H392.156a25.333,25.333,0,0,1,25.333,25.333V609.007a25.333,25.333,0,0,1-25.333,25.333H25.333A25.333,25.333,0,0,1,0,609.007V25.333A25.333,25.333,0,0,1,25.333,0Z" transform="translate(154 264.83)" fill="#044884"/>
            <g id="Group_2916" data-name="Group 2916" transform="translate(170.531 869.3)">
              <circle id="Ellipse_34" data-name="Ellipse 34" cx="3.946" cy="3.946" r="3.946" transform="translate(373.901)" fill="#f6f6f6"/>
              <circle id="Ellipse_35" data-name="Ellipse 35" cx="3.946" cy="3.946" r="3.946" transform="translate(342.743)" fill="#f6f6f6"/>
              <circle id="Ellipse_36" data-name="Ellipse 36" cx="3.946" cy="3.946" r="3.946" transform="translate(311.584)" fill="#f6f6f6"/>
              <circle id="Ellipse_37" data-name="Ellipse 37" cx="3.946" cy="3.946" r="3.946" transform="translate(280.426)" fill="#f6f6f6"/>
              <path id="Path_4175" data-name="Path 4175" d="M268.806,286.59a3.946,3.946,0,1,1,3.945,3.947A3.944,3.944,0,0,1,268.806,286.59Z" transform="translate(-19.538 -282.644)" fill="#f6f6f6"/>
              <path id="Path_4176" data-name="Path 4176" d="M257.794,286.59a3.946,3.946,0,1,1,3.947,3.947A3.947,3.947,0,0,1,257.794,286.59Z" transform="translate(-39.685 -282.644)" fill="#f6f6f6"/>
              <circle id="Ellipse_38" data-name="Ellipse 38" cx="3.946" cy="3.946" r="3.946" transform="translate(186.951)" fill="#f6f6f6"/>
              <circle id="Ellipse_39" data-name="Ellipse 39" cx="3.946" cy="3.946" r="3.946" transform="translate(155.792)" fill="#f6f6f6"/>
              <circle id="Ellipse_40" data-name="Ellipse 40" cx="3.946" cy="3.946" r="3.946" transform="translate(124.634)" fill="#f6f6f6"/>
              <circle id="Ellipse_41" data-name="Ellipse 41" cx="3.946" cy="3.946" r="3.946" transform="translate(93.475)" fill="#f6f6f6"/>
              <circle id="Ellipse_42" data-name="Ellipse 42" cx="3.946" cy="3.946" r="3.946" transform="translate(62.317 0)" fill="#f6f6f6"/>
              <circle id="Ellipse_43" data-name="Ellipse 43" cx="3.946" cy="3.946" r="3.946" transform="translate(31.158)" fill="#f6f6f6"/>
              <circle id="Ellipse_44" data-name="Ellipse 44" cx="3.946" cy="3.946" r="3.946" fill="#f6f6f6"/>
            </g>
            <g id="Group_2917" data-name="Group 2917" transform="translate(170.531 286.309)">
              <circle id="Ellipse_45" data-name="Ellipse 45" cx="3.946" cy="3.946" r="3.946" transform="translate(373.901 0.001)" fill="#f6f6f6"/>
              <circle id="Ellipse_46" data-name="Ellipse 46" cx="3.946" cy="3.946" r="3.946" transform="translate(342.743 0.001)" fill="#f6f6f6"/>
              <circle id="Ellipse_47" data-name="Ellipse 47" cx="3.946" cy="3.946" r="3.946" transform="translate(311.584 0.001)" fill="#f6f6f6"/>
              <circle id="Ellipse_48" data-name="Ellipse 48" cx="3.946" cy="3.946" r="3.946" transform="translate(280.426 0.001)" fill="#f6f6f6"/>
              <path id="Path_4177" data-name="Path 4177" d="M268.806,77.025a3.946,3.946,0,1,1,3.945,3.944A3.946,3.946,0,0,1,268.806,77.025Z" transform="translate(-19.538 -73.078)" fill="#f6f6f6"/>
              <path id="Path_4178" data-name="Path 4178" d="M257.794,77.025a3.946,3.946,0,1,1,3.947,3.944A3.949,3.949,0,0,1,257.794,77.025Z" transform="translate(-39.685 -73.078)" fill="#f6f6f6"/>
              <circle id="Ellipse_49" data-name="Ellipse 49" cx="3.946" cy="3.946" r="3.946" transform="translate(186.951 0.001)" fill="#f6f6f6"/>
              <circle id="Ellipse_50" data-name="Ellipse 50" cx="3.946" cy="3.946" r="3.946" transform="translate(155.792 0.001)" fill="#f6f6f6"/>
              <circle id="Ellipse_51" data-name="Ellipse 51" cx="3.946" cy="3.946" r="3.946" transform="translate(124.634 0.001)" fill="#f6f6f6"/>
              <circle id="Ellipse_52" data-name="Ellipse 52" cx="3.946" cy="3.946" r="3.946" transform="translate(93.475 0.001)" fill="#f6f6f6"/>
              <circle id="Ellipse_53" data-name="Ellipse 53" cx="3.946" cy="3.946" r="3.946" transform="translate(62.317 0.001)" fill="#f6f6f6"/>
              <circle id="Ellipse_54" data-name="Ellipse 54" cx="3.946" cy="3.946" r="3.946" transform="translate(31.158 0.001)" fill="#f6f6f6"/>
              <circle id="Ellipse_55" data-name="Ellipse 55" cx="3.946" cy="3.946" r="3.946" transform="translate(0 0.001)" fill="#f6f6f6"/>
            </g>
            <g id="Group_2949" data-name="Group 2949" transform="translate(21425 17243.992)">
              <g id="Group_2942" data-name="Group 2942" transform="translate(0 -43.193)">
                <g id="Group_2933" data-name="Group 2933">
                  <circle id="Ellipse_97" data-name="Ellipse 97" cx="19.949" cy="19.949" r="19.949" transform="translate(-21139 -16757)" fill="#fff"/>
                  <text id="_1" data-name="1" transform="translate(-21125 -16724)" font-size="50" font-family="Somar-Bold, Somar" font-weight="700"><tspan x="0" y="0">1</tspan></text>
                </g>
                <g id="Group_2934" data-name="Group 2934">
                  <circle id="Ellipse_98" data-name="Ellipse 98" cx="19.949" cy="19.949" r="19.949" transform="translate(-21082 -16757)" fill="#fff"/>
                  <text id="_2" data-name="2" transform="translate(-21072 -16724)" font-size="50" font-family="Somar-Bold, Somar" font-weight="700"><tspan x="0" y="0">2</tspan></text>
                </g>
                <g id="Group_2935" data-name="Group 2935">
                  <circle id="Ellipse_99" data-name="Ellipse 99" cx="19.949" cy="19.949" r="19.949" transform="translate(-21025 -16757)" fill="#fff"/>
                  <text id="_3" data-name="3" transform="translate(-21014 -16724)" font-size="50" font-family="Somar-Bold, Somar" font-weight="700"><tspan x="0" y="0">3</tspan></text>
                </g>
              </g>
              <g id="Group_2943" data-name="Group 2943" transform="translate(0 -43.193)">
                <g id="Group_2936" data-name="Group 2936">
                  <circle id="Ellipse_100" data-name="Ellipse 100" cx="19.949" cy="19.949" r="19.949" transform="translate(-21139 -16703)" fill="#fff"/>
                  <text id="_4" data-name="4" transform="translate(-21129 -16670)" font-size="50" font-family="Somar-Bold, Somar" font-weight="700"><tspan x="0" y="0">4</tspan></text>
                </g>
                <g id="Group_2938" data-name="Group 2938">
                  <circle id="Ellipse_101" data-name="Ellipse 101" cx="19.949" cy="19.949" r="19.949" transform="translate(-21082 -16703)" fill="#fff"/>
                  <text id="_5" data-name="5" transform="translate(-21072 -16670)" font-size="50" font-family="Somar-Bold, Somar" font-weight="700"><tspan x="0" y="0">5</tspan></text>
                </g>
                <g id="Group_2937" data-name="Group 2937">
                  <circle id="Ellipse_102" data-name="Ellipse 102" cx="19.949" cy="19.949" r="19.949" transform="translate(-21025 -16703)" fill="#fff"/>
                  <text id="_6" data-name="6" transform="translate(-21015 -16670)" font-size="50" font-family="Somar-Bold, Somar" font-weight="700"><tspan x="0" y="0">6</tspan></text>
                </g>
              </g>
              <g id="Group_2944" data-name="Group 2944" transform="translate(0 -43.193)">
                <g id="Group_2939" data-name="Group 2939">
                  <circle id="Ellipse_103" data-name="Ellipse 103" cx="19.949" cy="19.949" r="19.949" transform="translate(-21139 -16648)" fill="#fff"/>
                  <text id="_7" data-name="7" transform="translate(-21128 -16615)" font-size="50" font-family="Somar-Bold, Somar" font-weight="700"><tspan x="0" y="0">7</tspan></text>
                </g>
                <g id="Group_2940" data-name="Group 2940" transform="translate(0 3)">
                  <circle id="Ellipse_104" data-name="Ellipse 104" cx="19.949" cy="19.949" r="19.949" transform="translate(-21082 -16651)" fill="#fff"/>
                  <text id="_8" data-name="8" transform="translate(-21073 -16618)" font-size="50" font-family="Somar-Bold, Somar" font-weight="700"><tspan x="0" y="0">8</tspan></text>
                </g>
                <g id="Group_2941" data-name="Group 2941" transform="translate(0 3)">
                  <circle id="Ellipse_105" data-name="Ellipse 105" cx="19.949" cy="19.949" r="19.949" transform="translate(-21025 -16651)" fill="#fff"/>
                  <text id="_9" data-name="9" transform="translate(-21015 -16618)" font-size="50" font-family="Somar-Bold, Somar" font-weight="700"><tspan x="0" y="0">9</tspan></text>
                </g>
              </g>
              <g id="Group_2945" data-name="Group 2945" transform="translate(0 6.807)">
                <g id="Group_2939-2" data-name="Group 2939">
                  <circle id="Ellipse_103-2" data-name="Ellipse 103" cx="19.949" cy="19.949" r="19.949" transform="translate(-21139 -16647.807)" fill="#fff"/>
                  <text id="_" data-name="#" transform="translate(-21130 -16614.807)" font-size="50" font-family="Somar-Bold, Somar" font-weight="700"><tspan x="0" y="0">#</tspan></text>
                </g>
                <g id="Group_2940-2" data-name="Group 2940" transform="translate(0 3)">
                  <circle id="Ellipse_104-2" data-name="Ellipse 104" cx="19.949" cy="19.949" r="19.949" transform="translate(-21082 -16650.807)" fill="#fff"/>
                  <text id="_0" data-name="0" transform="translate(-21073 -16617.807)" font-size="50" font-family="Somar-Bold, Somar" font-weight="700"><tspan x="0" y="0">0</tspan></text>
                </g>
                <g id="Group_2941-2" data-name="Group 2941" transform="translate(0 3)">
                  <circle id="Ellipse_105-2" data-name="Ellipse 105" cx="19.949" cy="19.949" r="19.949" transform="translate(-21025 -16650.807)" fill="#fff"/>
                  <text id="_2-2" data-name="*" transform="translate(-21023 -16598.807)" font-size="97" font-family="Somar-Bold, Somar" font-weight="700"><tspan x="0" y="0">*</tspan></text>
                </g>
              </g>
            </g>
          </g>
          <g id="Group_2953" data-name="Group 2953" transform="translate(-0.324 3.59)">
            <g id="Group_2918" data-name="Group 2918" transform="translate(170.531 308.41)">
              <circle id="Ellipse_56" data-name="Ellipse 56" cx="3.946" cy="3.946" r="3.946" transform="translate(0 373.901)" fill="#f6f6f6"/>
              <circle id="Ellipse_57" data-name="Ellipse 57" cx="3.946" cy="3.946" r="3.946" transform="translate(0 342.743)" fill="#f6f6f6"/>
              <circle id="Ellipse_58" data-name="Ellipse 58" cx="3.946" cy="3.946" r="3.946" transform="translate(0 311.584)" fill="#f6f6f6"/>
              <circle id="Ellipse_59" data-name="Ellipse 59" cx="3.946" cy="3.946" r="3.946" transform="translate(0 280.426)" fill="#f6f6f6"/>
              <circle id="Ellipse_60" data-name="Ellipse 60" cx="3.946" cy="3.946" r="3.946" transform="translate(0 249.267)" fill="#f6f6f6"/>
              <circle id="Ellipse_61" data-name="Ellipse 61" cx="3.946" cy="3.946" r="3.946" transform="translate(0 218.109)" fill="#f6f6f6"/>
              <circle id="Ellipse_62" data-name="Ellipse 62" cx="3.946" cy="3.946" r="3.946" transform="translate(0 186.951)" fill="#f6f6f6"/>
              <circle id="Ellipse_63" data-name="Ellipse 63" cx="3.946" cy="3.946" r="3.946" transform="translate(0 155.792)" fill="#f6f6f6"/>
              <path id="Path_4179" data-name="Path 4179" d="M184.66,128.469a3.946,3.946,0,1,1-3.947,3.947A3.946,3.946,0,0,1,184.66,128.469Z" transform="translate(-180.713 -3.836)" fill="#f6f6f6"/>
              <circle id="Ellipse_64" data-name="Ellipse 64" cx="3.946" cy="3.946" r="3.946" transform="translate(0 93.475)" fill="#f6f6f6"/>
              <circle id="Ellipse_65" data-name="Ellipse 65" cx="3.946" cy="3.946" r="3.946" transform="translate(0 62.317)" fill="#f6f6f6"/>
              <circle id="Ellipse_66" data-name="Ellipse 66" cx="3.946" cy="3.946" r="3.946" transform="translate(0 31.158)" fill="#f6f6f6"/>
              <circle id="Ellipse_67" data-name="Ellipse 67" cx="3.946" cy="3.946" r="3.946" transform="translate(0)" fill="#f6f6f6"/>
            </g>
            <g id="Group_2919" data-name="Group 2919" transform="translate(170.531 714.414)">
              <circle id="Ellipse_68" data-name="Ellipse 68" cx="3.946" cy="3.946" r="3.946" transform="translate(0 124.634)" fill="#f6f6f6"/>
              <circle id="Ellipse_69" data-name="Ellipse 69" cx="3.946" cy="3.946" r="3.946" transform="translate(0 93.475)" fill="#f6f6f6"/>
              <circle id="Ellipse_70" data-name="Ellipse 70" cx="3.946" cy="3.946" r="3.946" transform="translate(0 62.317)" fill="#f6f6f6"/>
              <circle id="Ellipse_71" data-name="Ellipse 71" cx="3.946" cy="3.946" r="3.946" transform="translate(0 31.158)" fill="#f6f6f6"/>
              <circle id="Ellipse_72" data-name="Ellipse 72" cx="3.946" cy="3.946" r="3.946" fill="#f6f6f6"/>
            </g>
            <g id="Group_2920" data-name="Group 2920" transform="translate(544.432 714.414)">
              <circle id="Ellipse_73" data-name="Ellipse 73" cx="3.946" cy="3.946" r="3.946" transform="translate(0 124.634)" fill="#f6f6f6"/>
              <circle id="Ellipse_74" data-name="Ellipse 74" cx="3.946" cy="3.946" r="3.946" transform="translate(0 93.475)" fill="#f6f6f6"/>
              <circle id="Ellipse_75" data-name="Ellipse 75" cx="3.946" cy="3.946" r="3.946" transform="translate(0 62.317)" fill="#f6f6f6"/>
              <circle id="Ellipse_76" data-name="Ellipse 76" cx="3.946" cy="3.946" r="3.946" transform="translate(0 31.158)" fill="#f6f6f6"/>
              <circle id="Ellipse_77" data-name="Ellipse 77" cx="3.946" cy="3.946" r="3.946" fill="#f6f6f6"/>
            </g>
            <g id="Group_2921" data-name="Group 2921" transform="translate(544.432 308.41)">
              <circle id="Ellipse_78" data-name="Ellipse 78" cx="3.946" cy="3.946" r="3.946" transform="translate(0 373.901)" fill="#f6f6f6"/>
              <circle id="Ellipse_79" data-name="Ellipse 79" cx="3.946" cy="3.946" r="3.946" transform="translate(0 342.743)" fill="#f6f6f6"/>
              <circle id="Ellipse_80" data-name="Ellipse 80" cx="3.946" cy="3.946" r="3.946" transform="translate(0 311.584)" fill="#f6f6f6"/>
              <circle id="Ellipse_81" data-name="Ellipse 81" cx="3.946" cy="3.946" r="3.946" transform="translate(0 280.426)" fill="#f6f6f6"/>
              <circle id="Ellipse_82" data-name="Ellipse 82" cx="3.946" cy="3.946" r="3.946" transform="translate(0 249.267)" fill="#f6f6f6"/>
              <circle id="Ellipse_83" data-name="Ellipse 83" cx="3.946" cy="3.946" r="3.946" transform="translate(0 218.109)" fill="#f6f6f6"/>
              <circle id="Ellipse_84" data-name="Ellipse 84" cx="3.946" cy="3.946" r="3.946" transform="translate(0 186.951)" fill="#f6f6f6"/>
              <circle id="Ellipse_85" data-name="Ellipse 85" cx="3.946" cy="3.946" r="3.946" transform="translate(0 155.792)" fill="#f6f6f6"/>
              <path id="Path_4180" data-name="Path 4180" d="M316.8,128.469a3.946,3.946,0,1,1-3.947,3.947A3.946,3.946,0,0,1,316.8,128.469Z" transform="translate(-312.852 -3.836)" fill="#f6f6f6"/>
              <circle id="Ellipse_86" data-name="Ellipse 86" cx="3.946" cy="3.946" r="3.946" transform="translate(0 93.475)" fill="#f6f6f6"/>
              <circle id="Ellipse_87" data-name="Ellipse 87" cx="3.946" cy="3.946" r="3.946" transform="translate(0 62.317)" fill="#f6f6f6"/>
              <circle id="Ellipse_88" data-name="Ellipse 88" cx="3.946" cy="3.946" r="3.946" transform="translate(0 31.158)" fill="#f6f6f6"/>
              <circle id="Ellipse_89" data-name="Ellipse 89" cx="3.946" cy="3.946" r="3.946" transform="translate(0)" fill="#f6f6f6"/>
            </g>
          </g>
        </g>
        <g id="Group_2951" data-name="Group 2951" transform="translate(23043.455 18415.047)">
          <g id="Group_2872" data-name="Group 2872" transform="translate(-22389.455 -17865.74)">
            <path id="Path_4137" data-name="Path 4137" d="M1546.378,802.92a1.416,1.416,0,0,1-1.2-.655c-6.735-10.545-13.35-22.253-11.344-29.145a6.669,6.669,0,0,1,3.737-4.342,7.48,7.48,0,0,1,5.824-.214l-.074-.159a7.507,7.507,0,1,1,13.608-6.341l2.1,4.5a7.639,7.639,0,0,1,3.913-4.239c5.9-2.633,9.626,3.518,10.853,5.539.947,1.562,2.091,3.343,3.414,5.4,1.93,3.007,4.118,6.416,6.293,10.083a1.418,1.418,0,0,1-2.439,1.446c-2.149-3.623-4.322-7.01-6.24-10-1.278-1.991-2.485-3.873-3.452-5.465-2.564-4.228-4.74-5.55-7.272-4.42a4.811,4.811,0,0,0-2.453,2.748,4.673,4.673,0,0,0,.039,3.575l0,.007,2.465,5.292a1.418,1.418,0,0,1-1.189,2.013c-.1.007-.206.017-.309.027l-.114.01a1.41,1.41,0,0,1-1.416-.813l-6.762-14.513a4.671,4.671,0,1,0-8.469,3.946l6.722,14.428a1.418,1.418,0,0,1-.3,1.622c-.166.16-.326.323-.485.488a1.418,1.418,0,0,1-2.3-.386l-4.543-9.75a4.678,4.678,0,0,0-6.208-2.262,3.893,3.893,0,0,0-2.212,2.564c-1.917,6.586,7.475,21.29,11.01,26.826a1.418,1.418,0,0,1-1.193,2.181Z" transform="translate(-1533.473 -757.723)" fill="#090928"/>
          </g>
          <g id="Group_2890" data-name="Group 2890" transform="translate(-22240.758 -18027.271)">
            <path id="Path_4157" data-name="Path 4157" d="M1904.817,717.683h-1.468a2.552,2.552,0,0,1-1.084-4.863v-1.682a2.552,2.552,0,0,1,5.1,0v3.992A2.552,2.552,0,0,1,1904.817,717.683Zm-15.12,0h-5.462a2.552,2.552,0,0,1,0-5.1h5.462a2.552,2.552,0,0,1,0,5.1Zm-19.114,0h-5.461a2.552,2.552,0,0,1,0-5.1h5.461a2.552,2.552,0,0,1,0,5.1Zm34.233-17.645a2.552,2.552,0,0,1-2.552-2.552v-5.461a2.552,2.552,0,0,1,5.1,0v5.461A2.552,2.552,0,0,1,1904.817,700.038Zm0-19.113a2.552,2.552,0,0,1-2.552-2.552v-5.461a2.552,2.552,0,1,1,5.1,0v5.461A2.552,2.552,0,0,1,1904.817,680.925Zm0-19.113a2.551,2.551,0,0,1-2.552-2.552V653.8a2.552,2.552,0,0,1,5.1,0v5.461A2.552,2.552,0,0,1,1904.817,661.811Zm0-19.113a2.552,2.552,0,0,1-2.552-2.552v-5.461a2.552,2.552,0,1,1,5.1,0v5.461A2.552,2.552,0,0,1,1904.817,642.7Zm0-19.113a2.551,2.551,0,0,1-2.552-2.552v-5.461a2.552,2.552,0,0,1,5.1,0v5.461A2.552,2.552,0,0,1,1904.817,623.585Zm0-19.113a2.551,2.551,0,0,1-2.552-2.552v-5.461a2.552,2.552,0,0,1,5.1,0v5.461A2.552,2.552,0,0,1,1904.817,604.471Zm0-19.113a2.551,2.551,0,0,1-2.552-2.552v-5.461a2.552,2.552,0,0,1,5.1,0v5.461A2.552,2.552,0,0,1,1904.817,585.359Zm0-19.113a2.551,2.551,0,0,1-2.552-2.552v-5.461a2.552,2.552,0,0,1,5.1,0v5.461A2.552,2.552,0,0,1,1904.817,566.246Zm0-19.113a2.551,2.551,0,0,1-2.552-2.552V539.12a2.552,2.552,0,1,1,5.1,0v5.461A2.552,2.552,0,0,1,1904.817,547.132Zm0-19.113a2.551,2.551,0,0,1-2.552-2.552v-5.461a2.552,2.552,0,1,1,5.1,0v5.461A2.552,2.552,0,0,1,1904.817,528.019Zm0-19.114a2.551,2.551,0,0,1-2.552-2.552v-5.461a2.552,2.552,0,0,1,5.1,0v5.461A2.552,2.552,0,0,1,1904.817,508.906Zm-5.766-13.346h-5.461a2.552,2.552,0,0,1,0-5.1h5.461a2.552,2.552,0,1,1,0,5.1Zm-19.113,0h-5.461a2.552,2.552,0,1,1,0-5.1h5.461a2.552,2.552,0,0,1,0,5.1Zm-19.113,0h-5.461a2.552,2.552,0,1,1,0-5.1h5.461a2.552,2.552,0,1,1,0,5.1Zm-19.113,0h-5.461a2.552,2.552,0,1,1,0-5.1h5.461a2.552,2.552,0,1,1,0,5.1Zm-19.114,0h-5.461a2.552,2.552,0,1,1,0-5.1h5.461a2.552,2.552,0,1,1,0,5.1Zm-19.113,0h-5.461a2.552,2.552,0,0,1,0-5.1h5.461a2.552,2.552,0,1,1,0,5.1Zm-19.113,0h-2.315a2.552,2.552,0,0,1,0-5.1h2.315a2.552,2.552,0,1,1,0,5.1Z" transform="translate(-1779.505 -490.456)" fill="#c4ddff"/>
          </g>
          <g id="Group_2898" data-name="Group 2898" transform="translate(-22316.9 -18079.555)">
            <g id="Group_2894" data-name="Group 2894" transform="translate(0 7.177)">
              <g id="Group_2893" data-name="Group 2893">
                <g id="Group_2892" data-name="Group 2892">
                  <g id="Group_2891" data-name="Group 2891">
                    <path id="Path_4158" data-name="Path 4158" d="M1751.853,434.682a48.694,48.694,0,1,1,48.694-48.694A48.748,48.748,0,0,1,1751.853,434.682Zm0-92.851a44.157,44.157,0,1,0,44.157,44.158A44.208,44.208,0,0,0,1751.853,341.83Z" transform="translate(-1703.159 -337.294)"/>
                  </g>
                </g>
              </g>
            </g>
            <g id="Group_2897" data-name="Group 2897" transform="translate(28.057 0)">
              <g id="Group_2896" data-name="Group 2896">
                <g id="Group_2895" data-name="Group 2895">
                  <path id="Path_4159" data-name="Path 4159" d="M1767.861,398.388a2.268,2.268,0,0,1-1.665-.727l-16.01-17.288a2.268,2.268,0,0,1,3.328-3.082l14.205,15.34,52.185-66.346a2.268,2.268,0,0,1,3.566,2.8l-53.827,68.433a2.27,2.27,0,0,1-1.692.864Z" transform="translate(-1749.582 -325.419)" fill="#62cce6"/>
                </g>
              </g>
            </g>
          </g>
          <g id="Group_2866" data-name="Group 2866" transform="translate(-22366.588 -17917.719)">
            <g id="Group_2856" data-name="Group 2856" transform="translate(3.619 96.635)">
              <path id="Path_4115" data-name="Path 4115" d="M1647.656,925.9a59.416,59.416,0,0,1-38.56-14.171c-14.8-12.606-25.333-31.923-31.308-57.414a18.484,18.484,0,0,1,35.991-8.438c4.136,17.643,10.625,30.331,19.289,37.71a22.329,22.329,0,0,0,20.632,4.535,23.227,23.227,0,0,0,16.081-14.971l9.357-26.921a18.484,18.484,0,1,1,34.919,12.136l-9.358,26.922a60.468,60.468,0,0,1-57.044,40.612Z" transform="translate(-1577.296 -831.611)" fill="#035aa7"/>
            </g>
            <path id="Path_4116" data-name="Path 4116" d="M1786.307,692.147a13,13,0,0,0,1.023-11.059c-2.615-7.446-11.2-11.069-18.537-8.6-4.461,1.5-7.428,5.581-11.474,7.808-2.912,1.6-6.612,1-9.788,1.1-7.617.238-16.338,1.662-21.741,7.553-4.535,4.945-7.778,14.812-1.092,19.438,3.631,2.512,8.783,1.078,12.027-1.414,3.447-2.648,4.486-7.493,8.406-9.66a11.671,11.671,0,0,1,5.813-1.272,18.315,18.315,0,0,1,16.218,10.879c1.855,4.36,2.3,9.883,6.3,12.413,4.312,2.725,10.378-.121,11.441-4.995.919-4.216-1.23-8.675-2.094-12.728a22.77,22.77,0,0,1-.448-2.935c-.2-2.539,1.879-3.811,3.258-5.563A11.059,11.059,0,0,0,1786.307,692.147Z" transform="translate(-1630.483 -671.72)" fill="#090928"/>
            <path id="Path_4117" data-name="Path 4117" d="M1571.307,1310.4h22.822c7.013,0,13.86-3.037,19.719-6.668,4.7-2.911,11.755-8.769,17.5-5.242,3.445,2.115,5.8,6.066,7.867,9.424a5.218,5.218,0,0,0,4.445,2.486h1.183a7.333,7.333,0,0,0,7.32-7.759l-1.881-32.408-46.066-6.084C1586.529,1275.1,1576.648,1292.035,1571.307,1310.4Z" transform="translate(-1571.307 -906.099)"/>
            <path id="Path_4118" data-name="Path 4118" d="M1894.967,1310.4h-22.823c-7.012,0-13.859-3.037-19.718-6.668-4.7-2.911-11.755-8.769-17.5-5.242-3.445,2.115-5.8,6.066-7.867,9.424a5.219,5.219,0,0,1-4.445,2.486h-1.183a7.333,7.333,0,0,1-7.321-7.759l1.881-32.408,46.067-6.084C1879.745,1275.1,1889.625,1292.035,1894.967,1310.4Z" transform="translate(-1667.359 -906.099)"/>
            <g id="Group_2857" data-name="Group 2857" transform="translate(117.074 171.726)">
              <path id="Path_4119" data-name="Path 4119" d="M1843.034,1139.732,1812.142,975.24a23.765,23.765,0,1,0-46.713,8.773l30.892,164.492C1798.466,1159.921,1845.457,1152.631,1843.034,1139.732Z" transform="translate(-1765.016 -955.856)" fill="#ea676c"/>
            </g>
            <g id="Group_2858" data-name="Group 2858" transform="translate(32.529 180.375)">
              <path id="Path_4120" data-name="Path 4120" d="M1671.207,1155.429l41.754-155.322a23.765,23.765,0,1,0-45.9-12.339l-41.754,155.322C1621.9,1155.764,1668.355,1166.037,1671.207,1155.429Z" transform="translate(-1625.129 -970.166)" fill="#ea676c"/>
            </g>
            <path id="Path_4121" data-name="Path 4121" d="M1688.168,932.053q55.232,16.1,110.682,0c2.1-.608.54-27.1.329-30.315a144.434,144.434,0,0,0-4.886-28.579c-6.733-24.6-20.235-48.568-49.089-48.568-23.413,0-37.775,16.664-45.358,37.225a205.588,205.588,0,0,0-8.8,31.945C1690.282,897.743,1685.1,931.158,1688.168,932.053Z" transform="translate(-1617.159 -732.199)" fill="#035aa7"/>
            <path id="Path_4122" data-name="Path 4122" d="M1787.132,812.129h-38.425l-3.928,22.18h46.28Z" transform="translate(-1639.936 -727.269)" fill="#035aa7"/>
            <g id="Group_2859" data-name="Group 2859" transform="translate(35.377 176.637)">
              <path id="Path_4123" data-name="Path 4123" d="M1663.283,1008c-12.446-1.278-25.729-3.373-29.882-9.228a6.668,6.668,0,0,1-1.078-5.627,7.452,7.452,0,0,1,3.373-4.651l.074-.045-.166-.04a7.507,7.507,0,0,1,3.492-14.6l4.828,1.154a7.639,7.639,0,0,1-.889-5.7c1.6-6.255,8.739-5.355,11.084-5.059,1.814.228,3.921.44,6.362.685,3.554.357,7.583.762,11.8,1.336l-.383,2.81c-4.173-.568-8.174-.97-11.706-1.325-2.357-.236-4.582-.46-6.432-.693-4.908-.619-7.294.264-7.983,2.951a4.814,4.814,0,0,0,.628,3.629,4.677,4.677,0,0,0,2.825,2.192h0c.222.052,1.173.279,5.687,1.359l2.019.483-1.185,1.7c-.056.08-.108.161-.161.242l-.616.943-16.543-3.955a4.671,4.671,0,1,0-2.172,9.087l16.469,3.938.094,1.011c.022.228.05.454.08.679l.277,2.049-12.473-2.982a4.672,4.672,0,0,0-5.63,3.458,3.9,3.9,0,0,0,.634,3.327c3.968,5.6,21.325,7.376,27.859,8.048Z" transform="translate(-1629.842 -963.982)" fill="#090928"/>
            </g>
            <g id="Group_2860" data-name="Group 2860" transform="translate(86.354 105.77)">
              <path id="Path_4124" data-name="Path 4124" d="M1772.167,975.206q-1.626,0-3.281-.059c-18.431-.657-35.068-6.565-43.345-10.029a18.483,18.483,0,0,1,14.27-34.1c17.777,7.438,41.565,10.983,51.784,1.192,4.885-4.681,6.98-12.483,5.336-19.879-2.314-10.413-10.916-21.3-25.568-32.371a18.484,18.484,0,0,1,22.281-29.5c22.161,16.739,35.04,34.353,39.374,53.848,4.454,20.04-1.619,40.958-15.847,54.592C1806,969.6,1790.5,975.206,1772.167,975.206Z" transform="translate(-1714.188 -846.725)" fill="#035aa7"/>
            </g>
            <g id="Group_2863" data-name="Group 2863" transform="translate(84.931 148.748)">
              <g id="Group_2861" data-name="Group 2861" transform="translate(19.032 76.933)">
                <path id="Path_4125" data-name="Path 4125" d="M1783.693,1055.117c-1.1,0-2.224-.02-3.332-.06-14.308-.51-27.522-4.181-36.089-7.171a1.418,1.418,0,1,1,.935-2.677,123.457,123.457,0,0,0,35.255,7.014,83.1,83.1,0,0,0,15.117-.8,1.418,1.418,0,1,1,.418,2.8A83.771,83.771,0,0,1,1783.693,1055.117Z" transform="translate(-1743.322 -1045.13)"/>
              </g>
              <g id="Group_2862" data-name="Group 2862">
                <path id="Path_4126" data-name="Path 4126" d="M1732.282,997.606a1.415,1.415,0,0,1-.467-.08c-2.654-.926-5.262-1.924-7.753-2.966a19.9,19.9,0,0,1,15.365-36.717c17.362,7.265,40.5,10.824,50.256,1.476,4.535-4.346,6.471-11.626,4.932-18.547-1.469-6.606-5.647-13.515-12.419-20.534a1.418,1.418,0,0,1,2.041-1.969c7.14,7.4,11.562,14.763,13.146,21.888,1.749,7.867-.5,16.192-5.739,21.208-10.682,10.234-35.124,6.7-53.313-.907a17.066,17.066,0,1,0-13.176,31.486c2.438,1.021,4.993,2,7.593,2.905a1.418,1.418,0,0,1-.467,2.757Z" transform="translate(-1711.832 -917.837)"/>
              </g>
            </g>
            <g id="Group_2865" data-name="Group 2865" transform="translate(89.632 21.056)">
              <g id="Group_2864" data-name="Group 2864">
                <path id="Path_4127" data-name="Path 4127" d="M1729.9,714.2a12.731,12.731,0,0,1,1.707-.349,29.49,29.49,0,0,0,9.006-2.826,20.7,20.7,0,0,1,15.312-1.174c4.879,1.521,8.387,4.967,11.339,8.675,2.537,3.186,4.6,6.084,7.6,8.446a12.719,12.719,0,0,1,1.955,1.917,10.683,10.683,0,0,1-.964,14.722,10.413,10.413,0,0,1-12.194,1.487,20.774,20.774,0,0,1-34.083-10.406,10.381,10.381,0,0,1-7.381-7.94A10.692,10.692,0,0,1,1729.9,714.2Z" transform="translate(-1720.543 -707.486)" fill="#fff"/>
                <path id="Path_4128" data-name="Path 4128" d="M1748.765,750.933a22.144,22.144,0,0,1-21.282-16.055,11.714,11.714,0,0,1-7.6-8.76,12.041,12.041,0,0,1,8.71-14.211h0a14.156,14.156,0,0,1,1.9-.388,28.064,28.064,0,0,0,8.571-2.694,22.1,22.1,0,0,1,16.358-1.254c5.594,1.744,9.365,5.8,12.026,9.145.394.494.776.982,1.152,1.462a37.568,37.568,0,0,0,6.219,6.753,14.151,14.151,0,0,1,2.173,2.129,12.17,12.17,0,0,1-1.1,16.665,11.753,11.753,0,0,1-12.944,2.134A22.344,22.344,0,0,1,1748.765,750.933Zm-19.416-36.294a9.235,9.235,0,0,0-6.692,10.892,8.936,8.936,0,0,0,6.382,6.869l.79.224.2.8a19.232,19.232,0,0,0,13.025,13.811,19.455,19.455,0,0,0,18.733-4.115l.748-.674.883.484a8.975,8.975,0,0,0,10.55-1.285,9.221,9.221,0,0,0,.832-12.78,11.308,11.308,0,0,0-1.737-1.7,40.249,40.249,0,0,1-6.7-7.232q-.557-.712-1.139-1.446c-2.408-3.024-5.8-6.689-10.652-8.2a19.275,19.275,0,0,0-14.266,1.093,30.877,30.877,0,0,1-9.442,2.958,11.36,11.36,0,0,0-1.517.311Z" transform="translate(-1719.612 -706.558)" fill="#090928"/>
              </g>
            </g>
            <path id="Path_4129" data-name="Path 4129" d="M1734.447,746.813l.239.2a9.721,9.721,0,0,0,10.1,1.362,9.047,9.047,0,0,1,11.408,3.716,9.485,9.485,0,0,0,9.084,4.54l.152-.015a3.773,3.773,0,0,1,3.286,6.126,22.694,22.694,0,0,1-24.537,7.563h0a22.7,22.7,0,0,1-15.908-20.456A3.763,3.763,0,0,1,1734.447,746.813Z" transform="translate(-1633.402 -701.079)" fill="#090928"/>
            <path id="Path_4130" data-name="Path 4130" d="M1763.439,838.11h10.336a5.447,5.447,0,0,0,5.447-5.447h0a5.447,5.447,0,0,0-5.447-5.447h-10.336a5.447,5.447,0,0,0-5.447,5.447h0A5.447,5.447,0,0,0,1763.439,838.11Z" transform="translate(-1645.164 -733.237)" fill="#090928"/>
            <path id="Path_4131" data-name="Path 4131" d="M1770.971,837.872c-3.2.7-5.33,44.9,5.482,76.752l-12.025-13.255-14.729,7c-1.323-10.623,8.742-77.279,15.252-71.823Z" transform="translate(-1641.836 -736.803)" fill="#090928"/>
          </g>
        </g>
        <g id="Group_2965" data-name="Group 2965" transform="translate(-322.695 -688.963)">
          <path id="Path_4203" data-name="Path 4203" d="M568.474,1192.022h-9.036a4.223,4.223,0,0,1,0-8.446h9.036a4.223,4.223,0,0,1,0,8.446Zm-31.624,0h-9.036a4.223,4.223,0,0,1,0-8.446h9.036a4.223,4.223,0,0,1,0,8.446Zm-31.625,0H496.19a4.223,4.223,0,0,1,0-8.446h9.035a4.223,4.223,0,0,1,0,8.446Zm-12.232-19.394a4.222,4.222,0,0,1-4.222-4.222v-9.035a4.222,4.222,0,1,1,8.444,0v9.035A4.222,4.222,0,0,1,492.993,1172.628Zm0-31.623a4.223,4.223,0,0,1-4.222-4.223v-9.035a4.222,4.222,0,0,1,8.444,0v9.035A4.223,4.223,0,0,1,492.993,1141.005Zm0-31.625a4.223,4.223,0,0,1-4.222-4.223v-9.035a4.222,4.222,0,0,1,8.444,0v9.035A4.223,4.223,0,0,1,492.993,1109.38Zm0-31.625a4.222,4.222,0,0,1-4.222-4.222V1064.5a4.222,4.222,0,1,1,8.444,0v9.035A4.222,4.222,0,0,1,492.993,1077.755Zm0-31.623a4.223,4.223,0,0,1-4.222-4.223v-9.036a4.222,4.222,0,1,1,8.444,0v9.036A4.222,4.222,0,0,1,492.993,1046.132Zm0-31.625a4.223,4.223,0,0,1-4.222-4.223v-9.035a4.222,4.222,0,1,1,8.444,0v9.035A4.223,4.223,0,0,1,492.993,1014.507Zm0-31.625a4.222,4.222,0,0,1-4.222-4.222v-9.036a4.222,4.222,0,1,1,8.444,0v9.036A4.222,4.222,0,0,1,492.993,982.882Zm0-31.625a4.222,4.222,0,0,1-4.222-4.222V938a4.222,4.222,0,1,1,8.444,0v9.035A4.222,4.222,0,0,1,492.993,951.257Zm0-31.623a4.223,4.223,0,0,1-4.222-4.223v-7.282a4.223,4.223,0,0,1,4.222-4.223h1.753a4.223,4.223,0,0,1,2.469,7.649v3.856A4.223,4.223,0,0,1,492.993,919.634Zm64.719-7.282H548.96a4.223,4.223,0,0,1,0-8.446h8.752a4.223,4.223,0,0,1,0,8.446Zm-31.341,0h-9.036a4.223,4.223,0,0,1,0-8.446h9.036a4.223,4.223,0,0,1,0,8.446Z" fill="#c4ddff"/>
        </g>
        <g id="Group_3003" data-name="Group 3003" transform="translate(-413.725 -897.988)">
          <g id="Group_3002" data-name="Group 3002" transform="translate(525.671 1631.297)">
            <g id="Group_2994" data-name="Group 2994" transform="translate(107.459 29.542)">
              <g id="Group_2993" data-name="Group 2993">
                <g id="Group_2992" data-name="Group 2992">
                  <path id="Path_4219" data-name="Path 4219" d="M846.741,1834.6a1.447,1.447,0,0,1-.6-2.763c23.425-10.7,29.593-32.389,36.122-55.35,6.422-22.583,13.063-45.935,37.706-57.191a1.446,1.446,0,1,1,1.2,2.631c-23.427,10.7-29.595,32.389-36.125,55.351-6.422,22.582-13.063,45.933-37.7,57.19A1.44,1.44,0,0,1,846.741,1834.6Z" transform="translate(-845.294 -1719.165)" fill="#62cce6"/>
                </g>
                <path id="Path_4220" data-name="Path 4220" d="M1021.408,1745.4c2.041,1.7,3.065,2.555,5.119,4.265,1.516,1.261,4.195.812,6.247-.934.083-.07.165-.143.245-.216h0c2.807-2.563,3.057-5.625-.123-6.253-2.5-.5-3.758-.741-6.27-1.23A38.745,38.745,0,0,0,1021.408,1745.4Z" transform="translate(-962.197 -1733.68)" fill="#62cce6"/>
                <path id="Path_4221" data-name="Path 4221" d="M1007.911,1732.814c-2.266-1.484-3.4-2.227-5.681-3.716-1.68-1.1-1.58-3.514.644-5.22q.135-.1.277-.2h0c3.315-2.307,8.042-2.033,8.634.223.467,1.777.736,2.687,1.344,4.547A38.746,38.746,0,0,0,1007.911,1732.814Z" transform="translate(-948.7 -1721.094)" fill="#62cce6"/>
                <path id="Path_4222" data-name="Path 4222" d="M989.638,1786.579c2.549,2,3.827,3,6.391,5.008,1.891,1.48,4.378.719,5.711-1.708q.081-.147.156-.3h0c1.385-2.784,1.254-7.329-2.487-8.112l-6.33-.965A52.539,52.539,0,0,0,989.638,1786.579Z" transform="translate(-941.108 -1759.879)" fill="#62cce6"/>
                <path id="Path_4223" data-name="Path 4223" d="M972.357,1771.171c-2.7-1.7-4.047-2.558-6.756-4.268a4.969,4.969,0,0,1-1.19-6.743q.09-.146.189-.288h0c1.861-2.62,6.269-3.927,8.172-.584,1.144,2.285,1.75,3.447,3.026,5.805A52.521,52.521,0,0,0,972.357,1771.171Z" transform="translate(-923.827 -1744.471)" fill="#62cce6"/>
                <path id="Path_4224" data-name="Path 4224" d="M931.061,1800.606c.049-.139.106-.278.164-.414,1.747-4.224,7.228-5.445,9.809-1.241,2.019,3.2,3.072,4.827,5.259,8.114,3.2.422,4.777.627,7.9,1.027,4.848,1.209,6.064,7.139,5.276,11.423-.034.147-.071.29-.111.432-.985,3.49-3.938,4.608-6.649,2.6-3.054-2.263-5.645-7.189-8.7-9.455-3.15-1.92-6.763-1.176-9.915-3.093A8.178,8.178,0,0,1,931.061,1800.606Z" transform="translate(-901.926 -1770.396)" fill="#62cce6"/>
                <path id="Path_4225" data-name="Path 4225" d="M915.2,1858.68c.027-.132.06-.267.1-.4,1.1-4.456,6.219-5.3,8.94-1.736,2.432,2.958,3.676,4.447,6.216,7.442,3.066.23,4.574.338,7.547.54,4.645.909,6.822,6.209,6.6,10.51q-.023.207-.056.406c-.541,3.285-3.353,4.386-6.161,2.646-3.165-1.961-6.888-6.819-10.051-8.784-3.226-1.643-5.9-.39-9.123-2.031A8.176,8.176,0,0,1,915.2,1858.68Z" transform="translate(-891.603 -1808.886)" fill="#62cce6"/>
                <path id="Path_4226" data-name="Path 4226" d="M902.014,1923.605q.016-.164.042-.327c.617-3.951,5.014-4.818,7.815-2.439,2.583,2.081,3.888,3.122,6.523,5.2,2.8-.173,4.181-.265,6.894-.454,3.968.067,6.952,3.772,7.091,7.565,0,.11-.008.219-.018.325-.228,2.64-2.779,3.8-5.481,2.749-3.049-1.18-5.322-4.26-8.37-5.444-3.691-1.108-6.314.236-10.019-.874A6.3,6.3,0,0,1,902.014,1923.605Z" transform="translate(-882.929 -1852.162)" fill="#62cce6"/>
                <path id="Path_4227" data-name="Path 4227" d="M867.081,1964.656q.084-.177.18-.35c2.285-4.5,8.438-4.108,11.714-1.189q3.665,3.563,7.37,7.088c3.957.355,5.891.519,9.68.82,4.67.261,8.453,5.349,7.411,9.816a3.571,3.571,0,0,1-.136.354c-1.5,3.218-5.883,3.282-8.764,1.854-3.859-1.9-7.793-6.355-11.649-8.264-4.01-1.64-7.945-.735-11.956-2.372C867.372,1970.961,865.7,1967.575,867.081,1964.656Z" transform="translate(-859.436 -1879.64)" fill="#62cce6"/>
              </g>
            </g>
            <g id="Group_2998" data-name="Group 2998" transform="translate(72.441)">
              <g id="Group_2997" data-name="Group 2997">
                <g id="Group_2995" data-name="Group 2995" transform="translate(15.181)">
                  <path id="Path_4228" data-name="Path 4228" d="M794.922,1783.294a1.479,1.479,0,0,1-.3-.031,1.447,1.447,0,0,1-1.117-1.714,129.732,129.732,0,0,0,.1-51.55c-.7-3.656-1.507-7.4-2.284-11.015-2.739-12.756-5.571-25.947-4.948-39.111a121.71,121.71,0,0,1,12.252-47.77,1.447,1.447,0,0,1,2.594,1.281,118.792,118.792,0,0,0-11.956,46.625c-.605,12.789,2.187,25.792,4.887,38.367.78,3.632,1.586,7.389,2.3,11.075a132.613,132.613,0,0,1-.115,52.695A1.447,1.447,0,0,1,794.922,1783.294Z" transform="translate(-786.29 -1631.297)" fill="#62cce6"/>
                </g>
                <g id="Group_2996" data-name="Group 2996" transform="translate(0 5.729)">
                  <path id="Path_4229" data-name="Path 4229" d="M796.991,1653.02c-2.061,2.791-5.211,5.329-7.173,5.665-2.659.456-.313-5.573-2.968-5.1-2.874.779-7.985,7.425-10.862,8.188-2.122.563-2.521-.853-.621-3.184q.115-.141.239-.286c2.253-2.509,5.816-5.818,9.414-5.954,1.19.39,1.8.607,3.031,1.088,2.948-1.632,4.425-2.464,7.39-4.15,3.763-2.142,4.558-.513,1.793,3.4Q797.116,1652.851,796.991,1653.02Z" transform="translate(-763.048 -1648.337)" fill="#62cce6"/>
                  <path id="Path_4230" data-name="Path 4230" d="M772.792,1700.586c2.861-1.945,4.289-2.944,7.143-4.989,3.624-2.6,5.406-.248,3.8,4.779q-.069.217-.145.433c-1.256,3.576-3.987,6.648-6.232,6.922-3.044.371-3.1-2.564-6.134-2.169-3.163.78-6.209,4.291-9.381,5.047-2.34.558-3.472-1.3-2.24-4.222q.075-.177.159-.357c1.538-3.07,4.864-7.411,8.757-7.176C770.187,1699.485,771.041,1699.83,772.792,1700.586Z" transform="translate(-753.059 -1678.999)" fill="#62cce6"/>
                  <path id="Path_4231" data-name="Path 4231" d="M751.053,1761.4c2.448,1.124,3.711,1.738,6.322,3.077,3.268-2.037,4.888-3.108,8.108-5.34,5.488-4.307,6.5,4.118,6.678,7.23-.016.187-.037.375-.057.558-.375,3.358-2.266,7.836-6.237,7.99-4.03-.163-5.491-4.443-9.5-4.565-4.059.354-6.641,4.73-10.723,5.043-3.01.23-5.128-2.351-4.352-5.847.031-.141.067-.283.106-.427C742.6,1765.276,746.442,1760.3,751.053,1761.4Z" transform="translate(-741.136 -1721.085)" fill="#62cce6"/>
                  <path id="Path_4232" data-name="Path 4232" d="M762.179,1825.623c2.24.867,3.394,1.332,5.779,2.33,2.106-1.346,3.138-2.055,5.17-3.54,3.514-2.292,6.366,2.3,6.931,5.18.028.128.053.255.076.382.563,3.137-.839,5.455-3.183,5.322-3.179-.18-5.455-2.791-8.61-2.944-3.093.171-3.952,2.777-7.067,2.921a4.723,4.723,0,0,1-4.8-4.143c-.01-.1-.018-.2-.022-.3C756.4,1827.837,758.919,1824.618,762.179,1825.623Z" transform="translate(-751.3 -1764.804)" fill="#62cce6"/>
                  <path id="Path_4233" data-name="Path 4233" d="M774.009,1883.543c2.4,1.072,3.625,1.632,6.144,2.8,1.946-.776,2.9-1.192,4.773-2.079,3.423-1.11,6.4,2.369,7.51,5.188.04.105.077.21.112.313.854,2.56-.345,4.171-2.67,3.742-3.151-.58-5.4-3.283-8.534-3.844-3.035-.293-3.876,1.974-6.931,1.66a6.61,6.61,0,0,1-5.336-4.087c-.025-.083-.047-.167-.066-.25C768.337,1884.083,770.965,1882.182,774.009,1883.543Z" transform="translate(-759.569 -1804.167)" fill="#62cce6"/>
                </g>
              </g>
            </g>
            <g id="Group_3001" data-name="Group 3001" transform="translate(0 14.372)">
              <g id="Group_3000" data-name="Group 3000">
                <g id="Group_2999" data-name="Group 2999" transform="translate(10.38)">
                  <path id="Path_4234" data-name="Path 4234" d="M605.859,1806.316a1.447,1.447,0,0,1-1.148-2.325c11.266-14.744,13.369-26.366,6.82-37.682-5.282-9.128-13.945-16.041-22.323-22.728q-1.432-1.143-2.842-2.276-1.461-1.178-2.953-2.363c-8.116-6.471-16.508-13.162-22.054-22-10.574-16.854-1.537-32.231,6.18-42.331a1.446,1.446,0,1,1,2.3,1.757c-11.59,15.169-13.449,27.208-6.028,39.036,5.285,8.422,13.481,14.957,21.408,21.277q1.495,1.192,2.965,2.372,1.4,1.13,2.831,2.266c8.588,6.854,17.468,13.941,23.023,23.54a27.886,27.886,0,0,1,3.187,21.531c-1.48,6.025-4.725,12.176-10.213,19.357A1.443,1.443,0,0,1,605.859,1806.316Z" transform="translate(-556.545 -1674.043)" fill="#62cce6"/>
                </g>
                <path id="Path_4235" data-name="Path 4235" d="M531.915,1761.3c2.339,1.264,3.566,1.883,6.123,3.093,2.3-1.121,3.46-1.673,5.8-2.76,3.547-1.4,6.4,2.085,7.22,5.142q.044.162.082.323c.614,2.648-.62,4.615-3.105,4.514-3.369-.137-5.49-2.706-8.844-2.852-3.243.174-4.427,2.761-7.682,2.943a6.022,6.022,0,0,1-5.762-4.852q-.031-.174-.051-.351C525.356,1763.112,528.407,1759.592,531.915,1761.3Z" transform="translate(-525.671 -1731.668)" fill="#62cce6"/>
                <path id="Path_4236" data-name="Path 4236" d="M539.7,1699.943c2.1,1.634,3.206,2.448,5.527,4.064,2.454-.725,3.689-1.077,6.177-1.761,3.729-.79,5.962,3.115,6.269,6.267.012.112.021.222.027.332.166,2.714-1.375,4.449-3.81,3.937-3.3-.693-4.966-3.578-8.25-4.277-3.227-.365-4.823,1.99-8.063,1.63a6.022,6.022,0,0,1-4.879-5.739q0-.177.007-.354C532.932,1700.642,536.524,1697.676,539.7,1699.943Z" transform="translate(-530.337 -1690.708)" fill="#62cce6"/>
                <path id="Path_4237" data-name="Path 4237" d="M550.63,1806.648q5.165,1.5,10.393,2.807c2.348-1.653,3.525-2.462,5.894-4.047,4.447-2.053,10.393,1.7,13.233,5.01.109.123.214.246.315.369,2.5,3.037,1.856,5.6-1.56,5.855-3.852.282-9.7-1.672-13.557-1.4-3.583.584-5.165,3.406-8.746,4-4.086.4-8.216-1.912-10.576-5.088-.1-.135-.2-.277-.288-.417C542.7,1809.773,545.68,1804.8,550.63,1806.648Z" transform="translate(-538.178 -1760.854)" fill="#62cce6"/>
                <path id="Path_4238" data-name="Path 4238" d="M599.84,1852.646q5.268,1.165,10.566,2.209c2.07-1.6,3.091-2.386,5.115-3.917,4.214-2.075,10.466,1.185,13.466,4.179q.17.167.328.334c2.6,2.757,1.862,5.213-1.388,5.551-3.667.382-8.977-.95-12.645-.58-3.417.656-5.19,3.025-8.6,3.691-3.88.5-7.814-1.583-10.29-4.415-.107-.123-.212-.25-.313-.377C592.741,1855.924,594.85,1850.931,599.84,1852.646Z" transform="translate(-571.333 -1791.031)" fill="#62cce6"/>
                <path id="Path_4239" data-name="Path 4239" d="M657.14,1897.233c3.523.441,5.286.649,8.814,1.038,1.913-1.579,2.846-2.352,4.673-3.867,3.556-2.089,8.33-.109,10.971,2.586q.12.135.228.272c1.786,2.25.67,4.509-2.09,5.057-3.741.744-8.121-1.555-11.853-.822-3.542,1.012-2.8,4.189-6.357,5.213-2.621.755-6.085-.573-7.95-3.045q-.113-.15-.219-.3C650.835,1900.182,653.139,1896.395,657.14,1897.233Z" transform="translate(-609.73 -1819.738)" fill="#62cce6"/>
                <path id="Path_4240" data-name="Path 4240" d="M684.156,1937.065q5.027-.149,10.053-.4c2.807-2.628,4.152-3.9,6.747-6.387,3.513-2.872,9.344-2.652,12.018,1.241a2.975,2.975,0,0,1,.155.333c1.2,3.246-1.9,6.457-4.808,7.649-3.867,1.557-8.218,1.674-12.09,3.22-3.82,1.853-7.157,5.145-10.973,7.007-3.388,1.652-6.511.4-7.6-2.778-.044-.128-.085-.259-.123-.392C676.475,1942.193,679.071,1936.9,684.156,1937.065Z" transform="translate(-626.322 -1842.835)" fill="#62cce6"/>
              </g>
            </g>
          </g>
          <path id="Path_4241" data-name="Path 4241" d="M740.75,2054.534H661.408l-8.72-41.273,96.781,11.046Z" transform="translate(-84.313 -253.546)" fill="#035aa7"/>
        </g>
        <g id="Group_3012" data-name="Group 3012" transform="translate(45.844 -20.037) rotate(9)">
          <g id="Group_3011" data-name="Group 3011" transform="matrix(0.951, -0.309, 0.309, 0.951, 111.947, 415.458)">
            <g id="Group_3006" data-name="Group 3006" transform="translate(0 0)">
              <g id="Group_3005" data-name="Group 3005" transform="translate(0 0)">
                <path id="Path_4242" data-name="Path 4242" d="M157.334,30.087q-5.668.432-10.834.425C102.122,30.512,85.981,8,81.841.99A2,2,0,0,0,79.119.263a1.992,1.992,0,0,0-.73.72c-4.166,7-20.559,29.529-64.936,29.529q-5.173,0-10.838-.428A2.431,2.431,0,0,0,0,32.594C.637,50.319,7.426,149.251,79.976,185.642c72.547-36.391,79.335-135.323,79.971-153.048A2.427,2.427,0,0,0,157.334,30.087ZM79.976,176.079C21.727,143.833,10.871,65.565,8.855,38.9q2.329.074,4.6.074c36.739,0,56.82-14.666,66.524-25.244,9.707,10.578,29.788,25.244,66.523,25.244q2.265,0,4.6-.074C149.081,65.554,138.229,143.829,79.976,176.079Z" transform="translate(0 14.473)" fill="#fdb958"/>
                <path id="Path_4243" data-name="Path 4243" d="M142.241,25.17C140.226,51.826,129.374,130.1,71.121,162.351,12.871,130.1,2.016,51.837,0,25.17q2.328.074,4.6.074c36.739,0,56.82-14.666,66.524-25.244,9.707,10.578,29.789,25.244,66.524,25.244Q139.91,25.244,142.241,25.17Z" transform="translate(8.855 28.201)" fill="#fff"/>
                <g id="Group_3004" data-name="Group 3004" transform="translate(0.267 0)">
                  <path id="Path_4244" data-name="Path 4244" d="M79.709,181.608a1.228,1.228,0,0,1-.6-.154c-27.861-15.424-49.078-41.88-63.063-78.635C4.678,72.93,1.115,43.8,0,29.1a1.229,1.229,0,0,1,1.265-1.321c1.69.053,3.384.081,5.034.081,39.1,0,61.01-14.932,72.5-27.458a1.229,1.229,0,0,1,1.811,0c11.5,12.526,33.4,27.458,72.5,27.458,1.65,0,3.344-.027,5.034-.081a1.229,1.229,0,0,1,1.265,1.321c-1.112,14.7-4.675,43.83-16.046,73.716-13.985,36.757-35.2,63.216-63.064,78.641A1.228,1.228,0,0,1,79.709,181.608ZM2.562,30.27C4.83,58.016,16.92,143.711,79.709,178.971c62.786-35.26,74.878-120.956,77.147-148.7-1.258.029-2.511.044-3.74.044-18.2,0-34.487-3.251-48.4-9.664a81.014,81.014,0,0,1-25-17.621,80.958,80.958,0,0,1-25,17.621c-13.915,6.412-30.2,9.664-48.4,9.664C5.073,30.315,3.82,30.3,2.562,30.27Z" fill="#090928"/>
                </g>
              </g>
            </g>
            <g id="Group_3010" data-name="Group 3010" transform="translate(50.322 61.787)">
              <g id="Group_3008" data-name="Group 3008" transform="translate(5.676 0)">
                <g id="Group_3007" data-name="Group 3007">
                  <path id="Path_4245" data-name="Path 4245" d="M44.846,59.218H2.967A2.967,2.967,0,0,1,0,56.251V37.023a2.953,2.953,0,0,1,.446-1.565,53.7,53.7,0,0,0,.045-6.651c-.157-4.631-.32-9.418,1.816-14.534A23.6,23.6,0,0,1,23.905,0,23.934,23.934,0,0,1,47.813,23.906V56.251A2.967,2.967,0,0,1,44.846,59.218ZM5.933,53.285H41.88V23.906A17.994,17.994,0,0,0,23.906,5.933,17.6,17.6,0,0,0,7.782,16.56c-1.637,3.92-1.5,7.867-1.362,12.046a50.282,50.282,0,0,1-.241,8.914,2.961,2.961,0,0,1-.247.836Z" fill="#090928"/>
                </g>
              </g>
              <g id="Group_3009" data-name="Group 3009" transform="translate(0 32.738)">
                <path id="Rectangle_1617" data-name="Rectangle 1617" d="M19.842,0H39.323A19.842,19.842,0,0,1,59.165,19.842v0A19.842,19.842,0,0,1,39.323,39.684H19.842A19.842,19.842,0,0,1,0,19.842v0A19.842,19.842,0,0,1,19.842,0Z" fill="#090928"/>
              </g>
              <path id="Path_4246" data-name="Path 4246" d="M11.2,5.6A5.6,5.6,0,0,0,5.431,0,5.659,5.659,0,0,0,0,5.6a5.576,5.576,0,0,0,1.757,4.06L.42,17.029a1.966,1.966,0,0,0,1.934,2.317H8.844a1.966,1.966,0,0,0,1.934-2.317L9.441,9.664A5.577,5.577,0,0,0,11.2,5.6Z" transform="translate(23.892 43.536)" fill="#fff"/>
            </g>
          </g>
        </g>
      </g>
    </g>
  </g>
</svg>
